<?xml version="1.0" encoding="utf-8" standalone="no"?>
<!DOCTYPE svg PUBLIC "-//W3C//DTD SVG 1.1//EN"
  "http://www.w3.org/Graphics/SVG/1.1/DTD/svg11.dtd">
<svg xmlns:xlink="http://www.w3.org/1999/xlink" width="460.8pt" height="345.6pt" viewBox="0 0 460.8 345.6" xmlns="http://www.w3.org/2000/svg" version="1.1">
 <metadata>
  <rdf:RDF xmlns:dc="http://purl.org/dc/elements/1.1/" xmlns:cc="http://creativecommons.org/ns#" xmlns:rdf="http://www.w3.org/1999/02/22-rdf-syntax-ns#">
   <cc:Work>
    <dc:type rdf:resource="http://purl.org/dc/dcmitype/StillImage"/>
    <dc:date>2025-07-01T11:23:44.460097</dc:date>
    <dc:format>image/svg+xml</dc:format>
    <dc:creator>
     <cc:Agent>
      <dc:title>Matplotlib v3.7.5, https://matplotlib.org/</dc:title>
     </cc:Agent>
    </dc:creator>
   </cc:Work>
  </rdf:RDF>
 </metadata>
 <defs>
  <style type="text/css">*{stroke-linejoin: round; stroke-linecap: butt}</style>
 </defs>
 <g id="figure_1">
  <g id="patch_1">
   <path d="M 0 345.6 
L 460.8 345.6 
L 460.8 0 
L 0 0 
z
" style="fill: #ffffff"/>
  </g>
  <g id="axes_1">
   <g id="patch_2">
    <path d="M 57.6 307.584 
L 414.72 307.584 
L 414.72 41.472 
L 57.6 41.472 
z
" style="fill: #ffffff"/>
   </g>
   <g id="matplotlib.axis_1">
    <g id="xtick_1">
     <g id="line2d_1">
      <path d="M 73.832727 307.584 
L 73.832727 41.472 
" clip-path="url(#p950e54cb83)" style="fill: none; stroke: #b0b0b0; stroke-width: 0.8; stroke-linecap: square"/>
     </g>
     <g id="line2d_2">
      <defs>
       <path id="m8871f0f5b2" d="M 0 0 
L 0 3.5 
" style="stroke: #000000; stroke-width: 0.8"/>
      </defs>
      <g>
       <use xlink:href="#m8871f0f5b2" x="73.832727" y="307.584" style="stroke: #000000; stroke-width: 0.8"/>
      </g>
     </g>
     <g id="text_1">
      <!-- 0.0 -->
      <g transform="translate(65.881165 322.182437) scale(0.1 -0.1)">
       <defs>
        <path id="DejaVuSans-30" d="M 2034 4250 
Q 1547 4250 1301 3770 
Q 1056 3291 1056 2328 
Q 1056 1369 1301 889 
Q 1547 409 2034 409 
Q 2525 409 2770 889 
Q 3016 1369 3016 2328 
Q 3016 3291 2770 3770 
Q 2525 4250 2034 4250 
z
M 2034 4750 
Q 2819 4750 3233 4129 
Q 3647 3509 3647 2328 
Q 3647 1150 3233 529 
Q 2819 -91 2034 -91 
Q 1250 -91 836 529 
Q 422 1150 422 2328 
Q 422 3509 836 4129 
Q 1250 4750 2034 4750 
z
" transform="scale(0.015625)"/>
        <path id="DejaVuSans-2e" d="M 684 794 
L 1344 794 
L 1344 0 
L 684 0 
L 684 794 
z
" transform="scale(0.015625)"/>
       </defs>
       <use xlink:href="#DejaVuSans-30"/>
       <use xlink:href="#DejaVuSans-2e" x="63.623047"/>
       <use xlink:href="#DejaVuSans-30" x="95.410156"/>
      </g>
     </g>
    </g>
    <g id="xtick_2">
     <g id="line2d_3">
      <path d="M 138.763636 307.584 
L 138.763636 41.472 
" clip-path="url(#p950e54cb83)" style="fill: none; stroke: #b0b0b0; stroke-width: 0.8; stroke-linecap: square"/>
     </g>
     <g id="line2d_4">
      <g>
       <use xlink:href="#m8871f0f5b2" x="138.763636" y="307.584" style="stroke: #000000; stroke-width: 0.8"/>
      </g>
     </g>
     <g id="text_2">
      <!-- 0.2 -->
      <g transform="translate(130.812074 322.182437) scale(0.1 -0.1)">
       <defs>
        <path id="DejaVuSans-32" d="M 1228 531 
L 3431 531 
L 3431 0 
L 469 0 
L 469 531 
Q 828 903 1448 1529 
Q 2069 2156 2228 2338 
Q 2531 2678 2651 2914 
Q 2772 3150 2772 3378 
Q 2772 3750 2511 3984 
Q 2250 4219 1831 4219 
Q 1534 4219 1204 4116 
Q 875 4013 500 3803 
L 500 4441 
Q 881 4594 1212 4672 
Q 1544 4750 1819 4750 
Q 2544 4750 2975 4387 
Q 3406 4025 3406 3419 
Q 3406 3131 3298 2873 
Q 3191 2616 2906 2266 
Q 2828 2175 2409 1742 
Q 1991 1309 1228 531 
z
" transform="scale(0.015625)"/>
       </defs>
       <use xlink:href="#DejaVuSans-30"/>
       <use xlink:href="#DejaVuSans-2e" x="63.623047"/>
       <use xlink:href="#DejaVuSans-32" x="95.410156"/>
      </g>
     </g>
    </g>
    <g id="xtick_3">
     <g id="line2d_5">
      <path d="M 203.694545 307.584 
L 203.694545 41.472 
" clip-path="url(#p950e54cb83)" style="fill: none; stroke: #b0b0b0; stroke-width: 0.8; stroke-linecap: square"/>
     </g>
     <g id="line2d_6">
      <g>
       <use xlink:href="#m8871f0f5b2" x="203.694545" y="307.584" style="stroke: #000000; stroke-width: 0.8"/>
      </g>
     </g>
     <g id="text_3">
      <!-- 0.4 -->
      <g transform="translate(195.742983 322.182437) scale(0.1 -0.1)">
       <defs>
        <path id="DejaVuSans-34" d="M 2419 4116 
L 825 1625 
L 2419 1625 
L 2419 4116 
z
M 2253 4666 
L 3047 4666 
L 3047 1625 
L 3713 1625 
L 3713 1100 
L 3047 1100 
L 3047 0 
L 2419 0 
L 2419 1100 
L 313 1100 
L 313 1709 
L 2253 4666 
z
" transform="scale(0.015625)"/>
       </defs>
       <use xlink:href="#DejaVuSans-30"/>
       <use xlink:href="#DejaVuSans-2e" x="63.623047"/>
       <use xlink:href="#DejaVuSans-34" x="95.410156"/>
      </g>
     </g>
    </g>
    <g id="xtick_4">
     <g id="line2d_7">
      <path d="M 268.625455 307.584 
L 268.625455 41.472 
" clip-path="url(#p950e54cb83)" style="fill: none; stroke: #b0b0b0; stroke-width: 0.8; stroke-linecap: square"/>
     </g>
     <g id="line2d_8">
      <g>
       <use xlink:href="#m8871f0f5b2" x="268.625455" y="307.584" style="stroke: #000000; stroke-width: 0.8"/>
      </g>
     </g>
     <g id="text_4">
      <!-- 0.6 -->
      <g transform="translate(260.673892 322.182437) scale(0.1 -0.1)">
       <defs>
        <path id="DejaVuSans-36" d="M 2113 2584 
Q 1688 2584 1439 2293 
Q 1191 2003 1191 1497 
Q 1191 994 1439 701 
Q 1688 409 2113 409 
Q 2538 409 2786 701 
Q 3034 994 3034 1497 
Q 3034 2003 2786 2293 
Q 2538 2584 2113 2584 
z
M 3366 4563 
L 3366 3988 
Q 3128 4100 2886 4159 
Q 2644 4219 2406 4219 
Q 1781 4219 1451 3797 
Q 1122 3375 1075 2522 
Q 1259 2794 1537 2939 
Q 1816 3084 2150 3084 
Q 2853 3084 3261 2657 
Q 3669 2231 3669 1497 
Q 3669 778 3244 343 
Q 2819 -91 2113 -91 
Q 1303 -91 875 529 
Q 447 1150 447 2328 
Q 447 3434 972 4092 
Q 1497 4750 2381 4750 
Q 2619 4750 2861 4703 
Q 3103 4656 3366 4563 
z
" transform="scale(0.015625)"/>
       </defs>
       <use xlink:href="#DejaVuSans-30"/>
       <use xlink:href="#DejaVuSans-2e" x="63.623047"/>
       <use xlink:href="#DejaVuSans-36" x="95.410156"/>
      </g>
     </g>
    </g>
    <g id="xtick_5">
     <g id="line2d_9">
      <path d="M 333.556364 307.584 
L 333.556364 41.472 
" clip-path="url(#p950e54cb83)" style="fill: none; stroke: #b0b0b0; stroke-width: 0.8; stroke-linecap: square"/>
     </g>
     <g id="line2d_10">
      <g>
       <use xlink:href="#m8871f0f5b2" x="333.556364" y="307.584" style="stroke: #000000; stroke-width: 0.8"/>
      </g>
     </g>
     <g id="text_5">
      <!-- 0.8 -->
      <g transform="translate(325.604801 322.182437) scale(0.1 -0.1)">
       <defs>
        <path id="DejaVuSans-38" d="M 2034 2216 
Q 1584 2216 1326 1975 
Q 1069 1734 1069 1313 
Q 1069 891 1326 650 
Q 1584 409 2034 409 
Q 2484 409 2743 651 
Q 3003 894 3003 1313 
Q 3003 1734 2745 1975 
Q 2488 2216 2034 2216 
z
M 1403 2484 
Q 997 2584 770 2862 
Q 544 3141 544 3541 
Q 544 4100 942 4425 
Q 1341 4750 2034 4750 
Q 2731 4750 3128 4425 
Q 3525 4100 3525 3541 
Q 3525 3141 3298 2862 
Q 3072 2584 2669 2484 
Q 3125 2378 3379 2068 
Q 3634 1759 3634 1313 
Q 3634 634 3220 271 
Q 2806 -91 2034 -91 
Q 1263 -91 848 271 
Q 434 634 434 1313 
Q 434 1759 690 2068 
Q 947 2378 1403 2484 
z
M 1172 3481 
Q 1172 3119 1398 2916 
Q 1625 2713 2034 2713 
Q 2441 2713 2670 2916 
Q 2900 3119 2900 3481 
Q 2900 3844 2670 4047 
Q 2441 4250 2034 4250 
Q 1625 4250 1398 4047 
Q 1172 3844 1172 3481 
z
" transform="scale(0.015625)"/>
       </defs>
       <use xlink:href="#DejaVuSans-30"/>
       <use xlink:href="#DejaVuSans-2e" x="63.623047"/>
       <use xlink:href="#DejaVuSans-38" x="95.410156"/>
      </g>
     </g>
    </g>
    <g id="xtick_6">
     <g id="line2d_11">
      <path d="M 398.487273 307.584 
L 398.487273 41.472 
" clip-path="url(#p950e54cb83)" style="fill: none; stroke: #b0b0b0; stroke-width: 0.8; stroke-linecap: square"/>
     </g>
     <g id="line2d_12">
      <g>
       <use xlink:href="#m8871f0f5b2" x="398.487273" y="307.584" style="stroke: #000000; stroke-width: 0.8"/>
      </g>
     </g>
     <g id="text_6">
      <!-- 1.0 -->
      <g transform="translate(390.53571 322.182437) scale(0.1 -0.1)">
       <defs>
        <path id="DejaVuSans-31" d="M 794 531 
L 1825 531 
L 1825 4091 
L 703 3866 
L 703 4441 
L 1819 4666 
L 2450 4666 
L 2450 531 
L 3481 531 
L 3481 0 
L 794 0 
L 794 531 
z
" transform="scale(0.015625)"/>
       </defs>
       <use xlink:href="#DejaVuSans-31"/>
       <use xlink:href="#DejaVuSans-2e" x="63.623047"/>
       <use xlink:href="#DejaVuSans-30" x="95.410156"/>
      </g>
     </g>
    </g>
    <g id="text_7">
     <!-- FPR -->
     <g transform="translate(226.795156 335.860562) scale(0.1 -0.1)">
      <defs>
       <path id="DejaVuSans-46" d="M 628 4666 
L 3309 4666 
L 3309 4134 
L 1259 4134 
L 1259 2759 
L 3109 2759 
L 3109 2228 
L 1259 2228 
L 1259 0 
L 628 0 
L 628 4666 
z
" transform="scale(0.015625)"/>
       <path id="DejaVuSans-50" d="M 1259 4147 
L 1259 2394 
L 2053 2394 
Q 2494 2394 2734 2622 
Q 2975 2850 2975 3272 
Q 2975 3691 2734 3919 
Q 2494 4147 2053 4147 
L 1259 4147 
z
M 628 4666 
L 2053 4666 
Q 2838 4666 3239 4311 
Q 3641 3956 3641 3272 
Q 3641 2581 3239 2228 
Q 2838 1875 2053 1875 
L 1259 1875 
L 1259 0 
L 628 0 
L 628 4666 
z
" transform="scale(0.015625)"/>
       <path id="DejaVuSans-52" d="M 2841 2188 
Q 3044 2119 3236 1894 
Q 3428 1669 3622 1275 
L 4263 0 
L 3584 0 
L 2988 1197 
Q 2756 1666 2539 1819 
Q 2322 1972 1947 1972 
L 1259 1972 
L 1259 0 
L 628 0 
L 628 4666 
L 2053 4666 
Q 2853 4666 3247 4331 
Q 3641 3997 3641 3322 
Q 3641 2881 3436 2590 
Q 3231 2300 2841 2188 
z
M 1259 4147 
L 1259 2491 
L 2053 2491 
Q 2509 2491 2742 2702 
Q 2975 2913 2975 3322 
Q 2975 3731 2742 3939 
Q 2509 4147 2053 4147 
L 1259 4147 
z
" transform="scale(0.015625)"/>
      </defs>
      <use xlink:href="#DejaVuSans-46"/>
      <use xlink:href="#DejaVuSans-50" x="57.519531"/>
      <use xlink:href="#DejaVuSans-52" x="117.822266"/>
     </g>
    </g>
   </g>
   <g id="matplotlib.axis_2">
    <g id="ytick_1">
     <g id="line2d_13">
      <path d="M 57.6 295.488 
L 414.72 295.488 
" clip-path="url(#p950e54cb83)" style="fill: none; stroke: #b0b0b0; stroke-width: 0.8; stroke-linecap: square"/>
     </g>
     <g id="line2d_14">
      <defs>
       <path id="mcbb6afb35f" d="M 0 0 
L -3.5 0 
" style="stroke: #000000; stroke-width: 0.8"/>
      </defs>
      <g>
       <use xlink:href="#mcbb6afb35f" x="57.6" y="295.488" style="stroke: #000000; stroke-width: 0.8"/>
      </g>
     </g>
     <g id="text_8">
      <!-- 0.0 -->
      <g transform="translate(34.696875 299.287219) scale(0.1 -0.1)">
       <use xlink:href="#DejaVuSans-30"/>
       <use xlink:href="#DejaVuSans-2e" x="63.623047"/>
       <use xlink:href="#DejaVuSans-30" x="95.410156"/>
      </g>
     </g>
    </g>
    <g id="ytick_2">
     <g id="line2d_15">
      <path d="M 57.6 247.104 
L 414.72 247.104 
" clip-path="url(#p950e54cb83)" style="fill: none; stroke: #b0b0b0; stroke-width: 0.8; stroke-linecap: square"/>
     </g>
     <g id="line2d_16">
      <g>
       <use xlink:href="#mcbb6afb35f" x="57.6" y="247.104" style="stroke: #000000; stroke-width: 0.8"/>
      </g>
     </g>
     <g id="text_9">
      <!-- 0.2 -->
      <g transform="translate(34.696875 250.903219) scale(0.1 -0.1)">
       <use xlink:href="#DejaVuSans-30"/>
       <use xlink:href="#DejaVuSans-2e" x="63.623047"/>
       <use xlink:href="#DejaVuSans-32" x="95.410156"/>
      </g>
     </g>
    </g>
    <g id="ytick_3">
     <g id="line2d_17">
      <path d="M 57.6 198.72 
L 414.72 198.72 
" clip-path="url(#p950e54cb83)" style="fill: none; stroke: #b0b0b0; stroke-width: 0.8; stroke-linecap: square"/>
     </g>
     <g id="line2d_18">
      <g>
       <use xlink:href="#mcbb6afb35f" x="57.6" y="198.72" style="stroke: #000000; stroke-width: 0.8"/>
      </g>
     </g>
     <g id="text_10">
      <!-- 0.4 -->
      <g transform="translate(34.696875 202.519219) scale(0.1 -0.1)">
       <use xlink:href="#DejaVuSans-30"/>
       <use xlink:href="#DejaVuSans-2e" x="63.623047"/>
       <use xlink:href="#DejaVuSans-34" x="95.410156"/>
      </g>
     </g>
    </g>
    <g id="ytick_4">
     <g id="line2d_19">
      <path d="M 57.6 150.336 
L 414.72 150.336 
" clip-path="url(#p950e54cb83)" style="fill: none; stroke: #b0b0b0; stroke-width: 0.8; stroke-linecap: square"/>
     </g>
     <g id="line2d_20">
      <g>
       <use xlink:href="#mcbb6afb35f" x="57.6" y="150.336" style="stroke: #000000; stroke-width: 0.8"/>
      </g>
     </g>
     <g id="text_11">
      <!-- 0.6 -->
      <g transform="translate(34.696875 154.135219) scale(0.1 -0.1)">
       <use xlink:href="#DejaVuSans-30"/>
       <use xlink:href="#DejaVuSans-2e" x="63.623047"/>
       <use xlink:href="#DejaVuSans-36" x="95.410156"/>
      </g>
     </g>
    </g>
    <g id="ytick_5">
     <g id="line2d_21">
      <path d="M 57.6 101.952 
L 414.72 101.952 
" clip-path="url(#p950e54cb83)" style="fill: none; stroke: #b0b0b0; stroke-width: 0.8; stroke-linecap: square"/>
     </g>
     <g id="line2d_22">
      <g>
       <use xlink:href="#mcbb6afb35f" x="57.6" y="101.952" style="stroke: #000000; stroke-width: 0.8"/>
      </g>
     </g>
     <g id="text_12">
      <!-- 0.8 -->
      <g transform="translate(34.696875 105.751219) scale(0.1 -0.1)">
       <use xlink:href="#DejaVuSans-30"/>
       <use xlink:href="#DejaVuSans-2e" x="63.623047"/>
       <use xlink:href="#DejaVuSans-38" x="95.410156"/>
      </g>
     </g>
    </g>
    <g id="ytick_6">
     <g id="line2d_23">
      <path d="M 57.6 53.568 
L 414.72 53.568 
" clip-path="url(#p950e54cb83)" style="fill: none; stroke: #b0b0b0; stroke-width: 0.8; stroke-linecap: square"/>
     </g>
     <g id="line2d_24">
      <g>
       <use xlink:href="#mcbb6afb35f" x="57.6" y="53.568" style="stroke: #000000; stroke-width: 0.8"/>
      </g>
     </g>
     <g id="text_13">
      <!-- 1.0 -->
      <g transform="translate(34.696875 57.367219) scale(0.1 -0.1)">
       <use xlink:href="#DejaVuSans-31"/>
       <use xlink:href="#DejaVuSans-2e" x="63.623047"/>
       <use xlink:href="#DejaVuSans-30" x="95.410156"/>
      </g>
     </g>
    </g>
    <g id="text_14">
     <!-- TPR -->
     <g transform="translate(28.617188 184.070969) rotate(-90) scale(0.1 -0.1)">
      <defs>
       <path id="DejaVuSans-54" d="M -19 4666 
L 3928 4666 
L 3928 4134 
L 2272 4134 
L 2272 0 
L 1638 0 
L 1638 4134 
L -19 4134 
L -19 4666 
z
" transform="scale(0.015625)"/>
      </defs>
      <use xlink:href="#DejaVuSans-54"/>
      <use xlink:href="#DejaVuSans-50" x="61.083984"/>
      <use xlink:href="#DejaVuSans-52" x="121.386719"/>
     </g>
    </g>
   </g>
   <g id="line2d_25">
    <path d="M 73.832727 295.488 
L 74.048707 295.379196 
L 74.158995 295.168387 
L 74.209543 295.059582 
L 74.311297 294.862374 
L 74.381539 294.75357 
L 74.488545 294.447557 
L 74.564696 294.338752 
L 74.672357 294.114343 
L 74.729471 294.005539 
L 74.835163 293.808331 
L 74.927726 293.699526 
L 75.030792 293.502318 
L 75.097752 293.393513 
L 75.199506 293.175904 
L 75.271718 293.0671 
L 75.380693 292.83589 
L 75.453561 292.727086 
L 75.559253 292.550279 
L 75.607176 292.441474 
L 75.715494 292.155862 
L 75.779829 292.047058 
L 75.88749 291.775047 
L 75.943291 291.673042 
L 76.053578 291.435032 
L 76.123165 291.326228 
L 76.234109 291.013415 
L 76.289252 290.904611 
L 76.400196 290.741404 
L 76.467157 290.632599 
L 76.576788 290.448992 
L 76.636527 290.340187 
L 76.739593 290.115778 
L 76.794081 290.006973 
L 76.882048 289.836966 
L 76.94507 289.728162 
L 77.052075 289.524153 
L 77.098685 289.415349 
L 77.199125 289.258943 
L 77.254925 289.150138 
L 77.364557 288.94613 
L 77.428891 288.837325 
L 77.539835 288.578914 
L 77.625833 288.48371 
L 77.728243 288.286502 
L 77.788639 288.177698 
L 77.899583 287.99409 
L 77.957352 287.885286 
L 78.063701 287.674477 
L 78.12344 287.565673 
L 78.229133 287.341263 
L 78.275742 287.232459 
L 78.381435 287.01485 
L 78.468089 286.906045 
L 78.575094 286.722438 
L 78.655184 286.613633 
L 78.758251 286.396024 
L 78.82718 286.28722 
L 78.935498 286.076411 
L 78.988673 285.967606 
L 79.086487 285.736397 
L 79.16986 285.627592 
L 79.280147 285.443985 
L 79.332665 285.33518 
L 79.435075 285.117571 
L 79.489562 285.008767 
L 79.597881 284.899962 
L 79.678627 284.791158 
L 79.781037 284.59395 
L 79.888699 284.485145 
L 79.999643 284.274336 
L 80.063321 284.165532 
L 80.174265 284.002325 
L 80.229408 283.900321 
L 80.336414 283.63511 
L 80.387619 283.526306 
L 80.496593 283.322297 
L 80.539921 283.213493 
L 80.650208 282.934681 
L 80.693535 282.825877 
L 80.799884 282.560666 
L 80.854372 282.451861 
L 80.964659 282.200251 
L 81.017177 282.098247 
L 81.128121 281.867037 
L 81.168823 281.765033 
L 81.278454 281.540623 
L 81.321781 281.431819 
L 81.428786 281.180209 
L 81.477365 281.078204 
L 81.58634 280.806193 
L 81.616538 280.697389 
L 81.726169 280.438978 
L 81.772778 280.330173 
L 81.883723 280.058162 
L 81.932302 279.956158 
L 82.039307 279.684147 
L 82.083291 279.575342 
L 82.188983 279.344133 
L 82.253317 279.235328 
L 82.362292 278.976917 
L 82.411527 278.868113 
L 82.520502 278.575701 
L 82.550043 278.473697 
L 82.657049 278.201685 
L 82.706941 278.113282 
L 82.815259 277.773268 
L 82.866464 277.664463 
L 82.9715 277.276847 
L 83.024018 277.168043 
L 83.134305 276.964034 
L 83.18551 276.85523 
L 83.296454 276.549217 
L 83.390986 276.440413 
L 83.500618 276.216003 
L 83.535411 276.107199 
L 83.646355 275.875989 
L 83.70872 275.767185 
L 83.819007 275.603978 
L 83.876777 275.495174 
L 83.981156 275.250363 
L 84.035644 275.141559 
L 84.145275 274.93075 
L 84.236525 274.821946 
L 84.344187 274.624738 
L 84.435436 274.515933 
L 84.545067 274.20312 
L 84.592334 274.094316 
L 84.697369 273.849506 
L 84.744636 273.747501 
L 84.854267 273.502691 
L 84.903502 273.393887 
L 85.01182 273.155877 
L 85.066308 273.047072 
L 85.170031 272.795462 
L 85.250777 272.686657 
L 85.361721 272.360244 
L 85.393888 272.251439 
L 85.502863 272.054231 
L 85.548816 271.945427 
L 85.653852 271.700617 
L 85.708996 271.591812 
L 85.81994 271.340202 
L 85.869175 271.231397 
L 85.976837 270.966186 
L 86.028698 270.857382 
L 86.139642 270.626172 
L 86.195443 270.517368 
L 86.301792 270.258957 
L 86.344462 270.150153 
L 86.454093 269.898542 
L 86.508581 269.796538 
L 86.615586 269.544928 
L 86.663509 269.436123 
L 86.766575 269.191313 
L 86.863733 269.082509 
L 86.968112 268.817298 
L 87.03376 268.708493 
L 87.144047 268.38888 
L 87.202474 268.280075 
L 87.312761 268.008064 
L 87.352806 267.90606 
L 87.463094 267.593247 
L 87.530054 267.484442 
L 87.638372 267.226032 
L 87.695485 267.117227 
L 87.80643 266.818015 
L 87.883237 266.70921 
L 87.980395 266.498402 
L 88.045386 266.389597 
L 88.150422 266.056383 
L 88.212787 265.947579 
L 88.321762 265.695969 
L 88.370341 265.587164 
L 88.478002 265.267551 
L 88.523299 265.158746 
L 88.634243 264.879935 
L 88.69989 264.77113 
L 88.810835 264.444717 
L 88.86204 264.342713 
L 88.961167 264.077502 
L 89.037318 263.968697 
L 89.148262 263.683085 
L 89.195528 263.574281 
L 89.305159 263.343071 
L 89.353738 263.234267 
L 89.458774 262.982656 
L 89.532956 262.873852 
L 89.634053 262.663043 
L 89.695105 262.554239 
L 89.802767 262.309429 
L 89.855941 262.200624 
L 89.96032 261.85381 
L 90.025968 261.745005 
L 90.132316 261.527396 
L 90.188117 261.418592 
L 90.299061 261.105779 
L 90.375212 260.996974 
L 90.48156 260.663761 
L 90.518323 260.554956 
L 90.620733 260.310146 
L 90.691632 260.201341 
L 90.792073 259.902129 
L 90.855751 259.793325 
L 90.950939 259.609717 
L 91.032999 259.500912 
L 91.138034 259.296904 
L 91.187926 259.1881 
L 91.29887 258.95689 
L 91.330381 258.848085 
L 91.438699 258.630476 
L 91.483996 258.521672 
L 91.584437 258.324464 
L 91.649427 258.215659 
L 91.759059 257.957249 
L 91.82208 257.848444 
L 91.932368 257.569633 
L 91.983573 257.467628 
L 92.089265 257.182017 
L 92.154256 257.073212 
L 92.2652 256.814801 
L 92.312466 256.705997 
L 92.42341 256.386384 
L 92.460829 256.284379 
L 92.571773 256.05317 
L 92.636108 255.944365 
L 92.745739 255.753958 
L 92.808104 255.645153 
L 92.918391 255.345941 
L 92.959749 255.237136 
L 93.062816 254.937924 
L 93.125837 254.829119 
L 93.236781 254.645512 
L 93.282734 254.536707 
L 93.393022 254.257896 
L 93.458669 254.149091 
L 93.563705 253.945083 
L 93.610315 253.843079 
L 93.721259 253.557467 
L 93.745548 253.448662 
L 93.855836 253.14945 
L 93.906385 253.040645 
L 94.016672 252.761834 
L 94.063938 252.653029 
L 94.162409 252.455821 
L 94.211645 252.347017 
L 94.321276 252.088606 
L 94.382985 251.979802 
L 94.491303 251.775793 
L 94.533974 251.666989 
L 94.644918 251.45618 
L 94.697436 251.347375 
L 94.80641 251.075364 
L 94.861554 250.96656 
L 94.970529 250.653747 
L 95.020421 250.544942 
L 95.131365 250.300132 
L 95.175348 250.191328 
L 95.28301 249.932917 
L 95.325681 249.824112 
L 95.436625 249.592903 
L 95.473388 249.484098 
L 95.584332 249.259689 
L 95.649323 249.150885 
L 95.75961 248.858473 
L 95.821975 248.749668 
L 95.932263 248.525259 
L 95.959178 248.416454 
L 96.069466 248.185245 
L 96.121984 248.07644 
L 96.231615 247.83163 
L 96.279538 247.722826 
L 96.384573 247.457615 
L 96.42987 247.35561 
L 96.540814 247.069999 
L 96.602523 246.961194 
L 96.71281 246.668782 
L 96.784366 246.559978 
L 96.893997 246.36957 
L 96.962927 246.260765 
L 97.073214 246.029556 
L 97.128358 245.920751 
L 97.238646 245.743944 
L 97.278034 245.635139 
L 97.384383 245.451532 
L 97.438214 245.342727 
L 97.549158 245.15912 
L 97.604302 245.050315 
L 97.714589 244.846307 
L 97.774328 244.737502 
L 97.882647 244.533494 
L 97.929256 244.424689 
L 98.028384 244.247882 
L 98.08681 244.139077 
L 98.194472 243.941869 
L 98.253554 243.833065 
L 98.35859 243.629056 
L 98.421612 243.527052 
L 98.531899 243.309443 
L 98.594264 243.200639 
L 98.702582 242.99663 
L 98.793176 242.887826 
L 98.902807 242.697418 
L 98.986836 242.588613 
L 99.097123 242.364204 
L 99.172618 242.2554 
L 99.282249 242.085393 
L 99.343957 241.990189 
L 99.452276 241.820182 
L 99.506763 241.711377 
L 99.617707 241.473367 
L 99.671538 241.364563 
L 99.7792 241.187755 
L 99.845503 241.078951 
L 99.955135 240.929345 
L 100.014874 240.82054 
L 100.117284 240.711736 
L 100.199999 240.602931 
L 100.303722 240.392123 
L 100.392346 240.283318 
L 100.500008 239.875301 
L 100.585349 239.766497 
L 100.694981 239.569289 
L 100.733713 239.460484 
L 100.844 239.276876 
L 100.908991 239.168072 
L 101.007462 238.998065 
L 101.119063 238.88926 
L 101.223442 238.692052 
L 101.300906 238.583248 
L 101.403316 238.39284 
L 101.5031 238.290836 
L 101.607479 238.195632 
L 101.659997 238.093628 
L 101.767659 237.91682 
L 101.858909 237.808016 
L 101.967883 237.610808 
L 102.041408 237.502003 
L 102.150383 237.297995 
L 102.221282 237.18919 
L 102.323692 236.95118 
L 102.4005 236.842376 
L 102.510131 236.604366 
L 102.590221 236.495561 
L 102.6946 236.352756 
L 102.781254 236.250751 
L 102.883008 236.060343 
L 102.965067 235.951539 
L 103.075355 235.747531 
L 103.145597 235.638726 
L 103.253916 235.434718 
L 103.310372 235.325913 
L 103.418691 235.155906 
L 103.51191 235.047102 
L 103.61235 234.904296 
L 103.691127 234.795491 
L 103.802071 234.598283 
L 103.888069 234.489479 
L 103.997044 234.333072 
L 104.069913 234.224268 
L 104.17101 234.013459 
L 104.262259 233.904654 
L 104.363356 233.707446 
L 104.451324 233.598642 
L 104.562268 233.387833 
L 104.63448 233.285829 
L 104.744768 233.095421 
L 104.830109 232.986616 
L 104.935802 232.809809 
L 105.007357 232.701005 
L 105.109767 232.496996 
L 105.227933 232.388192 
L 105.334938 232.218185 
L 105.441943 232.10938 
L 105.550918 231.918972 
L 105.648732 231.810168 
L 105.75705 231.646961 
L 105.816133 231.538157 
L 105.927077 231.37495 
L 105.989442 231.266145 
L 106.087913 231.150541 
L 106.177194 231.041736 
L 106.288138 230.89893 
L 106.355098 230.790126 
L 106.464073 230.715323 
L 106.54285 230.606518 
L 106.651168 230.450112 
L 106.749639 230.341307 
L 106.857957 230.1577 
L 106.957085 230.048895 
L 107.056212 229.953691 
L 107.133676 229.844887 
L 107.234773 229.647678 
L 107.333244 229.538874 
L 107.439593 229.382467 
L 107.535438 229.273663 
L 107.643756 229.110456 
L 107.700213 229.001652 
L 107.805905 228.831645 
L 107.889277 228.72284 
L 107.992344 228.566434 
L 108.052739 228.457629 
L 108.155806 228.308023 
L 108.226049 228.199219 
L 108.320581 228.022411 
L 108.419708 227.913607 
L 108.530652 227.716399 
L 108.601552 227.607594 
L 108.706587 227.457988 
L 108.814249 227.349183 
L 108.913377 227.117974 
L 108.987558 227.009169 
L 109.087342 226.845963 
L 109.179905 226.737158 
L 109.290193 226.587552 
L 109.367657 226.478747 
L 109.477944 226.199936 
L 109.558034 226.097932 
L 109.667009 225.927925 
L 109.793708 225.81912 
L 109.903996 225.662714 
L 109.948636 225.553909 
L 110.058924 225.363501 
L 110.169868 225.254697 
L 110.278842 225.037088 
L 110.372718 224.935084 
L 110.483006 224.785477 
L 110.59198 224.676673 
L 110.691764 224.60187 
L 110.779075 224.493065 
L 110.884768 224.35706 
L 110.978643 224.248255 
L 111.063329 224.146251 
L 111.192654 224.037447 
L 111.294407 223.921842 
L 111.389596 223.813037 
L 111.496601 223.63623 
L 111.608858 223.527425 
L 111.718489 223.40502 
L 111.753283 223.296216 
L 111.847158 223.14661 
L 112.01259 223.044605 
L 112.118282 222.881399 
L 112.192464 222.772594 
L 112.301438 222.595787 
L 112.437328 222.486982 
L 112.537769 222.398579 
L 112.673002 222.289774 
L 112.777382 222.140168 
L 112.875196 222.031364 
L 112.984827 221.868157 
L 113.086581 221.766153 
L 113.181113 221.643748 
L 113.258577 221.534943 
L 113.366895 221.371736 
L 113.477839 221.262932 
L 113.586158 221.181328 
L 113.679377 221.072524 
L 113.786382 220.956919 
L 113.913738 220.848115 
L 114.024026 220.718909 
L 114.123153 220.610105 
L 114.232784 220.514901 
L 114.34898 220.406096 
L 114.457298 220.24969 
L 114.552487 220.140885 
L 114.650958 219.984479 
L 114.832145 219.875674 
L 114.936524 219.780471 
L 115.06585 219.671666 
L 115.116398 219.583262 
L 115.269356 219.474458 
L 115.366515 219.379254 
L 115.446604 219.270449 
L 115.545732 219.134444 
L 115.695408 219.025639 
L 115.795192 218.910035 
L 115.994104 218.80123 
L 116.097826 218.678825 
L 116.254067 218.570021 
L 116.353195 218.461216 
L 116.468734 218.352412 
L 116.575739 218.223206 
L 116.676836 218.114402 
L 116.786468 217.998797 
L 116.896099 217.896793 
L 116.991944 217.808389 
L 117.100918 217.699585 
L 117.184947 217.59078 
L 117.314929 217.488776 
L 117.421934 217.373171 
L 117.557824 217.264367 
L 117.663517 217.128361 
L 117.750828 217.019556 
L 117.861115 216.931153 
L 117.997662 216.822348 
L 118.108606 216.693143 
L 118.227428 216.584338 
L 118.337715 216.489135 
L 118.43356 216.38033 
L 118.543848 216.251125 
L 118.647571 216.14232 
L 118.757202 216.026715 
L 118.85633 215.924711 
L 118.955457 215.836308 
L 119.118919 215.727503 
L 119.229207 215.577897 
L 119.39989 215.469092 
L 119.510834 215.367088 
L 119.61587 215.258284 
L 119.726157 215.149479 
L 119.920474 215.040675 
L 120.01238 214.945471 
L 120.118729 214.836666 
L 120.219169 214.727862 
L 120.360311 214.619057 
L 120.469942 214.489852 
L 120.55791 214.381047 
L 120.665571 214.313045 
L 120.804744 214.20424 
L 120.906497 214.102236 
L 121.070616 213.993431 
L 121.161866 213.918628 
L 121.333205 213.809824 
L 121.423142 213.735021 
L 121.564941 213.626216 
L 121.675228 213.490211 
L 121.729059 213.381406 
L 121.828187 213.299803 
L 121.975893 213.190998 
L 122.085524 213.116195 
L 122.227979 213.007391 
L 122.336297 212.905386 
L 122.436081 212.796582 
L 122.545713 212.708178 
L 122.715083 212.599374 
L 122.820119 212.490569 
L 122.981611 212.381765 
L 123.089929 212.300161 
L 123.307222 212.191357 
L 123.412915 212.109753 
L 123.571125 212.000949 
L 123.681412 211.858143 
L 123.822554 211.749339 
L 123.915773 211.626934 
L 124.096304 211.518129 
L 124.201996 211.395724 
L 124.332634 211.286919 
L 124.430449 211.171315 
L 124.60901 211.06931 
L 124.703542 210.994507 
L 124.844028 210.885703 
L 124.947094 210.742897 
L 125.177516 210.634092 
L 125.272048 210.504887 
L 125.404 210.396083 
L 125.512318 210.287278 
L 125.600285 210.178474 
L 125.710573 210.09687 
L 125.841211 209.988066 
L 125.941652 209.920063 
L 126.08345 209.811258 
L 126.180608 209.716055 
L 126.361795 209.60725 
L 126.467487 209.498446 
L 126.630949 209.396441 
L 126.739268 209.267236 
L 126.954591 209.158431 
L 127.054375 209.056427 
L 127.215211 208.947623 
L 127.320903 208.859219 
L 127.411497 208.750415 
L 127.496838 208.682412 
L 127.664239 208.573607 
L 127.77387 208.498804 
L 127.903196 208.39 
L 128.006262 208.308396 
L 128.09226 208.199592 
L 128.192044 208.077187 
L 128.300362 207.968382 
L 128.40868 207.886779 
L 128.543258 207.777974 
L 128.652232 207.716772 
L 128.868212 207.607967 
L 128.94305 207.539965 
L 129.139992 207.43116 
L 129.245028 207.356357 
L 129.431467 207.247552 
L 129.542411 207.104747 
L 129.715063 206.995942 
L 129.823382 206.887138 
L 129.978966 206.778333 
L 130.085315 206.655928 
L 130.195602 206.547124 
L 130.301295 206.45872 
L 130.435215 206.349915 
L 130.545503 206.275112 
L 130.672202 206.166308 
L 130.771986 206.064304 
L 130.96499 205.962299 
L 131.0674 205.894297 
L 131.243991 205.785492 
L 131.345744 205.683488 
L 131.483604 205.574683 
L 131.591922 205.49988 
L 131.706149 205.391076 
L 131.814467 205.302672 
L 131.970051 205.193868 
L 132.0764 205.085063 
L 132.179466 204.976259 
L 132.28122 204.881055 
L 132.37247 204.77225 
L 132.456498 204.622644 
L 132.629151 204.52064 
L 132.7355 204.398235 
L 132.849726 204.28943 
L 132.940976 204.194226 
L 133.081461 204.085422 
L 133.18978 204.03102 
L 133.34602 203.922215 
L 133.454338 203.813411 
L 133.603358 203.704606 
L 133.713646 203.589001 
L 133.874482 203.480197 
L 133.977548 203.391793 
L 134.154796 203.282989 
L 134.264427 203.208186 
L 134.402287 203.099381 
L 134.512574 203.004177 
L 134.693761 202.895373 
L 134.78895 202.82737 
L 134.964885 202.718565 
L 135.07189 202.623361 
L 135.154606 202.514557 
L 135.253077 202.446554 
L 135.377807 202.33775 
L 135.475621 202.228945 
L 135.6509 202.120141 
L 135.755279 202.038537 
L 135.908894 201.943333 
L 136.008022 201.820928 
L 136.157698 201.712124 
L 136.246322 201.657721 
L 136.372365 201.548917 
L 136.46821 201.487714 
L 136.62642 201.37891 
L 136.735395 201.270105 
L 136.91133 201.161301 
L 137.020304 201.072897 
L 137.144378 200.964093 
L 137.255322 200.89609 
L 137.393182 200.794086 
L 137.49034 200.698882 
L 137.657084 200.590077 
L 137.743082 200.515274 
L 137.907201 200.41327 
L 138.009611 200.297665 
L 138.113333 200.188861 
L 138.207866 200.100457 
L 138.329313 199.991653 
L 138.438944 199.916849 
L 138.549888 199.808045 
L 138.65952 199.69924 
L 138.791471 199.590436 
L 138.890598 199.474831 
L 138.979222 199.366027 
L 139.090166 199.304824 
L 139.240499 199.19602 
L 139.349474 199.100816 
L 139.480768 198.998812 
L 139.591712 198.896807 
L 139.76896 198.788003 
L 139.87334 198.706399 
L 140.038771 198.597595 
L 140.114922 198.556793 
L 140.238996 198.447989 
L 140.346657 198.325584 
L 140.535722 198.216779 
L 140.628285 198.128376 
L 140.758923 198.019571 
L 140.865272 197.937968 
L 141.083878 197.829163 
L 141.1876 197.686357 
L 141.362879 197.577553 
L 141.473167 197.50955 
L 141.582141 197.400745 
L 141.662887 197.27834 
L 141.879524 197.169536 
L 141.990468 197.074332 
L 142.1408 196.965527 
L 142.250432 196.890724 
L 142.389604 196.78192 
L 142.496609 196.679916 
L 142.615431 196.571111 
L 142.72178 196.469107 
L 142.895745 196.360302 
L 142.988308 196.2923 
L 143.139297 196.183495 
L 143.236455 196.122293 
L 143.41436 196.013488 
L 143.513487 195.965886 
L 143.683514 195.857082 
L 143.77542 195.789079 
L 143.938882 195.680274 
L 144.049826 195.57827 
L 144.174556 195.469466 
L 144.278936 195.367461 
L 144.446337 195.258657 
L 144.553998 195.204255 
L 144.673477 195.09545 
L 144.779825 195.000246 
L 144.923593 194.891442 
L 145.028629 194.789438 
L 145.148107 194.680633 
L 145.241983 194.60583 
L 145.43433 194.497025 
L 145.543961 194.381421 
L 145.668034 194.272616 
L 145.773727 194.204613 
L 145.951631 194.095809 
L 146.054041 193.953003 
L 146.189275 193.844198 
L 146.291685 193.762595 
L 146.491909 193.653791 
L 146.600884 193.538186 
L 146.717736 193.429381 
L 146.822115 193.300176 
L 146.923212 193.191371 
L 147.019058 193.109768 
L 147.149039 193.000964 
L 147.246198 192.885359 
L 147.375523 192.776554 
L 147.462834 192.66095 
L 147.701134 192.552145 
L 147.811422 192.463741 
L 147.979479 192.354937 
L 148.085828 192.273334 
L 148.221061 192.164529 
L 148.331349 192.076125 
L 148.50991 191.967321 
L 148.617571 191.844916 
L 148.77053 191.736111 
L 148.880817 191.640907 
L 148.981914 191.532103 
L 149.065287 191.436899 
L 149.266168 191.334895 
L 149.357417 191.239691 
L 149.511689 191.130886 
L 149.618038 191.008481 
L 149.744737 190.899677 
L 149.839269 190.845274 
L 149.983037 190.73647 
L 150.090699 190.661667 
L 150.334907 190.552862 
L 150.440599 190.49846 
L 150.63032 190.389656 
L 150.737325 190.314853 
L 150.950679 190.206048 
L 151.060967 190.097244 
L 151.197514 189.995239 
L 151.305175 189.879635 
L 151.507369 189.77083 
L 151.617 189.675626 
L 151.71941 189.566822 
L 151.822477 189.444417 
L 151.995129 189.335612 
L 152.087692 189.226808 
L 152.227521 189.118003 
L 152.334526 189.0364 
L 152.459913 188.927595 
L 152.561666 188.845992 
L 152.704778 188.737187 
L 152.813096 188.607982 
L 152.97984 188.499178 
L 153.081594 188.444775 
L 153.190568 188.342771 
L 153.29823 188.227166 
L 153.500424 188.118362 
L 153.601521 188.036758 
L 153.75251 187.927954 
L 153.859515 187.82595 
L 153.975054 187.717145 
L 154.069587 187.642342 
L 154.234362 187.533538 
L 154.339397 187.451934 
L 154.466097 187.34313 
L 154.571789 187.234325 
L 154.746411 187.125521 
L 154.833066 187.064318 
L 155.034603 186.955514 
L 155.117975 186.86031 
L 155.368748 186.751505 
L 155.462624 186.649501 
L 155.609018 186.540697 
L 155.71471 186.411491 
L 155.926095 186.302687 
L 156.037039 186.200683 
L 156.164395 186.091878 
L 156.262209 185.989874 
L 156.41845 185.881069 
L 156.522173 185.806266 
L 156.720428 185.697462 
L 156.830059 185.602258 
L 157.012559 185.500254 
L 157.115625 185.40505 
L 157.286309 185.296245 
L 157.383467 185.187441 
L 157.591569 185.085436 
L 157.692666 184.997033 
L 157.818052 184.888228 
L 157.921775 184.772623 
L 158.012369 184.663819 
L 158.113466 184.561815 
L 158.327476 184.45301 
L 158.435138 184.371407 
L 158.643896 184.262602 
L 158.753528 184.119796 
L 158.98198 184.010992 
L 159.092268 183.949789 
L 159.262295 183.840985 
L 159.360109 183.786583 
L 159.520289 183.677778 
L 159.619417 183.582574 
L 159.821611 183.47377 
L 159.929929 183.337764 
L 160.146565 183.22896 
L 160.254227 183.113355 
L 160.44723 183.00455 
L 160.548984 182.916147 
L 160.69866 182.807342 
L 160.801726 182.712138 
L 160.962562 182.603334 
L 161.072193 182.52173 
L 161.196923 182.412926 
L 161.299333 182.331323 
L 161.466078 182.222518 
L 161.575052 182.154515 
L 161.749674 182.045711 
L 161.860618 181.977708 
L 162.051652 181.868903 
L 162.16194 181.7737 
L 162.332623 181.664895 
L 162.442254 181.569691 
L 162.670051 181.460887 
L 162.759331 181.379283 
L 162.993692 181.270479 
L 163.10398 181.188875 
L 163.26219 181.080071 
L 163.373134 180.950865 
L 163.51165 180.848861 
L 163.620625 180.787659 
L 163.791964 180.678854 
L 163.877962 180.57685 
L 164.102476 180.468046 
L 164.209482 180.352441 
L 164.423492 180.243636 
L 164.504238 180.189234 
L 164.720875 180.08043 
L 164.795056 180.032828 
L 164.967709 179.924023 
L 165.062898 179.808418 
L 165.253275 179.699614 
L 165.355029 179.631611 
L 165.48698 179.522806 
L 165.597267 179.482005 
L 165.720685 179.3732 
L 165.812591 179.291597 
L 165.9301 179.182792 
L 166.038418 179.107989 
L 166.267527 178.999185 
L 166.356808 178.897181 
L 166.681762 178.795176 
L 166.776294 178.767975 
L 166.941726 178.659171 
L 167.027067 178.604769 
L 167.256177 178.495964 
L 167.363839 178.373559 
L 167.472813 178.264754 
L 167.577849 178.196752 
L 167.688137 178.087947 
L 167.785295 178.053946 
L 167.92578 177.945141 
L 167.954665 177.890739 
L 168.184431 177.781935 
L 168.28881 177.720732 
L 168.483126 177.611927 
L 168.583567 177.523524 
L 168.732587 177.42152 
L 168.78773 177.373918 
L 168.998458 177.265113 
L 169.101525 177.224311 
L 169.295185 177.115507 
L 169.406129 177.027103 
L 169.57353 176.918299 
L 169.666749 176.850296 
L 169.97004 176.748292 
L 170.076388 176.687089 
L 170.222782 176.578285 
L 170.332413 176.503482 
L 170.5694 176.394677 
L 170.679688 176.279072 
L 170.860875 176.170268 
L 170.950155 176.122666 
L 171.184516 176.013861 
L 171.280362 175.932258 
L 171.508814 175.830254 
L 171.605973 175.789452 
L 171.896134 175.687448 
L 171.998544 175.612645 
L 172.228966 175.50384 
L 172.331376 175.449438 
L 172.448228 175.340634 
L 172.53554 175.231829 
L 172.843426 175.123025 
L 172.948462 175.02102 
L 173.107328 174.912216 
L 173.213677 174.823812 
L 173.445412 174.715008 
L 173.55373 174.640205 
L 173.79203 174.5314 
L 173.900349 174.476998 
L 174.128145 174.368193 
L 174.231211 174.28659 
L 174.445878 174.177786 
L 174.523999 174.123383 
L 174.808252 174.014579 
L 174.919196 173.905774 
L 175.092505 173.79697 
L 175.20148 173.749368 
L 175.403674 173.640563 
L 175.511992 173.586161 
L 175.66692 173.477357 
L 175.758826 173.388953 
L 175.991874 173.280148 
L 176.087063 173.205345 
L 176.312234 173.103341 
L 176.415956 172.980936 
L 176.676577 172.872132 
L 176.787521 172.797328 
L 176.9477 172.688524 
L 177.054049 172.627321 
L 177.312043 172.518517 
L 177.414453 172.430113 
L 177.606144 172.321309 
L 177.717088 172.253306 
L 177.825406 172.144501 
L 177.917312 172.083299 
L 178.110315 171.981295 
L 178.221259 171.920092 
L 178.374218 171.811288 
L 178.478597 171.736485 
L 178.683417 171.62768 
L 178.77401 171.580078 
L 178.96964 171.471274 
L 179.079271 171.37607 
L 179.23026 171.267265 
L 179.341204 171.158461 
L 179.509918 171.049656 
L 179.584099 171.008855 
L 179.750187 170.90005 
L 179.858505 170.777645 
L 180.048883 170.66884 
L 180.14801 170.573637 
L 180.300969 170.464832 
L 180.361364 170.40363 
L 180.601634 170.294825 
L 180.700761 170.206421 
L 180.944969 170.097617 
L 181.055257 170.002413 
L 181.336884 169.893608 
L 181.443233 169.818805 
L 181.58897 169.710001 
L 181.69335 169.628397 
L 181.933619 169.519593 
L 182.03209 169.465191 
L 182.310435 169.356386 
L 182.412189 169.254382 
L 182.625543 169.145578 
L 182.727952 169.118376 
L 182.967565 169.009572 
L 183.068006 168.95517 
L 183.347664 168.846365 
L 183.447448 168.791963 
L 183.678527 168.683158 
L 183.765838 168.621956 
L 183.972627 168.513151 
L 184.082258 168.431548 
L 184.307429 168.322743 
L 184.411808 168.23434 
L 184.678993 168.125535 
L 184.774181 168.077933 
L 185.049244 167.969129 
L 185.155593 167.873925 
L 185.498929 167.76512 
L 185.600026 167.710718 
L 185.831761 167.601914 
L 185.938766 167.52031 
L 186.142273 167.411506 
L 186.249278 167.323102 
L 186.498082 167.214298 
L 186.607713 167.125894 
L 186.706184 167.02389 
L 186.782335 166.989888 
L 186.914286 166.881084 
L 187.020635 166.840282 
L 187.167029 166.731478 
L 187.266813 166.636274 
L 187.461785 166.527469 
L 187.572729 166.459466 
L 187.801182 166.350662 
L 187.907531 166.282659 
L 188.13664 166.173855 
L 188.236424 166.092251 
L 188.437962 165.983447 
L 188.538402 165.935845 
L 188.690704 165.82704 
L 188.79574 165.718236 
L 189.020254 165.609431 
L 189.130542 165.527828 
L 189.264463 165.419023 
L 189.360964 165.378222 
L 189.594669 165.269417 
L 189.679354 165.228616 
L 189.869731 165.119811 
L 189.96689 165.051808 
L 190.21635 164.943004 
L 190.291188 164.895402 
L 190.576097 164.786597 
L 190.675881 164.684593 
L 190.811771 164.575789 
L 190.886609 164.500986 
L 191.14723 164.392181 
L 191.256204 164.256175 
L 191.503695 164.147371 
L 191.602166 164.072568 
L 191.81552 163.963763 
L 191.925808 163.868559 
L 192.056446 163.759755 
L 192.133253 163.671351 
L 192.269143 163.562547 
L 192.37024 163.474143 
L 192.475276 163.365339 
L 192.58622 163.290535 
L 192.739835 163.181731 
L 192.849466 163.079727 
L 193.008333 162.970922 
L 193.113369 162.875718 
L 193.306372 162.766914 
L 193.417316 162.67171 
L 193.588656 162.562905 
L 193.682532 162.501703 
L 193.865688 162.392898 
L 193.970724 162.290894 
L 194.189986 162.18889 
L 194.296335 162.086886 
L 194.506406 161.978081 
L 194.60816 161.876077 
L 194.791316 161.767273 
L 194.898978 161.71287 
L 195.123492 161.604066 
L 195.228527 161.542863 
L 195.424157 161.434059 
L 195.533131 161.345655 
L 195.75305 161.236851 
L 195.856116 161.128046 
L 196.003167 161.019242 
L 196.102951 160.930838 
L 196.299893 160.822033 
L 196.402303 160.74043 
L 196.630756 160.631626 
L 196.741043 160.577223 
L 197.00232 160.468419 
L 197.111951 160.393616 
L 197.430997 160.284811 
L 197.527499 160.223609 
L 197.668641 160.114804 
L 197.779585 159.985599 
L 197.950268 159.876794 
L 198.034297 159.78159 
L 198.199728 159.672786 
L 198.297543 159.604783 
L 198.522057 159.495979 
L 198.632344 159.421176 
L 198.780707 159.312371 
L 198.881804 159.237568 
L 199.019664 159.128763 
L 199.130608 159.081161 
L 199.348557 158.972357 
L 199.444402 158.897554 
L 199.647909 158.788749 
L 199.731282 158.727547 
L 199.867828 158.618742 
L 199.947261 158.523538 
L 200.139608 158.414734 
L 200.226263 158.373932 
L 200.390381 158.265128 
L 200.494104 158.183524 
L 200.63459 158.07472 
L 200.73503 158.013517 
L 200.956262 157.904713 
L 201.067206 157.823109 
L 201.235263 157.714305 
L 201.340955 157.625901 
L 201.46306 157.517097 
L 201.564157 157.401492 
L 201.830685 157.292688 
L 201.925874 157.197484 
L 202.120846 157.088679 
L 202.229821 157.000275 
L 202.412977 156.891471 
L 202.521952 156.775866 
L 202.691322 156.667062 
L 202.783885 156.517456 
L 202.999865 156.408651 
L 203.109496 156.313447 
L 203.278866 156.204643 
L 203.379963 156.157041 
L 203.61892 156.048236 
L 203.712795 156.000634 
L 203.909081 155.89183 
L 204.016086 155.789825 
L 204.19596 155.681021 
L 204.286554 155.626619 
L 204.522884 155.517814 
L 204.631859 155.449811 
L 204.744772 155.341007 
L 204.851778 155.252603 
L 205.036903 155.143799 
L 205.140626 155.055395 
L 205.313935 154.946591 
L 205.419627 154.892188 
L 205.590967 154.783384 
L 205.701911 154.667779 
L 205.847648 154.558975 
L 205.939555 154.504572 
L 206.10433 154.395768 
L 206.180481 154.327765 
L 206.429941 154.218961 
L 206.540885 154.130557 
L 206.794284 154.021752 
L 206.888816 153.933349 
L 207.026019 153.824544 
L 207.133024 153.742941 
L 207.283357 153.634136 
L 207.393644 153.579734 
L 207.593212 153.47093 
L 207.683149 153.416527 
L 207.895847 153.307723 
L 208.006134 153.198918 
L 208.159093 153.090114 
L 208.266098 153.022111 
L 208.491925 152.920107 
L 208.594335 152.824903 
L 208.905504 152.716098 
L 209.014478 152.620894 
L 209.146429 152.51209 
L 209.247526 152.457688 
L 209.402454 152.348883 
L 209.495017 152.294481 
L 209.675547 152.185676 
L 209.784522 152.104073 
L 210.022166 151.995269 
L 210.127858 151.913665 
L 210.254557 151.804861 
L 210.362219 151.764059 
L 210.468568 151.655255 
L 210.569008 151.55325 
L 210.741004 151.444446 
L 210.844727 151.369643 
L 211.053486 151.260838 
L 211.142766 151.192835 
L 211.323297 151.090831 
L 211.417829 151.016028 
L 211.570787 150.907224 
L 211.660724 150.791619 
L 211.83469 150.682814 
L 211.9371 150.608011 
L 212.085463 150.499207 
L 212.193125 150.424404 
L 212.312603 150.315599 
L 212.407792 150.240796 
L 212.550903 150.138792 
L 212.649374 150.023187 
L 212.815462 149.914383 
L 212.917872 149.819179 
L 213.124661 149.710374 
L 213.201468 149.642371 
L 213.370839 149.533567 
L 213.475874 149.472364 
L 213.595353 149.36356 
L 213.697763 149.241155 
L 213.83037 149.13235 
L 213.940658 149.009945 
L 214.103463 148.901141 
L 214.201935 148.812737 
L 214.371961 148.710733 
L 214.482905 148.615529 
L 214.606979 148.506724 
L 214.708732 148.40472 
L 214.893858 148.295916 
L 214.99955 148.193911 
L 215.191241 148.085107 
L 215.283147 147.949101 
L 215.452517 147.840297 
L 215.554271 147.765494 
L 215.702634 147.656689 
L 215.795853 147.588686 
L 216.095862 147.479882 
L 216.206149 147.364277 
L 216.386023 147.255473 
L 216.494998 147.173869 
L 216.671589 147.065065 
L 216.774656 146.969861 
L 216.899386 146.861056 
L 217.000483 146.786253 
L 217.159349 146.684249 
L 217.267667 146.623047 
L 217.418 146.514242 
L 217.523036 146.405438 
L 217.790221 146.296633 
L 217.887379 146.23543 
L 218.06594 146.126626 
L 218.15522 146.017822 
L 218.300301 145.909017 
L 218.401398 145.834214 
L 218.551074 145.725409 
L 218.655453 145.637006 
L 218.782809 145.528201 
L 218.891127 145.385395 
L 219.045399 145.276591 
L 219.13271 145.215388 
L 219.30011 145.106584 
L 219.409742 145.00458 
L 219.608653 144.895775 
L 219.707781 144.841373 
L 219.84564 144.732568 
L 219.944768 144.650965 
L 220.102321 144.542161 
L 220.21064 144.480958 
L 220.372132 144.372153 
L 220.48242 144.27695 
L 220.620279 144.168145 
L 220.727941 144.086542 
L 220.951142 143.977737 
L 221.060117 143.896134 
L 221.240647 143.787329 
L 221.335836 143.732927 
L 221.566915 143.624123 
L 221.672607 143.501717 
L 221.805215 143.392913 
L 221.914189 143.270508 
L 222.100628 143.161703 
L 222.210915 143.046099 
L 222.330394 142.937294 
L 222.437399 142.82849 
L 222.624494 142.719685 
L 222.705897 142.617681 
L 222.830627 142.515677 
L 222.927128 142.420473 
L 223.097155 142.311668 
L 223.207443 142.216464 
L 223.351867 142.10766 
L 223.462155 141.998855 
L 223.608548 141.890051 
L 223.716866 141.726844 
L 223.798269 141.61804 
L 223.907244 141.509235 
L 224.008341 141.400431 
L 224.108781 141.332428 
L 224.253862 141.223623 
L 224.358898 141.080817 
L 224.459995 140.972013 
L 224.570282 140.836007 
L 224.723897 140.727203 
L 224.833528 140.597997 
L 224.96548 140.489193 
L 225.073141 140.434791 
L 225.193276 140.325986 
L 225.294373 140.210381 
L 225.388249 140.108377 
L 225.492628 140.006373 
L 225.621954 139.897569 
L 225.721738 139.822765 
L 225.916054 139.713961 
L 226.011899 139.625557 
L 226.152384 139.516753 
L 226.260703 139.421549 
L 226.396593 139.312744 
L 226.504911 139.251542 
L 226.606664 139.149538 
L 226.699884 139.040733 
L 226.909955 138.931929 
L 227.017617 138.863926 
L 227.196178 138.755121 
L 227.294649 138.673518 
L 227.475179 138.564713 
L 227.57365 138.496711 
L 227.699693 138.387906 
L 227.803416 138.292702 
L 227.94784 138.183898 
L 228.043686 138.081893 
L 228.188766 137.973089 
L 228.297085 137.830283 
L 228.390304 137.721479 
L 228.499278 137.633075 
L 228.612848 137.52427 
L 228.71132 137.395065 
L 228.837362 137.286261 
L 228.946337 137.211457 
L 229.080258 137.109453 
L 229.180698 137.03465 
L 229.34613 136.925846 
L 229.450509 136.79664 
L 229.59559 136.687836 
L 229.705221 136.579031 
L 229.812883 136.470227 
L 229.922514 136.354622 
L 230.099105 136.245818 
L 230.20808 136.143813 
L 230.370229 136.035009 
L 230.479204 135.926204 
L 230.60459 135.8174 
L 230.699779 135.742597 
L 230.853394 135.633792 
L 230.934796 135.57259 
L 231.077908 135.463785 
L 231.188195 135.32778 
L 231.316864 135.218975 
L 231.423213 135.035368 
L 231.561072 134.926563 
L 231.669391 134.810958 
L 231.845326 134.702154 
L 231.952331 134.552548 
L 232.117106 134.457344 
L 232.22805 134.341739 
L 232.418427 134.232934 
L 232.52412 134.103729 
L 232.732222 133.994925 
L 232.843166 133.865719 
L 232.949515 133.756915 
L 233.057833 133.607309 
L 233.16812 133.498504 
L 233.267904 133.437301 
L 233.397886 133.328497 
L 233.504235 133.240093 
L 233.676888 133.131289 
L 233.786519 133.008884 
L 233.936851 132.900079 
L 234.038605 132.818476 
L 234.146266 132.709671 
L 234.251302 132.634868 
L 234.401635 132.526064 
L 234.510609 132.44446 
L 234.614332 132.335656 
L 234.725276 132.213251 
L 234.872983 132.104446 
L 234.947821 132.050044 
L 235.069925 131.94124 
L 235.175617 131.859636 
L 235.304286 131.750832 
L 235.402757 131.662428 
L 235.584601 131.553624 
L 235.679789 131.46522 
L 235.805176 131.356415 
L 235.912838 131.288413 
L 236.000805 131.179608 
L 236.111749 131.050403 
L 236.321821 130.941598 
L 236.41504 130.805593 
L 236.592288 130.696788 
L 236.694698 130.628785 
L 236.820741 130.519981 
L 236.913304 130.465579 
L 237.080048 130.356774 
L 237.167359 130.275171 
L 237.223816 130.173167 
L 237.311783 130.084763 
L 237.500191 129.975958 
L 237.568465 129.894355 
L 237.735865 129.785551 
L 237.806765 129.751549 
L 238.009615 129.642745 
L 238.113338 129.53394 
L 238.253823 129.425136 
L 238.35492 129.350333 
L 238.509192 129.241528 
L 238.566305 129.153124 
L 238.786224 129.04432 
L 238.893885 128.949116 
L 239.073103 128.840311 
L 239.166322 128.765508 
L 239.335692 128.656704 
L 239.430224 128.5615 
L 239.549703 128.452695 
L 239.659334 128.371092 
L 239.799819 128.262288 
L 239.896977 128.180684 
L 240.033524 128.07188 
L 240.144468 127.976676 
L 240.328937 127.867871 
L 240.437255 127.793068 
L 240.551482 127.684264 
L 240.640106 127.629861 
L 240.83114 127.521057 
L 240.940771 127.432653 
L 241.123271 127.323849 
L 241.222398 127.255846 
L 241.382578 127.147041 
L 241.489583 127.092639 
L 241.664861 126.983835 
L 241.772523 126.888631 
L 241.927451 126.779826 
L 242.029204 126.684622 
L 242.149339 126.575818 
L 242.25897 126.487414 
L 242.392234 126.37861 
L 242.501866 126.290206 
L 242.660732 126.181402 
L 242.7487 126.045396 
L 242.920696 125.936591 
L 243.027045 125.766584 
L 243.188537 125.65778 
L 243.282413 125.555776 
L 243.401891 125.446971 
L 243.509553 125.310966 
L 243.620497 125.202161 
L 243.729472 125.079756 
L 243.837133 124.970952 
L 243.928383 124.882548 
L 244.050487 124.773743 
L 244.158806 124.664939 
L 244.227735 124.556134 
L 244.305856 124.481331 
L 244.441089 124.372527 
L 244.544156 124.263722 
L 244.683985 124.154918 
L 244.773265 124.025712 
L 244.942635 123.916908 
L 245.045702 123.855705 
L 245.249209 123.746901 
L 245.320764 123.644897 
L 245.476349 123.536092 
L 245.576789 123.440888 
L 245.809837 123.332084 
L 245.920781 123.23008 
L 246.084243 123.121275 
L 246.182058 123.039672 
L 246.391473 122.930867 
L 246.475502 122.856064 
L 246.679665 122.74726 
L 246.784044 122.672457 
L 246.956041 122.563652 
L 247.049916 122.52285 
L 247.29872 122.414046 
L 247.369619 122.332442 
L 247.590851 122.223638 
L 247.701138 122.108033 
L 247.824556 121.999229 
L 247.919744 121.890424 
L 248.152136 121.78162 
L 248.257828 121.727217 
L 248.437702 121.625213 
L 248.544707 121.55721 
L 248.692414 121.448406 
L 248.790229 121.380403 
L 248.926119 121.271599 
L 249.00227 121.217196 
L 249.215624 121.108392 
L 249.325911 121.033589 
L 249.459832 120.924784 
L 249.558303 120.856781 
L 249.781504 120.747977 
L 249.885883 120.673174 
L 250.021117 120.564369 
L 250.120245 120.516767 
L 250.326377 120.407963 
L 250.436665 120.33996 
L 250.600783 120.231156 
L 250.695972 120.142752 
L 250.867312 120.033947 
L 250.974974 119.897942 
L 251.207365 119.789137 
L 251.261853 119.748336 
L 251.603875 119.639531 
L 251.710224 119.591929 
L 251.912418 119.483125 
L 252.011546 119.408322 
L 252.162535 119.299517 
L 252.261006 119.211113 
L 252.525565 119.102309 
L 252.618128 118.993504 
L 252.901068 118.8847 
L 253.010042 118.816697 
L 253.189916 118.707893 
L 253.281823 118.626289 
L 253.520779 118.517485 
L 253.628441 118.429081 
L 253.805689 118.320277 
L 253.911381 118.245474 
L 254.078782 118.136669 
L 254.185787 118.007464 
L 254.34531 117.898659 
L 254.43656 117.803455 
L 254.645319 117.694651 
L 254.752981 117.585846 
L 254.920381 117.477042 
L 255.024104 117.381838 
L 255.182314 117.273033 
L 255.288007 117.19143 
L 255.442935 117.082625 
L 255.531558 116.987422 
L 255.74163 116.878617 
L 255.843384 116.749412 
L 255.974678 116.640607 
L 256.044921 116.593005 
L 256.260244 116.484201 
L 256.370532 116.409398 
L 256.59439 116.300593 
L 256.703364 116.191789 
L 256.954137 116.082984 
L 257.052608 115.99458 
L 257.300099 115.885776 
L 257.403822 115.831374 
L 257.506888 115.722569 
L 257.610611 115.695368 
L 257.791798 115.586564 
L 257.878452 115.525361 
L 258.106249 115.416557 
L 258.21588 115.321353 
L 258.397067 115.212548 
L 258.505385 115.151346 
L 258.708892 115.042541 
L 258.814584 114.886135 
L 258.94391 114.77733 
L 259.03319 114.695727 
L 259.253765 114.586922 
L 259.35158 114.471317 
L 259.582002 114.362513 
L 259.635177 114.308111 
L 259.876102 114.199306 
L 259.980482 114.151704 
L 260.143944 114.0429 
L 260.254231 113.961296 
L 260.432792 113.852492 
L 260.520103 113.79809 
L 260.760373 113.689285 
L 260.870004 113.614482 
L 260.993421 113.505678 
L 261.093861 113.437675 
L 261.252072 113.32887 
L 261.361703 113.260867 
L 261.525165 113.152063 
L 261.634139 113.050059 
L 261.83699 112.941254 
L 261.944652 112.866451 
L 262.205272 112.757647 
L 262.308994 112.669243 
L 262.597843 112.560439 
L 262.662834 112.519637 
L 262.971377 112.410832 
L 263.040963 112.336029 
L 263.208364 112.227225 
L 263.310774 112.159222 
L 263.560234 112.050417 
L 263.665926 111.968814 
L 263.808381 111.86681 
L 263.91473 111.805607 
L 264.147121 111.696803 
L 264.23115 111.6288 
L 264.461572 111.526796 
L 264.566608 111.472394 
L 264.835762 111.363589 
L 264.94605 111.288786 
L 265.065528 111.179981 
L 265.172533 111.105178 
L 265.447596 110.996374 
L 265.555914 110.935171 
L 265.691148 110.826367 
L 265.777146 110.771965 
L 265.972119 110.66316 
L 266.080437 110.615558 
L 266.311516 110.506754 
L 266.381102 110.472752 
L 266.661416 110.363948 
L 266.757261 110.282344 
L 266.925975 110.17354 
L 267.036263 110.057935 
L 267.22664 109.955931 
L 267.336928 109.908329 
L 267.501703 109.799524 
L 267.610021 109.731522 
L 267.812215 109.629517 
L 267.912655 109.568315 
L 268.049858 109.45951 
L 268.154894 109.371107 
L 268.359057 109.262302 
L 268.460811 109.2079 
L 268.62296 109.099095 
L 268.716179 109.058294 
L 268.885549 108.949489 
L 268.982708 108.867886 
L 269.217725 108.759081 
L 269.320792 108.670678 
L 269.626052 108.561873 
L 269.735683 108.466669 
L 269.899145 108.357865 
L 270.007463 108.276261 
L 270.184055 108.167457 
L 270.285808 108.072253 
L 270.493254 107.963448 
L 270.599603 107.861444 
L 270.840529 107.75264 
L 270.942939 107.684637 
L 271.162201 107.575832 
L 271.260672 107.473828 
L 271.491751 107.365024 
L 271.576436 107.310622 
L 271.758279 107.201817 
L 271.869223 107.127014 
L 272.135751 107.018209 
L 272.246696 106.943406 
L 272.544735 106.834602 
L 272.645832 106.787 
L 272.825049 106.678195 
L 272.922864 106.589792 
L 273.165759 106.480987 
L 273.268169 106.392584 
L 273.526163 106.283779 
L 273.631199 106.195375 
L 273.868186 106.086571 
L 273.961405 106.038969 
L 274.249597 105.930164 
L 274.343473 105.896163 
L 274.563392 105.787359 
L 274.666458 105.719356 
L 275.020954 105.610551 
L 275.126646 105.556149 
L 275.374137 105.447344 
L 275.479173 105.358941 
L 275.735198 105.250136 
L 275.836951 105.154932 
L 275.95446 105.046128 
L 276.047023 105.005326 
L 276.354252 104.896522 
L 276.463884 104.808118 
L 276.626689 104.699314 
L 276.724504 104.658512 
L 276.962147 104.549707 
L 277.061275 104.508906 
L 277.247713 104.406901 
L 277.347497 104.338899 
L 277.582515 104.230094 
L 277.692146 104.175692 
L 277.873989 104.066887 
L 277.949484 103.985284 
L 278.182532 103.87648 
L 278.28166 103.835678 
L 278.538341 103.726873 
L 278.648629 103.631669 
L 278.825876 103.522865 
L 278.904653 103.454862 
L 279.205318 103.346058 
L 279.311011 103.278055 
L 279.536181 103.16925 
L 279.633996 103.094447 
L 279.716055 102.999243 
L 279.815839 102.876838 
L 280.004247 102.768034 
L 280.111909 102.700031 
L 280.390254 102.591226 
L 280.486099 102.516423 
L 280.794642 102.407619 
L 280.871449 102.353217 
L 281.072986 102.244412 
L 281.172114 102.19001 
L 281.325072 102.081205 
L 281.430765 101.986001 
L 281.650683 101.877197 
L 281.757032 101.775193 
L 281.937562 101.666388 
L 282.041285 101.625587 
L 282.314378 101.516782 
L 282.417445 101.421578 
L 282.584846 101.312774 
L 282.679378 101.278772 
L 282.936059 101.169968 
L 283.046347 101.108765 
L 283.259044 100.999961 
L 283.367363 100.945558 
L 283.595159 100.836754 
L 283.698225 100.789152 
L 283.845275 100.680347 
L 283.947029 100.591944 
L 284.139376 100.483139 
L 284.243099 100.415136 
L 284.37308 100.306332 
L 284.474834 100.238329 
L 284.743988 100.129525 
L 284.826704 100.075122 
L 285.112926 99.966318 
L 285.212054 99.864314 
L 285.459545 99.755509 
L 285.543573 99.728308 
L 285.930236 99.619504 
L 285.993914 99.599103 
L 286.24797 99.490298 
L 286.351036 99.422295 
L 286.57752 99.313491 
L 286.675334 99.211487 
L 286.910352 99.102682 
L 286.990442 99.05508 
L 287.385639 98.946276 
L 287.490018 98.878273 
L 287.809721 98.769468 
L 287.889811 98.715066 
L 288.193102 98.606262 
L 288.285665 98.545059 
L 288.510179 98.436255 
L 288.620466 98.354651 
L 288.821347 98.245847 
L 288.928352 98.218646 
L 289.214575 98.109841 
L 289.29007 98.07584 
L 289.502767 97.967035 
L 289.613055 97.912633 
L 289.800806 97.803829 
L 289.905186 97.735826 
L 290.224232 97.627021 
L 290.324672 97.545418 
L 290.522271 97.436613 
L 290.632559 97.375411 
L 290.761227 97.266606 
L 290.852477 97.191803 
L 291.132135 97.082999 
L 291.203034 97.042197 
L 291.440678 96.933393 
L 291.541775 96.858589 
L 291.822089 96.749785 
L 291.924499 96.715784 
L 292.149013 96.606979 
L 292.257988 96.525376 
L 292.43261 96.416571 
L 292.517951 96.37577 
L 292.73787 96.266965 
L 292.81796 96.205762 
L 293.06939 96.096958 
L 293.158013 96.035755 
L 293.411412 95.926951 
L 293.5217 95.89295 
L 293.771817 95.784145 
L 293.876196 95.702542 
L 294.086924 95.593737 
L 294.176861 95.518934 
L 294.386933 95.41013 
L 294.496564 95.342127 
L 294.671842 95.233322 
L 294.778191 95.144919 
L 295.059162 95.036114 
L 295.164198 94.974912 
L 295.397902 94.866107 
L 295.499656 94.825305 
L 295.753055 94.716501 
L 295.863999 94.634898 
L 296.011705 94.532893 
L 296.076696 94.478491 
L 296.327469 94.369687 
L 296.428566 94.322085 
L 296.693125 94.21328 
L 296.795535 94.158878 
L 297.056155 94.050073 
L 297.143466 94.009272 
L 297.451352 93.900467 
L 297.559671 93.839265 
L 297.738232 93.73046 
L 297.832764 93.648857 
L 298.085506 93.540052 
L 298.18529 93.48565 
L 298.513527 93.376846 
L 298.617906 93.308843 
L 298.898221 93.200038 
L 298.988158 93.138836 
L 299.198229 93.030031 
L 299.292762 92.99603 
L 299.592114 92.887225 
L 299.663013 92.846424 
L 299.966304 92.737619 
L 300.063462 92.676417 
L 300.366753 92.567612 
L 300.474415 92.431606 
L 300.810529 92.322802 
L 300.919504 92.247999 
L 301.151896 92.139194 
L 301.243145 92.03039 
L 301.586481 91.928386 
L 301.697425 91.846782 
L 301.981022 91.737978 
L 302.090653 91.642774 
L 302.298099 91.533969 
L 302.39657 91.486367 
L 302.627649 91.377563 
L 302.697235 91.357162 
L 303.000526 91.248358 
L 303.109501 91.187155 
L 303.433799 91.078351 
L 303.527674 91.017148 
L 303.706235 90.908343 
L 303.81324 90.860742 
L 304.07583 90.758737 
L 304.174958 90.711135 
L 304.486783 90.602331 
L 304.509759 90.58193 
L 304.79073 90.473126 
L 304.885919 90.418723 
L 305.267987 90.309919 
L 305.378931 90.228315 
L 305.646115 90.119511 
L 305.713732 90.085509 
L 305.99339 89.976705 
L 306.083327 89.922303 
L 306.316375 89.813498 
L 306.410251 89.752296 
L 306.598659 89.643491 
L 306.703038 89.555088 
L 306.929522 89.446283 
L 307.038496 89.37828 
L 307.257759 89.269476 
L 307.368046 89.201473 
L 307.580087 89.092668 
L 307.681184 89.024666 
L 308.08032 88.915861 
L 308.186013 88.875059 
L 308.402649 88.766255 
L 308.48077 88.698252 
L 308.83067 88.589448 
L 308.92192 88.555446 
L 309.189761 88.446642 
L 309.258691 88.41264 
L 309.604653 88.303836 
L 309.687368 88.256234 
L 309.933546 88.147429 
L 310.043177 88.079427 
L 310.302484 87.970622 
L 310.39636 87.936621 
L 310.632034 87.827816 
L 310.72788 87.787014 
L 311.039705 87.67821 
L 311.149992 87.603407 
L 311.396826 87.494602 
L 311.490046 87.4266 
L 311.662698 87.317795 
L 311.733597 87.249792 
L 311.95089 87.140988 
L 312.051987 87.066185 
L 312.423551 86.95738 
L 312.52071 86.882577 
L 312.705179 86.773773 
L 312.810215 86.726171 
L 313.050484 86.617366 
L 313.1332 86.576564 
L 313.41614 86.47456 
L 313.525115 86.440559 
L 313.85926 86.331754 
L 313.949853 86.297753 
L 314.333234 86.188948 
L 314.406102 86.086944 
L 314.761255 85.97814 
L 314.869573 85.950939 
L 315.049447 85.842134 
L 315.154483 85.774131 
L 315.457117 85.665327 
L 315.552962 85.631325 
L 315.85691 85.522521 
L 315.940282 85.468119 
L 316.198933 85.359314 
L 316.279679 85.291311 
L 316.634831 85.182507 
L 316.745119 85.128105 
L 316.995892 85.0193 
L 317.089111 84.930896 
L 317.380585 84.822092 
L 317.483652 84.733688 
L 317.791538 84.624884 
L 317.867033 84.590882 
L 318.166385 84.482078 
L 318.272733 84.414075 
L 318.471645 84.305271 
L 318.577994 84.264469 
L 318.876033 84.155664 
L 318.986977 84.108062 
L 319.250879 83.999258 
L 319.332282 83.951656 
L 319.646077 83.842851 
L 319.754395 83.822451 
L 319.99926 83.713646 
L 320.108234 83.618442 
L 320.544789 83.509638 
L 320.649825 83.448435 
L 320.911758 83.339631 
L 321.015481 83.285228 
L 321.418556 83.176424 
L 321.507837 83.142422 
L 321.813097 83.033618 
L 321.897126 82.979216 
L 322.223393 82.870411 
L 322.333681 82.82961 
L 322.646162 82.720805 
L 322.753824 82.659603 
L 322.978338 82.550798 
L 323.045955 82.496396 
L 323.386665 82.387591 
L 323.496952 82.326389 
L 323.799587 82.217584 
L 323.900684 82.135981 
L 324.254523 82.027176 
L 324.360872 81.986375 
L 324.746222 81.87757 
L 324.836159 81.789167 
L 325.142732 81.680362 
L 325.20641 81.63956 
L 325.541868 81.530756 
L 325.630492 81.462753 
L 325.883891 81.353949 
L 325.941661 81.306347 
L 326.380842 81.197542 
L 326.476031 81.129539 
L 326.788512 81.020735 
L 326.89683 80.979933 
L 327.160733 80.871129 
L 327.267082 80.796326 
L 327.514572 80.687521 
L 327.57825 80.66712 
L 328.060102 80.558316 
L 328.165138 80.510714 
L 328.488779 80.401909 
L 328.595785 80.347507 
L 328.926647 80.238702 
L 329.008707 80.218302 
L 329.21287 80.109497 
L 329.323158 80.068695 
L 329.690783 79.959891 
L 329.787941 79.898688 
L 330.027554 79.796684 
L 330.133903 79.749082 
L 330.434568 79.647078 
L 330.511375 79.599476 
L 330.864558 79.490672 
L 330.965655 79.429469 
L 331.272885 79.320665 
L 331.377264 79.286663 
L 331.589962 79.177859 
L 331.689746 79.137057 
L 331.980564 79.028252 
L 332.06328 78.98065 
L 332.4355 78.871846 
L 332.516903 78.824244 
L 332.910787 78.715439 
L 333.018449 78.654237 
L 333.253467 78.545432 
L 333.357846 78.470629 
L 333.576452 78.361825 
L 333.66048 78.327823 
L 333.986748 78.219019 
L 334.076028 78.178217 
L 334.515866 78.069413 
L 334.622215 78.035411 
L 334.939948 77.926607 
L 335.035793 77.858604 
L 335.503859 77.7498 
L 335.56885 77.688597 
L 335.80715 77.579793 
L 335.915468 77.532191 
L 336.222041 77.423386 
L 336.311978 77.375784 
L 336.757068 77.26698 
L 336.859477 77.219378 
L 337.185745 77.110573 
L 337.29472 77.069771 
L 337.684009 76.960967 
L 337.794296 76.913365 
L 338.020123 76.804561 
L 338.085771 76.78416 
L 338.558432 76.675355 
L 338.660185 76.634553 
L 339.030436 76.525749 
L 339.141381 76.491748 
L 339.418412 76.382943 
L 339.522792 76.30134 
L 339.806389 76.192535 
L 339.853655 76.158534 
L 340.221936 76.049729 
L 340.325659 75.974926 
L 340.623698 75.866122 
L 340.728078 75.798119 
L 341.028086 75.689314 
L 341.124588 75.634912 
L 341.443634 75.526108 
L 341.54867 75.478506 
L 341.957653 75.369701 
L 342.050216 75.3289 
L 342.312806 75.220095 
L 342.407338 75.131691 
L 342.668615 75.022887 
L 342.769711 74.975285 
L 343.067094 74.873281 
L 343.151779 74.812078 
L 343.622471 74.703274 
L 343.721599 74.669272 
L 344.041301 74.560468 
L 344.125986 74.512866 
L 344.434529 74.404061 
L 344.542191 74.37006 
L 344.993188 74.261255 
L 345.10282 74.186452 
L 345.400859 74.077648 
L 345.509177 74.002845 
L 345.803934 73.89404 
L 345.861703 73.860039 
L 346.349463 73.751234 
L 346.445965 73.696832 
L 346.8044 73.588028 
L 346.910749 73.506424 
L 347.121477 73.39762 
L 347.194345 73.343217 
L 347.567222 73.234413 
L 347.651907 73.180011 
L 348.028067 73.071206 
L 348.111439 73.037205 
L 348.383219 72.9284 
L 348.485629 72.867198 
L 348.75544 72.758393 
L 348.823713 72.717592 
L 349.19856 72.608787 
L 349.291779 72.554385 
L 349.560277 72.44558 
L 349.669908 72.377578 
L 349.996176 72.268773 
L 350.055915 72.241572 
L 350.470806 72.132767 
L 350.554178 72.078365 
L 350.828584 71.969561 
L 350.911957 71.94236 
L 351.339321 71.833555 
L 351.424663 71.779153 
L 351.697099 71.670348 
L 351.80673 71.609146 
L 352.167791 71.500341 
L 352.274796 71.445939 
L 352.794067 71.337135 
L 352.904355 71.269132 
L 353.217493 71.160327 
L 353.328437 71.133126 
L 353.75974 71.024322 
L 353.857555 70.98352 
L 354.129991 70.874715 
L 354.237653 70.827113 
L 354.556043 70.718309 
L 354.659766 70.691108 
L 355.05365 70.582303 
L 355.161312 70.548302 
L 355.375979 70.439497 
L 355.442939 70.398696 
L 355.787588 70.289891 
L 355.88409 70.276291 
L 356.231364 70.167486 
L 356.340995 70.113084 
L 356.628531 70.004279 
L 356.739475 69.949877 
L 357.12942 69.841073 
L 357.231174 69.793471 
L 357.506893 69.684666 
L 357.600769 69.637064 
L 357.968394 69.52826 
L 358.068834 69.487458 
L 358.351775 69.378654 
L 358.44565 69.324251 
L 358.754193 69.215447 
L 358.852008 69.174645 
L 359.161863 69.065841 
L 359.266243 69.018239 
L 359.548527 68.909434 
L 359.653562 68.834631 
L 359.850504 68.725827 
L 359.954884 68.698625 
L 360.22732 68.589821 
L 360.30741 68.535419 
L 360.726897 68.426614 
L 360.781384 68.399413 
L 361.072859 68.290609 
L 361.163452 68.215805 
L 361.638739 68.107001 
L 361.743775 68.073 
L 362.071356 67.970995 
L 362.179674 67.916593 
L 362.521697 67.807789 
L 362.624763 67.753386 
L 362.819736 67.644582 
L 362.928054 67.583379 
L 363.270733 67.474575 
L 363.364609 67.413372 
L 363.547109 67.304568 
L 363.644267 67.270566 
L 363.913421 67.161762 
L 364.017144 67.093759 
L 364.451073 66.984955 
L 364.515408 66.957753 
L 364.83708 66.848949 
L 364.928986 66.801347 
L 365.288077 66.692543 
L 365.379327 66.644941 
L 365.650451 66.536136 
L 365.750235 66.495334 
L 366.059434 66.38653 
L 366.152653 66.332128 
L 366.398831 66.223323 
L 366.50321 66.162121 
L 366.829478 66.053316 
L 366.91285 66.032915 
L 367.078282 65.924111 
L 367.179379 65.862908 
L 367.505646 65.754104 
L 367.558164 65.720102 
L 367.949422 65.611298 
L 368.013757 65.577296 
L 368.324269 65.468492 
L 368.427992 65.42089 
L 368.717497 65.312085 
L 368.815311 65.284884 
L 369.016192 65.17608 
L 369.112694 65.108077 
L 369.408764 64.999273 
L 369.517738 64.951671 
L 369.769824 64.842866 
L 369.812495 64.815665 
L 370.128916 64.70686 
L 370.193906 64.645658 
L 370.518861 64.536853 
L 370.626523 64.489251 
L 371.030911 64.380447 
L 371.130038 64.319244 
L 371.472061 64.21044 
L 371.569219 64.156038 
L 371.888265 64.047233 
L 371.978859 64.006431 
L 372.1909 63.897627 
L 372.297905 63.836424 
L 372.590692 63.72762 
L 372.700324 63.666417 
L 373.02856 63.557613 
L 373.129657 63.503211 
L 373.344324 63.394406 
L 373.441483 63.346804 
L 373.84784 63.238 
L 373.955502 63.156396 
L 374.202336 63.047592 
L 374.293586 62.972789 
L 374.617884 62.863984 
L 374.719637 62.795981 
L 375.110239 62.687177 
L 375.188359 62.612374 
L 375.51594 62.503569 
L 375.622289 62.428766 
L 376.008952 62.319962 
L 376.115957 62.27236 
L 376.485552 62.163555 
L 376.524284 62.081952 
L 376.918168 61.973147 
L 376.999571 61.932346 
L 377.293671 61.823541 
L 377.390829 61.769139 
L 377.736134 61.660335 
L 377.795217 61.626333 
L 378.21733 61.517529 
L 378.314488 61.469927 
L 378.596115 61.361122 
L 378.700495 61.32032 
L 378.982122 61.211516 
L 379.091096 61.136713 
L 379.409486 61.027908 
L 379.501393 60.953105 
L 379.813874 60.844301 
L 379.870987 60.810299 
L 380.156554 60.701495 
L 380.266841 60.59269 
L 380.538621 60.483886 
L 380.647596 60.443084 
L 380.933819 60.33428 
L 381.04345 60.273077 
L 381.206255 60.164273 
L 381.288971 60.123471 
L 381.684168 60.014666 
L 381.789204 59.973865 
L 382.205408 59.86506 
L 382.304536 59.803858 
L 382.572377 59.695053 
L 382.646559 59.62705 
L 382.95904 59.518246 
L 383.068671 59.457043 
L 383.309597 59.355039 
L 383.41332 59.287036 
L 383.648994 59.178232 
L 383.757313 59.13743 
L 383.932591 59.028626 
L 384.02778 58.981024 
L 384.329758 58.872219 
L 384.393436 58.858619 
L 384.853624 58.749814 
L 384.939622 58.709013 
L 385.227814 58.600208 
L 385.335476 58.552606 
L 385.730016 58.443802 
L 385.834396 58.403 
L 386.053658 58.294195 
L 386.161976 58.239793 
L 386.387803 58.130989 
L 386.494808 58.083387 
L 386.775123 57.974582 
L 386.867686 57.906579 
L 387.174915 57.797775 
L 387.281921 57.743373 
L 387.667271 57.634568 
L 387.759834 57.593766 
L 388.107765 57.484962 
L 388.210831 57.43056 
L 388.53316 57.321755 
L 388.613906 57.301354 
L 388.911289 57.19255 
L 389.022233 57.124547 
L 389.333401 57.015743 
L 389.431872 56.934139 
L 389.760109 56.825335 
L 389.871053 56.791333 
L 390.243931 56.682529 
L 390.32402 56.621326 
L 390.727752 56.512522 
L 390.830162 56.451319 
L 391.110476 56.342515 
L 391.202382 56.294913 
L 391.449217 56.186108 
L 391.554252 56.111305 
L 391.780079 56.002501 
L 391.864108 55.948098 
L 392.202849 55.839294 
L 392.313136 55.791692 
L 392.652533 55.682887 
L 392.741157 55.628485 
L 392.94729 55.519681 
L 393.020159 55.49248 
L 393.272901 55.383675 
L 393.337235 55.336073 
L 393.739654 55.227269 
L 393.838781 55.166066 
L 394.261551 55.057262 
L 394.349518 55.02326 
L 394.777539 54.914456 
L 394.883231 54.860053 
L 395.191118 54.751249 
L 395.270551 54.696847 
L 395.573842 54.588042 
L 395.679534 54.53364 
L 395.964444 54.424835 
L 396.043877 54.377233 
L 396.377366 54.268429 
L 396.460081 54.207226 
L 396.699038 54.098422 
L 396.806043 54.037219 
L 397.122464 53.928415 
L 397.20321 53.874013 
L 397.518974 53.765208 
L 397.590529 53.744807 
L 398.14525 53.636003 
L 398.249629 53.602001 
L 398.487273 53.568 
L 398.487273 53.568 
" clip-path="url(#p950e54cb83)" style="fill: none; stroke: #1f77b4; stroke-width: 1.5; stroke-linecap: square"/>
   </g>
   <g id="line2d_26">
    <path d="M 73.832727 295.488 
L 398.487273 53.568 
" clip-path="url(#p950e54cb83)" style="fill: none; stroke-dasharray: 5.55,2.4; stroke-dashoffset: 0; stroke: #808080; stroke-width: 1.5"/>
   </g>
   <g id="patch_3">
    <path d="M 57.6 307.584 
L 57.6 41.472 
" style="fill: none; stroke: #000000; stroke-width: 0.8; stroke-linejoin: miter; stroke-linecap: square"/>
   </g>
   <g id="patch_4">
    <path d="M 414.72 307.584 
L 414.72 41.472 
" style="fill: none; stroke: #000000; stroke-width: 0.8; stroke-linejoin: miter; stroke-linecap: square"/>
   </g>
   <g id="patch_5">
    <path d="M 57.6 307.584 
L 414.72 307.584 
" style="fill: none; stroke: #000000; stroke-width: 0.8; stroke-linejoin: miter; stroke-linecap: square"/>
   </g>
   <g id="patch_6">
    <path d="M 57.6 41.472 
L 414.72 41.472 
" style="fill: none; stroke: #000000; stroke-width: 0.8; stroke-linejoin: miter; stroke-linecap: square"/>
   </g>
   <g id="text_15">
    <!-- ROC - Naive Bayes (Strat Label + Patient) -->
    <g transform="translate(110.882812 35.472) scale(0.12 -0.12)">
     <defs>
      <path id="DejaVuSans-4f" d="M 2522 4238 
Q 1834 4238 1429 3725 
Q 1025 3213 1025 2328 
Q 1025 1447 1429 934 
Q 1834 422 2522 422 
Q 3209 422 3611 934 
Q 4013 1447 4013 2328 
Q 4013 3213 3611 3725 
Q 3209 4238 2522 4238 
z
M 2522 4750 
Q 3503 4750 4090 4092 
Q 4678 3434 4678 2328 
Q 4678 1225 4090 567 
Q 3503 -91 2522 -91 
Q 1538 -91 948 565 
Q 359 1222 359 2328 
Q 359 3434 948 4092 
Q 1538 4750 2522 4750 
z
" transform="scale(0.015625)"/>
      <path id="DejaVuSans-43" d="M 4122 4306 
L 4122 3641 
Q 3803 3938 3442 4084 
Q 3081 4231 2675 4231 
Q 1875 4231 1450 3742 
Q 1025 3253 1025 2328 
Q 1025 1406 1450 917 
Q 1875 428 2675 428 
Q 3081 428 3442 575 
Q 3803 722 4122 1019 
L 4122 359 
Q 3791 134 3420 21 
Q 3050 -91 2638 -91 
Q 1578 -91 968 557 
Q 359 1206 359 2328 
Q 359 3453 968 4101 
Q 1578 4750 2638 4750 
Q 3056 4750 3426 4639 
Q 3797 4528 4122 4306 
z
" transform="scale(0.015625)"/>
      <path id="DejaVuSans-20" transform="scale(0.015625)"/>
      <path id="DejaVuSans-2d" d="M 313 2009 
L 1997 2009 
L 1997 1497 
L 313 1497 
L 313 2009 
z
" transform="scale(0.015625)"/>
      <path id="DejaVuSans-4e" d="M 628 4666 
L 1478 4666 
L 3547 763 
L 3547 4666 
L 4159 4666 
L 4159 0 
L 3309 0 
L 1241 3903 
L 1241 0 
L 628 0 
L 628 4666 
z
" transform="scale(0.015625)"/>
      <path id="DejaVuSans-61" d="M 2194 1759 
Q 1497 1759 1228 1600 
Q 959 1441 959 1056 
Q 959 750 1161 570 
Q 1363 391 1709 391 
Q 2188 391 2477 730 
Q 2766 1069 2766 1631 
L 2766 1759 
L 2194 1759 
z
M 3341 1997 
L 3341 0 
L 2766 0 
L 2766 531 
Q 2569 213 2275 61 
Q 1981 -91 1556 -91 
Q 1019 -91 701 211 
Q 384 513 384 1019 
Q 384 1609 779 1909 
Q 1175 2209 1959 2209 
L 2766 2209 
L 2766 2266 
Q 2766 2663 2505 2880 
Q 2244 3097 1772 3097 
Q 1472 3097 1187 3025 
Q 903 2953 641 2809 
L 641 3341 
Q 956 3463 1253 3523 
Q 1550 3584 1831 3584 
Q 2591 3584 2966 3190 
Q 3341 2797 3341 1997 
z
" transform="scale(0.015625)"/>
      <path id="DejaVuSans-69" d="M 603 3500 
L 1178 3500 
L 1178 0 
L 603 0 
L 603 3500 
z
M 603 4863 
L 1178 4863 
L 1178 4134 
L 603 4134 
L 603 4863 
z
" transform="scale(0.015625)"/>
      <path id="DejaVuSans-76" d="M 191 3500 
L 800 3500 
L 1894 563 
L 2988 3500 
L 3597 3500 
L 2284 0 
L 1503 0 
L 191 3500 
z
" transform="scale(0.015625)"/>
      <path id="DejaVuSans-65" d="M 3597 1894 
L 3597 1613 
L 953 1613 
Q 991 1019 1311 708 
Q 1631 397 2203 397 
Q 2534 397 2845 478 
Q 3156 559 3463 722 
L 3463 178 
Q 3153 47 2828 -22 
Q 2503 -91 2169 -91 
Q 1331 -91 842 396 
Q 353 884 353 1716 
Q 353 2575 817 3079 
Q 1281 3584 2069 3584 
Q 2775 3584 3186 3129 
Q 3597 2675 3597 1894 
z
M 3022 2063 
Q 3016 2534 2758 2815 
Q 2500 3097 2075 3097 
Q 1594 3097 1305 2825 
Q 1016 2553 972 2059 
L 3022 2063 
z
" transform="scale(0.015625)"/>
      <path id="DejaVuSans-42" d="M 1259 2228 
L 1259 519 
L 2272 519 
Q 2781 519 3026 730 
Q 3272 941 3272 1375 
Q 3272 1813 3026 2020 
Q 2781 2228 2272 2228 
L 1259 2228 
z
M 1259 4147 
L 1259 2741 
L 2194 2741 
Q 2656 2741 2882 2914 
Q 3109 3088 3109 3444 
Q 3109 3797 2882 3972 
Q 2656 4147 2194 4147 
L 1259 4147 
z
M 628 4666 
L 2241 4666 
Q 2963 4666 3353 4366 
Q 3744 4066 3744 3513 
Q 3744 3084 3544 2831 
Q 3344 2578 2956 2516 
Q 3422 2416 3680 2098 
Q 3938 1781 3938 1306 
Q 3938 681 3513 340 
Q 3088 0 2303 0 
L 628 0 
L 628 4666 
z
" transform="scale(0.015625)"/>
      <path id="DejaVuSans-79" d="M 2059 -325 
Q 1816 -950 1584 -1140 
Q 1353 -1331 966 -1331 
L 506 -1331 
L 506 -850 
L 844 -850 
Q 1081 -850 1212 -737 
Q 1344 -625 1503 -206 
L 1606 56 
L 191 3500 
L 800 3500 
L 1894 763 
L 2988 3500 
L 3597 3500 
L 2059 -325 
z
" transform="scale(0.015625)"/>
      <path id="DejaVuSans-73" d="M 2834 3397 
L 2834 2853 
Q 2591 2978 2328 3040 
Q 2066 3103 1784 3103 
Q 1356 3103 1142 2972 
Q 928 2841 928 2578 
Q 928 2378 1081 2264 
Q 1234 2150 1697 2047 
L 1894 2003 
Q 2506 1872 2764 1633 
Q 3022 1394 3022 966 
Q 3022 478 2636 193 
Q 2250 -91 1575 -91 
Q 1294 -91 989 -36 
Q 684 19 347 128 
L 347 722 
Q 666 556 975 473 
Q 1284 391 1588 391 
Q 1994 391 2212 530 
Q 2431 669 2431 922 
Q 2431 1156 2273 1281 
Q 2116 1406 1581 1522 
L 1381 1569 
Q 847 1681 609 1914 
Q 372 2147 372 2553 
Q 372 3047 722 3315 
Q 1072 3584 1716 3584 
Q 2034 3584 2315 3537 
Q 2597 3491 2834 3397 
z
" transform="scale(0.015625)"/>
      <path id="DejaVuSans-28" d="M 1984 4856 
Q 1566 4138 1362 3434 
Q 1159 2731 1159 2009 
Q 1159 1288 1364 580 
Q 1569 -128 1984 -844 
L 1484 -844 
Q 1016 -109 783 600 
Q 550 1309 550 2009 
Q 550 2706 781 3412 
Q 1013 4119 1484 4856 
L 1984 4856 
z
" transform="scale(0.015625)"/>
      <path id="DejaVuSans-53" d="M 3425 4513 
L 3425 3897 
Q 3066 4069 2747 4153 
Q 2428 4238 2131 4238 
Q 1616 4238 1336 4038 
Q 1056 3838 1056 3469 
Q 1056 3159 1242 3001 
Q 1428 2844 1947 2747 
L 2328 2669 
Q 3034 2534 3370 2195 
Q 3706 1856 3706 1288 
Q 3706 609 3251 259 
Q 2797 -91 1919 -91 
Q 1588 -91 1214 -16 
Q 841 59 441 206 
L 441 856 
Q 825 641 1194 531 
Q 1563 422 1919 422 
Q 2459 422 2753 634 
Q 3047 847 3047 1241 
Q 3047 1584 2836 1778 
Q 2625 1972 2144 2069 
L 1759 2144 
Q 1053 2284 737 2584 
Q 422 2884 422 3419 
Q 422 4038 858 4394 
Q 1294 4750 2059 4750 
Q 2388 4750 2728 4690 
Q 3069 4631 3425 4513 
z
" transform="scale(0.015625)"/>
      <path id="DejaVuSans-74" d="M 1172 4494 
L 1172 3500 
L 2356 3500 
L 2356 3053 
L 1172 3053 
L 1172 1153 
Q 1172 725 1289 603 
Q 1406 481 1766 481 
L 2356 481 
L 2356 0 
L 1766 0 
Q 1100 0 847 248 
Q 594 497 594 1153 
L 594 3053 
L 172 3053 
L 172 3500 
L 594 3500 
L 594 4494 
L 1172 4494 
z
" transform="scale(0.015625)"/>
      <path id="DejaVuSans-72" d="M 2631 2963 
Q 2534 3019 2420 3045 
Q 2306 3072 2169 3072 
Q 1681 3072 1420 2755 
Q 1159 2438 1159 1844 
L 1159 0 
L 581 0 
L 581 3500 
L 1159 3500 
L 1159 2956 
Q 1341 3275 1631 3429 
Q 1922 3584 2338 3584 
Q 2397 3584 2469 3576 
Q 2541 3569 2628 3553 
L 2631 2963 
z
" transform="scale(0.015625)"/>
      <path id="DejaVuSans-4c" d="M 628 4666 
L 1259 4666 
L 1259 531 
L 3531 531 
L 3531 0 
L 628 0 
L 628 4666 
z
" transform="scale(0.015625)"/>
      <path id="DejaVuSans-62" d="M 3116 1747 
Q 3116 2381 2855 2742 
Q 2594 3103 2138 3103 
Q 1681 3103 1420 2742 
Q 1159 2381 1159 1747 
Q 1159 1113 1420 752 
Q 1681 391 2138 391 
Q 2594 391 2855 752 
Q 3116 1113 3116 1747 
z
M 1159 2969 
Q 1341 3281 1617 3432 
Q 1894 3584 2278 3584 
Q 2916 3584 3314 3078 
Q 3713 2572 3713 1747 
Q 3713 922 3314 415 
Q 2916 -91 2278 -91 
Q 1894 -91 1617 61 
Q 1341 213 1159 525 
L 1159 0 
L 581 0 
L 581 4863 
L 1159 4863 
L 1159 2969 
z
" transform="scale(0.015625)"/>
      <path id="DejaVuSans-6c" d="M 603 4863 
L 1178 4863 
L 1178 0 
L 603 0 
L 603 4863 
z
" transform="scale(0.015625)"/>
      <path id="DejaVuSans-2b" d="M 2944 4013 
L 2944 2272 
L 4684 2272 
L 4684 1741 
L 2944 1741 
L 2944 0 
L 2419 0 
L 2419 1741 
L 678 1741 
L 678 2272 
L 2419 2272 
L 2419 4013 
L 2944 4013 
z
" transform="scale(0.015625)"/>
      <path id="DejaVuSans-6e" d="M 3513 2113 
L 3513 0 
L 2938 0 
L 2938 2094 
Q 2938 2591 2744 2837 
Q 2550 3084 2163 3084 
Q 1697 3084 1428 2787 
Q 1159 2491 1159 1978 
L 1159 0 
L 581 0 
L 581 3500 
L 1159 3500 
L 1159 2956 
Q 1366 3272 1645 3428 
Q 1925 3584 2291 3584 
Q 2894 3584 3203 3211 
Q 3513 2838 3513 2113 
z
" transform="scale(0.015625)"/>
      <path id="DejaVuSans-29" d="M 513 4856 
L 1013 4856 
Q 1481 4119 1714 3412 
Q 1947 2706 1947 2009 
Q 1947 1309 1714 600 
Q 1481 -109 1013 -844 
L 513 -844 
Q 928 -128 1133 580 
Q 1338 1288 1338 2009 
Q 1338 2731 1133 3434 
Q 928 4138 513 4856 
z
" transform="scale(0.015625)"/>
     </defs>
     <use xlink:href="#DejaVuSans-52"/>
     <use xlink:href="#DejaVuSans-4f" x="69.482422"/>
     <use xlink:href="#DejaVuSans-43" x="148.193359"/>
     <use xlink:href="#DejaVuSans-20" x="218.017578"/>
     <use xlink:href="#DejaVuSans-2d" x="249.804688"/>
     <use xlink:href="#DejaVuSans-20" x="285.888672"/>
     <use xlink:href="#DejaVuSans-4e" x="317.675781"/>
     <use xlink:href="#DejaVuSans-61" x="392.480469"/>
     <use xlink:href="#DejaVuSans-69" x="453.759766"/>
     <use xlink:href="#DejaVuSans-76" x="481.542969"/>
     <use xlink:href="#DejaVuSans-65" x="540.722656"/>
     <use xlink:href="#DejaVuSans-20" x="602.246094"/>
     <use xlink:href="#DejaVuSans-42" x="634.033203"/>
     <use xlink:href="#DejaVuSans-61" x="702.636719"/>
     <use xlink:href="#DejaVuSans-79" x="763.916016"/>
     <use xlink:href="#DejaVuSans-65" x="823.095703"/>
     <use xlink:href="#DejaVuSans-73" x="884.619141"/>
     <use xlink:href="#DejaVuSans-20" x="936.71875"/>
     <use xlink:href="#DejaVuSans-28" x="968.505859"/>
     <use xlink:href="#DejaVuSans-53" x="1007.519531"/>
     <use xlink:href="#DejaVuSans-74" x="1070.996094"/>
     <use xlink:href="#DejaVuSans-72" x="1110.205078"/>
     <use xlink:href="#DejaVuSans-61" x="1151.318359"/>
     <use xlink:href="#DejaVuSans-74" x="1212.597656"/>
     <use xlink:href="#DejaVuSans-20" x="1251.806641"/>
     <use xlink:href="#DejaVuSans-4c" x="1283.59375"/>
     <use xlink:href="#DejaVuSans-61" x="1339.306641"/>
     <use xlink:href="#DejaVuSans-62" x="1400.585938"/>
     <use xlink:href="#DejaVuSans-65" x="1464.0625"/>
     <use xlink:href="#DejaVuSans-6c" x="1525.585938"/>
     <use xlink:href="#DejaVuSans-20" x="1553.369141"/>
     <use xlink:href="#DejaVuSans-2b" x="1585.15625"/>
     <use xlink:href="#DejaVuSans-20" x="1668.945312"/>
     <use xlink:href="#DejaVuSans-50" x="1700.732422"/>
     <use xlink:href="#DejaVuSans-61" x="1756.535156"/>
     <use xlink:href="#DejaVuSans-74" x="1817.814453"/>
     <use xlink:href="#DejaVuSans-69" x="1857.023438"/>
     <use xlink:href="#DejaVuSans-65" x="1884.806641"/>
     <use xlink:href="#DejaVuSans-6e" x="1946.330078"/>
     <use xlink:href="#DejaVuSans-74" x="2009.708984"/>
     <use xlink:href="#DejaVuSans-29" x="2048.917969"/>
    </g>
   </g>
   <g id="legend_1">
    <g id="patch_7">
     <path d="M 64.6 64.150125 
L 167.46875 64.150125 
Q 169.46875 64.150125 169.46875 62.150125 
L 169.46875 48.472 
Q 169.46875 46.472 167.46875 46.472 
L 64.6 46.472 
Q 62.6 46.472 62.6 48.472 
L 62.6 62.150125 
Q 62.6 64.150125 64.6 64.150125 
z
" style="fill: #ffffff; opacity: 0.8; stroke: #cccccc; stroke-linejoin: miter"/>
    </g>
    <g id="line2d_27">
     <path d="M 66.6 54.570438 
L 76.6 54.570438 
L 86.6 54.570438 
" style="fill: none; stroke: #1f77b4; stroke-width: 1.5; stroke-linecap: square"/>
    </g>
    <g id="text_16">
     <!-- AUC = 0.6384 -->
     <g transform="translate(94.6 58.070438) scale(0.1 -0.1)">
      <defs>
       <path id="DejaVuSans-41" d="M 2188 4044 
L 1331 1722 
L 3047 1722 
L 2188 4044 
z
M 1831 4666 
L 2547 4666 
L 4325 0 
L 3669 0 
L 3244 1197 
L 1141 1197 
L 716 0 
L 50 0 
L 1831 4666 
z
" transform="scale(0.015625)"/>
       <path id="DejaVuSans-55" d="M 556 4666 
L 1191 4666 
L 1191 1831 
Q 1191 1081 1462 751 
Q 1734 422 2344 422 
Q 2950 422 3222 751 
Q 3494 1081 3494 1831 
L 3494 4666 
L 4128 4666 
L 4128 1753 
Q 4128 841 3676 375 
Q 3225 -91 2344 -91 
Q 1459 -91 1007 375 
Q 556 841 556 1753 
L 556 4666 
z
" transform="scale(0.015625)"/>
       <path id="DejaVuSans-3d" d="M 678 2906 
L 4684 2906 
L 4684 2381 
L 678 2381 
L 678 2906 
z
M 678 1631 
L 4684 1631 
L 4684 1100 
L 678 1100 
L 678 1631 
z
" transform="scale(0.015625)"/>
       <path id="DejaVuSans-33" d="M 2597 2516 
Q 3050 2419 3304 2112 
Q 3559 1806 3559 1356 
Q 3559 666 3084 287 
Q 2609 -91 1734 -91 
Q 1441 -91 1130 -33 
Q 819 25 488 141 
L 488 750 
Q 750 597 1062 519 
Q 1375 441 1716 441 
Q 2309 441 2620 675 
Q 2931 909 2931 1356 
Q 2931 1769 2642 2001 
Q 2353 2234 1838 2234 
L 1294 2234 
L 1294 2753 
L 1863 2753 
Q 2328 2753 2575 2939 
Q 2822 3125 2822 3475 
Q 2822 3834 2567 4026 
Q 2313 4219 1838 4219 
Q 1578 4219 1281 4162 
Q 984 4106 628 3988 
L 628 4550 
Q 988 4650 1302 4700 
Q 1616 4750 1894 4750 
Q 2613 4750 3031 4423 
Q 3450 4097 3450 3541 
Q 3450 3153 3228 2886 
Q 3006 2619 2597 2516 
z
" transform="scale(0.015625)"/>
      </defs>
      <use xlink:href="#DejaVuSans-41"/>
      <use xlink:href="#DejaVuSans-55" x="68.408203"/>
      <use xlink:href="#DejaVuSans-43" x="141.601562"/>
      <use xlink:href="#DejaVuSans-20" x="211.425781"/>
      <use xlink:href="#DejaVuSans-3d" x="243.212891"/>
      <use xlink:href="#DejaVuSans-20" x="327.001953"/>
      <use xlink:href="#DejaVuSans-30" x="358.789062"/>
      <use xlink:href="#DejaVuSans-2e" x="422.412109"/>
      <use xlink:href="#DejaVuSans-36" x="454.199219"/>
      <use xlink:href="#DejaVuSans-33" x="517.822266"/>
      <use xlink:href="#DejaVuSans-38" x="581.445312"/>
      <use xlink:href="#DejaVuSans-34" x="645.068359"/>
     </g>
    </g>
   </g>
  </g>
 </g>
 <defs>
  <clipPath id="p950e54cb83">
   <rect x="57.6" y="41.472" width="357.12" height="266.112"/>
  </clipPath>
 </defs>
</svg>
