<?xml version="1.0" encoding="utf-8" standalone="no"?>
<!DOCTYPE svg PUBLIC "-//W3C//DTD SVG 1.1//EN"
  "http://www.w3.org/Graphics/SVG/1.1/DTD/svg11.dtd">
<svg xmlns:xlink="http://www.w3.org/1999/xlink" width="432pt" height="432pt" viewBox="0 0 432 432" xmlns="http://www.w3.org/2000/svg" version="1.1">
 <metadata>
  <rdf:RDF xmlns:dc="http://purl.org/dc/elements/1.1/" xmlns:cc="http://creativecommons.org/ns#" xmlns:rdf="http://www.w3.org/1999/02/22-rdf-syntax-ns#">
   <cc:Work>
    <dc:type rdf:resource="http://purl.org/dc/dcmitype/StillImage"/>
    <dc:date>2025-07-01T11:16:09.129733</dc:date>
    <dc:format>image/svg+xml</dc:format>
    <dc:creator>
     <cc:Agent>
      <dc:title>Matplotlib v3.7.5, https://matplotlib.org/</dc:title>
     </cc:Agent>
    </dc:creator>
   </cc:Work>
  </rdf:RDF>
 </metadata>
 <defs>
  <style type="text/css">*{stroke-linejoin: round; stroke-linecap: butt}</style>
 </defs>
 <g id="figure_1">
  <g id="patch_1">
   <path d="M 0 432 
L 432 432 
L 432 0 
L 0 0 
z
" style="fill: #ffffff"/>
  </g>
  <g id="axes_1">
   <g id="patch_2">
    <path d="M 54 384.48 
L 388.8 384.48 
L 388.8 51.84 
L 54 51.84 
z
" style="fill: #ffffff"/>
   </g>
   <g id="matplotlib.axis_1">
    <g id="xtick_1">
     <g id="line2d_1">
      <path d="M 69.218182 384.48 
L 69.218182 51.84 
" clip-path="url(#p5ae3558d60)" style="fill: none; stroke: #b0b0b0; stroke-width: 0.8; stroke-linecap: square"/>
     </g>
     <g id="line2d_2">
      <defs>
       <path id="m6b97b2a638" d="M 0 0 
L 0 3.5 
" style="stroke: #000000; stroke-width: 0.8"/>
      </defs>
      <g>
       <use xlink:href="#m6b97b2a638" x="69.218182" y="384.48" style="stroke: #000000; stroke-width: 0.8"/>
      </g>
     </g>
     <g id="text_1">
      <!-- 0.0 -->
      <g transform="translate(61.266619 399.078438) scale(0.1 -0.1)">
       <defs>
        <path id="DejaVuSans-30" d="M 2034 4250 
Q 1547 4250 1301 3770 
Q 1056 3291 1056 2328 
Q 1056 1369 1301 889 
Q 1547 409 2034 409 
Q 2525 409 2770 889 
Q 3016 1369 3016 2328 
Q 3016 3291 2770 3770 
Q 2525 4250 2034 4250 
z
M 2034 4750 
Q 2819 4750 3233 4129 
Q 3647 3509 3647 2328 
Q 3647 1150 3233 529 
Q 2819 -91 2034 -91 
Q 1250 -91 836 529 
Q 422 1150 422 2328 
Q 422 3509 836 4129 
Q 1250 4750 2034 4750 
z
" transform="scale(0.015625)"/>
        <path id="DejaVuSans-2e" d="M 684 794 
L 1344 794 
L 1344 0 
L 684 0 
L 684 794 
z
" transform="scale(0.015625)"/>
       </defs>
       <use xlink:href="#DejaVuSans-30"/>
       <use xlink:href="#DejaVuSans-2e" x="63.623047"/>
       <use xlink:href="#DejaVuSans-30" x="95.410156"/>
      </g>
     </g>
    </g>
    <g id="xtick_2">
     <g id="line2d_3">
      <path d="M 130.090909 384.48 
L 130.090909 51.84 
" clip-path="url(#p5ae3558d60)" style="fill: none; stroke: #b0b0b0; stroke-width: 0.8; stroke-linecap: square"/>
     </g>
     <g id="line2d_4">
      <g>
       <use xlink:href="#m6b97b2a638" x="130.090909" y="384.48" style="stroke: #000000; stroke-width: 0.8"/>
      </g>
     </g>
     <g id="text_2">
      <!-- 0.2 -->
      <g transform="translate(122.139347 399.078438) scale(0.1 -0.1)">
       <defs>
        <path id="DejaVuSans-32" d="M 1228 531 
L 3431 531 
L 3431 0 
L 469 0 
L 469 531 
Q 828 903 1448 1529 
Q 2069 2156 2228 2338 
Q 2531 2678 2651 2914 
Q 2772 3150 2772 3378 
Q 2772 3750 2511 3984 
Q 2250 4219 1831 4219 
Q 1534 4219 1204 4116 
Q 875 4013 500 3803 
L 500 4441 
Q 881 4594 1212 4672 
Q 1544 4750 1819 4750 
Q 2544 4750 2975 4387 
Q 3406 4025 3406 3419 
Q 3406 3131 3298 2873 
Q 3191 2616 2906 2266 
Q 2828 2175 2409 1742 
Q 1991 1309 1228 531 
z
" transform="scale(0.015625)"/>
       </defs>
       <use xlink:href="#DejaVuSans-30"/>
       <use xlink:href="#DejaVuSans-2e" x="63.623047"/>
       <use xlink:href="#DejaVuSans-32" x="95.410156"/>
      </g>
     </g>
    </g>
    <g id="xtick_3">
     <g id="line2d_5">
      <path d="M 190.963636 384.48 
L 190.963636 51.84 
" clip-path="url(#p5ae3558d60)" style="fill: none; stroke: #b0b0b0; stroke-width: 0.8; stroke-linecap: square"/>
     </g>
     <g id="line2d_6">
      <g>
       <use xlink:href="#m6b97b2a638" x="190.963636" y="384.48" style="stroke: #000000; stroke-width: 0.8"/>
      </g>
     </g>
     <g id="text_3">
      <!-- 0.4 -->
      <g transform="translate(183.012074 399.078438) scale(0.1 -0.1)">
       <defs>
        <path id="DejaVuSans-34" d="M 2419 4116 
L 825 1625 
L 2419 1625 
L 2419 4116 
z
M 2253 4666 
L 3047 4666 
L 3047 1625 
L 3713 1625 
L 3713 1100 
L 3047 1100 
L 3047 0 
L 2419 0 
L 2419 1100 
L 313 1100 
L 313 1709 
L 2253 4666 
z
" transform="scale(0.015625)"/>
       </defs>
       <use xlink:href="#DejaVuSans-30"/>
       <use xlink:href="#DejaVuSans-2e" x="63.623047"/>
       <use xlink:href="#DejaVuSans-34" x="95.410156"/>
      </g>
     </g>
    </g>
    <g id="xtick_4">
     <g id="line2d_7">
      <path d="M 251.836364 384.48 
L 251.836364 51.84 
" clip-path="url(#p5ae3558d60)" style="fill: none; stroke: #b0b0b0; stroke-width: 0.8; stroke-linecap: square"/>
     </g>
     <g id="line2d_8">
      <g>
       <use xlink:href="#m6b97b2a638" x="251.836364" y="384.48" style="stroke: #000000; stroke-width: 0.8"/>
      </g>
     </g>
     <g id="text_4">
      <!-- 0.6 -->
      <g transform="translate(243.884801 399.078438) scale(0.1 -0.1)">
       <defs>
        <path id="DejaVuSans-36" d="M 2113 2584 
Q 1688 2584 1439 2293 
Q 1191 2003 1191 1497 
Q 1191 994 1439 701 
Q 1688 409 2113 409 
Q 2538 409 2786 701 
Q 3034 994 3034 1497 
Q 3034 2003 2786 2293 
Q 2538 2584 2113 2584 
z
M 3366 4563 
L 3366 3988 
Q 3128 4100 2886 4159 
Q 2644 4219 2406 4219 
Q 1781 4219 1451 3797 
Q 1122 3375 1075 2522 
Q 1259 2794 1537 2939 
Q 1816 3084 2150 3084 
Q 2853 3084 3261 2657 
Q 3669 2231 3669 1497 
Q 3669 778 3244 343 
Q 2819 -91 2113 -91 
Q 1303 -91 875 529 
Q 447 1150 447 2328 
Q 447 3434 972 4092 
Q 1497 4750 2381 4750 
Q 2619 4750 2861 4703 
Q 3103 4656 3366 4563 
z
" transform="scale(0.015625)"/>
       </defs>
       <use xlink:href="#DejaVuSans-30"/>
       <use xlink:href="#DejaVuSans-2e" x="63.623047"/>
       <use xlink:href="#DejaVuSans-36" x="95.410156"/>
      </g>
     </g>
    </g>
    <g id="xtick_5">
     <g id="line2d_9">
      <path d="M 312.709091 384.48 
L 312.709091 51.84 
" clip-path="url(#p5ae3558d60)" style="fill: none; stroke: #b0b0b0; stroke-width: 0.8; stroke-linecap: square"/>
     </g>
     <g id="line2d_10">
      <g>
       <use xlink:href="#m6b97b2a638" x="312.709091" y="384.48" style="stroke: #000000; stroke-width: 0.8"/>
      </g>
     </g>
     <g id="text_5">
      <!-- 0.8 -->
      <g transform="translate(304.757528 399.078438) scale(0.1 -0.1)">
       <defs>
        <path id="DejaVuSans-38" d="M 2034 2216 
Q 1584 2216 1326 1975 
Q 1069 1734 1069 1313 
Q 1069 891 1326 650 
Q 1584 409 2034 409 
Q 2484 409 2743 651 
Q 3003 894 3003 1313 
Q 3003 1734 2745 1975 
Q 2488 2216 2034 2216 
z
M 1403 2484 
Q 997 2584 770 2862 
Q 544 3141 544 3541 
Q 544 4100 942 4425 
Q 1341 4750 2034 4750 
Q 2731 4750 3128 4425 
Q 3525 4100 3525 3541 
Q 3525 3141 3298 2862 
Q 3072 2584 2669 2484 
Q 3125 2378 3379 2068 
Q 3634 1759 3634 1313 
Q 3634 634 3220 271 
Q 2806 -91 2034 -91 
Q 1263 -91 848 271 
Q 434 634 434 1313 
Q 434 1759 690 2068 
Q 947 2378 1403 2484 
z
M 1172 3481 
Q 1172 3119 1398 2916 
Q 1625 2713 2034 2713 
Q 2441 2713 2670 2916 
Q 2900 3119 2900 3481 
Q 2900 3844 2670 4047 
Q 2441 4250 2034 4250 
Q 1625 4250 1398 4047 
Q 1172 3844 1172 3481 
z
" transform="scale(0.015625)"/>
       </defs>
       <use xlink:href="#DejaVuSans-30"/>
       <use xlink:href="#DejaVuSans-2e" x="63.623047"/>
       <use xlink:href="#DejaVuSans-38" x="95.410156"/>
      </g>
     </g>
    </g>
    <g id="xtick_6">
     <g id="line2d_11">
      <path d="M 373.581818 384.48 
L 373.581818 51.84 
" clip-path="url(#p5ae3558d60)" style="fill: none; stroke: #b0b0b0; stroke-width: 0.8; stroke-linecap: square"/>
     </g>
     <g id="line2d_12">
      <g>
       <use xlink:href="#m6b97b2a638" x="373.581818" y="384.48" style="stroke: #000000; stroke-width: 0.8"/>
      </g>
     </g>
     <g id="text_6">
      <!-- 1.0 -->
      <g transform="translate(365.630256 399.078438) scale(0.1 -0.1)">
       <defs>
        <path id="DejaVuSans-31" d="M 794 531 
L 1825 531 
L 1825 4091 
L 703 3866 
L 703 4441 
L 1819 4666 
L 2450 4666 
L 2450 531 
L 3481 531 
L 3481 0 
L 794 0 
L 794 531 
z
" transform="scale(0.015625)"/>
       </defs>
       <use xlink:href="#DejaVuSans-31"/>
       <use xlink:href="#DejaVuSans-2e" x="63.623047"/>
       <use xlink:href="#DejaVuSans-30" x="95.410156"/>
      </g>
     </g>
    </g>
    <g id="text_7">
     <!-- False Positive Rate -->
     <g transform="translate(174.933594 412.756563) scale(0.1 -0.1)">
      <defs>
       <path id="DejaVuSans-46" d="M 628 4666 
L 3309 4666 
L 3309 4134 
L 1259 4134 
L 1259 2759 
L 3109 2759 
L 3109 2228 
L 1259 2228 
L 1259 0 
L 628 0 
L 628 4666 
z
" transform="scale(0.015625)"/>
       <path id="DejaVuSans-61" d="M 2194 1759 
Q 1497 1759 1228 1600 
Q 959 1441 959 1056 
Q 959 750 1161 570 
Q 1363 391 1709 391 
Q 2188 391 2477 730 
Q 2766 1069 2766 1631 
L 2766 1759 
L 2194 1759 
z
M 3341 1997 
L 3341 0 
L 2766 0 
L 2766 531 
Q 2569 213 2275 61 
Q 1981 -91 1556 -91 
Q 1019 -91 701 211 
Q 384 513 384 1019 
Q 384 1609 779 1909 
Q 1175 2209 1959 2209 
L 2766 2209 
L 2766 2266 
Q 2766 2663 2505 2880 
Q 2244 3097 1772 3097 
Q 1472 3097 1187 3025 
Q 903 2953 641 2809 
L 641 3341 
Q 956 3463 1253 3523 
Q 1550 3584 1831 3584 
Q 2591 3584 2966 3190 
Q 3341 2797 3341 1997 
z
" transform="scale(0.015625)"/>
       <path id="DejaVuSans-6c" d="M 603 4863 
L 1178 4863 
L 1178 0 
L 603 0 
L 603 4863 
z
" transform="scale(0.015625)"/>
       <path id="DejaVuSans-73" d="M 2834 3397 
L 2834 2853 
Q 2591 2978 2328 3040 
Q 2066 3103 1784 3103 
Q 1356 3103 1142 2972 
Q 928 2841 928 2578 
Q 928 2378 1081 2264 
Q 1234 2150 1697 2047 
L 1894 2003 
Q 2506 1872 2764 1633 
Q 3022 1394 3022 966 
Q 3022 478 2636 193 
Q 2250 -91 1575 -91 
Q 1294 -91 989 -36 
Q 684 19 347 128 
L 347 722 
Q 666 556 975 473 
Q 1284 391 1588 391 
Q 1994 391 2212 530 
Q 2431 669 2431 922 
Q 2431 1156 2273 1281 
Q 2116 1406 1581 1522 
L 1381 1569 
Q 847 1681 609 1914 
Q 372 2147 372 2553 
Q 372 3047 722 3315 
Q 1072 3584 1716 3584 
Q 2034 3584 2315 3537 
Q 2597 3491 2834 3397 
z
" transform="scale(0.015625)"/>
       <path id="DejaVuSans-65" d="M 3597 1894 
L 3597 1613 
L 953 1613 
Q 991 1019 1311 708 
Q 1631 397 2203 397 
Q 2534 397 2845 478 
Q 3156 559 3463 722 
L 3463 178 
Q 3153 47 2828 -22 
Q 2503 -91 2169 -91 
Q 1331 -91 842 396 
Q 353 884 353 1716 
Q 353 2575 817 3079 
Q 1281 3584 2069 3584 
Q 2775 3584 3186 3129 
Q 3597 2675 3597 1894 
z
M 3022 2063 
Q 3016 2534 2758 2815 
Q 2500 3097 2075 3097 
Q 1594 3097 1305 2825 
Q 1016 2553 972 2059 
L 3022 2063 
z
" transform="scale(0.015625)"/>
       <path id="DejaVuSans-20" transform="scale(0.015625)"/>
       <path id="DejaVuSans-50" d="M 1259 4147 
L 1259 2394 
L 2053 2394 
Q 2494 2394 2734 2622 
Q 2975 2850 2975 3272 
Q 2975 3691 2734 3919 
Q 2494 4147 2053 4147 
L 1259 4147 
z
M 628 4666 
L 2053 4666 
Q 2838 4666 3239 4311 
Q 3641 3956 3641 3272 
Q 3641 2581 3239 2228 
Q 2838 1875 2053 1875 
L 1259 1875 
L 1259 0 
L 628 0 
L 628 4666 
z
" transform="scale(0.015625)"/>
       <path id="DejaVuSans-6f" d="M 1959 3097 
Q 1497 3097 1228 2736 
Q 959 2375 959 1747 
Q 959 1119 1226 758 
Q 1494 397 1959 397 
Q 2419 397 2687 759 
Q 2956 1122 2956 1747 
Q 2956 2369 2687 2733 
Q 2419 3097 1959 3097 
z
M 1959 3584 
Q 2709 3584 3137 3096 
Q 3566 2609 3566 1747 
Q 3566 888 3137 398 
Q 2709 -91 1959 -91 
Q 1206 -91 779 398 
Q 353 888 353 1747 
Q 353 2609 779 3096 
Q 1206 3584 1959 3584 
z
" transform="scale(0.015625)"/>
       <path id="DejaVuSans-69" d="M 603 3500 
L 1178 3500 
L 1178 0 
L 603 0 
L 603 3500 
z
M 603 4863 
L 1178 4863 
L 1178 4134 
L 603 4134 
L 603 4863 
z
" transform="scale(0.015625)"/>
       <path id="DejaVuSans-74" d="M 1172 4494 
L 1172 3500 
L 2356 3500 
L 2356 3053 
L 1172 3053 
L 1172 1153 
Q 1172 725 1289 603 
Q 1406 481 1766 481 
L 2356 481 
L 2356 0 
L 1766 0 
Q 1100 0 847 248 
Q 594 497 594 1153 
L 594 3053 
L 172 3053 
L 172 3500 
L 594 3500 
L 594 4494 
L 1172 4494 
z
" transform="scale(0.015625)"/>
       <path id="DejaVuSans-76" d="M 191 3500 
L 800 3500 
L 1894 563 
L 2988 3500 
L 3597 3500 
L 2284 0 
L 1503 0 
L 191 3500 
z
" transform="scale(0.015625)"/>
       <path id="DejaVuSans-52" d="M 2841 2188 
Q 3044 2119 3236 1894 
Q 3428 1669 3622 1275 
L 4263 0 
L 3584 0 
L 2988 1197 
Q 2756 1666 2539 1819 
Q 2322 1972 1947 1972 
L 1259 1972 
L 1259 0 
L 628 0 
L 628 4666 
L 2053 4666 
Q 2853 4666 3247 4331 
Q 3641 3997 3641 3322 
Q 3641 2881 3436 2590 
Q 3231 2300 2841 2188 
z
M 1259 4147 
L 1259 2491 
L 2053 2491 
Q 2509 2491 2742 2702 
Q 2975 2913 2975 3322 
Q 2975 3731 2742 3939 
Q 2509 4147 2053 4147 
L 1259 4147 
z
" transform="scale(0.015625)"/>
      </defs>
      <use xlink:href="#DejaVuSans-46"/>
      <use xlink:href="#DejaVuSans-61" x="48.394531"/>
      <use xlink:href="#DejaVuSans-6c" x="109.673828"/>
      <use xlink:href="#DejaVuSans-73" x="137.457031"/>
      <use xlink:href="#DejaVuSans-65" x="189.556641"/>
      <use xlink:href="#DejaVuSans-20" x="251.080078"/>
      <use xlink:href="#DejaVuSans-50" x="282.867188"/>
      <use xlink:href="#DejaVuSans-6f" x="339.544922"/>
      <use xlink:href="#DejaVuSans-73" x="400.726562"/>
      <use xlink:href="#DejaVuSans-69" x="452.826172"/>
      <use xlink:href="#DejaVuSans-74" x="480.609375"/>
      <use xlink:href="#DejaVuSans-69" x="519.818359"/>
      <use xlink:href="#DejaVuSans-76" x="547.601562"/>
      <use xlink:href="#DejaVuSans-65" x="606.78125"/>
      <use xlink:href="#DejaVuSans-20" x="668.304688"/>
      <use xlink:href="#DejaVuSans-52" x="700.091797"/>
      <use xlink:href="#DejaVuSans-61" x="767.324219"/>
      <use xlink:href="#DejaVuSans-74" x="828.603516"/>
      <use xlink:href="#DejaVuSans-65" x="867.8125"/>
     </g>
    </g>
   </g>
   <g id="matplotlib.axis_2">
    <g id="ytick_1">
     <g id="line2d_13">
      <path d="M 54 369.36 
L 388.8 369.36 
" clip-path="url(#p5ae3558d60)" style="fill: none; stroke: #b0b0b0; stroke-width: 0.8; stroke-linecap: square"/>
     </g>
     <g id="line2d_14">
      <defs>
       <path id="mf176d8974f" d="M 0 0 
L -3.5 0 
" style="stroke: #000000; stroke-width: 0.8"/>
      </defs>
      <g>
       <use xlink:href="#mf176d8974f" x="54" y="369.36" style="stroke: #000000; stroke-width: 0.8"/>
      </g>
     </g>
     <g id="text_8">
      <!-- 0.0 -->
      <g transform="translate(31.096875 373.159219) scale(0.1 -0.1)">
       <use xlink:href="#DejaVuSans-30"/>
       <use xlink:href="#DejaVuSans-2e" x="63.623047"/>
       <use xlink:href="#DejaVuSans-30" x="95.410156"/>
      </g>
     </g>
    </g>
    <g id="ytick_2">
     <g id="line2d_15">
      <path d="M 54 308.88 
L 388.8 308.88 
" clip-path="url(#p5ae3558d60)" style="fill: none; stroke: #b0b0b0; stroke-width: 0.8; stroke-linecap: square"/>
     </g>
     <g id="line2d_16">
      <g>
       <use xlink:href="#mf176d8974f" x="54" y="308.88" style="stroke: #000000; stroke-width: 0.8"/>
      </g>
     </g>
     <g id="text_9">
      <!-- 0.2 -->
      <g transform="translate(31.096875 312.679219) scale(0.1 -0.1)">
       <use xlink:href="#DejaVuSans-30"/>
       <use xlink:href="#DejaVuSans-2e" x="63.623047"/>
       <use xlink:href="#DejaVuSans-32" x="95.410156"/>
      </g>
     </g>
    </g>
    <g id="ytick_3">
     <g id="line2d_17">
      <path d="M 54 248.4 
L 388.8 248.4 
" clip-path="url(#p5ae3558d60)" style="fill: none; stroke: #b0b0b0; stroke-width: 0.8; stroke-linecap: square"/>
     </g>
     <g id="line2d_18">
      <g>
       <use xlink:href="#mf176d8974f" x="54" y="248.4" style="stroke: #000000; stroke-width: 0.8"/>
      </g>
     </g>
     <g id="text_10">
      <!-- 0.4 -->
      <g transform="translate(31.096875 252.199219) scale(0.1 -0.1)">
       <use xlink:href="#DejaVuSans-30"/>
       <use xlink:href="#DejaVuSans-2e" x="63.623047"/>
       <use xlink:href="#DejaVuSans-34" x="95.410156"/>
      </g>
     </g>
    </g>
    <g id="ytick_4">
     <g id="line2d_19">
      <path d="M 54 187.92 
L 388.8 187.92 
" clip-path="url(#p5ae3558d60)" style="fill: none; stroke: #b0b0b0; stroke-width: 0.8; stroke-linecap: square"/>
     </g>
     <g id="line2d_20">
      <g>
       <use xlink:href="#mf176d8974f" x="54" y="187.92" style="stroke: #000000; stroke-width: 0.8"/>
      </g>
     </g>
     <g id="text_11">
      <!-- 0.6 -->
      <g transform="translate(31.096875 191.719219) scale(0.1 -0.1)">
       <use xlink:href="#DejaVuSans-30"/>
       <use xlink:href="#DejaVuSans-2e" x="63.623047"/>
       <use xlink:href="#DejaVuSans-36" x="95.410156"/>
      </g>
     </g>
    </g>
    <g id="ytick_5">
     <g id="line2d_21">
      <path d="M 54 127.44 
L 388.8 127.44 
" clip-path="url(#p5ae3558d60)" style="fill: none; stroke: #b0b0b0; stroke-width: 0.8; stroke-linecap: square"/>
     </g>
     <g id="line2d_22">
      <g>
       <use xlink:href="#mf176d8974f" x="54" y="127.44" style="stroke: #000000; stroke-width: 0.8"/>
      </g>
     </g>
     <g id="text_12">
      <!-- 0.8 -->
      <g transform="translate(31.096875 131.239219) scale(0.1 -0.1)">
       <use xlink:href="#DejaVuSans-30"/>
       <use xlink:href="#DejaVuSans-2e" x="63.623047"/>
       <use xlink:href="#DejaVuSans-38" x="95.410156"/>
      </g>
     </g>
    </g>
    <g id="ytick_6">
     <g id="line2d_23">
      <path d="M 54 66.96 
L 388.8 66.96 
" clip-path="url(#p5ae3558d60)" style="fill: none; stroke: #b0b0b0; stroke-width: 0.8; stroke-linecap: square"/>
     </g>
     <g id="line2d_24">
      <g>
       <use xlink:href="#mf176d8974f" x="54" y="66.96" style="stroke: #000000; stroke-width: 0.8"/>
      </g>
     </g>
     <g id="text_13">
      <!-- 1.0 -->
      <g transform="translate(31.096875 70.759219) scale(0.1 -0.1)">
       <use xlink:href="#DejaVuSans-31"/>
       <use xlink:href="#DejaVuSans-2e" x="63.623047"/>
       <use xlink:href="#DejaVuSans-30" x="95.410156"/>
      </g>
     </g>
    </g>
    <g id="text_14">
     <!-- True Positive Rate -->
     <g transform="translate(25.017187 262.689687) rotate(-90) scale(0.1 -0.1)">
      <defs>
       <path id="DejaVuSans-54" d="M -19 4666 
L 3928 4666 
L 3928 4134 
L 2272 4134 
L 2272 0 
L 1638 0 
L 1638 4134 
L -19 4134 
L -19 4666 
z
" transform="scale(0.015625)"/>
       <path id="DejaVuSans-72" d="M 2631 2963 
Q 2534 3019 2420 3045 
Q 2306 3072 2169 3072 
Q 1681 3072 1420 2755 
Q 1159 2438 1159 1844 
L 1159 0 
L 581 0 
L 581 3500 
L 1159 3500 
L 1159 2956 
Q 1341 3275 1631 3429 
Q 1922 3584 2338 3584 
Q 2397 3584 2469 3576 
Q 2541 3569 2628 3553 
L 2631 2963 
z
" transform="scale(0.015625)"/>
       <path id="DejaVuSans-75" d="M 544 1381 
L 544 3500 
L 1119 3500 
L 1119 1403 
Q 1119 906 1312 657 
Q 1506 409 1894 409 
Q 2359 409 2629 706 
Q 2900 1003 2900 1516 
L 2900 3500 
L 3475 3500 
L 3475 0 
L 2900 0 
L 2900 538 
Q 2691 219 2414 64 
Q 2138 -91 1772 -91 
Q 1169 -91 856 284 
Q 544 659 544 1381 
z
M 1991 3584 
L 1991 3584 
z
" transform="scale(0.015625)"/>
      </defs>
      <use xlink:href="#DejaVuSans-54"/>
      <use xlink:href="#DejaVuSans-72" x="46.333984"/>
      <use xlink:href="#DejaVuSans-75" x="87.447266"/>
      <use xlink:href="#DejaVuSans-65" x="150.826172"/>
      <use xlink:href="#DejaVuSans-20" x="212.349609"/>
      <use xlink:href="#DejaVuSans-50" x="244.136719"/>
      <use xlink:href="#DejaVuSans-6f" x="300.814453"/>
      <use xlink:href="#DejaVuSans-73" x="361.996094"/>
      <use xlink:href="#DejaVuSans-69" x="414.095703"/>
      <use xlink:href="#DejaVuSans-74" x="441.878906"/>
      <use xlink:href="#DejaVuSans-69" x="481.087891"/>
      <use xlink:href="#DejaVuSans-76" x="508.871094"/>
      <use xlink:href="#DejaVuSans-65" x="568.050781"/>
      <use xlink:href="#DejaVuSans-20" x="629.574219"/>
      <use xlink:href="#DejaVuSans-52" x="661.361328"/>
      <use xlink:href="#DejaVuSans-61" x="728.59375"/>
      <use xlink:href="#DejaVuSans-74" x="789.873047"/>
      <use xlink:href="#DejaVuSans-65" x="829.082031"/>
     </g>
    </g>
   </g>
   <g id="line2d_25">
    <path d="M 69.218182 369.36 
L 69.410507 369.249683 
L 69.515637 369.159423 
L 69.670239 369.049106 
L 69.772895 368.978904 
L 69.905234 368.868586 
L 69.960273 368.808413 
L 70.141467 368.698096 
L 70.250925 368.617865 
L 70.394396 368.507548 
L 70.500144 368.367144 
L 70.60651 368.256826 
L 70.689995 368.176595 
L 70.840887 368.066278 
L 70.947254 367.945932 
L 71.096909 367.835614 
L 71.206985 367.604951 
L 71.31397 367.494633 
L 71.392508 367.364258 
L 71.554531 367.253941 
L 71.66399 367.103508 
L 71.782724 366.993191 
L 71.887235 366.802643 
L 71.952787 366.692325 
L 72.061008 366.551921 
L 72.205716 366.441604 
L 72.314556 366.251056 
L 72.446277 366.140738 
L 72.554499 365.910075 
L 72.639839 365.799757 
L 72.743732 365.679411 
L 72.842059 365.569094 
L 72.951517 365.448747 
L 73.017069 365.33843 
L 73.127764 365.16794 
L 73.195789 365.057622 
L 73.302774 364.887132 
L 73.388114 364.776814 
L 73.496336 364.556179 
L 73.583532 364.445862 
L 73.688661 364.195141 
L 73.809251 364.084823 
L 73.91067 363.904304 
L 73.973748 363.793987 
L 74.075167 363.643554 
L 74.180296 363.533236 
L 74.280479 363.453006 
L 74.370766 363.342688 
L 74.471567 363.15214 
L 74.56742 363.041823 
L 74.670076 362.841246 
L 74.751088 362.730928 
L 74.850033 362.590524 
L 74.945268 362.480207 
L 75.05349 362.379918 
L 75.11162 362.269601 
L 75.222316 362.149255 
L 75.316932 362.038937 
L 75.423917 361.848389 
L 75.509257 361.748101 
L 75.619953 361.57761 
L 75.668189 361.467293 
L 75.767752 361.236629 
L 75.832067 361.126312 
L 75.942762 360.905677 
L 76.03676 360.79536 
L 76.144982 360.504523 
L 76.261861 360.394206 
L 76.371938 360.213686 
L 76.449239 360.103369 
L 76.555606 359.962965 
L 76.68609 359.852647 
L 76.784417 359.621984 
L 76.856771 359.511667 
L 76.960045 359.341176 
L 77.034873 359.230859 
L 77.13691 359.110512 
L 77.222251 359.010224 
L 77.331709 358.819676 
L 77.438694 358.709358 
L 77.549389 358.508781 
L 77.610612 358.398464 
L 77.719452 358.227973 
L 77.802937 358.117656 
L 77.908685 357.957194 
L 77.952592 357.846877 
L 78.058958 357.73656 
L 78.108431 357.636271 
L 78.215416 357.38555 
L 78.3224 357.275232 
L 78.429385 357.074655 
L 78.482568 356.964338 
L 78.592645 356.77379 
L 78.725603 356.663472 
L 78.816509 356.492982 
L 78.942046 356.382664 
L 79.022439 356.282376 
L 79.149832 356.172059 
L 79.25558 355.991539 
L 79.353907 355.881222 
L 79.431208 355.650558 
L 79.534482 355.540241 
L 79.64023 355.429923 
L 79.714439 355.319606 
L 79.80349 355.169173 
L 79.92779 355.058856 
L 80.03663 354.818163 
L 80.070643 354.707846 
L 80.177009 354.49724 
L 80.261113 354.386923 
L 80.371808 354.166288 
L 80.483122 354.055971 
L 80.593199 353.875451 
L 80.656895 353.765134 
L 80.763879 353.554528 
L 80.851075 353.444211 
L 80.957441 353.263691 
L 81.037216 353.153374 
L 81.139872 352.952797 
L 81.203568 352.842479 
L 81.303751 352.601787 
L 81.357552 352.49147 
L 81.468247 352.270835 
L 81.520194 352.160517 
L 81.628415 351.979998 
L 81.670467 351.879709 
L 81.77807 351.639017 
L 81.838056 351.5287 
L 81.933909 351.298036 
L 82.006882 351.187719 
L 82.110156 351.007199 
L 82.199825 350.896882 
L 82.30681 350.706334 
L 82.37298 350.606045 
L 82.462031 350.47567 
L 82.566542 350.365353 
L 82.674764 350.164776 
L 82.763814 350.054458 
L 82.869562 349.914054 
L 82.949956 349.803737 
L 83.059414 349.643275 
L 83.129913 349.542987 
L 83.234424 349.382525 
L 83.319764 349.272208 
L 83.427986 349.141833 
L 83.530642 349.031515 
L 83.63639 348.861025 
L 83.686481 348.750707 
L 83.7879 348.540101 
L 83.877569 348.429784 
L 83.98208 348.259294 
L 84.097723 348.148976 
L 84.200997 347.998543 
L 84.311692 347.888226 
L 84.416822 347.607418 
L 84.504636 347.497101 
L 84.614713 347.346668 
L 84.678409 347.236351 
L 84.785394 346.945514 
L 84.871971 346.835196 
L 84.977101 346.634619 
L 85.069862 346.524302 
L 85.171281 346.393927 
L 85.273318 346.28361 
L 85.382777 346.113119 
L 85.468736 346.012831 
L 85.575721 345.84234 
L 85.650548 345.732023 
L 85.760625 345.541474 
L 85.839163 345.441186 
L 85.939963 345.180436 
L 86.043238 345.070118 
L 86.152078 344.909657 
L 86.224432 344.799339 
L 86.335127 344.668964 
L 86.40006 344.558647 
L 86.510137 344.428272 
L 86.558373 344.317954 
L 86.668449 344.077262 
L 86.816868 343.966945 
L 86.925089 343.736281 
L 87.040732 343.625964 
L 87.143388 343.405329 
L 87.22007 343.295011 
L 87.317161 343.144579 
L 87.427237 343.04429 
L 87.537314 342.813627 
L 87.609668 342.703309 
L 87.716653 342.502732 
L 87.825493 342.392415 
L 87.930004 342.302155 
L 88.032041 342.191838 
L 88.137789 341.981232 
L 88.206433 341.870914 
L 88.317128 341.700424 
L 88.379587 341.590106 
L 88.47977 341.439674 
L 88.585518 341.329356 
L 88.693739 341.158866 
L 88.762383 341.048548 
L 88.866894 340.858 
L 88.94605 340.747683 
L 89.053653 340.557135 
L 89.143941 340.446817 
L 89.242886 340.286356 
L 89.326372 340.176038 
L 89.422843 339.975461 
L 89.493342 339.865144 
L 89.594761 339.644509 
L 89.699891 339.534192 
L 89.810586 339.383759 
L 89.869335 339.273441 
L 89.98003 339.082893 
L 90.044963 338.972576 
L 90.146382 338.76197 
L 90.239143 338.651653 
L 90.343036 338.420989 
L 90.394983 338.310672 
L 90.503204 338.140181 
L 90.564427 338.029864 
L 90.667083 337.829287 
L 90.772212 337.718969 
L 90.877342 337.578565 
L 90.953406 337.468248 
L 91.059772 337.207498 
L 91.101824 337.09718 
L 91.211283 336.916661 
L 91.285492 336.806344 
L 91.390621 336.645882 
L 91.428963 336.545593 
L 91.537184 336.345016 
L 91.60892 336.234699 
L 91.717141 336.104324 
L 91.761048 335.994007 
L 91.867415 335.843574 
L 91.944097 335.733256 
L 92.054174 335.532679 
L 92.142607 335.422362 
L 92.246499 335.191698 
L 92.328129 335.081381 
L 92.429548 334.83066 
L 92.521691 334.720342 
L 92.621255 334.539823 
L 92.715253 334.429506 
L 92.797502 334.29913 
L 92.884079 334.188813 
L 92.965091 334.048409 
L 93.094957 333.938092 
L 93.189573 333.797688 
L 93.290992 333.68737 
L 93.399832 333.506851 
L 93.496304 333.396534 
L 93.606381 333.115726 
L 93.653998 333.005408 
L 93.759746 332.875033 
L 93.842613 332.784774 
L 93.95269 332.564139 
L 94.054109 332.453822 
L 94.161712 332.253244 
L 94.21304 332.142927 
L 94.32188 331.992494 
L 94.423299 331.882177 
L 94.530284 331.711686 
L 94.624282 331.601369 
L 94.732504 331.380734 
L 94.822792 331.270417 
L 94.927303 331.06984 
L 95.023775 330.959522 
L 95.120865 330.779003 
L 95.200021 330.668686 
L 95.302677 330.427993 
L 95.392965 330.317676 
L 95.492529 330.19733 
L 95.574777 330.087012 
L 95.665065 330.01681 
L 95.750405 329.906493 
L 95.8611 329.725974 
L 95.984164 329.615656 
L 96.089293 329.445166 
L 96.146805 329.354906 
L 96.255645 329.184415 
L 96.340986 329.074098 
L 96.448589 328.843434 
L 96.496207 328.733117 
L 96.606283 328.542569 
L 96.671835 328.432252 
L 96.777583 328.191559 
L 96.856739 328.081242 
L 96.958777 327.950867 
L 97.003302 327.840549 
L 97.100392 327.710174 
L 97.227785 327.599857 
L 97.332296 327.379222 
L 97.426294 327.268905 
L 97.525239 327.078356 
L 97.599448 326.968039 
L 97.700249 326.747404 
L 97.771985 326.637087 
L 97.880825 326.416452 
L 97.938337 326.306135 
L 98.043466 326.17576 
L 98.11211 326.065442 
L 98.215384 325.915009 
L 98.300106 325.804692 
L 98.405854 325.64423 
L 98.44234 325.533913 
L 98.540667 325.363423 
L 98.62106 325.253105 
L 98.729282 325.052528 
L 98.786175 324.942211 
L 98.896871 324.681461 
L 98.949435 324.571143 
L 99.059512 324.380595 
L 99.132485 324.290335 
L 99.24318 324.109816 
L 99.371809 323.999499 
L 99.482504 323.859095 
L 99.575265 323.748777 
L 99.683487 323.568258 
L 99.773156 323.457941 
L 99.881378 323.297479 
L 99.943219 323.187161 
L 100.040309 322.976556 
L 100.222121 322.866238 
L 100.330961 322.705777 
L 100.410736 322.595459 
L 100.51401 322.424969 
L 100.617285 322.314651 
L 100.726743 322.164218 
L 100.795387 322.053901 
L 100.900516 321.833266 
L 100.98833 321.722949 
L 101.097789 321.512343 
L 101.182511 321.402026 
L 101.289495 321.201449 
L 101.405138 321.091131 
L 101.513978 320.93067 
L 101.577056 320.820352 
L 101.678475 320.659891 
L 101.753302 320.549573 
L 101.849156 320.389112 
L 101.921509 320.278794 
L 102.030349 320.078217 
L 102.102085 319.9679 
L 102.211543 319.777352 
L 102.261634 319.667034 
L 102.368619 319.486515 
L 102.444065 319.376197 
L 102.549195 319.235793 
L 102.638864 319.135505 
L 102.749559 318.844668 
L 102.815111 318.74438 
L 102.921477 318.56386 
L 102.988265 318.453543 
L 103.098342 318.313139 
L 103.155854 318.202822 
L 103.263457 318.012273 
L 103.396415 317.901956 
L 103.505255 317.69135 
L 103.604819 317.581033 
L 103.711804 317.350369 
L 103.879393 317.240052 
L 103.988851 317.049504 
L 104.080994 316.939186 
L 104.185505 316.81884 
L 104.284451 316.708523 
L 104.387107 316.55809 
L 104.492236 316.447772 
L 104.597984 316.287311 
L 104.662299 316.176993 
L 104.768665 316.016532 
L 104.826177 315.906214 
L 104.934399 315.76581 
L 105.046949 315.655493 
L 105.147131 315.474974 
L 105.239893 315.364656 
L 105.349969 315.204195 
L 105.454481 315.093877 
L 105.551571 314.933416 
L 105.622688 314.823098 
L 105.732146 314.592435 
L 105.81996 314.482117 
L 105.927564 314.241425 
L 105.993733 314.131107 
L 106.10381 313.910473 
L 106.165033 313.800155 
L 106.274491 313.629665 
L 106.36416 313.519347 
L 106.472382 313.358886 
L 106.571946 313.248568 
L 106.680786 313.037962 
L 106.737679 312.927645 
L 106.848375 312.767183 
L 106.905887 312.656866 
L 107.016582 312.496404 
L 107.071002 312.386087 
L 107.164382 312.295827 
L 107.259617 312.18551 
L 107.364746 312.055135 
L 107.500178 311.944817 
L 107.604689 311.764298 
L 107.679516 311.66401 
L 107.78712 311.493519 
L 107.852671 311.383202 
L 107.955327 311.252827 
L 108.010984 311.142509 
L 108.119205 310.921874 
L 108.203309 310.811557 
L 108.30782 310.70124 
L 108.393779 310.590922 
L 108.497053 310.330172 
L 108.560131 310.229884 
L 108.641761 310.08948 
L 108.727101 309.979162 
L 108.832231 309.748499 
L 108.903966 309.638181 
L 109.014662 309.507806 
L 109.085779 309.397489 
L 109.196474 309.226998 
L 109.291091 309.116681 
L 109.388799 308.956219 
L 109.522376 308.845902 
L 109.625031 308.695469 
L 109.748095 308.585152 
L 109.855698 308.364517 
L 109.936091 308.2542 
L 110.041839 308.113796 
L 110.1581 308.003478 
L 110.268177 307.81293 
L 110.346715 307.702613 
L 110.455555 307.46192 
L 110.569961 307.351603 
L 110.678182 307.171083 
L 110.773417 307.060766 
L 110.876073 306.890276 
L 111.009031 306.789987 
L 111.090661 306.649583 
L 111.158068 306.539266 
L 111.267526 306.368775 
L 111.329985 306.258458 
L 111.436352 306.097996 
L 111.565599 305.987679 
L 111.673202 305.807159 
L 111.752359 305.696842 
L 111.848212 305.546409 
L 111.931697 305.436092 
L 112.039301 305.235515 
L 112.125878 305.125197 
L 112.235955 304.92462 
L 112.310782 304.814303 
L 112.41653 304.66387 
L 112.490739 304.553553 
L 112.592777 304.373034 
L 112.668223 304.272745 
L 112.767786 304.042081 
L 112.837667 303.931764 
L 112.944651 303.711129 
L 113.01515 303.600812 
L 113.106056 303.420293 
L 113.242106 303.309975 
L 113.34167 303.229744 
L 113.427011 303.119427 
L 113.523482 302.958965 
L 113.599547 302.848648 
L 113.703439 302.698215 
L 113.809187 302.587898 
L 113.916791 302.377292 
L 114.039854 302.266974 
L 114.143128 302.136599 
L 114.252587 302.026282 
L 114.347822 301.855791 
L 114.446149 301.745474 
L 114.540147 301.595041 
L 114.661355 301.484724 
L 114.76834 301.324262 
L 114.857391 301.234003 
L 114.966849 300.983281 
L 115.04044 300.872964 
L 115.143714 300.672387 
L 115.229673 300.562069 
L 115.333566 300.351464 
L 115.418288 300.241146 
L 115.528365 300.060627 
L 115.605666 299.950309 
L 115.695953 299.850021 
L 115.781294 299.739704 
L 115.887042 299.559184 
L 116.031131 299.448867 
L 116.14059 299.208174 
L 116.245101 299.097857 
L 116.347757 299.027655 
L 116.452268 298.917338 
L 116.55245 298.746847 
L 116.646448 298.63653 
L 116.749104 298.466039 
L 116.841865 298.355722 
L 116.927824 298.255433 
L 117.025533 298.145116 
L 117.122623 298.004712 
L 117.234555 297.894395 
L 117.342777 297.76402 
L 117.461511 297.653702 
L 117.572207 297.513298 
L 117.6526 297.402981 
L 117.742269 297.242519 
L 117.865951 297.132202 
L 117.96366 296.981769 
L 118.050237 296.871452 
L 118.155366 296.690932 
L 118.249983 296.580615 
L 118.358205 296.35998 
L 118.42623 296.249663 
L 118.531978 296.069143 
L 118.606187 295.958826 
L 118.716263 295.83848 
L 118.800985 295.738191 
L 118.909825 295.627874 
L 119.005679 295.517556 
L 119.112045 295.286893 
L 119.193057 295.176575 
L 119.298186 294.996056 
L 119.433 294.885739 
L 119.535655 294.795479 
L 119.635838 294.685162 
L 119.727981 294.604931 
L 119.88382 294.494613 
L 119.993278 294.314094 
L 120.115723 294.213806 
L 120.222708 294.053344 
L 120.341442 293.943027 
L 120.446572 293.772536 
L 120.609832 293.662219 
L 120.720527 293.451613 
L 120.809578 293.341295 
L 120.896155 293.180834 
L 120.990154 293.070516 
L 121.099612 292.940141 
L 121.170729 292.829824 
L 121.279569 292.649305 
L 121.398304 292.538987 
L 121.500341 292.418641 
L 121.605471 292.308324 
L 121.705035 292.137833 
L 121.810164 292.027516 
L 121.919622 291.81691 
L 121.980227 291.706592 
L 122.084738 291.586246 
L 122.089685 291.586246 
L 122.232537 291.475929 
L 122.335812 291.385669 
L 122.476191 291.275352 
L 122.573899 291.175063 
L 122.680884 291.064746 
L 122.790961 290.904284 
L 122.930721 290.793967 
L 123.032759 290.703707 
L 123.112534 290.59339 
L 123.219518 290.422899 
L 123.335779 290.312582 
L 123.434725 290.132062 
L 123.586235 290.021745 
L 123.685799 289.911428 
L 123.79402 289.80111 
L 123.892347 289.63062 
L 124.018503 289.520302 
L 124.129198 289.389927 
L 124.251643 289.27961 
L 124.362338 289.149235 
L 124.47056 289.038918 
L 124.5794 288.878456 
L 124.669069 288.768138 
L 124.768015 288.567561 
L 124.844079 288.457244 
L 124.952919 288.326869 
L 125.079074 288.216552 
L 125.188533 288.066119 
L 125.297373 287.955801 
L 125.392608 287.805369 
L 125.489698 287.695051 
L 125.594209 287.53459 
L 125.691299 287.424272 
L 125.798903 287.223695 
L 125.910216 287.113378 
L 126.005451 287.023118 
L 126.074095 286.912801 
L 126.182935 286.712224 
L 126.25096 286.601906 
L 126.354852 286.48156 
L 126.416075 286.371243 
L 126.521204 286.150608 
L 126.625097 286.040291 
L 126.735792 285.8698 
L 126.805054 285.759483 
L 126.905855 285.599021 
L 127.035102 285.488704 
L 127.122298 285.388415 
L 127.275045 285.278098 
L 127.365333 285.127665 
L 127.472936 285.017348 
L 127.578066 284.826799 
L 127.6968 284.716482 
L 127.792654 284.586107 
L 127.92994 284.475789 
L 128.023939 284.395559 
L 128.134015 284.285241 
L 128.236053 284.12478 
L 128.244092 284.12478 
L 128.363445 284.014462 
L 128.472285 283.823914 
L 128.600296 283.713597 
L 128.709754 283.583222 
L 128.789529 283.472904 
L 128.894659 283.262298 
L 129.031327 283.151981 
L 129.126562 283.07175 
L 129.271888 282.961433 
L 129.35661 282.871173 
L 129.476582 282.760856 
L 129.583566 282.570307 
L 129.720853 282.45999 
L 129.830312 282.379759 
L 129.937915 282.269442 
L 130.036242 282.169153 
L 130.156831 282.058836 
L 130.267527 281.888345 
L 130.395537 281.788057 
L 130.504996 281.657682 
L 130.57735 281.547364 
L 130.683716 281.427018 
L 130.791319 281.316701 
L 130.900159 281.126153 
L 131.00467 281.015835 
L 131.102379 280.875431 
L 131.224824 280.765114 
L 131.329335 280.634739 
L 131.425189 280.524421 
L 131.535265 280.384018 
L 131.603909 280.2737 
L 131.689249 280.123267 
L 131.835812 280.01295 
L 131.943415 279.822402 
L 132.035558 279.712084 
L 132.14378 279.581709 
L 132.262514 279.471392 
L 132.369499 279.351046 
L 132.430103 279.240728 
L 132.52843 279.100324 
L 132.655823 278.990007 
L 132.75786 278.839574 
L 132.766518 278.839574 
L 132.83578 278.729257 
L 132.941528 278.608911 
L 133.061499 278.498593 
L 133.156734 278.34816 
L 133.225996 278.237843 
L 133.336691 278.077381 
L 133.440584 277.967064 
L 133.544476 277.806602 
L 133.632909 277.696285 
L 133.73371 277.56591 
L 133.847497 277.455592 
L 133.952626 277.315189 
L 134.057138 277.204871 
L 134.155465 277.034381 
L 134.271726 276.924063 
L 134.370671 276.713457 
L 134.516616 276.60314 
L 134.621745 276.422621 
L 134.741098 276.312303 
L 134.851793 276.212015 
L 134.9192 276.111726 
L 135.029895 275.951265 
L 135.090499 275.840947 
L 135.19501 275.73063 
L 135.37002 275.620312 
L 135.454124 275.530053 
L 135.558016 275.419735 
L 135.668093 275.229187 
L 135.775078 275.11887 
L 135.880826 274.948379 
L 135.987192 274.848091 
L 136.083046 274.697658 
L 136.199307 274.587341 
L 136.294542 274.456965 
L 136.404618 274.346648 
L 136.508511 274.206244 
L 136.572826 274.095927 
L 136.681666 273.905379 
L 136.783085 273.795061 
L 136.883267 273.614542 
L 136.978502 273.504224 
L 137.073737 273.353792 
L 137.191853 273.243474 
L 137.272865 273.10307 
L 137.39531 272.992753 
L 137.502295 272.852349 
L 137.619174 272.742032 
L 137.726159 272.571541 
L 137.783052 272.471253 
L 137.879524 272.300762 
L 137.959917 272.190445 
L 138.065665 272.029983 
L 138.155953 271.919666 
L 138.266648 271.749175 
L 138.372396 271.638858 
L 138.446605 271.548598 
L 138.549261 271.438281 
L 138.642641 271.327963 
L 138.742205 271.217646 
L 138.831874 271.127386 
L 138.896807 271.017069 
L 138.990187 270.906752 
L 139.119434 270.796434 
L 139.218998 270.585828 
L 139.344535 270.475511 
L 139.450902 270.315049 
L 139.539334 270.204732 
L 139.647556 270.104443 
L 139.711252 270.004155 
L 139.819473 269.803578 
L 139.905432 269.69326 
L 140.014272 269.52277 
L 140.095902 269.412452 
L 140.202269 269.231933 
L 140.350068 269.131645 
L 140.444067 268.951125 
L 140.553525 268.840808 
L 140.656181 268.700404 
L 140.774915 268.590087 
L 140.876335 268.449683 
L 140.989503 268.339365 
L 141.097107 268.188932 
L 141.231301 268.088644 
L 141.319115 267.958269 
L 141.436613 267.85798 
L 141.510204 267.757692 
L 141.607913 267.647374 
L 141.703766 267.516999 
L 141.84229 267.416711 
L 141.91588 267.236191 
L 142.006168 267.125874 
L 142.097693 266.98547 
L 142.189217 266.875153 
L 142.289399 266.734749 
L 142.379687 266.624431 
L 142.48729 266.504085 
L 142.556552 266.393768 
L 142.659826 266.253364 
L 142.751969 266.143046 
L 142.858954 265.982585 
L 143.014793 265.882296 
L 143.123015 265.741892 
L 143.192277 265.631575 
L 143.297406 265.531286 
L 143.382128 265.420969 
L 143.49035 265.260507 
L 143.551572 265.15019 
L 143.651755 264.999757 
L 143.75441 264.88944 
L 143.841606 264.769094 
L 144.009813 264.668805 
L 144.120509 264.518372 
L 144.235533 264.418084 
L 144.342518 264.207478 
L 144.458778 264.09716 
L 144.561434 263.886555 
L 144.667801 263.776237 
L 144.769838 263.605747 
L 144.92444 263.495429 
L 145.025241 263.385112 
L 145.156344 263.274795 
L 145.257145 263.124362 
L 145.330117 263.014044 
L 145.421023 262.913756 
L 145.529245 262.803438 
L 145.626335 262.713179 
L 145.632519 262.713179 
L 145.719715 262.602861 
L 145.827936 262.512602 
L 145.931829 262.402284 
L 146.035722 262.201707 
L 146.108694 262.09139 
L 146.215679 261.971044 
L 146.281848 261.860726 
L 146.364715 261.780495 
L 146.504476 261.670178 
L 146.609605 261.539803 
L 146.708551 261.429486 
L 146.811207 261.279053 
L 146.933652 261.168735 
L 147.038163 261.028332 
L 147.164937 260.918014 
L 147.270066 260.77761 
L 147.427142 260.667293 
L 147.529798 260.526889 
L 147.62627 260.416571 
L 147.733873 260.236052 
L 147.79324 260.125735 
L 147.902699 259.965273 
L 148.066577 259.854956 
L 148.151299 259.754667 
L 148.253955 259.64435 
L 148.361558 259.423715 
L 148.440715 259.313398 
L 148.533476 259.172994 
L 148.650974 259.062676 
L 148.756103 258.922272 
L 148.844536 258.811955 
L 148.95152 258.621407 
L 149.112925 258.511089 
L 149.214344 258.370686 
L 149.311435 258.260368 
L 149.415946 258.109935 
L 149.509325 257.999618 
L 149.60085 257.839156 
L 149.716492 257.728839 
L 149.817912 257.508204 
L 149.999105 257.397887 
L 150.105472 257.207339 
L 150.220496 257.097021 
L 150.321915 256.906473 
L 150.461057 256.796156 
L 150.571134 256.625665 
L 150.674408 256.515348 
L 150.78263 256.374944 
L 150.890851 256.264626 
L 150.989178 256.104165 
L 151.099255 255.993847 
L 151.207477 255.873501 
L 151.308896 255.763184 
L 151.417736 255.612751 
L 151.525957 255.502434 
L 151.626758 255.402145 
L 151.727559 255.291828 
L 151.807952 255.211597 
L 151.918647 255.101279 
L 152.020685 254.880645 
L 152.123959 254.770327 
L 152.230325 254.629923 
L 152.341021 254.519606 
L 152.444913 254.429346 
L 152.548188 254.329058 
L 152.656409 254.21874 
L 152.785657 254.108423 
L 152.882747 253.998106 
L 152.977364 253.887788 
L 153.073217 253.717298 
L 153.23524 253.60698 
L 153.344699 253.426461 
L 153.518472 253.316144 
L 153.600102 253.225884 
L 153.744809 253.115567 
L 153.825202 252.985192 
L 153.979805 252.874874 
L 154.086789 252.73447 
L 154.206142 252.624153 
L 154.316219 252.513835 
L 154.452888 252.403518 
L 154.536373 252.283172 
L 154.656344 252.172854 
L 154.760855 251.992335 
L 154.932773 251.882018 
L 155.024298 251.791758 
L 155.121388 251.681441 
L 155.227136 251.551066 
L 155.296398 251.440748 
L 155.405238 251.300344 
L 155.510986 251.190027 
L 155.615497 251.019536 
L 155.719389 250.909219 
L 155.804111 250.80893 
L 155.940161 250.698613 
L 156.027357 250.508065 
L 156.138671 250.397747 
L 156.248129 250.317517 
L 156.317391 250.207199 
L 156.426849 250.096882 
L 156.493638 249.986565 
L 156.588873 249.866218 
L 156.696476 249.755901 
L 156.802224 249.615497 
L 156.805934 249.615497 
L 156.99022 249.50518 
L 157.094731 249.41492 
L 157.236347 249.304603 
L 157.345187 249.104025 
L 157.494224 248.993708 
L 157.590077 248.833246 
L 157.72118 248.722929 
L 157.825072 248.592554 
L 157.985859 248.482237 
L 158.087278 248.391977 
L 158.209104 248.28166 
L 158.314852 248.111169 
L 158.448429 248.000852 
L 158.551703 247.910592 
L 158.659306 247.800275 
L 158.766291 247.689957 
L 158.886881 247.57964 
L 158.996958 247.469322 
L 159.113837 247.359005 
L 159.209072 247.22863 
L 159.358109 247.118313 
L 159.468185 246.897678 
L 159.572696 246.78736 
L 159.665458 246.677043 
L 159.821915 246.566726 
L 159.932611 246.396235 
L 160.009293 246.285918 
L 160.111949 246.165572 
L 160.217697 246.055254 
L 160.324682 245.894793 
L 160.453311 245.784475 
L 160.561533 245.664129 
L 160.641307 245.553812 
L 160.740871 245.373292 
L 160.863935 245.262975 
L 160.950512 245.172715 
L 161.085325 245.072427 
L 161.191073 244.962109 
L 161.267756 244.851792 
L 161.375359 244.69133 
L 161.468739 244.581013 
L 161.574487 244.470695 
L 161.75197 244.360378 
L 161.823087 244.290176 
L 161.955427 244.179859 
L 162.060556 243.999339 
L 162.155791 243.889022 
L 162.258447 243.738589 
L 162.379037 243.628272 
L 162.486022 243.477839 
L 162.611559 243.367522 
L 162.71607 243.257204 
L 162.865725 243.146887 
L 162.959723 243.036569 
L 163.089589 242.926252 
L 163.198429 242.785848 
L 163.327676 242.675531 
L 163.433424 242.555185 
L 163.607816 242.444867 
L 163.69563 242.294434 
L 163.855798 242.184117 
L 163.965875 242.033684 
L 164.045031 241.923367 
L 164.139648 241.792992 
L 164.248488 241.682674 
L 164.348051 241.502155 
L 164.52739 241.391838 
L 164.638085 241.191261 
L 164.792688 241.080943 
L 164.903383 240.950568 
L 164.997381 240.840251 
L 165.090761 240.719904 
L 165.236705 240.609587 
L 165.32823 240.449125 
L 165.488398 240.338808 
L 165.558896 240.258577 
L 165.71288 240.14826 
L 165.819865 240.017885 
L 165.918192 239.907567 
L 166.001059 239.827337 
L 166.147622 239.717019 
L 166.254607 239.576615 
L 166.403643 239.466298 
L 166.49826 239.225605 
L 166.636165 239.115288 
L 166.746242 238.944798 
L 166.866832 238.83448 
L 166.960211 238.74422 
L 167.067815 238.633903 
L 167.171707 238.533615 
L 167.377638 238.423297 
L 167.480912 238.202662 
L 167.621909 238.092345 
L 167.701065 237.941912 
L 167.853813 237.831595 
L 167.947192 237.741335 
L 168.036243 237.631018 
L 168.125294 237.5207 
L 168.289173 237.410383 
L 168.398013 237.269979 
L 168.471603 237.159662 
L 168.541483 237.049344 
L 168.686191 236.939027 
L 168.788847 236.848767 
L 168.872332 236.73845 
L 168.957673 236.577988 
L 169.07517 236.467671 
L 169.154945 236.38744 
L 169.282956 236.277123 
L 169.387467 236.186863 
L 169.514859 236.076546 
L 169.616278 235.956199 
L 169.760368 235.845882 
L 169.866116 235.625247 
L 169.993508 235.51493 
L 170.104203 235.374526 
L 170.168518 235.264209 
L 170.277976 235.16392 
L 170.357133 235.053603 
L 170.462262 234.933256 
L 170.598312 234.822939 
L 170.707152 234.702593 
L 170.866702 234.592275 
L 170.974923 234.451871 
L 171.119012 234.341554 
L 171.222287 234.161035 
L 171.349061 234.050717 
L 171.455427 233.900285 
L 171.525926 233.789967 
L 171.635384 233.609448 
L 171.725053 233.509159 
L 171.818433 233.348698 
L 172.008285 233.23838 
L 172.115888 233.087947 
L 172.248846 232.97763 
L 172.349028 232.847255 
L 172.481986 232.736938 
L 172.582787 232.586505 
L 172.708942 232.476187 
L 172.81098 232.395957 
L 172.918583 232.285639 
L 173.019384 232.175322 
L 173.143065 232.065004 
L 173.227169 231.924601 
L 173.417021 231.814283 
L 173.511019 231.673879 
L 173.628517 231.563562 
L 173.737975 231.453244 
L 173.865986 231.342927 
L 173.967405 231.222581 
L 174.047798 231.112263 
L 174.151072 230.991917 
L 174.291451 230.8816 
L 174.360095 230.821427 
L 174.567262 230.711109 
L 174.668062 230.590763 
L 174.775665 230.480446 
L 174.883887 230.340042 
L 174.992109 230.229724 
L 175.086107 230.079292 
L 175.203605 229.968974 
L 175.295747 229.818541 
L 175.390364 229.708224 
L 175.484981 229.627993 
L 175.600623 229.517676 
L 175.680398 229.427416 
L 175.862829 229.317099 
L 175.973524 229.186724 
L 176.097206 229.076406 
L 176.199243 228.936002 
L 176.333438 228.825685 
L 176.424962 228.715368 
L 176.59688 228.60505 
L 176.698299 228.464646 
L 176.770035 228.354329 
L 176.872691 228.233983 
L 177.005649 228.123665 
L 177.088515 227.983261 
L 177.093463 227.983261 
L 177.240644 227.872944 
L 177.339589 227.762627 
L 177.522639 227.652309 
L 177.63086 227.451732 
L 177.766292 227.341415 
L 177.852251 227.180953 
L 177.985209 227.070636 
L 178.082917 227.000434 
L 178.207217 226.890116 
L 178.317294 226.779799 
L 178.452107 226.67951 
L 178.548579 226.579222 
L 178.685248 226.478933 
L 178.794088 226.338529 
L 178.889323 226.228212 
L 178.998163 226.037664 
L 179.090924 225.927347 
L 179.201001 225.796971 
L 179.275828 225.686654 
L 179.383432 225.566308 
L 179.522574 225.45599 
L 179.606677 225.275471 
L 179.769319 225.165154 
L 179.880014 225.094952 
L 180.003696 224.984634 
L 180.113773 224.84423 
L 180.180561 224.733913 
L 180.288782 224.643653 
L 180.358663 224.533336 
L 180.449569 224.423019 
L 180.575724 224.312701 
L 180.682709 224.172297 
L 180.820614 224.06198 
L 180.928836 223.851374 
L 181.10199 223.741057 
L 181.209594 223.650797 
L 181.302355 223.54048 
L 181.408103 223.339902 
L 181.547245 223.229585 
L 181.657322 223.119268 
L 181.730294 223.00895 
L 181.837897 222.898633 
L 181.917672 222.788316 
L 182.028367 222.547623 
L 182.128549 222.437306 
L 182.238626 222.326988 
L 182.418583 222.216671 
L 182.526186 222.106354 
L 182.68017 221.996036 
L 182.784063 221.825546 
L 182.907745 221.715228 
L 183.017203 221.554767 
L 183.147069 221.444449 
L 183.240449 221.334132 
L 183.460603 221.223815 
L 183.557693 221.163641 
L 183.693124 221.053324 
L 183.799491 220.872805 
L 183.936159 220.762487 
L 184.043144 220.612055 
L 184.130958 220.501737 
L 184.234232 220.411477 
L 184.361625 220.30116 
L 184.451912 220.110612 
L 184.621975 220.000294 
L 184.719684 219.900006 
L 184.821103 219.789689 
L 184.926851 219.649285 
L 185.017757 219.538967 
L 185.126597 219.378506 
L 185.262028 219.268188 
L 185.361592 219.177929 
L 185.516194 219.067611 
L 185.623798 218.947265 
L 185.770361 218.836948 
L 185.879819 218.646399 
L 185.973817 218.536082 
L 186.068434 218.385649 
L 186.219326 218.275332 
L 186.3226 218.144957 
L 186.487097 218.034639 
L 186.581713 217.844091 
L 186.686224 217.733774 
L 186.790117 217.603399 
L 186.898339 217.493081 
L 186.999758 217.352677 
L 187.141992 217.24236 
L 187.229806 217.101956 
L 187.377606 216.991639 
L 187.46913 216.931466 
L 187.637338 216.821148 
L 187.728244 216.750946 
L 187.888412 216.640629 
L 187.983028 216.560398 
L 188.073316 216.450081 
L 188.15742 216.27959 
L 188.322535 216.169273 
L 188.422717 216.068984 
L 188.575464 215.958667 
L 188.683686 215.818263 
L 188.799328 215.707945 
L 188.887142 215.617686 
L 188.994746 215.517397 
L 189.104822 215.387022 
L 189.219228 215.276705 
L 189.313845 215.096185 
L 189.408461 214.985868 
L 189.513591 214.855493 
L 189.692311 214.745176 
L 189.787546 214.594743 
L 189.79002 214.594743 
L 189.900096 214.484425 
L 189.998423 214.303906 
L 190.085001 214.193589 
L 190.178999 214.083271 
L 190.311957 213.972954 
L 190.413376 213.772377 
L 190.55561 213.662059 
L 190.666305 213.48154 
L 190.767106 213.371223 
L 190.870999 213.22079 
L 190.991588 213.110473 
L 191.094244 212.909896 
L 191.192571 212.799578 
L 191.298319 212.659174 
L 191.299556 212.659174 
L 191.35645 212.548857 
L 191.454158 212.448568 
L 191.514763 212.338251 
L 191.621129 212.237962 
L 191.742955 212.127645 
L 191.847467 212.007299 
L 192.156671 211.896981 
L 192.264893 211.756577 
L 192.430008 211.64626 
L 192.536993 211.566029 
L 192.658819 211.455712 
L 192.769515 211.305279 
L 192.91917 211.194962 
L 193.029246 211.044529 
L 193.112732 210.934212 
L 193.19127 210.884067 
L 193.314333 210.77375 
L 193.40895 210.703548 
L 193.527066 210.593231 
L 193.630958 210.502971 
L 193.733614 210.402682 
L 193.834415 210.282336 
L 193.961189 210.172019 
L 194.047148 210.111846 
L 194.202368 210.001528 
L 194.308116 209.891211 
L 194.387891 209.780893 
L 194.493639 209.650518 
L 194.59815 209.55023 
L 194.708845 209.439912 
L 194.76945 209.329595 
L 194.856027 209.259393 
L 194.8585 209.259393 
L 195.095351 209.149076 
L 195.201099 209.048787 
L 195.334675 208.93847 
L 195.428674 208.84821 
L 195.572145 208.737893 
L 195.672945 208.667691 
L 195.676656 208.667691 
L 195.837442 208.557373 
L 195.914743 208.517258 
L 195.99761 208.406941 
L 196.092845 208.266537 
L 196.187462 208.156219 
L 196.292591 208.005786 
L 196.405142 207.895469 
L 196.509034 207.735007 
L 196.605506 207.62469 
L 196.715583 207.554488 
L 196.832462 207.444171 
L 196.936973 207.323824 
L 197.048287 207.213507 
L 197.154653 207.063074 
L 197.242467 206.952757 
L 197.346979 206.852468 
L 197.469424 206.742151 
L 197.577645 206.641863 
L 197.673499 206.531545 
L 197.778628 206.411199 
L 197.865824 206.31091 
L 197.965388 206.180535 
L 198.100201 206.070218 
L 198.209041 205.919785 
L 198.307986 205.809468 
L 198.408169 205.689121 
L 198.531232 205.578804 
L 198.641927 205.448429 
L 198.817555 205.338112 
L 198.917119 205.197708 
L 199.106352 205.08739 
L 199.186127 205.007159 
L 199.411847 204.896842 
L 199.515739 204.776496 
L 199.610356 204.666178 
L 199.720433 204.535803 
L 199.782892 204.425486 
L 199.892969 204.285082 
L 200.058084 204.174765 
L 200.166306 204.014303 
L 200.319671 203.903986 
L 200.417998 203.833784 
L 200.509523 203.723466 
L 200.607231 203.623178 
L 200.761834 203.51286 
L 200.8682 203.352399 
L 201.073512 203.242081 
L 201.169365 203.151822 
L 201.306034 203.041504 
L 201.405597 202.931187 
L 201.544739 202.82087 
L 201.648014 202.670437 
L 201.806327 202.560119 
L 201.886101 202.46986 
L 201.891667 202.46986 
L 201.998652 202.359542 
L 202.109347 202.269283 
L 202.224371 202.158965 
L 202.332593 202.018561 
L 202.489669 201.908244 
L 202.594798 201.828013 
L 202.758058 201.717696 
L 202.855767 201.537176 
L 203.03325 201.426859 
L 203.127867 201.316542 
L 203.254641 201.206224 
L 203.362862 201.095907 
L 203.475413 200.985589 
L 203.571266 200.905359 
L 203.740092 200.795041 
L 203.840892 200.684724 
L 204.022705 200.574407 
L 204.129689 200.474118 
L 204.23049 200.363801 
L 204.331291 200.213368 
L 204.450644 200.10305 
L 204.539695 200.002762 
L 204.644824 199.892445 
L 204.750572 199.802185 
L 204.879201 199.691867 
L 204.989278 199.511348 
L 205.140788 199.401031 
L 205.235405 199.300742 
L 205.323219 199.190425 
L 205.410415 199.100165 
L 205.561925 198.989848 
L 205.646647 198.889559 
L 205.812381 198.779242 
L 205.916273 198.598723 
L 206.041192 198.488405 
L 206.151887 198.398145 
L 206.286082 198.287828 
L 206.342357 198.207597 
L 206.537774 198.09728 
L 206.639812 198.027078 
L 206.743086 197.916761 
L 206.830282 197.826501 
L 206.925517 197.716183 
L 207.015186 197.645981 
L 207.137013 197.535664 
L 207.244616 197.325058 
L 207.354693 197.214741 
L 207.461678 197.064308 
L 207.521663 196.953991 
L 207.593399 196.883789 
L 207.742435 196.773471 
L 207.83767 196.633067 
L 208.008351 196.52275 
L 208.118428 196.372317 
L 208.213045 196.262 
L 208.318174 196.121596 
L 208.452369 196.011278 
L 208.561209 195.880903 
L 208.663865 195.770586 
L 208.718903 195.65024 
L 208.996569 195.539922 
L 209.107264 195.379461 
L 209.180236 195.269143 
L 209.271143 195.148797 
L 209.464705 195.03848 
L 209.565505 194.888047 
L 209.684858 194.77773 
L 209.792461 194.59721 
L 209.888933 194.486893 
L 209.994681 194.366547 
L 210.09239 194.256229 
L 210.172165 194.145912 
L 210.308833 194.035594 
L 210.40716 193.845046 
L 210.571657 193.734729 
L 210.677405 193.624412 
L 210.770785 193.514094 
L 210.877769 193.453921 
L 210.985991 193.343604 
L 211.096686 193.153055 
L 211.180171 193.042738 
L 211.272933 192.952478 
L 211.417641 192.842161 
L 211.518441 192.751901 
L 211.726227 192.641584 
L 211.836922 192.481122 
L 211.964933 192.370805 
L 212.075009 192.220372 
L 212.17581 192.110055 
L 212.276611 191.959622 
L 212.286505 191.959622 
L 212.404621 191.849305 
L 212.505422 191.759045 
L 212.585197 191.648727 
L 212.685379 191.508324 
L 212.845547 191.398006 
L 212.954387 191.317775 
L 213.082398 191.207458 
L 213.173304 191.087112 
L 213.359445 190.976794 
L 213.47014 190.796275 
L 213.59073 190.685958 
L 213.701425 190.545554 
L 213.859738 190.435236 
L 213.969196 190.31489 
L 214.0768 190.204573 
L 214.186258 189.993967 
L 214.3254 189.883649 
L 214.43424 189.783361 
L 214.537514 189.673043 
L 214.645736 189.572755 
L 214.746537 189.462438 
L 214.849811 189.241803 
L 214.946901 189.131485 
L 215.052031 188.971024 
L 215.175713 188.860706 
L 215.260435 188.750389 
L 215.384735 188.640072 
L 215.45647 188.539783 
L 215.703834 188.429466 
L 215.813911 188.339206 
L 215.962947 188.228889 
L 216.073024 188.118571 
L 216.206601 188.008254 
L 216.316059 187.907965 
L 216.401399 187.797648 
L 216.508384 187.687331 
L 216.615369 187.577013 
L 216.721735 187.496782 
L 216.875101 187.386465 
L 216.965388 187.205946 
L 216.969717 187.205946 
L 217.142253 187.095628 
L 217.241817 186.985311 
L 217.393946 186.874994 
L 217.481142 186.784734 
L 217.609152 186.674416 
L 217.705006 186.574128 
L 217.838582 186.463811 
L 217.927015 186.413666 
L 217.930107 186.413666 
L 218.067393 186.303349 
L 218.149023 186.223118 
L 218.151497 186.223118 
L 218.325888 186.112801 
L 218.412466 185.982426 
L 218.508938 185.872108 
L 218.614067 185.781849 
L 218.727854 185.671531 
L 218.832984 185.51107 
L 218.979547 185.400752 
L 219.079729 185.290435 
L 219.089624 185.290435 
L 219.16878 185.180117 
L 219.277002 185.019656 
L 219.39017 184.909338 
L 219.494063 184.819079 
L 219.683296 184.708761 
L 219.757505 184.638559 
L 219.891082 184.528242 
L 219.985698 184.427953 
L 220.059908 184.317636 
L 220.1638 184.187261 
L 220.329534 184.076944 
L 220.437137 183.966626 
L 220.54474 183.856309 
L 220.635028 183.776078 
L 220.784065 183.665761 
L 220.892286 183.505299 
L 221.005455 183.394982 
L 221.114913 183.32478 
L 221.262095 183.214462 
L 221.359185 183.154289 
L 221.521208 183.043972 
L 221.622627 182.933654 
L 221.756822 182.823337 
L 221.866899 182.723048 
L 221.974502 182.612731 
L 222.07654 182.512443 
L 222.190945 182.402125 
L 222.298548 182.321894 
L 222.400586 182.211577 
L 222.494584 182.091231 
L 222.623832 181.980913 
L 222.713501 181.860567 
L 222.882327 181.75025 
L 222.980654 181.639932 
L 223.145769 181.529615 
L 223.255846 181.359124 
L 223.339331 181.248807 
L 223.435803 181.148519 
L 223.632457 181.038201 
L 223.738205 180.937913 
L 223.901465 180.827595 
L 223.992371 180.707249 
L 224.137079 180.596932 
L 224.240353 180.506672 
L 224.373311 180.396355 
L 224.480296 180.255951 
L 224.642319 180.145633 
L 224.73508 180.045345 
L 224.838355 179.935027 
L 224.932971 179.784595 
L 225.094994 179.674277 
L 225.171059 179.594046 
L 225.308345 179.483729 
L 225.408528 179.38344 
L 225.596524 179.273123 
L 225.704127 179.172835 
L 225.842032 179.072546 
L 225.950872 178.892027 
L 226.044871 178.781709 
L 226.115369 178.711507 
L 226.263787 178.60119 
L 226.372009 178.470815 
L 226.480849 178.360497 
L 226.587834 178.179978 
L 226.708424 178.069661 
L 226.819119 177.979401 
L 226.915591 177.869084 
L 227.01701 177.758766 
L 227.14502 177.648449 
L 227.25015 177.487987 
L 227.412173 177.37767 
L 227.518539 177.257324 
L 227.632327 177.147006 
L 227.733127 177.036689 
L 227.861757 176.926372 
L 227.963176 176.785968 
L 228.111594 176.695708 
L 228.217342 176.595419 
L 228.328655 176.485102 
L 228.411522 176.384813 
L 228.58344 176.274496 
L 228.687333 176.134092 
L 228.764634 176.023775 
L 228.854303 175.903429 
L 229.011997 175.793111 
L 229.103522 175.722909 
L 229.211125 175.612592 
L 229.321202 175.482217 
L 229.405306 175.371899 
L 229.516001 175.251553 
L 229.634117 175.141236 
L 229.728734 175.061005 
L 229.962492 174.950687 
L 230.057109 174.870457 
L 230.207382 174.760139 
L 230.314985 174.609706 
L 230.516587 174.499389 
L 230.609967 174.379043 
L 230.801673 174.268725 
L 230.891343 174.13835 
L 231.0713 174.028033 
L 231.1721 173.8776 
L 231.322374 173.767283 
L 231.42874 173.626879 
L 231.606224 173.516562 
L 231.700222 173.436331 
L 231.878324 173.326013 
L 231.986545 173.205667 
L 232.113937 173.09535 
L 232.219685 172.975003 
L 232.326052 172.864686 
L 232.428708 172.694196 
L 232.566613 172.583878 
L 232.607428 172.553792 
L 232.911685 172.443474 
L 233.014341 172.313099 
L 233.206048 172.202782 
L 233.311177 172.04232 
L 233.489279 171.932003 
L 233.596882 171.78157 
L 233.694591 171.671253 
L 233.801576 171.570964 
L 233.881351 171.460647 
L 233.988335 171.3403 
L 234.126859 171.229983 
L 234.228896 171.109637 
L 234.39092 170.999319 
L 234.494812 170.828829 
L 234.611073 170.718512 
L 234.686519 170.668367 
L 234.782991 170.55805 
L 234.891213 170.427675 
L 235.039631 170.317357 
L 235.14476 170.237127 
L 235.301218 170.126809 
L 235.408203 169.996434 
L 235.469425 169.886117 
L 235.565279 169.775799 
L 235.741525 169.665482 
L 235.85222 169.545136 
L 236.001875 169.434818 
L 236.110097 169.33453 
L 236.20595 169.224213 
L 236.312317 169.123924 
L 236.45084 169.013607 
L 236.548549 168.913318 
L 236.703151 168.803001 
L 236.794057 168.692683 
L 236.907226 168.582366 
L 237.009264 168.512164 
L 237.085946 168.401847 
L 237.192313 168.261443 
L 237.273324 168.151125 
L 237.275798 168.131068 
L 237.561503 168.02075 
L 237.663541 167.960577 
L 237.779183 167.85026 
L 237.887405 167.729913 
L 238.037678 167.619596 
L 238.147755 167.439077 
L 238.299265 167.328759 
L 238.409342 167.128182 
L 238.526221 167.017865 
L 238.632588 166.867432 
L 238.774203 166.757115 
L 238.875622 166.666855 
L 239.014764 166.556538 
L 239.085881 166.466278 
L 239.199669 166.355961 
L 239.284391 166.315845 
L 239.406217 166.205528 
L 239.508873 166.105239 
L 239.661002 165.994922 
L 239.77046 165.844489 
L 239.913931 165.734172 
L 240.020916 165.66397 
L 240.188505 165.553652 
L 240.273845 165.433306 
L 240.447 165.322989 
L 240.553985 165.192614 
L 240.714771 165.082296 
L 240.813716 164.96195 
L 240.965227 164.851633 
L 241.071593 164.711229 
L 241.249695 164.600911 
L 241.352351 164.550767 
L 241.647332 164.44045 
L 241.740712 164.35019 
L 241.928708 164.239873 
L 242.028272 164.149613 
L 242.162467 164.039296 
L 242.270688 163.939007 
L 242.471053 163.82869 
L 242.576182 163.758488 
L 242.704193 163.64817 
L 242.808086 163.557911 
L 242.90765 163.447593 
L 243.018345 163.337276 
L 243.158724 163.226959 
L 243.255814 163.086555 
L 243.398666 162.976237 
L 243.505033 162.896006 
L 243.651596 162.785689 
L 243.747449 162.725516 
L 243.872368 162.615198 
L 243.983063 162.464766 
L 244.127152 162.354448 
L 244.22115 162.264189 
L 244.362766 162.153871 
L 244.471606 162.023496 
L 244.593433 161.913179 
L 244.693615 161.782804 
L 244.829665 161.672486 
L 244.918716 161.542111 
L 245.161751 161.431794 
L 245.263788 161.341534 
L 245.397983 161.231217 
L 245.508678 161.100842 
L 245.770265 160.990524 
L 245.875395 160.830063 
L 245.960117 160.719745 
L 246.068338 160.619457 
L 246.223559 160.509139 
L 246.334254 160.368735 
L 246.445568 160.258418 
L 246.521014 160.148101 
L 246.683037 160.037783 
L 246.773325 159.867293 
L 246.905046 159.756975 
L 246.994097 159.636629 
L 247.213632 159.526312 
L 247.323709 159.335764 
L 247.45172 159.225446 
L 247.536442 159.19536 
L 247.786279 159.085042 
L 247.831423 159.004811 
L 248.068273 158.894494 
L 248.161035 158.814263 
L 248.321821 158.703946 
L 248.427569 158.623715 
L 248.54754 158.513398 
L 248.617421 158.413109 
L 248.802943 158.302792 
L 248.908691 158.192474 
L 249.062675 158.082157 
L 249.153581 157.961811 
L 249.256856 157.851493 
L 249.353946 157.751205 
L 249.451036 157.640887 
L 249.560495 157.560657 
L 249.715097 157.450339 
L 249.81899 157.329993 
L 249.9705 157.219676 
L 250.078103 157.099329 
L 250.183232 156.989012 
L 250.272283 156.878695 
L 250.42132 156.768377 
L 250.520265 156.65806 
L 250.718775 156.547743 
L 250.825141 156.437425 
L 251.000151 156.327108 
L 251.096623 156.236848 
L 251.267922 156.126531 
L 251.374288 156.026242 
L 251.464576 155.915925 
L 251.557337 155.795579 
L 251.660612 155.685261 
L 251.765123 155.625088 
L 251.895607 155.514771 
L 252.002592 155.414482 
L 252.16276 155.304165 
L 252.254903 155.223934 
L 252.265416 155.223934 
L 252.447847 155.113617 
L 252.546792 154.983241 
L 252.668619 154.872924 
L 252.767564 154.762607 
L 252.878878 154.662318 
L 252.989573 154.511885 
L 253.165819 154.401568 
L 253.276515 154.321337 
L 253.385973 154.21102 
L 253.48059 154.150847 
L 253.585719 154.040529 
L 253.672915 153.940241 
L 253.880082 153.829923 
L 253.990159 153.689519 
L 254.131156 153.579202 
L 254.241851 153.438798 
L 254.444689 153.328481 
L 254.552911 153.238221 
L 254.715553 153.127904 
L 254.813261 153.037644 
L 254.930759 152.927327 
L 255.041454 152.756836 
L 255.228832 152.646519 
L 255.337054 152.476028 
L 255.445275 152.365711 
L 255.551642 152.215278 
L 255.721704 152.104961 
L 255.830544 152.004672 
L 256.015449 151.894355 
L 256.118723 151.784037 
L 256.288785 151.67372 
L 256.393915 151.553374 
L 256.479874 151.443056 
L 256.58624 151.302652 
L 256.776092 151.202364 
L 256.869472 151.132162 
L 256.99068 151.021845 
L 257.095191 150.821268 
L 257.244227 150.71095 
L 257.340699 150.650777 
L 257.458815 150.54046 
L 257.556524 150.400056 
L 257.777296 150.289738 
L 257.887373 150.139306 
L 258.041975 150.028988 
L 258.15267 149.908642 
L 258.301707 149.798325 
L 258.39385 149.718094 
L 258.541031 149.607776 
L 258.646779 149.507488 
L 258.824881 149.39717 
L 258.934339 149.286853 
L 259.109968 149.176536 
L 259.193453 149.056189 
L 259.324556 148.945872 
L 259.420409 148.855612 
L 259.597892 148.745295 
L 259.685706 148.624949 
L 259.803823 148.514631 
L 259.910807 148.374227 
L 260.100659 148.26391 
L 260.205789 148.193708 
L 260.335036 148.083391 
L 260.444494 147.993131 
L 260.548387 147.882814 
L 260.631254 147.802583 
L 260.800698 147.692265 
L 260.867486 147.602006 
L 261.106811 147.491688 
L 261.213795 147.341256 
L 261.317688 147.230938 
L 261.39066 147.110592 
L 261.551447 147.000275 
L 261.657813 146.910015 
L 261.764179 146.799698 
L 261.86498 146.649265 
L 261.997938 146.538947 
L 262.090081 146.448688 
L 262.177895 146.33837 
L 262.287353 146.258139 
L 262.350431 146.147822 
L 262.461126 146.047534 
L 262.575532 145.937216 
L 262.672622 145.836928 
L 262.675096 145.836928 
L 262.837119 145.72661 
L 262.944722 145.586206 
L 263.088812 145.475889 
L 263.19456 145.3756 
L 263.29165 145.265283 
L 263.390595 145.064706 
L 263.53654 144.954389 
L 263.639196 144.8541 
L 263.884704 144.743783 
L 263.970045 144.673581 
L 264.130213 144.563263 
L 264.2205 144.473004 
L 264.451167 144.362686 
L 264.542691 144.192196 
L 264.664518 144.081878 
L 264.765319 143.961532 
L 264.978051 143.851215 
L 265.077615 143.740897 
L 265.188311 143.63058 
L 265.292822 143.550349 
L 265.388057 143.440032 
L 265.488239 143.339743 
L 265.634183 143.229426 
L 265.738695 143.099051 
L 265.930401 142.988733 
L 266.037386 142.908503 
L 266.209304 142.798185 
L 266.308249 142.738012 
L 266.443063 142.627695 
L 266.503048 142.557493 
L 266.734333 142.447175 
L 266.830805 142.376973 
L 266.982315 142.266656 
L 267.0893 142.166368 
L 267.212982 142.05605 
L 267.321203 141.955762 
L 267.46653 141.845444 
L 267.554962 141.745156 
L 267.732445 141.634838 
L 267.836338 141.504463 
L 267.992177 141.394146 
L 268.097925 141.313915 
L 268.315605 141.203598 
L 268.41888 141.153453 
L 268.549982 141.043136 
L 268.642125 140.962905 
L 268.767044 140.852588 
L 268.852384 140.74227 
L 269.02492 140.631953 
L 269.135616 140.551722 
L 269.214154 140.441405 
L 269.317428 140.361174 
L 269.451004 140.250857 
L 269.548095 140.080366 
L 269.805353 139.970049 
L 269.905535 139.839674 
L 270.101571 139.729356 
L 270.212266 139.649125 
L 270.292659 139.538808 
L 270.402118 139.408433 
L 270.561049 139.298116 
L 270.658757 139.177769 
L 270.783676 139.067452 
L 270.890042 139.017308 
L 271.044645 138.90699 
L 271.148537 138.786644 
L 271.272219 138.676327 
L 271.381059 138.545952 
L 271.577095 138.435634 
L 271.678514 138.395519 
L 271.778078 138.285201 
L 271.883207 138.184913 
L 272.061928 138.074596 
L 272.168294 137.94422 
L 272.385355 137.833903 
L 272.454617 137.77373 
L 272.678481 137.663413 
L 272.78794 137.553095 
L 272.860912 137.442778 
L 272.968515 137.342489 
L 273.027264 137.232172 
L 273.124973 137.131883 
L 273.327192 137.021566 
L 273.426756 136.971422 
L 273.621555 136.861104 
L 273.72483 136.770845 
L 273.951786 136.660527 
L 274.051968 136.55021 
L 274.151532 136.439893 
L 274.24553 136.319546 
L 274.421158 136.209229 
L 274.528761 136.058796 
L 274.716139 135.948479 
L 274.807045 135.84819 
L 274.953608 135.737873 
L 275.063067 135.58744 
L 275.247971 135.487152 
L 275.335167 135.386863 
L 275.640661 135.276546 
L 275.736514 135.186286 
L 275.894827 135.075969 
L 275.985115 135.005767 
L 276.126112 134.895449 
L 276.23186 134.765074 
L 276.408725 134.654757 
L 276.486645 134.504324 
L 276.729061 134.394007 
L 276.824914 134.213487 
L 276.904689 134.10317 
L 277.002398 134.022939 
L 277.121132 133.912622 
L 277.219459 133.832391 
L 277.407456 133.722073 
L 277.518151 133.601727 
L 277.683266 133.49141 
L 277.780975 133.391121 
L 277.940524 133.280804 
L 278.020299 133.200573 
L 278.247874 133.090256 
L 278.35795 133.010025 
L 278.505132 132.909736 
L 278.613353 132.799419 
L 278.769192 132.689102 
L 278.878032 132.518611 
L 279.075923 132.408294 
L 279.175487 132.338092 
L 279.435837 132.227774 
L 279.528599 132.137515 
L 279.759265 132.027197 
L 279.846461 131.967024 
L 280.075891 131.856707 
L 280.137113 131.746389 
L 280.313978 131.636072 
L 280.417871 131.515726 
L 280.59721 131.405408 
L 280.704813 131.265004 
L 280.848902 131.154687 
L 280.945992 131.064427 
L 281.085753 130.974168 
L 281.129042 130.903966 
L 281.315801 130.793648 
L 281.417839 130.743504 
L 281.58048 130.633187 
L 281.686847 130.583042 
L 281.873606 130.472725 
L 281.968841 130.43261 
L 282.145706 130.322292 
L 282.254546 130.191917 
L 282.483976 130.0816 
L 282.593434 130.001369 
L 282.729484 129.891052 
L 282.83214 129.770705 
L 282.978703 129.660388 
L 283.086925 129.530013 
L 283.232251 129.419696 
L 283.315118 129.339465 
L 283.577941 129.229147 
L 283.684926 129.148917 
L 283.93229 129.038599 
L 284.039893 128.928282 
L 284.276744 128.817964 
L 284.332401 128.76782 
L 284.50741 128.657503 
L 284.611921 128.567243 
L 284.778892 128.456926 
L 284.813523 128.386724 
L 285.053466 128.276406 
L 285.162924 128.226262 
L 285.309487 128.115945 
L 285.413998 127.945454 
L 285.597666 127.835137 
L 285.703414 127.754906 
L 285.872239 127.644589 
L 285.982316 127.564358 
L 286.167839 127.45404 
L 286.269258 127.343723 
L 286.415202 127.243434 
L 286.50549 127.153175 
L 286.514766 127.153175 
L 286.720696 127.052886 
L 286.819024 126.972655 
L 286.99156 126.862338 
L 287.091742 126.782107 
L 287.218516 126.67179 
L 287.326737 126.561472 
L 287.511642 126.451155 
L 287.610587 126.380953 
L 287.803531 126.270636 
L 287.912989 126.180376 
L 288.013171 126.070059 
L 288.12263 125.869482 
L 288.353296 125.759164 
L 288.448531 125.658876 
L 288.685382 125.548558 
L 288.780617 125.398126 
L 288.997679 125.287808 
L 289.023033 125.237664 
L 289.339041 125.127347 
L 289.433039 125.037087 
L 289.560431 124.926769 
L 289.662468 124.806423 
L 289.937042 124.696106 
L 290.044645 124.605846 
L 290.185024 124.505558 
L 290.287062 124.415298 
L 290.418783 124.304981 
L 290.522057 124.214721 
L 290.650068 124.104404 
L 290.741592 123.974028 
L 290.99143 123.863711 
L 291.092849 123.793509 
L 291.267858 123.683192 
L 291.353199 123.572874 
L 291.552945 123.462557 
L 291.661785 123.372297 
L 291.797835 123.26198 
L 291.846071 123.201807 
L 292.070553 123.091489 
L 292.16517 122.971143 
L 292.393981 122.860826 
L 292.496637 122.720422 
L 292.688963 122.610104 
L 292.781105 122.459672 
L 292.932616 122.349354 
L 293.037127 122.249066 
L 293.202242 122.138748 
L 293.311082 122.03846 
L 293.449606 121.928142 
L 293.548551 121.867969 
L 293.703772 121.757652 
L 293.804573 121.647335 
L 293.94557 121.537017 
L 294.042042 121.466815 
L 294.184276 121.356498 
L 294.294353 121.266238 
L 294.390206 121.155921 
L 294.474928 121.07569 
L 294.72662 120.965373 
L 294.830513 120.925257 
L 294.92884 120.81494 
L 295.037062 120.754767 
L 295.171875 120.644449 
L 295.271439 120.564218 
L 295.507671 120.453901 
L 295.612801 120.343584 
L 295.781008 120.233266 
L 295.889848 120.153036 
L 295.97828 120.042718 
L 296.06795 119.912343 
L 296.247907 119.802026 
L 296.337576 119.691708 
L 296.58865 119.581391 
L 296.699345 119.471074 
L 296.907131 119.360756 
L 297.017208 119.280525 
L 297.275084 119.170208 
L 297.383306 119.049862 
L 297.628196 118.939544 
L 297.727141 118.819198 
L 297.845876 118.708881 
L 297.955953 118.62865 
L 298.116739 118.528361 
L 298.208882 118.458159 
L 298.490258 118.347842 
L 298.591677 118.287669 
L 298.852646 118.177352 
L 298.941697 118.067034 
L 299.153811 117.956717 
L 299.255849 117.846399 
L 299.260796 117.846399 
L 299.577421 117.736082 
L 299.68688 117.645822 
L 299.85385 117.535505 
L 299.961453 117.435216 
L 300.18037 117.324899 
L 300.2855 117.244668 
L 300.366511 117.134351 
L 300.469167 116.983918 
L 300.738175 116.873601 
L 300.845778 116.79337 
L 301.043669 116.683052 
L 301.135812 116.61285 
L 301.315151 116.502533 
L 301.425228 116.44236 
L 301.631776 116.332043 
L 301.738143 116.171581 
L 301.831522 116.061264 
L 301.940981 115.971004 
L 302.071465 115.860686 
L 302.180924 115.750369 
L 302.347276 115.640052 
L 302.444984 115.579879 
L 302.673796 115.469561 
L 302.771504 115.329157 
L 302.940948 115.21884 
L 303.039894 115.138609 
L 303.166668 115.028292 
L 303.269324 114.948061 
L 303.493806 114.837744 
L 303.596462 114.727426 
L 303.794971 114.617109 
L 303.882785 114.506791 
L 304.012033 114.396474 
L 304.117162 114.286157 
L 304.358342 114.175839 
L 304.459761 114.065522 
L 304.697849 113.955204 
L 304.803597 113.895031 
L 304.974896 113.784714 
L 305.060855 113.724541 
L 305.232154 113.614223 
L 305.340994 113.523964 
L 305.527754 113.413646 
L 305.615568 113.323387 
L 305.772644 113.213069 
L 305.879628 113.12281 
L 306.05773 113.012492 
L 306.148018 112.912204 
L 306.266134 112.801886 
L 306.3725 112.701598 
L 306.675521 112.59128 
L 306.759006 112.531107 
L 306.941437 112.42079 
L 307.039764 112.320501 
L 307.21601 112.210184 
L 307.305061 112.129953 
L 307.58149 112.019636 
L 307.686001 111.959463 
L 307.772579 111.849145 
L 307.868432 111.738828 
L 308.112085 111.628511 
L 308.199281 111.54828 
L 308.348317 111.437962 
L 308.457776 111.337674 
L 308.595681 111.227356 
L 308.692771 111.10701 
L 308.932714 110.996693 
L 309.038462 110.906433 
L 309.218419 110.796116 
L 309.32293 110.725914 
L 309.532571 110.615596 
L 309.609872 110.49525 
L 309.841775 110.384933 
L 309.94505 110.32476 
L 310.145414 110.214442 
L 310.254254 110.114154 
L 310.440395 110.003836 
L 310.551091 109.923606 
L 310.755784 109.813288 
L 310.85844 109.733057 
L 311.087251 109.632769 
L 311.196091 109.472307 
L 311.30926 109.36199 
L 311.409442 109.291788 
L 311.611662 109.181471 
L 311.715555 109.10124 
L 311.869539 108.990922 
L 311.968484 108.890634 
L 312.20348 108.780316 
L 312.28882 108.690057 
L 312.416831 108.579739 
L 312.523816 108.519566 
L 312.699444 108.419278 
L 312.802718 108.258816 
L 312.937531 108.148499 
L 313.032148 108.088326 
L 313.243025 107.978008 
L 313.344444 107.907806 
L 313.521928 107.797489 
L 313.593045 107.757373 
L 313.75816 107.647056 
L 313.837316 107.586883 
L 313.977077 107.476566 
L 314.074167 107.356219 
L 314.233098 107.245902 
L 314.31782 107.1757 
L 314.469331 107.075411 
L 314.542921 106.955065 
L 314.763075 106.844748 
L 314.833573 106.794604 
L 314.839758 106.794604 
L 315.054346 106.684286 
L 315.140304 106.614084 
L 315.32459 106.503767 
L 315.422917 106.433565 
L 315.57752 106.323247 
L 315.685123 106.232988 
L 315.872501 106.12267 
L 315.976393 106.022382 
L 316.246638 105.912064 
L 316.349913 105.86192 
L 316.35486 105.86192 
L 316.508225 105.751603 
L 316.615828 105.711487 
L 316.730853 105.60117 
L 316.839693 105.470795 
L 316.94173 105.360478 
L 317.048096 105.270218 
L 317.192804 105.159901 
L 317.297934 105.059612 
L 317.502627 104.949295 
L 317.613322 104.859035 
L 317.862541 104.748718 
L 317.972618 104.678516 
L 318.18164 104.568198 
L 318.292335 104.46791 
L 318.380768 104.357592 
L 318.476003 104.247275 
L 318.751813 104.136958 
L 318.85818 104.006582 
L 318.861272 104.006582 
L 318.970112 103.896265 
L 319.072149 103.816034 
L 319.292921 103.705717 
L 319.396196 103.595399 
L 319.703545 103.485082 
L 319.809911 103.404851 
L 320.025736 103.294534 
L 320.116642 103.184216 
L 320.316388 103.073899 
L 320.420281 103.003697 
L 320.558805 102.89338 
L 320.649093 102.833207 
L 320.839563 102.722889 
L 320.949021 102.642658 
L 321.047348 102.532341 
L 321.138873 102.401966 
L 321.275541 102.291649 
L 321.381289 102.201389 
L 321.526615 102.111129 
L 321.631126 102.010841 
L 321.855609 101.900523 
L 321.924252 101.820293 
L 322.120906 101.709975 
L 322.210575 101.619715 
L 322.370125 101.509398 
L 322.460413 101.40911 
L 322.632949 101.298792 
L 322.740552 101.208532 
L 322.940298 101.108244 
L 323.023783 101.048071 
L 323.272384 100.937753 
L 323.362053 100.87758 
L 323.466564 100.767263 
L 323.566747 100.666974 
L 323.736809 100.556657 
L 323.843794 100.476426 
L 323.994686 100.366109 
L 324.085592 100.255791 
L 324.266167 100.145474 
L 324.34656 100.09533 
L 324.528991 99.985012 
L 324.635976 99.864666 
L 324.800473 99.754349 
L 324.91055 99.694176 
L 325.081849 99.593887 
L 325.129466 99.533714 
L 325.382396 99.423397 
L 325.493091 99.383281 
L 325.75406 99.272964 
L 325.857952 99.152618 
L 326.05708 99.0423 
L 326.162828 98.982127 
L 326.323614 98.87181 
L 326.432454 98.801608 
L 326.629108 98.69129 
L 326.729909 98.601031 
L 326.923471 98.490713 
L 327.034166 98.410483 
L 327.26978 98.300165 
L 327.361923 98.239992 
L 327.590735 98.129675 
L 327.698956 98.029386 
L 327.972911 97.919069 
L 328.082988 97.858896 
L 328.267274 97.748578 
L 328.374877 97.668347 
L 328.543084 97.55803 
L 328.632135 97.457742 
L 328.896814 97.347424 
L 329.003799 97.247136 
L 329.178191 97.136818 
L 329.202309 97.096703 
L 329.414423 96.986385 
L 329.5245 96.896126 
L 329.736614 96.785808 
L 329.810205 96.715606 
L 330.008096 96.605289 
L 330.116317 96.484943 
L 330.306787 96.374625 
L 330.367391 96.33451 
L 330.630215 96.224193 
L 330.737818 96.153991 
L 330.946841 96.043673 
L 331.038365 95.943385 
L 331.20348 95.833067 
L 331.305518 95.742808 
L 331.418687 95.63249 
L 331.519487 95.552259 
L 331.73222 95.441942 
L 331.831166 95.361711 
L 331.999373 95.251394 
L 332.0977 95.151105 
L 332.378458 95.040788 
L 332.477403 94.930471 
L 332.742701 94.820153 
L 332.821239 94.75998 
L 333.106944 94.649663 
L 333.217639 94.509259 
L 333.334518 94.398941 
L 333.405635 94.328739 
L 333.43099 94.328739 
L 333.597342 94.218422 
L 333.691959 94.138191 
L 333.928191 94.027874 
L 334.037649 93.937614 
L 334.184831 93.827297 
L 334.293671 93.727008 
L 334.533613 93.616691 
L 334.591125 93.556518 
L 334.868173 93.4462 
L 334.974539 93.36597 
L 335.120484 93.255652 
L 335.218192 93.175421 
L 335.435254 93.065104 
L 335.540383 93.01496 
L 335.77476 92.904642 
L 335.8836 92.794325 
L 336.053663 92.684008 
L 336.146424 92.603777 
L 336.408011 92.493459 
L 336.503246 92.393171 
L 336.692479 92.282853 
L 336.785241 92.212651 
L 336.98375 92.102334 
L 337.08084 91.981988 
L 337.275021 91.87167 
L 337.378914 91.741295 
L 337.548358 91.630978 
L 337.659053 91.490574 
L 337.848904 91.380257 
L 337.915693 91.279968 
L 338.049887 91.169651 
L 338.146978 91.099449 
L 338.292304 90.989131 
L 338.380118 90.908901 
L 338.513694 90.798583 
L 338.613876 90.728381 
L 338.833412 90.618064 
L 338.941633 90.527804 
L 339.091288 90.417487 
L 339.192089 90.327227 
L 339.35102 90.21691 
L 339.449966 90.116621 
L 339.681251 90.006304 
L 339.786998 89.855871 
L 339.929851 89.745554 
L 340.040546 89.655294 
L 340.269976 89.544977 
L 340.367066 89.414602 
L 340.537747 89.314313 
L 340.643495 89.193967 
L 340.859938 89.083649 
L 340.970633 88.953274 
L 341.173472 88.842957 
L 341.247681 88.772755 
L 341.264996 88.772755 
L 341.431967 88.662438 
L 341.536478 88.562149 
L 341.765289 88.451832 
L 341.864235 88.38163 
L 342.090572 88.271312 
L 342.178386 88.191081 
L 342.326805 88.080764 
L 342.435026 87.990504 
L 342.636628 87.880187 
L 342.722586 87.820014 
L 342.864821 87.709697 
L 342.96624 87.619437 
L 343.11775 87.509119 
L 343.222261 87.408831 
L 343.345324 87.298514 
L 343.427573 87.178167 
L 343.613714 87.06785 
L 343.699054 86.997648 
L 343.836341 86.887331 
L 343.942089 86.756956 
L 344.068863 86.646638 
L 344.1709 86.54635 
L 344.277267 86.436032 
L 344.366318 86.345773 
L 344.605024 86.235455 
L 344.694075 86.155224 
L 344.92536 86.044907 
L 345.00699 85.924561 
L 345.0342 85.924561 
L 345.187565 85.814243 
L 345.296405 85.693897 
L 345.428126 85.58358 
L 345.536966 85.503349 
L 345.68724 85.393032 
L 345.794843 85.342887 
L 345.914814 85.23257 
L 346.024273 85.152339 
L 346.264834 85.042022 
L 346.366253 84.941733 
L 346.543736 84.831416 
L 346.653813 84.751185 
L 346.815836 84.640868 
L 346.924058 84.590723 
L 346.987754 84.480406 
L 347.072476 84.400175 
L 347.282735 84.289858 
L 347.360036 84.239713 
L 347.38972 84.239713 
L 347.512783 84.129396 
L 347.618531 84.069223 
L 347.734174 83.958906 
L 347.84054 83.848588 
L 347.977827 83.738271 
L 348.078009 83.607896 
L 348.338978 83.497578 
L 348.449055 83.337117 
L 348.590052 83.226799 
L 348.695181 83.126511 
L 348.85102 83.016193 
L 348.961716 82.945991 
L 349.171356 82.835674 
L 349.265973 82.715328 
L 349.440983 82.60501 
L 349.551678 82.484664 
L 349.753898 82.374347 
L 349.859027 82.254001 
L 350.017958 82.143683 
L 350.128035 82.093539 
L 350.262848 81.983222 
L 350.367978 81.933077 
L 350.549172 81.82276 
L 350.62771 81.702414 
L 350.77551 81.592096 
L 350.875692 81.501837 
L 351.061215 81.391519 
L 351.166962 81.291231 
L 351.371037 81.180913 
L 351.468746 81.090654 
L 351.724149 80.980336 
L 351.834844 80.900105 
L 352.060564 80.789788 
L 352.171259 80.709557 
L 352.294322 80.59924 
L 352.40007 80.529038 
L 352.592395 80.418721 
L 352.686394 80.348519 
L 352.891705 80.238201 
L 352.999927 80.15797 
L 353.152674 80.047653 
L 353.248527 79.997509 
L 353.460642 79.887191 
L 353.534232 79.847076 
L 353.557732 79.847076 
L 353.719755 79.736759 
L 353.823648 79.676585 
L 354.019065 79.566268 
L 354.125432 79.425864 
L 354.274468 79.315547 
L 354.377742 79.245345 
L 354.547805 79.135027 
L 354.656645 79.074854 
L 354.821142 78.964537 
L 354.931837 78.914393 
L 355.150754 78.804075 
L 355.250936 78.693758 
L 355.458103 78.58344 
L 355.506957 78.533296 
L 355.739479 78.443037 
L 355.833477 78.312661 
L 355.987461 78.202344 
L 356.096301 78.122113 
L 356.257706 78.011796 
L 356.270074 77.991738 
L 356.294192 77.991738 
L 356.589792 77.881421 
L 356.697395 77.811219 
L 356.797577 77.700901 
L 356.903944 77.590584 
L 357.017731 77.480267 
L 357.118532 77.420094 
L 357.406092 77.309776 
L 357.501327 77.179401 
L 357.667679 77.069084 
L 357.766624 76.988853 
L 357.975647 76.878535 
L 358.057277 76.788276 
L 358.080158 76.788276 
L 358.294746 76.677958 
L 358.383796 76.597728 
L 358.579214 76.48741 
L 358.684962 76.427237 
L 358.881616 76.31692 
L 358.961391 76.206602 
L 359.152479 76.096285 
L 359.230399 76.036112 
L 359.551971 75.925794 
L 359.630509 75.855592 
L 359.798716 75.745275 
L 359.893333 75.634958 
L 360.167288 75.52464 
L 360.233458 75.424352 
L 360.421454 75.314034 
L 360.50865 75.243832 
L 360.686134 75.133515 
L 360.790645 75.073342 
L 360.957615 74.963025 
L 361.066455 74.832649 
L 361.206216 74.722332 
L 361.313819 74.601986 
L 361.542012 74.491668 
L 361.637865 74.401409 
L 361.819059 74.291091 
L 361.926044 74.190803 
L 362.110948 74.080486 
L 362.221025 73.990226 
L 362.418916 73.879908 
L 362.504875 73.77962 
L 362.72441 73.669303 
L 362.830776 73.508841 
L 363.000839 73.398524 
L 363.110297 73.288206 
L 363.265518 73.177889 
L 363.337872 73.097658 
L 363.353332 73.097658 
L 363.503605 72.987341 
L 363.608116 72.927167 
L 363.801678 72.81685 
L 363.911755 72.686475 
L 364.109646 72.576158 
L 364.218486 72.395638 
L 364.446679 72.285321 
L 364.548098 72.20509 
L 364.731147 72.094773 
L 364.835658 72.004513 
L 364.98655 71.894196 
L 365.096009 71.793907 
L 365.271637 71.68359 
L 365.374911 71.603359 
L 365.600631 71.50307 
L 365.710089 71.392753 
L 365.898704 71.282436 
L 366.007544 71.182147 
L 366.256763 71.07183 
L 366.342103 70.971541 
L 366.624098 70.861224 
L 366.727372 70.780993 
L 366.880119 70.670676 
L 366.982156 70.580416 
L 367.12068 70.470098 
L 367.231375 70.389868 
L 367.325373 70.27955 
L 367.431121 70.179262 
L 367.616644 70.068944 
L 367.7193 70.0188 
L 367.93327 69.908483 
L 368.011808 69.838281 
L 368.202278 69.727963 
L 368.283908 69.627675 
L 368.533745 69.517357 
L 368.627125 69.477242 
L 368.849752 69.366925 
L 368.90479 69.306752 
L 369.21214 69.196434 
L 369.30119 69.166348 
L 369.504647 69.066059 
L 369.59679 68.995857 
L 369.713051 68.88554 
L 369.807668 68.785251 
L 369.999374 68.674934 
L 370.089662 68.62479 
L 370.273948 68.524501 
L 370.367328 68.434241 
L 370.52564 68.323924 
L 370.636336 68.233664 
L 370.779188 68.133376 
L 370.889265 68.01303 
L 371.060564 67.902712 
L 371.140958 67.842539 
L 371.354309 67.732222 
L 371.456346 67.702135 
L 371.592396 67.591818 
L 371.68021 67.521616 
L 371.990652 67.411298 
L 372.058058 67.371183 
L 372.289343 67.260866 
L 372.388289 67.180635 
L 372.719138 67.070317 
L 372.806333 67.040231 
L 373.581818 66.96 
L 373.581818 66.96 
" clip-path="url(#p5ae3558d60)" style="fill: none; stroke: #1f77b4; stroke-width: 1.5; stroke-linecap: square"/>
   </g>
   <g id="line2d_26">
    <path d="M 69.218182 369.36 
L 373.581818 66.96 
" clip-path="url(#p5ae3558d60)" style="fill: none; stroke-dasharray: 5.55,2.4; stroke-dashoffset: 0; stroke: #808080; stroke-width: 1.5"/>
   </g>
   <g id="patch_3">
    <path d="M 54 384.48 
L 54 51.84 
" style="fill: none; stroke: #000000; stroke-width: 0.8; stroke-linejoin: miter; stroke-linecap: square"/>
   </g>
   <g id="patch_4">
    <path d="M 388.8 384.48 
L 388.8 51.84 
" style="fill: none; stroke: #000000; stroke-width: 0.8; stroke-linejoin: miter; stroke-linecap: square"/>
   </g>
   <g id="patch_5">
    <path d="M 54 384.48 
L 388.8 384.48 
" style="fill: none; stroke: #000000; stroke-width: 0.8; stroke-linejoin: miter; stroke-linecap: square"/>
   </g>
   <g id="patch_6">
    <path d="M 54 51.84 
L 388.8 51.84 
" style="fill: none; stroke: #000000; stroke-width: 0.8; stroke-linejoin: miter; stroke-linecap: square"/>
   </g>
   <g id="text_15">
    <!-- ROC Curve - Patient-Split -->
    <g transform="translate(146.371875 45.84) scale(0.12 -0.12)">
     <defs>
      <path id="DejaVuSans-4f" d="M 2522 4238 
Q 1834 4238 1429 3725 
Q 1025 3213 1025 2328 
Q 1025 1447 1429 934 
Q 1834 422 2522 422 
Q 3209 422 3611 934 
Q 4013 1447 4013 2328 
Q 4013 3213 3611 3725 
Q 3209 4238 2522 4238 
z
M 2522 4750 
Q 3503 4750 4090 4092 
Q 4678 3434 4678 2328 
Q 4678 1225 4090 567 
Q 3503 -91 2522 -91 
Q 1538 -91 948 565 
Q 359 1222 359 2328 
Q 359 3434 948 4092 
Q 1538 4750 2522 4750 
z
" transform="scale(0.015625)"/>
      <path id="DejaVuSans-43" d="M 4122 4306 
L 4122 3641 
Q 3803 3938 3442 4084 
Q 3081 4231 2675 4231 
Q 1875 4231 1450 3742 
Q 1025 3253 1025 2328 
Q 1025 1406 1450 917 
Q 1875 428 2675 428 
Q 3081 428 3442 575 
Q 3803 722 4122 1019 
L 4122 359 
Q 3791 134 3420 21 
Q 3050 -91 2638 -91 
Q 1578 -91 968 557 
Q 359 1206 359 2328 
Q 359 3453 968 4101 
Q 1578 4750 2638 4750 
Q 3056 4750 3426 4639 
Q 3797 4528 4122 4306 
z
" transform="scale(0.015625)"/>
      <path id="DejaVuSans-2d" d="M 313 2009 
L 1997 2009 
L 1997 1497 
L 313 1497 
L 313 2009 
z
" transform="scale(0.015625)"/>
      <path id="DejaVuSans-6e" d="M 3513 2113 
L 3513 0 
L 2938 0 
L 2938 2094 
Q 2938 2591 2744 2837 
Q 2550 3084 2163 3084 
Q 1697 3084 1428 2787 
Q 1159 2491 1159 1978 
L 1159 0 
L 581 0 
L 581 3500 
L 1159 3500 
L 1159 2956 
Q 1366 3272 1645 3428 
Q 1925 3584 2291 3584 
Q 2894 3584 3203 3211 
Q 3513 2838 3513 2113 
z
" transform="scale(0.015625)"/>
      <path id="DejaVuSans-53" d="M 3425 4513 
L 3425 3897 
Q 3066 4069 2747 4153 
Q 2428 4238 2131 4238 
Q 1616 4238 1336 4038 
Q 1056 3838 1056 3469 
Q 1056 3159 1242 3001 
Q 1428 2844 1947 2747 
L 2328 2669 
Q 3034 2534 3370 2195 
Q 3706 1856 3706 1288 
Q 3706 609 3251 259 
Q 2797 -91 1919 -91 
Q 1588 -91 1214 -16 
Q 841 59 441 206 
L 441 856 
Q 825 641 1194 531 
Q 1563 422 1919 422 
Q 2459 422 2753 634 
Q 3047 847 3047 1241 
Q 3047 1584 2836 1778 
Q 2625 1972 2144 2069 
L 1759 2144 
Q 1053 2284 737 2584 
Q 422 2884 422 3419 
Q 422 4038 858 4394 
Q 1294 4750 2059 4750 
Q 2388 4750 2728 4690 
Q 3069 4631 3425 4513 
z
" transform="scale(0.015625)"/>
      <path id="DejaVuSans-70" d="M 1159 525 
L 1159 -1331 
L 581 -1331 
L 581 3500 
L 1159 3500 
L 1159 2969 
Q 1341 3281 1617 3432 
Q 1894 3584 2278 3584 
Q 2916 3584 3314 3078 
Q 3713 2572 3713 1747 
Q 3713 922 3314 415 
Q 2916 -91 2278 -91 
Q 1894 -91 1617 61 
Q 1341 213 1159 525 
z
M 3116 1747 
Q 3116 2381 2855 2742 
Q 2594 3103 2138 3103 
Q 1681 3103 1420 2742 
Q 1159 2381 1159 1747 
Q 1159 1113 1420 752 
Q 1681 391 2138 391 
Q 2594 391 2855 752 
Q 3116 1113 3116 1747 
z
" transform="scale(0.015625)"/>
     </defs>
     <use xlink:href="#DejaVuSans-52"/>
     <use xlink:href="#DejaVuSans-4f" x="69.482422"/>
     <use xlink:href="#DejaVuSans-43" x="148.193359"/>
     <use xlink:href="#DejaVuSans-20" x="218.017578"/>
     <use xlink:href="#DejaVuSans-43" x="249.804688"/>
     <use xlink:href="#DejaVuSans-75" x="319.628906"/>
     <use xlink:href="#DejaVuSans-72" x="383.007812"/>
     <use xlink:href="#DejaVuSans-76" x="424.121094"/>
     <use xlink:href="#DejaVuSans-65" x="483.300781"/>
     <use xlink:href="#DejaVuSans-20" x="544.824219"/>
     <use xlink:href="#DejaVuSans-2d" x="576.611328"/>
     <use xlink:href="#DejaVuSans-20" x="612.695312"/>
     <use xlink:href="#DejaVuSans-50" x="644.482422"/>
     <use xlink:href="#DejaVuSans-61" x="700.285156"/>
     <use xlink:href="#DejaVuSans-74" x="761.564453"/>
     <use xlink:href="#DejaVuSans-69" x="800.773438"/>
     <use xlink:href="#DejaVuSans-65" x="828.556641"/>
     <use xlink:href="#DejaVuSans-6e" x="890.080078"/>
     <use xlink:href="#DejaVuSans-74" x="953.458984"/>
     <use xlink:href="#DejaVuSans-2d" x="992.667969"/>
     <use xlink:href="#DejaVuSans-53" x="1028.751953"/>
     <use xlink:href="#DejaVuSans-70" x="1092.228516"/>
     <use xlink:href="#DejaVuSans-6c" x="1155.705078"/>
     <use xlink:href="#DejaVuSans-69" x="1183.488281"/>
     <use xlink:href="#DejaVuSans-74" x="1211.271484"/>
    </g>
   </g>
   <g id="legend_1">
    <g id="patch_7">
     <path d="M 61 74.518125 
L 163.86875 74.518125 
Q 165.86875 74.518125 165.86875 72.518125 
L 165.86875 58.84 
Q 165.86875 56.84 163.86875 56.84 
L 61 56.84 
Q 59 56.84 59 58.84 
L 59 72.518125 
Q 59 74.518125 61 74.518125 
z
" style="fill: #ffffff; opacity: 0.8; stroke: #cccccc; stroke-linejoin: miter"/>
    </g>
    <g id="line2d_27">
     <path d="M 63 64.938438 
L 73 64.938438 
L 83 64.938438 
" style="fill: none; stroke: #1f77b4; stroke-width: 1.5; stroke-linecap: square"/>
    </g>
    <g id="text_16">
     <!-- AUC = 0.5781 -->
     <g transform="translate(91 68.438438) scale(0.1 -0.1)">
      <defs>
       <path id="DejaVuSans-41" d="M 2188 4044 
L 1331 1722 
L 3047 1722 
L 2188 4044 
z
M 1831 4666 
L 2547 4666 
L 4325 0 
L 3669 0 
L 3244 1197 
L 1141 1197 
L 716 0 
L 50 0 
L 1831 4666 
z
" transform="scale(0.015625)"/>
       <path id="DejaVuSans-55" d="M 556 4666 
L 1191 4666 
L 1191 1831 
Q 1191 1081 1462 751 
Q 1734 422 2344 422 
Q 2950 422 3222 751 
Q 3494 1081 3494 1831 
L 3494 4666 
L 4128 4666 
L 4128 1753 
Q 4128 841 3676 375 
Q 3225 -91 2344 -91 
Q 1459 -91 1007 375 
Q 556 841 556 1753 
L 556 4666 
z
" transform="scale(0.015625)"/>
       <path id="DejaVuSans-3d" d="M 678 2906 
L 4684 2906 
L 4684 2381 
L 678 2381 
L 678 2906 
z
M 678 1631 
L 4684 1631 
L 4684 1100 
L 678 1100 
L 678 1631 
z
" transform="scale(0.015625)"/>
       <path id="DejaVuSans-35" d="M 691 4666 
L 3169 4666 
L 3169 4134 
L 1269 4134 
L 1269 2991 
Q 1406 3038 1543 3061 
Q 1681 3084 1819 3084 
Q 2600 3084 3056 2656 
Q 3513 2228 3513 1497 
Q 3513 744 3044 326 
Q 2575 -91 1722 -91 
Q 1428 -91 1123 -41 
Q 819 9 494 109 
L 494 744 
Q 775 591 1075 516 
Q 1375 441 1709 441 
Q 2250 441 2565 725 
Q 2881 1009 2881 1497 
Q 2881 1984 2565 2268 
Q 2250 2553 1709 2553 
Q 1456 2553 1204 2497 
Q 953 2441 691 2322 
L 691 4666 
z
" transform="scale(0.015625)"/>
       <path id="DejaVuSans-37" d="M 525 4666 
L 3525 4666 
L 3525 4397 
L 1831 0 
L 1172 0 
L 2766 4134 
L 525 4134 
L 525 4666 
z
" transform="scale(0.015625)"/>
      </defs>
      <use xlink:href="#DejaVuSans-41"/>
      <use xlink:href="#DejaVuSans-55" x="68.408203"/>
      <use xlink:href="#DejaVuSans-43" x="141.601562"/>
      <use xlink:href="#DejaVuSans-20" x="211.425781"/>
      <use xlink:href="#DejaVuSans-3d" x="243.212891"/>
      <use xlink:href="#DejaVuSans-20" x="327.001953"/>
      <use xlink:href="#DejaVuSans-30" x="358.789062"/>
      <use xlink:href="#DejaVuSans-2e" x="422.412109"/>
      <use xlink:href="#DejaVuSans-35" x="454.199219"/>
      <use xlink:href="#DejaVuSans-37" x="517.822266"/>
      <use xlink:href="#DejaVuSans-38" x="581.445312"/>
      <use xlink:href="#DejaVuSans-31" x="645.068359"/>
     </g>
    </g>
   </g>
  </g>
 </g>
 <defs>
  <clipPath id="p5ae3558d60">
   <rect x="54" y="51.84" width="334.8" height="332.64"/>
  </clipPath>
 </defs>
</svg>
