<?xml version="1.0" encoding="utf-8" standalone="no"?>
<!DOCTYPE svg PUBLIC "-//W3C//DTD SVG 1.1//EN"
  "http://www.w3.org/Graphics/SVG/1.1/DTD/svg11.dtd">
<svg xmlns:xlink="http://www.w3.org/1999/xlink" width="432pt" height="432pt" viewBox="0 0 432 432" xmlns="http://www.w3.org/2000/svg" version="1.1">
 <metadata>
  <rdf:RDF xmlns:dc="http://purl.org/dc/elements/1.1/" xmlns:cc="http://creativecommons.org/ns#" xmlns:rdf="http://www.w3.org/1999/02/22-rdf-syntax-ns#">
   <cc:Work>
    <dc:type rdf:resource="http://purl.org/dc/dcmitype/StillImage"/>
    <dc:date>2025-07-01T11:18:59.055116</dc:date>
    <dc:format>image/svg+xml</dc:format>
    <dc:creator>
     <cc:Agent>
      <dc:title>Matplotlib v3.7.5, https://matplotlib.org/</dc:title>
     </cc:Agent>
    </dc:creator>
   </cc:Work>
  </rdf:RDF>
 </metadata>
 <defs>
  <style type="text/css">*{stroke-linejoin: round; stroke-linecap: butt}</style>
 </defs>
 <g id="figure_1">
  <g id="patch_1">
   <path d="M 0 432 
L 432 432 
L 432 0 
L 0 0 
z
" style="fill: #ffffff"/>
  </g>
  <g id="axes_1">
   <g id="patch_2">
    <path d="M 54 384.48 
L 388.8 384.48 
L 388.8 51.84 
L 54 51.84 
z
" style="fill: #ffffff"/>
   </g>
   <g id="matplotlib.axis_1">
    <g id="xtick_1">
     <g id="line2d_1">
      <path d="M 69.218182 384.48 
L 69.218182 51.84 
" clip-path="url(#p38ec056f83)" style="fill: none; stroke: #b0b0b0; stroke-width: 0.8; stroke-linecap: square"/>
     </g>
     <g id="line2d_2">
      <defs>
       <path id="me7d72891b5" d="M 0 0 
L 0 3.5 
" style="stroke: #000000; stroke-width: 0.8"/>
      </defs>
      <g>
       <use xlink:href="#me7d72891b5" x="69.218182" y="384.48" style="stroke: #000000; stroke-width: 0.8"/>
      </g>
     </g>
     <g id="text_1">
      <!-- 0.0 -->
      <g transform="translate(61.266619 399.078438) scale(0.1 -0.1)">
       <defs>
        <path id="DejaVuSans-30" d="M 2034 4250 
Q 1547 4250 1301 3770 
Q 1056 3291 1056 2328 
Q 1056 1369 1301 889 
Q 1547 409 2034 409 
Q 2525 409 2770 889 
Q 3016 1369 3016 2328 
Q 3016 3291 2770 3770 
Q 2525 4250 2034 4250 
z
M 2034 4750 
Q 2819 4750 3233 4129 
Q 3647 3509 3647 2328 
Q 3647 1150 3233 529 
Q 2819 -91 2034 -91 
Q 1250 -91 836 529 
Q 422 1150 422 2328 
Q 422 3509 836 4129 
Q 1250 4750 2034 4750 
z
" transform="scale(0.015625)"/>
        <path id="DejaVuSans-2e" d="M 684 794 
L 1344 794 
L 1344 0 
L 684 0 
L 684 794 
z
" transform="scale(0.015625)"/>
       </defs>
       <use xlink:href="#DejaVuSans-30"/>
       <use xlink:href="#DejaVuSans-2e" x="63.623047"/>
       <use xlink:href="#DejaVuSans-30" x="95.410156"/>
      </g>
     </g>
    </g>
    <g id="xtick_2">
     <g id="line2d_3">
      <path d="M 130.090909 384.48 
L 130.090909 51.84 
" clip-path="url(#p38ec056f83)" style="fill: none; stroke: #b0b0b0; stroke-width: 0.8; stroke-linecap: square"/>
     </g>
     <g id="line2d_4">
      <g>
       <use xlink:href="#me7d72891b5" x="130.090909" y="384.48" style="stroke: #000000; stroke-width: 0.8"/>
      </g>
     </g>
     <g id="text_2">
      <!-- 0.2 -->
      <g transform="translate(122.139347 399.078438) scale(0.1 -0.1)">
       <defs>
        <path id="DejaVuSans-32" d="M 1228 531 
L 3431 531 
L 3431 0 
L 469 0 
L 469 531 
Q 828 903 1448 1529 
Q 2069 2156 2228 2338 
Q 2531 2678 2651 2914 
Q 2772 3150 2772 3378 
Q 2772 3750 2511 3984 
Q 2250 4219 1831 4219 
Q 1534 4219 1204 4116 
Q 875 4013 500 3803 
L 500 4441 
Q 881 4594 1212 4672 
Q 1544 4750 1819 4750 
Q 2544 4750 2975 4387 
Q 3406 4025 3406 3419 
Q 3406 3131 3298 2873 
Q 3191 2616 2906 2266 
Q 2828 2175 2409 1742 
Q 1991 1309 1228 531 
z
" transform="scale(0.015625)"/>
       </defs>
       <use xlink:href="#DejaVuSans-30"/>
       <use xlink:href="#DejaVuSans-2e" x="63.623047"/>
       <use xlink:href="#DejaVuSans-32" x="95.410156"/>
      </g>
     </g>
    </g>
    <g id="xtick_3">
     <g id="line2d_5">
      <path d="M 190.963636 384.48 
L 190.963636 51.84 
" clip-path="url(#p38ec056f83)" style="fill: none; stroke: #b0b0b0; stroke-width: 0.8; stroke-linecap: square"/>
     </g>
     <g id="line2d_6">
      <g>
       <use xlink:href="#me7d72891b5" x="190.963636" y="384.48" style="stroke: #000000; stroke-width: 0.8"/>
      </g>
     </g>
     <g id="text_3">
      <!-- 0.4 -->
      <g transform="translate(183.012074 399.078438) scale(0.1 -0.1)">
       <defs>
        <path id="DejaVuSans-34" d="M 2419 4116 
L 825 1625 
L 2419 1625 
L 2419 4116 
z
M 2253 4666 
L 3047 4666 
L 3047 1625 
L 3713 1625 
L 3713 1100 
L 3047 1100 
L 3047 0 
L 2419 0 
L 2419 1100 
L 313 1100 
L 313 1709 
L 2253 4666 
z
" transform="scale(0.015625)"/>
       </defs>
       <use xlink:href="#DejaVuSans-30"/>
       <use xlink:href="#DejaVuSans-2e" x="63.623047"/>
       <use xlink:href="#DejaVuSans-34" x="95.410156"/>
      </g>
     </g>
    </g>
    <g id="xtick_4">
     <g id="line2d_7">
      <path d="M 251.836364 384.48 
L 251.836364 51.84 
" clip-path="url(#p38ec056f83)" style="fill: none; stroke: #b0b0b0; stroke-width: 0.8; stroke-linecap: square"/>
     </g>
     <g id="line2d_8">
      <g>
       <use xlink:href="#me7d72891b5" x="251.836364" y="384.48" style="stroke: #000000; stroke-width: 0.8"/>
      </g>
     </g>
     <g id="text_4">
      <!-- 0.6 -->
      <g transform="translate(243.884801 399.078438) scale(0.1 -0.1)">
       <defs>
        <path id="DejaVuSans-36" d="M 2113 2584 
Q 1688 2584 1439 2293 
Q 1191 2003 1191 1497 
Q 1191 994 1439 701 
Q 1688 409 2113 409 
Q 2538 409 2786 701 
Q 3034 994 3034 1497 
Q 3034 2003 2786 2293 
Q 2538 2584 2113 2584 
z
M 3366 4563 
L 3366 3988 
Q 3128 4100 2886 4159 
Q 2644 4219 2406 4219 
Q 1781 4219 1451 3797 
Q 1122 3375 1075 2522 
Q 1259 2794 1537 2939 
Q 1816 3084 2150 3084 
Q 2853 3084 3261 2657 
Q 3669 2231 3669 1497 
Q 3669 778 3244 343 
Q 2819 -91 2113 -91 
Q 1303 -91 875 529 
Q 447 1150 447 2328 
Q 447 3434 972 4092 
Q 1497 4750 2381 4750 
Q 2619 4750 2861 4703 
Q 3103 4656 3366 4563 
z
" transform="scale(0.015625)"/>
       </defs>
       <use xlink:href="#DejaVuSans-30"/>
       <use xlink:href="#DejaVuSans-2e" x="63.623047"/>
       <use xlink:href="#DejaVuSans-36" x="95.410156"/>
      </g>
     </g>
    </g>
    <g id="xtick_5">
     <g id="line2d_9">
      <path d="M 312.709091 384.48 
L 312.709091 51.84 
" clip-path="url(#p38ec056f83)" style="fill: none; stroke: #b0b0b0; stroke-width: 0.8; stroke-linecap: square"/>
     </g>
     <g id="line2d_10">
      <g>
       <use xlink:href="#me7d72891b5" x="312.709091" y="384.48" style="stroke: #000000; stroke-width: 0.8"/>
      </g>
     </g>
     <g id="text_5">
      <!-- 0.8 -->
      <g transform="translate(304.757528 399.078438) scale(0.1 -0.1)">
       <defs>
        <path id="DejaVuSans-38" d="M 2034 2216 
Q 1584 2216 1326 1975 
Q 1069 1734 1069 1313 
Q 1069 891 1326 650 
Q 1584 409 2034 409 
Q 2484 409 2743 651 
Q 3003 894 3003 1313 
Q 3003 1734 2745 1975 
Q 2488 2216 2034 2216 
z
M 1403 2484 
Q 997 2584 770 2862 
Q 544 3141 544 3541 
Q 544 4100 942 4425 
Q 1341 4750 2034 4750 
Q 2731 4750 3128 4425 
Q 3525 4100 3525 3541 
Q 3525 3141 3298 2862 
Q 3072 2584 2669 2484 
Q 3125 2378 3379 2068 
Q 3634 1759 3634 1313 
Q 3634 634 3220 271 
Q 2806 -91 2034 -91 
Q 1263 -91 848 271 
Q 434 634 434 1313 
Q 434 1759 690 2068 
Q 947 2378 1403 2484 
z
M 1172 3481 
Q 1172 3119 1398 2916 
Q 1625 2713 2034 2713 
Q 2441 2713 2670 2916 
Q 2900 3119 2900 3481 
Q 2900 3844 2670 4047 
Q 2441 4250 2034 4250 
Q 1625 4250 1398 4047 
Q 1172 3844 1172 3481 
z
" transform="scale(0.015625)"/>
       </defs>
       <use xlink:href="#DejaVuSans-30"/>
       <use xlink:href="#DejaVuSans-2e" x="63.623047"/>
       <use xlink:href="#DejaVuSans-38" x="95.410156"/>
      </g>
     </g>
    </g>
    <g id="xtick_6">
     <g id="line2d_11">
      <path d="M 373.581818 384.48 
L 373.581818 51.84 
" clip-path="url(#p38ec056f83)" style="fill: none; stroke: #b0b0b0; stroke-width: 0.8; stroke-linecap: square"/>
     </g>
     <g id="line2d_12">
      <g>
       <use xlink:href="#me7d72891b5" x="373.581818" y="384.48" style="stroke: #000000; stroke-width: 0.8"/>
      </g>
     </g>
     <g id="text_6">
      <!-- 1.0 -->
      <g transform="translate(365.630256 399.078438) scale(0.1 -0.1)">
       <defs>
        <path id="DejaVuSans-31" d="M 794 531 
L 1825 531 
L 1825 4091 
L 703 3866 
L 703 4441 
L 1819 4666 
L 2450 4666 
L 2450 531 
L 3481 531 
L 3481 0 
L 794 0 
L 794 531 
z
" transform="scale(0.015625)"/>
       </defs>
       <use xlink:href="#DejaVuSans-31"/>
       <use xlink:href="#DejaVuSans-2e" x="63.623047"/>
       <use xlink:href="#DejaVuSans-30" x="95.410156"/>
      </g>
     </g>
    </g>
    <g id="text_7">
     <!-- False Positive Rate -->
     <g transform="translate(174.933594 412.756563) scale(0.1 -0.1)">
      <defs>
       <path id="DejaVuSans-46" d="M 628 4666 
L 3309 4666 
L 3309 4134 
L 1259 4134 
L 1259 2759 
L 3109 2759 
L 3109 2228 
L 1259 2228 
L 1259 0 
L 628 0 
L 628 4666 
z
" transform="scale(0.015625)"/>
       <path id="DejaVuSans-61" d="M 2194 1759 
Q 1497 1759 1228 1600 
Q 959 1441 959 1056 
Q 959 750 1161 570 
Q 1363 391 1709 391 
Q 2188 391 2477 730 
Q 2766 1069 2766 1631 
L 2766 1759 
L 2194 1759 
z
M 3341 1997 
L 3341 0 
L 2766 0 
L 2766 531 
Q 2569 213 2275 61 
Q 1981 -91 1556 -91 
Q 1019 -91 701 211 
Q 384 513 384 1019 
Q 384 1609 779 1909 
Q 1175 2209 1959 2209 
L 2766 2209 
L 2766 2266 
Q 2766 2663 2505 2880 
Q 2244 3097 1772 3097 
Q 1472 3097 1187 3025 
Q 903 2953 641 2809 
L 641 3341 
Q 956 3463 1253 3523 
Q 1550 3584 1831 3584 
Q 2591 3584 2966 3190 
Q 3341 2797 3341 1997 
z
" transform="scale(0.015625)"/>
       <path id="DejaVuSans-6c" d="M 603 4863 
L 1178 4863 
L 1178 0 
L 603 0 
L 603 4863 
z
" transform="scale(0.015625)"/>
       <path id="DejaVuSans-73" d="M 2834 3397 
L 2834 2853 
Q 2591 2978 2328 3040 
Q 2066 3103 1784 3103 
Q 1356 3103 1142 2972 
Q 928 2841 928 2578 
Q 928 2378 1081 2264 
Q 1234 2150 1697 2047 
L 1894 2003 
Q 2506 1872 2764 1633 
Q 3022 1394 3022 966 
Q 3022 478 2636 193 
Q 2250 -91 1575 -91 
Q 1294 -91 989 -36 
Q 684 19 347 128 
L 347 722 
Q 666 556 975 473 
Q 1284 391 1588 391 
Q 1994 391 2212 530 
Q 2431 669 2431 922 
Q 2431 1156 2273 1281 
Q 2116 1406 1581 1522 
L 1381 1569 
Q 847 1681 609 1914 
Q 372 2147 372 2553 
Q 372 3047 722 3315 
Q 1072 3584 1716 3584 
Q 2034 3584 2315 3537 
Q 2597 3491 2834 3397 
z
" transform="scale(0.015625)"/>
       <path id="DejaVuSans-65" d="M 3597 1894 
L 3597 1613 
L 953 1613 
Q 991 1019 1311 708 
Q 1631 397 2203 397 
Q 2534 397 2845 478 
Q 3156 559 3463 722 
L 3463 178 
Q 3153 47 2828 -22 
Q 2503 -91 2169 -91 
Q 1331 -91 842 396 
Q 353 884 353 1716 
Q 353 2575 817 3079 
Q 1281 3584 2069 3584 
Q 2775 3584 3186 3129 
Q 3597 2675 3597 1894 
z
M 3022 2063 
Q 3016 2534 2758 2815 
Q 2500 3097 2075 3097 
Q 1594 3097 1305 2825 
Q 1016 2553 972 2059 
L 3022 2063 
z
" transform="scale(0.015625)"/>
       <path id="DejaVuSans-20" transform="scale(0.015625)"/>
       <path id="DejaVuSans-50" d="M 1259 4147 
L 1259 2394 
L 2053 2394 
Q 2494 2394 2734 2622 
Q 2975 2850 2975 3272 
Q 2975 3691 2734 3919 
Q 2494 4147 2053 4147 
L 1259 4147 
z
M 628 4666 
L 2053 4666 
Q 2838 4666 3239 4311 
Q 3641 3956 3641 3272 
Q 3641 2581 3239 2228 
Q 2838 1875 2053 1875 
L 1259 1875 
L 1259 0 
L 628 0 
L 628 4666 
z
" transform="scale(0.015625)"/>
       <path id="DejaVuSans-6f" d="M 1959 3097 
Q 1497 3097 1228 2736 
Q 959 2375 959 1747 
Q 959 1119 1226 758 
Q 1494 397 1959 397 
Q 2419 397 2687 759 
Q 2956 1122 2956 1747 
Q 2956 2369 2687 2733 
Q 2419 3097 1959 3097 
z
M 1959 3584 
Q 2709 3584 3137 3096 
Q 3566 2609 3566 1747 
Q 3566 888 3137 398 
Q 2709 -91 1959 -91 
Q 1206 -91 779 398 
Q 353 888 353 1747 
Q 353 2609 779 3096 
Q 1206 3584 1959 3584 
z
" transform="scale(0.015625)"/>
       <path id="DejaVuSans-69" d="M 603 3500 
L 1178 3500 
L 1178 0 
L 603 0 
L 603 3500 
z
M 603 4863 
L 1178 4863 
L 1178 4134 
L 603 4134 
L 603 4863 
z
" transform="scale(0.015625)"/>
       <path id="DejaVuSans-74" d="M 1172 4494 
L 1172 3500 
L 2356 3500 
L 2356 3053 
L 1172 3053 
L 1172 1153 
Q 1172 725 1289 603 
Q 1406 481 1766 481 
L 2356 481 
L 2356 0 
L 1766 0 
Q 1100 0 847 248 
Q 594 497 594 1153 
L 594 3053 
L 172 3053 
L 172 3500 
L 594 3500 
L 594 4494 
L 1172 4494 
z
" transform="scale(0.015625)"/>
       <path id="DejaVuSans-76" d="M 191 3500 
L 800 3500 
L 1894 563 
L 2988 3500 
L 3597 3500 
L 2284 0 
L 1503 0 
L 191 3500 
z
" transform="scale(0.015625)"/>
       <path id="DejaVuSans-52" d="M 2841 2188 
Q 3044 2119 3236 1894 
Q 3428 1669 3622 1275 
L 4263 0 
L 3584 0 
L 2988 1197 
Q 2756 1666 2539 1819 
Q 2322 1972 1947 1972 
L 1259 1972 
L 1259 0 
L 628 0 
L 628 4666 
L 2053 4666 
Q 2853 4666 3247 4331 
Q 3641 3997 3641 3322 
Q 3641 2881 3436 2590 
Q 3231 2300 2841 2188 
z
M 1259 4147 
L 1259 2491 
L 2053 2491 
Q 2509 2491 2742 2702 
Q 2975 2913 2975 3322 
Q 2975 3731 2742 3939 
Q 2509 4147 2053 4147 
L 1259 4147 
z
" transform="scale(0.015625)"/>
      </defs>
      <use xlink:href="#DejaVuSans-46"/>
      <use xlink:href="#DejaVuSans-61" x="48.394531"/>
      <use xlink:href="#DejaVuSans-6c" x="109.673828"/>
      <use xlink:href="#DejaVuSans-73" x="137.457031"/>
      <use xlink:href="#DejaVuSans-65" x="189.556641"/>
      <use xlink:href="#DejaVuSans-20" x="251.080078"/>
      <use xlink:href="#DejaVuSans-50" x="282.867188"/>
      <use xlink:href="#DejaVuSans-6f" x="339.544922"/>
      <use xlink:href="#DejaVuSans-73" x="400.726562"/>
      <use xlink:href="#DejaVuSans-69" x="452.826172"/>
      <use xlink:href="#DejaVuSans-74" x="480.609375"/>
      <use xlink:href="#DejaVuSans-69" x="519.818359"/>
      <use xlink:href="#DejaVuSans-76" x="547.601562"/>
      <use xlink:href="#DejaVuSans-65" x="606.78125"/>
      <use xlink:href="#DejaVuSans-20" x="668.304688"/>
      <use xlink:href="#DejaVuSans-52" x="700.091797"/>
      <use xlink:href="#DejaVuSans-61" x="767.324219"/>
      <use xlink:href="#DejaVuSans-74" x="828.603516"/>
      <use xlink:href="#DejaVuSans-65" x="867.8125"/>
     </g>
    </g>
   </g>
   <g id="matplotlib.axis_2">
    <g id="ytick_1">
     <g id="line2d_13">
      <path d="M 54 369.36 
L 388.8 369.36 
" clip-path="url(#p38ec056f83)" style="fill: none; stroke: #b0b0b0; stroke-width: 0.8; stroke-linecap: square"/>
     </g>
     <g id="line2d_14">
      <defs>
       <path id="m479cb70bb9" d="M 0 0 
L -3.5 0 
" style="stroke: #000000; stroke-width: 0.8"/>
      </defs>
      <g>
       <use xlink:href="#m479cb70bb9" x="54" y="369.36" style="stroke: #000000; stroke-width: 0.8"/>
      </g>
     </g>
     <g id="text_8">
      <!-- 0.0 -->
      <g transform="translate(31.096875 373.159219) scale(0.1 -0.1)">
       <use xlink:href="#DejaVuSans-30"/>
       <use xlink:href="#DejaVuSans-2e" x="63.623047"/>
       <use xlink:href="#DejaVuSans-30" x="95.410156"/>
      </g>
     </g>
    </g>
    <g id="ytick_2">
     <g id="line2d_15">
      <path d="M 54 308.88 
L 388.8 308.88 
" clip-path="url(#p38ec056f83)" style="fill: none; stroke: #b0b0b0; stroke-width: 0.8; stroke-linecap: square"/>
     </g>
     <g id="line2d_16">
      <g>
       <use xlink:href="#m479cb70bb9" x="54" y="308.88" style="stroke: #000000; stroke-width: 0.8"/>
      </g>
     </g>
     <g id="text_9">
      <!-- 0.2 -->
      <g transform="translate(31.096875 312.679219) scale(0.1 -0.1)">
       <use xlink:href="#DejaVuSans-30"/>
       <use xlink:href="#DejaVuSans-2e" x="63.623047"/>
       <use xlink:href="#DejaVuSans-32" x="95.410156"/>
      </g>
     </g>
    </g>
    <g id="ytick_3">
     <g id="line2d_17">
      <path d="M 54 248.4 
L 388.8 248.4 
" clip-path="url(#p38ec056f83)" style="fill: none; stroke: #b0b0b0; stroke-width: 0.8; stroke-linecap: square"/>
     </g>
     <g id="line2d_18">
      <g>
       <use xlink:href="#m479cb70bb9" x="54" y="248.4" style="stroke: #000000; stroke-width: 0.8"/>
      </g>
     </g>
     <g id="text_10">
      <!-- 0.4 -->
      <g transform="translate(31.096875 252.199219) scale(0.1 -0.1)">
       <use xlink:href="#DejaVuSans-30"/>
       <use xlink:href="#DejaVuSans-2e" x="63.623047"/>
       <use xlink:href="#DejaVuSans-34" x="95.410156"/>
      </g>
     </g>
    </g>
    <g id="ytick_4">
     <g id="line2d_19">
      <path d="M 54 187.92 
L 388.8 187.92 
" clip-path="url(#p38ec056f83)" style="fill: none; stroke: #b0b0b0; stroke-width: 0.8; stroke-linecap: square"/>
     </g>
     <g id="line2d_20">
      <g>
       <use xlink:href="#m479cb70bb9" x="54" y="187.92" style="stroke: #000000; stroke-width: 0.8"/>
      </g>
     </g>
     <g id="text_11">
      <!-- 0.6 -->
      <g transform="translate(31.096875 191.719219) scale(0.1 -0.1)">
       <use xlink:href="#DejaVuSans-30"/>
       <use xlink:href="#DejaVuSans-2e" x="63.623047"/>
       <use xlink:href="#DejaVuSans-36" x="95.410156"/>
      </g>
     </g>
    </g>
    <g id="ytick_5">
     <g id="line2d_21">
      <path d="M 54 127.44 
L 388.8 127.44 
" clip-path="url(#p38ec056f83)" style="fill: none; stroke: #b0b0b0; stroke-width: 0.8; stroke-linecap: square"/>
     </g>
     <g id="line2d_22">
      <g>
       <use xlink:href="#m479cb70bb9" x="54" y="127.44" style="stroke: #000000; stroke-width: 0.8"/>
      </g>
     </g>
     <g id="text_12">
      <!-- 0.8 -->
      <g transform="translate(31.096875 131.239219) scale(0.1 -0.1)">
       <use xlink:href="#DejaVuSans-30"/>
       <use xlink:href="#DejaVuSans-2e" x="63.623047"/>
       <use xlink:href="#DejaVuSans-38" x="95.410156"/>
      </g>
     </g>
    </g>
    <g id="ytick_6">
     <g id="line2d_23">
      <path d="M 54 66.96 
L 388.8 66.96 
" clip-path="url(#p38ec056f83)" style="fill: none; stroke: #b0b0b0; stroke-width: 0.8; stroke-linecap: square"/>
     </g>
     <g id="line2d_24">
      <g>
       <use xlink:href="#m479cb70bb9" x="54" y="66.96" style="stroke: #000000; stroke-width: 0.8"/>
      </g>
     </g>
     <g id="text_13">
      <!-- 1.0 -->
      <g transform="translate(31.096875 70.759219) scale(0.1 -0.1)">
       <use xlink:href="#DejaVuSans-31"/>
       <use xlink:href="#DejaVuSans-2e" x="63.623047"/>
       <use xlink:href="#DejaVuSans-30" x="95.410156"/>
      </g>
     </g>
    </g>
    <g id="text_14">
     <!-- True Positive Rate -->
     <g transform="translate(25.017187 262.689687) rotate(-90) scale(0.1 -0.1)">
      <defs>
       <path id="DejaVuSans-54" d="M -19 4666 
L 3928 4666 
L 3928 4134 
L 2272 4134 
L 2272 0 
L 1638 0 
L 1638 4134 
L -19 4134 
L -19 4666 
z
" transform="scale(0.015625)"/>
       <path id="DejaVuSans-72" d="M 2631 2963 
Q 2534 3019 2420 3045 
Q 2306 3072 2169 3072 
Q 1681 3072 1420 2755 
Q 1159 2438 1159 1844 
L 1159 0 
L 581 0 
L 581 3500 
L 1159 3500 
L 1159 2956 
Q 1341 3275 1631 3429 
Q 1922 3584 2338 3584 
Q 2397 3584 2469 3576 
Q 2541 3569 2628 3553 
L 2631 2963 
z
" transform="scale(0.015625)"/>
       <path id="DejaVuSans-75" d="M 544 1381 
L 544 3500 
L 1119 3500 
L 1119 1403 
Q 1119 906 1312 657 
Q 1506 409 1894 409 
Q 2359 409 2629 706 
Q 2900 1003 2900 1516 
L 2900 3500 
L 3475 3500 
L 3475 0 
L 2900 0 
L 2900 538 
Q 2691 219 2414 64 
Q 2138 -91 1772 -91 
Q 1169 -91 856 284 
Q 544 659 544 1381 
z
M 1991 3584 
L 1991 3584 
z
" transform="scale(0.015625)"/>
      </defs>
      <use xlink:href="#DejaVuSans-54"/>
      <use xlink:href="#DejaVuSans-72" x="46.333984"/>
      <use xlink:href="#DejaVuSans-75" x="87.447266"/>
      <use xlink:href="#DejaVuSans-65" x="150.826172"/>
      <use xlink:href="#DejaVuSans-20" x="212.349609"/>
      <use xlink:href="#DejaVuSans-50" x="244.136719"/>
      <use xlink:href="#DejaVuSans-6f" x="300.814453"/>
      <use xlink:href="#DejaVuSans-73" x="361.996094"/>
      <use xlink:href="#DejaVuSans-69" x="414.095703"/>
      <use xlink:href="#DejaVuSans-74" x="441.878906"/>
      <use xlink:href="#DejaVuSans-69" x="481.087891"/>
      <use xlink:href="#DejaVuSans-76" x="508.871094"/>
      <use xlink:href="#DejaVuSans-65" x="568.050781"/>
      <use xlink:href="#DejaVuSans-20" x="629.574219"/>
      <use xlink:href="#DejaVuSans-52" x="661.361328"/>
      <use xlink:href="#DejaVuSans-61" x="728.59375"/>
      <use xlink:href="#DejaVuSans-74" x="789.873047"/>
      <use xlink:href="#DejaVuSans-65" x="829.082031"/>
     </g>
    </g>
   </g>
   <g id="line2d_25">
    <path d="M 69.218182 369.36 
L 69.247108 369.249495 
L 69.357272 368.951983 
L 69.376351 368.841479 
L 69.485285 368.38246 
L 69.525288 368.271955 
L 69.635453 367.974443 
L 69.684689 367.872439 
L 69.785621 367.600427 
L 69.845935 367.489923 
L 69.956715 367.319916 
L 70.077342 367.209411 
L 70.182583 367.039404 
L 70.269361 366.9289 
L 70.374602 366.767393 
L 70.42076 366.656888 
L 70.530924 366.495382 
L 70.633704 366.384877 
L 70.742637 366.197869 
L 70.846647 366.087365 
L 70.951888 365.96836 
L 71.030665 365.866356 
L 71.130367 365.636846 
L 71.21099 365.526342 
L 71.311923 365.407337 
L 71.380237 365.296832 
L 71.484863 365.109824 
L 71.556254 364.99932 
L 71.662111 364.820812 
L 71.767967 364.710308 
L 71.876285 364.574302 
L 71.969833 364.463798 
L 72.07015 364.344793 
L 72.165544 364.234288 
L 72.276324 364.115283 
L 72.413568 364.004779 
L 72.518194 363.843272 
L 72.643744 363.732767 
L 72.74837 363.55426 
L 72.819146 363.443755 
L 72.92808 363.324751 
L 73.001318 363.214246 
L 73.112097 363.027238 
L 73.209953 362.916734 
L 73.31581 362.738226 
L 73.421666 362.627722 
L 73.514598 362.500216 
L 73.598298 362.389712 
L 73.706001 362.219705 
L 73.798933 362.1092 
L 73.909098 361.905192 
L 73.982951 361.794687 
L 74.083268 361.62468 
L 74.14789 361.514176 
L 74.249438 361.38667 
L 74.346063 361.276166 
L 74.453766 361.174162 
L 74.557776 361.063657 
L 74.666094 360.834148 
L 74.771335 360.723643 
L 74.8815 360.553636 
L 74.983048 360.443131 
L 75.072903 360.324126 
L 75.235996 360.213622 
L 75.34616 360.018114 
L 75.444016 359.907609 
L 75.545564 359.729102 
L 75.642189 359.618597 
L 75.752969 359.44859 
L 75.838515 359.338086 
L 75.944987 359.168079 
L 76.018225 359.057574 
L 76.097617 358.981071 
L 76.237939 358.870566 
L 76.338872 358.743061 
L 76.479193 358.641057 
L 76.589973 358.522052 
L 76.653979 358.411547 
L 76.761682 358.267041 
L 76.849075 358.156537 
L 76.957393 358.054533 
L 77.055864 357.944028 
L 77.164182 357.791022 
L 77.291579 357.680517 
L 77.401744 357.519011 
L 77.458365 357.408506 
L 77.568529 357.281001 
L 77.676847 357.170496 
L 77.774703 357.01749 
L 77.890406 356.906985 
L 77.998109 356.753979 
L 78.076886 356.643474 
L 78.177203 356.498968 
L 78.302754 356.388464 
L 78.413534 356.235457 
L 78.507697 356.124953 
L 78.612323 355.937945 
L 78.707101 355.835941 
L 78.80988 355.674434 
L 78.867732 355.56393 
L 78.972973 355.402423 
L 79.077598 355.291918 
L 79.184686 355.138912 
L 79.295466 355.028408 
L 79.403784 354.8414 
L 79.485638 354.730895 
L 79.591494 354.518387 
L 79.660424 354.407882 
L 79.767511 354.229375 
L 79.871521 354.12737 
L 79.981686 353.948863 
L 80.04323 353.838358 
L 80.147856 353.659851 
L 80.251866 353.549346 
L 80.3608 353.294336 
L 80.426652 353.183831 
L 80.533124 352.928821 
L 80.618055 352.818316 
L 80.726373 352.65681 
L 80.794072 352.546305 
L 80.902391 352.359297 
L 80.994707 352.257293 
L 81.091947 352.146788 
L 81.174417 352.044784 
L 81.266734 351.95128 
L 81.338125 351.840776 
L 81.434134 351.713271 
L 81.525836 351.602766 
L 81.636616 351.415758 
L 81.696929 351.305254 
L 81.807709 351.135247 
L 81.845867 351.024742 
L 81.952954 350.871736 
L 82.035423 350.761231 
L 82.117277 350.616725 
L 82.277293 350.506221 
L 82.388073 350.387216 
L 82.452079 350.276711 
L 82.561628 350.089703 
L 82.621326 349.979199 
L 82.727798 349.76669 
L 82.79919 349.673186 
L 82.908739 349.494679 
L 83.005363 349.392675 
L 83.115528 349.239668 
L 83.197998 349.129164 
L 83.303854 349.010159 
L 83.412788 348.899654 
L 83.522337 348.738148 
L 83.585727 348.636143 
L 83.687276 348.457636 
L 83.764822 348.347131 
L 83.873755 348.100621 
L 83.947609 347.990117 
L 84.03931 347.803109 
L 84.111317 347.701105 
L 84.220866 347.497096 
L 84.273179 347.386592 
L 84.381497 347.182583 
L 84.453504 347.072079 
L 84.543359 346.834069 
L 84.638137 346.732065 
L 84.746455 346.392051 
L 84.825232 346.281546 
L 84.934781 346.009535 
L 85.009865 345.89903 
L 85.107721 345.712022 
L 85.222194 345.601518 
L 85.315741 345.40601 
L 85.432676 345.295505 
L 85.540378 345.116998 
L 85.602538 345.006493 
L 85.712703 344.836486 
L 85.817944 344.725982 
L 85.921954 344.555975 
L 86.005039 344.44547 
L 86.107202 344.215961 
L 86.22906 344.105456 
L 86.337379 343.884447 
L 86.424156 343.773942 
L 86.529397 343.603935 
L 86.601404 343.493431 
L 86.706645 343.331924 
L 86.760804 343.22142 
L 86.866661 343.008911 
L 86.941129 342.898406 
L 87.032215 342.711398 
L 87.113454 342.600894 
L 87.21254 342.439387 
L 87.34363 342.328883 
L 87.453179 342.158876 
L 87.507338 342.048371 
L 87.618118 341.895365 
L 87.711666 341.78486 
L 87.818137 341.589352 
L 87.892606 341.478848 
L 88.00154 341.283339 
L 88.10555 341.181335 
L 88.214483 340.934825 
L 88.305569 340.82432 
L 88.415118 340.645813 
L 88.479124 340.535309 
L 88.588058 340.3228 
L 88.693915 340.212295 
L 88.796078 340.07629 
L 88.856392 339.965785 
L 88.964095 339.693774 
L 89.037948 339.583269 
L 89.138265 339.396261 
L 89.236121 339.285757 
L 89.32536 339.107249 
L 89.419523 338.996745 
L 89.508763 338.843739 
L 89.591232 338.733234 
L 89.701397 338.588728 
L 89.753094 338.478223 
L 89.852796 338.38472 
L 89.911879 338.274215 
L 90.022043 338.078707 
L 90.119283 337.968202 
L 90.228217 337.738693 
L 90.30884 337.628188 
L 90.407311 337.475182 
L 90.511321 337.364677 
L 90.622101 337.169169 
L 90.700878 337.067165 
L 90.808581 336.863157 
L 90.920592 336.752652 
L 91.020909 336.548644 
L 91.126766 336.438139 
L 91.237546 336.22563 
L 91.304013 336.115126 
L 91.406177 335.928118 
L 91.489262 335.826114 
L 91.59635 335.639106 
L 91.683127 335.528602 
L 91.793292 335.265091 
L 91.836373 335.154586 
L 91.94346 334.976079 
L 91.992696 334.882575 
L 92.098552 334.661566 
L 92.142249 334.559561 
L 92.249336 334.381054 
L 92.304726 334.27055 
L 92.393965 334.134544 
L 92.49736 334.024039 
L 92.603216 333.777529 
L 92.688763 333.667025 
L 92.795235 333.386513 
L 92.912169 333.276008 
L 93.019872 333.140003 
L 93.104188 333.029498 
L 93.213737 332.850991 
L 93.302361 332.740486 
L 93.406986 332.536478 
L 93.463607 332.425973 
L 93.574387 332.247466 
L 93.61993 332.136961 
L 93.723325 331.890451 
L 93.81318 331.779947 
L 93.916574 331.60994 
L 94.03597 331.499435 
L 94.14675 331.320928 
L 94.196601 331.210423 
L 94.307381 330.878909 
L 94.381235 330.768405 
L 94.490784 330.487893 
L 94.62372 330.377389 
L 94.733269 330.215882 
L 94.836048 330.105377 
L 94.944982 329.901369 
L 95.013911 329.790864 
L 95.116691 329.595356 
L 95.226855 329.484852 
L 95.327788 329.314845 
L 95.406565 329.20434 
L 95.515498 329.025833 
L 95.595506 328.923829 
L 95.701363 328.702819 
L 95.7666 328.592315 
L 95.869994 328.48181 
L 95.950617 328.371306 
L 96.057089 328.201299 
L 96.106325 328.116295 
L 96.217105 327.912287 
L 96.291574 327.801782 
L 96.399892 327.606274 
L 96.486054 327.49577 
L 96.587602 327.308762 
L 96.689151 327.198257 
L 96.798084 326.934746 
L 96.873168 326.824242 
L 96.97964 326.603233 
L 97.038107 326.492728 
L 97.14581 326.314221 
L 97.258436 326.203716 
L 97.366755 326.05071 
L 97.411067 325.940205 
L 97.519385 325.795699 
L 97.57539 325.685195 
L 97.685555 325.549189 
L 97.754484 325.438684 
L 97.863418 325.302679 
L 97.952658 325.192174 
L 98.057283 325.030668 
L 98.125597 324.920163 
L 98.235762 324.801158 
L 98.304076 324.690654 
L 98.406855 324.478145 
L 98.471477 324.36764 
L 98.575487 324.11263 
L 98.633339 324.002125 
L 98.736733 323.832118 
L 98.814895 323.721613 
L 98.912135 323.509105 
L 99.00199 323.3986 
L 99.111539 323.271095 
L 99.203856 323.16059 
L 99.312174 322.939581 
L 99.376795 322.837577 
L 99.48696 322.599567 
L 99.581123 322.497563 
L 99.68821 322.242552 
L 99.768833 322.132048 
L 99.878998 321.962041 
L 99.98547 321.851536 
L 100.065478 321.732531 
L 100.203953 321.622027 
L 100.312271 321.435019 
L 100.370738 321.324514 
L 100.476594 321.103505 
L 100.549832 320.993001 
L 100.659997 320.839994 
L 100.718464 320.72949 
L 100.829244 320.49998 
L 100.916021 320.389476 
L 101.01757 320.278971 
L 101.149275 320.168467 
L 101.258208 319.921956 
L 101.340678 319.811452 
L 101.450227 319.641445 
L 101.530235 319.53094 
L 101.634245 319.326932 
L 101.715484 319.216427 
L 101.826264 319.03792 
L 101.956122 318.927415 
L 102.065671 318.748908 
L 102.104444 318.638403 
L 102.214609 318.425895 
L 102.27923 318.31539 
L 102.389395 318.187885 
L 102.48602 318.07738 
L 102.5968 317.898873 
L 102.681731 317.788368 
L 102.785741 317.558859 
L 102.883597 317.448354 
L 102.993146 317.244346 
L 103.095925 317.133841 
L 103.186395 317.014836 
L 103.255325 316.904332 
L 103.354412 316.742825 
L 103.436266 316.640821 
L 103.547046 316.419812 
L 103.606744 316.317807 
L 103.716908 316.1393 
L 103.788915 316.028796 
L 103.897233 315.824787 
L 104.01786 315.722783 
L 104.120024 315.493273 
L 104.203725 315.382769 
L 104.300349 315.229762 
L 104.406821 315.119258 
L 104.508369 314.957751 
L 104.604994 314.847247 
L 104.710851 314.634738 
L 104.81363 314.524233 
L 104.923179 314.422229 
L 104.987185 314.311725 
L 105.086272 314.099216 
L 105.185974 313.988711 
L 105.27829 313.886707 
L 105.377992 313.776202 
L 105.488157 313.640197 
L 105.539239 313.529692 
L 105.648172 313.317183 
L 105.699254 313.206679 
L 105.808803 313.079174 
L 105.862962 312.968669 
L 105.968819 312.764661 
L 106.058673 312.654156 
L 106.165145 312.535151 
L 106.221151 312.424647 
L 106.321468 312.246139 
L 106.410708 312.135635 
L 106.520257 311.957127 
L 106.571339 311.846623 
L 106.66981 311.642614 
L 106.799053 311.53211 
L 106.908602 311.353602 
L 107.012612 311.243098 
L 107.120315 311.098592 
L 107.255713 310.988087 
L 107.358492 310.852082 
L 107.43173 310.741577 
L 107.538201 310.588571 
L 107.661906 310.478066 
L 107.770224 310.299559 
L 107.848385 310.189054 
L 107.953626 310.061549 
L 108.017632 309.951044 
L 108.126566 309.721535 
L 108.187495 309.61103 
L 108.29766 309.458024 
L 108.362281 309.347519 
L 108.46506 309.152011 
L 108.557993 309.041507 
L 108.668772 308.8715 
L 108.773398 308.760995 
L 108.882947 308.548486 
L 108.973417 308.437982 
L 109.081736 308.259474 
L 109.175899 308.14897 
L 109.282986 307.944961 
L 109.37161 307.834457 
L 109.48239 307.67295 
L 109.606094 307.562446 
L 109.715643 307.409439 
L 109.771033 307.298935 
L 109.880582 307.128928 
L 109.956897 307.018423 
L 110.063985 306.848416 
L 110.127991 306.737911 
L 110.232001 306.559404 
L 110.295392 306.4489 
L 110.39694 306.312894 
L 110.492334 306.202389 
L 110.603114 306.006881 
L 110.647426 305.896377 
L 110.753282 305.73487 
L 110.808057 305.624365 
L 110.918221 305.437358 
L 111.014846 305.326853 
L 111.123164 305.105844 
L 111.184708 304.995339 
L 111.289334 304.833833 
L 111.39396 304.723328 
L 111.501662 304.578822 
L 111.597672 304.468318 
L 111.698604 304.298311 
L 111.825386 304.187806 
L 111.936166 304.026299 
L 112.011866 303.915795 
L 112.118337 303.754288 
L 112.19773 303.643784 
L 112.307894 303.448275 
L 112.41929 303.337771 
L 112.525761 303.201765 
L 112.653774 303.091261 
L 112.754707 302.878752 
L 112.858717 302.768247 
L 112.948572 302.657743 
L 113.025502 302.547238 
L 113.132589 302.317729 
L 113.204596 302.215725 
L 113.306145 302.045717 
L 113.381844 301.935213 
L 113.490163 301.807708 
L 113.538783 301.697203 
L 113.645255 301.561197 
L 113.715415 301.450693 
L 113.821272 301.297687 
L 113.879123 301.195682 
L 113.989288 300.991674 
L 114.069296 300.881169 
L 114.17946 300.711162 
L 114.2687 300.600658 
L 114.377018 300.473152 
L 114.422561 300.362648 
L 114.527802 300.201141 
L 114.593039 300.090637 
L 114.703203 299.903629 
L 114.787519 299.801625 
L 114.89276 299.606117 
L 114.990616 299.495612 
L 115.097087 299.342606 
L 115.18325 299.232101 
L 115.286029 299.045093 
L 115.404194 298.934589 
L 115.514974 298.679578 
L 115.603598 298.569074 
L 115.711916 298.348065 
L 115.794386 298.23756 
L 115.898396 298.033552 
L 115.977173 297.923047 
L 116.08426 297.74454 
L 116.151343 297.634035 
L 116.252892 297.421526 
L 116.3409 297.311022 
L 116.450449 297.115514 
L 116.536612 297.005009 
L 116.641237 296.818001 
L 116.732323 296.707497 
L 116.841872 296.528989 
L 116.940958 296.418485 
L 117.043738 296.239978 
L 117.131746 296.129473 
L 117.242526 295.976467 
L 117.385309 295.865962 
L 117.494858 295.687455 
L 117.593945 295.57695 
L 117.702878 295.372942 
L 117.779193 295.262437 
L 117.880742 295.109431 
L 117.945363 294.998926 
L 118.053066 294.862921 
L 118.125689 294.752416 
L 118.236468 294.650412 
L 118.283858 294.539907 
L 118.394638 294.318898 
L 118.483877 294.208394 
L 118.583579 294.038387 
L 118.666664 293.927882 
L 118.77252 293.698372 
L 118.86176 293.587868 
L 118.962693 293.40086 
L 119.085166 293.298856 
L 119.181791 293.188351 
L 119.299956 293.077847 
L 119.398427 292.992843 
L 119.511053 292.882339 
L 119.621218 292.601827 
L 119.739383 292.499823 
L 119.849548 292.253313 
L 119.930171 292.142808 
L 120.036027 291.904798 
L 120.1505 291.794294 
L 120.25451 291.547784 
L 120.350519 291.437279 
L 120.459453 291.258772 
L 120.523459 291.148267 
L 120.630547 290.995261 
L 120.779484 290.884756 
L 120.886571 290.748751 
L 121.033047 290.638246 
L 121.127825 290.459739 
L 121.243529 290.349234 
L 121.353078 290.196228 
L 121.41093 290.085723 
L 121.516786 289.958218 
L 121.62572 289.847713 
L 121.727884 289.728708 
L 121.825739 289.618204 
L 121.936519 289.482198 
L 122.06207 289.371694 
L 122.170388 289.201687 
L 122.26332 289.091182 
L 122.371023 288.938176 
L 122.450415 288.827671 
L 122.551963 288.649164 
L 122.691669 288.538659 
L 122.785832 288.334651 
L 122.86584 288.224146 
L 122.968619 288.088141 
L 123.060936 287.977636 
L 123.158176 287.83313 
L 123.222798 287.722625 
L 123.325577 287.629122 
L 123.401892 287.527117 
L 123.500978 287.433613 
L 123.630222 287.323109 
L 123.739771 287.178603 
L 123.803777 287.068098 
L 123.907172 286.949093 
L 124.038261 286.838589 
L 124.145964 286.63458 
L 124.23705 286.524076 
L 124.347214 286.37107 
L 124.4383 286.260565 
L 124.542926 286.056557 
L 124.633396 285.946052 
L 124.742945 285.750544 
L 124.822953 285.640039 
L 124.93004 285.495533 
L 125.009432 285.385029 
L 125.120212 285.155519 
L 125.181141 285.045015 
L 125.288228 284.943011 
L 125.429165 284.832506 
L 125.533175 284.6965 
L 125.587334 284.585996 
L 125.697499 284.44999 
L 125.791662 284.339486 
L 125.899365 284.220481 
L 126.016914 284.109976 
L 126.109847 283.948469 
L 126.199086 283.837965 
L 126.296942 283.71896 
L 126.37818 283.608455 
L 126.487114 283.463949 
L 126.553582 283.353445 
L 126.64836 283.183438 
L 126.772065 283.072933 
L 126.875459 282.885926 
L 126.991778 282.775421 
L 127.099481 282.630915 
L 127.18872 282.52041 
L 127.297654 282.358904 
L 127.394279 282.248399 
L 127.501981 282.120894 
L 127.578296 282.01889 
L 127.686615 281.848883 
L 127.817704 281.738378 
L 127.927869 281.53437 
L 128.018955 281.423865 
L 128.125426 281.134853 
L 128.201126 281.032849 
L 128.311291 280.896843 
L 128.391298 280.786339 
L 128.502078 280.599331 
L 128.572239 280.488826 
L 128.683019 280.233816 
L 128.75318 280.131812 
L 128.861498 279.953304 
L 128.951968 279.8428 
L 129.057209 279.749296 
L 129.16922 279.638791 
L 129.278769 279.417782 
L 129.374163 279.307278 
L 129.483712 279.179772 
L 129.54341 279.069268 
L 129.643112 278.924762 
L 129.77851 278.814257 
L 129.883135 278.678252 
L 129.968682 278.567747 
L 130.078231 278.39774 
L 130.149007 278.287235 
L 130.256094 278.117228 
L 130.329948 278.006724 
L 130.435189 277.896219 
L 130.53366 277.785715 
L 130.625976 277.632708 
L 130.773067 277.522204 
L 130.882001 277.411699 
L 130.958316 277.301195 
L 131.067865 277.071685 
L 131.17803 276.961181 
L 131.286963 276.842176 
L 131.371895 276.731671 
L 131.478367 276.553164 
L 131.609456 276.442659 
L 131.719621 276.298153 
L 131.763933 276.187649 
L 131.851941 276.111145 
L 131.937488 276.000641 
L 132.03719 275.890136 
L 132.11289 275.779632 
L 132.223054 275.618125 
L 132.290138 275.507621 
L 132.399687 275.320613 
L 132.476002 275.210108 
L 132.583704 275.082603 
L 132.664943 274.972098 
L 132.760337 274.861594 
L 132.87481 274.751089 
L 132.983128 274.606583 
L 133.084676 274.496079 
L 133.194225 274.29207 
L 133.300081 274.181566 
L 133.407169 274.04556 
L 133.538258 273.943556 
L 133.644115 273.816051 
L 133.725969 273.705546 
L 133.83121 273.535539 
L 133.920449 273.425034 
L 134.027537 273.221026 
L 134.118007 273.110521 
L 134.221402 272.983016 
L 134.319257 272.872512 
L 134.429422 272.702505 
L 134.532201 272.592 
L 134.634365 272.472995 
L 134.729758 272.362491 
L 134.833153 272.243486 
L 134.928547 272.132981 
L 135.031326 272.039477 
L 135.170417 271.928973 
L 135.280581 271.733465 
L 135.407363 271.62296 
L 135.516912 271.461453 
L 135.593842 271.350949 
L 135.704007 271.206443 
L 135.75078 271.104439 
L 135.855406 270.968433 
L 135.929259 270.857928 
L 136.030192 270.755924 
L 136.127432 270.64542 
L 136.232058 270.475413 
L 136.363763 270.364908 
L 136.464696 270.262904 
L 136.544703 270.152399 
L 136.655483 269.990892 
L 136.75457 269.880388 
L 136.864734 269.778384 
L 136.952743 269.667879 
L 137.055522 269.497872 
L 137.129375 269.387368 
L 137.238309 269.217361 
L 137.310932 269.106856 
L 137.408787 268.894347 
L 137.459254 268.783843 
L 137.569418 268.588335 
L 137.654349 268.47783 
L 137.762052 268.307823 
L 137.858677 268.205819 
L 137.963918 268.078313 
L 138.039002 267.967809 
L 138.141781 267.7638 
L 138.301797 267.653296 
L 138.400268 267.50879 
L 138.469198 267.398285 
L 138.575054 267.211278 
L 138.687065 267.100773 
L 138.774458 266.947767 
L 138.875391 266.837262 
L 138.972016 266.667255 
L 139.070487 266.556751 
L 139.175112 266.378243 
L 139.239734 266.276239 
L 139.333897 266.157234 
L 139.48345 266.046729 
L 139.58746 265.961726 
L 139.698855 265.851221 
L 139.801019 265.689715 
L 139.94134 265.57921 
L 140.032426 265.460205 
L 140.152438 265.349701 
L 140.257063 265.154193 
L 140.358611 265.043688 
L 140.465699 264.85668 
L 140.524781 264.746176 
L 140.635561 264.60167 
L 140.725416 264.491165 
L 140.826349 264.37216 
L 140.910665 264.261656 
L 141.018983 264.108649 
L 141.160535 263.998145 
L 141.271315 263.845138 
L 141.373479 263.734634 
L 141.464565 263.607129 
L 141.551342 263.496624 
L 141.634427 263.360618 
L 141.855372 263.250114 
L 141.960613 263.097108 
L 142.038774 262.986603 
L 142.1434 262.791095 
L 142.222177 262.68059 
L 142.328648 262.519084 
L 142.445583 262.408579 
L 142.552055 262.213071 
L 142.612984 262.102566 
L 142.695453 261.95806 
L 142.851776 261.847556 
L 142.96194 261.686049 
L 143.07272 261.575545 
L 143.178577 261.448039 
L 143.270893 261.346035 
L 143.377981 261.125026 
L 143.451834 261.014521 
L 143.553382 260.827514 
L 143.728784 260.717009 
L 143.832794 260.589504 
L 143.919572 260.478999 
L 144.024813 260.291992 
L 144.12513 260.181487 
L 144.228525 260.053982 
L 144.299916 259.943477 
L 144.403311 259.858474 
L 144.496243 259.756469 
L 144.604561 259.552461 
L 144.728881 259.441956 
L 144.822428 259.314451 
L 144.914745 259.203947 
L 145.016909 259.025439 
L 145.092608 258.914935 
L 145.199696 258.761928 
L 145.320938 258.651424 
L 145.426795 258.506918 
L 145.54496 258.396413 
L 145.640969 258.31991 
L 145.737594 258.209405 
L 145.831141 258.090401 
L 145.951153 257.979896 
L 146.052086 257.83539 
L 146.188715 257.724885 
L 146.287186 257.580379 
L 146.359193 257.469875 
L 146.46628 257.282867 
L 146.554288 257.172363 
L 146.664453 256.985355 
L 146.751231 256.87485 
L 146.859549 256.63684 
L 146.972175 256.526336 
L 147.067569 256.398831 
L 147.170348 256.288326 
L 147.280513 256.177822 
L 147.378368 256.067317 
L 147.486686 255.948312 
L 147.572849 255.837807 
L 147.662704 255.735803 
L 147.790716 255.625299 
L 147.881802 255.438291 
L 148.054126 255.327786 
L 148.164291 255.18328 
L 148.276917 255.072776 
L 148.376619 254.851767 
L 148.419084 254.741262 
L 148.516325 254.596756 
L 148.60741 254.486252 
L 148.712036 254.341746 
L 148.84928 254.231241 
L 148.955136 254.112236 
L 149.043145 254.001732 
L 149.139154 253.840225 
L 149.2167 253.72972 
L 149.322557 253.593715 
L 149.446876 253.48321 
L 149.54904 253.296202 
L 149.678283 253.194198 
L 149.785371 252.99019 
L 149.910306 252.879685 
L 150.018624 252.718178 
L 150.113402 252.616174 
L 150.219259 252.480169 
L 150.348502 252.369664 
L 150.438357 252.199657 
L 150.590987 252.089152 
L 150.699921 251.902145 
L 150.797776 251.79164 
L 150.906095 251.613133 
L 151.040877 251.502628 
L 151.145502 251.417625 
L 151.197815 251.30712 
L 151.299363 251.179615 
L 151.422452 251.077611 
L 151.521539 250.941605 
L 151.637858 250.8311 
L 151.730174 250.678094 
L 151.862495 250.56759 
L 151.964659 250.482586 
L 152.088978 250.372082 
L 152.186219 250.210575 
L 152.325924 250.10007 
L 152.436704 249.896062 
L 152.551177 249.785557 
L 152.658264 249.59855 
L 152.756735 249.505046 
L 152.865054 249.36904 
L 153.004759 249.258535 
L 153.114309 249.139531 
L 153.190624 249.029026 
L 153.291556 248.842018 
L 153.422646 248.731514 
L 153.533426 248.629509 
L 153.633128 248.527505 
L 153.736523 248.425501 
L 153.85038 248.314996 
L 153.956236 248.195992 
L 154.030705 248.093987 
L 154.138408 247.881479 
L 154.297192 247.770974 
L 154.399972 247.643469 
L 154.544601 247.532964 
L 154.654765 247.42246 
L 154.748313 247.311955 
L 154.859093 247.18445 
L 154.967411 247.073945 
L 155.075114 246.95494 
L 155.146505 246.844436 
L 155.240668 246.733931 
L 155.324369 246.623427 
L 155.435149 246.495921 
L 155.501617 246.385417 
L 155.605627 246.240911 
L 155.704098 246.130406 
L 155.798876 246.002901 
L 155.947814 245.892396 
L 156.047516 245.74789 
L 156.203223 245.637386 
L 156.309695 245.50138 
L 156.407551 245.390876 
L 156.51033 245.305872 
L 156.637111 245.195368 
L 156.741737 245.135865 
L 156.832207 245.025361 
L 156.938679 244.889355 
L 157.03715 244.77885 
L 157.132544 244.617344 
L 157.221168 244.506839 
L 157.315946 244.336832 
L 157.456268 244.226327 
L 157.52889 244.124323 
L 157.656902 244.013819 
L 157.763374 243.877813 
L 157.901849 243.767309 
L 158.009552 243.580301 
L 158.047709 243.469796 
L 158.156028 243.367792 
L 158.216957 243.257287 
L 158.327737 243.138283 
L 158.482213 243.027778 
L 158.588069 242.883272 
L 158.730237 242.772767 
L 158.840402 242.670763 
L 158.980723 242.560259 
L 159.089041 242.407252 
L 159.207206 242.296748 
L 159.314909 242.177743 
L 159.421996 242.067238 
L 159.528468 241.931233 
L 159.632478 241.820728 
L 159.742643 241.650721 
L 159.801726 241.540216 
L 159.91189 241.455213 
L 159.981435 241.353209 
L 160.0916 241.225703 
L 160.18207 241.115199 
L 160.277464 240.987694 
L 160.381474 240.877189 
L 160.478714 240.766684 
L 160.567954 240.65618 
L 160.676272 240.537175 
L 160.791975 240.42667 
L 160.887985 240.341667 
L 161.009843 240.239663 
L 161.120623 240.086656 
L 161.211093 239.976152 
L 161.31141 239.831646 
L 161.446193 239.721141 
L 161.556972 239.593636 
L 161.673291 239.483131 
L 161.768685 239.338625 
L 161.876388 239.228121 
L 161.96932 239.083615 
L 162.076407 238.97311 
L 162.183495 238.837105 
L 162.298583 238.7266 
L 162.387822 238.582094 
L 162.560762 238.47159 
L 162.664157 238.412087 
L 162.760166 238.301583 
L 162.870946 238.140076 
L 162.963263 238.029571 
L 163.05681 237.902066 
L 163.208825 237.791561 
L 163.319605 237.655556 
L 163.422384 237.545051 
L 163.526394 237.409046 
L 163.687025 237.298541 
L 163.794728 237.162535 
L 163.936895 237.052031 
L 164.042752 236.924526 
L 164.158455 236.822521 
L 164.253234 236.678015 
L 164.375092 236.567511 
L 164.482179 236.448506 
L 164.59419 236.338001 
L 164.685275 236.210496 
L 164.821904 236.099992 
L 164.932069 235.895983 
L 165.055773 235.785479 
L 165.164707 235.683474 
L 165.247176 235.57297 
L 165.357341 235.419963 
L 165.485968 235.309459 
L 165.593056 235.173453 
L 165.735839 235.062949 
L 165.823232 234.901442 
L 165.967861 234.790937 
L 166.076179 234.663432 
L 166.187575 234.552928 
L 166.298355 234.433923 
L 166.387594 234.323418 
L 166.494682 234.246915 
L 166.634387 234.13641 
L 166.718088 233.974904 
L 166.862102 233.864399 
L 166.963035 233.685892 
L 167.055351 233.575387 
L 167.163054 233.456382 
L 167.303375 233.345878 
L 167.401846 233.201372 
L 167.507703 233.090867 
L 167.612328 233.014364 
L 167.755111 232.903859 
L 167.862814 232.750853 
L 168.011136 232.640349 
L 168.110838 232.538344 
L 168.246236 232.42784 
L 168.351477 232.274833 
L 168.462257 232.164329 
L 168.570575 231.985822 
L 168.651198 231.875317 
L 168.756439 231.739311 
L 168.880759 231.628807 
L 168.973691 231.526803 
L 169.05616 231.416298 
L 169.146631 231.314294 
L 169.266642 231.203789 
L 169.373114 231.042283 
L 169.521436 230.931778 
L 169.621754 230.770271 
L 169.793463 230.659767 
L 169.90055 230.48976 
L 169.978096 230.379255 
L 170.085183 230.26025 
L 170.180577 230.149746 
L 170.282125 230.047741 
L 170.373827 229.945737 
L 170.464912 229.852233 
L 170.647084 229.741729 
L 170.752325 229.639725 
L 170.830486 229.52922 
L 170.935727 229.393214 
L 171.032352 229.28271 
L 171.136362 229.180706 
L 171.221909 229.070201 
L 171.325303 228.985197 
L 171.44593 228.874693 
L 171.549325 228.738687 
L 171.655797 228.628183 
L 171.759191 228.466676 
L 171.932747 228.356171 
L 172.010908 228.211665 
L 172.17277 228.101161 
L 172.26324 228.016157 
L 172.438026 227.905653 
L 172.542037 227.710145 
L 172.636815 227.59964 
L 172.744518 227.531637 
L 172.866376 227.421133 
L 172.962385 227.319129 
L 173.083627 227.217124 
L 173.193792 227.098119 
L 173.299033 226.987615 
L 173.406736 226.843109 
L 173.506438 226.732604 
L 173.590754 226.596599 
L 173.759385 226.486094 
L 173.860318 226.350089 
L 173.923709 226.239584 
L 174.032027 226.086578 
L 174.160039 225.976073 
L 174.266511 225.806066 
L 174.404371 225.695561 
L 174.504688 225.610558 
L 174.606852 225.500053 
L 174.71517 225.381048 
L 174.826566 225.270544 
L 174.935499 225.18554 
L 175.017353 225.075036 
L 175.121363 224.93903 
L 175.267839 224.828526 
L 175.376157 224.726521 
L 175.51894 224.616017 
L 175.629105 224.480011 
L 175.719575 224.369507 
L 175.824816 224.233501 
L 175.946674 224.131497 
L 176.054992 223.944489 
L 176.165157 223.833985 
L 176.273475 223.706479 
L 176.348559 223.595975 
L 176.456262 223.434468 
L 176.556579 223.323963 
L 176.665513 223.204959 
L 176.746752 223.094454 
L 176.851993 222.924447 
L 176.951079 222.813942 
L 177.052627 222.652436 
L 177.13879 222.541931 
L 177.246492 222.456928 
L 177.412047 222.346423 
L 177.522827 222.176416 
L 177.656378 222.065911 
L 177.73577 221.955407 
L 177.856397 221.844902 
L 177.967177 221.640894 
L 178.031799 221.53889 
L 178.141348 221.394384 
L 178.278592 221.283879 
L 178.386295 221.113872 
L 178.491536 221.003368 
L 178.6017 220.884363 
L 178.686016 220.773858 
L 178.792488 220.629352 
L 178.881112 220.518848 
L 178.973429 220.416843 
L 179.095902 220.306339 
L 179.191911 220.204335 
L 179.352542 220.09383 
L 179.459014 219.957824 
L 179.534714 219.84732 
L 179.639955 219.719814 
L 179.725502 219.60931 
L 179.826434 219.422302 
L 179.988912 219.311798 
L 180.088614 219.141791 
L 180.210472 219.031286 
L 180.316328 218.929282 
L 180.418492 218.818777 
L 180.5065 218.682772 
L 180.662823 218.572267 
L 180.766218 218.453262 
L 180.929311 218.342758 
L 181.04009 218.223753 
L 181.105943 218.121748 
L 181.204414 217.960242 
L 181.321964 217.849737 
L 181.427205 217.756233 
L 181.556448 217.645729 
L 181.662305 217.501223 
L 181.767546 217.390718 
L 181.864786 217.297214 
L 181.993414 217.18671 
L 182.091269 217.050704 
L 182.257439 216.9487 
L 182.361449 216.812694 
L 182.464844 216.70219 
L 182.571931 216.574684 
L 182.672864 216.46418 
L 182.759642 216.379176 
L 182.909195 216.268672 
L 183.019975 216.047663 
L 183.139986 215.937158 
L 183.249535 215.784152 
L 183.388626 215.673647 
L 183.493251 215.529141 
L 183.592953 215.418637 
L 183.700656 215.342134 
L 183.815129 215.231629 
L 183.920369 215.095623 
L 184.019456 214.993619 
L 184.123466 214.823612 
L 184.259479 214.713108 
L 184.36472 214.602603 
L 184.494579 214.492098 
L 184.594281 214.356093 
L 184.732756 214.245588 
L 184.841074 214.177585 
L 184.918005 214.067081 
L 185.022015 213.922575 
L 185.112485 213.81207 
L 185.217726 213.693065 
L 185.335276 213.582561 
L 185.440517 213.497557 
L 185.554374 213.387053 
L 185.635613 213.293549 
L 185.788243 213.183044 
L 185.891022 213.004537 
L 186.035651 212.894032 
L 186.132276 212.809029 
L 186.252903 212.698524 
L 186.359375 212.545518 
L 186.53293 212.435013 
L 186.637556 212.307508 
L 186.695408 212.197004 
L 186.800648 212.060998 
L 186.939739 211.950493 
L 187.048057 211.805987 
L 187.154529 211.695483 
L 187.261001 211.61898 
L 187.422247 211.508475 
L 187.531181 211.372469 
L 187.680734 211.261965 
L 187.773666 211.168461 
L 187.929373 211.057956 
L 188.013689 210.989954 
L 188.182936 210.879449 
L 188.275253 210.743443 
L 188.477119 210.632939 
L 188.586052 210.488433 
L 188.659906 210.377928 
L 188.758377 210.250423 
L 188.931932 210.139918 
L 189.003323 210.046415 
L 189.15103 209.93591 
L 189.245808 209.850907 
L 189.428595 209.740402 
L 189.532605 209.672399 
L 189.639077 209.561895 
L 189.744934 209.408888 
L 189.821249 209.306884 
L 189.924028 209.179379 
L 190.007728 209.068874 
L 190.077889 208.992371 
L 190.240982 208.881866 
L 190.351762 208.771362 
L 190.459464 208.660857 
L 190.559166 208.516351 
L 190.651483 208.405847 
L 190.755493 208.269841 
L 190.86135 208.159337 
L 190.964744 208.014831 
L 191.065677 207.904326 
L 191.174611 207.76832 
L 191.283544 207.657816 
L 191.386323 207.589813 
L 191.545724 207.479309 
L 191.655273 207.2838 
L 191.710663 207.173296 
L 191.820827 207.071292 
L 191.92176 206.960787 
L 192.019616 206.850283 
L 192.121164 206.739778 
L 192.223943 206.569771 
L 192.356879 206.459266 
L 192.460274 206.280759 
L 192.604903 206.170254 
L 192.710144 206.093751 
L 192.909548 205.983247 
L 193.014789 205.838741 
L 193.14834 205.728236 
L 193.25912 205.58373 
L 193.3699 205.473226 
L 193.472064 205.32872 
L 193.630849 205.218215 
L 193.738551 205.116211 
L 193.890566 205.005706 
L 193.997038 204.895202 
L 194.13859 204.784697 
L 194.245677 204.699694 
L 194.395846 204.589189 
L 194.502933 204.453183 
L 194.656794 204.342679 
L 194.760189 204.181172 
L 194.874661 204.070668 
L 194.981133 203.968663 
L 195.164536 203.858159 
L 195.269161 203.739154 
L 195.354092 203.63715 
L 195.459333 203.492644 
L 195.584269 203.382139 
L 195.679047 203.246134 
L 195.82183 203.135629 
L 195.921532 202.957122 
L 196.080932 202.846617 
L 196.177557 202.753113 
L 196.347419 202.642609 
L 196.456968 202.489602 
L 196.539438 202.379098 
L 196.648987 202.260093 
L 196.760998 202.149588 
L 196.858238 202.013583 
L 196.955478 201.903078 
L 197.041641 201.784073 
L 197.161037 201.673569 
L 197.267509 201.46106 
L 197.369672 201.359056 
L 197.468759 201.23155 
L 197.577692 201.138046 
L 197.685395 201.036042 
L 197.766018 200.925538 
L 197.862028 200.823533 
L 197.993117 200.713029 
L 198.087896 200.619525 
L 198.23991 200.50902 
L 198.346382 200.296512 
L 198.428236 200.186007 
L 198.535324 200.084003 
L 198.644873 199.973498 
L 198.750729 199.854493 
L 198.862125 199.743989 
L 198.969827 199.607983 
L 199.046142 199.505979 
L 199.153845 199.335972 
L 199.260317 199.225467 
L 199.364327 199.072461 
L 199.453566 198.961956 
L 199.560654 198.842952 
L 199.681281 198.732447 
L 199.780983 198.681445 
L 199.948999 198.57094 
L 200.050547 198.434935 
L 200.133017 198.32443 
L 200.235796 198.230926 
L 200.370578 198.120422 
L 200.475204 197.958915 
L 200.569982 197.84841 
L 200.673992 197.763407 
L 200.821084 197.652902 
L 200.927555 197.499896 
L 201.043874 197.389391 
L 201.135576 197.244885 
L 201.239586 197.134381 
L 201.318362 197.057878 
L 201.461761 196.947373 
L 201.567617 196.853869 
L 201.704861 196.743365 
L 201.808256 196.641361 
L 201.904881 196.530856 
L 202.005814 196.471353 
L 202.139981 196.360849 
L 202.245221 196.182342 
L 202.349847 196.071837 
L 202.459396 195.944332 
L 202.584331 195.833827 
L 202.68588 195.714822 
L 202.874205 195.604318 
L 202.981293 195.485313 
L 203.204699 195.374808 
L 203.28963 195.221802 
L 203.463801 195.111297 
L 203.560426 194.983792 
L 203.655204 194.873287 
L 203.764753 194.745782 
L 203.950002 194.635278 
L 204.060167 194.465271 
L 204.209104 194.354766 
L 204.316807 194.286763 
L 204.460205 194.176259 
L 204.558676 194.057254 
L 204.672534 193.946749 
L 204.766081 193.827744 
L 204.881785 193.71724 
L 204.983948 193.615235 
L 205.120577 193.504731 
L 205.230741 193.368725 
L 205.334752 193.258221 
L 205.44307 193.156216 
L 205.551388 193.045712 
L 205.660322 192.918207 
L 205.788949 192.807702 
L 205.881881 192.663196 
L 206.005586 192.552691 
L 206.114519 192.493189 
L 206.208682 192.382684 
L 206.307153 192.246679 
L 206.435781 192.136174 
L 206.545946 192.017169 
L 206.756428 191.906665 
L 206.853052 191.813161 
L 206.998913 191.702656 
L 207.109077 191.515649 
L 207.211241 191.405144 
L 207.315251 191.320141 
L 207.430339 191.209636 
L 207.530657 191.039629 
L 207.653745 190.929124 
L 207.759602 190.844121 
L 207.888845 190.733616 
L 207.991624 190.57211 
L 208.09625 190.461605 
L 208.20703 190.385102 
L 208.357814 190.274597 
L 208.462439 190.147092 
L 208.575681 190.036587 
L 208.679075 189.909082 
L 208.818166 189.798578 
L 208.92833 189.713574 
L 209.15666 189.60307 
L 209.261901 189.467064 
L 209.36468 189.356559 
L 209.469306 189.220554 
L 209.562853 189.110049 
L 209.645938 188.991044 
L 209.771489 188.88054 
L 209.879192 188.795536 
L 210.033668 188.693532 
L 210.141371 188.549026 
L 210.268152 188.438521 
L 210.373393 188.345018 
L 210.485404 188.234513 
L 210.590645 188.056006 
L 210.760508 187.945501 
L 210.871288 187.834996 
L 211.001762 187.732992 
L 211.108849 187.554485 
L 211.186395 187.44398 
L 211.292252 187.341976 
L 211.402416 187.231472 
L 211.50458 187.061465 
L 211.660287 186.95096 
L 211.761836 186.882957 
L 211.900926 186.772453 
L 212.001243 186.636447 
L 212.07202 186.525942 
L 212.160028 186.423938 
L 212.311427 186.313434 
L 212.421592 186.194429 
L 212.508369 186.083924 
L 212.614226 185.99042 
L 212.78655 185.879916 
L 212.894868 185.74391 
L 212.991493 185.641906 
L 213.093657 185.531401 
L 213.219208 185.420897 
L 213.275213 185.378395 
L 213.505389 185.26789 
L 213.613092 185.123384 
L 213.728795 185.01288 
L 213.837729 184.851373 
L 213.930661 184.740869 
L 214.03344 184.638864 
L 214.155914 184.52836 
L 214.255 184.443356 
L 214.450096 184.332852 
L 214.559645 184.205346 
L 214.702428 184.094842 
L 214.803361 183.924835 
L 214.967685 183.81433 
L 215.073541 183.644323 
L 215.276022 183.533819 
L 215.380032 183.431814 
L 215.490812 183.32131 
L 215.596053 183.202305 
L 215.77207 183.0918 
L 215.871772 183.023798 
L 216.021325 182.913293 
L 216.123489 182.760287 
L 216.274888 182.649782 
L 216.370897 182.530777 
L 216.552454 182.420273 
L 216.662618 182.284267 
L 216.795554 182.173762 
L 216.900795 182.029257 
L 216.994958 181.918752 
L 217.102661 181.799747 
L 217.146357 181.689242 
L 217.252829 181.578738 
L 217.356839 181.468233 
L 217.467619 181.289726 
L 217.590092 181.179221 
L 217.694718 181.068717 
L 217.862734 180.958212 
L 217.968591 180.813706 
L 218.083063 180.711702 
L 218.175995 180.609698 
L 218.325548 180.499193 
L 218.428943 180.371688 
L 218.515105 180.261183 
L 218.612961 180.159179 
L 218.782208 180.048675 
L 218.892372 179.912669 
L 219.020385 179.802164 
L 219.12501 179.69166 
L 219.232098 179.581155 
L 219.334261 179.496152 
L 219.486276 179.385647 
L 219.595825 179.266642 
L 219.739839 179.156138 
L 219.842618 179.071134 
L 219.994018 178.96063 
L 220.095566 178.858625 
L 220.257428 178.748121 
L 220.359592 178.663117 
L 220.502375 178.552613 
L 220.603307 178.391106 
L 220.728243 178.280602 
L 220.824867 178.136096 
L 221.02304 178.025591 
L 221.12705 177.940587 
L 221.226752 177.830083 
L 221.331993 177.626074 
L 221.455082 177.51557 
L 221.554169 177.379564 
L 221.690182 177.26906 
L 221.797269 177.167056 
L 221.907434 177.065051 
L 222.018214 176.929046 
L 222.157304 176.818541 
L 222.258852 176.716537 
L 222.355477 176.606032 
L 222.449025 176.495528 
L 222.588115 176.385023 
L 222.68474 176.291519 
L 222.836139 176.181015 
L 222.933379 176.104512 
L 223.081701 175.994007 
L 223.182634 175.875002 
L 223.353728 175.789999 
L 223.457738 175.636992 
L 223.57098 175.526488 
L 223.671912 175.458485 
L 223.816542 175.34798 
L 223.905166 175.237476 
L 224.087953 175.126971 
L 224.18827 174.999466 
L 224.405522 174.888961 
L 224.510147 174.786957 
L 224.642468 174.676453 
L 224.7354 174.591449 
L 224.837564 174.480944 
L 224.93665 174.404441 
L 225.126207 174.293937 
L 225.236987 174.14093 
L 225.415466 174.030426 
L 225.520707 173.945422 
L 225.637641 173.834918 
L 225.744113 173.707413 
L 225.888742 173.596908 
L 225.985983 173.545906 
L 226.112764 173.435401 
L 226.214312 173.333397 
L 226.396484 173.222892 
L 226.50234 173.095387 
L 226.712207 172.984883 
L 226.806985 172.899879 
L 227.005774 172.789375 
L 227.095013 172.67887 
L 227.234719 172.568365 
L 227.330728 172.457861 
L 227.514131 172.347356 
L 227.621833 172.262353 
L 227.738152 172.151848 
L 227.841547 172.041344 
L 227.990485 171.930839 
L 228.100649 171.820335 
L 228.239739 171.70983 
L 228.317901 171.658828 
L 228.579465 171.548323 
L 228.681013 171.395317 
L 228.779484 171.284812 
L 228.871185 171.208309 
L 228.964733 171.097805 
L 229.070589 171.004301 
L 229.185677 170.893796 
L 229.287226 170.817293 
L 229.441087 170.706788 
L 229.544481 170.613285 
L 229.710651 170.50278 
L 229.81343 170.400776 
L 229.983908 170.290271 
L 230.072532 170.196767 
L 230.281168 170.086263 
L 230.365484 170.001259 
L 230.507651 169.890755 
L 230.593814 169.797251 
L 230.750136 169.686746 
L 230.854147 169.567741 
L 231.031394 169.457237 
L 231.138482 169.321231 
L 231.266494 169.210727 
L 231.350195 169.134223 
L 231.521904 169.032219 
L 231.630222 168.921715 
L 231.702229 168.81121 
L 231.813009 168.692205 
L 231.907787 168.581701 
L 232.017336 168.505197 
L 232.122577 168.394693 
L 232.22351 168.258687 
L 232.3626 168.148183 
L 232.47338 168.003677 
L 232.585391 167.893172 
L 232.69494 167.816669 
L 232.83957 167.706164 
L 232.944811 167.59566 
L 233.057437 167.485155 
L 233.162678 167.408652 
L 233.326386 167.298148 
L 233.42855 167.136641 
L 233.544253 167.026136 
L 233.649494 166.907131 
L 233.757812 166.796627 
L 233.859361 166.686122 
L 234.069843 166.575618 
L 234.175699 166.456613 
L 234.283402 166.346108 
L 234.373872 166.252604 
L 234.506808 166.1421 
L 234.608356 166.023095 
L 234.762217 165.91259 
L 234.869305 165.810586 
L 234.989316 165.708582 
L 235.094557 165.547075 
L 235.295192 165.436571 
L 235.401049 165.326066 
L 235.54137 165.215561 
L 235.648457 165.088056 
L 235.740158 164.977552 
L 235.846015 164.901048 
L 235.930331 164.790544 
L 236.027571 164.663039 
L 236.111887 164.552534 
L 236.20605 164.501532 
L 236.378989 164.391027 
L 236.488538 164.306024 
L 236.71256 164.195519 
L 236.817186 164.068014 
L 236.96797 163.957509 
L 237.07198 163.847005 
L 237.240611 163.7365 
L 237.351391 163.625996 
L 237.506483 163.515491 
L 237.590184 163.447488 
L 237.767432 163.336984 
L 237.849286 163.192478 
L 237.990838 163.081973 
L 238.09731 162.962968 
L 238.248709 162.860964 
L 238.345334 162.724959 
L 238.509042 162.614454 
L 238.604436 162.52945 
L 238.765067 162.418946 
L 238.870923 162.28294 
L 239.022938 162.172436 
L 239.128179 162.03643 
L 239.213726 161.925926 
L 239.312812 161.823921 
L 239.498676 161.713417 
L 239.597763 161.645414 
L 239.783011 161.534909 
L 239.885791 161.381903 
L 240.013188 161.271398 
L 240.115351 161.160894 
L 240.288291 161.050389 
L 240.393532 160.922884 
L 240.547393 160.812379 
L 240.656327 160.744377 
L 240.821266 160.633872 
L 240.928353 160.548869 
L 241.09083 160.438364 
L 241.191148 160.327859 
L 241.321007 160.217355 
L 241.417631 160.157852 
L 241.562876 160.047348 
L 241.673041 159.919843 
L 241.832441 159.809338 
L 241.940759 159.732835 
L 242.108775 159.62233 
L 242.207862 159.537327 
L 242.338951 159.426822 
L 242.445423 159.358819 
L 242.620825 159.248315 
L 242.72545 159.13781 
L 242.874388 159.027306 
L 242.980244 158.8913 
L 243.108257 158.780796 
L 243.214113 158.661791 
L 243.325508 158.551286 
L 243.434442 158.457782 
L 243.523681 158.347278 
L 243.630153 158.262274 
L 243.744626 158.15177 
L 243.854175 158.041265 
L 243.96434 157.93076 
L 244.035116 157.854257 
L 244.184053 157.743753 
L 244.275754 157.658749 
L 244.437001 157.548245 
L 244.540395 157.43774 
L 244.736107 157.327235 
L 244.83827 157.182729 
L 244.995209 157.072225 
L 245.105989 156.95322 
L 245.268466 156.842715 
L 245.371245 156.72371 
L 245.522029 156.613206 
L 245.630963 156.4772 
L 245.781131 156.366696 
L 245.885141 156.23069 
L 245.998998 156.120186 
L 246.103624 155.99268 
L 246.191017 155.882176 
L 246.281487 155.780171 
L 246.47289 155.678167 
L 246.560899 155.593164 
L 246.719068 155.482659 
L 246.816924 155.355154 
L 247.02679 155.244649 
L 247.132646 155.176647 
L 247.242196 155.066142 
L 247.352976 154.989639 
L 247.487758 154.879134 
L 247.595461 154.76863 
L 247.776401 154.658125 
L 247.857024 154.564621 
L 247.96165 154.454117 
L 248.071814 154.318111 
L 248.196134 154.207606 
L 248.276757 154.139604 
L 248.525397 154.029099 
L 248.636177 153.927095 
L 248.740802 153.81659 
L 248.84112 153.706086 
L 248.976517 153.595581 
L 249.086066 153.510578 
L 249.167921 153.400073 
L 249.268238 153.247067 
L 249.439331 153.136562 
L 249.54765 153.026058 
L 249.69351 152.915553 
L 249.802444 152.796548 
L 249.929225 152.686044 
L 250.03939 152.626541 
L 250.164325 152.516037 
L 250.251718 152.414032 
L 250.494818 152.303528 
L 250.600059 152.227025 
L 250.820388 152.11652 
L 250.909012 152.048517 
L 251.029639 151.938013 
L 251.113955 151.802007 
L 251.310282 151.691502 
L 251.401368 151.632 
L 251.569384 151.521495 
L 251.663547 151.419491 
L 251.864182 151.308987 
L 251.95896 151.215483 
L 252.069125 151.104978 
L 252.158364 151.036975 
L 252.33992 150.926471 
L 252.448854 150.866968 
L 252.565788 150.756464 
L 252.675337 150.620458 
L 252.913514 150.509954 
L 253.016293 150.450451 
L 253.144306 150.339947 
L 253.242777 150.18694 
L 253.381252 150.076436 
L 253.491416 149.965931 
L 253.641585 149.855427 
L 253.725901 149.719421 
L 253.894532 149.608916 
L 253.995465 149.532413 
L 254.150557 149.421909 
L 254.245335 149.311404 
L 254.501976 149.2009 
L 254.601678 149.124396 
L 254.791234 149.013892 
L 254.873089 148.911888 
L 255.060799 148.801383 
L 255.171579 148.656877 
L 255.289129 148.546372 
L 255.395601 148.410367 
L 255.570387 148.299862 
L 255.661473 148.189358 
L 255.81041 148.078853 
L 255.906419 147.968349 
L 256.01166 147.857844 
L 256.120594 147.713338 
L 256.284918 147.602833 
L 256.380927 147.483829 
L 256.555098 147.373324 
L 256.652338 147.220318 
L 256.772349 147.109813 
L 256.863435 147.050311 
L 257.084995 146.939806 
L 257.19516 146.863303 
L 257.426567 146.752798 
L 257.516422 146.616793 
L 257.691823 146.506288 
L 257.801988 146.421285 
L 257.974312 146.31928 
L 258.080784 146.191775 
L 258.187256 146.081271 
L 258.295574 145.970766 
L 258.407585 145.860261 
L 258.501748 145.749757 
L 258.649454 145.639252 
L 258.758388 145.554249 
L 258.965177 145.443744 
L 259.075957 145.35024 
L 259.20397 145.239736 
L 259.303672 145.154732 
L 259.572621 145.044228 
L 259.683401 144.933723 
L 259.829261 144.823219 
L 259.928347 144.678713 
L 260.09144 144.576708 
L 260.191758 144.398201 
L 260.344388 144.287696 
L 260.452091 144.177192 
L 260.582565 144.075188 
L 260.686575 143.973183 
L 260.789969 143.862679 
L 260.879209 143.786176 
L 261.029993 143.675671 
L 261.133387 143.548166 
L 261.279248 143.446162 
L 261.370333 143.361158 
L 261.550043 143.250654 
L 261.641129 143.17415 
L 261.786374 143.072146 
L 261.894692 142.995643 
L 262.023935 142.885138 
L 262.11379 142.800135 
L 262.310732 142.68963 
L 262.408588 142.570625 
L 262.581528 142.460121 
L 262.691692 142.366617 
L 262.833244 142.256112 
L 262.940332 142.19661 
L 263.057881 142.094606 
L 263.140351 142.018103 
L 263.411762 141.907598 
L 263.521926 141.797093 
L 263.647477 141.686589 
L 263.750256 141.533583 
L 263.934274 141.423078 
L 264.024129 141.321074 
L 264.206916 141.210569 
L 264.317696 141.083064 
L 264.475865 140.972559 
L 264.581106 140.853554 
L 264.712811 140.74305 
L 264.81559 140.632545 
L 264.916523 140.522041 
L 265.026687 140.394535 
L 265.218706 140.284031 
L 265.321485 140.190527 
L 265.510427 140.080022 
L 265.620591 139.969518 
L 265.814456 139.859013 
L 265.922774 139.757009 
L 266.116024 139.646505 
L 266.221265 139.476498 
L 266.392358 139.374493 
L 266.501292 139.263989 
L 266.60961 139.153484 
L 266.714851 139.034479 
L 266.903792 138.923975 
L 266.991801 138.830471 
L 267.17705 138.719966 
L 267.263212 138.634963 
L 267.444768 138.524458 
L 267.543239 138.388453 
L 267.764799 138.277948 
L 267.871271 138.192944 
L 267.986359 138.08244 
L 268.082984 137.980436 
L 268.250384 137.869931 
L 268.360549 137.818929 
L 268.529796 137.708424 
L 268.624574 137.58942 
L 268.790129 137.478915 
L 268.89537 137.35141 
L 269.106467 137.240905 
L 269.198784 137.147401 
L 269.379109 137.036897 
L 269.486812 136.994395 
L 269.672676 136.88389 
L 269.777302 136.798887 
L 269.925624 136.688382 
L 270.028403 136.526876 
L 270.206882 136.416371 
L 270.317662 136.348368 
L 270.43398 136.237864 
L 270.539837 136.195362 
L 270.704161 136.084857 
L 270.813094 136.042356 
L 270.949107 135.931851 
L 271.056195 135.812846 
L 271.240828 135.702342 
L 271.342376 135.600337 
L 271.46608 135.489833 
L 271.559628 135.370828 
L 271.738722 135.260323 
L 271.844579 135.18382 
L 271.965206 135.073316 
L 272.054445 134.971311 
L 272.24154 134.860807 
L 272.349858 134.758803 
L 272.487718 134.648298 
L 272.588651 134.571795 
L 272.72651 134.46129 
L 272.829289 134.376287 
L 272.944378 134.265782 
L 273.055157 134.163778 
L 273.185016 134.053273 
L 273.294565 133.900267 
L 273.470582 133.789762 
L 273.559822 133.72176 
L 273.745686 133.611255 
L 273.850311 133.500751 
L 273.947552 133.390246 
L 274.042945 133.279741 
L 274.198653 133.169237 
L 274.308817 133.058732 
L 274.425136 132.948228 
L 274.527916 132.871725 
L 274.687316 132.76122 
L 274.788864 132.608214 
L 274.935955 132.497709 
L 275.019655 132.361703 
L 275.168593 132.251199 
L 275.278142 132.166195 
L 275.40677 132.055691 
L 275.48247 131.970687 
L 275.648024 131.860183 
L 275.756342 131.749678 
L 275.907126 131.639174 
L 276.014213 131.494668 
L 276.203155 131.384163 
L 276.281316 131.324661 
L 276.512723 131.214156 
L 276.621041 131.120652 
L 276.801367 131.010148 
L 276.907223 130.891143 
L 277.093087 130.780638 
L 277.19402 130.687134 
L 277.29803 130.57663 
L 277.398963 130.534128 
L 277.614368 130.423623 
L 277.691299 130.381122 
L 277.834082 130.270617 
L 277.933168 130.194114 
L 278.120879 130.083609 
L 278.230428 129.998606 
L 278.451988 129.888101 
L 278.554152 129.735095 
L 278.698166 129.641591 
L 278.80833 129.488585 
L 278.929573 129.37808 
L 279.037891 129.233574 
L 279.254527 129.12307 
L 279.359768 129.055067 
L 279.5284 128.944562 
L 279.626256 128.834058 
L 279.814581 128.723553 
L 279.917361 128.587547 
L 280.004754 128.477043 
L 280.086608 128.366538 
L 280.328477 128.256034 
L 280.426948 128.179531 
L 280.650355 128.069026 
L 280.759904 127.975522 
L 280.955 127.865018 
L 281.055317 127.771514 
L 281.289186 127.661009 
L 281.353192 127.593006 
L 281.569213 127.482502 
L 281.670761 127.405999 
L 281.859703 127.295494 
L 281.961866 127.210491 
L 282.176041 127.099986 
L 282.275128 127.031983 
L 282.494841 126.921479 
L 282.586542 126.844975 
L 282.702246 126.734471 
L 282.809949 126.623966 
L 282.917651 126.513462 
L 283.021661 126.436959 
L 283.223527 126.326454 
L 283.323844 126.24145 
L 283.462319 126.130946 
L 283.573099 126.037442 
L 283.698035 125.926937 
L 283.801429 125.807933 
L 283.932519 125.697428 
L 284.028528 125.637926 
L 284.238395 125.527421 
L 284.346713 125.433917 
L 284.498728 125.323413 
L 284.60643 125.187407 
L 284.7726 125.076902 
L 284.87661 124.966398 
L 285.007084 124.855893 
L 285.103709 124.753889 
L 285.370812 124.643384 
L 285.481592 124.498878 
L 285.675457 124.388374 
L 285.772082 124.277869 
L 285.897632 124.167365 
L 286.007181 124.031359 
L 286.179506 123.920855 
L 286.290286 123.81035 
L 286.481689 123.699845 
L 286.591853 123.589341 
L 286.754331 123.478836 
L 286.855263 123.342831 
L 287.007278 123.232326 
L 287.111288 123.08782 
L 287.265765 122.977316 
L 287.36362 122.883812 
L 287.553793 122.773307 
L 287.64057 122.696804 
L 287.759966 122.586299 
L 287.869516 122.526797 
L 287.996913 122.416292 
L 288.102153 122.297287 
L 288.256015 122.186783 
L 288.364333 122.016776 
L 288.529887 121.906271 
L 288.63759 121.821268 
L 288.83884 121.710763 
L 288.933003 121.617259 
L 289.169949 121.506755 
L 289.270882 121.430252 
L 289.446899 121.319747 
L 289.536754 121.192242 
L 289.706001 121.081737 
L 289.80201 120.988233 
L 290.020493 120.877729 
L 290.130658 120.741723 
L 290.275903 120.631219 
L 290.384836 120.478212 
L 290.536851 120.367708 
L 290.624244 120.240202 
L 290.77749 120.129698 
L 290.869806 120.070195 
L 291.015666 119.959691 
L 291.120907 119.840686 
L 291.274153 119.730181 
L 291.360315 119.585675 
L 291.477865 119.475171 
L 291.586799 119.339165 
L 291.801589 119.228661 
L 291.911138 119.118156 
L 292.036073 119.007651 
L 292.122851 118.948149 
L 292.348103 118.837644 
L 292.428111 118.769642 
L 292.609052 118.667637 
L 292.704445 118.591134 
L 292.817072 118.48063 
L 292.921697 118.404126 
L 293.070019 118.293622 
L 293.174645 118.166117 
L 293.362355 118.055612 
L 293.46575 118.00461 
L 293.628227 117.894105 
L 293.734699 117.7751 
L 293.945796 117.664596 
L 294.030728 117.622094 
L 294.288599 117.51159 
L 294.388301 117.443587 
L 294.566164 117.333082 
L 294.675713 117.231078 
L 294.820958 117.120573 
L 294.92743 117.010069 
L 295.080676 116.899564 
L 295.18407 116.831561 
L 295.354548 116.721057 
L 295.458558 116.602052 
L 295.558876 116.491547 
L 295.664732 116.432045 
L 295.842596 116.32154 
L 295.952145 116.219536 
L 296.16755 116.109032 
L 296.258636 116.049529 
L 296.426037 115.939025 
L 296.5282 115.871022 
L 296.700525 115.760517 
L 296.809458 115.701015 
L 296.969474 115.59051 
L 297.051943 115.514007 
L 297.278427 115.403502 
L 297.387976 115.301498 
L 297.549222 115.190994 
L 297.658156 115.10599 
L 297.800324 114.995486 
L 297.904334 114.893481 
L 298.104353 114.782977 
L 298.194823 114.646971 
L 298.497622 114.536467 
L 298.60594 114.425962 
L 298.761032 114.315457 
L 298.871812 114.221954 
L 299.005363 114.111449 
L 299.093372 114.043446 
L 299.413403 113.932942 
L 299.506951 113.873439 
L 299.695276 113.762935 
L 299.788824 113.66093 
L 299.993151 113.550426 
L 300.098392 113.41442 
L 300.305182 113.303916 
L 300.398729 113.235913 
L 300.591363 113.125408 
L 300.69722 113.040405 
L 300.806153 112.9299 
L 300.913241 112.844897 
L 301.0511 112.734392 
L 301.147725 112.67489 
L 301.340359 112.564385 
L 301.450523 112.453881 
L 301.624079 112.343376 
L 301.729935 112.258372 
L 301.954572 112.147868 
L 302.053043 112.113866 
L 302.224752 112.003362 
L 302.329378 111.943859 
L 302.47093 111.833355 
L 302.580479 111.731351 
L 302.740495 111.620846 
L 302.847582 111.544343 
L 302.994673 111.433838 
L 303.091913 111.340335 
L 303.287624 111.22983 
L 303.373787 111.161827 
L 303.512262 111.051323 
L 303.594731 111.008821 
L 303.754131 110.898316 
L 303.824292 110.813313 
L 304.102473 110.702808 
L 304.210175 110.634805 
L 304.383731 110.524301 
L 304.471739 110.456298 
L 304.746843 110.345793 
L 304.848391 110.277791 
L 305.034871 110.167286 
L 305.137034 110.099283 
L 305.354902 109.988779 
L 305.460758 109.869774 
L 305.704474 109.759269 
L 305.798021 109.657265 
L 305.9685 109.54676 
L 306.077433 109.478758 
L 306.21837 109.368253 
L 306.320534 109.257748 
L 306.48855 109.147244 
L 306.590098 109.087741 
L 306.695339 108.977237 
L 306.784579 108.892233 
L 306.967365 108.781729 
L 307.060913 108.730727 
L 307.259702 108.620222 
L 307.362481 108.552219 
L 307.518804 108.441715 
L 307.601273 108.356711 
L 307.792676 108.246207 
L 307.900379 108.144202 
L 308.163174 108.033698 
L 308.272107 107.948694 
L 308.480127 107.83819 
L 308.571213 107.770187 
L 308.745384 107.659682 
L 308.84324 107.549178 
L 308.994639 107.438673 
L 309.087571 107.36217 
L 309.281436 107.251665 
L 309.390985 107.175162 
L 309.622392 107.064658 
L 309.7104 106.988155 
L 309.883956 106.87765 
L 309.966425 106.733144 
L 310.152905 106.622639 
L 310.254453 106.546136 
L 310.404006 106.435632 
L 310.484014 106.367629 
L 310.782504 106.257124 
L 310.881591 106.189122 
L 311.044684 106.078617 
L 311.142539 106.053116 
L 311.288399 105.942611 
L 311.35179 105.90011 
L 311.569657 105.789605 
L 311.669975 105.730103 
L 311.822605 105.619598 
L 311.928461 105.509093 
L 312.130327 105.398589 
L 312.220797 105.347587 
L 312.463898 105.237082 
L 312.574678 105.160579 
L 312.765466 105.050074 
L 312.870707 104.999072 
L 313.076265 104.888568 
L 313.183352 104.812065 
L 313.356908 104.70156 
L 313.448609 104.633557 
L 313.619702 104.523053 
L 313.709557 104.44655 
L 313.862187 104.336045 
L 313.952658 104.285043 
L 314.139137 104.174538 
L 314.249302 104.072534 
L 314.401316 103.96203 
L 314.499172 103.868526 
L 314.731194 103.758021 
L 314.82905 103.690018 
L 314.994605 103.579514 
L 315.094922 103.477509 
L 315.260477 103.367005 
L 315.353409 103.307502 
L 315.651899 103.196998 
L 315.72883 103.103494 
L 315.905462 102.992989 
L 316.004549 102.890985 
L 316.15164 102.780481 
L 316.248265 102.712478 
L 316.418743 102.601973 
L 316.527676 102.508469 
L 316.712925 102.397965 
L 316.81755 102.346963 
L 317.005876 102.236458 
L 317.11481 102.117453 
L 317.310521 102.006949 
L 317.410223 101.887944 
L 317.591164 101.777439 
L 317.694558 101.658434 
L 317.811493 101.54793 
L 317.921042 101.488427 
L 318.16722 101.377923 
L 318.277384 101.30992 
L 318.467556 101.199415 
L 318.491559 101.173914 
L 318.795588 101.06341 
L 318.905753 100.995407 
L 319.070076 100.884902 
L 319.169163 100.8339 
L 319.33164 100.723396 
L 319.439343 100.655393 
L 319.641209 100.544888 
L 319.743372 100.502387 
L 319.912004 100.391882 
L 319.998166 100.306878 
L 320.269577 100.196374 
L 320.366817 100.11137 
L 320.661 100.000866 
L 320.755778 99.949864 
L 320.875174 99.839359 
L 320.982877 99.762856 
L 321.135507 99.652351 
L 321.241979 99.558848 
L 321.359529 99.448343 
L 321.459846 99.38034 
L 321.654327 99.269836 
L 321.744797 99.210333 
L 321.95651 99.099829 
L 322.051288 99.048826 
L 322.267925 98.938322 
L 322.37255 98.844818 
L 322.53872 98.734313 
L 322.6495 98.632309 
L 322.942451 98.521805 
L 323.046461 98.470803 
L 323.294486 98.360298 
L 323.386187 98.283795 
L 323.634826 98.17329 
L 323.74376 98.088287 
L 323.897005 97.977782 
L 323.987476 97.884278 
L 324.210882 97.773774 
L 324.317969 97.68027 
L 324.567224 97.569765 
L 324.655848 97.510263 
L 324.83802 97.408259 
L 324.926028 97.340256 
L 325.119893 97.229751 
L 325.195593 97.153248 
L 325.359916 97.042743 
L 325.459003 96.915238 
L 325.710104 96.804734 
L 325.820269 96.72823 
L 326.055984 96.617726 
L 326.158148 96.541223 
L 326.363706 96.430718 
L 326.471409 96.345715 
L 326.739742 96.23521 
L 326.849907 96.133206 
L 327.013 96.022701 
L 327.107163 95.971699 
L 327.347801 95.861195 
L 327.45735 95.733689 
L 327.679526 95.623185 
L 327.78969 95.546682 
L 328.099874 95.436177 
L 328.208192 95.334173 
L 328.423598 95.223668 
L 328.491912 95.138665 
L 328.71778 95.02816 
L 328.827945 94.977158 
L 329.03658 94.866654 
L 329.143052 94.798651 
L 329.295067 94.688146 
L 329.401539 94.611643 
L 329.544322 94.501138 
L 329.613251 94.450136 
L 329.81204 94.339632 
L 329.914819 94.271629 
L 330.178845 94.169625 
L 330.263161 94.084621 
L 330.487798 93.974117 
L 330.598578 93.914614 
L 330.821984 93.80411 
L 330.871219 93.727606 
L 331.095857 93.617102 
L 331.202944 93.549099 
L 331.472508 93.438595 
L 331.571595 93.353591 
L 331.83439 93.243086 
L 331.943939 93.158083 
L 332.118109 93.047578 
L 332.22212 92.928573 
L 332.435679 92.818069 
L 332.531688 92.733065 
L 332.726168 92.631061 
L 332.808638 92.512056 
L 333.064663 92.401552 
L 333.16498 92.325048 
L 333.343459 92.214544 
L 333.454239 92.172042 
L 333.650566 92.061538 
L 333.758884 91.968034 
L 333.934285 91.857529 
L 334.037065 91.798027 
L 334.26601 91.687522 
L 334.37679 91.653521 
L 334.496186 91.543016 
L 334.604504 91.407011 
L 334.877761 91.296506 
L 334.988541 91.203002 
L 335.225487 91.092498 
L 335.323343 91.024495 
L 335.544903 90.91399 
L 335.625526 90.820486 
L 335.957251 90.709982 
L 336.061261 90.684481 
L 336.231123 90.573976 
L 336.333902 90.505973 
L 336.588696 90.395469 
L 336.679782 90.267963 
L 336.83672 90.157459 
L 336.934576 90.080956 
L 337.138288 89.970451 
L 337.239836 89.876947 
L 337.447241 89.766443 
L 337.543866 89.68994 
L 337.684803 89.579435 
L 337.791274 89.519933 
L 338.144539 89.409428 
L 338.253473 89.264922 
L 338.385178 89.154417 
L 338.479956 89.086415 
L 338.68613 88.98441 
L 338.791371 88.882406 
L 338.940309 88.771902 
L 338.999391 88.7379 
L 339.323731 88.627396 
L 339.422817 88.542392 
L 339.681919 88.431888 
L 339.761927 88.355384 
L 339.955176 88.24488 
L 340.060417 88.176877 
L 340.269053 88.066372 
L 340.36937 87.99837 
L 340.617394 87.887865 
L 340.677092 87.862364 
L 340.865418 87.751859 
L 340.968197 87.700857 
L 341.239608 87.590353 
L 341.317154 87.547851 
L 341.644571 87.437346 
L 341.753504 87.352343 
L 341.944292 87.241838 
L 342.035378 87.148335 
L 342.296326 87.03783 
L 342.404029 86.978327 
L 342.612664 86.867823 
L 342.721598 86.765819 
L 342.882844 86.655314 
L 342.991778 86.578811 
L 343.174565 86.468306 
L 343.27119 86.408804 
L 343.460131 86.298299 
L 343.565988 86.247297 
L 343.841091 86.136793 
L 343.924176 86.085791 
L 344.1722 85.983786 
L 344.26144 85.898783 
L 344.492847 85.788278 
L 344.596857 85.686274 
L 344.768566 85.57577 
L 344.842419 85.533268 
L 344.996895 85.422763 
L 345.095982 85.312259 
L 345.233226 85.201754 
L 345.334159 85.133751 
L 345.670807 85.023247 
L 345.774201 84.895741 
L 346.007455 84.785237 
L 346.110234 84.683233 
L 346.238862 84.572728 
L 346.347796 84.462223 
L 346.510273 84.351719 
L 346.618591 84.283716 
L 346.753373 84.173212 
L 346.841382 84.037206 
L 347.020476 83.926701 
L 347.085713 83.8927 
L 347.333737 83.782195 
L 347.443902 83.66319 
L 347.535603 83.552686 
L 347.640228 83.493183 
L 347.855634 83.382679 
L 347.901792 83.365678 
L 348.157817 83.255174 
L 348.262443 83.153169 
L 348.608322 83.042665 
L 348.685253 83.008663 
L 348.954202 82.898159 
L 349.056981 82.821656 
L 349.266848 82.711151 
L 349.372704 82.651649 
L 349.550567 82.541144 
L 349.661347 82.498642 
L 349.895216 82.388138 
L 350.003534 82.286134 
L 350.162319 82.175629 
L 350.268791 82.099126 
L 350.414651 81.988621 
L 350.521123 81.903618 
L 350.699602 81.810114 
L 350.755607 81.72511 
L 351.014094 81.614606 
L 351.124874 81.521102 
L 351.236269 81.410597 
L 351.335356 81.342595 
L 351.469522 81.23209 
L 351.571686 81.155587 
L 351.767397 81.045082 
L 351.872023 80.960079 
L 352.026499 80.849574 
L 352.135433 80.73907 
L 352.279447 80.628565 
L 352.388381 80.543561 
L 352.585323 80.433057 
L 352.638251 80.373554 
L 352.776726 80.27155 
L 352.879505 80.161046 
L 353.067216 80.050541 
L 353.174303 79.965538 
L 353.347243 79.855033 
L 353.451868 79.753029 
L 353.60019 79.642524 
L 353.707278 79.54052 
L 353.869139 79.430015 
L 353.95961 79.370513 
L 354.184247 79.260008 
L 354.29195 79.158004 
L 354.420577 79.056 
L 354.52828 78.928495 
L 354.691373 78.81799 
L 354.79846 78.758488 
L 354.946167 78.647983 
L 355.048331 78.503477 
L 355.252043 78.392973 
L 355.356668 78.316469 
L 355.495143 78.205965 
L 355.604692 78.154963 
L 355.743167 78.044458 
L 355.853947 77.942454 
L 356.068737 77.831949 
L 356.178286 77.704444 
L 356.354303 77.59394 
L 356.463237 77.542937 
L 356.624483 77.432433 
L 356.719262 77.381431 
L 356.898971 77.270926 
L 356.986364 77.194423 
L 357.212848 77.083918 
L 357.302703 77.015916 
L 357.474412 76.905411 
L 357.585192 76.845909 
L 357.758747 76.735404 
L 357.86645 76.6249 
L 358.013541 76.514395 
L 358.122475 76.437892 
L 358.300338 76.327387 
L 358.396347 76.267885 
L 358.665296 76.15738 
L 358.724994 76.097878 
L 358.957632 75.995874 
L 359.062873 75.859868 
L 359.253661 75.749363 
L 359.325668 75.655859 
L 359.508455 75.545355 
L 359.618004 75.468852 
L 359.803253 75.358347 
L 359.900493 75.281844 
L 360.098051 75.171339 
L 360.2076 75.094836 
L 360.481472 74.984332 
L 360.557787 74.93333 
L 360.722726 74.831325 
L 360.827967 74.720821 
L 360.986137 74.610316 
L 361.096301 74.491311 
L 361.218774 74.380807 
L 361.315399 74.321304 
L 361.474799 74.2108 
L 361.571424 74.176798 
L 361.810832 74.066294 
L 361.920381 73.98129 
L 362.105014 73.870786 
L 362.205947 73.777282 
L 362.405966 73.666777 
L 362.509976 73.590274 
L 362.647836 73.47977 
L 362.754923 73.403266 
L 362.903861 73.292762 
L 363.010333 73.173757 
L 363.175887 73.063252 
L 363.254049 73.01225 
L 363.457761 72.901746 
L 363.556847 72.825242 
L 363.771637 72.714738 
L 363.876263 72.663736 
L 364.090437 72.553231 
L 364.151982 72.476728 
L 364.323691 72.366223 
L 364.430778 72.247219 
L 364.580946 72.136714 
L 364.672647 72.060211 
L 364.907747 71.949706 
L 365.016681 71.881703 
L 365.163157 71.771199 
L 365.259781 71.728697 
L 365.492419 71.618193 
L 365.556425 71.533189 
L 365.753368 71.422684 
L 365.863532 71.388683 
L 366.010008 71.278178 
L 366.108479 71.218676 
L 366.34604 71.108171 
L 366.451897 71.014668 
L 366.550983 70.904163 
L 366.65684 70.81916 
L 366.8784 70.717155 
L 366.954099 70.640652 
L 367.194123 70.530148 
L 367.285824 70.453644 
L 367.466149 70.34314 
L 367.56462 70.283637 
L 367.773871 70.173133 
L 367.871727 70.10513 
L 368.121597 69.994625 
L 368.231761 69.892621 
L 368.42378 69.782117 
L 368.509327 69.722614 
L 368.710577 69.61211 
L 368.818895 69.476104 
L 368.932137 69.365599 
L 369.023223 69.297597 
L 369.207856 69.187092 
L 369.316174 69.042586 
L 369.502038 68.932082 
L 369.611587 68.847078 
L 369.750678 68.736573 
L 369.844841 68.668571 
L 370.04486 68.558066 
L 370.146408 68.490063 
L 370.393202 68.379559 
L 370.503982 68.286055 
L 370.676306 68.17555 
L 370.779085 68.124548 
L 370.982797 68.014044 
L 371.07696 67.92904 
L 371.253593 67.827036 
L 371.358218 67.784534 
L 371.552699 67.67403 
L 371.659786 67.546524 
L 371.947814 67.43602 
L 372.027206 67.376517 
L 372.259844 67.266013 
L 372.348468 67.240512 
L 372.5251 67.130007 
L 372.616802 67.104506 
L 373.214398 66.994001 
L 373.319639 66.96 
L 373.581818 66.96 
L 373.581818 66.96 
" clip-path="url(#p38ec056f83)" style="fill: none; stroke: #1f77b4; stroke-width: 1.5; stroke-linecap: square"/>
   </g>
   <g id="line2d_26">
    <path d="M 69.218182 369.36 
L 373.581818 66.96 
" clip-path="url(#p38ec056f83)" style="fill: none; stroke-dasharray: 5.55,2.4; stroke-dashoffset: 0; stroke: #808080; stroke-width: 1.5"/>
   </g>
   <g id="patch_3">
    <path d="M 54 384.48 
L 54 51.84 
" style="fill: none; stroke: #000000; stroke-width: 0.8; stroke-linejoin: miter; stroke-linecap: square"/>
   </g>
   <g id="patch_4">
    <path d="M 388.8 384.48 
L 388.8 51.84 
" style="fill: none; stroke: #000000; stroke-width: 0.8; stroke-linejoin: miter; stroke-linecap: square"/>
   </g>
   <g id="patch_5">
    <path d="M 54 384.48 
L 388.8 384.48 
" style="fill: none; stroke: #000000; stroke-width: 0.8; stroke-linejoin: miter; stroke-linecap: square"/>
   </g>
   <g id="patch_6">
    <path d="M 54 51.84 
L 388.8 51.84 
" style="fill: none; stroke: #000000; stroke-width: 0.8; stroke-linejoin: miter; stroke-linecap: square"/>
   </g>
   <g id="text_15">
    <!-- ROC Curve - Strat by Label &amp; Patient -->
    <g transform="translate(111.329063 45.84) scale(0.12 -0.12)">
     <defs>
      <path id="DejaVuSans-4f" d="M 2522 4238 
Q 1834 4238 1429 3725 
Q 1025 3213 1025 2328 
Q 1025 1447 1429 934 
Q 1834 422 2522 422 
Q 3209 422 3611 934 
Q 4013 1447 4013 2328 
Q 4013 3213 3611 3725 
Q 3209 4238 2522 4238 
z
M 2522 4750 
Q 3503 4750 4090 4092 
Q 4678 3434 4678 2328 
Q 4678 1225 4090 567 
Q 3503 -91 2522 -91 
Q 1538 -91 948 565 
Q 359 1222 359 2328 
Q 359 3434 948 4092 
Q 1538 4750 2522 4750 
z
" transform="scale(0.015625)"/>
      <path id="DejaVuSans-43" d="M 4122 4306 
L 4122 3641 
Q 3803 3938 3442 4084 
Q 3081 4231 2675 4231 
Q 1875 4231 1450 3742 
Q 1025 3253 1025 2328 
Q 1025 1406 1450 917 
Q 1875 428 2675 428 
Q 3081 428 3442 575 
Q 3803 722 4122 1019 
L 4122 359 
Q 3791 134 3420 21 
Q 3050 -91 2638 -91 
Q 1578 -91 968 557 
Q 359 1206 359 2328 
Q 359 3453 968 4101 
Q 1578 4750 2638 4750 
Q 3056 4750 3426 4639 
Q 3797 4528 4122 4306 
z
" transform="scale(0.015625)"/>
      <path id="DejaVuSans-2d" d="M 313 2009 
L 1997 2009 
L 1997 1497 
L 313 1497 
L 313 2009 
z
" transform="scale(0.015625)"/>
      <path id="DejaVuSans-53" d="M 3425 4513 
L 3425 3897 
Q 3066 4069 2747 4153 
Q 2428 4238 2131 4238 
Q 1616 4238 1336 4038 
Q 1056 3838 1056 3469 
Q 1056 3159 1242 3001 
Q 1428 2844 1947 2747 
L 2328 2669 
Q 3034 2534 3370 2195 
Q 3706 1856 3706 1288 
Q 3706 609 3251 259 
Q 2797 -91 1919 -91 
Q 1588 -91 1214 -16 
Q 841 59 441 206 
L 441 856 
Q 825 641 1194 531 
Q 1563 422 1919 422 
Q 2459 422 2753 634 
Q 3047 847 3047 1241 
Q 3047 1584 2836 1778 
Q 2625 1972 2144 2069 
L 1759 2144 
Q 1053 2284 737 2584 
Q 422 2884 422 3419 
Q 422 4038 858 4394 
Q 1294 4750 2059 4750 
Q 2388 4750 2728 4690 
Q 3069 4631 3425 4513 
z
" transform="scale(0.015625)"/>
      <path id="DejaVuSans-62" d="M 3116 1747 
Q 3116 2381 2855 2742 
Q 2594 3103 2138 3103 
Q 1681 3103 1420 2742 
Q 1159 2381 1159 1747 
Q 1159 1113 1420 752 
Q 1681 391 2138 391 
Q 2594 391 2855 752 
Q 3116 1113 3116 1747 
z
M 1159 2969 
Q 1341 3281 1617 3432 
Q 1894 3584 2278 3584 
Q 2916 3584 3314 3078 
Q 3713 2572 3713 1747 
Q 3713 922 3314 415 
Q 2916 -91 2278 -91 
Q 1894 -91 1617 61 
Q 1341 213 1159 525 
L 1159 0 
L 581 0 
L 581 4863 
L 1159 4863 
L 1159 2969 
z
" transform="scale(0.015625)"/>
      <path id="DejaVuSans-79" d="M 2059 -325 
Q 1816 -950 1584 -1140 
Q 1353 -1331 966 -1331 
L 506 -1331 
L 506 -850 
L 844 -850 
Q 1081 -850 1212 -737 
Q 1344 -625 1503 -206 
L 1606 56 
L 191 3500 
L 800 3500 
L 1894 763 
L 2988 3500 
L 3597 3500 
L 2059 -325 
z
" transform="scale(0.015625)"/>
      <path id="DejaVuSans-4c" d="M 628 4666 
L 1259 4666 
L 1259 531 
L 3531 531 
L 3531 0 
L 628 0 
L 628 4666 
z
" transform="scale(0.015625)"/>
      <path id="DejaVuSans-26" d="M 1556 2509 
Q 1272 2256 1139 2004 
Q 1006 1753 1006 1478 
Q 1006 1022 1337 719 
Q 1669 416 2169 416 
Q 2466 416 2725 514 
Q 2984 613 3213 813 
L 1556 2509 
z
M 1997 2859 
L 3584 1234 
Q 3769 1513 3872 1830 
Q 3975 2147 3994 2503 
L 4575 2503 
Q 4538 2091 4375 1687 
Q 4213 1284 3922 891 
L 4794 0 
L 4006 0 
L 3559 459 
Q 3234 181 2878 45 
Q 2522 -91 2113 -91 
Q 1359 -91 881 339 
Q 403 769 403 1441 
Q 403 1841 612 2192 
Q 822 2544 1241 2853 
Q 1091 3050 1012 3245 
Q 934 3441 934 3628 
Q 934 4134 1281 4442 
Q 1628 4750 2203 4750 
Q 2463 4750 2720 4694 
Q 2978 4638 3244 4525 
L 3244 3956 
Q 2972 4103 2725 4179 
Q 2478 4256 2266 4256 
Q 1938 4256 1733 4082 
Q 1528 3909 1528 3634 
Q 1528 3475 1620 3314 
Q 1713 3153 1997 2859 
z
" transform="scale(0.015625)"/>
      <path id="DejaVuSans-6e" d="M 3513 2113 
L 3513 0 
L 2938 0 
L 2938 2094 
Q 2938 2591 2744 2837 
Q 2550 3084 2163 3084 
Q 1697 3084 1428 2787 
Q 1159 2491 1159 1978 
L 1159 0 
L 581 0 
L 581 3500 
L 1159 3500 
L 1159 2956 
Q 1366 3272 1645 3428 
Q 1925 3584 2291 3584 
Q 2894 3584 3203 3211 
Q 3513 2838 3513 2113 
z
" transform="scale(0.015625)"/>
     </defs>
     <use xlink:href="#DejaVuSans-52"/>
     <use xlink:href="#DejaVuSans-4f" x="69.482422"/>
     <use xlink:href="#DejaVuSans-43" x="148.193359"/>
     <use xlink:href="#DejaVuSans-20" x="218.017578"/>
     <use xlink:href="#DejaVuSans-43" x="249.804688"/>
     <use xlink:href="#DejaVuSans-75" x="319.628906"/>
     <use xlink:href="#DejaVuSans-72" x="383.007812"/>
     <use xlink:href="#DejaVuSans-76" x="424.121094"/>
     <use xlink:href="#DejaVuSans-65" x="483.300781"/>
     <use xlink:href="#DejaVuSans-20" x="544.824219"/>
     <use xlink:href="#DejaVuSans-2d" x="576.611328"/>
     <use xlink:href="#DejaVuSans-20" x="612.695312"/>
     <use xlink:href="#DejaVuSans-53" x="644.482422"/>
     <use xlink:href="#DejaVuSans-74" x="707.958984"/>
     <use xlink:href="#DejaVuSans-72" x="747.167969"/>
     <use xlink:href="#DejaVuSans-61" x="788.28125"/>
     <use xlink:href="#DejaVuSans-74" x="849.560547"/>
     <use xlink:href="#DejaVuSans-20" x="888.769531"/>
     <use xlink:href="#DejaVuSans-62" x="920.556641"/>
     <use xlink:href="#DejaVuSans-79" x="984.033203"/>
     <use xlink:href="#DejaVuSans-20" x="1043.212891"/>
     <use xlink:href="#DejaVuSans-4c" x="1075"/>
     <use xlink:href="#DejaVuSans-61" x="1130.712891"/>
     <use xlink:href="#DejaVuSans-62" x="1191.992188"/>
     <use xlink:href="#DejaVuSans-65" x="1255.46875"/>
     <use xlink:href="#DejaVuSans-6c" x="1316.992188"/>
     <use xlink:href="#DejaVuSans-20" x="1344.775391"/>
     <use xlink:href="#DejaVuSans-26" x="1376.5625"/>
     <use xlink:href="#DejaVuSans-20" x="1454.541016"/>
     <use xlink:href="#DejaVuSans-50" x="1486.328125"/>
     <use xlink:href="#DejaVuSans-61" x="1542.130859"/>
     <use xlink:href="#DejaVuSans-74" x="1603.410156"/>
     <use xlink:href="#DejaVuSans-69" x="1642.619141"/>
     <use xlink:href="#DejaVuSans-65" x="1670.402344"/>
     <use xlink:href="#DejaVuSans-6e" x="1731.925781"/>
     <use xlink:href="#DejaVuSans-74" x="1795.304688"/>
    </g>
   </g>
   <g id="legend_1">
    <g id="patch_7">
     <path d="M 61 74.518125 
L 163.86875 74.518125 
Q 165.86875 74.518125 165.86875 72.518125 
L 165.86875 58.84 
Q 165.86875 56.84 163.86875 56.84 
L 61 56.84 
Q 59 56.84 59 58.84 
L 59 72.518125 
Q 59 74.518125 61 74.518125 
z
" style="fill: #ffffff; opacity: 0.8; stroke: #cccccc; stroke-linejoin: miter"/>
    </g>
    <g id="line2d_27">
     <path d="M 63 64.938438 
L 73 64.938438 
L 83 64.938438 
" style="fill: none; stroke: #1f77b4; stroke-width: 1.5; stroke-linecap: square"/>
    </g>
    <g id="text_16">
     <!-- AUC = 0.5889 -->
     <g transform="translate(91 68.438438) scale(0.1 -0.1)">
      <defs>
       <path id="DejaVuSans-41" d="M 2188 4044 
L 1331 1722 
L 3047 1722 
L 2188 4044 
z
M 1831 4666 
L 2547 4666 
L 4325 0 
L 3669 0 
L 3244 1197 
L 1141 1197 
L 716 0 
L 50 0 
L 1831 4666 
z
" transform="scale(0.015625)"/>
       <path id="DejaVuSans-55" d="M 556 4666 
L 1191 4666 
L 1191 1831 
Q 1191 1081 1462 751 
Q 1734 422 2344 422 
Q 2950 422 3222 751 
Q 3494 1081 3494 1831 
L 3494 4666 
L 4128 4666 
L 4128 1753 
Q 4128 841 3676 375 
Q 3225 -91 2344 -91 
Q 1459 -91 1007 375 
Q 556 841 556 1753 
L 556 4666 
z
" transform="scale(0.015625)"/>
       <path id="DejaVuSans-3d" d="M 678 2906 
L 4684 2906 
L 4684 2381 
L 678 2381 
L 678 2906 
z
M 678 1631 
L 4684 1631 
L 4684 1100 
L 678 1100 
L 678 1631 
z
" transform="scale(0.015625)"/>
       <path id="DejaVuSans-35" d="M 691 4666 
L 3169 4666 
L 3169 4134 
L 1269 4134 
L 1269 2991 
Q 1406 3038 1543 3061 
Q 1681 3084 1819 3084 
Q 2600 3084 3056 2656 
Q 3513 2228 3513 1497 
Q 3513 744 3044 326 
Q 2575 -91 1722 -91 
Q 1428 -91 1123 -41 
Q 819 9 494 109 
L 494 744 
Q 775 591 1075 516 
Q 1375 441 1709 441 
Q 2250 441 2565 725 
Q 2881 1009 2881 1497 
Q 2881 1984 2565 2268 
Q 2250 2553 1709 2553 
Q 1456 2553 1204 2497 
Q 953 2441 691 2322 
L 691 4666 
z
" transform="scale(0.015625)"/>
       <path id="DejaVuSans-39" d="M 703 97 
L 703 672 
Q 941 559 1184 500 
Q 1428 441 1663 441 
Q 2288 441 2617 861 
Q 2947 1281 2994 2138 
Q 2813 1869 2534 1725 
Q 2256 1581 1919 1581 
Q 1219 1581 811 2004 
Q 403 2428 403 3163 
Q 403 3881 828 4315 
Q 1253 4750 1959 4750 
Q 2769 4750 3195 4129 
Q 3622 3509 3622 2328 
Q 3622 1225 3098 567 
Q 2575 -91 1691 -91 
Q 1453 -91 1209 -44 
Q 966 3 703 97 
z
M 1959 2075 
Q 2384 2075 2632 2365 
Q 2881 2656 2881 3163 
Q 2881 3666 2632 3958 
Q 2384 4250 1959 4250 
Q 1534 4250 1286 3958 
Q 1038 3666 1038 3163 
Q 1038 2656 1286 2365 
Q 1534 2075 1959 2075 
z
" transform="scale(0.015625)"/>
      </defs>
      <use xlink:href="#DejaVuSans-41"/>
      <use xlink:href="#DejaVuSans-55" x="68.408203"/>
      <use xlink:href="#DejaVuSans-43" x="141.601562"/>
      <use xlink:href="#DejaVuSans-20" x="211.425781"/>
      <use xlink:href="#DejaVuSans-3d" x="243.212891"/>
      <use xlink:href="#DejaVuSans-20" x="327.001953"/>
      <use xlink:href="#DejaVuSans-30" x="358.789062"/>
      <use xlink:href="#DejaVuSans-2e" x="422.412109"/>
      <use xlink:href="#DejaVuSans-35" x="454.199219"/>
      <use xlink:href="#DejaVuSans-38" x="517.822266"/>
      <use xlink:href="#DejaVuSans-38" x="581.445312"/>
      <use xlink:href="#DejaVuSans-39" x="645.068359"/>
     </g>
    </g>
   </g>
  </g>
 </g>
 <defs>
  <clipPath id="p38ec056f83">
   <rect x="54" y="51.84" width="334.8" height="332.64"/>
  </clipPath>
 </defs>
</svg>
