<?xml version="1.0" encoding="utf-8" standalone="no"?>
<!DOCTYPE svg PUBLIC "-//W3C//DTD SVG 1.1//EN"
  "http://www.w3.org/Graphics/SVG/1.1/DTD/svg11.dtd">
<svg xmlns:xlink="http://www.w3.org/1999/xlink" width="460.8pt" height="345.6pt" viewBox="0 0 460.8 345.6" xmlns="http://www.w3.org/2000/svg" version="1.1">
 <metadata>
  <rdf:RDF xmlns:dc="http://purl.org/dc/elements/1.1/" xmlns:cc="http://creativecommons.org/ns#" xmlns:rdf="http://www.w3.org/1999/02/22-rdf-syntax-ns#">
   <cc:Work>
    <dc:type rdf:resource="http://purl.org/dc/dcmitype/StillImage"/>
    <dc:date>2025-07-01T11:23:01.300445</dc:date>
    <dc:format>image/svg+xml</dc:format>
    <dc:creator>
     <cc:Agent>
      <dc:title>Matplotlib v3.7.5, https://matplotlib.org/</dc:title>
     </cc:Agent>
    </dc:creator>
   </cc:Work>
  </rdf:RDF>
 </metadata>
 <defs>
  <style type="text/css">*{stroke-linejoin: round; stroke-linecap: butt}</style>
 </defs>
 <g id="figure_1">
  <g id="patch_1">
   <path d="M 0 345.6 
L 460.8 345.6 
L 460.8 0 
L 0 0 
z
" style="fill: #ffffff"/>
  </g>
  <g id="axes_1">
   <g id="patch_2">
    <path d="M 57.6 307.584 
L 414.72 307.584 
L 414.72 41.472 
L 57.6 41.472 
z
" style="fill: #ffffff"/>
   </g>
   <g id="matplotlib.axis_1">
    <g id="xtick_1">
     <g id="line2d_1">
      <path d="M 73.832727 307.584 
L 73.832727 41.472 
" clip-path="url(#p99f5609f84)" style="fill: none; stroke: #b0b0b0; stroke-width: 0.8; stroke-linecap: square"/>
     </g>
     <g id="line2d_2">
      <defs>
       <path id="mc64326cc22" d="M 0 0 
L 0 3.5 
" style="stroke: #000000; stroke-width: 0.8"/>
      </defs>
      <g>
       <use xlink:href="#mc64326cc22" x="73.832727" y="307.584" style="stroke: #000000; stroke-width: 0.8"/>
      </g>
     </g>
     <g id="text_1">
      <!-- 0.0 -->
      <g transform="translate(65.881165 322.182437) scale(0.1 -0.1)">
       <defs>
        <path id="DejaVuSans-30" d="M 2034 4250 
Q 1547 4250 1301 3770 
Q 1056 3291 1056 2328 
Q 1056 1369 1301 889 
Q 1547 409 2034 409 
Q 2525 409 2770 889 
Q 3016 1369 3016 2328 
Q 3016 3291 2770 3770 
Q 2525 4250 2034 4250 
z
M 2034 4750 
Q 2819 4750 3233 4129 
Q 3647 3509 3647 2328 
Q 3647 1150 3233 529 
Q 2819 -91 2034 -91 
Q 1250 -91 836 529 
Q 422 1150 422 2328 
Q 422 3509 836 4129 
Q 1250 4750 2034 4750 
z
" transform="scale(0.015625)"/>
        <path id="DejaVuSans-2e" d="M 684 794 
L 1344 794 
L 1344 0 
L 684 0 
L 684 794 
z
" transform="scale(0.015625)"/>
       </defs>
       <use xlink:href="#DejaVuSans-30"/>
       <use xlink:href="#DejaVuSans-2e" x="63.623047"/>
       <use xlink:href="#DejaVuSans-30" x="95.410156"/>
      </g>
     </g>
    </g>
    <g id="xtick_2">
     <g id="line2d_3">
      <path d="M 138.763636 307.584 
L 138.763636 41.472 
" clip-path="url(#p99f5609f84)" style="fill: none; stroke: #b0b0b0; stroke-width: 0.8; stroke-linecap: square"/>
     </g>
     <g id="line2d_4">
      <g>
       <use xlink:href="#mc64326cc22" x="138.763636" y="307.584" style="stroke: #000000; stroke-width: 0.8"/>
      </g>
     </g>
     <g id="text_2">
      <!-- 0.2 -->
      <g transform="translate(130.812074 322.182437) scale(0.1 -0.1)">
       <defs>
        <path id="DejaVuSans-32" d="M 1228 531 
L 3431 531 
L 3431 0 
L 469 0 
L 469 531 
Q 828 903 1448 1529 
Q 2069 2156 2228 2338 
Q 2531 2678 2651 2914 
Q 2772 3150 2772 3378 
Q 2772 3750 2511 3984 
Q 2250 4219 1831 4219 
Q 1534 4219 1204 4116 
Q 875 4013 500 3803 
L 500 4441 
Q 881 4594 1212 4672 
Q 1544 4750 1819 4750 
Q 2544 4750 2975 4387 
Q 3406 4025 3406 3419 
Q 3406 3131 3298 2873 
Q 3191 2616 2906 2266 
Q 2828 2175 2409 1742 
Q 1991 1309 1228 531 
z
" transform="scale(0.015625)"/>
       </defs>
       <use xlink:href="#DejaVuSans-30"/>
       <use xlink:href="#DejaVuSans-2e" x="63.623047"/>
       <use xlink:href="#DejaVuSans-32" x="95.410156"/>
      </g>
     </g>
    </g>
    <g id="xtick_3">
     <g id="line2d_5">
      <path d="M 203.694545 307.584 
L 203.694545 41.472 
" clip-path="url(#p99f5609f84)" style="fill: none; stroke: #b0b0b0; stroke-width: 0.8; stroke-linecap: square"/>
     </g>
     <g id="line2d_6">
      <g>
       <use xlink:href="#mc64326cc22" x="203.694545" y="307.584" style="stroke: #000000; stroke-width: 0.8"/>
      </g>
     </g>
     <g id="text_3">
      <!-- 0.4 -->
      <g transform="translate(195.742983 322.182437) scale(0.1 -0.1)">
       <defs>
        <path id="DejaVuSans-34" d="M 2419 4116 
L 825 1625 
L 2419 1625 
L 2419 4116 
z
M 2253 4666 
L 3047 4666 
L 3047 1625 
L 3713 1625 
L 3713 1100 
L 3047 1100 
L 3047 0 
L 2419 0 
L 2419 1100 
L 313 1100 
L 313 1709 
L 2253 4666 
z
" transform="scale(0.015625)"/>
       </defs>
       <use xlink:href="#DejaVuSans-30"/>
       <use xlink:href="#DejaVuSans-2e" x="63.623047"/>
       <use xlink:href="#DejaVuSans-34" x="95.410156"/>
      </g>
     </g>
    </g>
    <g id="xtick_4">
     <g id="line2d_7">
      <path d="M 268.625455 307.584 
L 268.625455 41.472 
" clip-path="url(#p99f5609f84)" style="fill: none; stroke: #b0b0b0; stroke-width: 0.8; stroke-linecap: square"/>
     </g>
     <g id="line2d_8">
      <g>
       <use xlink:href="#mc64326cc22" x="268.625455" y="307.584" style="stroke: #000000; stroke-width: 0.8"/>
      </g>
     </g>
     <g id="text_4">
      <!-- 0.6 -->
      <g transform="translate(260.673892 322.182437) scale(0.1 -0.1)">
       <defs>
        <path id="DejaVuSans-36" d="M 2113 2584 
Q 1688 2584 1439 2293 
Q 1191 2003 1191 1497 
Q 1191 994 1439 701 
Q 1688 409 2113 409 
Q 2538 409 2786 701 
Q 3034 994 3034 1497 
Q 3034 2003 2786 2293 
Q 2538 2584 2113 2584 
z
M 3366 4563 
L 3366 3988 
Q 3128 4100 2886 4159 
Q 2644 4219 2406 4219 
Q 1781 4219 1451 3797 
Q 1122 3375 1075 2522 
Q 1259 2794 1537 2939 
Q 1816 3084 2150 3084 
Q 2853 3084 3261 2657 
Q 3669 2231 3669 1497 
Q 3669 778 3244 343 
Q 2819 -91 2113 -91 
Q 1303 -91 875 529 
Q 447 1150 447 2328 
Q 447 3434 972 4092 
Q 1497 4750 2381 4750 
Q 2619 4750 2861 4703 
Q 3103 4656 3366 4563 
z
" transform="scale(0.015625)"/>
       </defs>
       <use xlink:href="#DejaVuSans-30"/>
       <use xlink:href="#DejaVuSans-2e" x="63.623047"/>
       <use xlink:href="#DejaVuSans-36" x="95.410156"/>
      </g>
     </g>
    </g>
    <g id="xtick_5">
     <g id="line2d_9">
      <path d="M 333.556364 307.584 
L 333.556364 41.472 
" clip-path="url(#p99f5609f84)" style="fill: none; stroke: #b0b0b0; stroke-width: 0.8; stroke-linecap: square"/>
     </g>
     <g id="line2d_10">
      <g>
       <use xlink:href="#mc64326cc22" x="333.556364" y="307.584" style="stroke: #000000; stroke-width: 0.8"/>
      </g>
     </g>
     <g id="text_5">
      <!-- 0.8 -->
      <g transform="translate(325.604801 322.182437) scale(0.1 -0.1)">
       <defs>
        <path id="DejaVuSans-38" d="M 2034 2216 
Q 1584 2216 1326 1975 
Q 1069 1734 1069 1313 
Q 1069 891 1326 650 
Q 1584 409 2034 409 
Q 2484 409 2743 651 
Q 3003 894 3003 1313 
Q 3003 1734 2745 1975 
Q 2488 2216 2034 2216 
z
M 1403 2484 
Q 997 2584 770 2862 
Q 544 3141 544 3541 
Q 544 4100 942 4425 
Q 1341 4750 2034 4750 
Q 2731 4750 3128 4425 
Q 3525 4100 3525 3541 
Q 3525 3141 3298 2862 
Q 3072 2584 2669 2484 
Q 3125 2378 3379 2068 
Q 3634 1759 3634 1313 
Q 3634 634 3220 271 
Q 2806 -91 2034 -91 
Q 1263 -91 848 271 
Q 434 634 434 1313 
Q 434 1759 690 2068 
Q 947 2378 1403 2484 
z
M 1172 3481 
Q 1172 3119 1398 2916 
Q 1625 2713 2034 2713 
Q 2441 2713 2670 2916 
Q 2900 3119 2900 3481 
Q 2900 3844 2670 4047 
Q 2441 4250 2034 4250 
Q 1625 4250 1398 4047 
Q 1172 3844 1172 3481 
z
" transform="scale(0.015625)"/>
       </defs>
       <use xlink:href="#DejaVuSans-30"/>
       <use xlink:href="#DejaVuSans-2e" x="63.623047"/>
       <use xlink:href="#DejaVuSans-38" x="95.410156"/>
      </g>
     </g>
    </g>
    <g id="xtick_6">
     <g id="line2d_11">
      <path d="M 398.487273 307.584 
L 398.487273 41.472 
" clip-path="url(#p99f5609f84)" style="fill: none; stroke: #b0b0b0; stroke-width: 0.8; stroke-linecap: square"/>
     </g>
     <g id="line2d_12">
      <g>
       <use xlink:href="#mc64326cc22" x="398.487273" y="307.584" style="stroke: #000000; stroke-width: 0.8"/>
      </g>
     </g>
     <g id="text_6">
      <!-- 1.0 -->
      <g transform="translate(390.53571 322.182437) scale(0.1 -0.1)">
       <defs>
        <path id="DejaVuSans-31" d="M 794 531 
L 1825 531 
L 1825 4091 
L 703 3866 
L 703 4441 
L 1819 4666 
L 2450 4666 
L 2450 531 
L 3481 531 
L 3481 0 
L 794 0 
L 794 531 
z
" transform="scale(0.015625)"/>
       </defs>
       <use xlink:href="#DejaVuSans-31"/>
       <use xlink:href="#DejaVuSans-2e" x="63.623047"/>
       <use xlink:href="#DejaVuSans-30" x="95.410156"/>
      </g>
     </g>
    </g>
    <g id="text_7">
     <!-- FPR -->
     <g transform="translate(226.795156 335.860562) scale(0.1 -0.1)">
      <defs>
       <path id="DejaVuSans-46" d="M 628 4666 
L 3309 4666 
L 3309 4134 
L 1259 4134 
L 1259 2759 
L 3109 2759 
L 3109 2228 
L 1259 2228 
L 1259 0 
L 628 0 
L 628 4666 
z
" transform="scale(0.015625)"/>
       <path id="DejaVuSans-50" d="M 1259 4147 
L 1259 2394 
L 2053 2394 
Q 2494 2394 2734 2622 
Q 2975 2850 2975 3272 
Q 2975 3691 2734 3919 
Q 2494 4147 2053 4147 
L 1259 4147 
z
M 628 4666 
L 2053 4666 
Q 2838 4666 3239 4311 
Q 3641 3956 3641 3272 
Q 3641 2581 3239 2228 
Q 2838 1875 2053 1875 
L 1259 1875 
L 1259 0 
L 628 0 
L 628 4666 
z
" transform="scale(0.015625)"/>
       <path id="DejaVuSans-52" d="M 2841 2188 
Q 3044 2119 3236 1894 
Q 3428 1669 3622 1275 
L 4263 0 
L 3584 0 
L 2988 1197 
Q 2756 1666 2539 1819 
Q 2322 1972 1947 1972 
L 1259 1972 
L 1259 0 
L 628 0 
L 628 4666 
L 2053 4666 
Q 2853 4666 3247 4331 
Q 3641 3997 3641 3322 
Q 3641 2881 3436 2590 
Q 3231 2300 2841 2188 
z
M 1259 4147 
L 1259 2491 
L 2053 2491 
Q 2509 2491 2742 2702 
Q 2975 2913 2975 3322 
Q 2975 3731 2742 3939 
Q 2509 4147 2053 4147 
L 1259 4147 
z
" transform="scale(0.015625)"/>
      </defs>
      <use xlink:href="#DejaVuSans-46"/>
      <use xlink:href="#DejaVuSans-50" x="57.519531"/>
      <use xlink:href="#DejaVuSans-52" x="117.822266"/>
     </g>
    </g>
   </g>
   <g id="matplotlib.axis_2">
    <g id="ytick_1">
     <g id="line2d_13">
      <path d="M 57.6 295.488 
L 414.72 295.488 
" clip-path="url(#p99f5609f84)" style="fill: none; stroke: #b0b0b0; stroke-width: 0.8; stroke-linecap: square"/>
     </g>
     <g id="line2d_14">
      <defs>
       <path id="m9aa89895be" d="M 0 0 
L -3.5 0 
" style="stroke: #000000; stroke-width: 0.8"/>
      </defs>
      <g>
       <use xlink:href="#m9aa89895be" x="57.6" y="295.488" style="stroke: #000000; stroke-width: 0.8"/>
      </g>
     </g>
     <g id="text_8">
      <!-- 0.0 -->
      <g transform="translate(34.696875 299.287219) scale(0.1 -0.1)">
       <use xlink:href="#DejaVuSans-30"/>
       <use xlink:href="#DejaVuSans-2e" x="63.623047"/>
       <use xlink:href="#DejaVuSans-30" x="95.410156"/>
      </g>
     </g>
    </g>
    <g id="ytick_2">
     <g id="line2d_15">
      <path d="M 57.6 247.104 
L 414.72 247.104 
" clip-path="url(#p99f5609f84)" style="fill: none; stroke: #b0b0b0; stroke-width: 0.8; stroke-linecap: square"/>
     </g>
     <g id="line2d_16">
      <g>
       <use xlink:href="#m9aa89895be" x="57.6" y="247.104" style="stroke: #000000; stroke-width: 0.8"/>
      </g>
     </g>
     <g id="text_9">
      <!-- 0.2 -->
      <g transform="translate(34.696875 250.903219) scale(0.1 -0.1)">
       <use xlink:href="#DejaVuSans-30"/>
       <use xlink:href="#DejaVuSans-2e" x="63.623047"/>
       <use xlink:href="#DejaVuSans-32" x="95.410156"/>
      </g>
     </g>
    </g>
    <g id="ytick_3">
     <g id="line2d_17">
      <path d="M 57.6 198.72 
L 414.72 198.72 
" clip-path="url(#p99f5609f84)" style="fill: none; stroke: #b0b0b0; stroke-width: 0.8; stroke-linecap: square"/>
     </g>
     <g id="line2d_18">
      <g>
       <use xlink:href="#m9aa89895be" x="57.6" y="198.72" style="stroke: #000000; stroke-width: 0.8"/>
      </g>
     </g>
     <g id="text_10">
      <!-- 0.4 -->
      <g transform="translate(34.696875 202.519219) scale(0.1 -0.1)">
       <use xlink:href="#DejaVuSans-30"/>
       <use xlink:href="#DejaVuSans-2e" x="63.623047"/>
       <use xlink:href="#DejaVuSans-34" x="95.410156"/>
      </g>
     </g>
    </g>
    <g id="ytick_4">
     <g id="line2d_19">
      <path d="M 57.6 150.336 
L 414.72 150.336 
" clip-path="url(#p99f5609f84)" style="fill: none; stroke: #b0b0b0; stroke-width: 0.8; stroke-linecap: square"/>
     </g>
     <g id="line2d_20">
      <g>
       <use xlink:href="#m9aa89895be" x="57.6" y="150.336" style="stroke: #000000; stroke-width: 0.8"/>
      </g>
     </g>
     <g id="text_11">
      <!-- 0.6 -->
      <g transform="translate(34.696875 154.135219) scale(0.1 -0.1)">
       <use xlink:href="#DejaVuSans-30"/>
       <use xlink:href="#DejaVuSans-2e" x="63.623047"/>
       <use xlink:href="#DejaVuSans-36" x="95.410156"/>
      </g>
     </g>
    </g>
    <g id="ytick_5">
     <g id="line2d_21">
      <path d="M 57.6 101.952 
L 414.72 101.952 
" clip-path="url(#p99f5609f84)" style="fill: none; stroke: #b0b0b0; stroke-width: 0.8; stroke-linecap: square"/>
     </g>
     <g id="line2d_22">
      <g>
       <use xlink:href="#m9aa89895be" x="57.6" y="101.952" style="stroke: #000000; stroke-width: 0.8"/>
      </g>
     </g>
     <g id="text_12">
      <!-- 0.8 -->
      <g transform="translate(34.696875 105.751219) scale(0.1 -0.1)">
       <use xlink:href="#DejaVuSans-30"/>
       <use xlink:href="#DejaVuSans-2e" x="63.623047"/>
       <use xlink:href="#DejaVuSans-38" x="95.410156"/>
      </g>
     </g>
    </g>
    <g id="ytick_6">
     <g id="line2d_23">
      <path d="M 57.6 53.568 
L 414.72 53.568 
" clip-path="url(#p99f5609f84)" style="fill: none; stroke: #b0b0b0; stroke-width: 0.8; stroke-linecap: square"/>
     </g>
     <g id="line2d_24">
      <g>
       <use xlink:href="#m9aa89895be" x="57.6" y="53.568" style="stroke: #000000; stroke-width: 0.8"/>
      </g>
     </g>
     <g id="text_13">
      <!-- 1.0 -->
      <g transform="translate(34.696875 57.367219) scale(0.1 -0.1)">
       <use xlink:href="#DejaVuSans-31"/>
       <use xlink:href="#DejaVuSans-2e" x="63.623047"/>
       <use xlink:href="#DejaVuSans-30" x="95.410156"/>
      </g>
     </g>
    </g>
    <g id="text_14">
     <!-- TPR -->
     <g transform="translate(28.617188 184.070969) rotate(-90) scale(0.1 -0.1)">
      <defs>
       <path id="DejaVuSans-54" d="M -19 4666 
L 3928 4666 
L 3928 4134 
L 2272 4134 
L 2272 0 
L 1638 0 
L 1638 4134 
L -19 4134 
L -19 4666 
z
" transform="scale(0.015625)"/>
      </defs>
      <use xlink:href="#DejaVuSans-54"/>
      <use xlink:href="#DejaVuSans-50" x="61.083984"/>
      <use xlink:href="#DejaVuSans-52" x="121.386719"/>
     </g>
    </g>
   </g>
   <g id="line2d_25">
    <path d="M 73.832727 295.488 
L 73.858453 295.391723 
L 73.956079 295.151031 
L 74.051067 295.04673 
L 74.15397 294.789992 
L 74.212018 294.685692 
L 74.320199 294.493138 
L 74.363075 294.388838 
L 74.473234 294.091984 
L 74.526665 293.987684 
L 74.633526 293.714899 
L 74.660571 293.618622 
L 74.77073 293.217468 
L 74.817564 293.113168 
L 74.925745 292.784221 
L 74.97126 292.679921 
L 75.07944 292.479344 
L 75.154639 292.383067 
L 75.264138 292.126329 
L 75.352529 292.022028 
L 75.462029 291.709128 
L 75.500948 291.604828 
L 75.607149 291.356113 
L 75.691583 291.251813 
L 75.800423 291.003097 
L 75.847916 290.898797 
L 75.955437 290.722289 
L 76.020741 290.617989 
L 76.126283 290.345204 
L 76.210057 290.240904 
L 76.31362 290.112535 
L 76.40399 290.008235 
L 76.51217 289.815681 
L 76.622989 289.719404 
L 76.732489 289.494758 
L 76.843308 289.390457 
L 76.951488 289.229996 
L 77.061647 289.125696 
L 77.169828 288.98128 
L 77.270752 288.87698 
L 77.362441 288.740588 
L 77.443577 288.636288 
L 77.535926 288.483849 
L 77.60057 288.387572 
L 77.694239 288.267226 
L 77.843316 288.162926 
L 77.949518 287.978395 
L 78.097276 287.874095 
L 78.200839 287.721656 
L 78.315616 287.617356 
L 78.423137 287.416779 
L 78.509549 287.312479 
L 78.593323 287.200156 
L 78.714036 287.103879 
L 78.824855 286.903302 
L 78.971294 286.799002 
L 79.079475 286.606448 
L 79.192273 286.502148 
L 79.297814 286.32564 
L 79.417868 286.22134 
L 79.508898 286.125063 
L 79.689638 286.020763 
L 79.783307 285.972624 
L 79.90468 285.868324 
L 80.005604 285.69984 
L 80.108508 285.59554 
L 80.219326 285.451124 
L 80.306398 285.346824 
L 80.382257 285.226478 
L 80.526717 285.122178 
L 80.631599 285.017878 
L 80.681072 284.913578 
L 80.789912 284.785208 
L 80.844662 284.680908 
L 80.946246 284.600677 
L 81.06564 284.496377 
L 81.17514 284.416146 
L 81.297172 284.311846 
L 81.406672 284.127315 
L 81.551132 284.023015 
L 81.596647 283.958831 
L 81.777388 283.854531 
L 81.888206 283.710115 
L 81.995068 283.605815 
L 82.105886 283.493492 
L 82.198236 283.389192 
L 82.301139 283.284892 
L 82.434385 283.180592 
L 82.526734 283.092338 
L 82.688345 282.988038 
L 82.795206 282.883738 
L 82.971989 282.779438 
L 83.082808 282.667115 
L 83.20682 282.562814 
L 83.307084 282.506653 
L 83.414605 282.402353 
L 83.521466 282.29003 
L 83.662628 282.18573 
L 83.73255 282.073406 
L 83.87701 281.969106 
L 83.987829 281.856783 
L 84.122395 281.752483 
L 84.217382 281.648183 
L 84.359204 281.543883 
L 84.465406 281.415514 
L 84.560393 281.311214 
L 84.659339 281.206914 
L 84.818311 281.102613 
L 84.908681 281.006336 
L 85.031374 280.902036 
L 85.131638 280.813783 
L 85.250373 280.709482 
L 85.355255 280.605182 
L 85.484544 280.500882 
L 85.570297 280.420651 
L 85.668582 280.316351 
L 85.778082 280.179959 
L 85.897476 280.075659 
L 85.970036 279.92322 
L 86.084153 279.826943 
L 86.173864 279.71462 
L 86.338113 279.61032 
L 86.427824 279.489974 
L 86.547218 279.385674 
L 86.656718 279.249281 
L 86.789964 279.144981 
L 86.894846 279.048704 
L 87.024135 278.944404 
L 87.111207 278.888243 
L 87.268201 278.783943 
L 87.369125 278.687666 
L 87.510287 278.583366 
L 87.605275 278.479066 
L 87.711476 278.374765 
L 87.809762 278.198258 
L 87.9219 278.093958 
L 88.0314 277.989658 
L 88.131665 277.885357 
L 88.240505 277.773034 
L 88.340769 277.668734 
L 88.436417 277.58048 
L 88.55713 277.484203 
L 88.667949 277.37188 
L 88.776789 277.26758 
L 88.884969 277.155257 
L 88.987873 277.050957 
L 89.08352 276.970726 
L 89.289326 276.866426 
L 89.393549 276.754103 
L 89.552521 276.649803 
L 89.658063 276.489341 
L 89.801204 276.385041 
L 89.901469 276.264695 
L 89.998435 276.160395 
L 90.09936 276.080164 
L 90.209519 275.975864 
L 90.309124 275.895633 
L 90.408729 275.791333 
L 90.508334 275.654941 
L 90.619153 275.550641 
L 90.722716 275.422271 
L 90.921267 275.317971 
L 91.019553 275.149486 
L 91.203591 275.045186 
L 91.303856 274.892748 
L 91.396205 274.788448 
L 91.505705 274.644032 
L 91.62246 274.547755 
L 91.730641 274.443455 
L 91.810457 274.339155 
L 91.9127 274.266947 
L 92.027477 274.162647 
L 92.122465 274.034278 
L 92.299907 273.929978 
L 92.40281 273.793586 
L 92.516267 273.689285 
L 92.626427 273.560916 
L 92.733288 273.456616 
L 92.840149 273.288131 
L 92.920625 273.183831 
L 93.026166 273.1036 
L 93.150838 272.9993 
L 93.25572 272.854885 
L 93.386328 272.750585 
L 93.485933 272.638262 
L 93.679866 272.533962 
L 93.784748 272.405592 
L 93.985937 272.301292 
L 94.088181 272.213038 
L 94.228683 272.108738 
L 94.338183 271.988392 
L 94.4523 271.884092 
L 94.559821 271.803861 
L 94.697025 271.699561 
L 94.803227 271.61933 
L 94.937133 271.51503 
L 95.047952 271.458869 
L 95.129087 271.354569 
L 95.237267 271.282361 
L 95.425923 271.178061 
L 95.533444 271.113876 
L 95.644263 271.017599 
L 95.747166 270.921322 
L 95.879094 270.833068 
L 95.983316 270.720745 
L 96.128436 270.616445 
L 96.220785 270.520168 
L 96.314454 270.415868 
L 96.404164 270.279475 
L 96.567754 270.175175 
L 96.676594 269.998668 
L 96.795329 269.902391 
L 96.895593 269.765998 
L 97.013668 269.661698 
L 97.123827 269.50926 
L 97.226731 269.40496 
L 97.29995 269.348798 
L 97.417366 269.244498 
L 97.516971 269.188336 
L 97.676603 269.084036 
L 97.784783 268.971713 
L 97.928584 268.867413 
L 98.038083 268.739044 
L 98.214866 268.634744 
L 98.302598 268.54649 
L 98.483338 268.44219 
L 98.585582 268.321843 
L 98.768961 268.217543 
L 98.874502 268.129289 
L 99.098779 268.024989 
L 99.203001 267.976851 
L 99.333609 267.872551 
L 99.433214 267.768251 
L 99.579654 267.671974 
L 99.689813 267.551627 
L 99.782162 267.447327 
L 99.888363 267.343027 
L 99.951029 267.238727 
L 100.036782 267.174543 
L 100.142983 267.070243 
L 100.247206 266.965942 
L 100.472142 266.861642 
L 100.576364 266.757342 
L 100.724782 266.653042 
L 100.834282 266.548742 
L 100.978083 266.444442 
L 101.088902 266.332119 
L 101.207636 266.227819 
L 101.311199 266.147588 
L 101.501174 266.043288 
L 101.611334 265.947011 
L 101.737324 265.842711 
L 101.839568 265.754457 
L 101.991944 265.650157 
L 102.098805 265.537834 
L 102.19841 265.433534 
L 102.286801 265.353303 
L 102.459626 265.249003 
L 102.565827 265.152726 
L 102.677306 265.048426 
L 102.786146 264.92808 
L 102.90554 264.82378 
L 103.01438 264.767618 
L 103.113326 264.663318 
L 103.218208 264.526925 
L 103.327707 264.422625 
L 103.406204 264.358441 
L 103.546047 264.254141 
L 103.656206 264.165887 
L 103.83035 264.061587 
L 103.93985 263.957287 
L 104.040774 263.852987 
L 104.144997 263.748686 
L 104.330355 263.644386 
L 104.440514 263.540086 
L 104.570462 263.435786 
L 104.668088 263.331486 
L 104.836955 263.227186 
L 104.944476 263.114863 
L 105.135771 263.010563 
L 105.222183 262.914286 
L 105.367963 262.809986 
L 105.474164 262.721732 
L 105.593558 262.617432 
L 105.693163 262.481039 
L 105.835645 262.376739 
L 105.941187 262.312555 
L 106.028918 262.208255 
L 106.125885 262.103955 
L 106.270345 261.999655 
L 106.368631 261.879308 
L 106.499239 261.775008 
L 106.609398 261.686754 
L 106.731431 261.582454 
L 106.834334 261.470131 
L 107.031566 261.365831 
L 107.136448 261.213392 
L 107.290143 261.109092 
L 107.394366 260.9727 
L 107.547401 260.8684 
L 107.652943 260.7641 
L 107.772337 260.6598 
L 107.879858 260.563523 
L 108.005189 260.459223 
L 108.11271 260.362946 
L 108.279598 260.258646 
L 108.375904 260.146323 
L 108.532898 260.042022 
L 108.63844 259.90563 
L 108.719575 259.80133 
L 108.80137 259.705053 
L 109.00124 259.600753 
L 109.11008 259.48843 
L 109.346889 259.38413 
L 109.448473 259.27983 
L 109.61734 259.17553 
L 109.709689 259.079253 
L 109.8713 258.974953 
L 109.98014 258.862629 
L 110.096896 258.758329 
L 110.207055 258.646006 
L 110.317214 258.557752 
L 110.403627 258.461475 
L 110.67012 258.357175 
L 110.763788 258.260898 
L 111.011811 258.156598 
L 111.121971 258.068344 
L 111.28688 257.964044 
L 111.387804 257.859744 
L 111.536882 257.755444 
L 111.598228 257.707306 
L 111.840974 257.603005 
L 111.935302 257.450567 
L 112.04744 257.346267 
L 112.148365 257.266036 
L 112.344936 257.161736 
L 112.436626 257.049413 
L 112.552722 256.945113 
L 112.643752 256.848836 
L 112.823832 256.744536 
L 112.932672 256.616166 
L 113.121328 256.511866 
L 113.228189 256.415589 
L 113.459722 256.311289 
L 113.558008 256.198966 
L 113.775688 256.094666 
L 113.8621 255.998389 
L 114.013816 255.902112 
L 114.1154 255.829904 
L 114.35221 255.725604 
L 114.440601 255.621304 
L 114.584402 255.517004 
L 114.695221 255.388635 
L 114.798124 255.284335 
L 114.902347 255.188058 
L 115.134539 255.083758 
L 115.24008 254.987481 
L 115.394435 254.883181 
L 115.502616 254.754811 
L 115.610136 254.650511 
L 115.720296 254.49005 
L 115.842988 254.385749 
L 115.943912 254.305519 
L 116.09365 254.201219 
L 116.191276 254.104942 
L 116.313309 254.000642 
L 116.415552 253.848203 
L 116.54682 253.743903 
L 116.65566 253.63158 
L 116.755265 253.52728 
L 116.85553 253.39891 
L 116.941942 253.29461 
L 117.025716 253.206356 
L 117.128619 253.102056 
L 117.234161 253.037872 
L 117.357513 252.933572 
L 117.468332 252.805202 
L 117.56332 252.700902 
L 117.663584 252.604625 
L 117.822557 252.500325 
L 117.933376 252.412071 
L 118.018469 252.307771 
L 118.120712 252.155333 
L 118.284962 252.051033 
L 118.393142 251.986848 
L 118.580479 251.882548 
L 118.662933 251.81034 
L 118.843014 251.70604 
L 118.944598 251.609763 
L 119.076525 251.505463 
L 119.178769 251.369071 
L 119.327847 251.26477 
L 119.437347 251.16047 
L 119.533653 251.05617 
L 119.624024 250.967916 
L 119.748035 250.863616 
L 119.858854 250.799432 
L 119.986164 250.695132 
L 120.091046 250.590832 
L 120.248699 250.486531 
L 120.357539 250.382231 
L 120.4644 250.277931 
L 120.571261 250.173631 
L 120.662951 250.069331 
L 120.769152 249.981077 
L 120.876013 249.876777 
L 120.964405 249.7805 
L 121.150422 249.6762 
L 121.209789 249.595969 
L 121.465728 249.491669 
L 121.575228 249.3633 
L 121.742116 249.259 
L 121.847658 249.1547 
L 121.979585 249.058423 
L 122.087765 248.938077 
L 122.208479 248.833777 
L 122.319298 248.689361 
L 122.457821 248.585061 
L 122.548851 248.496807 
L 122.719037 248.392507 
L 122.809408 248.264138 
L 122.912311 248.159838 
L 123.011256 248.095653 
L 123.213105 247.991353 
L 123.321285 247.87903 
L 123.469044 247.77473 
L 123.577224 247.622291 
L 123.733558 247.517991 
L 123.837781 247.389622 
L 123.980922 247.285322 
L 124.088442 247.164975 
L 124.172876 247.060675 
L 124.283035 246.900214 
L 124.36483 246.795914 
L 124.461137 246.675567 
L 124.641218 246.571267 
L 124.752037 246.47499 
L 124.874069 246.37069 
L 124.984888 246.250344 
L 125.058768 246.154067 
L 125.166948 246.001628 
L 125.321962 245.897328 
L 125.427504 245.809075 
L 125.558112 245.712798 
L 125.659696 245.584428 
L 125.767877 245.496174 
L 125.866822 245.391874 
L 126.013261 245.287574 
L 126.122101 245.119089 
L 126.230282 245.014789 
L 126.332525 244.918512 
L 126.476986 244.814212 
L 126.568016 244.67782 
L 126.746117 244.57352 
L 126.83253 244.509335 
L 126.969074 244.405035 
L 127.076595 244.324804 
L 127.170923 244.220504 
L 127.275805 244.140273 
L 127.3952 244.035973 
L 127.50338 243.931673 
L 127.726997 243.827373 
L 127.823304 243.739119 
L 127.955231 243.634819 
L 128.056155 243.514473 
L 128.176209 243.410173 
L 128.285049 243.29785 
L 128.438744 243.19355 
L 128.542967 243.081227 
L 128.653126 242.98495 
L 128.75405 242.880649 
L 128.915661 242.776349 
L 129.023182 242.615888 
L 129.186772 242.511588 
L 129.294952 242.33508 
L 129.418964 242.23078 
L 129.525825 242.142526 
L 129.623451 242.046249 
L 129.717779 241.909857 
L 129.831237 241.805556 
L 129.932161 241.701256 
L 130.085197 241.596956 
L 130.192058 241.452541 
L 130.352349 241.348241 
L 130.455253 241.259987 
L 130.564093 241.155687 
L 130.672933 241.027317 
L 130.773857 240.923017 
L 130.880058 240.82674 
L 131.015284 240.72244 
L 131.124783 240.626163 
L 131.207238 240.529886 
L 131.310801 240.401517 
L 131.449325 240.297217 
L 131.556845 240.20094 
L 131.676899 240.09664 
L 131.78442 239.984317 
L 131.94735 239.880017 
L 132.030464 239.78374 
L 132.150518 239.67944 
L 132.253421 239.583163 
L 132.430204 239.478863 
L 132.537725 239.286309 
L 132.631393 239.182009 
L 132.714507 239.061662 
L 132.829943 238.957362 
L 132.936145 238.861085 
L 133.130078 238.756785 
L 133.23496 238.652485 
L 133.341162 238.548185 
L 133.447363 238.427839 
L 133.572034 238.323539 
L 133.651191 238.251331 
L 133.793013 238.147031 
L 133.897235 238.082846 
L 134.027183 237.978546 
L 134.134045 237.898315 
L 134.216499 237.794015 
L 134.310827 237.697738 
L 134.415709 237.593438 
L 134.508058 237.384838 
L 134.662413 237.280538 
L 134.773232 237.136123 
L 134.910437 237.031823 
L 135.006084 236.967638 
L 135.14065 236.863338 
L 135.24949 236.742992 
L 135.337221 236.638691 
L 135.438805 236.526368 
L 135.535112 236.422068 
L 135.645271 236.301722 
L 135.781157 236.197422 
L 135.885379 236.085099 
L 136.157149 235.980799 
L 136.267968 235.860452 
L 136.377468 235.756152 
L 136.477733 235.643829 
L 136.62681 235.539529 
L 136.70003 235.459298 
L 136.914412 235.354998 
L 137.014017 235.258721 
L 137.167053 235.154421 
L 137.259402 235.07419 
L 137.427609 234.96989 
L 137.532491 234.881636 
L 137.636054 234.777336 
L 137.723786 234.729198 
L 137.921677 234.624898 
L 138.029857 234.464436 
L 138.202682 234.360136 
L 138.309543 234.255836 
L 138.458621 234.159559 
L 138.561524 234.03119 
L 138.769969 233.92689 
L 138.880128 233.758405 
L 139.048995 233.654105 
L 139.155856 233.517712 
L 139.280527 233.413412 
L 139.381452 233.301089 
L 139.486994 233.196789 
L 139.564171 233.156674 
L 139.730399 233.052374 
L 139.802959 232.972143 
L 139.985679 232.867843 
L 140.093859 232.747497 
L 140.188847 232.643196 
L 140.298346 232.579012 
L 140.40059 232.474712 
L 140.49162 232.410527 
L 140.742282 232.306227 
L 140.846504 232.145765 
L 140.959302 232.041465 
L 141.048353 231.969258 
L 141.192154 231.864958 
L 141.299015 231.728565 
L 141.405216 231.624265 
L 141.515375 231.527988 
L 141.696775 231.423688 
L 141.799679 231.319388 
L 141.884112 231.215088 
L 141.985036 231.094742 
L 142.133455 230.998465 
L 142.241635 230.902188 
L 142.374222 230.797888 
L 142.484381 230.653472 
L 142.572113 230.549172 
L 142.682272 230.476964 
L 142.842564 230.372664 
L 142.935572 230.252318 
L 143.095204 230.148018 
L 143.198108 230.091856 
L 143.334652 229.987556 
L 143.441514 229.891279 
L 143.53914 229.786979 
L 143.642043 229.682679 
L 143.724498 229.578379 
L 143.82872 229.409894 
L 143.909196 229.305594 
L 144.01078 229.11304 
L 144.091915 229.00874 
L 144.198116 228.888394 
L 144.327405 228.784094 
L 144.412498 228.719909 
L 144.543106 228.615609 
L 144.651946 228.463171 
L 144.877542 228.358871 
L 144.980445 228.302709 
L 145.067517 228.198409 
L 145.173719 228.062017 
L 145.337308 227.957716 
L 145.440871 227.877486 
L 145.582034 227.773186 
L 145.684277 227.660862 
L 145.851165 227.556562 
L 145.955388 227.396101 
L 146.080719 227.291801 
L 146.191538 227.179477 
L 146.381513 227.075177 
L 146.472543 226.954831 
L 146.620961 226.850531 
L 146.73112 226.730185 
L 146.852493 226.625885 
L 146.953418 226.529608 
L 147.054342 226.433331 
L 147.142074 226.312985 
L 147.27532 226.208685 
L 147.374266 226.112408 
L 147.52862 226.008107 
L 147.629545 225.927877 
L 147.781261 225.823577 
L 147.890761 225.743346 
L 147.990366 225.639046 
L 148.097227 225.510676 
L 148.258178 225.406376 
L 148.365039 225.326145 
L 148.525991 225.221845 
L 148.628894 225.07743 
L 148.756863 224.97313 
L 148.860426 224.916968 
L 148.978501 224.812668 
L 149.075468 224.716391 
L 149.208055 224.612091 
L 149.28853 224.53186 
L 149.420458 224.42756 
L 149.52534 224.339306 
L 149.708059 224.235006 
L 149.811622 224.154775 
L 149.945528 224.050475 
L 150.047112 223.954198 
L 150.17838 223.849898 
L 150.283921 223.713506 
L 150.422445 223.609206 
L 150.533264 223.496883 
L 150.677724 223.392583 
L 150.788543 223.304329 
L 150.952793 223.208052 
L 151.059654 223.079682 
L 151.212689 222.975382 
L 151.321529 222.887128 
L 151.507547 222.782828 
L 151.617706 222.670505 
L 151.816916 222.566205 
L 151.921139 222.445859 
L 152.022063 222.341559 
L 152.126945 222.229236 
L 152.242382 222.124936 
L 152.352541 222.036682 
L 152.437634 221.948428 
L 152.527345 221.812035 
L 152.603203 221.723782 
L 152.676423 221.571343 
L 152.892124 221.467043 
L 152.98909 221.386812 
L 153.096611 221.282512 
L 153.195556 221.178212 
L 153.292523 221.073912 
L 153.400703 221.001704 
L 153.655323 220.897404 
L 153.763503 220.801127 
L 153.910602 220.696827 
L 154.020102 220.552412 
L 154.159285 220.448111 
L 154.268125 220.351834 
L 154.342664 220.247534 
L 154.450844 220.143234 
L 154.533299 220.038934 
L 154.613775 219.95068 
L 154.739765 219.854403 
L 154.849924 219.750103 
L 154.938975 219.645803 
L 155.042538 219.541503 
L 155.197553 219.437203 
L 155.307052 219.32488 
L 155.391486 219.22058 
L 155.497028 219.092211 
L 155.61906 218.98791 
L 155.712729 218.931749 
L 155.877638 218.827449 
L 155.966689 218.715126 
L 156.093999 218.610826 
L 156.188986 218.506526 
L 156.27276 218.402225 
L 156.377642 218.338041 
L 156.496377 218.233741 
L 156.579491 218.161533 
L 156.758252 218.057233 
L 156.861815 217.912817 
L 156.968017 217.808517 
L 157.055089 217.728287 
L 157.235829 217.623986 
L 157.340711 217.567825 
L 157.522771 217.463525 
L 157.620397 217.383294 
L 157.756282 217.278994 
L 157.847972 217.174694 
L 157.971324 217.070394 
L 158.054438 217.006209 
L 158.200877 216.901909 
L 158.300482 216.749471 
L 158.464732 216.64517 
L 158.5584 216.516801 
L 158.701541 216.412501 
L 158.81236 216.300178 
L 158.915263 216.195878 
L 159.019486 216.067509 
L 159.101281 215.963208 
L 159.196928 215.842862 
L 159.494424 215.738562 
L 159.603264 215.698447 
L 159.693634 215.594147 
L 159.785983 215.49787 
L 159.968043 215.39357 
L 160.06435 215.281246 
L 160.198916 215.176946 
L 160.307756 215.088692 
L 160.489156 214.984392 
L 160.578866 214.904162 
L 160.766203 214.799862 
L 160.86185 214.719631 
L 160.987181 214.615331 
L 161.07953 214.511031 
L 161.229927 214.40673 
L 161.316999 214.286384 
L 161.454863 214.182084 
L 161.55051 214.077784 
L 161.681118 213.981507 
L 161.791937 213.821045 
L 161.967401 213.724768 
L 162.067006 213.612445 
L 162.173207 213.508145 
L 162.283366 213.395822 
L 162.388908 213.299545 
L 162.495769 213.163153 
L 162.64023 213.058853 
L 162.746431 212.970599 
L 162.855271 212.866299 
L 162.956196 212.810137 
L 163.112529 212.705837 
L 163.222689 212.577468 
L 163.333508 212.473168 
L 163.439709 212.336775 
L 163.526121 212.232475 
L 163.612534 212.160267 
L 163.733907 212.055967 
L 163.830873 211.919575 
L 164.0004 211.815275 
L 164.100005 211.791206 
L 164.273489 211.686906 
L 164.38167 211.582606 
L 164.475338 211.478305 
L 164.565049 211.398075 
L 164.776792 211.293775 
L 164.857927 211.22959 
L 165.008324 211.133313 
L 165.115185 211.004944 
L 165.204896 210.908667 
L 165.303841 210.804367 
L 165.54263 210.700066 
L 165.647512 210.619836 
L 165.743159 210.515536 
L 165.853978 210.427282 
L 165.986565 210.322982 
L 166.090788 210.202635 
L 166.265591 210.098335 
L 166.370473 210.010081 
L 166.495145 209.905781 
L 166.602006 209.801481 
L 166.742508 209.697181 
L 166.841454 209.632997 
L 166.954252 209.53672 
L 167.054516 209.416373 
L 167.150164 209.312073 
L 167.253067 209.159635 
L 167.367184 209.055335 
L 167.474045 208.983127 
L 167.649508 208.878827 
L 167.760327 208.790573 
L 167.874444 208.686273 
L 167.978667 208.606042 
L 168.124446 208.501742 
L 168.218774 208.381396 
L 168.342786 208.277096 
L 168.44503 208.156749 
L 168.565084 208.052449 
L 168.671285 207.964195 
L 168.778806 207.859895 
L 168.888965 207.723503 
L 169.073004 207.619203 
L 169.176566 207.514903 
L 169.317069 207.410603 
L 169.420632 207.322349 
L 169.519577 207.226072 
L 169.628417 207.105726 
L 169.764962 207.009449 
L 169.871164 206.865033 
L 170.000452 206.760733 
L 170.101377 206.688525 
L 170.175916 206.584225 
L 170.282777 206.415741 
L 170.418002 206.31144 
L 170.528161 206.215163 
L 170.673941 206.110863 
L 170.756395 206.014586 
L 170.935157 205.910286 
L 171.035422 205.797963 
L 171.195054 205.693663 
L 171.303234 205.613432 
L 171.503104 205.509132 
L 171.613263 205.420878 
L 171.737934 205.324601 
L 171.844136 205.244371 
L 171.995852 205.14007 
L 172.098096 205.027747 
L 172.190445 204.923447 
L 172.294667 204.811124 
L 172.425275 204.706824 
L 172.473429 204.658686 
L 172.662745 204.554385 
L 172.714856 204.458108 
L 172.767627 204.458108 
L 172.922641 204.353808 
L 173.032141 204.233462 
L 173.199029 204.129162 
L 173.294676 204.064977 
L 173.470139 203.960677 
L 173.569085 203.912539 
L 173.728717 203.816262 
L 173.838876 203.687893 
L 173.951674 203.583592 
L 174.057875 203.495339 
L 174.19442 203.391039 
L 174.294685 203.278715 
L 174.48466 203.174415 
L 174.590862 203.086161 
L 174.813159 202.989884 
L 174.913424 202.909654 
L 175.073056 202.805353 
L 175.179257 202.660938 
L 175.348784 202.556638 
L 175.455645 202.516523 
L 175.526886 202.412222 
L 175.636385 202.299899 
L 175.806571 202.195599 
L 175.916071 202.075253 
L 176.067787 201.970953 
L 176.177287 201.826537 
L 176.356708 201.722237 
L 176.456973 201.658053 
L 176.603412 201.553753 
L 176.693782 201.481545 
L 176.859351 201.377245 
L 176.951041 201.288991 
L 177.121886 201.192714 
L 177.22413 201.088414 
L 177.336268 200.984114 
L 177.439831 200.952021 
L 177.561204 200.847721 
L 177.672023 200.719352 
L 177.811206 200.623075 
L 177.91279 200.510752 
L 178.039441 200.406452 
L 178.14894 200.24599 
L 178.277569 200.14169 
L 178.376515 200.061459 
L 178.469523 199.957159 
L 178.563192 199.844836 
L 178.722164 199.740536 
L 178.817152 199.660305 
L 178.950398 199.556005 
L 179.03747 199.451705 
L 179.247235 199.347405 
L 179.357394 199.243105 
L 179.497237 199.138805 
L 179.608056 199.018459 
L 179.751857 198.914159 
L 179.860697 198.849974 
L 179.954365 198.745674 
L 180.061886 198.641374 
L 180.181939 198.537074 
L 180.284183 198.456843 
L 180.379171 198.352543 
L 180.48933 198.248243 
L 180.571125 198.151966 
L 180.673368 198.055689 
L 180.846853 197.951389 
L 180.957012 197.855112 
L 181.108069 197.750812 
L 181.21559 197.662558 
L 181.398309 197.558258 
L 181.501872 197.48605 
L 181.597519 197.38175 
L 181.701742 197.285473 
L 181.918762 197.181173 
L 182.022984 197.052804 
L 182.187234 196.948503 
L 182.290797 196.876296 
L 182.395679 196.771996 
L 182.497263 196.73188 
L 182.614019 196.62758 
L 182.70175 196.52328 
L 182.831039 196.41898 
L 182.933283 196.31468 
L 183.048719 196.21038 
L 183.141068 196.114103 
L 183.266399 196.009803 
L 183.362706 195.889457 
L 183.488696 195.785157 
L 183.597536 195.616672 
L 183.703738 195.512372 
L 183.794768 195.367956 
L 183.960996 195.263656 
L 184.043451 195.215518 
L 184.156908 195.111218 
L 184.265088 195.006918 
L 184.385142 194.902617 
L 184.490684 194.790294 
L 184.683958 194.685994 
L 184.78818 194.629833 
L 184.986071 194.525533 
L 185.093592 194.429256 
L 185.270374 194.324956 
L 185.380534 194.244725 
L 185.529611 194.140425 
L 185.634494 194.020078 
L 185.836342 193.915778 
L 185.940565 193.835548 
L 186.114709 193.731247 
L 186.20376 193.667063 
L 186.215633 193.667063 
L 186.304684 193.562763 
L 186.408247 193.442416 
L 186.622629 193.338116 
L 186.69387 193.257886 
L 186.83833 193.153586 
L 186.943212 193.049285 
L 187.094928 192.944985 
L 187.202449 192.840685 
L 187.316566 192.736385 
L 187.423427 192.672201 
L 187.56393 192.567901 
L 187.659577 192.447554 
L 187.87132 192.343254 
L 187.957073 192.263023 
L 188.104832 192.158723 
L 188.209054 192.0464 
L 188.3799 191.9421 
L 188.482803 191.869892 
L 188.666182 191.765592 
L 188.770405 191.685361 
L 188.935314 191.581061 
L 189.034259 191.484784 
L 189.185976 191.380484 
L 189.292177 191.284207 
L 189.492707 191.179907 
L 189.602206 191.1077 
L 189.720941 191.003399 
L 189.8311 190.907122 
L 189.972262 190.802822 
L 190.081102 190.738638 
L 190.251948 190.642361 
L 190.343638 190.578176 
L 190.476224 190.473876 
L 190.5567 190.369576 
L 190.575829 190.369576 
L 190.672796 190.265276 
L 190.761847 190.177022 
L 190.855515 190.072722 
L 190.896413 190.008537 
L 191.143776 189.904237 
L 191.242722 189.824006 
L 191.343646 189.719706 
L 191.452486 189.631452 
L 191.547474 189.527152 
L 191.647079 189.454945 
L 191.804072 189.350645 
L 191.906976 189.270414 
L 192.029008 189.166114 
L 192.128613 189.07786 
L 192.248008 188.97356 
L 192.339697 188.885306 
L 192.482179 188.781006 
L 192.581124 188.676706 
L 192.694581 188.572406 
L 192.793527 188.500198 
L 193.071893 188.395898 
L 193.180074 188.315667 
L 193.344323 188.211367 
L 193.451184 188.066951 
L 193.608837 187.962651 
L 193.715039 187.866374 
L 193.829816 187.762074 
L 193.918207 187.689866 
L 194.09367 187.585566 
L 194.196573 187.521382 
L 194.354886 187.417082 
L 194.465705 187.280689 
L 194.577843 187.176389 
L 194.679427 187.039997 
L 194.937345 186.935697 
L 195.048164 186.855466 
L 195.174814 186.751166 
L 195.281016 186.670935 
L 195.47231 186.566635 
L 195.577852 186.518496 
L 195.58181 186.518496 
L 195.692629 186.414196 
L 195.78168 186.269781 
L 195.991444 186.165481 
L 196.066643 186.101296 
L 196.226934 185.996996 
L 196.317304 185.900719 
L 196.461765 185.796419 
L 196.556093 185.700142 
L 196.722321 185.595842 
L 196.817309 185.547704 
L 197.012561 185.443403 
L 197.122061 185.363173 
L 197.278395 185.258873 
L 197.385915 185.098411 
L 197.529056 184.994111 
L 197.635917 184.881788 
L 197.779059 184.777488 
L 197.878664 184.681211 
L 197.984865 184.584934 
L 198.090407 184.47261 
L 198.172861 184.36831 
L 198.276424 184.304126 
L 198.458484 184.199826 
L 198.568643 184.135641 
L 198.724977 184.031341 
L 198.835136 183.943087 
L 198.985533 183.838787 
L 199.093054 183.702395 
L 199.265879 183.598095 
L 199.333821 183.53391 
L 199.486197 183.42961 
L 199.589101 183.309264 
L 199.731582 183.204963 
L 199.841741 183.084617 
L 199.934091 182.980317 
L 200.04425 182.88404 
L 200.182773 182.77974 
L 200.277761 182.715555 
L 200.458501 182.611255 
L 200.568001 182.482886 
L 200.707844 182.378586 
L 200.803491 182.306378 
L 200.900458 182.202078 
L 201.009957 182.089755 
L 201.139906 181.985455 
L 201.238851 181.913247 
L 201.348351 181.808947 
L 201.442019 181.688601 
L 201.536347 181.584301 
L 201.63991 181.536162 
L 201.808777 181.431862 
L 201.909042 181.351631 
L 201.992816 181.255354 
L 202.101656 181.175124 
L 202.211815 181.070824 
L 202.295589 181.006639 
L 202.303504 181.006639 
L 202.52844 180.902339 
L 202.627386 180.822108 
L 202.774485 180.717808 
L 202.882665 180.605485 
L 203.044936 180.501185 
L 203.115517 180.445023 
L 203.343751 180.340723 
L 203.4361 180.252469 
L 203.602328 180.148169 
L 203.713147 180.067938 
L 203.862225 179.963638 
L 203.971065 179.899454 
L 204.166317 179.795154 
L 204.275157 179.7069 
L 204.424895 179.610623 
L 204.52516 179.466207 
L 204.533735 179.466207 
L 204.668301 179.361907 
L 204.77846 179.297722 
L 204.998119 179.193422 
L 205.098384 179.113192 
L 205.269229 179.008891 
L 205.375431 178.880522 
L 205.527807 178.776222 
L 205.633349 178.712037 
L 205.796938 178.607737 
L 205.907098 178.503437 
L 206.092456 178.399137 
L 206.203274 178.294837 
L 206.363566 178.190537 
L 206.452617 178.118329 
L 206.73758 178.014029 
L 206.829929 177.933798 
L 206.970432 177.829498 
L 207.050907 177.757291 
L 207.345765 177.652991 
L 207.443391 177.57276 
L 207.566743 177.46846 
L 207.66239 177.396252 
L 207.833236 177.299975 
L 207.91635 177.171606 
L 208.143265 177.067306 
L 208.245509 176.995098 
L 208.336538 176.890798 
L 208.44208 176.754405 
L 208.608309 176.650105 
L 208.71517 176.529759 
L 208.825329 176.425459 
L 208.911082 176.37732 
L 209.068075 176.27302 
L 209.176915 176.152674 
L 209.405149 176.048374 
L 209.506733 175.928028 
L 209.696709 175.823728 
L 209.801591 175.695358 
L 209.940774 175.591058 
L 210.048954 175.486758 
L 210.136026 175.382458 
L 210.231674 175.286181 
L 210.409116 175.181881 
L 210.493549 175.109673 
L 210.690781 175.005373 
L 210.754106 174.941189 
L 210.89065 174.836889 
L 210.977722 174.724566 
L 211.141972 174.620265 
L 211.244875 174.507942 
L 211.393953 174.403642 
L 211.493558 174.299342 
L 211.500814 174.299342 
L 211.665063 174.195042 
L 211.764669 174.122834 
L 211.904511 174.018534 
L 211.976412 173.970396 
L 212.211902 173.866096 
L 212.314805 173.777842 
L 212.620217 173.673542 
L 212.719162 173.521103 
L 212.821406 173.416803 
L 212.926948 173.312503 
L 213.034469 173.208203 
L 213.136712 173.135995 
L 213.313495 173.031695 
L 213.411121 172.975534 
L 213.563497 172.871234 
L 213.662442 172.78298 
L 213.799647 172.67868 
L 213.910466 172.638564 
L 214.026562 172.534264 
L 214.116272 172.478102 
L 214.297013 172.373802 
L 214.397277 172.261479 
L 214.569442 172.157179 
L 214.655855 172.076948 
L 214.932242 171.972648 
L 215.041742 171.892417 
L 215.134751 171.788117 
L 215.213247 171.707887 
L 215.243591 171.707887 
L 215.432247 171.603587 
L 215.542406 171.539402 
L 215.684228 171.443125 
L 215.769321 171.354871 
L 215.996895 171.250571 
L 216.098479 171.138248 
L 216.238982 171.033948 
L 216.346503 170.953717 
L 216.584631 170.849417 
L 216.692812 170.713024 
L 216.825399 170.608724 
L 216.916429 170.536517 
L 217.170389 170.432216 
L 217.281207 170.327916 
L 217.49361 170.231639 
L 217.593215 170.151409 
L 217.727122 170.047109 
L 217.827386 169.982924 
L 217.942163 169.878624 
L 218.047045 169.798393 
L 218.244277 169.694093 
L 218.345201 169.573747 
L 218.587947 169.469447 
L 218.693489 169.389216 
L 218.868293 169.284916 
L 218.946789 169.204685 
L 219.137424 169.100385 
L 219.246924 169.020154 
L 219.406556 168.915854 
L 219.512098 168.803531 
L 219.770015 168.699231 
L 219.87094 168.602954 
L 220.008144 168.498654 
L 220.115005 168.4104 
L 220.270679 168.3061 
L 220.381498 168.169707 
L 220.50551 168.065407 
L 220.612371 167.937038 
L 220.764747 167.832738 
L 220.862373 167.752507 
L 221.05037 167.65623 
L 221.149315 167.519838 
L 221.355122 167.415538 
L 221.44945 167.319261 
L 221.586654 167.214961 
L 221.689557 167.13473 
L 221.923068 167.03043 
L 222.02993 166.934153 
L 222.165815 166.829853 
L 222.273995 166.709506 
L 222.390091 166.605206 
L 222.499591 166.516952 
L 222.722548 166.412652 
L 222.832707 166.292306 
L 223.017405 166.188006 
L 223.093263 166.123821 
L 223.279281 166.027544 
L 223.385482 165.96336 
L 223.546434 165.85906 
L 223.655933 165.794875 
L 223.717939 165.690575 
L 223.803032 165.618367 
L 224.025989 165.514067 
L 224.128892 165.409767 
L 224.26082 165.305467 
L 224.355807 165.20919 
L 224.541825 165.10489 
L 224.643409 165.008613 
L 224.826788 164.904313 
L 224.937607 164.832105 
L 225.13022 164.735828 
L 225.230485 164.647574 
L 225.377584 164.543274 
L 225.472572 164.463043 
L 225.623628 164.358743 
L 225.67508 164.302582 
L 225.944871 164.198282 
L 226.047115 164.102005 
L 226.173106 163.997705 
L 226.27337 163.925497 
L 226.442897 163.821197 
L 226.553716 163.740966 
L 226.70873 163.636666 
L 226.815591 163.51632 
L 226.975223 163.41202 
L 227.083404 163.259581 
L 227.23446 163.155281 
L 227.338683 163.026912 
L 227.454779 162.922611 
L 227.535255 162.850404 
L 227.717314 162.746104 
L 227.81494 162.649827 
L 227.94357 162.545527 
L 228.053069 162.441227 
L 228.155972 162.336926 
L 228.25162 162.21658 
L 228.444234 162.11228 
L 228.499643 162.048096 
L 228.511516 162.048096 
L 228.651359 161.943795 
L 228.762178 161.815426 
L 228.951494 161.711126 
L 229.053078 161.638918 
L 229.164556 161.534618 
L 229.241734 161.446364 
L 229.258884 161.446364 
L 229.374321 161.342064 
L 229.479203 161.261833 
L 229.581447 161.157533 
L 229.691606 161.029164 
L 229.894114 160.924864 
L 230.000975 160.83661 
L 230.002954 160.83661 
L 230.145436 160.740333 
L 230.255595 160.660102 
L 230.349923 160.555802 
L 230.460742 160.403364 
L 230.59201 160.299064 
L 230.689636 160.21081 
L 230.80969 160.10651 
L 230.907975 160.010233 
L 231.103887 159.905933 
L 231.202173 159.849771 
L 231.341356 159.745471 
L 231.448877 159.673263 
L 231.667876 159.568963 
L 231.778695 159.440594 
L 231.867087 159.336294 
L 231.954159 159.264086 
L 232.161284 159.159786 
L 232.26023 159.055486 
L 232.412606 158.951186 
L 232.499678 158.854909 
L 232.682397 158.750609 
L 232.783981 158.662355 
L 232.953508 158.558055 
L 233.051134 158.461778 
L 233.056411 158.461778 
L 233.176465 158.357478 
L 233.287284 158.245155 
L 233.497708 158.140854 
L 233.60259 158.044577 
L 233.822908 157.940277 
L 233.92845 157.884116 
L 234.049164 157.779816 
L 234.154705 157.715631 
L 234.315657 157.611331 
L 234.414602 157.507031 
L 234.594683 157.402731 
L 234.696267 157.3225 
L 234.861176 157.2182 
L 234.966058 157.089831 
L 235.16263 156.985531 
L 235.258937 156.881231 
L 235.468041 156.77693 
L 235.559071 156.688677 
L 235.657357 156.584376 
L 235.768176 156.480076 
L 235.969365 156.375776 
L 236.077545 156.295546 
L 236.215409 156.191245 
L 236.32359 156.102992 
L 236.549845 155.998691 
L 236.636257 155.94253 
L 236.639556 155.94253 
L 236.882961 155.846253 
L 236.960139 155.790091 
L 237.10328 155.685791 
L 237.199587 155.597537 
L 237.35658 155.493237 
L 237.462122 155.42103 
L 237.560408 155.316729 
L 237.667929 155.18836 
L 237.8645 155.08406 
L 237.953551 154.995806 
L 238.17387 154.891506 
L 238.284029 154.755114 
L 238.374399 154.650814 
L 238.485218 154.506398 
L 238.614507 154.402098 
L 238.622423 154.386052 
L 238.86253 154.281752 
L 238.973349 154.185475 
L 239.138918 154.081175 
L 239.245779 154.01699 
L 239.358577 153.91269 
L 239.464778 153.840482 
L 239.619133 153.736182 
L 239.724015 153.655951 
L 239.869795 153.551651 
L 239.979954 153.463397 
L 240.180484 153.359097 
L 240.282068 153.26282 
L 240.468085 153.15852 
L 240.573627 153.038174 
L 240.710172 152.933874 
L 240.818352 152.821551 
L 240.936427 152.717251 
L 241.045927 152.645043 
L 241.142893 152.548766 
L 241.242498 152.436443 
L 241.462157 152.332143 
L 241.559124 152.292027 
L 241.721394 152.187727 
L 241.831553 152.083427 
L 241.979312 151.979127 
L 242.084194 151.874827 
L 242.231293 151.770527 
L 242.338154 151.682273 
L 242.52747 151.577973 
L 242.627075 151.489719 
L 242.7623 151.385419 
L 242.864544 151.329258 
L 242.977342 151.224958 
L 243.084203 151.128681 
L 243.181169 151.02438 
L 243.259006 150.912057 
L 243.45162 150.807757 
L 243.556502 150.727526 
L 243.68777 150.623226 
L 243.794631 150.462765 
L 243.948986 150.358465 
L 244.041335 150.278234 
L 244.150835 150.173934 
L 244.254398 150.117772 
L 244.427222 150.013472 
L 244.537382 149.933241 
L 244.666011 149.828941 
L 244.764297 149.764757 
L 244.774851 149.764757 
L 244.901501 149.660456 
L 245.006383 149.580226 
L 245.118521 149.475926 
L 245.226702 149.33151 
L 245.348075 149.22721 
L 245.44834 149.163025 
L 245.596098 149.058725 
L 245.68383 148.978494 
L 245.91866 148.874194 
L 246.025521 148.785941 
L 246.11853 148.68164 
L 246.229349 148.585363 
L 246.324996 148.481063 
L 246.429878 148.376763 
L 246.549932 148.272463 
L 246.648878 148.16014 
L 246.850726 148.05584 
L 246.958907 147.927471 
L 247.142945 147.823171 
L 247.247168 147.710847 
L 247.469465 147.606547 
L 247.576326 147.494224 
L 247.711552 147.389924 
L 247.821052 147.285624 
L 247.995196 147.181324 
L 248.102716 147.077024 
L 248.218812 146.980747 
L 248.307863 146.924585 
L 248.488604 146.820285 
L 248.596124 146.715985 
L 248.71354 146.611685 
L 248.804569 146.515408 
L 249.00312 146.411108 
L 249.108662 146.314831 
L 249.27489 146.210531 
L 249.379113 146.074139 
L 249.468823 145.969839 
L 249.577004 145.825423 
L 249.6931 145.721123 
L 249.791385 145.600777 
L 249.974105 145.496477 
L 250.075689 145.384154 
L 250.270281 145.279854 
L 250.374504 145.175553 
L 250.511708 145.071253 
L 250.620548 144.950907 
L 250.775563 144.846607 
L 250.875828 144.75033 
L 250.991924 144.64603 
L 251.101423 144.517661 
L 251.264353 144.413361 
L 251.368576 144.325107 
L 251.500503 144.220807 
L 251.606705 144.140576 
L 251.757102 144.044299 
L 251.855387 143.988137 
L 252.030851 143.89186 
L 252.139031 143.723376 
L 252.310537 143.619076 
L 252.421355 143.538845 
L 252.604075 143.434545 
L 252.708297 143.322221 
L 252.857375 143.217921 
L 252.967534 143.089552 
L 253.098802 142.993275 
L 253.190491 142.913044 
L 253.328355 142.808744 
L 253.437855 142.712467 
L 253.553291 142.61619 
L 253.615297 142.568052 
L 253.813188 142.463752 
L 253.916091 142.327359 
L 254.013058 142.223059 
L 254.079022 142.150851 
L 254.174669 142.054574 
L 254.28153 141.966321 
L 254.414777 141.86202 
L 254.520978 141.75772 
L 254.660161 141.65342 
L 254.765703 141.525051 
L 254.911483 141.420751 
L 254.993937 141.34052 
L 255.199744 141.23622 
L 255.303966 141.115874 
L 255.418083 141.011574 
L 255.524285 140.875181 
L 255.753179 140.770881 
L 255.860699 140.642512 
L 255.945133 140.538212 
L 256.047377 140.449958 
L 256.177985 140.353681 
L 256.266376 140.27345 
L 256.420731 140.16915 
L 256.528911 140.096942 
L 256.636432 139.992642 
L 256.741974 139.848227 
L 256.871262 139.743927 
L 256.977464 139.631604 
L 257.108731 139.527304 
L 257.217571 139.447073 
L 257.380502 139.342773 
L 257.475489 139.238473 
L 257.665465 139.134173 
L 257.769687 139.045919 
L 257.862036 138.941619 
L 257.971536 138.78918 
L 258.049373 138.68488 
L 258.151617 138.588603 
L 258.328399 138.484303 
L 258.43526 138.37198 
L 258.559272 138.26768 
L 258.658877 138.187449 
L 258.800699 138.083149 
L 258.905581 137.994895 
L 259.062574 137.890595 
L 259.172734 137.762225 
L 259.375242 137.665948 
L 259.46891 137.593741 
L 259.638437 137.489441 
L 259.747277 137.296887 
L 259.846222 137.192587 
L 259.952424 137.056194 
L 260.117993 136.96794 
L 260.220236 136.895733 
L 260.325118 136.791432 
L 260.403615 136.695156 
L 260.561928 136.590855 
L 260.668789 136.502602 
L 260.738051 136.398301 
L 260.836337 136.229817 
L 260.971562 136.13354 
L 261.082381 135.997147 
L 261.191221 135.892847 
L 261.30138 135.804593 
L 261.433307 135.700293 
L 261.542147 135.604016 
L 261.666159 135.499716 
L 261.774999 135.371347 
L 261.923417 135.267047 
L 262.032917 135.146701 
L 262.199145 135.042401 
L 262.296771 134.946124 
L 262.423422 134.841824 
L 262.526325 134.721477 
L 262.675403 134.617177 
L 262.766432 134.544969 
L 262.913531 134.440669 
L 263.009179 134.320323 
L 263.150341 134.216023 
L 263.220262 134.151838 
L 263.400343 134.047538 
L 263.507864 133.967308 
L 263.670794 133.863007 
L 263.770399 133.76673 
L 263.994675 133.66243 
L 264.104835 133.574176 
L 264.193886 133.469876 
L 264.302726 133.381623 
L 264.437291 133.277322 
L 264.541514 133.197092 
L 264.753917 133.092792 
L 264.85616 133.03663 
L 265.067904 132.93233 
L 265.171467 132.836053 
L 265.300096 132.731753 
L 265.410915 132.627453 
L 265.515137 132.523153 
L 265.623318 132.370714 
L 265.753926 132.266414 
L 265.85551 132.138045 
L 265.957094 132.033745 
L 266.063295 131.921422 
L 266.214352 131.817121 
L 266.314616 131.704798 
L 266.497995 131.600498 
L 266.607495 131.44806 
L 266.722931 131.34376 
L 266.832431 131.207367 
L 266.935994 131.103067 
L 267.044174 130.958652 
L 267.143779 130.854352 
L 267.253279 130.734005 
L 267.403016 130.629705 
L 267.492727 130.533428 
L 267.651699 130.429128 
L 267.762518 130.292736 
L 267.916214 130.188436 
L 268.021755 130.06809 
L 268.184026 129.963789 
L 268.293526 129.859489 
L 268.435347 129.755189 
L 268.544187 129.62682 
L 268.655666 129.52252 
L 268.762527 129.426243 
L 268.943267 129.321943 
L 269.050128 129.233689 
L 269.157649 129.129389 
L 269.267149 128.944858 
L 269.372691 128.840558 
L 269.468338 128.728235 
L 269.614118 128.623935 
L 269.706467 128.519635 
L 269.866758 128.423358 
L 269.967683 128.278942 
L 270.08048 128.174642 
L 270.18998 128.102434 
L 270.323886 127.998134 
L 270.420193 127.90988 
L 270.620063 127.80558 
L 270.724945 127.733373 
L 270.829168 127.637096 
L 270.929432 127.508726 
L 271.073233 127.404426 
L 271.178115 127.292103 
L 271.338407 127.187803 
L 271.447247 127.07548 
L 271.637882 126.97118 
L 271.701867 126.858857 
L 271.930101 126.754557 
L 272.015194 126.690372 
L 272.134588 126.586072 
L 272.230895 126.513864 
L 272.364801 126.409564 
L 272.448575 126.345379 
L 272.625357 126.241079 
L 272.728261 126.160848 
L 272.859528 126.056548 
L 272.968368 125.968294 
L 273.169557 125.863994 
L 273.265205 125.79981 
L 273.477608 125.69551 
L 273.587107 125.575163 
L 273.725631 125.470863 
L 273.833152 125.342494 
L 273.920883 125.238194 
L 274.01785 125.117848 
L 274.171545 125.013548 
L 274.280385 124.901225 
L 274.410993 124.796924 
L 274.521152 124.652509 
L 274.626694 124.548209 
L 274.723001 124.459955 
L 274.90704 124.355655 
L 274.985536 124.275424 
L 275.143189 124.179147 
L 275.249391 124.058801 
L 275.380659 123.954501 
L 275.46905 123.906362 
L 275.586465 123.802062 
L 275.695305 123.737878 
L 275.804145 123.633578 
L 275.911006 123.497185 
L 276.03106 123.392885 
L 276.14056 123.3287 
L 276.23027 123.2244 
L 276.332514 123.104054 
L 276.498742 122.999754 
L 276.607582 122.815223 
L 276.703889 122.710923 
L 276.807452 122.5986 
L 276.971701 122.4943 
L 277.079222 122.349884 
L 277.200595 122.245584 
L 277.298221 122.15733 
L 277.30086 122.15733 
L 277.416956 122.05303 
L 277.525136 121.924661 
L 277.662341 121.820361 
L 277.763925 121.756176 
L 277.877382 121.651876 
L 277.966433 121.515484 
L 278.167622 121.411184 
L 278.276462 121.330953 
L 278.354959 121.226653 
L 278.455883 121.106307 
L 278.560106 121.01003 
L 278.668946 120.90573 
L 278.793617 120.80143 
L 278.876731 120.745268 
L 279.02383 120.640968 
L 279.132011 120.504575 
L 279.310112 120.400275 
L 279.419612 120.271906 
L 279.56803 120.167606 
L 279.674891 120.055283 
L 279.793626 119.950983 
L 279.890592 119.854706 
L 280.006688 119.750406 
L 280.114869 119.686221 
L 280.27516 119.581921 
L 280.38532 119.525759 
L 280.53044 119.421459 
L 280.618171 119.333205 
L 280.752077 119.228905 
L 280.830574 119.148675 
L 281.015932 119.044374 
L 281.118176 118.924028 
L 281.225696 118.819728 
L 281.334536 118.74752 
L 281.56343 118.651243 
L 281.671611 118.530897 
L 281.81805 118.426597 
L 281.924911 118.298228 
L 282.029133 118.193928 
L 282.137314 118.081605 
L 282.305521 117.977305 
L 282.402488 117.921143 
L 282.541671 117.816843 
L 282.65249 117.712543 
L 282.825314 117.608243 
L 282.926898 117.536035 
L 283.081253 117.431735 
L 283.175581 117.343481 
L 283.32268 117.239181 
L 283.43218 117.118835 
L 283.561469 117.014535 
L 283.671628 116.918258 
L 283.840495 116.813958 
L 283.947356 116.661519 
L 284.055536 116.557219 
L 284.161738 116.420827 
L 284.252768 116.316527 
L 284.340499 116.19618 
L 284.471107 116.09188 
L 284.577968 116.011649 
L 284.733642 115.907349 
L 284.843802 115.770957 
L 284.948684 115.666657 
L 285.053566 115.586426 
L 285.194069 115.482126 
L 285.287737 115.33771 
L 285.397896 115.23341 
L 285.508056 115.161203 
L 285.652516 115.064926 
L 285.758058 114.928533 
L 285.857003 114.832256 
L 285.964524 114.719933 
L 286.131412 114.615633 
L 286.220463 114.519356 
L 286.38867 114.415056 
L 286.494872 114.286687 
L 286.608989 114.182387 
L 286.717829 114.029948 
L 286.853054 113.925648 
L 286.963213 113.821348 
L 287.105035 113.717048 
L 287.214535 113.588679 
L 287.326013 113.484378 
L 287.434194 113.372055 
L 287.525883 113.267755 
L 287.632744 113.099271 
L 287.781162 112.99497 
L 287.886045 112.89067 
L 287.971797 112.78637 
L 288.073381 112.698116 
L 288.223119 112.593816 
L 288.324043 112.489516 
L 288.401221 112.385216 
L 288.506762 112.256847 
L 288.628795 112.152547 
L 288.717186 112.008131 
L 288.803599 111.903831 
L 288.913758 111.791508 
L 289.010725 111.687208 
L 289.102414 111.631046 
L 289.258088 111.526746 
L 289.36297 111.446516 
L 289.531837 111.342216 
L 289.624846 111.229892 
L 289.76337 111.125592 
L 289.87221 111.037338 
L 289.988306 110.933038 
L 290.068781 110.868854 
L 290.259416 110.764554 
L 290.365618 110.700369 
L 290.469181 110.596069 
L 290.5424 110.523861 
L 290.713906 110.419561 
L 290.793722 110.331307 
L 290.989634 110.227007 
L 291.100453 110.106661 
L 291.198738 110.010384 
L 291.302961 109.882015 
L 291.43093 109.777714 
L 291.52196 109.657368 
L 291.525918 109.657368 
L 291.676975 109.553068 
L 291.773941 109.416676 
L 291.879483 109.312376 
L 291.979088 109.216099 
L 292.126847 109.111799 
L 292.235027 109.023545 
L 292.341229 108.919245 
L 292.440834 108.830991 
L 292.604423 108.726691 
L 292.706667 108.582275 
L 292.806932 108.477975 
L 292.911814 108.341583 
L 293.04638 108.237283 
L 293.153901 108.116936 
L 293.221183 108.020659 
L 293.316831 107.940429 
L 293.475803 107.836129 
L 293.581345 107.731828 
L 293.696122 107.627528 
L 293.806941 107.563344 
L 293.957338 107.459044 
L 294.067497 107.330674 
L 294.207999 107.226374 
L 294.312882 107.130097 
L 294.490983 107.025797 
L 294.594546 106.937543 
L 294.760115 106.833243 
L 294.853124 106.72092 
L 295.001542 106.61662 
L 295.092572 106.552435 
L 295.221861 106.448135 
L 295.329381 106.359881 
L 295.419092 106.255581 
L 295.516718 106.239535 
L 295.666455 106.135235 
L 295.775955 106.055004 
L 295.904584 105.950704 
L 296.006168 105.814312 
L 296.210655 105.710012 
L 296.287173 105.581642 
L 296.433613 105.477342 
L 296.5286 105.348973 
L 296.749578 105.244673 
L 296.821479 105.188511 
L 296.962641 105.084211 
L 297.039818 105.012004 
L 297.238369 104.907704 
L 297.34457 104.81945 
L 297.565549 104.71515 
L 297.654599 104.675034 
L 297.676367 104.675034 
L 297.790485 104.570734 
L 297.896686 104.48248 
L 298.076107 104.37818 
L 298.170435 104.322019 
L 298.374922 104.217718 
L 298.482443 104.161557 
L 298.6335 104.057257 
L 298.737722 103.912841 
L 298.846562 103.808541 
L 298.930996 103.744357 
L 299.194191 103.640057 
L 299.295115 103.575872 
L 299.462003 103.471572 
L 299.571503 103.295064 
L 299.701451 103.190764 
L 299.788523 103.118556 
L 299.981797 103.014256 
L 300.078103 102.877864 
L 300.308976 102.773564 
L 300.402645 102.717402 
L 300.531933 102.613102 
L 300.611749 102.564963 
L 300.615707 102.564963 
L 300.812938 102.460663 
L 300.920459 102.380433 
L 301.095922 102.276133 
L 301.194868 102.187879 
L 301.301069 102.083579 
L 301.403313 101.995325 
L 301.612418 101.891025 
L 301.706746 101.818817 
L 301.948173 101.714517 
L 302.052395 101.610217 
L 302.166512 101.505917 
L 302.24303 101.425686 
L 302.454773 101.321386 
L 302.560315 101.265224 
L 302.837362 101.160924 
L 302.942904 101.064647 
L 303.139476 100.960347 
L 303.250295 100.888139 
L 303.388159 100.783839 
L 303.496999 100.727678 
L 303.591327 100.623378 
L 303.696868 100.511054 
L 303.87563 100.406754 
L 303.983151 100.3185 
L 304.141463 100.2142 
L 304.248324 100.13397 
L 304.407297 100.029669 
L 304.502284 99.989554 
L 304.628275 99.885254 
L 304.72722 99.797 
L 304.828145 99.6927 
L 304.938964 99.604446 
L 305.14477 99.500146 
L 305.255589 99.427938 
L 305.424456 99.323638 
L 305.531317 99.219338 
L 305.708759 99.115038 
L 305.79847 99.018761 
L 305.915226 98.922484 
L 306.020108 98.850276 
L 306.156652 98.745976 
L 306.260875 98.665745 
L 306.409953 98.561445 
L 306.508898 98.465168 
L 306.630271 98.360868 
L 306.729876 98.280638 
L 306.998348 98.176337 
L 307.106529 98.064014 
L 307.243733 97.959714 
L 307.343998 97.87146 
L 307.568934 97.76716 
L 307.675795 97.686929 
L 307.840044 97.582629 
L 307.93833 97.502399 
L 308.113134 97.398098 
L 308.219335 97.253683 
L 308.438994 97.149383 
L 308.544536 97.101244 
L 308.77343 96.996944 
L 308.880951 96.868575 
L 309.115781 96.764275 
L 309.207471 96.676021 
L 309.386232 96.571721 
L 309.471325 96.515559 
L 309.62634 96.411259 
L 309.713412 96.314982 
L 309.999694 96.210682 
L 310.087426 96.122428 
L 310.26091 96.018128 
L 310.359855 95.953944 
L 310.539276 95.849644 
L 310.621071 95.753367 
L 310.64218 95.753367 
L 310.839411 95.649067 
L 310.901417 95.576859 
L 311.084796 95.472559 
L 311.192976 95.376282 
L 311.474641 95.271982 
L 311.580842 95.199774 
L 311.741134 95.095474 
L 311.849314 95.015243 
L 312.029395 94.910943 
L 312.130319 94.814666 
L 312.367129 94.710366 
L 312.47399 94.654204 
L 312.477948 94.654204 
L 312.570297 94.549904 
L 312.641537 94.48572 
L 312.825576 94.38142 
L 312.931118 94.309212 
L 313.158033 94.204912 
L 313.266213 94.076542 
L 313.454869 93.972242 
L 313.561071 93.883988 
L 313.803157 93.779688 
L 313.902762 93.675388 
L 314.072289 93.571088 
L 314.163319 93.506904 
L 314.293267 93.402604 
L 314.400788 93.322373 
L 314.552504 93.218073 
L 314.643534 93.169934 
L 314.824274 93.065634 
L 314.913325 92.961334 
L 315.134963 92.865057 
L 315.217417 92.784826 
L 315.48523 92.680526 
L 315.595389 92.608318 
L 315.689717 92.504018 
L 315.780087 92.415764 
L 315.895524 92.311464 
L 315.984575 92.239257 
L 316.193679 92.134957 
L 316.286688 92.046703 
L 316.293284 92.046703 
L 316.472705 91.942403 
L 316.571651 91.854149 
L 316.680491 91.749849 
L 316.782075 91.693687 
L 316.971391 91.589387 
L 317.082209 91.533225 
L 317.277462 91.436948 
L 317.381684 91.340671 
L 317.541976 91.236371 
L 317.619813 91.204279 
L 317.863879 91.099979 
L 317.964803 91.019748 
L 318.202932 90.915448 
L 318.219423 90.899402 
L 318.451615 90.795102 
L 318.555177 90.698825 
L 318.855972 90.594525 
L 318.954917 90.498248 
L 319.143573 90.393948 
L 319.251753 90.337786 
L 319.484605 90.233486 
L 319.592126 90.201394 
L 319.827616 90.097094 
L 319.935796 90.000817 
L 320.126431 89.896517 
L 320.222079 89.832332 
L 320.225377 89.832332 
L 320.416671 89.728032 
L 320.526171 89.655824 
L 320.754405 89.551524 
L 320.859947 89.503386 
L 320.987916 89.399085 
L 321.094777 89.334901 
L 321.264304 89.230601 
L 321.371825 89.190485 
L 321.4899 89.086185 
L 321.590164 88.997931 
L 321.806525 88.893631 
L 321.892278 88.845493 
L 321.910088 88.845493 
L 322.154813 88.741193 
L 322.257716 88.660962 
L 322.375132 88.556662 
L 322.480673 88.492477 
L 322.730676 88.388177 
L 322.763657 88.348062 
L 323.053897 88.243762 
L 323.146906 88.203646 
L 323.431869 88.099346 
L 323.496513 88.059231 
L 323.540709 88.059231 
L 323.747175 87.954931 
L 323.848759 87.898769 
L 323.850078 87.898769 
L 324.069737 87.794469 
L 324.180556 87.714238 
L 324.299291 87.609938 
L 324.404173 87.545753 
L 324.840193 87.441453 
L 324.947713 87.377269 
L 325.209589 87.272969 
L 325.309194 87.22483 
L 325.602073 87.128553 
L 325.69838 87.040299 
L 326.008409 86.935999 
L 326.098119 86.895884 
L 326.29667 86.791584 
L 326.365272 86.743445 
L 326.629126 86.639145 
L 326.732689 86.574961 
L 326.937836 86.47066 
L 327.047996 86.430545 
L 327.187838 86.326245 
L 327.27491 86.270083 
L 327.453672 86.165783 
L 327.553277 86.125668 
L 327.843517 86.021368 
L 327.952357 85.965206 
L 328.163441 85.860906 
L 328.270961 85.788698 
L 328.555924 85.684398 
L 328.662126 85.612191 
L 328.665424 85.612191 
L 328.87189 85.507891 
L 328.977432 85.459752 
L 329.266353 85.355452 
L 329.322422 85.29929 
L 329.629153 85.19499 
L 329.722821 85.138829 
L 329.995251 85.034529 
L 330.102112 84.946275 
L 330.3409 84.841975 
L 330.444463 84.785813 
L 330.717553 84.681513 
L 330.805944 84.649421 
L 331.028901 84.545121 
L 331.137741 84.521051 
L 331.387743 84.416751 
L 331.498562 84.312451 
L 331.745926 84.208151 
L 331.84619 84.160013 
L 331.84751 84.160013 
L 331.985374 84.055713 
L 332.078382 83.967459 
L 332.291445 83.863159 
L 332.395668 83.790951 
L 332.598176 83.686651 
L 332.708995 83.622466 
L 332.940527 83.518166 
L 333.045409 83.462005 
L 333.253195 83.357705 
L 333.324435 83.29352 
L 333.548712 83.18922 
L 333.604121 83.165151 
L 333.802672 83.06085 
L 333.908214 83.004689 
L 334.192517 82.900389 
L 334.299378 82.85225 
L 334.511781 82.74795 
L 334.619961 82.715858 
L 334.962972 82.619581 
L 335.05796 82.579466 
L 335.342923 82.475165 
L 335.445826 82.402958 
L 335.694509 82.298658 
L 335.786858 82.242496 
L 336.0738 82.138196 
L 336.18264 82.049942 
L 336.389766 81.953665 
L 336.500585 81.849365 
L 336.633831 81.745065 
L 336.734096 81.672857 
L 337.054679 81.568557 
L 337.127899 81.520419 
L 337.536873 81.416119 
L 337.608114 81.343911 
L 337.875926 81.239611 
L 337.950465 81.191472 
L 338.139781 81.087172 
L 338.234109 81.022988 
L 338.477515 80.918687 
L 338.565906 80.886595 
L 338.826462 80.782295 
L 338.930025 80.734157 
L 339.223563 80.629857 
L 339.305358 80.573695 
L 339.71895 80.469395 
L 339.803384 80.437303 
L 340.04679 80.333002 
L 340.152991 80.30091 
L 340.347584 80.204633 
L 340.451806 80.116379 
L 340.59033 80.012079 
L 340.691914 79.939871 
L 340.942576 79.835571 
L 341.051416 79.77941 
L 341.299439 79.67511 
L 341.399044 79.602902 
L 341.5877 79.498602 
L 341.691263 79.418371 
L 341.960395 79.314071 
L 342.065277 79.23384 
L 342.312641 79.137563 
L 342.312641 79.113494 
L 342.719636 79.017217 
L 342.735467 78.993148 
L 342.819241 78.993148 
L 342.976894 78.888848 
L 343.065286 78.856755 
L 343.333758 78.752455 
L 343.434022 78.656178 
L 343.69128 78.551878 
L 343.80078 78.487694 
L 343.958433 78.391417 
L 344.063315 78.335255 
L 344.370046 78.230955 
L 344.459757 78.206886 
L 344.686012 78.102586 
L 344.796831 78.046424 
L 345.069261 77.942124 
L 345.16095 77.893985 
L 345.404356 77.789685 
L 345.513196 77.701431 
L 345.770454 77.597131 
L 345.867421 77.548993 
L 346.178769 77.444693 
L 346.273757 77.388531 
L 346.57653 77.284231 
L 346.66624 77.244116 
L 346.9202 77.139816 
L 347.027062 77.035516 
L 347.238145 76.931216 
L 347.348304 76.867031 
L 347.534322 76.762731 
L 347.612819 76.706569 
L 347.826541 76.602269 
L 347.935381 76.530061 
L 348.095672 76.425761 
L 348.174829 76.337508 
L 348.405042 76.233207 
L 348.483539 76.169023 
L 348.670875 76.064723 
L 348.777736 75.976469 
L 349.031037 75.872169 
L 349.123386 75.816007 
L 349.390539 75.711707 
L 349.494102 75.607407 
L 349.763233 75.503107 
L 349.858221 75.438922 
L 350.110862 75.334622 
L 350.207168 75.278461 
L 350.487514 75.174161 
L 350.578544 75.109976 
L 350.808757 75.005676 
L 350.910341 74.933468 
L 351.139894 74.829168 
L 351.234222 74.75696 
L 351.475649 74.65266 
L 351.58317 74.604522 
L 351.847684 74.500222 
L 351.948608 74.395922 
L 352.265894 74.291622 
L 352.342411 74.23546 
L 352.615501 74.13116 
L 352.72566 74.050929 
L 352.910358 73.962675 
L 353.000069 73.89849 
L 353.244134 73.79419 
L 353.321312 73.746052 
L 353.573952 73.641752 
L 353.684771 73.537452 
L 353.841765 73.433152 
L 353.946647 73.37699 
L 354.196649 73.280713 
L 354.298233 73.200482 
L 354.464461 73.096182 
L 354.562088 73.015951 
L 354.737551 72.911651 
L 354.8299 72.847467 
L 355.068688 72.743167 
L 355.166315 72.662936 
L 355.383995 72.558636 
L 355.487557 72.510497 
L 355.77384 72.406197 
L 355.843761 72.350036 
L 356.092444 72.253759 
L 356.200624 72.173528 
L 356.548253 72.069228 
L 356.656433 71.956905 
L 356.852345 71.852605 
L 356.961845 71.780397 
L 357.277811 71.676097 
L 357.385331 71.603889 
L 357.498129 71.499589 
L 357.603011 71.443427 
L 357.854992 71.34715 
L 357.944043 71.307035 
L 358.130061 71.202735 
L 358.176895 71.178666 
L 358.544972 71.074366 
L 358.628746 71.03425 
L 358.956585 70.92995 
L 359.064106 70.865765 
L 359.196033 70.761465 
L 359.305533 70.689258 
L 359.475719 70.584958 
L 359.566089 70.528796 
L 359.777832 70.424496 
L 359.862266 70.376357 
L 360.125461 70.272057 
L 360.214512 70.239965 
L 360.508709 70.135665 
L 360.617549 70.103573 
L 360.784437 69.999273 
L 360.893937 69.878926 
L 361.10568 69.774626 
L 361.212541 69.726488 
L 361.435499 69.622188 
L 361.516634 69.533934 
L 361.697374 69.429634 
L 361.802256 69.381495 
L 362.002126 69.277195 
L 362.108987 69.188941 
L 362.272577 69.084641 
L 362.361628 69.020456 
L 362.771922 68.916156 
L 362.878783 68.811856 
L 363.222453 68.707556 
L 363.322058 68.579187 
L 363.495543 68.474887 
L 363.599765 68.37861 
L 363.775229 68.27431 
L 363.868897 68.234194 
L 364.06349 68.129894 
L 364.168372 68.04164 
L 364.502808 67.93734 
L 364.58922 67.889202 
L 364.830647 67.784902 
L 364.912442 67.768856 
L 365.132101 67.664556 
L 365.215874 67.600371 
L 365.574057 67.496071 
L 365.669704 67.447932 
L 365.946752 67.343632 
L 366.045037 67.287471 
L 366.230395 67.183171 
L 366.328681 67.127009 
L 366.522614 67.022709 
L 366.623538 66.958524 
L 366.924992 66.854224 
L 367.025917 66.773993 
L 367.254151 66.669693 
L 367.359033 66.589463 
L 367.56418 66.485162 
L 367.67236 66.412955 
L 368.001519 66.308655 
L 368.111018 66.252493 
L 368.364319 66.148193 
L 368.475138 66.075985 
L 368.626194 65.971685 
L 368.690839 65.907501 
L 368.733056 65.907501 
L 368.917094 65.8032 
L 368.992952 65.730993 
L 369.255488 65.626693 
L 369.361029 65.546462 
L 369.554303 65.442162 
L 369.652589 65.394023 
L 369.941509 65.289723 
L 370.04903 65.201469 
L 370.333333 65.105192 
L 370.384785 65.041008 
L 370.667769 64.936708 
L 370.769353 64.8645 
L 371.027271 64.7602 
L 371.11962 64.704038 
L 371.386113 64.599738 
L 371.472525 64.52753 
L 371.762106 64.42323 
L 371.86237 64.367069 
L 371.968572 64.262769 
L 372.061581 64.190561 
L 372.341926 64.086261 
L 372.431637 64.014053 
L 372.599184 63.909753 
L 372.710003 63.789407 
L 372.91449 63.69313 
L 372.999584 63.644991 
L 373.275311 63.540691 
L 373.380194 63.468484 
L 373.617663 63.364183 
L 373.716608 63.267906 
L 373.953418 63.163606 
L 374.03917 63.091399 
L 374.29445 62.987099 
L 374.391416 62.906868 
L 374.588647 62.802568 
L 374.680997 62.738383 
L 374.904613 62.634083 
L 375.015432 62.553852 
L 375.38153 62.449552 
L 375.488391 62.385367 
L 375.863065 62.281067 
L 375.96333 62.240952 
L 376.293807 62.136652 
L 376.39869 62.056421 
L 376.683653 61.952121 
L 376.781938 61.895959 
L 377.049751 61.791659 
L 377.144079 61.751544 
L 377.381548 61.647244 
L 377.491707 61.599105 
L 377.710706 61.494805 
L 377.819546 61.422598 
L 378.022714 61.318297 
L 378.124298 61.238067 
L 378.425752 61.133767 
L 378.509526 61.061559 
L 378.707417 60.957259 
L 378.797787 60.90912 
L 379.104518 60.80482 
L 379.204783 60.732612 
L 379.448189 60.628312 
L 379.551751 60.556105 
L 379.746344 60.451805 
L 379.812308 60.403666 
L 380.089355 60.299366 
L 380.182364 60.259251 
L 380.295821 60.154951 
L 380.378276 60.090766 
L 380.512842 59.986466 
L 380.560335 59.954373 
L 380.855853 59.850073 
L 380.948861 59.801935 
L 380.95084 59.801935 
L 381.092662 59.697635 
L 381.177095 59.625427 
L 381.429736 59.521127 
L 381.533959 59.464965 
L 381.811666 59.360665 
L 381.909951 59.296481 
L 382.119056 59.192181 
L 382.221959 59.160088 
L 382.427106 59.055788 
L 382.512859 59.015673 
L 382.78397 58.911373 
L 382.867084 58.863234 
L 383.215372 58.758934 
L 383.317615 58.710796 
L 383.564979 58.606496 
L 383.675798 58.558357 
L 384.049152 58.454057 
L 384.157992 58.397896 
L 384.437678 58.293595 
L 384.512876 58.245457 
L 384.861164 58.141157 
L 384.971983 58.04488 
L 385.170534 57.94058 
L 385.262223 57.908488 
L 385.479244 57.812211 
L 385.479244 57.796164 
L 385.860514 57.691864 
L 385.910646 57.651749 
L 386.154711 57.547449 
L 386.26553 57.483264 
L 386.605243 57.378964 
L 386.709466 57.330826 
L 386.881631 57.226526 
L 386.986513 57.146295 
L 387.320289 57.041995 
L 387.429788 56.993856 
L 387.637574 56.889556 
L 387.727944 56.825371 
L 388.13362 56.737118 
L 388.213436 56.616771 
L 388.458821 56.512471 
L 388.539297 56.45631 
L 388.557767 56.45631 
L 388.794576 56.35201 
L 388.870434 56.32794 
L 389.167271 56.22364 
L 389.27809 56.167479 
L 389.454872 56.063179 
L 389.555796 56.031086 
L 389.908702 55.926786 
L 390.010946 55.886671 
L 390.262927 55.782371 
L 390.262927 55.774348 
L 390.665964 55.670048 
L 390.756994 55.621909 
L 391.28998 55.517609 
L 391.396182 55.477494 
L 391.644865 55.373194 
L 391.746449 55.309009 
L 392.17983 55.204709 
L 392.231282 55.140524 
L 392.619148 55.036224 
L 392.718093 54.964016 
L 392.992502 54.859716 
L 393.063743 54.835647 
L 393.388284 54.731347 
L 393.480633 54.659139 
L 393.777469 54.554839 
L 393.777469 54.546816 
L 394.1561 54.442516 
L 394.26626 54.354262 
L 394.472726 54.249962 
L 394.576289 54.1938 
L 395.065079 54.0895 
L 395.160727 54.041362 
L 395.580255 53.937062 
L 395.617195 53.921016 
L 396.423271 53.816716 
L 396.505065 53.792646 
L 397.159425 53.688346 
L 397.215494 53.664277 
L 398.487273 53.568 
L 398.487273 53.568 
" clip-path="url(#p99f5609f84)" style="fill: none; stroke: #1f77b4; stroke-width: 1.5; stroke-linecap: square"/>
   </g>
   <g id="line2d_26">
    <path d="M 73.832727 295.488 
L 398.487273 53.568 
" clip-path="url(#p99f5609f84)" style="fill: none; stroke-dasharray: 5.55,2.4; stroke-dashoffset: 0; stroke: #808080; stroke-width: 1.5"/>
   </g>
   <g id="patch_3">
    <path d="M 57.6 307.584 
L 57.6 41.472 
" style="fill: none; stroke: #000000; stroke-width: 0.8; stroke-linejoin: miter; stroke-linecap: square"/>
   </g>
   <g id="patch_4">
    <path d="M 414.72 307.584 
L 414.72 41.472 
" style="fill: none; stroke: #000000; stroke-width: 0.8; stroke-linejoin: miter; stroke-linecap: square"/>
   </g>
   <g id="patch_5">
    <path d="M 57.6 307.584 
L 414.72 307.584 
" style="fill: none; stroke: #000000; stroke-width: 0.8; stroke-linejoin: miter; stroke-linecap: square"/>
   </g>
   <g id="patch_6">
    <path d="M 57.6 41.472 
L 414.72 41.472 
" style="fill: none; stroke: #000000; stroke-width: 0.8; stroke-linejoin: miter; stroke-linecap: square"/>
   </g>
   <g id="text_15">
    <!-- ROC - Naive Bayes (Patient Split) -->
    <g transform="translate(137.265 35.472) scale(0.12 -0.12)">
     <defs>
      <path id="DejaVuSans-4f" d="M 2522 4238 
Q 1834 4238 1429 3725 
Q 1025 3213 1025 2328 
Q 1025 1447 1429 934 
Q 1834 422 2522 422 
Q 3209 422 3611 934 
Q 4013 1447 4013 2328 
Q 4013 3213 3611 3725 
Q 3209 4238 2522 4238 
z
M 2522 4750 
Q 3503 4750 4090 4092 
Q 4678 3434 4678 2328 
Q 4678 1225 4090 567 
Q 3503 -91 2522 -91 
Q 1538 -91 948 565 
Q 359 1222 359 2328 
Q 359 3434 948 4092 
Q 1538 4750 2522 4750 
z
" transform="scale(0.015625)"/>
      <path id="DejaVuSans-43" d="M 4122 4306 
L 4122 3641 
Q 3803 3938 3442 4084 
Q 3081 4231 2675 4231 
Q 1875 4231 1450 3742 
Q 1025 3253 1025 2328 
Q 1025 1406 1450 917 
Q 1875 428 2675 428 
Q 3081 428 3442 575 
Q 3803 722 4122 1019 
L 4122 359 
Q 3791 134 3420 21 
Q 3050 -91 2638 -91 
Q 1578 -91 968 557 
Q 359 1206 359 2328 
Q 359 3453 968 4101 
Q 1578 4750 2638 4750 
Q 3056 4750 3426 4639 
Q 3797 4528 4122 4306 
z
" transform="scale(0.015625)"/>
      <path id="DejaVuSans-20" transform="scale(0.015625)"/>
      <path id="DejaVuSans-2d" d="M 313 2009 
L 1997 2009 
L 1997 1497 
L 313 1497 
L 313 2009 
z
" transform="scale(0.015625)"/>
      <path id="DejaVuSans-4e" d="M 628 4666 
L 1478 4666 
L 3547 763 
L 3547 4666 
L 4159 4666 
L 4159 0 
L 3309 0 
L 1241 3903 
L 1241 0 
L 628 0 
L 628 4666 
z
" transform="scale(0.015625)"/>
      <path id="DejaVuSans-61" d="M 2194 1759 
Q 1497 1759 1228 1600 
Q 959 1441 959 1056 
Q 959 750 1161 570 
Q 1363 391 1709 391 
Q 2188 391 2477 730 
Q 2766 1069 2766 1631 
L 2766 1759 
L 2194 1759 
z
M 3341 1997 
L 3341 0 
L 2766 0 
L 2766 531 
Q 2569 213 2275 61 
Q 1981 -91 1556 -91 
Q 1019 -91 701 211 
Q 384 513 384 1019 
Q 384 1609 779 1909 
Q 1175 2209 1959 2209 
L 2766 2209 
L 2766 2266 
Q 2766 2663 2505 2880 
Q 2244 3097 1772 3097 
Q 1472 3097 1187 3025 
Q 903 2953 641 2809 
L 641 3341 
Q 956 3463 1253 3523 
Q 1550 3584 1831 3584 
Q 2591 3584 2966 3190 
Q 3341 2797 3341 1997 
z
" transform="scale(0.015625)"/>
      <path id="DejaVuSans-69" d="M 603 3500 
L 1178 3500 
L 1178 0 
L 603 0 
L 603 3500 
z
M 603 4863 
L 1178 4863 
L 1178 4134 
L 603 4134 
L 603 4863 
z
" transform="scale(0.015625)"/>
      <path id="DejaVuSans-76" d="M 191 3500 
L 800 3500 
L 1894 563 
L 2988 3500 
L 3597 3500 
L 2284 0 
L 1503 0 
L 191 3500 
z
" transform="scale(0.015625)"/>
      <path id="DejaVuSans-65" d="M 3597 1894 
L 3597 1613 
L 953 1613 
Q 991 1019 1311 708 
Q 1631 397 2203 397 
Q 2534 397 2845 478 
Q 3156 559 3463 722 
L 3463 178 
Q 3153 47 2828 -22 
Q 2503 -91 2169 -91 
Q 1331 -91 842 396 
Q 353 884 353 1716 
Q 353 2575 817 3079 
Q 1281 3584 2069 3584 
Q 2775 3584 3186 3129 
Q 3597 2675 3597 1894 
z
M 3022 2063 
Q 3016 2534 2758 2815 
Q 2500 3097 2075 3097 
Q 1594 3097 1305 2825 
Q 1016 2553 972 2059 
L 3022 2063 
z
" transform="scale(0.015625)"/>
      <path id="DejaVuSans-42" d="M 1259 2228 
L 1259 519 
L 2272 519 
Q 2781 519 3026 730 
Q 3272 941 3272 1375 
Q 3272 1813 3026 2020 
Q 2781 2228 2272 2228 
L 1259 2228 
z
M 1259 4147 
L 1259 2741 
L 2194 2741 
Q 2656 2741 2882 2914 
Q 3109 3088 3109 3444 
Q 3109 3797 2882 3972 
Q 2656 4147 2194 4147 
L 1259 4147 
z
M 628 4666 
L 2241 4666 
Q 2963 4666 3353 4366 
Q 3744 4066 3744 3513 
Q 3744 3084 3544 2831 
Q 3344 2578 2956 2516 
Q 3422 2416 3680 2098 
Q 3938 1781 3938 1306 
Q 3938 681 3513 340 
Q 3088 0 2303 0 
L 628 0 
L 628 4666 
z
" transform="scale(0.015625)"/>
      <path id="DejaVuSans-79" d="M 2059 -325 
Q 1816 -950 1584 -1140 
Q 1353 -1331 966 -1331 
L 506 -1331 
L 506 -850 
L 844 -850 
Q 1081 -850 1212 -737 
Q 1344 -625 1503 -206 
L 1606 56 
L 191 3500 
L 800 3500 
L 1894 763 
L 2988 3500 
L 3597 3500 
L 2059 -325 
z
" transform="scale(0.015625)"/>
      <path id="DejaVuSans-73" d="M 2834 3397 
L 2834 2853 
Q 2591 2978 2328 3040 
Q 2066 3103 1784 3103 
Q 1356 3103 1142 2972 
Q 928 2841 928 2578 
Q 928 2378 1081 2264 
Q 1234 2150 1697 2047 
L 1894 2003 
Q 2506 1872 2764 1633 
Q 3022 1394 3022 966 
Q 3022 478 2636 193 
Q 2250 -91 1575 -91 
Q 1294 -91 989 -36 
Q 684 19 347 128 
L 347 722 
Q 666 556 975 473 
Q 1284 391 1588 391 
Q 1994 391 2212 530 
Q 2431 669 2431 922 
Q 2431 1156 2273 1281 
Q 2116 1406 1581 1522 
L 1381 1569 
Q 847 1681 609 1914 
Q 372 2147 372 2553 
Q 372 3047 722 3315 
Q 1072 3584 1716 3584 
Q 2034 3584 2315 3537 
Q 2597 3491 2834 3397 
z
" transform="scale(0.015625)"/>
      <path id="DejaVuSans-28" d="M 1984 4856 
Q 1566 4138 1362 3434 
Q 1159 2731 1159 2009 
Q 1159 1288 1364 580 
Q 1569 -128 1984 -844 
L 1484 -844 
Q 1016 -109 783 600 
Q 550 1309 550 2009 
Q 550 2706 781 3412 
Q 1013 4119 1484 4856 
L 1984 4856 
z
" transform="scale(0.015625)"/>
      <path id="DejaVuSans-74" d="M 1172 4494 
L 1172 3500 
L 2356 3500 
L 2356 3053 
L 1172 3053 
L 1172 1153 
Q 1172 725 1289 603 
Q 1406 481 1766 481 
L 2356 481 
L 2356 0 
L 1766 0 
Q 1100 0 847 248 
Q 594 497 594 1153 
L 594 3053 
L 172 3053 
L 172 3500 
L 594 3500 
L 594 4494 
L 1172 4494 
z
" transform="scale(0.015625)"/>
      <path id="DejaVuSans-6e" d="M 3513 2113 
L 3513 0 
L 2938 0 
L 2938 2094 
Q 2938 2591 2744 2837 
Q 2550 3084 2163 3084 
Q 1697 3084 1428 2787 
Q 1159 2491 1159 1978 
L 1159 0 
L 581 0 
L 581 3500 
L 1159 3500 
L 1159 2956 
Q 1366 3272 1645 3428 
Q 1925 3584 2291 3584 
Q 2894 3584 3203 3211 
Q 3513 2838 3513 2113 
z
" transform="scale(0.015625)"/>
      <path id="DejaVuSans-53" d="M 3425 4513 
L 3425 3897 
Q 3066 4069 2747 4153 
Q 2428 4238 2131 4238 
Q 1616 4238 1336 4038 
Q 1056 3838 1056 3469 
Q 1056 3159 1242 3001 
Q 1428 2844 1947 2747 
L 2328 2669 
Q 3034 2534 3370 2195 
Q 3706 1856 3706 1288 
Q 3706 609 3251 259 
Q 2797 -91 1919 -91 
Q 1588 -91 1214 -16 
Q 841 59 441 206 
L 441 856 
Q 825 641 1194 531 
Q 1563 422 1919 422 
Q 2459 422 2753 634 
Q 3047 847 3047 1241 
Q 3047 1584 2836 1778 
Q 2625 1972 2144 2069 
L 1759 2144 
Q 1053 2284 737 2584 
Q 422 2884 422 3419 
Q 422 4038 858 4394 
Q 1294 4750 2059 4750 
Q 2388 4750 2728 4690 
Q 3069 4631 3425 4513 
z
" transform="scale(0.015625)"/>
      <path id="DejaVuSans-70" d="M 1159 525 
L 1159 -1331 
L 581 -1331 
L 581 3500 
L 1159 3500 
L 1159 2969 
Q 1341 3281 1617 3432 
Q 1894 3584 2278 3584 
Q 2916 3584 3314 3078 
Q 3713 2572 3713 1747 
Q 3713 922 3314 415 
Q 2916 -91 2278 -91 
Q 1894 -91 1617 61 
Q 1341 213 1159 525 
z
M 3116 1747 
Q 3116 2381 2855 2742 
Q 2594 3103 2138 3103 
Q 1681 3103 1420 2742 
Q 1159 2381 1159 1747 
Q 1159 1113 1420 752 
Q 1681 391 2138 391 
Q 2594 391 2855 752 
Q 3116 1113 3116 1747 
z
" transform="scale(0.015625)"/>
      <path id="DejaVuSans-6c" d="M 603 4863 
L 1178 4863 
L 1178 0 
L 603 0 
L 603 4863 
z
" transform="scale(0.015625)"/>
      <path id="DejaVuSans-29" d="M 513 4856 
L 1013 4856 
Q 1481 4119 1714 3412 
Q 1947 2706 1947 2009 
Q 1947 1309 1714 600 
Q 1481 -109 1013 -844 
L 513 -844 
Q 928 -128 1133 580 
Q 1338 1288 1338 2009 
Q 1338 2731 1133 3434 
Q 928 4138 513 4856 
z
" transform="scale(0.015625)"/>
     </defs>
     <use xlink:href="#DejaVuSans-52"/>
     <use xlink:href="#DejaVuSans-4f" x="69.482422"/>
     <use xlink:href="#DejaVuSans-43" x="148.193359"/>
     <use xlink:href="#DejaVuSans-20" x="218.017578"/>
     <use xlink:href="#DejaVuSans-2d" x="249.804688"/>
     <use xlink:href="#DejaVuSans-20" x="285.888672"/>
     <use xlink:href="#DejaVuSans-4e" x="317.675781"/>
     <use xlink:href="#DejaVuSans-61" x="392.480469"/>
     <use xlink:href="#DejaVuSans-69" x="453.759766"/>
     <use xlink:href="#DejaVuSans-76" x="481.542969"/>
     <use xlink:href="#DejaVuSans-65" x="540.722656"/>
     <use xlink:href="#DejaVuSans-20" x="602.246094"/>
     <use xlink:href="#DejaVuSans-42" x="634.033203"/>
     <use xlink:href="#DejaVuSans-61" x="702.636719"/>
     <use xlink:href="#DejaVuSans-79" x="763.916016"/>
     <use xlink:href="#DejaVuSans-65" x="823.095703"/>
     <use xlink:href="#DejaVuSans-73" x="884.619141"/>
     <use xlink:href="#DejaVuSans-20" x="936.71875"/>
     <use xlink:href="#DejaVuSans-28" x="968.505859"/>
     <use xlink:href="#DejaVuSans-50" x="1007.519531"/>
     <use xlink:href="#DejaVuSans-61" x="1063.322266"/>
     <use xlink:href="#DejaVuSans-74" x="1124.601562"/>
     <use xlink:href="#DejaVuSans-69" x="1163.810547"/>
     <use xlink:href="#DejaVuSans-65" x="1191.59375"/>
     <use xlink:href="#DejaVuSans-6e" x="1253.117188"/>
     <use xlink:href="#DejaVuSans-74" x="1316.496094"/>
     <use xlink:href="#DejaVuSans-20" x="1355.705078"/>
     <use xlink:href="#DejaVuSans-53" x="1387.492188"/>
     <use xlink:href="#DejaVuSans-70" x="1450.96875"/>
     <use xlink:href="#DejaVuSans-6c" x="1514.445312"/>
     <use xlink:href="#DejaVuSans-69" x="1542.228516"/>
     <use xlink:href="#DejaVuSans-74" x="1570.011719"/>
     <use xlink:href="#DejaVuSans-29" x="1609.220703"/>
    </g>
   </g>
   <g id="legend_1">
    <g id="patch_7">
     <path d="M 64.6 64.150125 
L 167.46875 64.150125 
Q 169.46875 64.150125 169.46875 62.150125 
L 169.46875 48.472 
Q 169.46875 46.472 167.46875 46.472 
L 64.6 46.472 
Q 62.6 46.472 62.6 48.472 
L 62.6 62.150125 
Q 62.6 64.150125 64.6 64.150125 
z
" style="fill: #ffffff; opacity: 0.8; stroke: #cccccc; stroke-linejoin: miter"/>
    </g>
    <g id="line2d_27">
     <path d="M 66.6 54.570438 
L 76.6 54.570438 
L 86.6 54.570438 
" style="fill: none; stroke: #1f77b4; stroke-width: 1.5; stroke-linecap: square"/>
    </g>
    <g id="text_16">
     <!-- AUC = 0.5636 -->
     <g transform="translate(94.6 58.070438) scale(0.1 -0.1)">
      <defs>
       <path id="DejaVuSans-41" d="M 2188 4044 
L 1331 1722 
L 3047 1722 
L 2188 4044 
z
M 1831 4666 
L 2547 4666 
L 4325 0 
L 3669 0 
L 3244 1197 
L 1141 1197 
L 716 0 
L 50 0 
L 1831 4666 
z
" transform="scale(0.015625)"/>
       <path id="DejaVuSans-55" d="M 556 4666 
L 1191 4666 
L 1191 1831 
Q 1191 1081 1462 751 
Q 1734 422 2344 422 
Q 2950 422 3222 751 
Q 3494 1081 3494 1831 
L 3494 4666 
L 4128 4666 
L 4128 1753 
Q 4128 841 3676 375 
Q 3225 -91 2344 -91 
Q 1459 -91 1007 375 
Q 556 841 556 1753 
L 556 4666 
z
" transform="scale(0.015625)"/>
       <path id="DejaVuSans-3d" d="M 678 2906 
L 4684 2906 
L 4684 2381 
L 678 2381 
L 678 2906 
z
M 678 1631 
L 4684 1631 
L 4684 1100 
L 678 1100 
L 678 1631 
z
" transform="scale(0.015625)"/>
       <path id="DejaVuSans-35" d="M 691 4666 
L 3169 4666 
L 3169 4134 
L 1269 4134 
L 1269 2991 
Q 1406 3038 1543 3061 
Q 1681 3084 1819 3084 
Q 2600 3084 3056 2656 
Q 3513 2228 3513 1497 
Q 3513 744 3044 326 
Q 2575 -91 1722 -91 
Q 1428 -91 1123 -41 
Q 819 9 494 109 
L 494 744 
Q 775 591 1075 516 
Q 1375 441 1709 441 
Q 2250 441 2565 725 
Q 2881 1009 2881 1497 
Q 2881 1984 2565 2268 
Q 2250 2553 1709 2553 
Q 1456 2553 1204 2497 
Q 953 2441 691 2322 
L 691 4666 
z
" transform="scale(0.015625)"/>
       <path id="DejaVuSans-33" d="M 2597 2516 
Q 3050 2419 3304 2112 
Q 3559 1806 3559 1356 
Q 3559 666 3084 287 
Q 2609 -91 1734 -91 
Q 1441 -91 1130 -33 
Q 819 25 488 141 
L 488 750 
Q 750 597 1062 519 
Q 1375 441 1716 441 
Q 2309 441 2620 675 
Q 2931 909 2931 1356 
Q 2931 1769 2642 2001 
Q 2353 2234 1838 2234 
L 1294 2234 
L 1294 2753 
L 1863 2753 
Q 2328 2753 2575 2939 
Q 2822 3125 2822 3475 
Q 2822 3834 2567 4026 
Q 2313 4219 1838 4219 
Q 1578 4219 1281 4162 
Q 984 4106 628 3988 
L 628 4550 
Q 988 4650 1302 4700 
Q 1616 4750 1894 4750 
Q 2613 4750 3031 4423 
Q 3450 4097 3450 3541 
Q 3450 3153 3228 2886 
Q 3006 2619 2597 2516 
z
" transform="scale(0.015625)"/>
      </defs>
      <use xlink:href="#DejaVuSans-41"/>
      <use xlink:href="#DejaVuSans-55" x="68.408203"/>
      <use xlink:href="#DejaVuSans-43" x="141.601562"/>
      <use xlink:href="#DejaVuSans-20" x="211.425781"/>
      <use xlink:href="#DejaVuSans-3d" x="243.212891"/>
      <use xlink:href="#DejaVuSans-20" x="327.001953"/>
      <use xlink:href="#DejaVuSans-30" x="358.789062"/>
      <use xlink:href="#DejaVuSans-2e" x="422.412109"/>
      <use xlink:href="#DejaVuSans-35" x="454.199219"/>
      <use xlink:href="#DejaVuSans-36" x="517.822266"/>
      <use xlink:href="#DejaVuSans-33" x="581.445312"/>
      <use xlink:href="#DejaVuSans-36" x="645.068359"/>
     </g>
    </g>
   </g>
  </g>
 </g>
 <defs>
  <clipPath id="p99f5609f84">
   <rect x="57.6" y="41.472" width="357.12" height="266.112"/>
  </clipPath>
 </defs>
</svg>
