<?xml version="1.0" encoding="utf-8" standalone="no"?>
<!DOCTYPE svg PUBLIC "-//W3C//DTD SVG 1.1//EN"
  "http://www.w3.org/Graphics/SVG/1.1/DTD/svg11.dtd">
<svg xmlns:xlink="http://www.w3.org/1999/xlink" width="432pt" height="432pt" viewBox="0 0 432 432" xmlns="http://www.w3.org/2000/svg" version="1.1">
 <metadata>
  <rdf:RDF xmlns:dc="http://purl.org/dc/elements/1.1/" xmlns:cc="http://creativecommons.org/ns#" xmlns:rdf="http://www.w3.org/1999/02/22-rdf-syntax-ns#">
   <cc:Work>
    <dc:type rdf:resource="http://purl.org/dc/dcmitype/StillImage"/>
    <dc:date>2025-07-01T11:29:50.178256</dc:date>
    <dc:format>image/svg+xml</dc:format>
    <dc:creator>
     <cc:Agent>
      <dc:title>Matplotlib v3.7.5, https://matplotlib.org/</dc:title>
     </cc:Agent>
    </dc:creator>
   </cc:Work>
  </rdf:RDF>
 </metadata>
 <defs>
  <style type="text/css">*{stroke-linejoin: round; stroke-linecap: butt}</style>
 </defs>
 <g id="figure_1">
  <g id="patch_1">
   <path d="M 0 432 
L 432 432 
L 432 0 
L 0 0 
z
" style="fill: #ffffff"/>
  </g>
  <g id="axes_1">
   <g id="patch_2">
    <path d="M 54 384.48 
L 388.8 384.48 
L 388.8 51.84 
L 54 51.84 
z
" style="fill: #ffffff"/>
   </g>
   <g id="matplotlib.axis_1">
    <g id="xtick_1">
     <g id="line2d_1">
      <path d="M 69.218182 384.48 
L 69.218182 51.84 
" clip-path="url(#pf62efe0c81)" style="fill: none; stroke: #b0b0b0; stroke-width: 0.8; stroke-linecap: square"/>
     </g>
     <g id="line2d_2">
      <defs>
       <path id="m4e3cbe449d" d="M 0 0 
L 0 3.5 
" style="stroke: #000000; stroke-width: 0.8"/>
      </defs>
      <g>
       <use xlink:href="#m4e3cbe449d" x="69.218182" y="384.48" style="stroke: #000000; stroke-width: 0.8"/>
      </g>
     </g>
     <g id="text_1">
      <!-- 0.0 -->
      <g transform="translate(61.266619 399.078438) scale(0.1 -0.1)">
       <defs>
        <path id="DejaVuSans-30" d="M 2034 4250 
Q 1547 4250 1301 3770 
Q 1056 3291 1056 2328 
Q 1056 1369 1301 889 
Q 1547 409 2034 409 
Q 2525 409 2770 889 
Q 3016 1369 3016 2328 
Q 3016 3291 2770 3770 
Q 2525 4250 2034 4250 
z
M 2034 4750 
Q 2819 4750 3233 4129 
Q 3647 3509 3647 2328 
Q 3647 1150 3233 529 
Q 2819 -91 2034 -91 
Q 1250 -91 836 529 
Q 422 1150 422 2328 
Q 422 3509 836 4129 
Q 1250 4750 2034 4750 
z
" transform="scale(0.015625)"/>
        <path id="DejaVuSans-2e" d="M 684 794 
L 1344 794 
L 1344 0 
L 684 0 
L 684 794 
z
" transform="scale(0.015625)"/>
       </defs>
       <use xlink:href="#DejaVuSans-30"/>
       <use xlink:href="#DejaVuSans-2e" x="63.623047"/>
       <use xlink:href="#DejaVuSans-30" x="95.410156"/>
      </g>
     </g>
    </g>
    <g id="xtick_2">
     <g id="line2d_3">
      <path d="M 130.090909 384.48 
L 130.090909 51.84 
" clip-path="url(#pf62efe0c81)" style="fill: none; stroke: #b0b0b0; stroke-width: 0.8; stroke-linecap: square"/>
     </g>
     <g id="line2d_4">
      <g>
       <use xlink:href="#m4e3cbe449d" x="130.090909" y="384.48" style="stroke: #000000; stroke-width: 0.8"/>
      </g>
     </g>
     <g id="text_2">
      <!-- 0.2 -->
      <g transform="translate(122.139347 399.078438) scale(0.1 -0.1)">
       <defs>
        <path id="DejaVuSans-32" d="M 1228 531 
L 3431 531 
L 3431 0 
L 469 0 
L 469 531 
Q 828 903 1448 1529 
Q 2069 2156 2228 2338 
Q 2531 2678 2651 2914 
Q 2772 3150 2772 3378 
Q 2772 3750 2511 3984 
Q 2250 4219 1831 4219 
Q 1534 4219 1204 4116 
Q 875 4013 500 3803 
L 500 4441 
Q 881 4594 1212 4672 
Q 1544 4750 1819 4750 
Q 2544 4750 2975 4387 
Q 3406 4025 3406 3419 
Q 3406 3131 3298 2873 
Q 3191 2616 2906 2266 
Q 2828 2175 2409 1742 
Q 1991 1309 1228 531 
z
" transform="scale(0.015625)"/>
       </defs>
       <use xlink:href="#DejaVuSans-30"/>
       <use xlink:href="#DejaVuSans-2e" x="63.623047"/>
       <use xlink:href="#DejaVuSans-32" x="95.410156"/>
      </g>
     </g>
    </g>
    <g id="xtick_3">
     <g id="line2d_5">
      <path d="M 190.963636 384.48 
L 190.963636 51.84 
" clip-path="url(#pf62efe0c81)" style="fill: none; stroke: #b0b0b0; stroke-width: 0.8; stroke-linecap: square"/>
     </g>
     <g id="line2d_6">
      <g>
       <use xlink:href="#m4e3cbe449d" x="190.963636" y="384.48" style="stroke: #000000; stroke-width: 0.8"/>
      </g>
     </g>
     <g id="text_3">
      <!-- 0.4 -->
      <g transform="translate(183.012074 399.078438) scale(0.1 -0.1)">
       <defs>
        <path id="DejaVuSans-34" d="M 2419 4116 
L 825 1625 
L 2419 1625 
L 2419 4116 
z
M 2253 4666 
L 3047 4666 
L 3047 1625 
L 3713 1625 
L 3713 1100 
L 3047 1100 
L 3047 0 
L 2419 0 
L 2419 1100 
L 313 1100 
L 313 1709 
L 2253 4666 
z
" transform="scale(0.015625)"/>
       </defs>
       <use xlink:href="#DejaVuSans-30"/>
       <use xlink:href="#DejaVuSans-2e" x="63.623047"/>
       <use xlink:href="#DejaVuSans-34" x="95.410156"/>
      </g>
     </g>
    </g>
    <g id="xtick_4">
     <g id="line2d_7">
      <path d="M 251.836364 384.48 
L 251.836364 51.84 
" clip-path="url(#pf62efe0c81)" style="fill: none; stroke: #b0b0b0; stroke-width: 0.8; stroke-linecap: square"/>
     </g>
     <g id="line2d_8">
      <g>
       <use xlink:href="#m4e3cbe449d" x="251.836364" y="384.48" style="stroke: #000000; stroke-width: 0.8"/>
      </g>
     </g>
     <g id="text_4">
      <!-- 0.6 -->
      <g transform="translate(243.884801 399.078438) scale(0.1 -0.1)">
       <defs>
        <path id="DejaVuSans-36" d="M 2113 2584 
Q 1688 2584 1439 2293 
Q 1191 2003 1191 1497 
Q 1191 994 1439 701 
Q 1688 409 2113 409 
Q 2538 409 2786 701 
Q 3034 994 3034 1497 
Q 3034 2003 2786 2293 
Q 2538 2584 2113 2584 
z
M 3366 4563 
L 3366 3988 
Q 3128 4100 2886 4159 
Q 2644 4219 2406 4219 
Q 1781 4219 1451 3797 
Q 1122 3375 1075 2522 
Q 1259 2794 1537 2939 
Q 1816 3084 2150 3084 
Q 2853 3084 3261 2657 
Q 3669 2231 3669 1497 
Q 3669 778 3244 343 
Q 2819 -91 2113 -91 
Q 1303 -91 875 529 
Q 447 1150 447 2328 
Q 447 3434 972 4092 
Q 1497 4750 2381 4750 
Q 2619 4750 2861 4703 
Q 3103 4656 3366 4563 
z
" transform="scale(0.015625)"/>
       </defs>
       <use xlink:href="#DejaVuSans-30"/>
       <use xlink:href="#DejaVuSans-2e" x="63.623047"/>
       <use xlink:href="#DejaVuSans-36" x="95.410156"/>
      </g>
     </g>
    </g>
    <g id="xtick_5">
     <g id="line2d_9">
      <path d="M 312.709091 384.48 
L 312.709091 51.84 
" clip-path="url(#pf62efe0c81)" style="fill: none; stroke: #b0b0b0; stroke-width: 0.8; stroke-linecap: square"/>
     </g>
     <g id="line2d_10">
      <g>
       <use xlink:href="#m4e3cbe449d" x="312.709091" y="384.48" style="stroke: #000000; stroke-width: 0.8"/>
      </g>
     </g>
     <g id="text_5">
      <!-- 0.8 -->
      <g transform="translate(304.757528 399.078438) scale(0.1 -0.1)">
       <defs>
        <path id="DejaVuSans-38" d="M 2034 2216 
Q 1584 2216 1326 1975 
Q 1069 1734 1069 1313 
Q 1069 891 1326 650 
Q 1584 409 2034 409 
Q 2484 409 2743 651 
Q 3003 894 3003 1313 
Q 3003 1734 2745 1975 
Q 2488 2216 2034 2216 
z
M 1403 2484 
Q 997 2584 770 2862 
Q 544 3141 544 3541 
Q 544 4100 942 4425 
Q 1341 4750 2034 4750 
Q 2731 4750 3128 4425 
Q 3525 4100 3525 3541 
Q 3525 3141 3298 2862 
Q 3072 2584 2669 2484 
Q 3125 2378 3379 2068 
Q 3634 1759 3634 1313 
Q 3634 634 3220 271 
Q 2806 -91 2034 -91 
Q 1263 -91 848 271 
Q 434 634 434 1313 
Q 434 1759 690 2068 
Q 947 2378 1403 2484 
z
M 1172 3481 
Q 1172 3119 1398 2916 
Q 1625 2713 2034 2713 
Q 2441 2713 2670 2916 
Q 2900 3119 2900 3481 
Q 2900 3844 2670 4047 
Q 2441 4250 2034 4250 
Q 1625 4250 1398 4047 
Q 1172 3844 1172 3481 
z
" transform="scale(0.015625)"/>
       </defs>
       <use xlink:href="#DejaVuSans-30"/>
       <use xlink:href="#DejaVuSans-2e" x="63.623047"/>
       <use xlink:href="#DejaVuSans-38" x="95.410156"/>
      </g>
     </g>
    </g>
    <g id="xtick_6">
     <g id="line2d_11">
      <path d="M 373.581818 384.48 
L 373.581818 51.84 
" clip-path="url(#pf62efe0c81)" style="fill: none; stroke: #b0b0b0; stroke-width: 0.8; stroke-linecap: square"/>
     </g>
     <g id="line2d_12">
      <g>
       <use xlink:href="#m4e3cbe449d" x="373.581818" y="384.48" style="stroke: #000000; stroke-width: 0.8"/>
      </g>
     </g>
     <g id="text_6">
      <!-- 1.0 -->
      <g transform="translate(365.630256 399.078438) scale(0.1 -0.1)">
       <defs>
        <path id="DejaVuSans-31" d="M 794 531 
L 1825 531 
L 1825 4091 
L 703 3866 
L 703 4441 
L 1819 4666 
L 2450 4666 
L 2450 531 
L 3481 531 
L 3481 0 
L 794 0 
L 794 531 
z
" transform="scale(0.015625)"/>
       </defs>
       <use xlink:href="#DejaVuSans-31"/>
       <use xlink:href="#DejaVuSans-2e" x="63.623047"/>
       <use xlink:href="#DejaVuSans-30" x="95.410156"/>
      </g>
     </g>
    </g>
    <g id="text_7">
     <!-- False Positive Rate -->
     <g transform="translate(174.933594 412.756563) scale(0.1 -0.1)">
      <defs>
       <path id="DejaVuSans-46" d="M 628 4666 
L 3309 4666 
L 3309 4134 
L 1259 4134 
L 1259 2759 
L 3109 2759 
L 3109 2228 
L 1259 2228 
L 1259 0 
L 628 0 
L 628 4666 
z
" transform="scale(0.015625)"/>
       <path id="DejaVuSans-61" d="M 2194 1759 
Q 1497 1759 1228 1600 
Q 959 1441 959 1056 
Q 959 750 1161 570 
Q 1363 391 1709 391 
Q 2188 391 2477 730 
Q 2766 1069 2766 1631 
L 2766 1759 
L 2194 1759 
z
M 3341 1997 
L 3341 0 
L 2766 0 
L 2766 531 
Q 2569 213 2275 61 
Q 1981 -91 1556 -91 
Q 1019 -91 701 211 
Q 384 513 384 1019 
Q 384 1609 779 1909 
Q 1175 2209 1959 2209 
L 2766 2209 
L 2766 2266 
Q 2766 2663 2505 2880 
Q 2244 3097 1772 3097 
Q 1472 3097 1187 3025 
Q 903 2953 641 2809 
L 641 3341 
Q 956 3463 1253 3523 
Q 1550 3584 1831 3584 
Q 2591 3584 2966 3190 
Q 3341 2797 3341 1997 
z
" transform="scale(0.015625)"/>
       <path id="DejaVuSans-6c" d="M 603 4863 
L 1178 4863 
L 1178 0 
L 603 0 
L 603 4863 
z
" transform="scale(0.015625)"/>
       <path id="DejaVuSans-73" d="M 2834 3397 
L 2834 2853 
Q 2591 2978 2328 3040 
Q 2066 3103 1784 3103 
Q 1356 3103 1142 2972 
Q 928 2841 928 2578 
Q 928 2378 1081 2264 
Q 1234 2150 1697 2047 
L 1894 2003 
Q 2506 1872 2764 1633 
Q 3022 1394 3022 966 
Q 3022 478 2636 193 
Q 2250 -91 1575 -91 
Q 1294 -91 989 -36 
Q 684 19 347 128 
L 347 722 
Q 666 556 975 473 
Q 1284 391 1588 391 
Q 1994 391 2212 530 
Q 2431 669 2431 922 
Q 2431 1156 2273 1281 
Q 2116 1406 1581 1522 
L 1381 1569 
Q 847 1681 609 1914 
Q 372 2147 372 2553 
Q 372 3047 722 3315 
Q 1072 3584 1716 3584 
Q 2034 3584 2315 3537 
Q 2597 3491 2834 3397 
z
" transform="scale(0.015625)"/>
       <path id="DejaVuSans-65" d="M 3597 1894 
L 3597 1613 
L 953 1613 
Q 991 1019 1311 708 
Q 1631 397 2203 397 
Q 2534 397 2845 478 
Q 3156 559 3463 722 
L 3463 178 
Q 3153 47 2828 -22 
Q 2503 -91 2169 -91 
Q 1331 -91 842 396 
Q 353 884 353 1716 
Q 353 2575 817 3079 
Q 1281 3584 2069 3584 
Q 2775 3584 3186 3129 
Q 3597 2675 3597 1894 
z
M 3022 2063 
Q 3016 2534 2758 2815 
Q 2500 3097 2075 3097 
Q 1594 3097 1305 2825 
Q 1016 2553 972 2059 
L 3022 2063 
z
" transform="scale(0.015625)"/>
       <path id="DejaVuSans-20" transform="scale(0.015625)"/>
       <path id="DejaVuSans-50" d="M 1259 4147 
L 1259 2394 
L 2053 2394 
Q 2494 2394 2734 2622 
Q 2975 2850 2975 3272 
Q 2975 3691 2734 3919 
Q 2494 4147 2053 4147 
L 1259 4147 
z
M 628 4666 
L 2053 4666 
Q 2838 4666 3239 4311 
Q 3641 3956 3641 3272 
Q 3641 2581 3239 2228 
Q 2838 1875 2053 1875 
L 1259 1875 
L 1259 0 
L 628 0 
L 628 4666 
z
" transform="scale(0.015625)"/>
       <path id="DejaVuSans-6f" d="M 1959 3097 
Q 1497 3097 1228 2736 
Q 959 2375 959 1747 
Q 959 1119 1226 758 
Q 1494 397 1959 397 
Q 2419 397 2687 759 
Q 2956 1122 2956 1747 
Q 2956 2369 2687 2733 
Q 2419 3097 1959 3097 
z
M 1959 3584 
Q 2709 3584 3137 3096 
Q 3566 2609 3566 1747 
Q 3566 888 3137 398 
Q 2709 -91 1959 -91 
Q 1206 -91 779 398 
Q 353 888 353 1747 
Q 353 2609 779 3096 
Q 1206 3584 1959 3584 
z
" transform="scale(0.015625)"/>
       <path id="DejaVuSans-69" d="M 603 3500 
L 1178 3500 
L 1178 0 
L 603 0 
L 603 3500 
z
M 603 4863 
L 1178 4863 
L 1178 4134 
L 603 4134 
L 603 4863 
z
" transform="scale(0.015625)"/>
       <path id="DejaVuSans-74" d="M 1172 4494 
L 1172 3500 
L 2356 3500 
L 2356 3053 
L 1172 3053 
L 1172 1153 
Q 1172 725 1289 603 
Q 1406 481 1766 481 
L 2356 481 
L 2356 0 
L 1766 0 
Q 1100 0 847 248 
Q 594 497 594 1153 
L 594 3053 
L 172 3053 
L 172 3500 
L 594 3500 
L 594 4494 
L 1172 4494 
z
" transform="scale(0.015625)"/>
       <path id="DejaVuSans-76" d="M 191 3500 
L 800 3500 
L 1894 563 
L 2988 3500 
L 3597 3500 
L 2284 0 
L 1503 0 
L 191 3500 
z
" transform="scale(0.015625)"/>
       <path id="DejaVuSans-52" d="M 2841 2188 
Q 3044 2119 3236 1894 
Q 3428 1669 3622 1275 
L 4263 0 
L 3584 0 
L 2988 1197 
Q 2756 1666 2539 1819 
Q 2322 1972 1947 1972 
L 1259 1972 
L 1259 0 
L 628 0 
L 628 4666 
L 2053 4666 
Q 2853 4666 3247 4331 
Q 3641 3997 3641 3322 
Q 3641 2881 3436 2590 
Q 3231 2300 2841 2188 
z
M 1259 4147 
L 1259 2491 
L 2053 2491 
Q 2509 2491 2742 2702 
Q 2975 2913 2975 3322 
Q 2975 3731 2742 3939 
Q 2509 4147 2053 4147 
L 1259 4147 
z
" transform="scale(0.015625)"/>
      </defs>
      <use xlink:href="#DejaVuSans-46"/>
      <use xlink:href="#DejaVuSans-61" x="48.394531"/>
      <use xlink:href="#DejaVuSans-6c" x="109.673828"/>
      <use xlink:href="#DejaVuSans-73" x="137.457031"/>
      <use xlink:href="#DejaVuSans-65" x="189.556641"/>
      <use xlink:href="#DejaVuSans-20" x="251.080078"/>
      <use xlink:href="#DejaVuSans-50" x="282.867188"/>
      <use xlink:href="#DejaVuSans-6f" x="339.544922"/>
      <use xlink:href="#DejaVuSans-73" x="400.726562"/>
      <use xlink:href="#DejaVuSans-69" x="452.826172"/>
      <use xlink:href="#DejaVuSans-74" x="480.609375"/>
      <use xlink:href="#DejaVuSans-69" x="519.818359"/>
      <use xlink:href="#DejaVuSans-76" x="547.601562"/>
      <use xlink:href="#DejaVuSans-65" x="606.78125"/>
      <use xlink:href="#DejaVuSans-20" x="668.304688"/>
      <use xlink:href="#DejaVuSans-52" x="700.091797"/>
      <use xlink:href="#DejaVuSans-61" x="767.324219"/>
      <use xlink:href="#DejaVuSans-74" x="828.603516"/>
      <use xlink:href="#DejaVuSans-65" x="867.8125"/>
     </g>
    </g>
   </g>
   <g id="matplotlib.axis_2">
    <g id="ytick_1">
     <g id="line2d_13">
      <path d="M 54 369.36 
L 388.8 369.36 
" clip-path="url(#pf62efe0c81)" style="fill: none; stroke: #b0b0b0; stroke-width: 0.8; stroke-linecap: square"/>
     </g>
     <g id="line2d_14">
      <defs>
       <path id="m4eb32f863c" d="M 0 0 
L -3.5 0 
" style="stroke: #000000; stroke-width: 0.8"/>
      </defs>
      <g>
       <use xlink:href="#m4eb32f863c" x="54" y="369.36" style="stroke: #000000; stroke-width: 0.8"/>
      </g>
     </g>
     <g id="text_8">
      <!-- 0.0 -->
      <g transform="translate(31.096875 373.159219) scale(0.1 -0.1)">
       <use xlink:href="#DejaVuSans-30"/>
       <use xlink:href="#DejaVuSans-2e" x="63.623047"/>
       <use xlink:href="#DejaVuSans-30" x="95.410156"/>
      </g>
     </g>
    </g>
    <g id="ytick_2">
     <g id="line2d_15">
      <path d="M 54 308.88 
L 388.8 308.88 
" clip-path="url(#pf62efe0c81)" style="fill: none; stroke: #b0b0b0; stroke-width: 0.8; stroke-linecap: square"/>
     </g>
     <g id="line2d_16">
      <g>
       <use xlink:href="#m4eb32f863c" x="54" y="308.88" style="stroke: #000000; stroke-width: 0.8"/>
      </g>
     </g>
     <g id="text_9">
      <!-- 0.2 -->
      <g transform="translate(31.096875 312.679219) scale(0.1 -0.1)">
       <use xlink:href="#DejaVuSans-30"/>
       <use xlink:href="#DejaVuSans-2e" x="63.623047"/>
       <use xlink:href="#DejaVuSans-32" x="95.410156"/>
      </g>
     </g>
    </g>
    <g id="ytick_3">
     <g id="line2d_17">
      <path d="M 54 248.4 
L 388.8 248.4 
" clip-path="url(#pf62efe0c81)" style="fill: none; stroke: #b0b0b0; stroke-width: 0.8; stroke-linecap: square"/>
     </g>
     <g id="line2d_18">
      <g>
       <use xlink:href="#m4eb32f863c" x="54" y="248.4" style="stroke: #000000; stroke-width: 0.8"/>
      </g>
     </g>
     <g id="text_10">
      <!-- 0.4 -->
      <g transform="translate(31.096875 252.199219) scale(0.1 -0.1)">
       <use xlink:href="#DejaVuSans-30"/>
       <use xlink:href="#DejaVuSans-2e" x="63.623047"/>
       <use xlink:href="#DejaVuSans-34" x="95.410156"/>
      </g>
     </g>
    </g>
    <g id="ytick_4">
     <g id="line2d_19">
      <path d="M 54 187.92 
L 388.8 187.92 
" clip-path="url(#pf62efe0c81)" style="fill: none; stroke: #b0b0b0; stroke-width: 0.8; stroke-linecap: square"/>
     </g>
     <g id="line2d_20">
      <g>
       <use xlink:href="#m4eb32f863c" x="54" y="187.92" style="stroke: #000000; stroke-width: 0.8"/>
      </g>
     </g>
     <g id="text_11">
      <!-- 0.6 -->
      <g transform="translate(31.096875 191.719219) scale(0.1 -0.1)">
       <use xlink:href="#DejaVuSans-30"/>
       <use xlink:href="#DejaVuSans-2e" x="63.623047"/>
       <use xlink:href="#DejaVuSans-36" x="95.410156"/>
      </g>
     </g>
    </g>
    <g id="ytick_5">
     <g id="line2d_21">
      <path d="M 54 127.44 
L 388.8 127.44 
" clip-path="url(#pf62efe0c81)" style="fill: none; stroke: #b0b0b0; stroke-width: 0.8; stroke-linecap: square"/>
     </g>
     <g id="line2d_22">
      <g>
       <use xlink:href="#m4eb32f863c" x="54" y="127.44" style="stroke: #000000; stroke-width: 0.8"/>
      </g>
     </g>
     <g id="text_12">
      <!-- 0.8 -->
      <g transform="translate(31.096875 131.239219) scale(0.1 -0.1)">
       <use xlink:href="#DejaVuSans-30"/>
       <use xlink:href="#DejaVuSans-2e" x="63.623047"/>
       <use xlink:href="#DejaVuSans-38" x="95.410156"/>
      </g>
     </g>
    </g>
    <g id="ytick_6">
     <g id="line2d_23">
      <path d="M 54 66.96 
L 388.8 66.96 
" clip-path="url(#pf62efe0c81)" style="fill: none; stroke: #b0b0b0; stroke-width: 0.8; stroke-linecap: square"/>
     </g>
     <g id="line2d_24">
      <g>
       <use xlink:href="#m4eb32f863c" x="54" y="66.96" style="stroke: #000000; stroke-width: 0.8"/>
      </g>
     </g>
     <g id="text_13">
      <!-- 1.0 -->
      <g transform="translate(31.096875 70.759219) scale(0.1 -0.1)">
       <use xlink:href="#DejaVuSans-31"/>
       <use xlink:href="#DejaVuSans-2e" x="63.623047"/>
       <use xlink:href="#DejaVuSans-30" x="95.410156"/>
      </g>
     </g>
    </g>
    <g id="text_14">
     <!-- True Positive Rate -->
     <g transform="translate(25.017187 262.689687) rotate(-90) scale(0.1 -0.1)">
      <defs>
       <path id="DejaVuSans-54" d="M -19 4666 
L 3928 4666 
L 3928 4134 
L 2272 4134 
L 2272 0 
L 1638 0 
L 1638 4134 
L -19 4134 
L -19 4666 
z
" transform="scale(0.015625)"/>
       <path id="DejaVuSans-72" d="M 2631 2963 
Q 2534 3019 2420 3045 
Q 2306 3072 2169 3072 
Q 1681 3072 1420 2755 
Q 1159 2438 1159 1844 
L 1159 0 
L 581 0 
L 581 3500 
L 1159 3500 
L 1159 2956 
Q 1341 3275 1631 3429 
Q 1922 3584 2338 3584 
Q 2397 3584 2469 3576 
Q 2541 3569 2628 3553 
L 2631 2963 
z
" transform="scale(0.015625)"/>
       <path id="DejaVuSans-75" d="M 544 1381 
L 544 3500 
L 1119 3500 
L 1119 1403 
Q 1119 906 1312 657 
Q 1506 409 1894 409 
Q 2359 409 2629 706 
Q 2900 1003 2900 1516 
L 2900 3500 
L 3475 3500 
L 3475 0 
L 2900 0 
L 2900 538 
Q 2691 219 2414 64 
Q 2138 -91 1772 -91 
Q 1169 -91 856 284 
Q 544 659 544 1381 
z
M 1991 3584 
L 1991 3584 
z
" transform="scale(0.015625)"/>
      </defs>
      <use xlink:href="#DejaVuSans-54"/>
      <use xlink:href="#DejaVuSans-72" x="46.333984"/>
      <use xlink:href="#DejaVuSans-75" x="87.447266"/>
      <use xlink:href="#DejaVuSans-65" x="150.826172"/>
      <use xlink:href="#DejaVuSans-20" x="212.349609"/>
      <use xlink:href="#DejaVuSans-50" x="244.136719"/>
      <use xlink:href="#DejaVuSans-6f" x="300.814453"/>
      <use xlink:href="#DejaVuSans-73" x="361.996094"/>
      <use xlink:href="#DejaVuSans-69" x="414.095703"/>
      <use xlink:href="#DejaVuSans-74" x="441.878906"/>
      <use xlink:href="#DejaVuSans-69" x="481.087891"/>
      <use xlink:href="#DejaVuSans-76" x="508.871094"/>
      <use xlink:href="#DejaVuSans-65" x="568.050781"/>
      <use xlink:href="#DejaVuSans-20" x="629.574219"/>
      <use xlink:href="#DejaVuSans-52" x="661.361328"/>
      <use xlink:href="#DejaVuSans-61" x="728.59375"/>
      <use xlink:href="#DejaVuSans-74" x="789.873047"/>
      <use xlink:href="#DejaVuSans-65" x="829.082031"/>
     </g>
    </g>
   </g>
   <g id="line2d_25">
    <path d="M 69.218182 369.36 
L 69.329197 342.234392 
L 69.330188 342.218221 
L 69.441203 324.447108 
L 69.44269 324.366256 
L 69.553704 313.241119 
L 69.556678 313.152182 
L 69.667693 304.339391 
L 69.671162 304.27471 
L 69.782177 298.784908 
L 69.785151 298.720227 
L 69.896166 293.392127 
L 69.899139 293.335531 
L 70.009658 288.945306 
L 70.011641 288.912965 
L 70.122656 284.967422 
L 70.125629 284.878486 
L 70.235653 281.280603 
L 70.2416 281.175496 
L 70.352615 277.868679 
L 70.355589 277.812083 
L 70.466604 274.327392 
L 70.473046 274.230371 
L 70.583566 271.715895 
L 70.591991 271.610789 
L 70.703006 269.152909 
L 70.71044 269.047803 
L 70.820463 267.091202 
L 70.824428 266.99418 
L 70.934452 264.649493 
L 70.94139 264.544386 
L 71.05191 262.175443 
L 71.056866 262.070336 
L 71.167881 259.968203 
L 71.173828 259.863096 
L 71.283356 257.91458 
L 71.290294 257.809473 
L 71.400814 255.990319 
L 71.410726 255.885213 
L 71.520749 253.872015 
L 71.533139 253.766909 
L 71.644154 252.044776 
L 71.652084 251.93967 
L 71.763099 249.910302 
L 71.774993 249.813281 
L 71.886008 248.083063 
L 71.893442 247.994127 
L 72.004457 246.466037 
L 72.008917 246.36093 
L 72.119437 244.873267 
L 72.134305 244.76816 
L 72.243833 243.579646 
L 72.255232 243.498795 
L 72.365255 242.124323 
L 72.380123 242.019216 
L 72.491138 240.604318 
L 72.504024 240.507297 
L 72.615039 239.100484 
L 72.622473 239.003463 
L 72.733488 237.774523 
L 72.741417 237.677502 
L 72.852432 236.400051 
L 72.868291 236.294945 
L 72.979306 235.179197 
L 72.985254 235.098346 
L 73.094286 234.063449 
L 73.104198 233.958342 
L 73.214717 232.86685 
L 73.220665 232.769828 
L 73.329697 231.815783 
L 73.347539 231.710676 
L 73.456571 230.780887 
L 73.473422 230.67578 
L 73.583941 229.810671 
L 73.597322 229.71365 
L 73.708337 228.581731 
L 73.716762 228.476625 
L 73.824804 227.57109 
L 73.83868 227.465984 
L 73.948208 226.431087 
L 73.964563 226.32598 
L 74.074091 225.444701 
L 74.09342 225.339595 
L 74.204435 224.522997 
L 74.218312 224.43406 
L 74.329327 223.423419 
L 74.341717 223.318312 
L 74.452731 222.461289 
L 74.467104 222.356182 
L 74.576136 221.426392 
L 74.594969 221.321285 
L 74.704497 220.504687 
L 74.72333 220.415751 
L 74.832363 219.591068 
L 74.8507 219.494046 
L 74.961219 218.742129 
L 74.9746 218.637023 
L 75.083137 217.990212 
L 75.105935 217.893191 
L 75.215463 217.19787 
L 75.229836 217.100848 
L 75.34085 216.227654 
L 75.347789 216.154888 
L 75.458804 215.346375 
L 75.477141 215.241268 
L 75.588156 214.42467 
L 75.612936 214.319564 
L 75.723455 213.616157 
L 75.736341 213.511051 
L 75.847356 212.81573 
L 75.861233 212.718708 
L 75.969274 211.894025 
L 75.992072 211.788918 
L 76.102591 211.093597 
L 76.123902 210.98849 
L 76.234421 210.220403 
L 76.257219 210.115297 
L 76.368234 209.557423 
L 76.392023 209.452316 
L 76.503037 208.821676 
L 76.52187 208.724654 
L 76.627929 208.053589 
L 76.668073 207.948482 
L 76.779088 207.382523 
L 76.799903 207.285501 
L 76.909431 206.662946 
L 76.930742 206.565925 
L 77.041757 206.056562 
L 77.070502 205.951455 
L 77.180526 205.3289 
L 77.199358 205.223793 
L 77.309878 204.665919 
L 77.329206 204.560813 
L 77.438239 203.889747 
L 77.463019 203.78464 
L 77.572547 203.210596 
L 77.59138 203.10549 
L 77.700908 202.588041 
L 77.727175 202.482935 
L 77.836703 201.844209 
L 77.852562 201.755273 
L 77.962586 201.165059 
L 77.983401 201.059952 
L 78.094416 200.502078 
L 78.108788 200.421227 
L 78.215343 199.863353 
L 78.247557 199.766331 
L 78.358076 199.095265 
L 78.39029 198.998244 
L 78.499818 198.40803 
L 78.519642 198.302923 
L 78.629666 197.858241 
L 78.646021 197.761219 
L 78.753567 197.300367 
L 78.785781 197.19526 
L 78.8963 196.653556 
L 78.914637 196.54845 
L 79.025652 195.958235 
L 79.051919 195.853129 
L 79.160456 195.311425 
L 79.191679 195.206318 
L 79.300711 194.793977 
L 79.331439 194.68887 
L 79.441958 194.292699 
L 79.465747 194.187592 
L 79.576762 193.662059 
L 79.607985 193.556952 
L 79.718504 192.918227 
L 79.750718 192.81312 
L 79.860246 192.239076 
L 79.893452 192.133969 
L 80.003971 191.616521 
L 80.025777 191.519499 
L 80.136297 190.896945 
L 80.156616 190.791838 
L 80.267631 190.371411 
L 80.287455 190.266304 
L 80.395497 189.813537 
L 80.422755 189.708431 
L 80.522371 189.190982 
L 80.570444 189.085876 
L 80.681459 188.560342 
L 80.720116 188.455236 
L 80.83014 188.091405 
L 80.870283 187.986298 
L 80.981298 187.460765 
L 81.009548 187.355658 
L 81.119076 186.935231 
L 81.144351 186.830125 
L 81.251897 186.458209 
L 81.280642 186.353102 
L 81.386701 185.956931 
L 81.423871 185.851824 
L 81.522991 185.520334 
L 81.563631 185.415227 
L 81.674646 184.897779 
L 81.705373 184.792672 
L 81.815397 184.299479 
L 81.847115 184.194372 
L 81.95813 183.652669 
L 81.991335 183.547562 
L 82.10235 183.167561 
L 82.12713 183.062454 
L 82.236163 182.520751 
L 82.286714 182.415644 
L 82.396738 182.076069 
L 82.435395 181.979047 
L 82.545914 181.599046 
L 82.585562 181.493939 
L 82.696577 181.025002 
L 82.731765 180.92798 
L 82.84278 180.61266 
L 82.880446 180.507554 
L 82.99146 179.98202 
L 83.028631 179.876914 
L 83.136672 179.464572 
L 83.186728 179.36755 
L 83.296751 178.939039 
L 83.318558 178.833932 
L 83.428086 178.437761 
L 83.44791 178.332654 
L 83.555456 178.049674 
L 83.583705 177.944568 
L 83.693729 177.621163 
L 83.717518 177.524141 
L 83.819612 177.16031 
L 83.865207 177.055203 
L 83.975231 176.553925 
L 84.021817 176.448819 
L 84.131841 176.141584 
L 84.182392 176.044562 
L 84.293407 175.648391 
L 84.316701 175.543284 
L 84.425237 175.074347 
L 84.476284 174.96924 
L 84.587299 174.63775 
L 84.626452 174.532643 
L 84.734989 174.184983 
L 84.774141 174.079876 
L 84.881687 173.756471 
L 84.921335 173.667534 
L 85.031359 173.42498 
L 85.058617 173.319874 
L 85.168145 172.996469 
L 85.206802 172.891362 
L 85.317817 172.576042 
L 85.356969 172.470935 
L 85.456585 172.11519 
L 85.498712 172.010083 
L 85.609231 171.727103 
L 85.660773 171.621997 
L 85.770302 171.339017 
L 85.80648 171.23391 
L 85.915017 170.87008 
L 85.953179 170.773058 
L 86.062211 170.457738 
L 86.103842 170.352631 
L 86.212379 170.069652 
L 86.259956 169.964545 
L 86.367502 169.576459 
L 86.407646 169.487523 
L 86.515687 169.212628 
L 86.538485 169.107522 
L 86.648508 168.792201 
L 86.667837 168.687095 
L 86.778852 168.428371 
L 86.819987 168.323264 
L 86.926046 168.032199 
L 86.965198 167.935178 
L 87.076213 167.555177 
L 87.131721 167.45007 
L 87.235301 167.13475 
L 87.278419 167.029643 
L 87.388938 166.681983 
L 87.442463 166.576876 
L 87.552487 166.22113 
L 87.595604 166.116024 
L 87.704141 165.727938 
L 87.762622 165.622831 
L 87.871655 165.267085 
L 87.910311 165.161979 
L 88.021326 164.862829 
L 88.066922 164.757722 
L 88.177441 164.410061 
L 88.225019 164.304955 
L 88.321166 163.98155 
L 88.355858 163.933039 
L 88.454483 163.617719 
L 88.494131 163.512612 
L 88.603659 163.173037 
L 88.654706 163.06793 
L 88.762747 162.865802 
L 88.828167 162.760695 
L 88.937199 162.413035 
L 89.003114 162.307928 
L 89.107191 162.049204 
L 89.207798 161.952182 
L 89.315344 161.661118 
L 89.355487 161.556011 
L 89.466502 161.232606 
L 89.496238 161.127499 
L 89.605766 160.804094 
L 89.660778 160.698987 
L 89.771793 160.432178 
L 89.825814 160.327071 
L 89.929395 160.108773 
L 90.011665 160.003666 
L 90.111776 159.761112 
L 90.139034 159.736857 
L 90.291184 159.259834 
L 90.340249 159.154728 
L 90.449281 158.912174 
L 90.476539 158.807067 
L 90.574669 158.524087 
L 90.643062 158.418981 
L 90.752094 158.152172 
L 90.78976 158.047065 
L 90.889871 157.869192 
L 90.969663 157.764085 
L 91.070271 157.586213 
L 91.12776 157.481106 
L 91.236297 157.165786 
L 91.294778 157.060679 
L 91.403811 156.915147 
L 91.448911 156.81004 
L 91.5515 156.486635 
L 91.599574 156.389613 
L 91.701668 156.122804 
L 91.757671 156.017697 
L 91.868686 155.734718 
L 91.901395 155.629611 
L 92.009932 155.411313 
L 92.052554 155.306206 
L 92.158117 155.079822 
L 92.276566 154.982801 
L 92.384607 154.699821 
L 92.439619 154.594715 
L 92.548156 154.30365 
L 92.595238 154.198543 
L 92.705262 153.931734 
L 92.763743 153.826627 
L 92.873271 153.584074 
L 92.923823 153.478967 
L 93.030377 153.163647 
L 93.096292 153.05854 
L 93.197395 152.864497 
L 93.203838 152.864497 
L 93.261328 152.75939 
L 93.371847 152.565347 
L 93.414469 152.460241 
L 93.523997 152.266198 
L 93.598337 152.161091 
L 93.682094 151.983218 
L 93.755443 151.878111 
L 93.865467 151.651728 
L 93.915522 151.546621 
L 94.026042 151.368748 
L 94.097904 151.263642 
L 94.199007 150.988747 
L 94.27533 150.88364 
L 94.383371 150.721938 
L 94.456224 150.616831 
L 94.566248 150.374277 
L 94.629189 150.269171 
L 94.733762 150.123638 
L 94.740204 150.123638 
L 94.784809 150.018532 
L 94.893841 149.751722 
L 94.933985 149.646616 
L 95.034096 149.468743 
L 95.084152 149.363636 
L 95.193185 149.080657 
L 95.261578 148.97555 
L 95.363176 148.781507 
L 95.371106 148.781507 
L 95.432065 148.6764 
L 95.539611 148.458102 
L 95.595614 148.352995 
L 95.703159 148.175122 
L 95.747763 148.070016 
L 95.854318 147.932568 
L 95.916268 147.827462 
L 96.024805 147.504056 
L 96.126899 147.39895 
L 96.23494 147.180651 
L 96.290448 147.075545 
L 96.393037 146.873416 
L 96.46936 146.76831 
L 96.578393 146.517671 
L 96.579879 146.517671 
L 96.65868 146.412564 
L 96.764243 146.15384 
L 96.844531 146.048733 
L 96.951581 145.895116 
L 97.018487 145.798094 
L 97.129007 145.563625 
L 97.234074 145.458519 
L 97.345089 145.345327 
L 97.410509 145.24022 
L 97.520532 145.013837 
L 97.571579 144.90873 
L 97.680116 144.690432 
L 97.750492 144.585325 
L 97.828301 144.455963 
L 97.851594 144.455963 
L 97.90958 144.350856 
L 98.01663 144.140643 
L 98.083536 144.035536 
L 98.188604 143.833408 
L 98.253032 143.728301 
L 98.360578 143.534258 
L 98.436405 143.429151 
L 98.544942 143.324045 
L 98.640593 143.227023 
L 98.74913 143.01681 
L 98.836852 142.911703 
L 98.940432 142.741915 
L 98.996435 142.636809 
L 99.088122 142.410425 
L 99.167914 142.305318 
L 99.276946 142.192127 
L 99.352773 142.08702 
L 99.463788 141.933402 
L 99.522765 141.828296 
L 99.625354 141.674678 
L 99.690278 141.569572 
L 99.799311 141.343188 
L 99.904378 141.238081 
L 100.013907 141.044038 
L 100.065945 140.938932 
L 100.17696 140.728718 
L 100.241388 140.623612 
L 100.345464 140.478079 
L 100.405432 140.372973 
L 100.510995 140.203185 
L 100.592274 140.098078 
L 100.698829 139.944461 
L 100.782585 139.839354 
L 100.884679 139.669566 
L 100.94663 139.58063 
L 101.054175 139.418927 
L 101.162217 139.313821 
L 101.267284 139.119778 
L 101.354015 139.014671 
L 101.449666 138.844883 
L 101.545317 138.739776 
L 101.654845 138.440627 
L 101.756444 138.33552 
L 101.86498 138.117222 
L 101.949233 138.0202 
L 102.058761 137.785731 
L 102.121207 137.680625 
L 102.23123 137.502752 
L 102.310527 137.397645 
L 102.410143 137.260198 
L 102.488448 137.155091 
L 102.595994 137.017644 
L 102.67083 136.920622 
L 102.772428 136.718494 
L 102.871053 136.613388 
L 102.981572 136.435515 
L 103.011804 136.330408 
L 103.120341 136.168705 
L 103.183778 136.063599 
L 103.290828 135.853385 
L 103.38301 135.748279 
L 103.493033 135.562321 
L 103.592649 135.457214 
L 103.702178 135.303597 
L 103.799811 135.19849 
L 103.909835 135.085298 
L 103.96336 134.980191 
L 104.066941 134.786148 
L 104.203727 134.681042 
L 104.296405 134.60019 
L 104.388091 134.495084 
L 104.493159 134.28487 
L 104.567499 134.179764 
L 104.674549 134.034231 
L 104.746907 133.929125 
L 104.857922 133.775507 
L 104.938209 133.670401 
L 105.048729 133.468272 
L 105.13199 133.363166 
L 105.242509 133.177208 
L 105.301486 133.072101 
L 105.412005 132.869973 
L 105.493284 132.764866 
L 105.603307 132.643589 
L 105.720765 132.538482 
L 105.824346 132.384865 
L 105.894226 132.279758 
L 106.002267 132.085715 
L 106.121212 131.980609 
L 106.214385 131.851246 
L 106.309045 131.754225 
L 106.41659 131.592522 
L 106.492913 131.487416 
L 106.578157 131.349968 
L 106.692145 131.244862 
L 106.799195 131.139755 
L 106.913184 131.034648 
L 107.013295 130.864861 
L 107.116381 130.759754 
L 107.224917 130.630392 
L 107.293806 130.525285 
L 107.404325 130.404008 
L 107.536156 130.298902 
L 107.645188 130.137199 
L 107.750256 130.032092 
L 107.85681 129.935071 
L 107.920247 129.829964 
L 108.010447 129.676347 
L 108.117992 129.57124 
L 108.227521 129.320601 
L 108.264691 129.215494 
L 108.37075 129.126558 
L 108.445585 129.021451 
L 108.555114 128.843578 
L 108.680005 128.738472 
L 108.788047 128.617195 
L 108.914921 128.512088 
L 109.018502 128.398896 
L 109.1652 128.29379 
L 109.268285 128.115917 
L 109.350059 128.018895 
L 109.457605 127.832937 
L 109.548796 127.727831 
L 109.656837 127.493362 
L 109.734647 127.388255 
L 109.84467 127.242723 
L 109.966093 127.137616 
L 110.075125 127.040595 
L 110.179202 126.935488 
L 110.28873 126.878892 
L 110.371 126.773785 
L 110.468633 126.676764 
L 110.590056 126.571657 
L 110.70008 126.490806 
L 110.800191 126.385699 
L 110.911206 126.240167 
L 111.010326 126.15123 
L 111.010326 126.143145 
L 111.118863 125.957187 
L 111.212037 125.852081 
L 111.32206 125.746974 
L 111.406808 125.641867 
L 111.500973 125.552931 
L 111.610005 125.447824 
L 111.72102 125.326547 
L 111.770085 125.221441 
L 111.876143 125.075908 
L 111.965352 124.970802 
L 112.074384 124.881865 
L 112.174496 124.776758 
L 112.284024 124.663567 
L 112.432209 124.55846 
L 112.536781 124.469524 
L 112.689922 124.364417 
L 112.794494 124.291651 
L 112.917403 124.186544 
L 113.009585 124.041012 
L 113.164213 123.935905 
L 113.267794 123.814628 
L 113.391695 123.709521 
L 113.50271 123.620585 
L 113.60976 123.515478 
L 113.706402 123.434627 
L 113.817417 123.32952 
L 113.907616 123.216329 
L 114.051341 123.111222 
L 114.158391 122.98186 
L 114.271388 122.876753 
L 114.355145 122.795902 
L 114.457735 122.690795 
L 114.561811 122.456326 
L 114.659445 122.35122 
L 114.764017 122.205687 
L 114.896343 122.100581 
L 114.995463 122.011644 
L 115.172889 121.906538 
L 115.283408 121.72058 
L 115.407309 121.615473 
L 115.518323 121.518451 
L 115.635285 121.413345 
L 115.744814 121.259727 
L 115.919265 121.154621 
L 116.029785 120.992918 
L 116.176979 120.887811 
L 116.275108 120.79079 
L 116.401982 120.685683 
L 116.472357 120.612917 
L 116.497138 120.612917 
L 116.605674 120.50781 
L 116.707768 120.378448 
L 116.827704 120.273342 
L 116.928311 120.17632 
L 117.077488 120.071213 
L 117.180077 119.941851 
L 117.296048 119.836745 
L 117.39616 119.731638 
L 117.516096 119.626531 
L 117.626615 119.513339 
L 117.717806 119.408233 
L 117.828325 119.2627 
L 117.97651 119.157594 
L 118.087029 119.076742 
L 118.238683 118.971636 
L 118.341769 118.906955 
L 118.481528 118.801848 
L 118.580649 118.63206 
L 118.74618 118.526954 
L 118.840344 118.413762 
L 118.976139 118.308655 
L 119.086659 118.203548 
L 119.163477 118.098442 
L 119.263093 117.977165 
L 119.47075 117.872058 
L 119.580278 117.6861 
L 119.685346 117.580994 
L 119.793883 117.435461 
L 119.935625 117.330355 
L 120.041684 117.233333 
L 120.214153 117.128226 
L 120.32269 116.974609 
L 120.458981 116.869502 
L 120.563057 116.772481 
L 120.668125 116.667374 
L 120.776166 116.546097 
L 120.873304 116.44099 
L 120.974903 116.360139 
L 121.08344 116.263117 
L 121.183551 116.101415 
L 121.309434 115.996308 
L 121.408555 115.907372 
L 121.518578 115.802265 
L 121.609769 115.697158 
L 121.733174 115.592052 
L 121.843198 115.5112 
L 121.948265 115.406094 
L 122.058785 115.309072 
L 122.172773 115.203966 
L 122.226298 115.115029 
L 122.492932 115.009922 
L 122.587592 114.920986 
L 122.746185 114.815879 
L 122.826968 114.710773 
L 123.015297 114.605666 
L 123.10847 114.54907 
L 123.220972 114.443963 
L 123.320092 114.371197 
L 123.4995 114.266091 
L 123.609028 114.136729 
L 123.760187 114.031622 
L 123.870706 113.9346 
L 124.082824 113.829494 
L 124.190865 113.724387 
L 124.307331 113.61928 
L 124.389106 113.546514 
L 124.566036 113.441407 
L 124.676555 113.368641 
L 124.862406 113.263535 
L 124.960039 113.223109 
L 125.086418 113.118002 
L 125.161749 113.029066 
L 125.320342 112.923959 
L 125.416985 112.835023 
L 125.61919 112.729916 
L 125.715337 112.624809 
L 125.949757 112.519703 
L 126.053833 112.446937 
L 126.301139 112.34183 
L 126.357637 112.260979 
L 126.488476 112.155872 
L 126.589579 112.066935 
L 126.712984 111.961829 
L 126.817061 111.816296 
L 126.977636 111.719275 
L 127.088651 111.606083 
L 127.268059 111.500976 
L 127.374117 111.39587 
L 127.51586 111.290763 
L 127.620432 111.201827 
L 127.758705 111.09672 
L 127.852373 110.975443 
L 128.223084 110.870336 
L 128.330629 110.749059 
L 128.434706 110.643953 
L 128.52441 110.595442 
L 128.776176 110.490335 
L 128.886199 110.417569 
L 129.03042 110.312462 
L 129.139452 110.199271 
L 129.319356 110.094164 
L 129.42145 110.021398 
L 129.570626 109.916291 
L 129.675694 109.827355 
L 129.85411 109.722248 
L 129.961656 109.600971 
L 130.196571 109.495864 
L 130.301144 109.423098 
L 130.597514 109.317992 
L 130.69366 109.269481 
L 130.844323 109.164374 
L 130.954347 109.051182 
L 131.077752 108.946076 
L 131.180342 108.88948 
L 131.356776 108.784373 
L 131.436568 108.671181 
L 131.629853 108.566075 
L 131.716088 108.501394 
L 131.923745 108.396287 
L 132.02683 108.331606 
L 132.25332 108.226499 
L 132.338564 108.145648 
L 132.517476 108.040541 
L 132.625517 107.95969 
L 132.894629 107.854583 
L 132.990776 107.765647 
L 133.212806 107.668625 
L 133.319856 107.612029 
L 133.468041 107.506923 
L 133.575091 107.393731 
L 133.724763 107.288624 
L 133.833795 107.207773 
L 134.106377 107.102666 
L 134.212931 107.005645 
L 134.2164 107.005645 
L 134.308582 106.900538 
L 134.406216 106.827772 
L 134.572738 106.722665 
L 134.683257 106.625644 
L 134.819548 106.520537 
L 134.901818 106.463941 
L 135.139707 106.366919 
L 135.239819 106.245642 
L 135.565925 106.140536 
L 135.666532 106.051599 
L 135.830081 105.946493 
L 135.938122 105.865641 
L 136.128929 105.760535 
L 136.183941 105.695854 
L 136.355915 105.590747 
L 136.46693 105.493725 
L 136.68995 105.388619 
L 136.791053 105.299682 
L 136.96947 105.194576 
L 137.071564 105.105639 
L 137.318374 105.000533 
L 137.425424 104.927766 
L 137.573113 104.82266 
L 137.671243 104.741808 
L 137.873944 104.636702 
L 137.983472 104.580106 
L 138.175766 104.474999 
L 138.276373 104.369893 
L 138.448347 104.264786 
L 138.548458 104.167764 
L 138.709034 104.062658 
L 138.816579 104.022232 
L 139.069336 103.917125 
L 139.17143 103.844359 
L 139.489607 103.739252 
L 139.592692 103.682657 
L 139.78003 103.57755 
L 139.861308 103.537124 
L 140.166599 103.432018 
L 140.271171 103.326911 
L 140.427782 103.221804 
L 140.535823 103.124783 
L 140.619084 103.019676 
L 140.725143 102.97925 
L 141.029938 102.874144 
L 141.136493 102.809463 
L 141.25395 102.704356 
L 141.342168 102.63159 
L 141.353071 102.63159 
L 141.608802 102.526483 
L 141.699497 102.461802 
L 141.973565 102.356695 
L 142.067234 102.300099 
L 142.316521 102.194993 
L 142.421589 102.130312 
L 142.70656 102.025205 
L 142.814106 101.968609 
L 142.929581 101.863502 
L 143.021268 101.790736 
L 143.268573 101.68563 
L 143.367198 101.596693 
L 143.54165 101.491587 
L 143.6487 101.40265 
L 143.868747 101.297543 
L 143.978275 101.232862 
L 144.19188 101.127756 
L 144.281584 101.006479 
L 144.613142 100.901372 
L 144.700368 100.852861 
L 144.977409 100.747755 
L 145.088424 100.674989 
L 145.346633 100.569882 
L 145.450709 100.521371 
L 145.718334 100.416264 
L 145.790197 100.375839 
L 146.005784 100.278817 
L 146.098461 100.222221 
L 146.352209 100.117115 
L 146.436957 100.092859 
L 146.706565 99.987753 
L 146.802216 99.914986 
L 147.061912 99.80988 
L 147.166484 99.729028 
L 147.414285 99.623922 
L 147.520344 99.54307 
L 147.65713 99.437964 
L 147.754763 99.357112 
L 147.931198 99.252006 
L 148.039735 99.163069 
L 148.351468 99.057963 
L 148.450093 99.009452 
L 148.691947 98.904345 
L 148.798502 98.807324 
L 149.140467 98.702217 
L 149.249995 98.605195 
L 149.567676 98.500089 
L 149.646972 98.443493 
L 149.923518 98.338386 
L 150.033542 98.241365 
L 150.278865 98.136258 
L 150.373525 98.095832 
L 150.753156 97.990726 
L 150.845338 97.901789 
L 151.15162 97.796683 
L 151.252228 97.740087 
L 151.473266 97.63498 
L 151.583785 97.554129 
L 151.789956 97.449022 
L 151.888581 97.416681 
L 152.025367 97.311575 
L 152.09376 97.271149 
L 152.106646 97.271149 
L 152.342552 97.174128 
L 152.446133 97.093276 
L 152.652304 96.98817 
L 152.761832 96.915403 
L 153.137003 96.810297 
L 153.246531 96.745616 
L 153.64103 96.640509 
L 153.724291 96.567743 
L 154.020166 96.462636 
L 154.114826 96.38987 
L 154.355688 96.284763 
L 154.420612 96.252423 
L 154.743249 96.147316 
L 154.834935 96.07455 
L 155.136262 95.969443 
L 155.165006 95.945188 
L 155.407851 95.840081 
L 155.483183 95.791571 
L 155.874709 95.686464 
L 155.981759 95.621783 
L 156.359903 95.516676 
L 156.469927 95.46008 
L 156.654291 95.354974 
L 156.742012 95.257952 
L 157.044825 95.152845 
L 157.146919 95.088164 
L 157.380348 94.983058 
L 157.46014 94.958802 
L 157.684648 94.853696 
L 157.747589 94.7971 
L 157.777821 94.7971 
L 158.015214 94.691993 
L 158.108883 94.651567 
L 158.335869 94.546461 
L 158.444406 94.473694 
L 158.656523 94.368588 
L 158.712526 94.336247 
L 159.255706 94.231141 
L 159.361765 94.134119 
L 159.634842 94.029012 
L 159.738423 93.988587 
L 159.987215 93.88348 
L 160.07345 93.826884 
L 160.391131 93.721777 
L 160.490251 93.673267 
L 160.710299 93.56816 
L 160.804959 93.495394 
L 161.172695 93.390287 
L 161.27132 93.341776 
L 161.652934 93.23667 
L 161.753541 93.180074 
L 161.951782 93.074967 
L 162.052885 93.026456 
L 162.339838 92.92135 
L 162.420622 92.880924 
L 162.771508 92.775817 
L 162.871619 92.751562 
L 163.132802 92.646455 
L 163.233905 92.589859 
L 163.422729 92.484753 
L 163.506486 92.436242 
L 163.782041 92.331135 
L 163.869762 92.298795 
L 164.216188 92.193688 
L 164.302918 92.137092 
L 164.76928 92.031985 
L 164.876826 91.951134 
L 165.190046 91.846027 
L 165.286689 91.813687 
L 165.589006 91.70858 
L 165.687631 91.603474 
L 166.118309 91.498367 
L 166.217429 91.425601 
L 166.580706 91.320494 
L 166.689738 91.280068 
L 166.956372 91.174962 
L 167.058466 91.126451 
L 167.366235 91.021344 
L 167.466347 90.989004 
L 167.762717 90.883897 
L 167.870262 90.827301 
L 168.13541 90.722195 
L 168.215697 90.689854 
L 168.427319 90.584747 
L 168.533378 90.560492 
L 168.957614 90.455385 
L 168.985367 90.439215 
L 169.364503 90.334108 
L 169.442808 90.293683 
L 169.808562 90.188576 
L 169.911648 90.172406 
L 170.381974 90.067299 
L 170.470687 90.010703 
L 170.726913 89.913682 
L 170.820582 89.824745 
L 171.247295 89.719639 
L 171.336008 89.671128 
L 171.850443 89.566021 
L 171.939652 89.533681 
L 172.219171 89.428574 
L 172.298963 89.412404 
L 172.656292 89.307297 
L 172.76582 89.234531 
L 173.193525 89.129424 
L 173.284716 89.064743 
L 173.660878 88.959636 
L 173.764954 88.919211 
L 174.344313 88.814104 
L 174.453345 88.765593 
L 174.906821 88.660487 
L 174.954895 88.628146 
L 175.383591 88.523039 
L 175.460409 88.498784 
L 175.904964 88.393677 
L 175.992686 88.369422 
L 176.37083 88.264315 
L 176.478871 88.207719 
L 176.978438 88.102613 
L 177.07855 88.070272 
L 177.478501 87.965165 
L 177.574152 87.92474 
L 177.933464 87.819633 
L 178.039027 87.787293 
L 178.459297 87.682186 
L 178.533638 87.657931 
L 178.995539 87.552824 
L 179.069879 87.504313 
L 179.677983 87.399206 
L 179.770165 87.350696 
L 180.1607 87.245589 
L 180.256846 87.188993 
L 180.690498 87.083886 
L 180.791105 87.027291 
L 181.172719 86.922184 
L 181.233678 86.897928 
L 181.674268 86.792822 
L 181.677738 86.776652 
L 182.211997 86.671545 
L 182.308639 86.623034 
L 182.829021 86.517927 
L 182.833977 86.501757 
L 183.251274 86.39665 
L 183.362289 86.356225 
L 183.682448 86.251118 
L 183.78702 86.218778 
L 184.097763 86.113671 
L 184.171608 86.06516 
L 184.528937 85.960053 
L 184.632517 85.903458 
L 185.12019 85.798351 
L 185.199982 85.782181 
L 185.385833 85.677074 
L 185.43688 85.644733 
L 185.920092 85.539627 
L 186.006822 85.507286 
L 186.505894 85.40218 
L 186.60997 85.361754 
L 187.061463 85.256647 
L 187.076827 85.232392 
L 187.619511 85.127285 
L 187.691374 85.10303 
L 187.699303 85.10303 
L 188.122548 84.997923 
L 188.20234 84.981753 
L 188.652842 84.876646 
L 188.7252 84.836221 
L 189.206925 84.731114 
L 189.304559 84.698773 
L 189.695589 84.593667 
L 189.798178 84.561326 
L 190.294276 84.456219 
L 190.389432 84.415794 
L 190.754195 84.310687 
L 190.827048 84.286432 
L 191.15365 84.181325 
L 191.255249 84.148985 
L 191.595232 84.043878 
L 191.673537 84.027708 
L 192.089843 83.922601 
L 192.186485 83.882175 
L 192.635005 83.777069 
L 192.697451 83.744728 
L 193.197018 83.639621 
L 193.290687 83.591111 
L 193.806113 83.486004 
L 193.860629 83.461749 
L 194.554472 83.356642 
L 194.572314 83.340472 
L 195.094183 83.235365 
L 195.201728 83.203024 
L 195.75829 83.097918 
L 195.826683 83.081748 
L 195.850967 83.081748 
L 196.31832 82.976641 
L 196.422892 82.92813 
L 196.953682 82.823023 
L 197.016623 82.798768 
L 197.740698 82.693661 
L 197.847252 82.645151 
L 198.599081 82.540044 
L 198.646163 82.523874 
L 199.173979 82.418767 
L 199.251293 82.386426 
L 199.88616 82.28132 
L 199.889133 82.265149 
L 200.586445 82.160043 
L 200.684575 82.119617 
L 201.213878 82.01451 
L 201.251048 81.990255 
L 201.880463 81.885148 
L 201.955298 81.852808 
L 202.852834 81.747701 
L 202.921723 81.723446 
L 203.77168 81.618339 
L 203.784566 81.602169 
L 204.197403 81.497062 
L 204.305939 81.440466 
L 204.534412 81.33536 
L 204.608752 81.319189 
L 205.148959 81.214083 
L 205.255513 81.189827 
L 205.802162 81.084721 
L 205.802162 81.076635 
L 206.407292 80.971529 
L 206.511369 80.939188 
L 206.864733 80.834082 
L 206.882575 80.809826 
L 207.353397 80.70472 
L 207.432693 80.664294 
L 208.067559 80.559187 
L 208.176096 80.526847 
L 208.733153 80.42174 
L 208.733153 80.413655 
L 209.406181 80.308548 
L 209.504806 80.284293 
L 210.174364 80.179186 
L 210.276458 80.130675 
L 211.37273 80.025569 
L 211.463425 79.993228 
L 211.969931 79.888121 
L 212.046749 79.863866 
L 212.947754 79.758759 
L 213.019616 79.710249 
L 213.62772 79.605142 
L 213.62772 79.597057 
L 214.209061 79.49195 
L 214.300747 79.467695 
L 214.866229 79.362588 
L 214.950482 79.338333 
L 215.874284 79.233226 
L 215.974396 79.1928 
L 216.847647 79.087694 
L 216.94082 79.071523 
L 217.643088 78.966417 
L 217.643088 78.958332 
L 217.652009 78.958332 
L 218.235828 78.853225 
L 218.344861 78.812799 
L 219.211173 78.707693 
L 219.295426 78.683437 
L 219.941691 78.578331 
L 219.97787 78.56216 
L 220.713343 78.457054 
L 220.815933 78.424713 
L 221.657465 78.319606 
L 221.711982 78.295351 
L 222.304722 78.190244 
L 222.405329 78.165989 
L 223.170539 78.060882 
L 223.280562 78.036627 
L 223.843071 77.93152 
L 223.938722 77.858754 
L 224.448696 77.753647 
L 224.540878 77.737477 
L 225.309557 77.63237 
L 225.400748 77.575775 
L 226.212544 77.470668 
L 226.25021 77.446412 
L 227.248848 77.341306 
L 227.347969 77.31705 
L 228.006624 77.211944 
L 228.09831 77.195773 
L 228.744576 77.090667 
L 228.837253 77.042156 
L 229.600976 76.937049 
L 229.693654 76.912794 
L 230.706169 76.807687 
L 230.787943 76.775347 
L 231.462953 76.67024 
L 231.542745 76.645985 
L 232.090386 76.540878 
L 232.090386 76.532793 
L 233.208464 76.427686 
L 233.29569 76.411516 
L 233.999941 76.306409 
L 233.999941 76.298324 
L 234.67049 76.193217 
L 234.67049 76.185132 
L 235.456515 76.080026 
L 235.557122 76.031515 
L 236.643978 75.926408 
L 236.742107 75.902153 
L 237.433968 75.797046 
L 237.516238 75.780876 
L 238.447474 75.675769 
L 238.535196 75.643429 
L 239.520453 75.538322 
L 239.610652 75.522152 
L 240.164735 75.417045 
L 240.261378 75.384705 
L 240.908139 75.279598 
L 241.002303 75.239172 
L 241.978144 75.134066 
L 242.083707 75.10981 
L 242.64225 75.012789 
L 242.64225 74.996618 
L 244.153837 74.891512 
L 244.254444 74.859171 
L 244.903683 74.754064 
L 244.929454 74.737894 
L 245.673353 74.632788 
L 245.686239 74.616617 
L 246.719569 74.511511 
L 246.719569 74.503425 
L 248.084953 74.398319 
L 248.084953 74.390234 
L 249.459753 74.285127 
L 249.549457 74.268957 
L 250.491101 74.16385 
L 250.491101 74.155765 
L 251.641394 74.050658 
L 251.732585 74.026403 
L 252.550824 73.921296 
L 252.618226 73.897041 
L 253.209974 73.791934 
L 253.209974 73.783849 
L 254.623927 73.678742 
L 254.704215 73.662572 
L 255.986338 73.557465 
L 255.986338 73.54938 
L 257.443408 73.444274 
L 257.544511 73.411933 
L 258.660111 73.306826 
L 258.660111 73.298741 
L 259.720204 73.193635 
L 259.819324 73.169379 
L 261.518248 73.064272 
L 261.610926 73.048102 
L 262.547118 72.942996 
L 262.623937 72.91874 
L 263.759361 72.813633 
L 263.788106 72.797463 
L 264.885865 72.692357 
L 264.986968 72.676186 
L 265.851793 72.57108 
L 265.869635 72.554909 
L 267.76234 72.449803 
L 267.82875 72.433632 
L 269.328938 72.328526 
L 269.438466 72.30427 
L 271.652321 72.199164 
L 271.762344 72.174908 
L 272.703988 72.069802 
L 272.708944 72.053631 
L 274.630889 71.948525 
L 274.695318 71.924269 
L 276.073587 71.819163 
L 276.134051 71.802992 
L 276.155362 71.802992 
L 277.312593 71.697886 
L 277.405766 71.65746 
L 278.773628 71.552353 
L 278.826657 71.536183 
L 280.793702 71.431076 
L 280.901743 71.390651 
L 282.164537 71.285544 
L 282.164537 71.277459 
L 283.526452 71.172352 
L 283.606244 71.156182 
L 284.946848 71.051075 
L 284.968654 71.034905 
L 286.278531 70.929798 
L 286.379138 70.913628 
L 288.411106 70.808521 
L 288.507749 70.792351 
L 290.217081 70.687245 
L 290.25326 70.662989 
L 291.922448 70.557882 
L 292.002735 70.541712 
L 293.092564 70.436606 
L 293.155506 70.41235 
L 294.713679 70.307243 
L 294.786037 70.274903 
L 295.761382 70.169796 
L 295.819863 70.153626 
L 298.082782 70.048519 
L 298.168025 70.032349 
L 299.831762 69.927242 
L 299.897677 69.902987 
L 301.36912 69.79788 
L 301.36912 69.789795 
L 302.528333 69.684689 
L 302.52982 69.676603 
L 304.097905 69.571497 
L 304.0984 69.563412 
L 306.014398 69.458305 
L 306.089234 69.43405 
L 307.362932 69.328943 
L 307.459078 69.304687 
L 310.053556 69.199581 
L 310.128887 69.175325 
L 311.598347 69.070219 
L 311.688051 69.045963 
L 313.667982 68.940857 
L 313.746783 68.916601 
L 315.961133 68.811495 
L 315.961133 68.803409 
L 316.030517 68.803409 
L 318.536282 68.698303 
L 318.587329 68.674047 
L 320.90179 68.568941 
L 320.985052 68.5366 
L 322.428741 68.431494 
L 322.431219 68.415323 
L 322.467398 68.415323 
L 325.200643 68.310217 
L 325.253177 68.294046 
L 328.529107 68.18894 
L 328.593535 68.156599 
L 328.637148 68.156599 
L 330.829692 68.051492 
L 330.829692 68.043407 
L 333.006377 67.938301 
L 333.006377 67.930215 
L 333.045034 67.930215 
L 335.630094 67.825109 
L 335.686097 67.808939 
L 335.702452 67.808939 
L 340.231265 67.703832 
L 340.231265 67.695747 
L 340.253567 67.695747 
L 342.722656 67.59064 
L 342.722656 67.582555 
L 347.224706 67.477448 
L 347.224706 67.469363 
L 347.267823 67.469363 
L 351.846196 67.364256 
L 351.904181 67.331916 
L 356.133154 67.226809 
L 356.133154 67.218724 
L 360.960319 67.113617 
L 360.960319 67.105532 
L 368.888962 67.000426 
L 368.888962 66.992341 
L 373.581818 66.96 
L 373.581818 66.96 
" clip-path="url(#pf62efe0c81)" style="fill: none; stroke: #1f77b4; stroke-width: 1.5; stroke-linecap: square"/>
   </g>
   <g id="line2d_26">
    <path d="M 69.218182 369.36 
L 373.581818 66.96 
" clip-path="url(#pf62efe0c81)" style="fill: none; stroke-dasharray: 5.55,2.4; stroke-dashoffset: 0; stroke: #808080; stroke-width: 1.5"/>
   </g>
   <g id="patch_3">
    <path d="M 54 384.48 
L 54 51.84 
" style="fill: none; stroke: #000000; stroke-width: 0.8; stroke-linejoin: miter; stroke-linecap: square"/>
   </g>
   <g id="patch_4">
    <path d="M 388.8 384.48 
L 388.8 51.84 
" style="fill: none; stroke: #000000; stroke-width: 0.8; stroke-linejoin: miter; stroke-linecap: square"/>
   </g>
   <g id="patch_5">
    <path d="M 54 384.48 
L 388.8 384.48 
" style="fill: none; stroke: #000000; stroke-width: 0.8; stroke-linejoin: miter; stroke-linecap: square"/>
   </g>
   <g id="patch_6">
    <path d="M 54 51.84 
L 388.8 51.84 
" style="fill: none; stroke: #000000; stroke-width: 0.8; stroke-linejoin: miter; stroke-linecap: square"/>
   </g>
   <g id="text_15">
    <!-- ROC Curve - LightGBM -->
    <g transform="translate(153.814687 45.84) scale(0.12 -0.12)">
     <defs>
      <path id="DejaVuSans-4f" d="M 2522 4238 
Q 1834 4238 1429 3725 
Q 1025 3213 1025 2328 
Q 1025 1447 1429 934 
Q 1834 422 2522 422 
Q 3209 422 3611 934 
Q 4013 1447 4013 2328 
Q 4013 3213 3611 3725 
Q 3209 4238 2522 4238 
z
M 2522 4750 
Q 3503 4750 4090 4092 
Q 4678 3434 4678 2328 
Q 4678 1225 4090 567 
Q 3503 -91 2522 -91 
Q 1538 -91 948 565 
Q 359 1222 359 2328 
Q 359 3434 948 4092 
Q 1538 4750 2522 4750 
z
" transform="scale(0.015625)"/>
      <path id="DejaVuSans-43" d="M 4122 4306 
L 4122 3641 
Q 3803 3938 3442 4084 
Q 3081 4231 2675 4231 
Q 1875 4231 1450 3742 
Q 1025 3253 1025 2328 
Q 1025 1406 1450 917 
Q 1875 428 2675 428 
Q 3081 428 3442 575 
Q 3803 722 4122 1019 
L 4122 359 
Q 3791 134 3420 21 
Q 3050 -91 2638 -91 
Q 1578 -91 968 557 
Q 359 1206 359 2328 
Q 359 3453 968 4101 
Q 1578 4750 2638 4750 
Q 3056 4750 3426 4639 
Q 3797 4528 4122 4306 
z
" transform="scale(0.015625)"/>
      <path id="DejaVuSans-2d" d="M 313 2009 
L 1997 2009 
L 1997 1497 
L 313 1497 
L 313 2009 
z
" transform="scale(0.015625)"/>
      <path id="DejaVuSans-4c" d="M 628 4666 
L 1259 4666 
L 1259 531 
L 3531 531 
L 3531 0 
L 628 0 
L 628 4666 
z
" transform="scale(0.015625)"/>
      <path id="DejaVuSans-67" d="M 2906 1791 
Q 2906 2416 2648 2759 
Q 2391 3103 1925 3103 
Q 1463 3103 1205 2759 
Q 947 2416 947 1791 
Q 947 1169 1205 825 
Q 1463 481 1925 481 
Q 2391 481 2648 825 
Q 2906 1169 2906 1791 
z
M 3481 434 
Q 3481 -459 3084 -895 
Q 2688 -1331 1869 -1331 
Q 1566 -1331 1297 -1286 
Q 1028 -1241 775 -1147 
L 775 -588 
Q 1028 -725 1275 -790 
Q 1522 -856 1778 -856 
Q 2344 -856 2625 -561 
Q 2906 -266 2906 331 
L 2906 616 
Q 2728 306 2450 153 
Q 2172 0 1784 0 
Q 1141 0 747 490 
Q 353 981 353 1791 
Q 353 2603 747 3093 
Q 1141 3584 1784 3584 
Q 2172 3584 2450 3431 
Q 2728 3278 2906 2969 
L 2906 3500 
L 3481 3500 
L 3481 434 
z
" transform="scale(0.015625)"/>
      <path id="DejaVuSans-68" d="M 3513 2113 
L 3513 0 
L 2938 0 
L 2938 2094 
Q 2938 2591 2744 2837 
Q 2550 3084 2163 3084 
Q 1697 3084 1428 2787 
Q 1159 2491 1159 1978 
L 1159 0 
L 581 0 
L 581 4863 
L 1159 4863 
L 1159 2956 
Q 1366 3272 1645 3428 
Q 1925 3584 2291 3584 
Q 2894 3584 3203 3211 
Q 3513 2838 3513 2113 
z
" transform="scale(0.015625)"/>
      <path id="DejaVuSans-47" d="M 3809 666 
L 3809 1919 
L 2778 1919 
L 2778 2438 
L 4434 2438 
L 4434 434 
Q 4069 175 3628 42 
Q 3188 -91 2688 -91 
Q 1594 -91 976 548 
Q 359 1188 359 2328 
Q 359 3472 976 4111 
Q 1594 4750 2688 4750 
Q 3144 4750 3555 4637 
Q 3966 4525 4313 4306 
L 4313 3634 
Q 3963 3931 3569 4081 
Q 3175 4231 2741 4231 
Q 1884 4231 1454 3753 
Q 1025 3275 1025 2328 
Q 1025 1384 1454 906 
Q 1884 428 2741 428 
Q 3075 428 3337 486 
Q 3600 544 3809 666 
z
" transform="scale(0.015625)"/>
      <path id="DejaVuSans-42" d="M 1259 2228 
L 1259 519 
L 2272 519 
Q 2781 519 3026 730 
Q 3272 941 3272 1375 
Q 3272 1813 3026 2020 
Q 2781 2228 2272 2228 
L 1259 2228 
z
M 1259 4147 
L 1259 2741 
L 2194 2741 
Q 2656 2741 2882 2914 
Q 3109 3088 3109 3444 
Q 3109 3797 2882 3972 
Q 2656 4147 2194 4147 
L 1259 4147 
z
M 628 4666 
L 2241 4666 
Q 2963 4666 3353 4366 
Q 3744 4066 3744 3513 
Q 3744 3084 3544 2831 
Q 3344 2578 2956 2516 
Q 3422 2416 3680 2098 
Q 3938 1781 3938 1306 
Q 3938 681 3513 340 
Q 3088 0 2303 0 
L 628 0 
L 628 4666 
z
" transform="scale(0.015625)"/>
      <path id="DejaVuSans-4d" d="M 628 4666 
L 1569 4666 
L 2759 1491 
L 3956 4666 
L 4897 4666 
L 4897 0 
L 4281 0 
L 4281 4097 
L 3078 897 
L 2444 897 
L 1241 4097 
L 1241 0 
L 628 0 
L 628 4666 
z
" transform="scale(0.015625)"/>
     </defs>
     <use xlink:href="#DejaVuSans-52"/>
     <use xlink:href="#DejaVuSans-4f" x="69.482422"/>
     <use xlink:href="#DejaVuSans-43" x="148.193359"/>
     <use xlink:href="#DejaVuSans-20" x="218.017578"/>
     <use xlink:href="#DejaVuSans-43" x="249.804688"/>
     <use xlink:href="#DejaVuSans-75" x="319.628906"/>
     <use xlink:href="#DejaVuSans-72" x="383.007812"/>
     <use xlink:href="#DejaVuSans-76" x="424.121094"/>
     <use xlink:href="#DejaVuSans-65" x="483.300781"/>
     <use xlink:href="#DejaVuSans-20" x="544.824219"/>
     <use xlink:href="#DejaVuSans-2d" x="576.611328"/>
     <use xlink:href="#DejaVuSans-20" x="612.695312"/>
     <use xlink:href="#DejaVuSans-4c" x="644.482422"/>
     <use xlink:href="#DejaVuSans-69" x="700.195312"/>
     <use xlink:href="#DejaVuSans-67" x="727.978516"/>
     <use xlink:href="#DejaVuSans-68" x="791.455078"/>
     <use xlink:href="#DejaVuSans-74" x="854.833984"/>
     <use xlink:href="#DejaVuSans-47" x="894.042969"/>
     <use xlink:href="#DejaVuSans-42" x="971.533203"/>
     <use xlink:href="#DejaVuSans-4d" x="1040.136719"/>
    </g>
   </g>
   <g id="legend_1">
    <g id="patch_7">
     <path d="M 61 74.518125 
L 163.86875 74.518125 
Q 165.86875 74.518125 165.86875 72.518125 
L 165.86875 58.84 
Q 165.86875 56.84 163.86875 56.84 
L 61 56.84 
Q 59 56.84 59 58.84 
L 59 72.518125 
Q 59 74.518125 61 74.518125 
z
" style="fill: #ffffff; opacity: 0.8; stroke: #cccccc; stroke-linejoin: miter"/>
    </g>
    <g id="line2d_27">
     <path d="M 63 64.938438 
L 73 64.938438 
L 83 64.938438 
" style="fill: none; stroke: #1f77b4; stroke-width: 1.5; stroke-linecap: square"/>
    </g>
    <g id="text_16">
     <!-- AUC = 0.9124 -->
     <g transform="translate(91 68.438438) scale(0.1 -0.1)">
      <defs>
       <path id="DejaVuSans-41" d="M 2188 4044 
L 1331 1722 
L 3047 1722 
L 2188 4044 
z
M 1831 4666 
L 2547 4666 
L 4325 0 
L 3669 0 
L 3244 1197 
L 1141 1197 
L 716 0 
L 50 0 
L 1831 4666 
z
" transform="scale(0.015625)"/>
       <path id="DejaVuSans-55" d="M 556 4666 
L 1191 4666 
L 1191 1831 
Q 1191 1081 1462 751 
Q 1734 422 2344 422 
Q 2950 422 3222 751 
Q 3494 1081 3494 1831 
L 3494 4666 
L 4128 4666 
L 4128 1753 
Q 4128 841 3676 375 
Q 3225 -91 2344 -91 
Q 1459 -91 1007 375 
Q 556 841 556 1753 
L 556 4666 
z
" transform="scale(0.015625)"/>
       <path id="DejaVuSans-3d" d="M 678 2906 
L 4684 2906 
L 4684 2381 
L 678 2381 
L 678 2906 
z
M 678 1631 
L 4684 1631 
L 4684 1100 
L 678 1100 
L 678 1631 
z
" transform="scale(0.015625)"/>
       <path id="DejaVuSans-39" d="M 703 97 
L 703 672 
Q 941 559 1184 500 
Q 1428 441 1663 441 
Q 2288 441 2617 861 
Q 2947 1281 2994 2138 
Q 2813 1869 2534 1725 
Q 2256 1581 1919 1581 
Q 1219 1581 811 2004 
Q 403 2428 403 3163 
Q 403 3881 828 4315 
Q 1253 4750 1959 4750 
Q 2769 4750 3195 4129 
Q 3622 3509 3622 2328 
Q 3622 1225 3098 567 
Q 2575 -91 1691 -91 
Q 1453 -91 1209 -44 
Q 966 3 703 97 
z
M 1959 2075 
Q 2384 2075 2632 2365 
Q 2881 2656 2881 3163 
Q 2881 3666 2632 3958 
Q 2384 4250 1959 4250 
Q 1534 4250 1286 3958 
Q 1038 3666 1038 3163 
Q 1038 2656 1286 2365 
Q 1534 2075 1959 2075 
z
" transform="scale(0.015625)"/>
      </defs>
      <use xlink:href="#DejaVuSans-41"/>
      <use xlink:href="#DejaVuSans-55" x="68.408203"/>
      <use xlink:href="#DejaVuSans-43" x="141.601562"/>
      <use xlink:href="#DejaVuSans-20" x="211.425781"/>
      <use xlink:href="#DejaVuSans-3d" x="243.212891"/>
      <use xlink:href="#DejaVuSans-20" x="327.001953"/>
      <use xlink:href="#DejaVuSans-30" x="358.789062"/>
      <use xlink:href="#DejaVuSans-2e" x="422.412109"/>
      <use xlink:href="#DejaVuSans-39" x="454.199219"/>
      <use xlink:href="#DejaVuSans-31" x="517.822266"/>
      <use xlink:href="#DejaVuSans-32" x="581.445312"/>
      <use xlink:href="#DejaVuSans-34" x="645.068359"/>
     </g>
    </g>
   </g>
  </g>
 </g>
 <defs>
  <clipPath id="pf62efe0c81">
   <rect x="54" y="51.84" width="334.8" height="332.64"/>
  </clipPath>
 </defs>
</svg>
