<?xml version="1.0" encoding="utf-8" standalone="no"?>
<!DOCTYPE svg PUBLIC "-//W3C//DTD SVG 1.1//EN"
  "http://www.w3.org/Graphics/SVG/1.1/DTD/svg11.dtd">
<svg xmlns:xlink="http://www.w3.org/1999/xlink" width="432pt" height="432pt" viewBox="0 0 432 432" xmlns="http://www.w3.org/2000/svg" version="1.1">
 <metadata>
  <rdf:RDF xmlns:dc="http://purl.org/dc/elements/1.1/" xmlns:cc="http://creativecommons.org/ns#" xmlns:rdf="http://www.w3.org/1999/02/22-rdf-syntax-ns#">
   <cc:Work>
    <dc:type rdf:resource="http://purl.org/dc/dcmitype/StillImage"/>
    <dc:date>2025-07-01T11:22:21.247188</dc:date>
    <dc:format>image/svg+xml</dc:format>
    <dc:creator>
     <cc:Agent>
      <dc:title>Matplotlib v3.7.5, https://matplotlib.org/</dc:title>
     </cc:Agent>
    </dc:creator>
   </cc:Work>
  </rdf:RDF>
 </metadata>
 <defs>
  <style type="text/css">*{stroke-linejoin: round; stroke-linecap: butt}</style>
 </defs>
 <g id="figure_1">
  <g id="patch_1">
   <path d="M 0 432 
L 432 432 
L 432 0 
L 0 0 
z
" style="fill: #ffffff"/>
  </g>
  <g id="axes_1">
   <g id="patch_2">
    <path d="M 54 384.48 
L 388.8 384.48 
L 388.8 51.84 
L 54 51.84 
z
" style="fill: #ffffff"/>
   </g>
   <g id="matplotlib.axis_1">
    <g id="xtick_1">
     <g id="line2d_1">
      <path d="M 69.218182 384.48 
L 69.218182 51.84 
" clip-path="url(#pe598f86472)" style="fill: none; stroke: #b0b0b0; stroke-width: 0.8; stroke-linecap: square"/>
     </g>
     <g id="line2d_2">
      <defs>
       <path id="m2b3f6df252" d="M 0 0 
L 0 3.5 
" style="stroke: #000000; stroke-width: 0.8"/>
      </defs>
      <g>
       <use xlink:href="#m2b3f6df252" x="69.218182" y="384.48" style="stroke: #000000; stroke-width: 0.8"/>
      </g>
     </g>
     <g id="text_1">
      <!-- 0.0 -->
      <g transform="translate(61.266619 399.078438) scale(0.1 -0.1)">
       <defs>
        <path id="DejaVuSans-30" d="M 2034 4250 
Q 1547 4250 1301 3770 
Q 1056 3291 1056 2328 
Q 1056 1369 1301 889 
Q 1547 409 2034 409 
Q 2525 409 2770 889 
Q 3016 1369 3016 2328 
Q 3016 3291 2770 3770 
Q 2525 4250 2034 4250 
z
M 2034 4750 
Q 2819 4750 3233 4129 
Q 3647 3509 3647 2328 
Q 3647 1150 3233 529 
Q 2819 -91 2034 -91 
Q 1250 -91 836 529 
Q 422 1150 422 2328 
Q 422 3509 836 4129 
Q 1250 4750 2034 4750 
z
" transform="scale(0.015625)"/>
        <path id="DejaVuSans-2e" d="M 684 794 
L 1344 794 
L 1344 0 
L 684 0 
L 684 794 
z
" transform="scale(0.015625)"/>
       </defs>
       <use xlink:href="#DejaVuSans-30"/>
       <use xlink:href="#DejaVuSans-2e" x="63.623047"/>
       <use xlink:href="#DejaVuSans-30" x="95.410156"/>
      </g>
     </g>
    </g>
    <g id="xtick_2">
     <g id="line2d_3">
      <path d="M 130.090909 384.48 
L 130.090909 51.84 
" clip-path="url(#pe598f86472)" style="fill: none; stroke: #b0b0b0; stroke-width: 0.8; stroke-linecap: square"/>
     </g>
     <g id="line2d_4">
      <g>
       <use xlink:href="#m2b3f6df252" x="130.090909" y="384.48" style="stroke: #000000; stroke-width: 0.8"/>
      </g>
     </g>
     <g id="text_2">
      <!-- 0.2 -->
      <g transform="translate(122.139347 399.078438) scale(0.1 -0.1)">
       <defs>
        <path id="DejaVuSans-32" d="M 1228 531 
L 3431 531 
L 3431 0 
L 469 0 
L 469 531 
Q 828 903 1448 1529 
Q 2069 2156 2228 2338 
Q 2531 2678 2651 2914 
Q 2772 3150 2772 3378 
Q 2772 3750 2511 3984 
Q 2250 4219 1831 4219 
Q 1534 4219 1204 4116 
Q 875 4013 500 3803 
L 500 4441 
Q 881 4594 1212 4672 
Q 1544 4750 1819 4750 
Q 2544 4750 2975 4387 
Q 3406 4025 3406 3419 
Q 3406 3131 3298 2873 
Q 3191 2616 2906 2266 
Q 2828 2175 2409 1742 
Q 1991 1309 1228 531 
z
" transform="scale(0.015625)"/>
       </defs>
       <use xlink:href="#DejaVuSans-30"/>
       <use xlink:href="#DejaVuSans-2e" x="63.623047"/>
       <use xlink:href="#DejaVuSans-32" x="95.410156"/>
      </g>
     </g>
    </g>
    <g id="xtick_3">
     <g id="line2d_5">
      <path d="M 190.963636 384.48 
L 190.963636 51.84 
" clip-path="url(#pe598f86472)" style="fill: none; stroke: #b0b0b0; stroke-width: 0.8; stroke-linecap: square"/>
     </g>
     <g id="line2d_6">
      <g>
       <use xlink:href="#m2b3f6df252" x="190.963636" y="384.48" style="stroke: #000000; stroke-width: 0.8"/>
      </g>
     </g>
     <g id="text_3">
      <!-- 0.4 -->
      <g transform="translate(183.012074 399.078438) scale(0.1 -0.1)">
       <defs>
        <path id="DejaVuSans-34" d="M 2419 4116 
L 825 1625 
L 2419 1625 
L 2419 4116 
z
M 2253 4666 
L 3047 4666 
L 3047 1625 
L 3713 1625 
L 3713 1100 
L 3047 1100 
L 3047 0 
L 2419 0 
L 2419 1100 
L 313 1100 
L 313 1709 
L 2253 4666 
z
" transform="scale(0.015625)"/>
       </defs>
       <use xlink:href="#DejaVuSans-30"/>
       <use xlink:href="#DejaVuSans-2e" x="63.623047"/>
       <use xlink:href="#DejaVuSans-34" x="95.410156"/>
      </g>
     </g>
    </g>
    <g id="xtick_4">
     <g id="line2d_7">
      <path d="M 251.836364 384.48 
L 251.836364 51.84 
" clip-path="url(#pe598f86472)" style="fill: none; stroke: #b0b0b0; stroke-width: 0.8; stroke-linecap: square"/>
     </g>
     <g id="line2d_8">
      <g>
       <use xlink:href="#m2b3f6df252" x="251.836364" y="384.48" style="stroke: #000000; stroke-width: 0.8"/>
      </g>
     </g>
     <g id="text_4">
      <!-- 0.6 -->
      <g transform="translate(243.884801 399.078438) scale(0.1 -0.1)">
       <defs>
        <path id="DejaVuSans-36" d="M 2113 2584 
Q 1688 2584 1439 2293 
Q 1191 2003 1191 1497 
Q 1191 994 1439 701 
Q 1688 409 2113 409 
Q 2538 409 2786 701 
Q 3034 994 3034 1497 
Q 3034 2003 2786 2293 
Q 2538 2584 2113 2584 
z
M 3366 4563 
L 3366 3988 
Q 3128 4100 2886 4159 
Q 2644 4219 2406 4219 
Q 1781 4219 1451 3797 
Q 1122 3375 1075 2522 
Q 1259 2794 1537 2939 
Q 1816 3084 2150 3084 
Q 2853 3084 3261 2657 
Q 3669 2231 3669 1497 
Q 3669 778 3244 343 
Q 2819 -91 2113 -91 
Q 1303 -91 875 529 
Q 447 1150 447 2328 
Q 447 3434 972 4092 
Q 1497 4750 2381 4750 
Q 2619 4750 2861 4703 
Q 3103 4656 3366 4563 
z
" transform="scale(0.015625)"/>
       </defs>
       <use xlink:href="#DejaVuSans-30"/>
       <use xlink:href="#DejaVuSans-2e" x="63.623047"/>
       <use xlink:href="#DejaVuSans-36" x="95.410156"/>
      </g>
     </g>
    </g>
    <g id="xtick_5">
     <g id="line2d_9">
      <path d="M 312.709091 384.48 
L 312.709091 51.84 
" clip-path="url(#pe598f86472)" style="fill: none; stroke: #b0b0b0; stroke-width: 0.8; stroke-linecap: square"/>
     </g>
     <g id="line2d_10">
      <g>
       <use xlink:href="#m2b3f6df252" x="312.709091" y="384.48" style="stroke: #000000; stroke-width: 0.8"/>
      </g>
     </g>
     <g id="text_5">
      <!-- 0.8 -->
      <g transform="translate(304.757528 399.078438) scale(0.1 -0.1)">
       <defs>
        <path id="DejaVuSans-38" d="M 2034 2216 
Q 1584 2216 1326 1975 
Q 1069 1734 1069 1313 
Q 1069 891 1326 650 
Q 1584 409 2034 409 
Q 2484 409 2743 651 
Q 3003 894 3003 1313 
Q 3003 1734 2745 1975 
Q 2488 2216 2034 2216 
z
M 1403 2484 
Q 997 2584 770 2862 
Q 544 3141 544 3541 
Q 544 4100 942 4425 
Q 1341 4750 2034 4750 
Q 2731 4750 3128 4425 
Q 3525 4100 3525 3541 
Q 3525 3141 3298 2862 
Q 3072 2584 2669 2484 
Q 3125 2378 3379 2068 
Q 3634 1759 3634 1313 
Q 3634 634 3220 271 
Q 2806 -91 2034 -91 
Q 1263 -91 848 271 
Q 434 634 434 1313 
Q 434 1759 690 2068 
Q 947 2378 1403 2484 
z
M 1172 3481 
Q 1172 3119 1398 2916 
Q 1625 2713 2034 2713 
Q 2441 2713 2670 2916 
Q 2900 3119 2900 3481 
Q 2900 3844 2670 4047 
Q 2441 4250 2034 4250 
Q 1625 4250 1398 4047 
Q 1172 3844 1172 3481 
z
" transform="scale(0.015625)"/>
       </defs>
       <use xlink:href="#DejaVuSans-30"/>
       <use xlink:href="#DejaVuSans-2e" x="63.623047"/>
       <use xlink:href="#DejaVuSans-38" x="95.410156"/>
      </g>
     </g>
    </g>
    <g id="xtick_6">
     <g id="line2d_11">
      <path d="M 373.581818 384.48 
L 373.581818 51.84 
" clip-path="url(#pe598f86472)" style="fill: none; stroke: #b0b0b0; stroke-width: 0.8; stroke-linecap: square"/>
     </g>
     <g id="line2d_12">
      <g>
       <use xlink:href="#m2b3f6df252" x="373.581818" y="384.48" style="stroke: #000000; stroke-width: 0.8"/>
      </g>
     </g>
     <g id="text_6">
      <!-- 1.0 -->
      <g transform="translate(365.630256 399.078438) scale(0.1 -0.1)">
       <defs>
        <path id="DejaVuSans-31" d="M 794 531 
L 1825 531 
L 1825 4091 
L 703 3866 
L 703 4441 
L 1819 4666 
L 2450 4666 
L 2450 531 
L 3481 531 
L 3481 0 
L 794 0 
L 794 531 
z
" transform="scale(0.015625)"/>
       </defs>
       <use xlink:href="#DejaVuSans-31"/>
       <use xlink:href="#DejaVuSans-2e" x="63.623047"/>
       <use xlink:href="#DejaVuSans-30" x="95.410156"/>
      </g>
     </g>
    </g>
    <g id="text_7">
     <!-- False Positive Rate -->
     <g transform="translate(174.933594 412.756563) scale(0.1 -0.1)">
      <defs>
       <path id="DejaVuSans-46" d="M 628 4666 
L 3309 4666 
L 3309 4134 
L 1259 4134 
L 1259 2759 
L 3109 2759 
L 3109 2228 
L 1259 2228 
L 1259 0 
L 628 0 
L 628 4666 
z
" transform="scale(0.015625)"/>
       <path id="DejaVuSans-61" d="M 2194 1759 
Q 1497 1759 1228 1600 
Q 959 1441 959 1056 
Q 959 750 1161 570 
Q 1363 391 1709 391 
Q 2188 391 2477 730 
Q 2766 1069 2766 1631 
L 2766 1759 
L 2194 1759 
z
M 3341 1997 
L 3341 0 
L 2766 0 
L 2766 531 
Q 2569 213 2275 61 
Q 1981 -91 1556 -91 
Q 1019 -91 701 211 
Q 384 513 384 1019 
Q 384 1609 779 1909 
Q 1175 2209 1959 2209 
L 2766 2209 
L 2766 2266 
Q 2766 2663 2505 2880 
Q 2244 3097 1772 3097 
Q 1472 3097 1187 3025 
Q 903 2953 641 2809 
L 641 3341 
Q 956 3463 1253 3523 
Q 1550 3584 1831 3584 
Q 2591 3584 2966 3190 
Q 3341 2797 3341 1997 
z
" transform="scale(0.015625)"/>
       <path id="DejaVuSans-6c" d="M 603 4863 
L 1178 4863 
L 1178 0 
L 603 0 
L 603 4863 
z
" transform="scale(0.015625)"/>
       <path id="DejaVuSans-73" d="M 2834 3397 
L 2834 2853 
Q 2591 2978 2328 3040 
Q 2066 3103 1784 3103 
Q 1356 3103 1142 2972 
Q 928 2841 928 2578 
Q 928 2378 1081 2264 
Q 1234 2150 1697 2047 
L 1894 2003 
Q 2506 1872 2764 1633 
Q 3022 1394 3022 966 
Q 3022 478 2636 193 
Q 2250 -91 1575 -91 
Q 1294 -91 989 -36 
Q 684 19 347 128 
L 347 722 
Q 666 556 975 473 
Q 1284 391 1588 391 
Q 1994 391 2212 530 
Q 2431 669 2431 922 
Q 2431 1156 2273 1281 
Q 2116 1406 1581 1522 
L 1381 1569 
Q 847 1681 609 1914 
Q 372 2147 372 2553 
Q 372 3047 722 3315 
Q 1072 3584 1716 3584 
Q 2034 3584 2315 3537 
Q 2597 3491 2834 3397 
z
" transform="scale(0.015625)"/>
       <path id="DejaVuSans-65" d="M 3597 1894 
L 3597 1613 
L 953 1613 
Q 991 1019 1311 708 
Q 1631 397 2203 397 
Q 2534 397 2845 478 
Q 3156 559 3463 722 
L 3463 178 
Q 3153 47 2828 -22 
Q 2503 -91 2169 -91 
Q 1331 -91 842 396 
Q 353 884 353 1716 
Q 353 2575 817 3079 
Q 1281 3584 2069 3584 
Q 2775 3584 3186 3129 
Q 3597 2675 3597 1894 
z
M 3022 2063 
Q 3016 2534 2758 2815 
Q 2500 3097 2075 3097 
Q 1594 3097 1305 2825 
Q 1016 2553 972 2059 
L 3022 2063 
z
" transform="scale(0.015625)"/>
       <path id="DejaVuSans-20" transform="scale(0.015625)"/>
       <path id="DejaVuSans-50" d="M 1259 4147 
L 1259 2394 
L 2053 2394 
Q 2494 2394 2734 2622 
Q 2975 2850 2975 3272 
Q 2975 3691 2734 3919 
Q 2494 4147 2053 4147 
L 1259 4147 
z
M 628 4666 
L 2053 4666 
Q 2838 4666 3239 4311 
Q 3641 3956 3641 3272 
Q 3641 2581 3239 2228 
Q 2838 1875 2053 1875 
L 1259 1875 
L 1259 0 
L 628 0 
L 628 4666 
z
" transform="scale(0.015625)"/>
       <path id="DejaVuSans-6f" d="M 1959 3097 
Q 1497 3097 1228 2736 
Q 959 2375 959 1747 
Q 959 1119 1226 758 
Q 1494 397 1959 397 
Q 2419 397 2687 759 
Q 2956 1122 2956 1747 
Q 2956 2369 2687 2733 
Q 2419 3097 1959 3097 
z
M 1959 3584 
Q 2709 3584 3137 3096 
Q 3566 2609 3566 1747 
Q 3566 888 3137 398 
Q 2709 -91 1959 -91 
Q 1206 -91 779 398 
Q 353 888 353 1747 
Q 353 2609 779 3096 
Q 1206 3584 1959 3584 
z
" transform="scale(0.015625)"/>
       <path id="DejaVuSans-69" d="M 603 3500 
L 1178 3500 
L 1178 0 
L 603 0 
L 603 3500 
z
M 603 4863 
L 1178 4863 
L 1178 4134 
L 603 4134 
L 603 4863 
z
" transform="scale(0.015625)"/>
       <path id="DejaVuSans-74" d="M 1172 4494 
L 1172 3500 
L 2356 3500 
L 2356 3053 
L 1172 3053 
L 1172 1153 
Q 1172 725 1289 603 
Q 1406 481 1766 481 
L 2356 481 
L 2356 0 
L 1766 0 
Q 1100 0 847 248 
Q 594 497 594 1153 
L 594 3053 
L 172 3053 
L 172 3500 
L 594 3500 
L 594 4494 
L 1172 4494 
z
" transform="scale(0.015625)"/>
       <path id="DejaVuSans-76" d="M 191 3500 
L 800 3500 
L 1894 563 
L 2988 3500 
L 3597 3500 
L 2284 0 
L 1503 0 
L 191 3500 
z
" transform="scale(0.015625)"/>
       <path id="DejaVuSans-52" d="M 2841 2188 
Q 3044 2119 3236 1894 
Q 3428 1669 3622 1275 
L 4263 0 
L 3584 0 
L 2988 1197 
Q 2756 1666 2539 1819 
Q 2322 1972 1947 1972 
L 1259 1972 
L 1259 0 
L 628 0 
L 628 4666 
L 2053 4666 
Q 2853 4666 3247 4331 
Q 3641 3997 3641 3322 
Q 3641 2881 3436 2590 
Q 3231 2300 2841 2188 
z
M 1259 4147 
L 1259 2491 
L 2053 2491 
Q 2509 2491 2742 2702 
Q 2975 2913 2975 3322 
Q 2975 3731 2742 3939 
Q 2509 4147 2053 4147 
L 1259 4147 
z
" transform="scale(0.015625)"/>
      </defs>
      <use xlink:href="#DejaVuSans-46"/>
      <use xlink:href="#DejaVuSans-61" x="48.394531"/>
      <use xlink:href="#DejaVuSans-6c" x="109.673828"/>
      <use xlink:href="#DejaVuSans-73" x="137.457031"/>
      <use xlink:href="#DejaVuSans-65" x="189.556641"/>
      <use xlink:href="#DejaVuSans-20" x="251.080078"/>
      <use xlink:href="#DejaVuSans-50" x="282.867188"/>
      <use xlink:href="#DejaVuSans-6f" x="339.544922"/>
      <use xlink:href="#DejaVuSans-73" x="400.726562"/>
      <use xlink:href="#DejaVuSans-69" x="452.826172"/>
      <use xlink:href="#DejaVuSans-74" x="480.609375"/>
      <use xlink:href="#DejaVuSans-69" x="519.818359"/>
      <use xlink:href="#DejaVuSans-76" x="547.601562"/>
      <use xlink:href="#DejaVuSans-65" x="606.78125"/>
      <use xlink:href="#DejaVuSans-20" x="668.304688"/>
      <use xlink:href="#DejaVuSans-52" x="700.091797"/>
      <use xlink:href="#DejaVuSans-61" x="767.324219"/>
      <use xlink:href="#DejaVuSans-74" x="828.603516"/>
      <use xlink:href="#DejaVuSans-65" x="867.8125"/>
     </g>
    </g>
   </g>
   <g id="matplotlib.axis_2">
    <g id="ytick_1">
     <g id="line2d_13">
      <path d="M 54 369.36 
L 388.8 369.36 
" clip-path="url(#pe598f86472)" style="fill: none; stroke: #b0b0b0; stroke-width: 0.8; stroke-linecap: square"/>
     </g>
     <g id="line2d_14">
      <defs>
       <path id="m35f809bc78" d="M 0 0 
L -3.5 0 
" style="stroke: #000000; stroke-width: 0.8"/>
      </defs>
      <g>
       <use xlink:href="#m35f809bc78" x="54" y="369.36" style="stroke: #000000; stroke-width: 0.8"/>
      </g>
     </g>
     <g id="text_8">
      <!-- 0.0 -->
      <g transform="translate(31.096875 373.159219) scale(0.1 -0.1)">
       <use xlink:href="#DejaVuSans-30"/>
       <use xlink:href="#DejaVuSans-2e" x="63.623047"/>
       <use xlink:href="#DejaVuSans-30" x="95.410156"/>
      </g>
     </g>
    </g>
    <g id="ytick_2">
     <g id="line2d_15">
      <path d="M 54 308.88 
L 388.8 308.88 
" clip-path="url(#pe598f86472)" style="fill: none; stroke: #b0b0b0; stroke-width: 0.8; stroke-linecap: square"/>
     </g>
     <g id="line2d_16">
      <g>
       <use xlink:href="#m35f809bc78" x="54" y="308.88" style="stroke: #000000; stroke-width: 0.8"/>
      </g>
     </g>
     <g id="text_9">
      <!-- 0.2 -->
      <g transform="translate(31.096875 312.679219) scale(0.1 -0.1)">
       <use xlink:href="#DejaVuSans-30"/>
       <use xlink:href="#DejaVuSans-2e" x="63.623047"/>
       <use xlink:href="#DejaVuSans-32" x="95.410156"/>
      </g>
     </g>
    </g>
    <g id="ytick_3">
     <g id="line2d_17">
      <path d="M 54 248.4 
L 388.8 248.4 
" clip-path="url(#pe598f86472)" style="fill: none; stroke: #b0b0b0; stroke-width: 0.8; stroke-linecap: square"/>
     </g>
     <g id="line2d_18">
      <g>
       <use xlink:href="#m35f809bc78" x="54" y="248.4" style="stroke: #000000; stroke-width: 0.8"/>
      </g>
     </g>
     <g id="text_10">
      <!-- 0.4 -->
      <g transform="translate(31.096875 252.199219) scale(0.1 -0.1)">
       <use xlink:href="#DejaVuSans-30"/>
       <use xlink:href="#DejaVuSans-2e" x="63.623047"/>
       <use xlink:href="#DejaVuSans-34" x="95.410156"/>
      </g>
     </g>
    </g>
    <g id="ytick_4">
     <g id="line2d_19">
      <path d="M 54 187.92 
L 388.8 187.92 
" clip-path="url(#pe598f86472)" style="fill: none; stroke: #b0b0b0; stroke-width: 0.8; stroke-linecap: square"/>
     </g>
     <g id="line2d_20">
      <g>
       <use xlink:href="#m35f809bc78" x="54" y="187.92" style="stroke: #000000; stroke-width: 0.8"/>
      </g>
     </g>
     <g id="text_11">
      <!-- 0.6 -->
      <g transform="translate(31.096875 191.719219) scale(0.1 -0.1)">
       <use xlink:href="#DejaVuSans-30"/>
       <use xlink:href="#DejaVuSans-2e" x="63.623047"/>
       <use xlink:href="#DejaVuSans-36" x="95.410156"/>
      </g>
     </g>
    </g>
    <g id="ytick_5">
     <g id="line2d_21">
      <path d="M 54 127.44 
L 388.8 127.44 
" clip-path="url(#pe598f86472)" style="fill: none; stroke: #b0b0b0; stroke-width: 0.8; stroke-linecap: square"/>
     </g>
     <g id="line2d_22">
      <g>
       <use xlink:href="#m35f809bc78" x="54" y="127.44" style="stroke: #000000; stroke-width: 0.8"/>
      </g>
     </g>
     <g id="text_12">
      <!-- 0.8 -->
      <g transform="translate(31.096875 131.239219) scale(0.1 -0.1)">
       <use xlink:href="#DejaVuSans-30"/>
       <use xlink:href="#DejaVuSans-2e" x="63.623047"/>
       <use xlink:href="#DejaVuSans-38" x="95.410156"/>
      </g>
     </g>
    </g>
    <g id="ytick_6">
     <g id="line2d_23">
      <path d="M 54 66.96 
L 388.8 66.96 
" clip-path="url(#pe598f86472)" style="fill: none; stroke: #b0b0b0; stroke-width: 0.8; stroke-linecap: square"/>
     </g>
     <g id="line2d_24">
      <g>
       <use xlink:href="#m35f809bc78" x="54" y="66.96" style="stroke: #000000; stroke-width: 0.8"/>
      </g>
     </g>
     <g id="text_13">
      <!-- 1.0 -->
      <g transform="translate(31.096875 70.759219) scale(0.1 -0.1)">
       <use xlink:href="#DejaVuSans-31"/>
       <use xlink:href="#DejaVuSans-2e" x="63.623047"/>
       <use xlink:href="#DejaVuSans-30" x="95.410156"/>
      </g>
     </g>
    </g>
    <g id="text_14">
     <!-- True Positive Rate -->
     <g transform="translate(25.017187 262.689687) rotate(-90) scale(0.1 -0.1)">
      <defs>
       <path id="DejaVuSans-54" d="M -19 4666 
L 3928 4666 
L 3928 4134 
L 2272 4134 
L 2272 0 
L 1638 0 
L 1638 4134 
L -19 4134 
L -19 4666 
z
" transform="scale(0.015625)"/>
       <path id="DejaVuSans-72" d="M 2631 2963 
Q 2534 3019 2420 3045 
Q 2306 3072 2169 3072 
Q 1681 3072 1420 2755 
Q 1159 2438 1159 1844 
L 1159 0 
L 581 0 
L 581 3500 
L 1159 3500 
L 1159 2956 
Q 1341 3275 1631 3429 
Q 1922 3584 2338 3584 
Q 2397 3584 2469 3576 
Q 2541 3569 2628 3553 
L 2631 2963 
z
" transform="scale(0.015625)"/>
       <path id="DejaVuSans-75" d="M 544 1381 
L 544 3500 
L 1119 3500 
L 1119 1403 
Q 1119 906 1312 657 
Q 1506 409 1894 409 
Q 2359 409 2629 706 
Q 2900 1003 2900 1516 
L 2900 3500 
L 3475 3500 
L 3475 0 
L 2900 0 
L 2900 538 
Q 2691 219 2414 64 
Q 2138 -91 1772 -91 
Q 1169 -91 856 284 
Q 544 659 544 1381 
z
M 1991 3584 
L 1991 3584 
z
" transform="scale(0.015625)"/>
      </defs>
      <use xlink:href="#DejaVuSans-54"/>
      <use xlink:href="#DejaVuSans-72" x="46.333984"/>
      <use xlink:href="#DejaVuSans-75" x="87.447266"/>
      <use xlink:href="#DejaVuSans-65" x="150.826172"/>
      <use xlink:href="#DejaVuSans-20" x="212.349609"/>
      <use xlink:href="#DejaVuSans-50" x="244.136719"/>
      <use xlink:href="#DejaVuSans-6f" x="300.814453"/>
      <use xlink:href="#DejaVuSans-73" x="361.996094"/>
      <use xlink:href="#DejaVuSans-69" x="414.095703"/>
      <use xlink:href="#DejaVuSans-74" x="441.878906"/>
      <use xlink:href="#DejaVuSans-69" x="481.087891"/>
      <use xlink:href="#DejaVuSans-76" x="508.871094"/>
      <use xlink:href="#DejaVuSans-65" x="568.050781"/>
      <use xlink:href="#DejaVuSans-20" x="629.574219"/>
      <use xlink:href="#DejaVuSans-52" x="661.361328"/>
      <use xlink:href="#DejaVuSans-61" x="728.59375"/>
      <use xlink:href="#DejaVuSans-74" x="789.873047"/>
      <use xlink:href="#DejaVuSans-65" x="829.082031"/>
     </g>
    </g>
   </g>
   <g id="line2d_25">
    <path d="M 69.218182 369.36 
L 69.293513 369.254893 
L 69.399572 368.971914 
L 69.432778 368.866807 
L 69.541314 368.486806 
L 69.579971 368.389785 
L 69.686526 368.187656 
L 69.734104 368.08255 
L 69.84264 367.742974 
L 69.896166 367.637867 
L 70.003216 367.298292 
L 70.028987 367.193185 
L 70.133063 366.894036 
L 70.179154 366.788929 
L 70.290169 366.384672 
L 70.337251 366.279566 
L 70.447771 366.012757 
L 70.474038 365.92382 
L 70.58307 365.430627 
L 70.616275 365.333606 
L 70.72729 364.848498 
L 70.775364 364.743391 
L 70.877953 364.444241 
L 70.915123 364.339135 
L 71.024652 364.072326 
L 71.073716 363.967219 
L 71.184731 363.619558 
L 71.257089 363.514452 
L 71.367608 363.158706 
L 71.394371 363.053599 
L 71.503403 362.730194 
L 71.54206 362.625087 
L 71.651093 362.253171 
L 71.67736 362.148065 
L 71.778462 361.784234 
L 71.837935 361.679127 
L 71.947958 361.339552 
L 72.021307 361.24253 
L 72.131331 360.862529 
L 72.161563 360.757423 
L 72.272082 360.417847 
L 72.309748 360.31274 
L 72.420763 360.005506 
L 72.455455 359.900399 
L 72.565974 359.536568 
L 72.603144 359.431461 
L 72.712177 359.00295 
L 72.746373 358.905928 
L 72.852432 358.436991 
L 72.882664 358.331884 
L 72.992688 357.943798 
L 73.029362 357.838691 
L 73.138395 357.337413 
L 73.174574 357.232306 
L 73.282119 356.771454 
L 73.307891 356.666347 
L 73.417914 356.278261 
L 73.45558 356.173154 
L 73.565108 355.776983 
L 73.598313 355.671876 
L 73.699416 355.316131 
L 73.730144 355.211024 
L 73.840663 354.734001 
L 73.86693 354.628895 
L 73.971006 354.192298 
L 74.004212 354.087191 
L 74.111757 353.634424 
L 74.148927 353.529317 
L 74.25796 353.09272 
L 74.311485 352.987613 
L 74.4225 352.542931 
L 74.445793 352.44591 
L 74.556808 352.098249 
L 74.581588 351.993143 
L 74.690125 351.556546 
L 74.709949 351.451439 
L 74.819973 351.128034 
L 74.847726 351.039097 
L 74.95775 350.626756 
L 74.976087 350.521649 
L 75.079173 350.141648 
L 75.1099 350.044626 
L 75.219924 349.60803 
L 75.273944 349.502923 
L 75.377525 349.106752 
L 75.422129 349.001645 
L 75.532153 348.759091 
L 75.577253 348.653984 
L 75.681825 348.387175 
L 75.745262 348.290153 
L 75.850329 348.055685 
L 75.890969 347.950578 
L 76.001984 347.724194 
L 76.056996 347.627173 
L 76.166524 347.295683 
L 76.219553 347.190576 
L 76.317187 346.956107 
L 76.394996 346.851 
L 76.495108 346.576106 
L 76.563501 346.470999 
L 76.673525 346.179935 
L 76.710199 346.074828 
L 76.813284 345.783763 
L 76.867801 345.678657 
L 76.978815 345.355252 
L 77.022924 345.250145 
L 77.128983 344.991421 
L 77.156737 344.886314 
L 77.2623 344.554824 
L 77.31979 344.449717 
L 77.425849 344.118227 
L 77.474913 344.01312 
L 77.584937 343.754396 
L 77.61616 343.649289 
L 77.726679 343.38248 
L 77.773266 343.277373 
L 77.883289 342.945883 
L 77.930867 342.840776 
L 78.041386 342.460775 
L 78.076079 342.355669 
L 78.18412 342.088859 
L 78.216334 341.983753 
L 78.324871 341.555241 
L 78.37344 341.450134 
L 78.484455 341.078218 
L 78.521625 340.973112 
L 78.630162 340.625451 
L 78.671792 340.520344 
L 78.782807 340.156514 
L 78.816508 340.051407 
L 78.924054 339.776512 
L 78.976588 339.671406 
L 79.087603 339.404597 
L 79.131215 339.307575 
L 79.240744 338.927574 
L 79.277418 338.822467 
L 79.378025 338.563743 
L 79.425108 338.458636 
L 79.534636 338.159487 
L 79.573788 338.062465 
L 79.683812 337.642038 
L 79.720486 337.536932 
L 79.82258 337.205441 
L 79.861733 337.100335 
L 79.969774 336.833525 
L 80.030733 336.728419 
L 80.138775 336.421184 
L 80.181396 336.316077 
L 80.289933 336.033098 
L 80.326608 335.927991 
L 80.434153 335.53182 
L 80.474793 335.426713 
L 80.585312 335.167989 
L 80.624465 335.062882 
L 80.734984 334.779903 
L 80.77711 334.674796 
L 80.8797 334.351391 
L 80.933225 334.246284 
L 81.043744 333.898624 
L 81.064064 333.793517 
L 81.175079 333.518623 
L 81.228108 333.413516 
L 81.336149 333.146707 
L 81.391161 333.0416 
L 81.501185 332.766706 
L 81.543807 332.669684 
L 81.652343 332.370534 
L 81.697939 332.265428 
L 81.80152 331.990533 
L 81.839681 331.885426 
L 81.944749 331.578192 
L 82.000256 331.473085 
L 82.110775 331.101169 
L 82.140016 330.996062 
L 82.248057 330.680742 
L 82.281758 330.575636 
L 82.391286 330.308826 
L 82.438368 330.20372 
L 82.548888 329.93691 
L 82.582589 329.831804 
L 82.688152 329.540739 
L 82.747129 329.435632 
L 82.855665 329.193078 
L 82.922572 329.087972 
L 83.033091 328.796907 
L 83.084138 328.6918 
L 83.194657 328.408821 
L 83.254625 328.303714 
L 83.362171 328.093501 
L 83.434529 327.988394 
L 83.545544 327.673074 
L 83.591139 327.576053 
L 83.702154 327.268818 
L 83.747749 327.163711 
L 83.852817 326.904987 
L 83.909316 326.79988 
L 84.019339 326.622007 
L 84.04858 326.516901 
L 84.158603 326.330943 
L 84.221049 326.225836 
L 84.332064 326.031793 
L 84.383607 325.926686 
L 84.492639 325.635622 
L 84.527827 325.530515 
L 84.638346 325.247535 
L 84.701783 325.142429 
L 84.812798 324.899875 
L 84.853438 324.794768 
L 84.964452 324.495618 
L 85.010048 324.390512 
L 85.120567 324.067107 
L 85.17657 323.962 
L 85.276682 323.703276 
L 85.327729 323.598169 
L 85.437753 323.387956 
L 85.502676 323.282849 
L 85.60824 322.878593 
L 85.661765 322.773486 
L 85.771293 322.514762 
L 85.851085 322.409655 
L 85.961604 322.231782 
L 86.019589 322.126676 
L 86.128126 321.819441 
L 86.185616 321.714334 
L 86.289693 321.407099 
L 86.310508 321.301992 
L 86.421027 321.010928 
L 86.448285 320.905821 
L 86.558805 320.485394 
L 86.604896 320.380288 
L 86.715415 320.073053 
L 86.781825 319.967946 
L 86.889867 319.587945 
L 86.933975 319.490923 
L 87.04499 319.151348 
L 87.067788 319.062412 
L 87.178307 318.65007 
L 87.230841 318.553049 
L 87.340865 318.181133 
L 87.371592 318.076026 
L 87.479138 317.712195 
L 87.511847 317.607088 
L 87.62088 317.275598 
L 87.656068 317.170491 
L 87.764604 316.77432 
L 87.807226 316.669213 
L 87.91725 316.394319 
L 87.948968 316.289212 
L 88.059488 315.965807 
L 88.104588 315.8607 
L 88.208664 315.49687 
L 88.243356 315.399848 
L 88.352884 314.995592 
L 88.398975 314.890485 
L 88.50553 314.58325 
L 88.549143 314.478143 
L 88.659166 314.146653 
L 88.695841 314.041546 
L 88.80636 313.718141 
L 88.85146 313.613035 
L 88.956032 313.362396 
L 89.004601 313.257289 
L 89.11512 313.02282 
L 89.163194 312.917713 
L 89.274209 312.634734 
L 89.316335 312.529627 
L 89.425863 312.278988 
L 89.469476 312.173882 
L 89.577021 311.923243 
L 89.627077 311.818136 
L 89.733136 311.599837 
L 89.773775 311.494731 
L 89.881321 311.268347 
L 89.933359 311.16324 
L 90.040905 310.920687 
L 90.09443 310.81558 
L 90.204454 310.548771 
L 90.255005 310.443664 
L 90.362551 310.249621 
L 90.408146 310.144514 
L 90.51817 309.910045 
L 90.560792 309.804939 
L 90.669824 309.489619 
L 90.736235 309.384512 
L 90.845763 309.190469 
L 90.898792 309.085362 
L 90.994939 308.883234 
L 91.056394 308.778127 
L 91.166417 308.487063 
L 91.21003 308.381956 
L 91.319063 308.155572 
L 91.39489 308.050466 
L 91.483603 307.832167 
L 91.557943 307.727061 
L 91.659542 307.541103 
L 91.696216 307.435996 
L 91.80624 307.120676 
L 91.839445 307.015569 
L 91.948478 306.740675 
L 91.994073 306.635568 
L 92.104097 306.320248 
L 92.171499 306.215141 
L 92.280531 305.972588 
L 92.32117 305.867481 
L 92.4193 305.51982 
L 92.485215 305.414714 
L 92.590282 305.17216 
L 92.635382 305.067053 
L 92.740945 304.824499 
L 92.791497 304.719393 
L 92.898051 304.476839 
L 92.948107 304.371732 
L 93.056148 304.137263 
L 93.11116 304.040242 
L 93.222175 303.781518 
L 93.279665 303.676411 
L 93.389689 303.361091 
L 93.444205 303.255984 
L 93.55522 302.940664 
L 93.601311 302.851728 
L 93.71183 302.560663 
L 93.742557 302.455556 
L 93.850599 302.213003 
L 93.895698 302.107896 
L 94.001262 301.833001 
L 94.04091 301.727895 
L 94.149447 301.493426 
L 94.201485 301.388319 
L 94.307048 301.145765 
L 94.365034 301.040659 
L 94.458207 300.887041 
L 94.519661 300.781935 
L 94.629189 300.539381 
L 94.689653 300.434274 
L 94.800172 300.046188 
L 94.832386 299.941081 
L 94.943401 299.641931 
L 94.997422 299.536825 
L 95.108437 299.286186 
L 95.151554 299.181079 
L 95.262073 298.970866 
L 95.311138 298.865759 
L 95.418188 298.58278 
L 95.4732 298.477673 
L 95.579754 298.259374 
L 95.632784 298.154268 
L 95.736365 297.855118 
L 95.791872 297.750011 
L 95.886036 297.580224 
L 95.9465 297.475117 
L 96.056524 297.175967 
L 96.099145 297.078946 
L 96.2057 296.844477 
L 96.258729 296.73937 
L 96.368257 296.415965 
L 96.418809 296.318943 
L 96.525859 296.10873 
L 96.56402 296.011708 
L 96.669088 295.77724 
L 96.713692 295.672133 
L 96.823716 295.389154 
L 96.873276 295.284047 
L 96.983795 294.976812 
L 97.050206 294.871705 
L 97.16023 294.621066 
L 97.200373 294.53213 
L 97.308415 294.313831 
L 97.354506 294.208725 
L 97.463538 293.925745 
L 97.524001 293.828724 
L 97.634025 293.537659 
L 97.718278 293.432552 
L 97.820372 293.157658 
L 97.874888 293.052551 
L 97.981938 292.769572 
L 98.040915 292.67255 
L 98.145487 292.446167 
L 98.215862 292.34106 
L 98.325886 292.155102 
L 98.367021 292.049995 
L 98.475558 291.799356 
L 98.527596 291.69425 
L 98.631672 291.41127 
L 98.686684 291.306163 
L 98.792247 291.063609 
L 98.866092 290.958503 
L 98.974133 290.699779 
L 99.015764 290.602757 
L 99.125292 290.335948 
L 99.169896 290.230841 
L 99.280415 289.964032 
L 99.343357 289.858925 
L 99.446938 289.664882 
L 99.51087 289.559775 
L 99.612469 289.244455 
L 99.677888 289.139349 
L 99.787416 288.864454 
L 99.861757 288.759348 
L 99.972276 288.460198 
L 100.027783 288.363176 
L 100.137807 288.152963 
L 100.202731 288.047856 
L 100.307799 287.748706 
L 100.362315 287.6436 
L 100.469365 287.36062 
L 100.531811 287.255514 
L 100.642826 286.980619 
L 100.713201 286.875513 
L 100.82372 286.576363 
L 100.860395 286.471256 
L 100.970914 286.228702 
L 101.026422 286.123596 
L 101.136941 285.921467 
L 101.192944 285.816361 
L 101.299498 285.509126 
L 101.379786 285.404019 
L 101.487827 285.13721 
L 101.557212 285.040188 
L 101.666244 284.870401 
L 101.707875 284.765294 
L 101.818394 284.482314 
L 101.879353 284.385293 
L 101.989377 284.110398 
L 102.035468 284.005292 
L 102.142022 283.762738 
L 102.190591 283.657631 
L 102.290703 283.390822 
L 102.389328 283.285715 
L 102.482501 283.083587 
L 102.545442 282.97848 
L 102.652988 282.832948 
L 102.718407 282.727841 
L 102.821988 282.582309 
L 102.936968 282.477202 
L 103.047983 282.194223 
L 103.104481 282.089116 
L 103.212523 281.878903 
L 103.27596 281.773796 
L 103.386975 281.515072 
L 103.440995 281.409965 
L 103.551019 281.143156 
L 103.623377 281.038049 
L 103.732905 280.852091 
L 103.805263 280.746985 
L 103.915782 280.585282 
L 103.965838 280.480175 
L 104.066941 280.326558 
L 104.151193 280.221451 
L 104.260226 279.978897 
L 104.324158 279.881876 
L 104.434677 279.655492 
L 104.511 279.550386 
L 104.617555 279.299747 
L 104.70825 279.19464 
L 104.816787 278.984427 
L 104.875268 278.87932 
L 104.982318 278.644851 
L 105.057649 278.539744 
L 105.165195 278.321446 
L 105.233588 278.216339 
L 105.342621 278.095062 
L 105.386234 277.989956 
L 105.495266 277.698891 
L 105.551269 277.593784 
L 105.65039 277.415911 
L 105.736129 277.310805 
L 105.837727 277.124847 
L 105.942299 277.01974 
L 106.049845 276.858038 
L 106.133106 276.752931 
L 106.239165 276.607399 
L 106.343737 276.502292 
L 106.451283 276.324419 
L 106.527605 276.227397 
L 106.637629 275.968673 
L 106.685207 275.871652 
L 106.794735 275.718034 
L 106.857676 275.612928 
L 106.962248 275.410799 
L 107.040553 275.305693 
L 107.145621 275.095479 
L 107.229873 274.990373 
L 107.340888 274.772074 
L 107.373102 274.675053 
L 107.47817 274.521435 
L 107.562422 274.416329 
L 107.673437 274.18186 
L 107.734892 274.076753 
L 107.842933 273.874625 
L 107.899432 273.769518 
L 108.0045 273.59973 
L 108.087761 273.494624 
L 108.196793 273.341006 
L 108.281046 273.2359 
L 108.3876 273.009516 
L 108.478295 272.904409 
L 108.584354 272.718451 
L 108.654234 272.613345 
L 108.74939 272.411217 
L 108.853466 272.30611 
L 108.964481 272.136322 
L 109.045264 272.031215 
L 109.155783 271.812917 
L 109.211786 271.70781 
L 109.320819 271.570363 
L 109.384256 271.465256 
L 109.493288 271.069085 
L 109.554743 270.963978 
L 109.664767 270.77802 
L 109.719283 270.680999 
L 109.828811 270.43036 
L 109.880354 270.325253 
L 109.985421 270.220147 
L 110.07909 270.11504 
L 110.183167 269.961422 
L 110.247595 269.856316 
L 110.35861 269.597592 
L 110.412135 269.492485 
L 110.516707 269.274186 
L 110.602446 269.16908 
L 110.709 269.023547 
L 110.764508 268.918441 
L 110.865611 268.748653 
L 110.95135 268.643546 
L 111.059391 268.489929 
L 111.106473 268.384822 
L 111.214019 268.190779 
L 111.296289 268.085672 
L 111.405321 267.883544 
L 111.495521 267.778438 
L 111.604553 267.64099 
L 111.665512 267.535884 
L 111.773058 267.382266 
L 111.866231 267.27716 
L 111.975759 267.075031 
L 112.045144 266.969925 
L 112.140299 266.832477 
L 112.256766 266.735456 
L 112.361338 266.541413 
L 112.44559 266.436306 
L 112.555118 266.242263 
L 112.603192 266.137156 
L 112.711233 266.023964 
L 112.768723 265.926943 
L 112.874782 265.797581 
L 112.95953 265.692474 
L 113.06311 265.538857 
L 113.156779 265.441835 
L 113.253917 265.223537 
L 113.335196 265.11843 
L 113.446211 264.900132 
L 113.525012 264.795025 
L 113.635531 264.552471 
L 113.712349 264.447364 
L 113.817912 264.326087 
L 113.898696 264.220981 
L 114.004754 264.083534 
L 114.077608 263.978427 
L 114.181189 263.768213 
L 114.269406 263.663107 
L 114.378934 263.582255 
L 114.450796 263.477149 
L 114.55636 263.355872 
L 114.647055 263.250765 
L 114.75807 263.072892 
L 114.867598 262.967786 
L 114.975639 262.757572 
L 115.030651 262.652466 
L 115.123328 262.482678 
L 115.222449 262.377571 
L 115.333464 262.191613 
L 115.421185 262.086507 
L 115.527244 261.908634 
L 115.606541 261.803527 
L 115.717555 261.617569 
L 115.806764 261.512462 
L 115.907867 261.302249 
L 115.985181 261.197142 
L 116.089753 261.027355 
L 116.205228 260.922248 
L 116.314756 260.70395 
L 116.369768 260.598843 
L 116.479296 260.4048 
L 116.547689 260.299693 
L 116.649287 260.113735 
L 116.714707 260.008628 
L 116.824235 259.846926 
L 116.879247 259.741819 
L 116.988775 259.547776 
L 117.101277 259.442669 
L 117.208822 259.256711 
L 117.278207 259.151605 
L 117.386743 258.965647 
L 117.464057 258.86054 
L 117.573585 258.715008 
L 117.648421 258.609901 
L 117.750515 258.432028 
L 117.850627 258.326922 
L 117.958173 258.140964 
L 118.043416 258.035857 
L 118.151457 257.849899 
L 118.217868 257.744792 
L 118.326901 257.607345 
L 118.428003 257.502238 
L 118.536045 257.31628 
L 118.597499 257.211174 
L 118.704549 257.033301 
L 118.80813 256.928194 
L 118.913694 256.782662 
L 119.034125 256.677555 
L 119.142662 256.483512 
L 119.240295 256.378405 
L 119.340903 256.184362 
L 119.451917 256.079256 
L 119.556985 255.941808 
L 119.621909 255.836702 
L 119.720534 255.699255 
L 119.828575 255.594148 
L 119.938599 255.40819 
L 120.025329 255.303083 
L 120.127919 255.157551 
L 120.249341 255.052444 
L 120.352426 254.882657 
L 120.420324 254.785635 
L 120.527374 254.567337 
L 120.618565 254.46223 
L 120.725119 254.260102 
L 120.79946 254.154995 
L 120.908988 253.912441 
L 121.030906 253.807334 
L 121.141425 253.661802 
L 121.225677 253.556695 
L 121.333223 253.386908 
L 121.443247 253.281801 
L 121.541872 253.120098 
L 121.63108 253.014992 
L 121.742095 252.877545 
L 121.838242 252.772438 
L 121.945787 252.634991 
L 122.031526 252.529884 
L 122.140063 252.432862 
L 122.216386 252.327756 
L 122.321949 252.149883 
L 122.439903 252.044776 
L 122.545466 251.866903 
L 122.678287 251.761797 
L 122.768487 251.648605 
L 122.891892 251.543498 
L 123.000924 251.414136 
L 123.101036 251.317115 
L 123.204121 251.131157 
L 123.315632 251.02605 
L 123.424168 250.888603 
L 123.50743 250.783496 
L 123.60209 250.662219 
L 123.691298 250.557112 
L 123.80033 250.42775 
L 123.87021 250.322644 
L 123.967348 250.160941 
L 124.051601 250.055834 
L 124.160633 249.926472 
L 124.265701 249.821366 
L 124.367299 249.635408 
L 124.459481 249.530301 
L 124.551168 249.392854 
L 124.671599 249.287747 
L 124.774189 249.117959 
L 124.901558 249.012853 
L 125.007122 248.859235 
L 125.093852 248.754129 
L 125.19099 248.608596 
L 125.351565 248.50349 
L 125.459111 248.341787 
L 125.547824 248.244766 
L 125.654874 248.115403 
L 125.796616 248.010297 
L 125.905153 247.90519 
L 126.036487 247.800083 
L 126.134616 247.686892 
L 126.280819 247.581785 
L 126.383409 247.428167 
L 126.488476 247.323061 
L 126.59404 247.193699 
L 126.689195 247.088592 
L 126.784351 246.967315 
L 126.910234 246.862208 
L 127.021249 246.716676 
L 127.135237 246.611569 
L 127.228906 246.490292 
L 127.33546 246.385186 
L 127.43805 246.288164 
L 127.527258 246.183058 
L 127.637778 246.01327 
L 127.765643 245.908163 
L 127.846426 245.770716 
L 127.978752 245.665609 
L 128.08828 245.536247 
L 128.179966 245.431141 
L 128.288008 245.293693 
L 128.416864 245.188587 
L 128.525401 245.026884 
L 128.677055 244.921777 
L 128.774689 244.76816 
L 128.909988 244.663053 
L 129.019021 244.557947 
L 129.136479 244.45284 
L 129.247493 244.331563 
L 129.382297 244.226456 
L 129.488356 244.105179 
L 129.6524 244.000073 
L 129.743096 243.919221 
L 129.879882 243.8222 
L 129.958682 243.709008 
L 130.089026 243.603901 
L 130.19558 243.450284 
L 130.307586 243.345177 
L 130.402742 243.215815 
L 130.487986 243.110709 
L 130.579672 242.989432 
L 130.705059 242.89241 
L 130.813596 242.795388 
L 130.9484 242.690282 
L 131.053963 242.59326 
L 131.166465 242.488154 
L 131.261125 242.374962 
L 131.385025 242.269855 
L 131.494553 242.164748 
L 131.685856 242.059642 
L 131.778533 241.94645 
L 131.888557 241.841343 
L 131.986686 241.736237 
L 132.116534 241.639215 
L 132.217141 241.493683 
L 132.337077 241.388576 
L 132.445614 241.218788 
L 132.531849 241.113682 
L 132.639394 240.960064 
L 132.753383 240.854957 
L 132.85399 240.741766 
L 132.917427 240.636659 
L 133.023982 240.507297 
L 133.134996 240.410275 
L 133.234612 240.337509 
L 133.428889 240.232403 
L 133.539903 240.094955 
L 133.673716 239.989849 
L 133.782748 239.836231 
L 133.880878 239.731125 
L 133.962652 239.601762 
L 134.147016 239.496656 
L 134.246136 239.431975 
L 134.402251 239.326868 
L 134.513266 239.189421 
L 134.605944 239.084314 
L 134.713489 239.011548 
L 134.911234 238.906441 
L 135.013824 238.82559 
L 135.149619 238.720483 
L 135.258156 238.591121 
L 135.384039 238.4941 
L 135.489602 238.397078 
L 135.595165 238.291972 
L 135.705189 238.186865 
L 135.840488 238.081758 
L 135.951503 237.976652 
L 136.021879 237.87963 
L 136.120008 237.750268 
L 136.231519 237.645161 
L 136.30239 237.556225 
L 136.44661 237.451118 
L 136.556138 237.346011 
L 136.793531 237.240905 
L 136.903555 237.135798 
L 137.062148 237.030691 
L 137.173163 236.909414 
L 137.251468 236.804308 
L 137.355544 236.63452 
L 137.499269 236.529413 
L 137.60731 236.383881 
L 137.743601 236.278774 
L 137.849164 236.165583 
L 138.015191 236.060476 
L 138.118771 235.947284 
L 138.179235 235.850263 
L 138.288267 235.696645 
L 138.406221 235.591538 
L 138.517236 235.502602 
L 138.690201 235.397495 
L 138.798738 235.284304 
L 138.918178 235.179197 
L 139.01036 235.098346 
L 139.106506 234.993239 
L 139.215043 234.888132 
L 139.403868 234.783026 
L 139.500015 234.661749 
L 139.631349 234.556642 
L 139.742364 234.419195 
L 139.875681 234.314088 
L 139.986696 234.225152 
L 140.122491 234.120045 
L 140.22508 233.998768 
L 140.32321 233.893661 
L 140.42679 233.764299 
L 140.557629 233.659193 
L 140.665671 233.586426 
L 140.801961 233.48132 
L 140.910498 233.368128 
L 141.038364 233.263021 
L 141.135006 233.125574 
L 141.267332 233.020467 
L 141.374382 232.891105 
L 141.542886 232.785999 
L 141.651919 232.672807 
L 141.78821 232.5677 
L 141.889312 232.478764 
L 141.987442 232.373657 
L 142.087058 232.284721 
L 142.263492 232.179614 
L 142.36856 232.074507 
L 142.457768 231.969401 
L 142.564322 231.872379 
L 142.684258 231.767272 
L 142.786848 231.686421 
L 142.932555 231.581314 
L 143.003426 231.508548 
L 143.252218 231.403442 
L 143.343905 231.354931 
L 143.455911 231.249824 
L 143.566926 231.136632 
L 143.69033 231.031526 
L 143.80085 230.934504 
L 143.896005 230.829397 
L 143.993639 230.756631 
L 144.173543 230.651525 
L 144.272167 230.562588 
L 144.427786 230.457481 
L 144.536323 230.311949 
L 144.691942 230.206842 
L 144.802957 230.085565 
L 144.941726 229.980459 
L 145.046298 229.931948 
L 145.16326 229.826841 
L 145.274275 229.770245 
L 145.481932 229.665139 
L 145.581053 229.543862 
L 145.698015 229.438755 
L 145.799613 229.341734 
L 145.94086 229.236627 
L 146.047414 229.171946 
L 146.194112 229.066839 
L 146.301162 228.945562 
L 146.415151 228.840456 
L 146.511793 228.727264 
L 146.696157 228.622157 
L 146.805685 228.525136 
L 146.909762 228.428114 
L 146.993023 228.331092 
L 147.138234 228.225986 
L 147.244789 228.145134 
L 147.454924 228.040028 
L 147.538681 227.959177 
L 147.756746 227.85407 
L 147.856858 227.789389 
L 148.021397 227.684282 
L 148.131421 227.651942 
L 148.248879 227.546835 
L 148.354442 227.482154 
L 148.515513 227.377047 
L 148.579445 227.320451 
L 148.903074 227.215345 
L 149.008637 227.094068 
L 149.125599 226.988961 
L 149.213321 226.92428 
L 149.353576 226.819173 
L 149.45121 226.722152 
L 149.671752 226.617045 
L 149.781776 226.511938 
L 149.905181 226.406832 
L 150.007275 226.334066 
L 150.121264 226.228959 
L 150.20056 226.180448 
L 150.445387 226.075341 
L 150.555907 225.970235 
L 150.637681 225.865128 
L 150.743244 225.776192 
L 150.88796 225.671085 
L 150.998479 225.598319 
L 151.148151 225.493212 
L 151.248263 225.36385 
L 151.446504 225.258743 
L 151.556032 225.202147 
L 151.681419 225.097041 
L 151.781531 224.983849 
L 151.891554 224.878742 
L 151.991666 224.741295 
L 152.079388 224.636188 
L 152.185446 224.563422 
L 152.344039 224.458316 
L 152.455054 224.353209 
L 152.667667 224.248102 
L 152.775213 224.126825 
L 152.897131 224.021719 
L 153.008146 223.908527 
L 153.274284 223.80342 
L 153.366962 223.706399 
L 153.498792 223.601292 
L 153.609807 223.50427 
L 153.799127 223.399164 
L 153.902708 223.294057 
L 154.105409 223.18895 
L 154.215928 223.075759 
L 154.39831 222.970652 
L 154.501891 222.84129 
L 154.676343 222.736183 
L 154.758117 222.647247 
L 154.984112 222.54214 
L 155.084719 222.469374 
L 155.280977 222.364267 
L 155.386541 222.307671 
L 155.565453 222.202565 
L 155.650697 222.145969 
L 155.755764 222.040862 
L 155.854885 221.960011 
L 156.048665 221.854904 
L 156.124988 221.782138 
L 156.294484 221.677031 
L 156.399551 221.588095 
L 156.531877 221.482988 
L 156.639423 221.394052 
L 156.811397 221.288945 
L 156.906057 221.216179 
L 157.039374 221.111072 
L 157.135025 221.022136 
L 157.261403 220.917029 
L 157.363002 220.852348 
L 157.534976 220.747241 
L 157.641035 220.65022 
L 157.825399 220.545113 
L 157.92551 220.464262 
L 158.157948 220.359155 
L 158.25905 220.221708 
L 158.417643 220.116601 
L 158.524693 220.043835 
L 158.699145 219.938728 
L 158.799257 219.825537 
L 158.899368 219.72043 
L 159.009888 219.631494 
L 159.220519 219.526387 
L 159.327073 219.42128 
L 159.557528 219.316173 
L 159.662596 219.186811 
L 159.882147 219.081705 
L 159.990684 218.992768 
L 160.150764 218.887662 
L 160.261779 218.814895 
L 160.404512 218.709789 
L 160.514536 218.604682 
L 160.618612 218.499575 
L 160.727149 218.402554 
L 160.836182 218.297447 
L 160.945214 218.192341 
L 161.073575 218.087234 
L 161.17666 217.982127 
L 161.33674 217.87702 
L 161.409593 217.804254 
L 161.610312 217.699148 
L 161.718353 217.610211 
L 161.84721 217.505105 
L 161.958225 217.367657 
L 162.103932 217.262551 
L 162.213955 217.19787 
L 162.350246 217.092763 
L 162.454818 217.028082 
L 162.570789 216.93106 
L 162.680813 216.834039 
L 162.815121 216.728932 
L 162.919693 216.61574 
L 163.176415 216.510634 
L 163.274048 216.405527 
L 163.382585 216.30042 
L 163.467829 216.203399 
L 163.661609 216.098292 
L 163.760234 215.9851 
L 163.970369 215.879994 
L 164.079402 215.791057 
L 164.205285 215.68595 
L 164.301927 215.621269 
L 164.420872 215.516163 
L 164.493725 215.459567 
L 164.680567 215.35446 
L 164.790591 215.289779 
L 164.989327 215.184672 
L 165.076058 215.111906 
L 165.275785 215.0068 
L 165.379366 214.934033 
L 165.557783 214.828927 
L 165.623202 214.772331 
L 165.864561 214.667224 
L 165.965168 214.554032 
L 166.105423 214.448926 
L 166.202561 214.343819 
L 166.410219 214.238712 
L 166.510826 214.165946 
L 166.666941 214.06084 
L 166.776469 213.971903 
L 166.911768 213.866796 
L 167.006428 213.769775 
L 167.208138 213.664668 
L 167.310728 213.624243 
L 167.430168 213.519136 
L 167.52681 213.44637 
L 167.676978 213.341263 
L 167.776098 213.276582 
L 167.927257 213.171475 
L 168.03282 213.042113 
L 168.146313 212.937007 
L 168.254354 212.84807 
L 168.351492 212.751049 
L 168.456064 212.694453 
L 168.575009 212.589346 
L 168.660252 212.50041 
L 168.796543 212.395303 
L 168.907062 212.314452 
L 169.003705 212.209345 
L 169.112737 212.112323 
L 169.229699 212.007217 
L 169.335262 211.91828 
L 169.446773 211.813174 
L 169.554814 211.699982 
L 169.699034 211.594875 
L 169.805093 211.505939 
L 169.990944 211.408917 
L 170.099976 211.30381 
L 170.218425 211.198704 
L 170.323493 211.077427 
L 170.44442 210.97232 
L 170.550974 210.899554 
L 170.733356 210.794447 
L 170.832476 210.762107 
L 170.960837 210.657 
L 171.071357 210.503383 
L 171.191788 210.398276 
L 171.265633 210.317425 
L 171.422738 210.212318 
L 171.529293 210.139552 
L 171.66707 210.034445 
L 171.771642 209.953594 
L 171.956998 209.848487 
L 172.041746 209.791891 
L 172.329195 209.686785 
L 172.429802 209.605933 
L 172.587403 209.500827 
L 172.695445 209.41189 
L 172.964557 209.306784 
L 173.075076 209.177422 
L 173.220287 209.072315 
L 173.317425 208.967208 
L 173.478496 208.862101 
L 173.578112 208.78125 
L 173.710933 208.676144 
L 173.80708 208.619548 
L 173.976081 208.514441 
L 174.077183 208.376994 
L 174.216448 208.271887 
L 174.311108 208.231461 
L 174.449381 208.126355 
L 174.554944 208.045503 
L 174.709572 207.940397 
L 174.814144 207.867631 
L 174.931602 207.762524 
L 175.036174 207.665502 
L 175.173455 207.560396 
L 175.277532 207.471459 
L 175.468339 207.366353 
L 175.577371 207.253161 
L 175.68789 207.148054 
L 175.79048 207.042947 
L 175.953533 206.937841 
L 176.062566 206.840819 
L 176.304915 206.735713 
L 176.414939 206.622521 
L 176.539335 206.517414 
L 176.648367 206.436563 
L 176.83174 206.331456 
L 176.897655 206.266775 
L 177.176679 206.161668 
L 177.284225 206.016136 
L 177.519636 205.911029 
L 177.621234 205.789752 
L 177.796677 205.684646 
L 177.904719 205.619965 
L 178.062816 205.514858 
L 178.162927 205.409751 
L 178.314582 205.304645 
L 178.409737 205.223793 
L 178.516292 205.118687 
L 178.578242 205.054006 
L 178.810679 204.948899 
L 178.884524 204.884218 
L 179.062941 204.779111 
L 179.17346 204.665919 
L 179.322636 204.560813 
L 179.429191 204.439536 
L 179.565481 204.334429 
L 179.670053 204.245493 
L 179.844505 204.140386 
L 179.95552 204.035279 
L 180.100236 203.930173 
L 180.20233 203.808896 
L 180.356462 203.703789 
L 180.443688 203.655278 
L 180.634991 203.550172 
L 180.73758 203.477405 
L 180.916988 203.372299 
L 181.022552 203.251022 
L 181.220297 203.145915 
L 181.316444 203.073149 
L 181.540951 202.968042 
L 181.65048 202.871021 
L 181.796682 202.765914 
L 181.893325 202.644637 
L 182.047457 202.539531 
L 182.128736 202.442509 
L 182.330446 202.337402 
L 182.429566 202.240381 
L 182.51481 202.135274 
L 182.616408 202.038252 
L 182.747743 201.933146 
L 182.838933 201.819954 
L 183.003473 201.714847 
L 183.096151 201.601656 
L 183.309755 201.496549 
L 183.411849 201.375272 
L 183.569451 201.270165 
L 183.626445 201.205484 
L 183.779091 201.100378 
L 183.877715 201.003356 
L 183.972375 200.898249 
L 184.06654 200.809313 
L 184.189945 200.704206 
L 184.296499 200.582929 
L 184.510599 200.477823 
L 184.600303 200.413142 
L 184.77426 200.308035 
L 184.881805 200.219098 
L 184.996289 200.113992 
L 185.107304 200.0008 
L 185.276305 199.895693 
L 185.333794 199.839097 
L 185.493874 199.733991 
L 185.600428 199.653139 
L 185.719373 199.548033 
L 185.818989 199.467181 
L 185.94735 199.362075 
L 186.056382 199.192287 
L 186.158476 199.095265 
L 186.228852 199.030584 
L 186.38348 198.933563 
L 186.494495 198.836541 
L 186.656061 198.731435 
L 186.748243 198.626328 
L 186.920217 198.521221 
L 187.029745 198.448455 
L 187.160088 198.343348 
L 187.270608 198.238242 
L 187.406403 198.133135 
L 187.515435 198.028028 
L 187.679479 197.922922 
L 187.784051 197.850156 
L 188.059606 197.745049 
L 188.168143 197.664198 
L 188.266768 197.559091 
L 188.360932 197.51058 
L 188.604273 197.405474 
L 188.712314 197.324622 
L 188.874872 197.219516 
L 188.968045 197.122494 
L 189.099379 197.017387 
L 189.209403 196.936536 
L 189.371465 196.831429 
L 189.478515 196.742493 
L 189.584574 196.637386 
L 189.685677 196.556535 
L 189.83634 196.451428 
L 189.94339 196.370577 
L 190.04251 196.26547 
L 190.134197 196.192704 
L 190.337394 196.087597 
L 190.431062 195.974406 
L 190.592629 195.869299 
L 190.693731 195.788448 
L 190.851333 195.691426 
L 190.946489 195.578234 
L 191.105081 195.473128 
L 191.212131 195.376106 
L 191.339501 195.270999 
L 191.443082 195.173978 
L 191.587302 195.068871 
L 191.69237 194.963765 
L 191.821722 194.858658 
L 191.919851 194.761636 
L 192.10025 194.65653 
L 192.189459 194.583763 
L 192.349538 194.478657 
L 192.456588 194.38972 
L 192.58941 194.284614 
L 192.683574 194.179507 
L 192.753949 194.0744 
L 192.863478 193.945038 
L 193.03 193.839932 
L 193.134572 193.702484 
L 193.287713 193.605463 
L 193.395754 193.524612 
L 193.601925 193.419505 
L 193.698072 193.322483 
L 193.854186 193.217377 
L 193.962723 193.0961 
L 194.06333 192.990993 
L 194.171867 192.877801 
L 194.296263 192.772695 
L 194.406783 192.708013 
L 194.514824 192.602907 
L 194.622865 192.48163 
L 194.806733 192.376523 
L 194.913784 192.279502 
L 195.082784 192.174395 
L 195.189834 192.061203 
L 195.308283 191.956096 
L 195.41682 191.83482 
L 195.542207 191.729713 
L 195.652231 191.592266 
L 195.895076 191.487159 
L 196.002621 191.341627 
L 196.141886 191.23652 
L 196.245962 191.171839 
L 196.371349 191.066732 
L 196.476417 191.002051 
L 196.61023 190.896945 
L 196.715297 190.840349 
L 196.871908 190.735242 
L 196.964585 190.630135 
L 197.200492 190.525029 
L 197.302586 190.468433 
L 197.469108 190.371411 
L 197.567733 190.298645 
L 197.733264 190.193538 
L 197.837836 190.112687 
L 197.971649 190.00758 
L 198.044998 189.926729 
L 198.273966 189.829708 
L 198.366644 189.732686 
L 198.543573 189.627579 
L 198.653597 189.538643 
L 198.76709 189.433536 
L 198.858281 189.352685 
L 199.043636 189.247578 
L 199.153164 189.134386 
L 199.255754 189.02928 
L 199.357848 188.908003 
L 199.47481 188.802896 
L 199.575417 188.705875 
L 199.780596 188.600768 
L 199.888638 188.536087 
L 200.136934 188.43098 
L 200.238533 188.325873 
L 200.3887 188.220767 
L 200.499219 188.139916 
L 200.623616 188.034809 
L 200.73017 187.897362 
L 200.799059 187.792255 
L 200.901648 187.695233 
L 201.049338 187.590127 
L 201.157379 187.436509 
L 201.315972 187.331403 
L 201.425004 187.226296 
L 201.546427 187.121189 
L 201.655955 187.016083 
L 201.727322 186.910976 
L 201.83685 186.813954 
L 201.955298 186.708848 
L 202.065818 186.595656 
L 202.18724 186.490549 
L 202.287848 186.369272 
L 202.422651 186.264166 
L 202.507895 186.183314 
L 202.636751 186.078208 
L 202.744793 186.013527 
L 202.88703 185.90842 
L 202.99755 185.819483 
L 203.172993 185.714377 
L 203.283512 185.544589 
L 203.38858 185.447568 
L 203.497612 185.326291 
L 203.699322 185.221184 
L 203.793487 185.075652 
L 203.954557 184.970545 
L 204.058138 184.873523 
L 204.199385 184.768417 
L 204.305444 184.64714 
L 204.412989 184.542033 
L 204.51211 184.428841 
L 204.661286 184.323735 
L 204.762885 184.259054 
L 204.918504 184.153947 
L 205.026049 184.06501 
L 205.138055 183.959904 
L 205.246097 183.862882 
L 205.434921 183.757776 
L 205.544449 183.660754 
L 205.70552 183.555647 
L 205.807614 183.458626 
L 205.970171 183.353519 
L 206.070283 183.296923 
L 206.258612 183.191816 
L 206.359715 183.062454 
L 206.515334 182.957348 
L 206.618419 182.844156 
L 206.770569 182.739049 
L 206.874645 182.658198 
L 207.013909 182.553091 
L 207.120464 182.431814 
L 207.257746 182.334793 
L 207.366282 182.245856 
L 207.475315 182.14075 
L 207.585339 182.067984 
L 207.687928 181.962877 
L 207.798943 181.865855 
L 207.884682 181.760749 
L 207.986281 181.679897 
L 208.117615 181.574791 
L 208.226648 181.461599 
L 208.34807 181.356492 
L 208.442235 181.307981 
L 208.562666 181.202875 
L 208.671698 181.089683 
L 208.855567 180.984576 
L 208.966086 180.822874 
L 209.098907 180.717767 
L 209.207444 180.604575 
L 209.297644 180.507554 
L 209.400729 180.402447 
L 209.570721 180.29734 
L 209.679258 180.159893 
L 209.801176 180.054786 
L 209.906243 179.909254 
L 210.062854 179.804147 
L 210.172382 179.68287 
L 210.26605 179.577764 
L 210.376074 179.472657 
L 210.542101 179.36755 
L 210.643699 179.254359 
L 210.772556 179.149252 
L 210.87911 179.027975 
L 210.986656 178.922868 
L 211.093706 178.842017 
L 211.256264 178.73691 
L 211.351419 178.664144 
L 211.543713 178.559037 
L 211.653736 178.486271 
L 211.747405 178.381165 
L 211.85396 178.276058 
L 212.049227 178.170951 
L 212.150825 178.10627 
L 212.29009 178.001164 
L 212.385741 177.887972 
L 212.534917 177.782865 
L 212.631559 177.710099 
L 212.758434 177.604992 
L 212.867962 177.4918 
L 213.053812 177.386694 
L 213.164332 177.241161 
L 213.304587 177.136055 
L 213.378927 177.071374 
L 213.532068 176.966267 
L 213.64011 176.901586 
L 213.729318 176.796479 
L 213.826952 176.691373 
L 213.925081 176.586266 
L 214.0356 176.448819 
L 214.140668 176.343712 
L 214.251683 176.222435 
L 214.34783 176.117328 
L 214.435056 176.004137 
L 214.553504 175.89903 
L 214.646678 175.818179 
L 214.784951 175.713072 
L 214.894479 175.607965 
L 215.015901 175.502859 
L 215.104614 175.413922 
L 215.258746 175.308816 
L 215.365796 175.236049 
L 215.498618 175.130943 
L 215.600712 175.042006 
L 215.824228 174.9369 
L 215.917402 174.823708 
L 215.934748 174.823708 
L 216.046258 174.718601 
L 216.156777 174.645835 
L 216.28266 174.540728 
L 216.392188 174.459877 
L 216.525505 174.35477 
L 216.63206 174.265834 
L 216.804529 174.160727 
L 216.86648 174.120302 
L 217.019125 174.015195 
L 217.117254 173.918173 
L 217.31153 173.813067 
L 217.414616 173.756471 
L 217.572713 173.651364 
L 217.678276 173.554343 
L 217.837364 173.449236 
L 217.931529 173.368385 
L 218.059889 173.263278 
L 218.157028 173.158171 
L 218.259122 173.053065 
L 218.345852 172.972213 
L 218.494037 172.867107 
L 218.603069 172.729659 
L 218.762158 172.624553 
L 218.851366 172.511361 
L 219.069927 172.406254 
L 219.17549 172.301148 
L 219.315745 172.196041 
L 219.426265 172.082849 
L 219.557599 171.977742 
L 219.667623 171.904976 
L 219.820268 171.79987 
L 219.929301 171.710933 
L 220.063609 171.605826 
L 220.173633 171.444124 
L 220.325287 171.339017 
L 220.431346 171.20157 
L 220.580026 171.096463 
L 220.667252 170.983271 
L 220.802056 170.878165 
L 220.907124 170.813484 
L 221.066708 170.708377 
L 221.15889 170.5871 
L 221.274365 170.481993 
L 221.380424 170.401142 
L 221.537034 170.296036 
L 221.640119 170.215184 
L 221.798712 170.110078 
L 221.907744 170.037311 
L 222.057416 169.932205 
L 222.159015 169.835183 
L 222.341396 169.730076 
L 222.45142 169.649225 
L 222.57879 169.544118 
L 222.680388 169.471352 
L 222.851866 169.366246 
L 222.95396 169.285394 
L 223.079843 169.180288 
L 223.190858 169.083266 
L 223.339043 168.978159 
L 223.437668 168.897308 
L 223.565038 168.792201 
L 223.673575 168.670925 
L 223.83415 168.565818 
L 223.941695 168.387945 
L 224.071048 168.282838 
L 224.174628 168.201987 
L 224.384268 168.09688 
L 224.493796 167.967518 
L 224.559711 167.862412 
L 224.66577 167.78156 
L 224.805034 167.684539 
L 224.909111 167.555177 
L 224.992868 167.45007 
L 225.088519 167.361134 
L 225.246616 167.256027 
L 225.352675 167.102409 
L 225.536543 166.997303 
L 225.633681 166.859856 
L 225.771954 166.762834 
L 225.863145 166.633472 
L 226.043048 166.528365 
L 226.150099 166.431344 
L 226.248228 166.326237 
L 226.313647 166.285811 
L 226.485621 166.180705 
L 226.59168 166.091768 
L 226.780009 165.986662 
L 226.888546 165.897725 
L 227.056059 165.792619 
L 227.166579 165.695597 
L 227.31972 165.59049 
L 227.428752 165.453043 
L 227.53382 165.347936 
L 227.644339 165.234745 
L 227.761797 165.129638 
L 227.85497 165.032616 
L 227.990269 164.92751 
L 228.094346 164.846658 
L 228.246991 164.741552 
L 228.356519 164.62836 
L 228.504209 164.523253 
L 228.603825 164.442402 
L 228.733672 164.337295 
L 228.838244 164.264529 
L 228.95818 164.159422 
L 229.061761 164.046231 
L 229.241169 163.941124 
L 229.34921 163.779421 
L 229.494917 163.674315 
L 229.598498 163.577293 
L 229.74817 163.472187 
L 229.848777 163.38325 
L 229.986555 163.278143 
L 230.091127 163.164952 
L 230.203133 163.059845 
L 230.310183 162.970909 
L 230.405338 162.865802 
L 230.515362 162.760695 
L 230.64521 162.655588 
L 230.740365 162.542397 
L 230.882108 162.43729 
L 230.981228 162.307928 
L 231.125448 162.210906 
L 231.21763 162.1058 
L 231.360859 162.000693 
L 231.461467 161.911757 
L 231.648309 161.80665 
L 231.751889 161.669203 
L 231.918907 161.564096 
L 232.023975 161.467074 
L 232.126069 161.361968 
L 232.235101 161.256861 
L 232.38626 161.151754 
L 232.496779 161.078988 
L 232.654381 160.973882 
L 232.76044 160.84452 
L 232.922997 160.739413 
L 233.029056 160.642391 
L 233.266945 160.54537 
L 233.359623 160.456433 
L 233.59206 160.351327 
L 233.69911 160.205794 
L 233.77345 160.108773 
L 233.882483 160.027922 
L 234.054952 159.922815 
L 234.15209 159.809623 
L 234.264097 159.704516 
L 234.358261 159.639835 
L 234.523296 159.534729 
L 234.579299 159.510473 
L 234.716086 159.405367 
L 234.821153 159.324515 
L 234.949514 159.219409 
L 235.051608 159.122387 
L 235.177491 159.01728 
L 235.287019 158.879833 
L 235.444621 158.774726 
L 235.554149 158.65345 
L 235.701343 158.548343 
L 235.800463 158.459406 
L 236.004156 158.3543 
L 236.104267 158.208767 
L 236.268807 158.103661 
L 236.370901 158.014724 
L 236.512148 157.909618 
L 236.622171 157.844937 
L 236.800588 157.73983 
L 236.891779 157.683234 
L 237.015184 157.586213 
L 237.111826 157.489191 
L 237.310067 157.384084 
L 237.405223 157.270892 
L 237.585622 157.165786 
L 237.666901 157.052594 
L 237.862168 156.947487 
L 237.965749 156.850466 
L 238.088658 156.745359 
L 238.199673 156.664508 
L 238.318122 156.559401 
L 238.420712 156.486635 
L 238.534204 156.381528 
L 238.62936 156.333017 
L 238.76119 156.227911 
L 238.865762 156.130889 
L 239.025842 156.025783 
L 239.132396 155.88025 
L 239.317256 155.775144 
L 239.422819 155.686207 
L 239.535321 155.5811 
L 239.629981 155.451738 
L 239.784609 155.346632 
L 239.88026 155.21727 
L 240.084448 155.112163 
L 240.159284 155.039397 
L 240.287645 154.93429 
L 240.396677 154.829183 
L 240.507196 154.724077 
L 240.61722 154.610885 
L 240.841728 154.505778 
L 240.946796 154.433012 
L 241.068714 154.335991 
L 241.171799 154.166203 
L 241.386395 154.061096 
L 241.478081 153.947904 
L 241.663436 153.842798 
L 241.759087 153.753861 
L 241.972692 153.648755 
L 242.078751 153.551733 
L 242.218015 153.446626 
L 242.327543 153.284924 
L 242.442523 153.179817 
L 242.52281 153.098966 
L 242.665048 152.993859 
L 242.737902 152.904923 
L 242.871714 152.799816 
L 242.972817 152.670454 
L 243.138348 152.565347 
L 243.234495 152.460241 
L 243.428771 152.355134 
L 243.525909 152.258112 
L 243.701848 152.153006 
L 243.801959 152.064069 
L 243.916443 151.958963 
L 244.02052 151.861941 
L 244.226195 151.756834 
L 244.322342 151.692153 
L 244.525043 151.587047 
L 244.631597 151.490025 
L 244.923011 151.384918 
L 245.021636 151.295982 
L 245.136616 151.190875 
L 245.232763 151.110024 
L 245.358646 151.004917 
L 245.447358 150.843215 
L 245.624784 150.738108 
L 245.706063 150.665342 
L 245.81113 150.560235 
L 245.905295 150.487469 
L 246.043568 150.382362 
L 246.137732 150.269171 
L 246.303263 150.164064 
L 246.401888 150.058957 
L 246.50646 149.953851 
L 246.614501 149.92151 
L 246.808777 149.816403 
L 246.906411 149.743637 
L 247.078385 149.638531 
L 247.18147 149.509168 
L 247.326682 149.404062 
L 247.437201 149.266615 
L 247.594802 149.161508 
L 247.689462 149.072572 
L 247.821293 148.967465 
L 247.929334 148.854273 
L 248.070085 148.749166 
L 248.169205 148.627889 
L 248.31293 148.522783 
L 248.409077 148.401506 
L 248.556271 148.296399 
L 248.664312 148.223633 
L 248.77384 148.118526 
L 248.881386 148.02959 
L 249.051873 147.924483 
L 249.150002 147.827462 
L 249.346756 147.722355 
L 249.445876 147.601078 
L 249.544997 147.495971 
L 249.646595 147.374694 
L 249.732334 147.269588 
L 249.836411 147.164481 
L 249.998968 147.059374 
L 250.10354 146.938097 
L 250.218024 146.832991 
L 250.314667 146.727884 
L 250.43262 146.622777 
L 250.537192 146.525756 
L 250.684386 146.420649 
L 250.789454 146.347883 
L 250.907903 146.242776 
L 251.004545 146.129585 
L 251.178501 146.024478 
L 251.287038 145.911286 
L 251.440179 145.806179 
L 251.550203 145.684902 
L 251.671625 145.579796 
L 251.774215 145.442349 
L 251.918931 145.337242 
L 252.026972 145.215965 
L 252.166732 145.110858 
L 252.275764 145.021922 
L 252.498785 144.916815 
L 252.598401 144.819794 
L 252.696531 144.722772 
L 252.807546 144.585325 
L 252.960687 144.480218 
L 253.068232 144.375111 
L 253.139599 144.270005 
L 253.244667 144.156813 
L 253.381948 144.051706 
L 253.486025 143.954685 
L 253.610917 143.849578 
L 253.72094 143.736386 
L 253.867143 143.63128 
L 253.973697 143.534258 
L 254.135264 143.429151 
L 254.235375 143.324045 
L 254.37117 143.218938 
L 254.430643 143.178512 
L 254.593696 143.081491 
L 254.702232 142.992554 
L 254.830098 142.887448 
L 254.926245 142.790426 
L 255.205269 142.68532 
L 255.302407 142.564043 
L 255.451583 142.458936 
L 255.557642 142.337659 
L 255.786114 142.232552 
L 255.882261 142.11936 
L 256.046801 142.014254 
L 256.157816 141.820211 
L 256.286672 141.715104 
L 256.370429 141.658508 
L 256.490861 141.553401 
L 256.597415 141.48872 
L 256.742626 141.383614 
L 256.851163 141.270422 
L 256.960691 141.165315 
L 257.071706 140.987442 
L 257.219891 140.882336 
L 257.304639 140.793399 
L 257.430027 140.688293 
L 257.532616 140.583186 
L 257.668907 140.478079 
L 257.777939 140.340632 
L 257.897379 140.235525 
L 257.975684 140.138504 
L 258.186315 140.033397 
L 258.244796 139.944461 
L 258.433621 139.839354 
L 258.537697 139.685737 
L 258.678944 139.58063 
L 258.788968 139.467438 
L 258.931205 139.362331 
L 259.040238 139.24914 
L 259.194866 139.144033 
L 259.303403 139.047011 
L 259.446632 138.941905 
L 259.551699 138.804458 
L 259.721195 138.699351 
L 259.83221 138.594244 
L 259.909524 138.489137 
L 260.015087 138.367861 
L 260.149891 138.262754 
L 260.258923 138.165732 
L 260.363 138.060626 
L 260.470546 137.955519 
L 260.54786 137.850412 
L 260.655405 137.753391 
L 260.768898 137.648284 
L 260.878426 137.518922 
L 261.012734 137.413815 
L 261.114828 137.357219 
L 261.260535 137.252113 
L 261.368577 137.147006 
L 261.570287 137.041899 
L 261.679319 136.936793 
L 261.846337 136.831686 
L 261.952396 136.702324 
L 262.080757 136.597217 
L 262.118423 136.556792 
L 262.325584 136.451685 
L 262.434617 136.362749 
L 262.512426 136.257642 
L 262.61452 136.201046 
L 262.717606 136.095939 
L 262.817222 135.998918 
L 262.971354 135.893811 
L 263.072457 135.756364 
L 263.232536 135.651257 
L 263.339586 135.54615 
L 263.427308 135.449129 
L 263.529402 135.344022 
L 263.676596 135.238916 
L 263.776707 135.133809 
L 263.913989 135.028702 
L 264.009145 134.947851 
L 264.20243 134.842744 
L 264.304524 134.745723 
L 264.398192 134.648701 
L 264.492357 134.559765 
L 264.620222 134.454658 
L 264.72975 134.357636 
L 264.859598 134.25253 
L 264.967144 134.163593 
L 265.156464 134.058487 
L 265.261531 133.945295 
L 265.379485 133.840188 
L 265.482074 133.759337 
L 265.599532 133.65423 
L 265.694688 133.557209 
L 265.887477 133.452102 
L 265.991058 133.330825 
L 266.109011 133.225718 
L 266.202184 133.128697 
L 266.324598 133.02359 
L 266.420745 132.910398 
L 266.55307 132.805292 
L 266.66359 132.635504 
L 266.813262 132.530397 
L 266.920807 132.384865 
L 267.082869 132.279758 
L 267.19091 132.166566 
L 267.319271 132.06146 
L 267.424835 131.988694 
L 267.555178 131.883587 
L 267.660246 131.76231 
L 267.774234 131.657203 
L 267.882771 131.576352 
L 268.036408 131.471245 
L 268.132059 131.374224 
L 268.287182 131.269117 
L 268.386798 131.13167 
L 268.565215 131.026563 
L 268.675239 130.897201 
L 268.772377 130.792095 
L 268.876949 130.654647 
L 268.996389 130.557626 
L 269.103935 130.452519 
L 269.184222 130.347412 
L 269.281856 130.250391 
L 269.399313 130.145284 
L 269.500912 130.048263 
L 269.731862 129.943156 
L 269.842877 129.805709 
L 269.925147 129.700602 
L 270.028728 129.58741 
L 270.208632 129.482304 
L 270.307257 129.377197 
L 270.519374 129.27209 
L 270.627416 129.158898 
L 270.759246 129.053792 
L 270.838046 128.989111 
L 271.002091 128.884004 
L 271.10815 128.811238 
L 271.208261 128.706131 
L 271.313824 128.536344 
L 271.431778 128.431237 
L 271.539819 128.269534 
L 271.676605 128.164428 
L 271.779195 128.002725 
L 271.911025 127.897618 
L 272.017579 127.816767 
L 272.165269 127.71166 
L 272.26092 127.598469 
L 272.416539 127.501447 
L 272.52458 127.412511 
L 272.630639 127.307404 
L 272.720839 127.178042 
L 272.850191 127.072935 
L 272.927009 127.000169 
L 273.084611 126.895062 
L 273.19513 126.822296 
L 273.301685 126.725275 
L 273.393867 126.636338 
L 273.580709 126.531231 
L 273.684785 126.41804 
L 273.829501 126.312933 
L 273.913258 126.223997 
L 274.048061 126.11889 
L 274.135287 126.029953 
L 274.294871 125.924847 
L 274.403904 125.83591 
L 274.556549 125.730804 
L 274.665086 125.601442 
L 274.768171 125.496335 
L 274.878195 125.407399 
L 275.038274 125.302292 
L 275.103198 125.245696 
L 275.223134 125.140589 
L 275.331671 125.051653 
L 275.470935 124.946546 
L 275.58195 124.809099 
L 275.703868 124.703992 
L 275.811909 124.615056 
L 275.945722 124.509949 
L 276.054754 124.388672 
L 276.212851 124.283566 
L 276.323371 124.186544 
L 276.43835 124.081437 
L 276.537471 124.000586 
L 276.691603 123.895479 
L 276.795184 123.814628 
L 276.897774 123.717607 
L 277.008293 123.620585 
L 277.179771 123.515478 
L 277.280874 123.402287 
L 277.381977 123.29718 
L 277.481593 123.192073 
L 277.574766 123.086966 
L 277.683303 122.949519 
L 277.839913 122.844413 
L 277.950432 122.723136 
L 278.093166 122.618029 
L 278.201703 122.496752 
L 278.299336 122.391645 
L 278.403908 122.318879 
L 278.51641 122.213773 
L 278.615035 122.124836 
L 278.77115 122.019729 
L 278.877704 121.890367 
L 278.986737 121.785261 
L 279.064546 121.672069 
L 279.26923 121.566962 
L 279.380245 121.478026 
L 279.464497 121.381004 
L 279.573034 121.259727 
L 279.69297 121.154621 
L 279.785647 121.081854 
L 279.924416 120.976748 
L 280.028988 120.863556 
L 280.149419 120.758449 
L 280.258452 120.596747 
L 280.410601 120.49164 
L 280.514678 120.370363 
L 280.737699 120.265256 
L 280.847227 120.143979 
L 280.954277 120.038873 
L 281.057858 119.925681 
L 281.168377 119.820574 
L 281.253621 119.731638 
L 281.363149 119.626531 
L 281.473668 119.505254 
L 281.621853 119.400148 
L 281.707592 119.335467 
L 281.890965 119.23036 
L 281.999502 119.117168 
L 282.129845 119.012061 
L 282.234417 118.91504 
L 282.413825 118.809933 
L 282.523353 118.696741 
L 282.684424 118.591635 
L 282.794448 118.478443 
L 282.924295 118.373336 
L 283.026389 118.292485 
L 283.156733 118.187378 
L 283.266261 118.074186 
L 283.399082 117.96908 
L 283.505637 117.823547 
L 283.655309 117.718441 
L 283.751951 117.637589 
L 283.898154 117.540568 
L 283.995292 117.475887 
L 284.167761 117.37078 
L 284.261926 117.281844 
L 284.423987 117.176737 
L 284.527568 117.05546 
L 284.669806 116.950353 
L 284.780325 116.877587 
L 284.877463 116.772481 
L 284.987983 116.626948 
L 285.141124 116.521842 
L 285.251147 116.42482 
L 285.395863 116.319713 
L 285.498948 116.158011 
L 285.614919 116.052904 
L 285.725934 115.891202 
L 285.860242 115.786095 
L 285.959363 115.680988 
L 286.085246 115.575882 
L 286.190313 115.422264 
L 286.296372 115.317157 
L 286.405405 115.203966 
L 286.510472 115.098859 
L 286.616036 115.001837 
L 286.726555 114.896731 
L 286.833109 114.799709 
L 286.983277 114.694602 
L 287.090327 114.613751 
L 287.230582 114.508644 
L 287.331685 114.371197 
L 287.476896 114.266091 
L 287.569574 114.152899 
L 287.691988 114.047792 
L 287.792595 113.958856 
L 287.930372 113.853749 
L 288.027015 113.789068 
L 288.235168 113.683961 
L 288.328341 113.58694 
L 288.525095 113.481833 
L 288.634623 113.400982 
L 288.734735 113.295875 
L 288.835838 113.215024 
L 289.011776 113.109917 
L 289.122296 113.020981 
L 289.247187 112.915874 
L 289.355724 112.843108 
L 289.464261 112.738001 
L 289.55793 112.681405 
L 289.777977 112.576299 
L 289.87462 112.463107 
L 290.029743 112.358 
L 290.139271 112.285234 
L 290.291421 112.180127 
L 290.399958 112.075021 
L 290.551612 111.969914 
L 290.660149 111.848637 
L 290.826176 111.74353 
L 290.865328 111.662679 
L 291.088845 111.557572 
L 291.187965 111.436295 
L 291.331194 111.331189 
L 291.441218 111.242252 
L 291.520514 111.137146 
L 291.617157 111.056294 
L 291.845629 110.951188 
L 291.949706 110.878421 
L 292.06419 110.773315 
L 292.170744 110.684378 
L 292.403677 110.579272 
L 292.514196 110.474165 
L 292.649496 110.369058 
L 292.732261 110.263952 
L 292.939919 110.158845 
L 293.050934 110.077994 
L 293.208535 109.972887 
L 293.308151 109.86778 
L 293.435521 109.762674 
L 293.543066 109.673737 
L 293.618398 109.568631 
L 293.729413 109.455439 
L 293.879085 109.350332 
L 293.97424 109.2048 
L 294.07683 109.107778 
L 294.171986 109.043097 
L 294.36081 108.93799 
L 294.449523 108.824799 
L 294.589778 108.719692 
L 294.698811 108.614585 
L 294.841048 108.509479 
L 294.942151 108.420542 
L 295.102231 108.315436 
L 295.210768 108.250755 
L 295.329217 108.145648 
L 295.440231 108.040541 
L 295.551742 107.935434 
L 295.625587 107.886924 
L 295.811437 107.797987 
L 295.916505 107.620114 
L 296.053291 107.515008 
L 296.163315 107.401816 
L 296.243107 107.296709 
L 296.352139 107.183517 
L 296.530556 107.078411 
L 296.631163 106.940964 
L 296.891354 106.835857 
L 296.972138 106.763091 
L 297.169387 106.657984 
L 297.271481 106.552877 
L 297.445438 106.447771 
L 297.54654 106.358834 
L 297.723966 106.253728 
L 297.833494 106.205217 
L 297.936579 106.10011 
L 298.044125 105.946493 
L 298.222046 105.841386 
L 298.315219 105.736279 
L 298.402941 105.631173 
L 298.51346 105.566492 
L 298.680478 105.461385 
L 298.78505 105.364363 
L 298.946121 105.259257 
L 299.055649 105.15415 
L 299.185001 105.049043 
L 299.292051 104.952022 
L 299.457087 104.846915 
L 299.564137 104.733723 
L 299.6697 104.628617 
L 299.75197 104.515425 
L 299.944264 104.410318 
L 300.03595 104.353722 
L 300.2332 104.248616 
L 300.30754 104.143509 
L 300.533534 104.038402 
L 300.622743 103.989891 
L 300.880456 103.884785 
L 300.984532 103.787763 
L 301.218952 103.682657 
L 301.319559 103.59372 
L 301.550014 103.488613 
L 301.655082 103.423932 
L 301.888015 103.318826 
L 301.990605 103.229889 
L 302.128878 103.124783 
L 302.224033 103.011591 
L 302.431195 102.906484 
L 302.491658 102.841803 
L 302.637861 102.736696 
L 302.736486 102.655845 
L 302.890618 102.550738 
L 302.94117 102.494143 
L 303.16766 102.389036 
L 303.268763 102.300099 
L 303.409018 102.194993 
L 303.516068 102.089886 
L 303.738593 101.984779 
L 303.841183 101.887758 
L 304.0196 101.782651 
L 304.108313 101.7018 
L 304.292677 101.596693 
L 304.396257 101.523927 
L 304.54692 101.41882 
L 304.647032 101.346054 
L 304.845769 101.240948 
L 304.95381 101.152011 
L 305.174353 101.046904 
L 305.283385 100.933713 
L 305.461802 100.828606 
L 305.55448 100.780095 
L 305.802281 100.674989 
L 305.896445 100.602222 
L 306.09419 100.497116 
L 306.203223 100.392009 
L 306.321176 100.286902 
L 306.42327 100.214136 
L 306.583845 100.109029 
L 306.6904 100.012008 
L 306.886658 99.906901 
L 306.995195 99.817965 
L 307.171134 99.712858 
L 307.273228 99.640092 
L 307.391677 99.534985 
L 307.500709 99.51073 
L 307.754953 99.405623 
L 307.853082 99.300517 
L 307.988877 99.19541 
L 308.098405 99.098388 
L 308.197526 98.993282 
L 308.282769 98.944771 
L 308.5385 98.839664 
L 308.647532 98.774983 
L 308.821489 98.669876 
L 308.910697 98.58094 
L 309.04104 98.475833 
L 309.133718 98.403067 
L 309.32056 98.297961 
L 309.422654 98.217109 
L 309.659552 98.112003 
L 309.76908 97.982641 
L 309.920239 97.877534 
L 310.001022 97.812853 
L 310.256257 97.707746 
L 310.340509 97.63498 
L 310.492659 97.529873 
L 310.6007 97.424767 
L 310.772179 97.31966 
L 310.88022 97.271149 
L 311.083912 97.166042 
L 311.192945 97.085191 
L 311.34113 96.980084 
L 311.432816 96.866893 
L 311.685573 96.761786 
L 311.791137 96.713275 
L 312.019114 96.608169 
L 312.128642 96.551573 
L 312.313997 96.446466 
L 312.422534 96.38987 
L 312.552877 96.284763 
L 312.661414 96.195827 
L 312.861142 96.09072 
L 312.969679 95.977528 
L 313.19716 95.872422 
L 313.274969 95.815826 
L 313.519301 95.710719 
L 313.628829 95.646038 
L 313.709612 95.540932 
L 313.811211 95.492421 
L 313.911818 95.387314 
L 314.020851 95.298378 
L 314.25874 95.193271 
L 314.355382 95.12859 
L 314.546684 95.023483 
L 314.654726 94.942632 
L 314.952087 94.837525 
L 315.042782 94.789014 
L 315.216739 94.683908 
L 315.322797 94.586886 
L 315.508153 94.48178 
L 315.610742 94.400928 
L 315.811461 94.295822 
L 315.922476 94.1988 
L 316.092467 94.093693 
L 316.197535 93.996672 
L 316.457231 93.891565 
L 316.548421 93.843054 
L 316.704041 93.737948 
L 316.808613 93.665182 
L 316.996446 93.560075 
L 317.095566 93.471138 
L 317.252672 93.366032 
L 317.3622 93.309436 
L 317.509394 93.204329 
L 317.619418 93.091137 
L 317.998553 92.986031 
L 318.103125 92.95369 
L 318.265683 92.848583 
L 318.36183 92.791988 
L 318.555114 92.686881 
L 318.665138 92.589859 
L 318.87676 92.484753 
L 318.982323 92.428157 
L 319.178086 92.32305 
L 319.266799 92.266454 
L 319.493785 92.161348 
L 319.561682 92.120922 
L 319.765375 92.015815 
L 319.870442 91.934964 
L 320.035478 91.829857 
L 320.139554 91.740921 
L 320.343742 91.635814 
L 320.408171 91.579218 
L 320.611863 91.474112 
L 320.713957 91.39326 
L 320.947881 91.288154 
L 321.051462 91.223473 
L 321.256146 91.118366 
L 321.321565 91.07794 
L 321.615953 90.972834 
L 321.715074 90.924323 
L 321.970309 90.819216 
L 322.059517 90.697939 
L 322.225544 90.592832 
L 322.330611 90.495811 
L 322.445096 90.390704 
L 322.555615 90.309853 
L 322.809363 90.204746 
L 322.906501 90.14815 
L 323.071537 90.043044 
L 323.176109 89.986448 
L 323.359977 89.881341 
L 323.44869 89.824745 
L 323.706403 89.719639 
L 323.815931 89.638787 
L 323.995339 89.533681 
L 324.095451 89.48517 
L 324.350686 89.380063 
L 324.44039 89.323467 
L 324.597991 89.226446 
L 324.70851 89.153679 
L 324.837367 89.048573 
L 324.922611 88.983892 
L 325.09062 88.878785 
L 325.188253 88.830274 
L 325.459348 88.725168 
L 325.552025 88.611976 
L 325.72846 88.506869 
L 325.83551 88.417933 
L 326.095701 88.312826 
L 326.202751 88.2724 
L 326.446587 88.167294 
L 326.551159 88.070272 
L 326.731063 87.965165 
L 326.841086 87.900484 
L 327.155298 87.795378 
L 327.258879 87.722612 
L 327.629589 87.617505 
L 327.740604 87.552824 
L 327.967094 87.455802 
L 328.063737 87.374951 
L 328.475582 87.269844 
L 328.5187 87.245589 
L 328.843319 87.140482 
L 328.927571 87.108142 
L 329.224437 87.003035 
L 329.334461 86.930269 
L 329.590687 86.825162 
L 329.700711 86.760481 
L 329.924227 86.655375 
L 330.03326 86.574523 
L 330.209694 86.469417 
L 330.30931 86.412821 
L 330.575944 86.307714 
L 330.681012 86.259203 
L 330.809868 86.154097 
L 330.920387 86.073245 
L 331.180083 85.968139 
L 331.286142 85.879202 
L 331.582512 85.774096 
L 331.659826 85.725585 
L 332.064237 85.620478 
L 332.162366 85.580052 
L 332.39976 85.474946 
L 332.488473 85.41835 
L 332.664907 85.313243 
L 332.767001 85.240477 
L 332.960781 85.13537 
L 333.051972 85.08686 
L 333.266072 84.981753 
L 333.374114 84.892816 
L 333.537167 84.78771 
L 333.620923 84.706858 
L 333.863768 84.601752 
L 333.942569 84.5209 
L 334.271153 84.415794 
L 334.376221 84.318772 
L 334.553151 84.213666 
L 334.658714 84.165155 
L 334.887187 84.060048 
L 334.948146 84.019622 
L 335.21478 83.922601 
L 335.291103 83.866005 
L 335.600854 83.760898 
L 335.702948 83.696217 
L 335.863027 83.591111 
L 335.925969 83.52643 
L 336.122227 83.421323 
L 336.183186 83.380897 
L 336.423058 83.275791 
L 336.524656 83.22728 
L 336.743217 83.122173 
L 336.851754 83.049407 
L 337.135238 82.9443 
L 337.240306 82.863449 
L 337.444494 82.758342 
L 337.554517 82.645151 
L 337.765644 82.540044 
L 337.86526 82.467278 
L 338.123469 82.362171 
L 338.233988 82.305575 
L 338.492197 82.200468 
L 338.545722 82.103447 
L 338.874801 81.99834 
L 338.979374 81.941744 
L 339.195456 81.836638 
L 339.303497 81.755786 
L 339.611266 81.65068 
L 339.712865 81.585999 
L 339.91061 81.480892 
L 340.002296 81.408126 
L 340.391344 81.303019 
L 340.469154 81.230253 
L 340.711503 81.125146 
L 340.818553 81.06855 
L 340.997961 80.963444 
L 341.10848 80.898763 
L 341.375114 80.793656 
L 341.461349 80.75323 
L 341.706672 80.648124 
L 341.802323 80.583443 
L 341.983714 80.478336 
L 342.094728 80.42174 
L 342.353928 80.316633 
L 342.44611 80.243867 
L 342.670123 80.13876 
L 342.767756 80.074079 
L 342.976405 79.968973 
L 343.054214 79.920462 
L 343.262863 79.815355 
L 343.360496 79.710249 
L 343.528505 79.605142 
L 343.597394 79.540461 
L 343.882861 79.435354 
L 343.978017 79.394929 
L 344.316513 79.289822 
L 344.415138 79.241311 
L 344.677311 79.136204 
L 344.759581 79.071523 
L 345.108485 78.966417 
L 345.202154 78.893651 
L 345.4787 78.788544 
L 345.569891 78.715778 
L 345.955469 78.610671 
L 345.955469 78.602586 
L 346.051616 78.602586 
L 346.383174 78.497479 
L 346.493693 78.416628 
L 346.683509 78.311521 
L 346.792541 78.254925 
L 347.072556 78.149819 
L 347.154826 78.109393 
L 347.469534 78.004286 
L 347.556759 77.94769 
L 347.881379 77.842584 
L 347.944816 77.802158 
L 348.302145 77.697051 
L 348.393831 77.648541 
L 348.562832 77.543434 
L 348.661457 77.503008 
L 348.935029 77.397902 
L 349.034645 77.341306 
L 349.305739 77.236199 
L 349.412294 77.203859 
L 349.538177 77.098752 
L 349.641758 77.050241 
L 349.900958 76.945134 
L 349.988184 76.896624 
L 350.326184 76.791517 
L 350.378222 76.734921 
L 350.695408 76.629814 
L 350.757854 76.613644 
L 351.025479 76.508538 
L 351.103784 76.476197 
L 351.430881 76.37109 
L 351.494318 76.330665 
L 351.859577 76.225558 
L 351.933422 76.144707 
L 352.202534 76.0396 
L 352.239208 76.02343 
L 352.522197 75.918323 
L 352.629743 75.853642 
L 352.88696 75.748535 
L 352.962292 75.72428 
L 353.205137 75.619173 
L 353.314169 75.530237 
L 353.536695 75.42513 
L 353.621443 75.360449 
L 353.82117 75.255342 
L 353.9193 75.214917 
L 354.1334 75.10981 
L 354.237972 75.09364 
L 354.412424 74.988533 
L 354.512535 74.940022 
L 354.817826 74.834916 
L 354.853014 74.79449 
L 355.266842 74.689383 
L 355.364475 74.632788 
L 355.826377 74.527681 
L 355.918559 74.471085 
L 356.26994 74.365978 
L 356.327926 74.333638 
L 356.86615 74.228531 
L 356.948915 74.188105 
L 357.298315 74.082999 
L 357.405365 74.026403 
L 357.78797 73.921296 
L 357.866275 73.897041 
L 358.143316 73.791934 
L 358.249871 73.727253 
L 358.558631 73.622146 
L 358.58688 73.589806 
L 358.952635 73.484699 
L 359.034905 73.436188 
L 359.481938 73.331082 
L 359.571642 73.242145 
L 359.942848 73.137039 
L 360.045933 73.056187 
L 360.313558 72.951081 
L 360.424573 72.90257 
L 360.667914 72.797463 
L 360.776451 72.748952 
L 360.950407 72.643846 
L 361.058448 72.554909 
L 361.336481 72.457888 
L 361.443035 72.336611 
L 361.736927 72.231504 
L 361.83803 72.166823 
L 362.099708 72.061716 
L 362.207749 72.005121 
L 362.47587 71.900014 
L 362.579947 71.851503 
L 362.730114 71.746396 
L 362.837164 71.697886 
L 363.15435 71.592779 
L 363.2163 71.520013 
L 363.575611 71.414906 
L 363.659368 71.35831 
L 363.995882 71.253204 
L 364.103923 71.172352 
L 364.395833 71.067246 
L 364.438455 71.002565 
L 364.666927 70.897458 
L 364.750188 70.840862 
L 365.017813 70.735755 
L 365.123377 70.638734 
L 365.350363 70.533627 
L 365.452457 70.468946 
L 365.641281 70.363839 
L 365.746844 70.291073 
L 365.941616 70.185967 
L 366.039745 70.121285 
L 366.175044 70.016179 
L 366.26574 69.975753 
L 366.531878 69.870646 
L 366.637441 69.814051 
L 366.954627 69.708944 
L 367.057712 69.611922 
L 367.244554 69.506816 
L 367.353586 69.43405 
L 367.662842 69.328943 
L 367.765927 69.248092 
L 367.914608 69.142985 
L 368.021162 69.062134 
L 368.162409 68.965112 
L 368.264007 68.892346 
L 368.417148 68.787239 
L 368.514286 68.649792 
L 368.528163 68.649792 
L 368.647108 68.544685 
L 368.739785 68.463834 
L 369.03566 68.358727 
L 369.135772 68.294046 
L 369.374156 68.18894 
L 369.446514 68.132344 
L 369.796905 68.027237 
L 369.893547 67.954471 
L 370.178023 67.849364 
L 370.209741 67.825109 
L 370.441188 67.720002 
L 370.549229 67.679576 
L 370.777206 67.57447 
L 370.833209 67.542129 
L 371.054247 67.437023 
L 371.163775 67.372342 
L 371.657891 67.267235 
L 371.765436 67.234894 
L 372.097985 67.129788 
L 372.19215 67.097447 
L 373.112483 66.992341 
L 373.19624 66.97617 
L 373.581818 66.96 
L 373.581818 66.96 
" clip-path="url(#pe598f86472)" style="fill: none; stroke: #1f77b4; stroke-width: 1.5; stroke-linecap: square"/>
   </g>
   <g id="line2d_26">
    <path d="M 69.218182 369.36 
L 373.581818 66.96 
" clip-path="url(#pe598f86472)" style="fill: none; stroke-dasharray: 5.55,2.4; stroke-dashoffset: 0; stroke: #808080; stroke-width: 1.5"/>
   </g>
   <g id="patch_3">
    <path d="M 54 384.48 
L 54 51.84 
" style="fill: none; stroke: #000000; stroke-width: 0.8; stroke-linejoin: miter; stroke-linecap: square"/>
   </g>
   <g id="patch_4">
    <path d="M 388.8 384.48 
L 388.8 51.84 
" style="fill: none; stroke: #000000; stroke-width: 0.8; stroke-linejoin: miter; stroke-linecap: square"/>
   </g>
   <g id="patch_5">
    <path d="M 54 384.48 
L 388.8 384.48 
" style="fill: none; stroke: #000000; stroke-width: 0.8; stroke-linejoin: miter; stroke-linecap: square"/>
   </g>
   <g id="patch_6">
    <path d="M 54 51.84 
L 388.8 51.84 
" style="fill: none; stroke: #000000; stroke-width: 0.8; stroke-linejoin: miter; stroke-linecap: square"/>
   </g>
   <g id="text_15">
    <!-- ROC Curve - Naive Bayes -->
    <g transform="translate(145.58625 45.84) scale(0.12 -0.12)">
     <defs>
      <path id="DejaVuSans-4f" d="M 2522 4238 
Q 1834 4238 1429 3725 
Q 1025 3213 1025 2328 
Q 1025 1447 1429 934 
Q 1834 422 2522 422 
Q 3209 422 3611 934 
Q 4013 1447 4013 2328 
Q 4013 3213 3611 3725 
Q 3209 4238 2522 4238 
z
M 2522 4750 
Q 3503 4750 4090 4092 
Q 4678 3434 4678 2328 
Q 4678 1225 4090 567 
Q 3503 -91 2522 -91 
Q 1538 -91 948 565 
Q 359 1222 359 2328 
Q 359 3434 948 4092 
Q 1538 4750 2522 4750 
z
" transform="scale(0.015625)"/>
      <path id="DejaVuSans-43" d="M 4122 4306 
L 4122 3641 
Q 3803 3938 3442 4084 
Q 3081 4231 2675 4231 
Q 1875 4231 1450 3742 
Q 1025 3253 1025 2328 
Q 1025 1406 1450 917 
Q 1875 428 2675 428 
Q 3081 428 3442 575 
Q 3803 722 4122 1019 
L 4122 359 
Q 3791 134 3420 21 
Q 3050 -91 2638 -91 
Q 1578 -91 968 557 
Q 359 1206 359 2328 
Q 359 3453 968 4101 
Q 1578 4750 2638 4750 
Q 3056 4750 3426 4639 
Q 3797 4528 4122 4306 
z
" transform="scale(0.015625)"/>
      <path id="DejaVuSans-2d" d="M 313 2009 
L 1997 2009 
L 1997 1497 
L 313 1497 
L 313 2009 
z
" transform="scale(0.015625)"/>
      <path id="DejaVuSans-4e" d="M 628 4666 
L 1478 4666 
L 3547 763 
L 3547 4666 
L 4159 4666 
L 4159 0 
L 3309 0 
L 1241 3903 
L 1241 0 
L 628 0 
L 628 4666 
z
" transform="scale(0.015625)"/>
      <path id="DejaVuSans-42" d="M 1259 2228 
L 1259 519 
L 2272 519 
Q 2781 519 3026 730 
Q 3272 941 3272 1375 
Q 3272 1813 3026 2020 
Q 2781 2228 2272 2228 
L 1259 2228 
z
M 1259 4147 
L 1259 2741 
L 2194 2741 
Q 2656 2741 2882 2914 
Q 3109 3088 3109 3444 
Q 3109 3797 2882 3972 
Q 2656 4147 2194 4147 
L 1259 4147 
z
M 628 4666 
L 2241 4666 
Q 2963 4666 3353 4366 
Q 3744 4066 3744 3513 
Q 3744 3084 3544 2831 
Q 3344 2578 2956 2516 
Q 3422 2416 3680 2098 
Q 3938 1781 3938 1306 
Q 3938 681 3513 340 
Q 3088 0 2303 0 
L 628 0 
L 628 4666 
z
" transform="scale(0.015625)"/>
      <path id="DejaVuSans-79" d="M 2059 -325 
Q 1816 -950 1584 -1140 
Q 1353 -1331 966 -1331 
L 506 -1331 
L 506 -850 
L 844 -850 
Q 1081 -850 1212 -737 
Q 1344 -625 1503 -206 
L 1606 56 
L 191 3500 
L 800 3500 
L 1894 763 
L 2988 3500 
L 3597 3500 
L 2059 -325 
z
" transform="scale(0.015625)"/>
     </defs>
     <use xlink:href="#DejaVuSans-52"/>
     <use xlink:href="#DejaVuSans-4f" x="69.482422"/>
     <use xlink:href="#DejaVuSans-43" x="148.193359"/>
     <use xlink:href="#DejaVuSans-20" x="218.017578"/>
     <use xlink:href="#DejaVuSans-43" x="249.804688"/>
     <use xlink:href="#DejaVuSans-75" x="319.628906"/>
     <use xlink:href="#DejaVuSans-72" x="383.007812"/>
     <use xlink:href="#DejaVuSans-76" x="424.121094"/>
     <use xlink:href="#DejaVuSans-65" x="483.300781"/>
     <use xlink:href="#DejaVuSans-20" x="544.824219"/>
     <use xlink:href="#DejaVuSans-2d" x="576.611328"/>
     <use xlink:href="#DejaVuSans-20" x="612.695312"/>
     <use xlink:href="#DejaVuSans-4e" x="644.482422"/>
     <use xlink:href="#DejaVuSans-61" x="719.287109"/>
     <use xlink:href="#DejaVuSans-69" x="780.566406"/>
     <use xlink:href="#DejaVuSans-76" x="808.349609"/>
     <use xlink:href="#DejaVuSans-65" x="867.529297"/>
     <use xlink:href="#DejaVuSans-20" x="929.052734"/>
     <use xlink:href="#DejaVuSans-42" x="960.839844"/>
     <use xlink:href="#DejaVuSans-61" x="1029.443359"/>
     <use xlink:href="#DejaVuSans-79" x="1090.722656"/>
     <use xlink:href="#DejaVuSans-65" x="1149.902344"/>
     <use xlink:href="#DejaVuSans-73" x="1211.425781"/>
    </g>
   </g>
   <g id="legend_1">
    <g id="patch_7">
     <path d="M 61 74.518125 
L 163.86875 74.518125 
Q 165.86875 74.518125 165.86875 72.518125 
L 165.86875 58.84 
Q 165.86875 56.84 163.86875 56.84 
L 61 56.84 
Q 59 56.84 59 58.84 
L 59 72.518125 
Q 59 74.518125 61 74.518125 
z
" style="fill: #ffffff; opacity: 0.8; stroke: #cccccc; stroke-linejoin: miter"/>
    </g>
    <g id="line2d_27">
     <path d="M 63 64.938438 
L 73 64.938438 
L 83 64.938438 
" style="fill: none; stroke: #1f77b4; stroke-width: 1.5; stroke-linecap: square"/>
    </g>
    <g id="text_16">
     <!-- AUC = 0.6365 -->
     <g transform="translate(91 68.438438) scale(0.1 -0.1)">
      <defs>
       <path id="DejaVuSans-41" d="M 2188 4044 
L 1331 1722 
L 3047 1722 
L 2188 4044 
z
M 1831 4666 
L 2547 4666 
L 4325 0 
L 3669 0 
L 3244 1197 
L 1141 1197 
L 716 0 
L 50 0 
L 1831 4666 
z
" transform="scale(0.015625)"/>
       <path id="DejaVuSans-55" d="M 556 4666 
L 1191 4666 
L 1191 1831 
Q 1191 1081 1462 751 
Q 1734 422 2344 422 
Q 2950 422 3222 751 
Q 3494 1081 3494 1831 
L 3494 4666 
L 4128 4666 
L 4128 1753 
Q 4128 841 3676 375 
Q 3225 -91 2344 -91 
Q 1459 -91 1007 375 
Q 556 841 556 1753 
L 556 4666 
z
" transform="scale(0.015625)"/>
       <path id="DejaVuSans-3d" d="M 678 2906 
L 4684 2906 
L 4684 2381 
L 678 2381 
L 678 2906 
z
M 678 1631 
L 4684 1631 
L 4684 1100 
L 678 1100 
L 678 1631 
z
" transform="scale(0.015625)"/>
       <path id="DejaVuSans-33" d="M 2597 2516 
Q 3050 2419 3304 2112 
Q 3559 1806 3559 1356 
Q 3559 666 3084 287 
Q 2609 -91 1734 -91 
Q 1441 -91 1130 -33 
Q 819 25 488 141 
L 488 750 
Q 750 597 1062 519 
Q 1375 441 1716 441 
Q 2309 441 2620 675 
Q 2931 909 2931 1356 
Q 2931 1769 2642 2001 
Q 2353 2234 1838 2234 
L 1294 2234 
L 1294 2753 
L 1863 2753 
Q 2328 2753 2575 2939 
Q 2822 3125 2822 3475 
Q 2822 3834 2567 4026 
Q 2313 4219 1838 4219 
Q 1578 4219 1281 4162 
Q 984 4106 628 3988 
L 628 4550 
Q 988 4650 1302 4700 
Q 1616 4750 1894 4750 
Q 2613 4750 3031 4423 
Q 3450 4097 3450 3541 
Q 3450 3153 3228 2886 
Q 3006 2619 2597 2516 
z
" transform="scale(0.015625)"/>
       <path id="DejaVuSans-35" d="M 691 4666 
L 3169 4666 
L 3169 4134 
L 1269 4134 
L 1269 2991 
Q 1406 3038 1543 3061 
Q 1681 3084 1819 3084 
Q 2600 3084 3056 2656 
Q 3513 2228 3513 1497 
Q 3513 744 3044 326 
Q 2575 -91 1722 -91 
Q 1428 -91 1123 -41 
Q 819 9 494 109 
L 494 744 
Q 775 591 1075 516 
Q 1375 441 1709 441 
Q 2250 441 2565 725 
Q 2881 1009 2881 1497 
Q 2881 1984 2565 2268 
Q 2250 2553 1709 2553 
Q 1456 2553 1204 2497 
Q 953 2441 691 2322 
L 691 4666 
z
" transform="scale(0.015625)"/>
      </defs>
      <use xlink:href="#DejaVuSans-41"/>
      <use xlink:href="#DejaVuSans-55" x="68.408203"/>
      <use xlink:href="#DejaVuSans-43" x="141.601562"/>
      <use xlink:href="#DejaVuSans-20" x="211.425781"/>
      <use xlink:href="#DejaVuSans-3d" x="243.212891"/>
      <use xlink:href="#DejaVuSans-20" x="327.001953"/>
      <use xlink:href="#DejaVuSans-30" x="358.789062"/>
      <use xlink:href="#DejaVuSans-2e" x="422.412109"/>
      <use xlink:href="#DejaVuSans-36" x="454.199219"/>
      <use xlink:href="#DejaVuSans-33" x="517.822266"/>
      <use xlink:href="#DejaVuSans-36" x="581.445312"/>
      <use xlink:href="#DejaVuSans-35" x="645.068359"/>
     </g>
    </g>
   </g>
  </g>
 </g>
 <defs>
  <clipPath id="pe598f86472">
   <rect x="54" y="51.84" width="334.8" height="332.64"/>
  </clipPath>
 </defs>
</svg>
