<?xml version="1.0" encoding="utf-8" standalone="no"?>
<!DOCTYPE svg PUBLIC "-//W3C//DTD SVG 1.1//EN"
  "http://www.w3.org/Graphics/SVG/1.1/DTD/svg11.dtd">
<svg xmlns:xlink="http://www.w3.org/1999/xlink" width="432pt" height="432pt" viewBox="0 0 432 432" xmlns="http://www.w3.org/2000/svg" version="1.1">
 <metadata>
  <rdf:RDF xmlns:dc="http://purl.org/dc/elements/1.1/" xmlns:cc="http://creativecommons.org/ns#" xmlns:rdf="http://www.w3.org/1999/02/22-rdf-syntax-ns#">
   <cc:Work>
    <dc:type rdf:resource="http://purl.org/dc/dcmitype/StillImage"/>
    <dc:date>2025-07-01T11:13:19.863676</dc:date>
    <dc:format>image/svg+xml</dc:format>
    <dc:creator>
     <cc:Agent>
      <dc:title>Matplotlib v3.7.5, https://matplotlib.org/</dc:title>
     </cc:Agent>
    </dc:creator>
   </cc:Work>
  </rdf:RDF>
 </metadata>
 <defs>
  <style type="text/css">*{stroke-linejoin: round; stroke-linecap: butt}</style>
 </defs>
 <g id="figure_1">
  <g id="patch_1">
   <path d="M 0 432 
L 432 432 
L 432 0 
L 0 0 
z
" style="fill: #ffffff"/>
  </g>
  <g id="axes_1">
   <g id="patch_2">
    <path d="M 54 384.48 
L 388.8 384.48 
L 388.8 51.84 
L 54 51.84 
z
" style="fill: #ffffff"/>
   </g>
   <g id="matplotlib.axis_1">
    <g id="xtick_1">
     <g id="line2d_1">
      <path d="M 69.218182 384.48 
L 69.218182 51.84 
" clip-path="url(#p5db2a4a2ad)" style="fill: none; stroke: #b0b0b0; stroke-width: 0.8; stroke-linecap: square"/>
     </g>
     <g id="line2d_2">
      <defs>
       <path id="m69dd2cdb84" d="M 0 0 
L 0 3.5 
" style="stroke: #000000; stroke-width: 0.8"/>
      </defs>
      <g>
       <use xlink:href="#m69dd2cdb84" x="69.218182" y="384.48" style="stroke: #000000; stroke-width: 0.8"/>
      </g>
     </g>
     <g id="text_1">
      <!-- 0.0 -->
      <g transform="translate(61.266619 399.078438) scale(0.1 -0.1)">
       <defs>
        <path id="DejaVuSans-30" d="M 2034 4250 
Q 1547 4250 1301 3770 
Q 1056 3291 1056 2328 
Q 1056 1369 1301 889 
Q 1547 409 2034 409 
Q 2525 409 2770 889 
Q 3016 1369 3016 2328 
Q 3016 3291 2770 3770 
Q 2525 4250 2034 4250 
z
M 2034 4750 
Q 2819 4750 3233 4129 
Q 3647 3509 3647 2328 
Q 3647 1150 3233 529 
Q 2819 -91 2034 -91 
Q 1250 -91 836 529 
Q 422 1150 422 2328 
Q 422 3509 836 4129 
Q 1250 4750 2034 4750 
z
" transform="scale(0.015625)"/>
        <path id="DejaVuSans-2e" d="M 684 794 
L 1344 794 
L 1344 0 
L 684 0 
L 684 794 
z
" transform="scale(0.015625)"/>
       </defs>
       <use xlink:href="#DejaVuSans-30"/>
       <use xlink:href="#DejaVuSans-2e" x="63.623047"/>
       <use xlink:href="#DejaVuSans-30" x="95.410156"/>
      </g>
     </g>
    </g>
    <g id="xtick_2">
     <g id="line2d_3">
      <path d="M 130.090909 384.48 
L 130.090909 51.84 
" clip-path="url(#p5db2a4a2ad)" style="fill: none; stroke: #b0b0b0; stroke-width: 0.8; stroke-linecap: square"/>
     </g>
     <g id="line2d_4">
      <g>
       <use xlink:href="#m69dd2cdb84" x="130.090909" y="384.48" style="stroke: #000000; stroke-width: 0.8"/>
      </g>
     </g>
     <g id="text_2">
      <!-- 0.2 -->
      <g transform="translate(122.139347 399.078438) scale(0.1 -0.1)">
       <defs>
        <path id="DejaVuSans-32" d="M 1228 531 
L 3431 531 
L 3431 0 
L 469 0 
L 469 531 
Q 828 903 1448 1529 
Q 2069 2156 2228 2338 
Q 2531 2678 2651 2914 
Q 2772 3150 2772 3378 
Q 2772 3750 2511 3984 
Q 2250 4219 1831 4219 
Q 1534 4219 1204 4116 
Q 875 4013 500 3803 
L 500 4441 
Q 881 4594 1212 4672 
Q 1544 4750 1819 4750 
Q 2544 4750 2975 4387 
Q 3406 4025 3406 3419 
Q 3406 3131 3298 2873 
Q 3191 2616 2906 2266 
Q 2828 2175 2409 1742 
Q 1991 1309 1228 531 
z
" transform="scale(0.015625)"/>
       </defs>
       <use xlink:href="#DejaVuSans-30"/>
       <use xlink:href="#DejaVuSans-2e" x="63.623047"/>
       <use xlink:href="#DejaVuSans-32" x="95.410156"/>
      </g>
     </g>
    </g>
    <g id="xtick_3">
     <g id="line2d_5">
      <path d="M 190.963636 384.48 
L 190.963636 51.84 
" clip-path="url(#p5db2a4a2ad)" style="fill: none; stroke: #b0b0b0; stroke-width: 0.8; stroke-linecap: square"/>
     </g>
     <g id="line2d_6">
      <g>
       <use xlink:href="#m69dd2cdb84" x="190.963636" y="384.48" style="stroke: #000000; stroke-width: 0.8"/>
      </g>
     </g>
     <g id="text_3">
      <!-- 0.4 -->
      <g transform="translate(183.012074 399.078438) scale(0.1 -0.1)">
       <defs>
        <path id="DejaVuSans-34" d="M 2419 4116 
L 825 1625 
L 2419 1625 
L 2419 4116 
z
M 2253 4666 
L 3047 4666 
L 3047 1625 
L 3713 1625 
L 3713 1100 
L 3047 1100 
L 3047 0 
L 2419 0 
L 2419 1100 
L 313 1100 
L 313 1709 
L 2253 4666 
z
" transform="scale(0.015625)"/>
       </defs>
       <use xlink:href="#DejaVuSans-30"/>
       <use xlink:href="#DejaVuSans-2e" x="63.623047"/>
       <use xlink:href="#DejaVuSans-34" x="95.410156"/>
      </g>
     </g>
    </g>
    <g id="xtick_4">
     <g id="line2d_7">
      <path d="M 251.836364 384.48 
L 251.836364 51.84 
" clip-path="url(#p5db2a4a2ad)" style="fill: none; stroke: #b0b0b0; stroke-width: 0.8; stroke-linecap: square"/>
     </g>
     <g id="line2d_8">
      <g>
       <use xlink:href="#m69dd2cdb84" x="251.836364" y="384.48" style="stroke: #000000; stroke-width: 0.8"/>
      </g>
     </g>
     <g id="text_4">
      <!-- 0.6 -->
      <g transform="translate(243.884801 399.078438) scale(0.1 -0.1)">
       <defs>
        <path id="DejaVuSans-36" d="M 2113 2584 
Q 1688 2584 1439 2293 
Q 1191 2003 1191 1497 
Q 1191 994 1439 701 
Q 1688 409 2113 409 
Q 2538 409 2786 701 
Q 3034 994 3034 1497 
Q 3034 2003 2786 2293 
Q 2538 2584 2113 2584 
z
M 3366 4563 
L 3366 3988 
Q 3128 4100 2886 4159 
Q 2644 4219 2406 4219 
Q 1781 4219 1451 3797 
Q 1122 3375 1075 2522 
Q 1259 2794 1537 2939 
Q 1816 3084 2150 3084 
Q 2853 3084 3261 2657 
Q 3669 2231 3669 1497 
Q 3669 778 3244 343 
Q 2819 -91 2113 -91 
Q 1303 -91 875 529 
Q 447 1150 447 2328 
Q 447 3434 972 4092 
Q 1497 4750 2381 4750 
Q 2619 4750 2861 4703 
Q 3103 4656 3366 4563 
z
" transform="scale(0.015625)"/>
       </defs>
       <use xlink:href="#DejaVuSans-30"/>
       <use xlink:href="#DejaVuSans-2e" x="63.623047"/>
       <use xlink:href="#DejaVuSans-36" x="95.410156"/>
      </g>
     </g>
    </g>
    <g id="xtick_5">
     <g id="line2d_9">
      <path d="M 312.709091 384.48 
L 312.709091 51.84 
" clip-path="url(#p5db2a4a2ad)" style="fill: none; stroke: #b0b0b0; stroke-width: 0.8; stroke-linecap: square"/>
     </g>
     <g id="line2d_10">
      <g>
       <use xlink:href="#m69dd2cdb84" x="312.709091" y="384.48" style="stroke: #000000; stroke-width: 0.8"/>
      </g>
     </g>
     <g id="text_5">
      <!-- 0.8 -->
      <g transform="translate(304.757528 399.078438) scale(0.1 -0.1)">
       <defs>
        <path id="DejaVuSans-38" d="M 2034 2216 
Q 1584 2216 1326 1975 
Q 1069 1734 1069 1313 
Q 1069 891 1326 650 
Q 1584 409 2034 409 
Q 2484 409 2743 651 
Q 3003 894 3003 1313 
Q 3003 1734 2745 1975 
Q 2488 2216 2034 2216 
z
M 1403 2484 
Q 997 2584 770 2862 
Q 544 3141 544 3541 
Q 544 4100 942 4425 
Q 1341 4750 2034 4750 
Q 2731 4750 3128 4425 
Q 3525 4100 3525 3541 
Q 3525 3141 3298 2862 
Q 3072 2584 2669 2484 
Q 3125 2378 3379 2068 
Q 3634 1759 3634 1313 
Q 3634 634 3220 271 
Q 2806 -91 2034 -91 
Q 1263 -91 848 271 
Q 434 634 434 1313 
Q 434 1759 690 2068 
Q 947 2378 1403 2484 
z
M 1172 3481 
Q 1172 3119 1398 2916 
Q 1625 2713 2034 2713 
Q 2441 2713 2670 2916 
Q 2900 3119 2900 3481 
Q 2900 3844 2670 4047 
Q 2441 4250 2034 4250 
Q 1625 4250 1398 4047 
Q 1172 3844 1172 3481 
z
" transform="scale(0.015625)"/>
       </defs>
       <use xlink:href="#DejaVuSans-30"/>
       <use xlink:href="#DejaVuSans-2e" x="63.623047"/>
       <use xlink:href="#DejaVuSans-38" x="95.410156"/>
      </g>
     </g>
    </g>
    <g id="xtick_6">
     <g id="line2d_11">
      <path d="M 373.581818 384.48 
L 373.581818 51.84 
" clip-path="url(#p5db2a4a2ad)" style="fill: none; stroke: #b0b0b0; stroke-width: 0.8; stroke-linecap: square"/>
     </g>
     <g id="line2d_12">
      <g>
       <use xlink:href="#m69dd2cdb84" x="373.581818" y="384.48" style="stroke: #000000; stroke-width: 0.8"/>
      </g>
     </g>
     <g id="text_6">
      <!-- 1.0 -->
      <g transform="translate(365.630256 399.078438) scale(0.1 -0.1)">
       <defs>
        <path id="DejaVuSans-31" d="M 794 531 
L 1825 531 
L 1825 4091 
L 703 3866 
L 703 4441 
L 1819 4666 
L 2450 4666 
L 2450 531 
L 3481 531 
L 3481 0 
L 794 0 
L 794 531 
z
" transform="scale(0.015625)"/>
       </defs>
       <use xlink:href="#DejaVuSans-31"/>
       <use xlink:href="#DejaVuSans-2e" x="63.623047"/>
       <use xlink:href="#DejaVuSans-30" x="95.410156"/>
      </g>
     </g>
    </g>
    <g id="text_7">
     <!-- False Positive Rate -->
     <g transform="translate(174.933594 412.756563) scale(0.1 -0.1)">
      <defs>
       <path id="DejaVuSans-46" d="M 628 4666 
L 3309 4666 
L 3309 4134 
L 1259 4134 
L 1259 2759 
L 3109 2759 
L 3109 2228 
L 1259 2228 
L 1259 0 
L 628 0 
L 628 4666 
z
" transform="scale(0.015625)"/>
       <path id="DejaVuSans-61" d="M 2194 1759 
Q 1497 1759 1228 1600 
Q 959 1441 959 1056 
Q 959 750 1161 570 
Q 1363 391 1709 391 
Q 2188 391 2477 730 
Q 2766 1069 2766 1631 
L 2766 1759 
L 2194 1759 
z
M 3341 1997 
L 3341 0 
L 2766 0 
L 2766 531 
Q 2569 213 2275 61 
Q 1981 -91 1556 -91 
Q 1019 -91 701 211 
Q 384 513 384 1019 
Q 384 1609 779 1909 
Q 1175 2209 1959 2209 
L 2766 2209 
L 2766 2266 
Q 2766 2663 2505 2880 
Q 2244 3097 1772 3097 
Q 1472 3097 1187 3025 
Q 903 2953 641 2809 
L 641 3341 
Q 956 3463 1253 3523 
Q 1550 3584 1831 3584 
Q 2591 3584 2966 3190 
Q 3341 2797 3341 1997 
z
" transform="scale(0.015625)"/>
       <path id="DejaVuSans-6c" d="M 603 4863 
L 1178 4863 
L 1178 0 
L 603 0 
L 603 4863 
z
" transform="scale(0.015625)"/>
       <path id="DejaVuSans-73" d="M 2834 3397 
L 2834 2853 
Q 2591 2978 2328 3040 
Q 2066 3103 1784 3103 
Q 1356 3103 1142 2972 
Q 928 2841 928 2578 
Q 928 2378 1081 2264 
Q 1234 2150 1697 2047 
L 1894 2003 
Q 2506 1872 2764 1633 
Q 3022 1394 3022 966 
Q 3022 478 2636 193 
Q 2250 -91 1575 -91 
Q 1294 -91 989 -36 
Q 684 19 347 128 
L 347 722 
Q 666 556 975 473 
Q 1284 391 1588 391 
Q 1994 391 2212 530 
Q 2431 669 2431 922 
Q 2431 1156 2273 1281 
Q 2116 1406 1581 1522 
L 1381 1569 
Q 847 1681 609 1914 
Q 372 2147 372 2553 
Q 372 3047 722 3315 
Q 1072 3584 1716 3584 
Q 2034 3584 2315 3537 
Q 2597 3491 2834 3397 
z
" transform="scale(0.015625)"/>
       <path id="DejaVuSans-65" d="M 3597 1894 
L 3597 1613 
L 953 1613 
Q 991 1019 1311 708 
Q 1631 397 2203 397 
Q 2534 397 2845 478 
Q 3156 559 3463 722 
L 3463 178 
Q 3153 47 2828 -22 
Q 2503 -91 2169 -91 
Q 1331 -91 842 396 
Q 353 884 353 1716 
Q 353 2575 817 3079 
Q 1281 3584 2069 3584 
Q 2775 3584 3186 3129 
Q 3597 2675 3597 1894 
z
M 3022 2063 
Q 3016 2534 2758 2815 
Q 2500 3097 2075 3097 
Q 1594 3097 1305 2825 
Q 1016 2553 972 2059 
L 3022 2063 
z
" transform="scale(0.015625)"/>
       <path id="DejaVuSans-20" transform="scale(0.015625)"/>
       <path id="DejaVuSans-50" d="M 1259 4147 
L 1259 2394 
L 2053 2394 
Q 2494 2394 2734 2622 
Q 2975 2850 2975 3272 
Q 2975 3691 2734 3919 
Q 2494 4147 2053 4147 
L 1259 4147 
z
M 628 4666 
L 2053 4666 
Q 2838 4666 3239 4311 
Q 3641 3956 3641 3272 
Q 3641 2581 3239 2228 
Q 2838 1875 2053 1875 
L 1259 1875 
L 1259 0 
L 628 0 
L 628 4666 
z
" transform="scale(0.015625)"/>
       <path id="DejaVuSans-6f" d="M 1959 3097 
Q 1497 3097 1228 2736 
Q 959 2375 959 1747 
Q 959 1119 1226 758 
Q 1494 397 1959 397 
Q 2419 397 2687 759 
Q 2956 1122 2956 1747 
Q 2956 2369 2687 2733 
Q 2419 3097 1959 3097 
z
M 1959 3584 
Q 2709 3584 3137 3096 
Q 3566 2609 3566 1747 
Q 3566 888 3137 398 
Q 2709 -91 1959 -91 
Q 1206 -91 779 398 
Q 353 888 353 1747 
Q 353 2609 779 3096 
Q 1206 3584 1959 3584 
z
" transform="scale(0.015625)"/>
       <path id="DejaVuSans-69" d="M 603 3500 
L 1178 3500 
L 1178 0 
L 603 0 
L 603 3500 
z
M 603 4863 
L 1178 4863 
L 1178 4134 
L 603 4134 
L 603 4863 
z
" transform="scale(0.015625)"/>
       <path id="DejaVuSans-74" d="M 1172 4494 
L 1172 3500 
L 2356 3500 
L 2356 3053 
L 1172 3053 
L 1172 1153 
Q 1172 725 1289 603 
Q 1406 481 1766 481 
L 2356 481 
L 2356 0 
L 1766 0 
Q 1100 0 847 248 
Q 594 497 594 1153 
L 594 3053 
L 172 3053 
L 172 3500 
L 594 3500 
L 594 4494 
L 1172 4494 
z
" transform="scale(0.015625)"/>
       <path id="DejaVuSans-76" d="M 191 3500 
L 800 3500 
L 1894 563 
L 2988 3500 
L 3597 3500 
L 2284 0 
L 1503 0 
L 191 3500 
z
" transform="scale(0.015625)"/>
       <path id="DejaVuSans-52" d="M 2841 2188 
Q 3044 2119 3236 1894 
Q 3428 1669 3622 1275 
L 4263 0 
L 3584 0 
L 2988 1197 
Q 2756 1666 2539 1819 
Q 2322 1972 1947 1972 
L 1259 1972 
L 1259 0 
L 628 0 
L 628 4666 
L 2053 4666 
Q 2853 4666 3247 4331 
Q 3641 3997 3641 3322 
Q 3641 2881 3436 2590 
Q 3231 2300 2841 2188 
z
M 1259 4147 
L 1259 2491 
L 2053 2491 
Q 2509 2491 2742 2702 
Q 2975 2913 2975 3322 
Q 2975 3731 2742 3939 
Q 2509 4147 2053 4147 
L 1259 4147 
z
" transform="scale(0.015625)"/>
      </defs>
      <use xlink:href="#DejaVuSans-46"/>
      <use xlink:href="#DejaVuSans-61" x="48.394531"/>
      <use xlink:href="#DejaVuSans-6c" x="109.673828"/>
      <use xlink:href="#DejaVuSans-73" x="137.457031"/>
      <use xlink:href="#DejaVuSans-65" x="189.556641"/>
      <use xlink:href="#DejaVuSans-20" x="251.080078"/>
      <use xlink:href="#DejaVuSans-50" x="282.867188"/>
      <use xlink:href="#DejaVuSans-6f" x="339.544922"/>
      <use xlink:href="#DejaVuSans-73" x="400.726562"/>
      <use xlink:href="#DejaVuSans-69" x="452.826172"/>
      <use xlink:href="#DejaVuSans-74" x="480.609375"/>
      <use xlink:href="#DejaVuSans-69" x="519.818359"/>
      <use xlink:href="#DejaVuSans-76" x="547.601562"/>
      <use xlink:href="#DejaVuSans-65" x="606.78125"/>
      <use xlink:href="#DejaVuSans-20" x="668.304688"/>
      <use xlink:href="#DejaVuSans-52" x="700.091797"/>
      <use xlink:href="#DejaVuSans-61" x="767.324219"/>
      <use xlink:href="#DejaVuSans-74" x="828.603516"/>
      <use xlink:href="#DejaVuSans-65" x="867.8125"/>
     </g>
    </g>
   </g>
   <g id="matplotlib.axis_2">
    <g id="ytick_1">
     <g id="line2d_13">
      <path d="M 54 369.36 
L 388.8 369.36 
" clip-path="url(#p5db2a4a2ad)" style="fill: none; stroke: #b0b0b0; stroke-width: 0.8; stroke-linecap: square"/>
     </g>
     <g id="line2d_14">
      <defs>
       <path id="md34f909eb7" d="M 0 0 
L -3.5 0 
" style="stroke: #000000; stroke-width: 0.8"/>
      </defs>
      <g>
       <use xlink:href="#md34f909eb7" x="54" y="369.36" style="stroke: #000000; stroke-width: 0.8"/>
      </g>
     </g>
     <g id="text_8">
      <!-- 0.0 -->
      <g transform="translate(31.096875 373.159219) scale(0.1 -0.1)">
       <use xlink:href="#DejaVuSans-30"/>
       <use xlink:href="#DejaVuSans-2e" x="63.623047"/>
       <use xlink:href="#DejaVuSans-30" x="95.410156"/>
      </g>
     </g>
    </g>
    <g id="ytick_2">
     <g id="line2d_15">
      <path d="M 54 308.88 
L 388.8 308.88 
" clip-path="url(#p5db2a4a2ad)" style="fill: none; stroke: #b0b0b0; stroke-width: 0.8; stroke-linecap: square"/>
     </g>
     <g id="line2d_16">
      <g>
       <use xlink:href="#md34f909eb7" x="54" y="308.88" style="stroke: #000000; stroke-width: 0.8"/>
      </g>
     </g>
     <g id="text_9">
      <!-- 0.2 -->
      <g transform="translate(31.096875 312.679219) scale(0.1 -0.1)">
       <use xlink:href="#DejaVuSans-30"/>
       <use xlink:href="#DejaVuSans-2e" x="63.623047"/>
       <use xlink:href="#DejaVuSans-32" x="95.410156"/>
      </g>
     </g>
    </g>
    <g id="ytick_3">
     <g id="line2d_17">
      <path d="M 54 248.4 
L 388.8 248.4 
" clip-path="url(#p5db2a4a2ad)" style="fill: none; stroke: #b0b0b0; stroke-width: 0.8; stroke-linecap: square"/>
     </g>
     <g id="line2d_18">
      <g>
       <use xlink:href="#md34f909eb7" x="54" y="248.4" style="stroke: #000000; stroke-width: 0.8"/>
      </g>
     </g>
     <g id="text_10">
      <!-- 0.4 -->
      <g transform="translate(31.096875 252.199219) scale(0.1 -0.1)">
       <use xlink:href="#DejaVuSans-30"/>
       <use xlink:href="#DejaVuSans-2e" x="63.623047"/>
       <use xlink:href="#DejaVuSans-34" x="95.410156"/>
      </g>
     </g>
    </g>
    <g id="ytick_4">
     <g id="line2d_19">
      <path d="M 54 187.92 
L 388.8 187.92 
" clip-path="url(#p5db2a4a2ad)" style="fill: none; stroke: #b0b0b0; stroke-width: 0.8; stroke-linecap: square"/>
     </g>
     <g id="line2d_20">
      <g>
       <use xlink:href="#md34f909eb7" x="54" y="187.92" style="stroke: #000000; stroke-width: 0.8"/>
      </g>
     </g>
     <g id="text_11">
      <!-- 0.6 -->
      <g transform="translate(31.096875 191.719219) scale(0.1 -0.1)">
       <use xlink:href="#DejaVuSans-30"/>
       <use xlink:href="#DejaVuSans-2e" x="63.623047"/>
       <use xlink:href="#DejaVuSans-36" x="95.410156"/>
      </g>
     </g>
    </g>
    <g id="ytick_5">
     <g id="line2d_21">
      <path d="M 54 127.44 
L 388.8 127.44 
" clip-path="url(#p5db2a4a2ad)" style="fill: none; stroke: #b0b0b0; stroke-width: 0.8; stroke-linecap: square"/>
     </g>
     <g id="line2d_22">
      <g>
       <use xlink:href="#md34f909eb7" x="54" y="127.44" style="stroke: #000000; stroke-width: 0.8"/>
      </g>
     </g>
     <g id="text_12">
      <!-- 0.8 -->
      <g transform="translate(31.096875 131.239219) scale(0.1 -0.1)">
       <use xlink:href="#DejaVuSans-30"/>
       <use xlink:href="#DejaVuSans-2e" x="63.623047"/>
       <use xlink:href="#DejaVuSans-38" x="95.410156"/>
      </g>
     </g>
    </g>
    <g id="ytick_6">
     <g id="line2d_23">
      <path d="M 54 66.96 
L 388.8 66.96 
" clip-path="url(#p5db2a4a2ad)" style="fill: none; stroke: #b0b0b0; stroke-width: 0.8; stroke-linecap: square"/>
     </g>
     <g id="line2d_24">
      <g>
       <use xlink:href="#md34f909eb7" x="54" y="66.96" style="stroke: #000000; stroke-width: 0.8"/>
      </g>
     </g>
     <g id="text_13">
      <!-- 1.0 -->
      <g transform="translate(31.096875 70.759219) scale(0.1 -0.1)">
       <use xlink:href="#DejaVuSans-31"/>
       <use xlink:href="#DejaVuSans-2e" x="63.623047"/>
       <use xlink:href="#DejaVuSans-30" x="95.410156"/>
      </g>
     </g>
    </g>
    <g id="text_14">
     <!-- True Positive Rate -->
     <g transform="translate(25.017187 262.689687) rotate(-90) scale(0.1 -0.1)">
      <defs>
       <path id="DejaVuSans-54" d="M -19 4666 
L 3928 4666 
L 3928 4134 
L 2272 4134 
L 2272 0 
L 1638 0 
L 1638 4134 
L -19 4134 
L -19 4666 
z
" transform="scale(0.015625)"/>
       <path id="DejaVuSans-72" d="M 2631 2963 
Q 2534 3019 2420 3045 
Q 2306 3072 2169 3072 
Q 1681 3072 1420 2755 
Q 1159 2438 1159 1844 
L 1159 0 
L 581 0 
L 581 3500 
L 1159 3500 
L 1159 2956 
Q 1341 3275 1631 3429 
Q 1922 3584 2338 3584 
Q 2397 3584 2469 3576 
Q 2541 3569 2628 3553 
L 2631 2963 
z
" transform="scale(0.015625)"/>
       <path id="DejaVuSans-75" d="M 544 1381 
L 544 3500 
L 1119 3500 
L 1119 1403 
Q 1119 906 1312 657 
Q 1506 409 1894 409 
Q 2359 409 2629 706 
Q 2900 1003 2900 1516 
L 2900 3500 
L 3475 3500 
L 3475 0 
L 2900 0 
L 2900 538 
Q 2691 219 2414 64 
Q 2138 -91 1772 -91 
Q 1169 -91 856 284 
Q 544 659 544 1381 
z
M 1991 3584 
L 1991 3584 
z
" transform="scale(0.015625)"/>
      </defs>
      <use xlink:href="#DejaVuSans-54"/>
      <use xlink:href="#DejaVuSans-72" x="46.333984"/>
      <use xlink:href="#DejaVuSans-75" x="87.447266"/>
      <use xlink:href="#DejaVuSans-65" x="150.826172"/>
      <use xlink:href="#DejaVuSans-20" x="212.349609"/>
      <use xlink:href="#DejaVuSans-50" x="244.136719"/>
      <use xlink:href="#DejaVuSans-6f" x="300.814453"/>
      <use xlink:href="#DejaVuSans-73" x="361.996094"/>
      <use xlink:href="#DejaVuSans-69" x="414.095703"/>
      <use xlink:href="#DejaVuSans-74" x="441.878906"/>
      <use xlink:href="#DejaVuSans-69" x="481.087891"/>
      <use xlink:href="#DejaVuSans-76" x="508.871094"/>
      <use xlink:href="#DejaVuSans-65" x="568.050781"/>
      <use xlink:href="#DejaVuSans-20" x="629.574219"/>
      <use xlink:href="#DejaVuSans-52" x="661.361328"/>
      <use xlink:href="#DejaVuSans-61" x="728.59375"/>
      <use xlink:href="#DejaVuSans-74" x="789.873047"/>
      <use xlink:href="#DejaVuSans-65" x="829.082031"/>
     </g>
    </g>
   </g>
   <g id="line2d_25">
    <path d="M 69.218182 369.36 
L 69.304417 369.254893 
L 69.404033 369.012339 
L 69.461027 368.907233 
L 69.568573 368.697019 
L 69.627054 368.591913 
L 69.736582 368.284678 
L 69.78069 368.179571 
L 69.889723 367.864251 
L 69.943248 367.759144 
L 70.051785 367.508505 
L 70.080034 367.403399 
L 70.189066 367.15276 
L 70.242096 367.047653 
L 70.34419 366.764674 
L 70.433398 366.667652 
L 70.543917 366.263396 
L 70.578114 366.158289 
L 70.68566 365.818713 
L 70.753062 365.713607 
L 70.858129 365.462968 
L 70.905707 365.357861 
L 71.016226 365.050626 
L 71.057361 364.96169 
L 71.166889 364.589774 
L 71.200095 364.492752 
L 71.307145 364.096581 
L 71.364635 363.991474 
L 71.471685 363.71658 
L 71.501421 363.611473 
L 71.604506 363.207217 
L 71.654066 363.110195 
L 71.763594 362.705939 
L 71.800269 362.600832 
L 71.909301 362.325938 
L 71.932099 362.220831 
L 72.042123 361.857 
L 72.054017 361.759979 
L 72.165032 361.460829 
L 72.235903 361.355722 
L 72.343944 361.072743 
L 72.38161 360.967636 
L 72.486182 360.652316 
L 72.549619 360.547209 
L 72.659643 360.215719 
L 72.702265 360.110612 
L 72.803368 359.876144 
L 72.838555 359.771037 
L 72.947588 359.415291 
L 72.980298 359.310184 
L 73.081896 358.938269 
L 73.142855 358.833162 
L 73.251887 358.469331 
L 73.28311 358.37231 
L 73.39363 358.048904 
L 73.434269 357.959968 
L 73.542806 357.604222 
L 73.575516 357.499116 
L 73.679097 357.183796 
L 73.721718 357.078689 
L 73.828768 356.852305 
L 73.872877 356.747199 
L 73.983892 356.407623 
L 74.038904 356.302516 
L 74.146449 356.027622 
L 74.179159 355.922515 
L 74.289183 355.542514 
L 74.317928 355.437408 
L 74.42696 355.138258 
L 74.458679 355.033151 
L 74.564242 354.717831 
L 74.628175 354.612724 
L 74.738694 354.289319 
L 74.759014 354.184213 
L 74.865568 353.747616 
L 74.918597 353.642509 
L 75.029612 353.254423 
L 75.069756 353.149316 
L 75.179284 352.79357 
L 75.217941 352.688464 
L 75.322513 352.365059 
L 75.355223 352.268037 
L 75.465742 351.879951 
L 75.499939 351.774844 
L 75.610458 351.411013 
L 75.639203 351.305907 
L 75.750218 350.974416 
L 75.779458 350.86931 
L 75.890473 350.537819 
L 75.928635 350.432713 
L 76.034693 350.076967 
L 76.074837 349.97186 
L 76.181887 349.721221 
L 76.229465 349.616115 
L 76.337011 349.228028 
L 76.368234 349.122922 
L 76.476771 348.67824 
L 76.520384 348.573133 
L 76.62892 348.209302 
L 76.658161 348.112281 
L 76.769176 347.74845 
L 76.803372 347.651428 
L 76.913396 347.303768 
L 76.94561 347.198661 
L 77.056129 346.810575 
L 77.081901 346.705468 
L 77.191429 346.285041 
L 77.226617 346.179935 
L 77.337631 345.85653 
L 77.384218 345.751423 
L 77.494737 345.387592 
L 77.535872 345.282485 
L 77.643914 344.902484 
L 77.668694 344.797378 
L 77.775744 344.425462 
L 77.810931 344.320355 
L 77.914512 344.061631 
L 77.945735 343.972695 
L 78.054272 343.592693 
L 78.087973 343.487587 
L 78.198988 343.075245 
L 78.228724 342.970138 
L 78.336765 342.759925 
L 78.367988 342.654818 
L 78.479003 342.226307 
L 78.529059 342.1212 
L 78.636605 341.813965 
L 78.684182 341.708858 
L 78.794702 341.409709 
L 78.829394 341.304602 
L 78.935948 340.908431 
L 78.977579 340.803324 
L 79.084133 340.382897 
L 79.125268 340.27779 
L 79.234796 339.91396 
L 79.258585 339.808853 
L 79.3696 339.348001 
L 79.397849 339.250979 
L 79.508369 338.879063 
L 79.565859 338.773956 
L 79.675882 338.361615 
L 79.732381 338.256508 
L 79.840918 337.876507 
L 79.882053 337.7714 
L 79.985634 337.431825 
L 80.018839 337.326718 
L 80.127376 337.011398 
L 80.187839 336.906292 
L 80.296376 336.534376 
L 80.362291 336.429269 
L 80.473306 336.113949 
L 80.526831 336.008842 
L 80.636359 335.612671 
L 80.655192 335.507564 
L 80.760755 335.192244 
L 80.786527 335.095223 
L 80.894568 334.715222 
L 80.930747 334.610115 
L 81.038292 334.254369 
L 81.061586 334.149263 
L 81.169131 333.777347 
L 81.210762 333.67224 
L 81.318803 333.267984 
L 81.35746 333.162877 
L 81.467979 332.790961 
L 81.517044 332.685854 
L 81.625581 332.265428 
L 81.669194 332.160321 
L 81.779713 331.723724 
L 81.802511 331.642873 
L 81.909561 331.335638 
L 81.947722 331.230531 
L 82.056259 330.818189 
L 82.081535 330.713083 
L 82.190072 330.397763 
L 82.215843 330.316911 
L 82.326858 329.872229 
L 82.343213 329.767123 
L 82.45175 329.354781 
L 82.507753 329.249674 
L 82.616785 328.910099 
L 82.658416 328.804992 
L 82.769431 328.36031 
L 82.785786 328.255203 
L 82.888871 327.891373 
L 82.936449 327.786266 
L 83.047463 327.38201 
L 83.079678 327.276903 
L 83.190692 326.945413 
L 83.214481 326.840306 
L 83.325496 326.524986 
L 83.371587 326.419879 
L 83.477646 326.031793 
L 83.520268 325.926686 
L 83.625831 325.562855 
L 83.650116 325.457749 
L 83.759148 324.916045 
L 83.782937 324.819024 
L 83.892465 324.350086 
L 83.917741 324.244979 
L 84.025782 323.848808 
L 84.055518 323.751787 
L 84.165542 323.387956 
L 84.198747 323.282849 
L 84.308771 322.943274 
L 84.352879 322.838167 
L 84.462903 322.539017 
L 84.48917 322.43391 
L 84.598203 322.045824 
L 84.636364 321.940718 
L 84.746883 321.641568 
L 84.790992 321.536461 
L 84.898537 321.091779 
L 84.951071 320.986672 
L 85.058121 320.622842 
L 85.092813 320.517735 
L 85.203828 320.073053 
L 85.244468 319.967946 
L 85.353005 319.587945 
L 85.385714 319.482838 
L 85.496729 319.070497 
L 85.547776 318.96539 
L 85.654826 318.609644 
L 85.703395 318.504538 
L 85.813419 318.043685 
L 85.855049 317.938579 
L 85.963586 317.655599 
L 86.014138 317.550492 
L 86.125153 317.162406 
L 86.170252 317.0573 
L 86.280772 316.806661 
L 86.302083 316.701554 
L 86.411611 316.378149 
L 86.461171 316.273042 
L 86.568221 316.014318 
L 86.619268 315.909211 
L 86.728796 315.569636 
L 86.760515 315.464529 
L 86.867069 315.100698 
L 86.917125 314.995592 
L 87.027644 314.688357 
L 87.084638 314.58325 
L 87.192184 314.195164 
L 87.221425 314.090057 
L 87.325501 313.839418 
L 87.391912 313.734312 
L 87.502431 313.330055 
L 87.536627 313.224948 
L 87.647642 312.917713 
L 87.703645 312.812607 
L 87.81466 312.473031 
L 87.847866 312.367925 
L 87.958385 311.996009 
L 87.997537 311.890902 
L 88.108552 311.527071 
L 88.150679 311.421965 
L 88.25872 311.11473 
L 88.29589 311.009623 
L 88.400462 310.694303 
L 88.451013 310.589196 
L 88.557568 310.290047 
L 88.597712 310.18494 
L 88.706744 309.845364 
L 88.745897 309.740258 
L 88.85592 309.416853 
L 88.893091 309.311746 
L 89.004105 309.020681 
L 89.034833 308.915575 
L 89.142378 308.527488 
L 89.158733 308.422382 
L 89.268261 308.066636 
L 89.303945 307.969614 
L 89.41496 307.613869 
L 89.459068 307.508762 
L 89.566614 307.096421 
L 89.603288 306.991314 
L 89.71133 306.756845 
L 89.758907 306.651738 
L 89.869922 306.409185 
L 89.90957 306.304078 
L 90.018107 306.093864 
L 90.061225 305.996843 
L 90.171248 305.576416 
L 90.234685 305.47131 
L 90.339753 305.17216 
L 90.370976 305.067053 
L 90.47753 304.735563 
L 90.511231 304.630456 
L 90.619768 304.24237 
L 90.653965 304.137263 
L 90.753085 303.918965 
L 90.809584 303.813858 
L 90.918616 303.603645 
L 90.962229 303.498538 
L 91.068288 303.183218 
L 91.10645 303.078111 
L 91.214986 302.730451 
L 91.246209 302.625344 
L 91.356729 302.164492 
L 91.391421 302.059385 
L 91.50194 301.76832 
L 91.544562 301.671299 
L 91.655577 301.347894 
L 91.702163 301.242787 
L 91.809709 300.911297 
L 91.844401 300.80619 
L 91.953434 300.418104 
L 91.986639 300.312997 
L 92.091211 300.038103 
L 92.122434 299.932996 
L 92.233449 299.633846 
L 92.276566 299.52874 
L 92.379651 299.286186 
L 92.42376 299.197249 
L 92.534775 298.922355 
L 92.570458 298.817248 
L 92.680978 298.550439 
L 92.71567 298.445332 
L 92.824702 298.186608 
L 92.863359 298.081502 
L 92.970409 297.733841 
L 93.02443 297.628734 
L 93.135445 297.321499 
L 93.185996 297.216393 
L 93.296515 296.844477 
L 93.359952 296.73937 
L 93.470472 296.367454 
L 93.525979 296.262347 
L 93.631542 296.003623 
L 93.682094 295.906602 
L 93.788648 295.518516 
L 93.836226 295.413409 
L 93.943772 295.130429 
L 93.980942 295.033408 
L 94.091957 294.580641 
L 94.133092 294.475534 
L 94.240637 294.208725 
L 94.277808 294.103618 
L 94.384858 293.764043 
L 94.420045 293.658936 
L 94.53106 293.335531 
L 94.585081 293.230424 
L 94.696096 292.95553 
L 94.751603 292.858508 
L 94.862122 292.599784 
L 94.904744 292.494677 
L 95.011299 292.268294 
L 95.064328 292.163187 
L 95.175343 291.855952 
L 95.222425 291.750845 
L 95.331458 291.419355 
L 95.375566 291.314248 
L 95.48113 291.07978 
L 95.53515 290.974673 
L 95.643687 290.651268 
L 95.690769 290.546161 
L 95.794846 290.214671 
L 95.837963 290.109564 
L 95.946004 289.8185 
L 96.02084 289.713393 
L 96.125412 289.495094 
L 96.195292 289.389988 
L 96.303829 289.074668 
L 96.34546 288.969561 
L 96.456475 288.799773 
L 96.501079 288.694667 
L 96.60912 288.427857 
L 96.654715 288.322751 
L 96.762261 288.007431 
L 96.81876 287.910409 
L 96.923332 287.732536 
L 96.955546 287.62743 
L 97.062596 287.409131 
L 97.154778 287.304024 
L 97.257368 286.932108 
L 97.341124 286.827002 
L 97.447679 286.641044 
L 97.486336 286.544022 
L 97.596855 286.293383 
L 97.65831 286.188277 
L 97.762882 285.969978 
L 97.826319 285.864871 
L 97.937334 285.557636 
L 97.952202 285.45253 
L 98.060243 285.15338 
L 98.114264 285.048273 
L 98.223296 284.805719 
L 98.281777 284.708698 
L 98.392792 284.377208 
L 98.443343 284.272101 
L 98.552871 283.997207 
L 98.614822 283.8921 
L 98.725341 283.60912 
L 98.780848 283.504014 
L 98.881951 283.26146 
L 98.931016 283.156353 
L 99.037075 282.92997 
L 99.074741 282.824863 
L 99.179808 282.558054 
L 99.220943 282.461032 
L 99.331462 282.178053 
L 99.396386 282.072946 
L 99.504428 281.773796 
L 99.58075 281.668689 
L 99.688296 281.490817 
L 99.754211 281.38571 
L 99.861757 281.118901 
L 99.909335 281.013794 
L 100.017871 280.75507 
L 100.048599 280.649963 
L 100.151188 280.366984 
L 100.244362 280.261877 
L 100.349925 279.995068 
L 100.385608 279.889961 
L 100.495136 279.712088 
L 100.561051 279.606981 
L 100.671571 279.307832 
L 100.717662 279.202725 
L 100.827685 278.871235 
L 100.880219 278.766128 
L 100.990243 278.483148 
L 101.02543 278.378042 
L 101.136445 278.135488 
L 101.167668 278.030381 
L 101.278683 277.763572 
L 101.313871 277.658465 
L 101.423895 277.35123 
L 101.476428 277.246124 
L 101.581496 276.971229 
L 101.616188 276.866123 
L 101.724725 276.655909 
L 101.76586 276.550803 
L 101.869937 276.340589 
L 101.930896 276.235483 
L 102.019608 276.017184 
L 102.102374 275.912077 
L 102.213389 275.645268 
L 102.265923 275.540161 
L 102.372477 275.224841 
L 102.428976 275.119735 
L 102.53553 274.84484 
L 102.590046 274.739734 
L 102.696105 274.51335 
L 102.788783 274.408243 
L 102.89732 274.084838 
L 102.937463 273.979732 
L 103.045505 273.737178 
L 103.080692 273.632071 
L 103.190221 273.365262 
L 103.238294 273.260155 
L 103.343362 273.082282 
L 103.384992 272.977176 
L 103.495511 272.726537 
L 103.563905 272.62143 
L 103.67145 272.386961 
L 103.737861 272.281854 
L 103.846893 272.071641 
L 103.899427 271.966534 
L 104.010442 271.699725 
L 104.047117 271.594618 
L 104.157636 271.303554 
L 104.185885 271.198447 
L 104.294422 270.963978 
L 104.340017 270.858872 
L 104.449546 270.527381 
L 104.496132 270.422275 
L 104.602191 270.260572 
L 104.663646 270.155465 
L 104.762766 270.018018 
L 104.83562 269.912912 
L 104.945148 269.662273 
L 104.986778 269.557166 
L 105.096306 269.314612 
L 105.145371 269.209505 
L 105.247465 268.975037 
L 105.30099 268.86993 
L 105.410518 268.595036 
L 105.457105 268.489929 
L 105.567128 268.190779 
L 105.613715 268.085672 
L 105.721756 267.818863 
L 105.792132 267.713756 
L 105.896208 267.422692 
L 105.989381 267.317585 
L 106.099901 267.091202 
L 106.145496 266.986095 
L 106.256015 266.792052 
L 106.304089 266.686945 
L 106.414112 266.323114 
L 106.454256 266.218008 
L 106.562793 266.023964 
L 106.61384 265.918858 
L 106.723864 265.587368 
L 106.760538 265.490346 
L 106.870562 265.328643 
L 106.906245 265.223537 
L 107.016269 264.997153 
L 107.048979 264.892046 
L 107.14909 264.641407 
L 107.197659 264.536301 
L 107.307187 264.398854 
L 107.342871 264.293747 
L 107.444469 264.083534 
L 107.524261 263.978427 
L 107.626851 263.711618 
L 107.688801 263.606511 
L 107.795851 263.388212 
L 107.830543 263.283106 
L 107.940567 263.040552 
L 107.983684 262.935445 
L 108.093708 262.620125 
L 108.159623 262.515018 
L 108.264195 262.345231 
L 108.305826 262.240124 
L 108.411389 262.037996 
L 108.462436 261.932889 
L 108.571468 261.779272 
L 108.621524 261.674165 
L 108.722627 261.431611 
L 108.778135 261.326504 
L 108.881715 261.132461 
L 108.930284 261.03544 
L 109.040308 260.760545 
L 109.092842 260.655439 
L 109.201874 260.4048 
L 109.255399 260.299693 
L 109.360963 260.08948 
L 109.410027 259.984373 
L 109.51559 259.782245 
L 109.592904 259.677138 
L 109.702432 259.418414 
L 109.76587 259.313307 
L 109.874406 258.973732 
L 109.96758 258.868625 
L 110.078099 258.666497 
L 110.138562 258.56139 
L 110.247099 258.383517 
L 110.32144 258.278411 
L 110.432454 258.108623 
L 110.505804 258.003516 
L 110.614836 257.841814 
L 110.663405 257.736707 
L 110.772437 257.494153 
L 110.842813 257.389047 
L 110.95135 257.170748 
L 110.998432 257.065641 
L 111.099039 256.823088 
L 111.175858 256.717981 
L 111.285386 256.394576 
L 111.33445 256.289469 
L 111.43704 256.055 
L 111.489574 255.949894 
L 111.600093 255.747765 
L 111.67592 255.642659 
L 111.784953 255.335424 
L 111.849381 255.230317 
L 111.956431 255.044359 
L 111.998061 254.947338 
L 112.100156 254.79372 
L 112.195807 254.688613 
L 112.306326 254.44606 
L 112.36332 254.340953 
L 112.474335 254.114569 
L 112.5234 254.009463 
L 112.629954 253.718398 
L 112.700825 253.613291 
L 112.802424 253.419248 
L 112.874782 253.314141 
L 112.982823 253.047332 
L 113.043782 252.942226 
L 113.14885 252.634991 
L 113.19841 252.529884 
L 113.308434 252.311585 
L 113.382774 252.206479 
L 113.491311 252.012436 
L 113.58151 251.907329 
L 113.685587 251.689031 
L 113.744068 251.592009 
L 113.854587 251.37371 
L 113.909103 251.268604 
L 114.020118 251.04222 
L 114.114283 250.937114 
L 114.225297 250.734985 
L 114.330365 250.629879 
L 114.43692 250.403495 
L 114.567263 250.298388 
L 114.678278 250.047749 
L 114.735272 249.942643 
L 114.839844 249.76477 
L 114.908733 249.659663 
L 115.016278 249.46562 
L 115.076742 249.360513 
L 115.185279 249.1503 
L 115.286877 249.045193 
L 115.397892 248.810725 
L 115.472728 248.721788 
L 115.569866 248.543915 
L 115.63479 248.446894 
L 115.74184 248.244766 
L 115.813207 248.139659 
L 115.920752 247.856679 
L 115.986667 247.751573 
L 116.097682 247.492849 
L 116.191351 247.387742 
L 116.30187 247.177528 
L 116.362829 247.088592 
L 116.471862 246.805613 
L 116.54868 246.700506 
L 116.656721 246.506463 
L 116.730071 246.401356 
L 116.835634 246.166887 
L 116.896593 246.061781 
L 117.003147 245.891993 
L 117.102268 245.786886 
L 117.211796 245.479651 
L 117.300013 245.374545 
L 117.410532 245.06731 
L 117.462571 244.962203 
L 117.572099 244.75199 
L 117.612738 244.646883 
L 117.710867 244.46901 
L 117.770339 244.363904 
L 117.875903 244.145605 
L 117.954703 244.040498 
L 118.065718 243.878796 
L 118.096941 243.773689 
L 118.19507 243.587731 
L 118.271889 243.482624 
L 118.378443 243.337092 
L 118.430977 243.231985 
L 118.535054 243.054113 
L 118.59403 242.949006 
L 118.698107 242.738793 
L 118.78335 242.633686 
L 118.880984 242.423473 
L 118.96028 242.318366 
L 119.065843 242.108153 
L 119.120855 242.003046 
L 119.221958 241.849428 
L 119.301254 241.744322 
L 119.411774 241.566449 
L 119.462325 241.461342 
L 119.562437 241.29964 
L 119.619927 241.194533 
L 119.727472 240.98432 
L 119.834027 240.879213 
L 119.942068 240.71751 
L 120.001045 240.612404 
L 120.107103 240.394105 
L 120.175992 240.288998 
L 120.286511 240.08687 
L 120.377207 239.981764 
L 120.478805 239.795806 
L 120.561075 239.690699 
L 120.666143 239.528996 
L 120.744943 239.42389 
L 120.844559 239.278357 
L 120.97292 239.173251 
L 121.070058 238.882186 
L 121.13746 238.777079 
L 121.248475 238.574951 
L 121.335701 238.469844 
L 121.446716 238.259631 
L 121.544845 238.154524 
L 121.649913 237.928141 
L 121.722271 237.823034 
L 121.825852 237.653246 
L 121.913573 237.54814 
L 122.011702 237.321756 
L 122.101902 237.216649 
L 122.212421 237.103458 
L 122.257025 236.998351 
L 122.361102 236.804308 
L 122.517217 236.707286 
L 122.626249 236.472817 
L 122.716944 236.367711 
L 122.824985 236.141327 
L 122.909238 236.036221 
L 123.011827 235.842177 
L 123.093106 235.737071 
L 123.201643 235.462176 
L 123.303242 235.35707 
L 123.41277 235.066005 
L 123.497518 234.960898 
L 123.607046 234.831536 
L 123.685846 234.72643 
L 123.791905 234.475791 
L 123.868724 234.370684 
L 123.976269 234.200896 
L 124.043176 234.09579 
L 124.152208 233.909832 
L 124.227044 233.804725 
L 124.323686 233.634937 
L 124.373247 233.52983 
L 124.480792 233.384298 
L 124.527874 233.279191 
L 124.636411 233.174085 
L 124.719177 233.068978 
L 124.828209 232.85068 
L 124.868849 232.745573 
L 124.979368 232.494934 
L 125.033884 232.389827 
L 125.142421 232.244295 
L 125.216266 232.139188 
L 125.319847 231.928975 
L 125.397656 231.823868 
L 125.504706 231.645995 
L 125.584498 231.540889 
L 125.691053 231.387271 
L 125.786704 231.282165 
L 125.880868 231.128547 
L 125.98544 231.02344 
L 126.091995 230.788972 
L 126.156423 230.683865 
L 126.267438 230.522162 
L 126.329388 230.417056 
L 126.432473 230.263438 
L 126.486494 230.158332 
L 126.59404 229.956203 
L 126.686222 229.851097 
L 126.79575 229.72982 
L 126.840354 229.624713 
L 126.947404 229.463011 
L 126.998947 229.357904 
L 127.083695 229.14769 
L 127.152583 229.042584 
L 127.250217 228.848541 
L 127.331496 228.743434 
L 127.44251 228.48471 
L 127.523789 228.379603 
L 127.634308 228.20173 
L 127.678913 228.096624 
L 127.787945 227.85407 
L 127.848409 227.748963 
L 127.955459 227.52258 
L 128.052597 227.417473 
L 128.163612 227.2396 
L 128.227544 227.134493 
L 128.334594 227.005131 
L 128.449574 226.900025 
L 128.550181 226.746407 
L 128.613618 226.6413 
L 128.723642 226.511938 
L 128.798973 226.406832 
L 128.897598 226.237044 
L 128.98978 226.131937 
L 129.100795 225.99449 
L 129.190995 225.889383 
L 129.279212 225.776192 
L 129.350083 225.67917 
L 129.452673 225.493212 
L 129.5285 225.388105 
L 129.634559 225.250658 
L 129.717324 225.145552 
L 129.815453 224.991934 
L 129.86997 224.886827 
L 129.968099 224.741295 
L 130.040952 224.636188 
L 130.136108 224.43406 
L 130.194589 224.328954 
L 130.293709 224.207677 
L 130.377962 224.10257 
L 130.485508 223.900442 
L 130.558361 223.795335 
L 130.665907 223.593207 
L 130.720919 223.4881 
L 130.828464 223.277887 
L 130.892892 223.17278 
L 130.989535 223.027248 
L 131.132268 222.922141 
L 131.241796 222.768524 
L 131.322084 222.679587 
L 131.431612 222.55831 
L 131.512395 222.453204 
L 131.620436 222.24299 
L 131.695272 222.137884 
L 131.806287 221.935755 
L 131.863777 221.830649 
L 131.970827 221.604265 
L 132.022865 221.499158 
L 132.13388 221.353626 
L 132.201282 221.248519 
L 132.311801 221.078732 
L 132.361362 220.973625 
L 132.465438 220.836178 
L 132.521937 220.731071 
L 132.630969 220.601709 
L 132.708779 220.496602 
L 132.807403 220.359155 
L 132.877779 220.262134 
L 132.988298 220.076176 
L 133.09287 219.971069 
L 133.200416 219.777026 
L 133.271783 219.680004 
L 133.381806 219.469791 
L 133.507689 219.364684 
L 133.617713 219.186811 
L 133.709399 219.081705 
L 133.818927 218.903832 
L 133.880382 218.798725 
L 133.979007 218.637023 
L 134.065242 218.531916 
L 134.1713 218.313617 
L 134.284793 218.208511 
L 134.395808 218.030638 
L 134.485017 217.925531 
L 134.583641 217.731488 
L 134.739756 217.626381 
L 134.847797 217.464679 
L 134.937997 217.367657 
L 135.048516 217.189785 
L 135.139211 217.084678 
L 135.249235 216.995741 
L 135.306725 216.89872 
L 135.411793 216.696592 
L 135.5124 216.591485 
L 135.605573 216.389357 
L 135.692303 216.28425 
L 135.802823 216.033611 
L 135.962407 215.928504 
L 136.066483 215.766802 
L 136.108114 215.661695 
L 136.215659 215.499993 
L 136.292478 215.394886 
L 136.40151 215.176587 
L 136.462469 215.071481 
L 136.572493 214.917863 
L 136.663684 214.812757 
L 136.7633 214.642969 
L 136.830206 214.545947 
L 136.934778 214.327649 
L 136.996728 214.222542 
L 137.100805 214.117435 
L 137.159286 214.012329 
L 137.268318 213.891052 
L 137.355049 213.785945 
L 137.456151 213.599987 
L 137.544369 213.49488 
L 137.625647 213.414029 
L 137.702961 213.333178 
L 137.810507 213.114879 
L 137.918548 213.009773 
L 138.01866 212.896581 
L 138.103903 212.791474 
L 138.213927 212.573176 
L 138.305118 212.468069 
L 138.416133 212.241685 
L 138.490473 212.136579 
L 138.570761 212.023387 
L 138.719937 211.91828 
L 138.82996 211.748493 
L 138.893398 211.643386 
L 139.000448 211.441258 
L 139.065867 211.336151 
L 139.175395 211.206789 
L 139.261134 211.109767 
L 139.346378 210.996576 
L 139.451446 210.891469 
L 139.55354 210.705511 
L 139.659103 210.600404 
L 139.763675 210.382106 
L 139.837024 210.276999 
L 139.934658 210.139552 
L 140.053602 210.034445 
L 140.164121 209.824232 
L 140.248374 209.719125 
L 140.354433 209.597848 
L 140.440667 209.492742 
L 140.548213 209.347209 
L 140.657245 209.242103 
L 140.766774 209.088485 
L 140.849539 208.983378 
L 140.956094 208.813591 
L 141.084455 208.708484 
L 141.193487 208.514441 
L 141.318379 208.409334 
L 141.427907 208.271887 
L 141.493326 208.174866 
L 141.594925 207.964652 
L 141.69008 207.859545 
L 141.799608 207.705928 
L 141.89179 207.600821 
L 142.002805 207.463374 
L 142.067234 207.358267 
L 142.176762 207.253161 
L 142.227809 207.148054 
L 142.335354 207.002522 
L 142.409695 206.897415 
L 142.511293 206.743798 
L 142.654026 206.638691 
L 142.763059 206.509329 
L 142.93652 206.404222 
L 143.039605 206.218264 
L 143.105024 206.113158 
L 143.213561 205.999966 
L 143.281459 205.894859 
L 143.389996 205.676561 
L 143.487629 205.579539 
L 143.581298 205.385496 
L 143.65316 205.280389 
L 143.761202 205.045921 
L 143.83802 204.940814 
L 143.948044 204.771026 
L 144.00256 204.665919 
L 144.106141 204.520387 
L 144.188411 204.41528 
L 144.299425 204.172727 
L 144.357907 204.06762 
L 144.462479 203.881662 
L 144.53781 203.78464 
L 144.643869 203.590597 
L 144.696403 203.485491 
L 144.795028 203.291448 
L 144.884236 203.186341 
L 144.99426 203.016553 
L 145.07306 202.911446 
L 145.170198 202.80634 
L 145.268823 202.701233 
L 145.370917 202.563786 
L 145.417504 202.458679 
L 145.525545 202.248466 
L 145.629622 202.143359 
L 145.73568 201.973571 
L 145.826871 201.868465 
L 145.92847 201.747188 
L 146.003306 201.650166 
L 146.109364 201.472293 
L 146.24962 201.367187 
L 146.359644 201.237825 
L 146.455295 201.132718 
L 146.56631 201.027611 
L 146.659978 200.922505 
L 146.740266 200.768887 
L 146.853263 200.663781 
L 146.950401 200.550589 
L 147.078762 200.445482 
L 147.189281 200.324205 
L 147.267091 200.219098 
L 147.37761 200.081651 
L 147.507458 199.976545 
L 147.611039 199.766331 
L 147.697769 199.661225 
L 147.807297 199.507607 
L 147.904931 199.4025 
L 148.008512 199.273138 
L 148.066993 199.168032 
L 148.112588 199.103351 
L 148.239958 198.998244 
L 148.350973 198.836541 
L 148.409949 198.731435 
L 148.514522 198.610158 
L 148.638918 198.505051 
L 148.746463 198.367604 
L 148.863921 198.262497 
L 148.967997 198.084624 
L 149.038869 197.979518 
L 149.132042 197.850156 
L 149.238596 197.745049 
L 149.345151 197.607602 
L 149.459139 197.502495 
L 149.56272 197.373133 
L 149.708427 197.268026 
L 149.808043 197.114409 
L 149.895765 197.009302 
L 149.985964 196.888025 
L 150.096979 196.782919 
L 150.207003 196.653556 
L 150.319009 196.54845 
L 150.426555 196.378662 
L 150.491974 196.273555 
L 150.59952 196.152278 
L 150.715491 196.047172 
L 150.822045 195.942065 
L 150.906793 195.836958 
L 151.016321 195.715682 
L 151.068359 195.61866 
L 151.175409 195.448872 
L 151.272052 195.343766 
L 151.376624 195.222489 
L 151.489125 195.117382 
L 151.594689 194.979935 
L 151.642762 194.874828 
L 151.741883 194.713126 
L 151.824153 194.608019 
L 151.929716 194.510997 
L 151.991666 194.405891 
L 152.100203 194.284614 
L 152.208244 194.179507 
L 152.316285 193.993549 
L 152.386165 193.888442 
L 152.495198 193.710569 
L 152.58738 193.605463 
L 152.695421 193.476101 
L 152.808914 193.370994 
L 152.903574 193.233547 
L 152.995756 193.12844 
L 153.091903 193.031419 
L 153.151375 192.934397 
L 153.255947 192.756524 
L 153.382326 192.651418 
L 153.486402 192.51397 
L 153.607329 192.408864 
L 153.71091 192.255246 
L 153.803587 192.15014 
L 153.894283 192.077373 
L 154.043459 191.972267 
L 154.148526 191.786309 
L 154.212459 191.681202 
L 154.319509 191.56801 
L 154.408718 191.462904 
L 154.511803 191.341627 
L 154.568797 191.23652 
L 154.670891 191.050562 
L 154.779428 190.945455 
L 154.885982 190.840349 
L 154.979156 190.735242 
L 155.080258 190.573539 
L 155.150634 190.468433 
L 155.25818 190.266304 
L 155.305262 190.169283 
L 155.41479 190.072261 
L 155.469306 189.967155 
L 155.575861 189.773112 
L 155.691336 189.668005 
L 155.777075 189.506302 
L 155.936659 189.401196 
L 156.037266 189.223323 
L 156.156706 189.118216 
L 156.257809 188.996939 
L 156.336114 188.891833 
L 156.442669 188.778641 
L 156.523947 188.673534 
L 156.630998 188.544172 
L 156.750438 188.439065 
L 156.859966 188.317788 
L 156.968998 188.212682 
L 157.064649 188.010553 
L 157.136016 187.905447 
L 157.243562 187.768 
L 157.383817 187.662893 
L 157.479964 187.541616 
L 157.620219 187.436509 
L 157.730243 187.323317 
L 157.83878 187.218211 
L 157.948308 187.113104 
L 158.026613 187.007997 
L 158.123751 186.87055 
L 158.244678 186.765444 
L 158.35371 186.579486 
L 158.517755 186.474379 
L 158.610928 186.320761 
L 158.744245 186.215655 
L 158.854764 186.053952 
L 158.939017 185.948846 
L 159.045075 185.787143 
L 159.115451 185.682036 
L 159.223988 185.57693 
L 159.339959 185.471823 
L 159.447504 185.350546 
L 159.582804 185.245439 
L 159.692332 185.091822 
L 159.780053 184.986715 
L 159.887599 184.833098 
L 159.978294 184.727991 
L 160.084353 184.550118 
L 160.149277 184.461182 
L 160.255831 184.36416 
L 160.357925 184.259054 
L 160.467949 184.121606 
L 160.526926 184.0165 
L 160.635958 183.838627 
L 160.70336 183.73352 
L 160.812888 183.604158 
L 160.883264 183.507137 
L 160.990314 183.321179 
L 161.099842 183.216072 
L 161.205405 183.110965 
L 161.308986 183.005859 
L 161.419505 182.892667 
L 161.51367 182.78756 
L 161.622702 182.650113 
L 161.711415 182.545006 
L 161.819952 182.423729 
L 161.884876 182.318623 
L 161.992421 182.181175 
L 162.108392 182.076069 
L 162.210486 181.970962 
L 162.325962 181.865855 
L 162.432516 181.712238 
L 162.561868 181.607131 
L 162.664458 181.485854 
L 162.829493 181.380748 
L 162.934561 181.19479 
L 163.027239 181.097768 
L 163.137758 180.960321 
L 163.245303 180.855214 
L 163.326582 180.725852 
L 163.500539 180.620745 
L 163.611553 180.56415 
L 163.696301 180.459043 
L 163.795917 180.370106 
L 163.955501 180.273085 
L 164.064534 180.176063 
L 164.127971 180.070957 
L 164.23849 179.933509 
L 164.312335 179.828403 
L 164.404021 179.715211 
L 164.487282 179.610104 
L 164.586403 179.488827 
L 164.718233 179.383721 
L 164.810911 179.270529 
L 164.900615 179.165422 
L 164.982884 179.084571 
L 165.154858 178.979464 
L 165.25943 178.842017 
L 165.405633 178.73691 
L 165.511692 178.615633 
L 165.604865 178.510527 
L 165.71142 178.356909 
L 165.799141 178.251803 
L 165.904704 178.170951 
L 166.105919 178.065845 
L 166.216438 177.960738 
L 166.312585 177.863716 
L 166.422113 177.702014 
L 166.570298 177.596907 
L 166.659506 177.483715 
L 166.792823 177.378609 
L 166.902847 177.257332 
L 166.99949 177.152225 
L 167.106044 177.063289 
L 167.212598 176.958182 
L 167.322127 176.820735 
L 167.393493 176.715628 
L 167.50203 176.642862 
L 167.63386 176.537755 
L 167.74438 176.416478 
L 167.884635 176.311372 
L 167.99565 176.133499 
L 168.084858 176.028392 
L 168.183979 175.923285 
L 168.3168 175.818179 
L 168.39907 175.745413 
L 168.521484 175.640306 
L 168.627543 175.519029 
L 168.778206 175.413922 
L 168.881786 175.30073 
L 169.02452 175.195624 
L 169.134048 175.074347 
L 169.206901 174.96924 
L 169.316925 174.839878 
L 169.451233 174.734771 
L 169.562248 174.62158 
L 169.664342 174.516473 
L 169.775357 174.379026 
L 169.896284 174.273919 
L 170.002343 174.136472 
L 170.137147 174.031365 
L 170.237258 173.893918 
L 170.349264 173.788811 
L 170.460279 173.627109 
L 170.600535 173.522002 
L 170.709567 173.40881 
L 170.796793 173.303704 
L 170.898887 173.190512 
L 171.013867 173.085405 
L 171.124882 172.939873 
L 171.22202 172.834766 
L 171.328078 172.770085 
L 171.427199 172.673063 
L 171.535736 172.527531 
L 171.632378 172.422424 
L 171.73695 172.260722 
L 171.875223 172.155615 
L 171.983264 172.018168 
L 172.102705 171.913061 
L 172.200834 171.824125 
L 172.352984 171.719018 
L 172.463503 171.605826 
L 172.552216 171.508805 
L 172.659761 171.355187 
L 172.821823 171.250081 
L 172.929865 171.047953 
L 173.022542 170.942846 
L 173.126619 170.845824 
L 173.186586 170.740718 
L 173.292645 170.579015 
L 173.449751 170.473908 
L 173.544411 170.360717 
L 173.702013 170.25561 
L 173.797168 170.126248 
L 173.920078 170.021141 
L 174.018702 169.94029 
L 174.147063 169.835183 
L 174.256591 169.649225 
L 174.445911 169.544118 
L 174.541067 169.430927 
L 174.637214 169.32582 
L 174.730883 169.188373 
L 174.836942 169.083266 
L 174.944487 168.945819 
L 175.038652 168.840712 
L 175.149171 168.687095 
L 175.259195 168.581988 
L 175.35435 168.428371 
L 175.502535 168.323264 
L 175.60116 168.193902 
L 175.706723 168.088795 
L 175.817738 167.983689 
L 175.900999 167.878582 
L 175.957002 167.797731 
L 176.117082 167.692624 
L 176.209759 167.627943 
L 176.362405 167.522836 
L 176.472924 167.377304 
L 176.553707 167.272197 
L 176.641429 167.191346 
L 176.783171 167.086239 
L 176.893195 166.989218 
L 177.034937 166.884111 
L 177.141491 166.811345 
L 177.235656 166.706238 
L 177.341715 166.584961 
L 177.459668 166.479855 
L 177.566222 166.382833 
L 177.639572 166.277726 
L 177.733736 166.156449 
L 177.897285 166.051343 
L 177.997396 165.881555 
L 178.103951 165.776448 
L 178.214966 165.639001 
L 178.33391 165.533894 
L 178.435013 165.436873 
L 178.517778 165.331766 
L 178.623342 165.186234 
L 178.758146 165.081127 
L 178.862718 164.992191 
L 178.986618 164.887084 
L 179.092181 164.830488 
L 179.269111 164.725382 
L 179.370214 164.587934 
L 179.486185 164.482828 
L 179.595713 164.34538 
L 179.675505 164.240274 
L 179.777599 164.159422 
L 179.93867 164.054316 
L 180.046215 163.949209 
L 180.130963 163.844102 
L 180.239996 163.6824 
L 180.330195 163.577293 
L 180.42436 163.464101 
L 180.575518 163.358995 
L 180.686038 163.245803 
L 180.83224 163.140696 
L 180.912032 163.043675 
L 181.059722 162.938568 
L 181.160329 162.865802 
L 181.294637 162.760695 
L 181.4002 162.639418 
L 181.537978 162.534312 
L 181.629169 162.42112 
L 181.744644 162.316013 
L 181.845747 162.259417 
L 181.973116 162.15431 
L 182.084131 161.960267 
L 182.192668 161.855161 
L 182.286337 161.741969 
L 182.510845 161.636862 
L 182.61839 161.49133 
L 182.773514 161.386223 
L 182.881555 161.281117 
L 182.98811 161.17601 
L 183.096646 161.046648 
L 183.221043 160.941541 
L 183.324128 160.852605 
L 183.453976 160.755583 
L 183.55607 160.618136 
L 183.710202 160.513029 
L 183.807836 160.424093 
L 183.98873 160.318986 
L 184.096276 160.189624 
L 184.222159 160.092603 
L 184.324749 159.971326 
L 184.446171 159.866219 
L 184.532901 159.744942 
L 184.670679 159.639835 
L 184.759887 159.583239 
L 184.903116 159.478133 
L 184.974979 159.381111 
L 185.146457 159.276004 
L 185.232196 159.162813 
L 185.382859 159.057706 
L 185.487431 158.904089 
L 185.608358 158.798982 
L 185.716399 158.65345 
L 185.838317 158.548343 
L 185.946359 158.418981 
L 186.034576 158.313874 
L 186.135183 158.224938 
L 186.267013 158.119831 
L 186.376046 158.006639 
L 186.504407 157.909618 
L 186.608483 157.77217 
L 186.775005 157.667064 
L 186.884038 157.513446 
L 187.0461 157.40834 
L 187.153645 157.311318 
L 187.281511 157.206211 
L 187.391534 157.09302 
L 187.489168 156.987913 
L 187.594731 156.890891 
L 187.721606 156.785785 
L 187.825682 156.672593 
L 187.953052 156.567486 
L 188.042756 156.446209 
L 188.196888 156.341103 
L 188.278167 156.235996 
L 188.454601 156.130889 
L 188.56512 156.033868 
L 188.640947 155.936846 
L 188.751962 155.783229 
L 188.888749 155.678122 
L 188.978452 155.589186 
L 189.154391 155.484079 
L 189.264911 155.387057 
L 189.435893 155.281951 
L 189.546908 155.176844 
L 189.649002 155.071737 
L 189.754565 155.015141 
L 189.909193 154.910035 
L 190.00534 154.813013 
L 190.166906 154.707907 
L 190.274948 154.610885 
L 190.383485 154.505778 
L 190.482605 154.400672 
L 190.655074 154.295565 
L 190.761133 154.133862 
L 190.896928 154.028756 
L 190.979198 153.923649 
L 191.176944 153.818542 
L 191.269621 153.745776 
L 191.434657 153.640669 
L 191.536751 153.519393 
L 191.727062 153.414286 
L 191.830147 153.268754 
L 191.93125 153.163647 
L 192.036813 153.090881 
L 192.241497 152.985774 
L 192.312368 152.896838 
L 192.461544 152.791731 
L 192.537371 152.694709 
L 192.698938 152.589603 
L 192.786164 152.549177 
L 192.987378 152.44407 
L 193.098393 152.322793 
L 193.237162 152.217687 
L 193.347681 152.136835 
L 193.535514 152.031729 
L 193.593499 151.999388 
L 193.838327 151.902367 
L 193.944881 151.805345 
L 194.145105 151.700238 
L 194.245712 151.595132 
L 194.433049 151.490025 
L 194.542082 151.368748 
L 194.652106 151.271727 
L 194.761634 151.18279 
L 194.89049 151.077684 
L 194.97276 150.988747 
L 195.091209 150.88364 
L 195.201728 150.810874 
L 195.367259 150.705768 
L 195.471832 150.624916 
L 195.583342 150.51981 
L 195.690392 150.414703 
L 195.7796 150.309596 
L 195.850472 150.253 
L 196.033349 150.147894 
L 196.143868 150.067042 
L 196.287593 149.961936 
L 196.396129 149.816403 
L 196.492276 149.711297 
L 196.598335 149.581935 
L 196.688039 149.476828 
L 196.794594 149.355551 
L 196.911556 149.250444 
L 197.011172 149.153423 
L 197.235679 149.048316 
L 197.345208 148.943209 
L 197.526102 148.838103 
L 197.624727 148.765337 
L 197.716414 148.66023 
L 197.797197 148.595549 
L 197.945877 148.490442 
L 198.047971 148.425761 
L 198.142136 148.320655 
L 198.244725 148.199378 
L 198.38052 148.094271 
L 198.446435 147.981079 
L 198.615931 147.875972 
L 198.720008 147.811291 
L 198.899416 147.706185 
L 198.9688 147.617248 
L 199.091709 147.512142 
L 199.201237 147.407035 
L 199.304818 147.301928 
L 199.406417 147.212992 
L 199.546177 147.107885 
L 199.645297 147.010864 
L 199.7915 146.905757 
L 199.899541 146.76831 
L 200.04723 146.663203 
L 200.149324 146.533841 
L 200.276199 146.428734 
L 200.379284 146.364053 
L 200.607756 146.258947 
L 200.714311 146.18618 
L 200.861009 146.089159 
L 200.96905 145.975967 
L 201.124174 145.87086 
L 201.213878 145.773839 
L 201.372966 145.668732 
L 201.482494 145.579796 
L 201.631175 145.474689 
L 201.731286 145.377668 
L 201.82446 145.272561 
L 201.933492 145.183624 
L 202.03509 145.078518 
L 202.143132 145.013837 
L 202.290326 144.90873 
L 202.398862 144.819794 
L 202.529701 144.714687 
L 202.628326 144.650006 
L 202.791379 144.544899 
L 202.899916 144.415537 
L 202.991107 144.31043 
L 203.102122 144.189154 
L 203.324152 144.084047 
L 203.428724 143.99511 
L 203.608627 143.890004 
L 203.716668 143.841493 
L 203.941672 143.736386 
L 204.034349 143.67979 
L 204.163206 143.574684 
L 204.251919 143.510003 
L 204.505667 143.404896 
L 204.61123 143.291704 
L 204.794603 143.194683 
L 204.89521 143.105746 
L 205.089486 143.00064 
L 205.18712 142.863192 
L 205.411628 142.758086 
L 205.511244 142.661064 
L 205.76747 142.555957 
L 205.867582 142.450851 
L 206.004863 142.345744 
L 206.111418 142.216382 
L 206.279427 142.111275 
L 206.389451 141.981913 
L 206.543583 141.876807 
L 206.65212 141.795955 
L 206.833015 141.690849 
L 206.934117 141.618082 
L 207.116003 141.512976 
L 207.227018 141.432124 
L 207.379168 141.327018 
L 207.479775 141.205741 
L 207.621518 141.100634 
L 207.722125 140.947017 
L 207.918383 140.84191 
L 208.016017 140.728718 
L 208.135457 140.623612 
L 208.240029 140.534675 
L 208.346088 140.429568 
L 208.436783 140.356802 
L 208.549285 140.251696 
L 208.654848 140.138504 
L 208.786678 140.033397 
L 208.892737 139.936376 
L 209.034975 139.831269 
L 209.128148 139.742332 
L 209.323911 139.637226 
L 209.43443 139.524034 
L 209.540985 139.418927 
L 209.640601 139.313821 
L 209.776396 139.216799 
L 209.847267 139.144033 
L 210.005859 139.038926 
L 210.113901 138.96616 
L 210.238792 138.861053 
L 210.331966 138.780202 
L 210.443972 138.675095 
L 210.548544 138.610414 
L 210.673435 138.505308 
L 210.780486 138.408286 
L 210.954937 138.311265 
L 211.030269 138.246584 
L 211.235448 138.141477 
L 211.31078 138.084881 
L 211.538757 137.979774 
L 211.630939 137.923178 
L 211.786062 137.818072 
L 211.887165 137.73722 
L 212.028412 137.632114 
L 212.110186 137.559348 
L 212.23706 137.454241 
L 212.343119 137.37339 
L 212.510633 137.268283 
L 212.617683 137.163176 
L 212.791143 137.05807 
L 212.864988 136.993389 
L 213.041918 136.888282 
L 213.151942 136.767005 
L 213.286745 136.661898 
L 213.389335 136.597217 
L 213.563787 136.492111 
L 213.674306 136.362749 
L 213.787304 136.257642 
L 213.884937 136.184876 
L 214.070788 136.079769 
L 214.16297 135.958492 
L 214.279932 135.861471 
L 214.372114 135.764449 
L 214.585719 135.659342 
L 214.695742 135.49764 
L 214.800314 135.392533 
L 214.901913 135.295511 
L 215.019866 135.19849 
L 215.098171 135.117639 
L 215.319705 135.012532 
L 215.421799 134.91551 
L 215.531327 134.810404 
L 215.619545 134.753808 
L 215.797466 134.648701 
L 215.906003 134.543594 
L 216.030894 134.438488 
L 216.13844 134.381892 
L 216.258376 134.276785 
L 216.367408 134.187849 
L 216.575066 134.082742 
L 216.672204 134.034231 
L 216.805025 133.929125 
L 216.915544 133.832103 
L 217.037462 133.726996 
L 217.147486 133.629975 
L 217.27436 133.524868 
L 217.375463 133.427847 
L 217.500355 133.32274 
L 217.61137 133.209548 
L 217.748651 133.104441 
L 217.846781 132.999335 
L 218.030153 132.894228 
L 218.120353 132.781036 
L 218.265564 132.67593 
L 218.376579 132.595078 
L 218.620911 132.489972 
L 218.731926 132.384865 
L 218.840463 132.279758 
L 218.94553 132.198907 
L 219.118991 132.0938 
L 219.228024 132.037204 
L 219.436672 131.932098 
L 219.544713 131.802736 
L 219.753858 131.697629 
L 219.860908 131.600607 
L 220.111187 131.495501 
L 220.218237 131.414649 
L 220.378316 131.309543 
L 220.457117 131.269117 
L 220.602328 131.16401 
L 220.71037 131.099329 
L 220.861528 130.994223 
L 220.958666 130.929542 
L 221.100409 130.824435 
L 221.204981 130.751669 
L 221.465667 130.646562 
L 221.574204 130.557626 
L 221.717929 130.452519 
L 221.810606 130.331242 
L 222.067328 130.226136 
L 222.148111 130.16954 
L 222.390956 130.072518 
L 222.46827 129.991667 
L 222.697239 129.88656 
L 222.784465 129.821879 
L 222.929676 129.716772 
L 223.040691 129.619751 
L 223.184415 129.514644 
L 223.276597 129.425708 
L 223.458979 129.320601 
L 223.569003 129.215494 
L 223.78905 129.110388 
L 223.898083 129.069962 
L 224.024957 128.964855 
L 224.125564 128.867834 
L 224.34016 128.762727 
L 224.44721 128.706131 
L 224.626122 128.601025 
L 224.737137 128.504003 
L 224.893252 128.398896 
L 224.995841 128.30996 
L 225.218862 128.204853 
L 225.310053 128.140172 
L 225.46022 128.035066 
L 225.549924 127.954214 
L 225.798717 127.849108 
L 225.891394 127.768256 
L 226.102521 127.66315 
L 226.192225 127.614639 
L 226.328515 127.509532 
L 226.429618 127.412511 
L 226.677419 127.307404 
L 226.787938 127.226553 
L 226.99064 127.121446 
L 227.08976 127.016339 
L 227.273133 126.911233 
L 227.379687 126.830381 
L 227.49665 126.725275 
L 227.606673 126.644423 
L 227.828207 126.539317 
L 227.936249 126.46655 
L 228.255912 126.361444 
L 228.359493 126.272507 
L 228.556247 126.167401 
L 228.663793 126.070379 
L 228.828332 125.965272 
L 228.920514 125.876336 
L 229.171289 125.771229 
L 229.277348 125.698463 
L 229.492935 125.593357 
L 229.593542 125.512505 
L 229.718434 125.407399 
L 229.826971 125.318462 
L 230.031654 125.213355 
L 230.140191 125.164845 
L 230.344875 125.059738 
L 230.450438 124.954631 
L 230.585738 124.849525 
L 230.691301 124.792929 
L 230.81421 124.687822 
L 230.903914 124.615056 
L 231.117023 124.509949 
L 231.190372 124.437183 
L 231.379197 124.332076 
L 231.487733 124.210799 
L 231.680523 124.105693 
L 231.791042 124.024841 
L 232.050737 123.919735 
L 232.149858 123.855054 
L 232.362471 123.749947 
L 232.46407 123.62867 
L 232.742598 123.523563 
L 232.810495 123.475053 
L 232.990399 123.369946 
L 233.091502 123.272924 
L 233.252573 123.167818 
L 233.322948 123.119307 
L 233.543491 123.0142 
L 233.625761 122.933349 
L 233.882978 122.828242 
L 233.990524 122.723136 
L 234.215032 122.618029 
L 234.315144 122.512922 
L 234.446478 122.407816 
L 234.545599 122.262283 
L 234.739875 122.157177 
L 234.849403 122.019729 
L 235.058547 121.914623 
L 235.152216 121.817601 
L 235.357395 121.712495 
L 235.453046 121.615473 
L 235.656738 121.510366 
L 235.764284 121.397174 
L 235.944188 121.292068 
L 236.04876 121.211217 
L 236.192484 121.10611 
L 236.294083 121.025259 
L 236.452675 120.920152 
L 236.556256 120.863556 
L 236.678174 120.758449 
L 236.783242 120.677598 
L 236.990404 120.572491 
L 237.084073 120.515895 
L 237.228293 120.410789 
L 237.3289 120.346108 
L 237.50583 120.241001 
L 237.594543 120.17632 
L 237.778411 120.071213 
L 237.873567 119.990362 
L 238.125333 119.885255 
L 238.224949 119.788234 
L 238.454908 119.683127 
L 238.557498 119.594191 
L 238.780519 119.489084 
L 238.883108 119.408233 
L 239.148751 119.303126 
L 239.231517 119.198019 
L 239.465936 119.092913 
L 239.568526 119.003976 
L 239.821779 118.89887 
L 239.907518 118.801848 
L 240.098325 118.696741 
L 240.190507 118.63206 
L 240.266829 118.526954 
L 240.369419 118.486528 
L 240.521073 118.389506 
L 240.617716 118.2844 
L 240.760945 118.179293 
L 240.858083 118.122697 
L 241.02064 118.017591 
L 241.125708 117.928654 
L 241.327914 117.823547 
L 241.436946 117.758866 
L 241.642621 117.65376 
L 241.727864 117.548653 
L 241.956337 117.443546 
L 242.053971 117.37078 
L 242.226936 117.265673 
L 242.323083 117.200992 
L 242.512898 117.095886 
L 242.614497 117.006949 
L 242.867254 116.901843 
L 242.975791 116.820991 
L 243.136861 116.715885 
L 243.243416 116.643119 
L 243.409442 116.538012 
L 243.517484 116.40865 
L 243.667651 116.303543 
L 243.776188 116.222692 
L 243.987315 116.117585 
L 244.08247 116.020564 
L 244.248001 115.915457 
L 244.293101 115.875031 
L 244.581542 115.769925 
L 244.692061 115.656733 
L 244.90963 115.551626 
L 245.018167 115.438434 
L 245.152971 115.333328 
L 245.260021 115.284817 
L 245.440916 115.17971 
L 245.548461 115.090774 
L 245.756119 114.985667 
L 245.857221 114.904816 
L 246.035638 114.799709 
L 246.143679 114.694602 
L 246.345885 114.589496 
L 246.443023 114.484389 
L 246.628874 114.379282 
L 246.735924 114.290346 
L 246.857346 114.185239 
L 246.94259 114.112473 
L 247.118033 114.007366 
L 247.216658 113.942685 
L 247.529383 113.837579 
L 247.593811 113.797153 
L 247.850533 113.692046 
L 247.947671 113.61928 
L 248.107255 113.514174 
L 248.194481 113.441407 
L 248.389748 113.336301 
L 248.494816 113.247364 
L 248.634576 113.142258 
L 248.745095 113.077577 
L 248.95077 112.97247 
L 249.048899 112.899704 
L 249.274894 112.794597 
L 249.37451 112.721831 
L 249.548466 112.616724 
L 249.653038 112.552043 
L 249.860695 112.446937 
L 249.960807 112.390341 
L 250.205634 112.285234 
L 250.309215 112.204383 
L 250.547104 112.099276 
L 250.65465 112.04268 
L 250.886592 111.937573 
L 250.988686 111.848637 
L 251.241443 111.74353 
L 251.341554 111.686934 
L 251.527901 111.581828 
L 251.623056 111.484806 
L 251.854998 111.379699 
L 251.941729 111.323104 
L 252.151864 111.217997 
L 252.184574 111.185656 
L 252.474997 111.08055 
L 252.576595 111.007784 
L 252.70446 110.902677 
L 252.795651 110.837996 
L 253.050391 110.732889 
L 253.161405 110.660123 
L 253.359646 110.555016 
L 253.470166 110.474165 
L 253.682283 110.369058 
L 253.750181 110.304377 
L 253.933554 110.199271 
L 254.031187 110.110334 
L 254.262633 110.005228 
L 254.372657 109.916291 
L 254.649203 109.811184 
L 254.743863 109.738418 
L 254.94706 109.633312 
L 255.037755 109.584801 
L 255.200808 109.479694 
L 255.309345 109.431183 
L 255.478345 109.326077 
L 255.553181 109.277566 
L 255.744979 109.172459 
L 255.825762 109.123948 
L 255.982868 109.018842 
L 256.086945 108.962246 
L 256.256441 108.857139 
L 256.367456 108.695437 
L 256.505233 108.59033 
L 256.615752 108.509479 
L 256.791691 108.404372 
L 256.892298 108.29118 
L 257.14456 108.186073 
L 257.222369 108.137563 
L 257.595558 108.032456 
L 257.666429 107.951605 
L 257.845341 107.846498 
L 257.941488 107.749476 
L 258.147658 107.64437 
L 258.248761 107.595859 
L 258.510439 107.490752 
L 258.618976 107.417986 
L 258.907912 107.31288 
L 258.970358 107.248198 
L 259.187432 107.143092 
L 259.293491 107.054155 
L 259.482315 106.949049 
L 259.56855 106.868197 
L 259.740028 106.763091 
L 259.831219 106.682239 
L 260.046806 106.577133 
L 260.151378 106.504367 
L 260.279739 106.39926 
L 260.382824 106.342664 
L 260.660857 106.237557 
L 260.767411 106.180961 
L 261.075676 106.075855 
L 261.172814 105.978833 
L 261.40872 105.881812 
L 261.489008 105.833301 
L 261.683284 105.728194 
L 261.791325 105.687769 
L 261.948431 105.582662 
L 262.039126 105.501811 
L 262.265616 105.396704 
L 262.349869 105.332023 
L 262.583793 105.226916 
L 262.692826 105.17032 
L 262.866286 105.065214 
L 262.963424 105.032873 
L 263.198835 104.927766 
L 263.265742 104.903511 
L 263.625053 104.798404 
L 263.714261 104.725638 
L 263.89813 104.620532 
L 264.002206 104.53968 
L 264.40414 104.434574 
L 264.499791 104.377978 
L 264.796657 104.272871 
L 264.902715 104.22436 
L 265.259053 104.119254 
L 265.365112 104.030317 
L 265.596558 103.92521 
L 265.702617 103.836274 
L 265.966773 103.731167 
L 266.052512 103.674571 
L 266.333519 103.569465 
L 266.399929 103.537124 
L 266.641288 103.432018 
L 266.744868 103.334996 
L 266.949552 103.229889 
L 267.056602 103.140953 
L 267.308368 103.035846 
L 267.349503 102.987335 
L 267.601765 102.882229 
L 267.699894 102.841803 
L 267.910029 102.736696 
L 268.017079 102.672015 
L 268.315927 102.566909 
L 268.412074 102.526483 
L 268.700019 102.421376 
L 268.809051 102.356695 
L 268.997876 102.251589 
L 269.094023 102.178823 
L 269.402287 102.073716 
L 269.464733 102.01712 
L 269.819088 101.912013 
L 269.92713 101.806907 
L 270.150646 101.7018 
L 270.245306 101.645204 
L 270.46684 101.540097 
L 270.576864 101.451161 
L 270.724058 101.346054 
L 270.814753 101.289458 
L 271.001595 101.184352 
L 271.110628 101.143926 
L 271.37181 101.038819 
L 271.458045 100.990309 
L 271.78762 100.885202 
L 271.878315 100.828606 
L 272.209873 100.723499 
L 272.320888 100.642648 
L 272.508721 100.537541 
L 272.579592 100.489031 
L 272.992429 100.383924 
L 273.09601 100.335413 
L 273.378503 100.230306 
L 273.450861 100.15754 
L 273.702131 100.052434 
L 273.807694 99.987753 
L 274.067885 99.882646 
L 274.126862 99.82605 
L 274.352361 99.720943 
L 274.455942 99.688603 
L 274.776596 99.583496 
L 274.87423 99.5269 
L 275.131943 99.421793 
L 275.236515 99.373283 
L 275.504636 99.268176 
L 275.598305 99.22775 
L 275.821821 99.122644 
L 275.925402 99.041792 
L 276.17023 98.936686 
L 276.27381 98.872005 
L 276.448262 98.766898 
L 276.514673 98.726472 
L 276.755536 98.621366 
L 276.859117 98.58094 
L 277.176302 98.475833 
L 277.261546 98.443493 
L 277.461769 98.338386 
L 277.572288 98.289875 
L 277.873119 98.184769 
L 277.951919 98.120088 
L 278.246803 98.014981 
L 278.334524 97.942215 
L 278.778088 97.837108 
L 278.888112 97.788597 
L 279.217687 97.683491 
L 279.327711 97.594554 
L 279.567582 97.489448 
L 279.677606 97.449022 
L 279.91153 97.343915 
L 279.970507 97.295405 
L 280.40515 97.190298 
L 280.498323 97.109447 
L 280.801136 97.00434 
L 280.872007 96.931574 
L 281.086603 96.842637 
L 281.18721 96.794127 
L 281.363644 96.68902 
L 281.455826 96.608169 
L 281.793827 96.503062 
L 281.902859 96.438381 
L 282.110021 96.333274 
L 282.209142 96.276678 
L 282.453969 96.171572 
L 282.541195 96.082635 
L 282.945111 95.977528 
L 283.008548 95.937103 
L 283.316812 95.831996 
L 283.424358 95.7754 
L 283.609218 95.670294 
L 283.718746 95.597527 
L 283.94474 95.492421 
L 284.032462 95.411569 
L 284.353116 95.306463 
L 284.430926 95.233697 
L 284.609838 95.12859 
L 284.682692 95.096249 
L 284.88688 94.991143 
L 284.99393 94.950717 
L 285.348781 94.84561 
L 285.4142 94.805185 
L 285.662497 94.700078 
L 285.772025 94.643482 
L 285.942017 94.538375 
L 286.043615 94.473694 
L 286.308762 94.368588 
L 286.410361 94.295822 
L 286.650232 94.190715 
L 286.731015 94.101779 
L 286.980303 93.996672 
L 287.061086 93.956246 
L 287.373811 93.85114 
L 287.482844 93.754118 
L 287.70636 93.649011 
L 287.814402 93.608586 
L 288.161819 93.503479 
L 288.252018 93.454968 
L 288.494863 93.349862 
L 288.579116 93.301351 
L 289.0316 93.196244 
L 289.123782 93.131563 
L 289.502918 93.026456 
L 289.580728 92.977946 
L 289.864212 92.872839 
L 289.966802 92.840498 
L 290.219063 92.735392 
L 290.323139 92.694966 
L 290.595721 92.589859 
L 290.704753 92.500923 
L 291.003601 92.395816 
L 291.071499 92.355391 
L 291.29898 92.250284 
L 291.394631 92.201773 
L 291.559667 92.096666 
L 291.667212 92.015815 
L 291.954166 91.910709 
L 292.062207 91.846027 
L 292.297618 91.740921 
L 292.398226 91.684325 
L 292.692613 91.579218 
L 292.79322 91.530707 
L 293.004347 91.425601 
L 293.099998 91.369005 
L 293.376049 91.263898 
L 293.480621 91.199217 
L 293.787894 91.09411 
L 293.853809 91.053685 
L 294.428707 90.948578 
L 294.528323 90.867727 
L 294.836588 90.76262 
L 294.944629 90.714109 
L 295.284612 90.609003 
L 295.380264 90.576662 
L 295.718264 90.471556 
L 295.823332 90.390704 
L 296.093931 90.285598 
L 296.165297 90.229002 
L 296.452747 90.123895 
L 296.56277 90.059214 
L 296.81751 89.954107 
L 296.925055 89.913682 
L 297.221425 89.808575 
L 297.310138 89.735809 
L 297.549018 89.630702 
L 297.652104 89.598362 
L 297.98614 89.493255 
L 298.09319 89.420489 
L 298.312246 89.315382 
L 298.39848 89.258786 
L 298.588792 89.153679 
L 298.64876 89.088998 
L 298.925306 88.983892 
L 299.032851 88.894955 
L 299.194417 88.789849 
L 299.280157 88.733253 
L 299.621627 88.628146 
L 299.708852 88.595806 
L 300.072624 88.490699 
L 300.178683 88.450273 
L 300.347684 88.345167 
L 300.445813 88.312826 
L 300.635628 88.207719 
L 300.713934 88.167294 
L 300.91713 88.062187 
L 301.024181 88.029847 
L 301.521765 87.92474 
L 301.62039 87.860059 
L 301.838455 87.754952 
L 301.947487 87.714526 
L 302.108062 87.60942 
L 302.177942 87.577079 
L 302.532298 87.471973 
L 302.632409 87.415377 
L 302.934231 87.31027 
L 303.036821 87.253674 
L 303.456596 87.148567 
L 303.553734 87.091972 
L 303.769816 86.986865 
L 303.870424 86.930269 
L 304.088984 86.833247 
L 304.184635 86.768566 
L 304.481005 86.66346 
L 304.553363 86.631119 
L 304.87154 86.526013 
L 304.979085 86.501757 
L 305.272482 86.39665 
L 305.323529 86.356225 
L 305.680858 86.251118 
L 305.788404 86.194522 
L 306.004982 86.089416 
L 306.092703 86.040905 
L 306.544693 85.935798 
L 306.650256 85.863032 
L 307.144867 85.757925 
L 307.248448 85.725585 
L 307.577527 85.620478 
L 307.649885 85.555797 
L 307.932379 85.458775 
L 308.029517 85.386009 
L 308.30408 85.280903 
L 308.356118 85.232392 
L 308.767964 85.127285 
L 308.854198 85.070689 
L 309.172871 84.965583 
L 309.279425 84.917072 
L 309.757186 84.811965 
L 309.85928 84.763454 
L 310.059007 84.658348 
L 310.158128 84.609837 
L 310.373715 84.50473 
L 310.471348 84.47239 
L 310.6458 84.367283 
L 310.737487 84.351113 
L 310.975871 84.246006 
L 311.086886 84.181325 
L 311.278684 84.076218 
L 311.359963 84.043878 
L 311.693007 83.938771 
L 311.784198 83.866005 
L 312.141527 83.760898 
L 312.242135 83.720473 
L 312.396267 83.615366 
L 312.498856 83.591111 
L 312.735754 83.486004 
L 312.828928 83.421323 
L 313.07772 83.316216 
L 313.186257 83.22728 
L 313.474697 83.122173 
L 313.577782 83.081748 
L 313.883073 82.976641 
L 313.993592 82.920045 
L 314.212649 82.814938 
L 314.322672 82.726002 
L 314.538259 82.620895 
L 314.615078 82.580469 
L 314.922846 82.475363 
L 315.021471 82.418767 
L 315.352534 82.31366 
L 315.459088 82.232809 
L 315.662285 82.127702 
L 315.770326 82.103447 
L 316.232227 81.99834 
L 316.256512 81.98217 
L 316.662906 81.877063 
L 316.74468 81.820467 
L 317.109939 81.715361 
L 317.189731 81.691105 
L 317.626852 81.585999 
L 317.712591 81.545573 
L 318.085779 81.440466 
L 318.187873 81.408126 
L 318.612604 81.303019 
L 318.719654 81.278764 
L 318.96696 81.173657 
L 319.057655 81.117061 
L 319.349565 81.011954 
L 319.454632 80.971529 
L 319.763392 80.866422 
L 319.85607 80.809826 
L 320.180689 80.70472 
L 320.262464 80.648124 
L 320.603934 80.543017 
L 320.707019 80.462166 
L 320.98753 80.357059 
L 321.098545 80.316633 
L 321.404331 80.211527 
L 321.442988 80.154931 
L 321.718047 80.049824 
L 321.828071 80.025569 
L 322.08628 79.920462 
L 322.170532 79.888121 
L 322.34201 79.783015 
L 322.402969 79.742589 
L 322.760794 79.637482 
L 322.853967 79.613227 
L 323.02495 79.50812 
L 323.112672 79.451525 
L 323.393678 79.346418 
L 323.485364 79.281737 
L 323.842198 79.17663 
L 323.935867 79.128119 
L 324.245122 79.023013 
L 324.341269 78.982587 
L 324.69612 78.87748 
L 324.791276 78.82897 
L 324.975144 78.723863 
L 325.061875 78.651097 
L 325.392937 78.54599 
L 325.408796 78.52982 
L 325.933639 78.424713 
L 326.011448 78.400458 
L 326.442622 78.295351 
L 326.548681 78.24684 
L 326.925339 78.141734 
L 327.03338 78.109393 
L 327.452164 78.004286 
L 327.538894 77.94769 
L 327.824361 77.842584 
L 327.906631 77.818328 
L 328.192098 77.713222 
L 328.272385 77.656626 
L 328.763031 77.551519 
L 328.822504 77.486838 
L 329.337434 77.381731 
L 329.421687 77.349391 
L 329.83155 77.244284 
L 329.85633 77.211944 
L 330.381668 77.106837 
L 330.450557 77.066411 
L 330.89412 76.961305 
L 330.997206 76.904709 
L 331.279203 76.799602 
L 331.373368 76.734921 
L 331.767371 76.629814 
L 331.874917 76.589389 
L 332.074149 76.484282 
L 332.075636 76.468112 
L 332.512261 76.37109 
L 332.622781 76.314494 
L 332.943931 76.209388 
L 333.041069 76.160877 
L 333.530228 76.05577 
L 333.612994 75.999174 
L 333.928692 75.902153 
L 334.038716 75.821302 
L 334.469394 75.716195 
L 334.565045 75.651514 
L 335.031407 75.546407 
L 335.104261 75.522152 
L 335.519575 75.417045 
L 335.630094 75.39279 
L 335.975033 75.287683 
L 336.085057 75.190661 
L 336.369533 75.085555 
L 336.476087 75.053214 
L 336.859683 74.948108 
L 336.952856 74.883427 
L 337.182816 74.77832 
L 337.287883 74.713639 
L 337.537667 74.608532 
L 337.646204 74.576192 
L 338.136354 74.471085 
L 338.243404 74.414489 
L 338.644347 74.309382 
L 338.750901 74.268957 
L 339.267814 74.16385 
L 339.369412 74.107254 
L 339.787701 74.002147 
L 339.886821 73.945552 
L 340.449825 73.840445 
L 340.494925 73.800019 
L 340.789808 73.694913 
L 340.899336 73.614061 
L 341.415258 73.508955 
L 341.488111 73.444274 
L 342.00106 73.339167 
L 342.108605 73.306826 
L 342.480803 73.20172 
L 342.590826 73.145124 
L 343.142431 73.040017 
L 343.181088 73.015762 
L 343.566667 72.910655 
L 343.583022 72.894485 
L 344.109847 72.789378 
L 344.217888 72.724697 
L 344.643115 72.61959 
L 344.724393 72.57108 
L 345.18679 72.465973 
L 345.218509 72.449803 
L 345.857835 72.344696 
L 345.938619 72.2881 
L 346.599752 72.182993 
L 346.688465 72.142568 
L 347.028448 72.037461 
L 347.138967 71.98895 
L 347.398167 71.883844 
L 347.44178 71.859588 
L 347.94779 71.754482 
L 348.024608 71.705971 
L 348.686237 71.600864 
L 348.788331 71.520013 
L 349.08817 71.414906 
L 349.189768 71.366395 
L 349.697761 71.261289 
L 349.802333 71.204693 
L 350.220125 71.099586 
L 350.324697 71.05916 
L 351.000203 70.954054 
L 351.099819 70.913628 
L 351.633087 70.808521 
L 351.696028 70.784266 
L 352.114812 70.679159 
L 352.1951 70.662989 
L 352.619831 70.557882 
L 352.709039 70.509372 
L 353.084706 70.404265 
L 353.194729 70.371924 
L 353.772601 70.266818 
L 353.790939 70.242562 
L 354.433239 70.137456 
L 354.433239 70.129371 
L 355.102797 70.024264 
L 355.190519 69.991923 
L 355.606825 69.886817 
L 355.674227 69.862561 
L 355.978031 69.757455 
L 356.08409 69.708944 
L 356.455791 69.603837 
L 356.547973 69.571497 
L 357.163511 69.46639 
L 357.267092 69.43405 
L 357.634829 69.328943 
L 357.733453 69.312773 
L 358.305378 69.207666 
L 358.411933 69.183411 
L 359.10528 69.078304 
L 359.196471 69.037878 
L 359.68563 68.932772 
L 359.772856 68.900431 
L 360.35172 68.795324 
L 360.42606 68.754899 
L 361.276017 68.649792 
L 361.276017 68.641707 
L 361.861819 68.5366 
L 361.875696 68.52043 
L 362.579947 68.415323 
L 362.663703 68.382983 
L 363.100329 68.277876 
L 363.186068 68.253621 
L 363.918072 68.148514 
L 363.969119 68.116173 
L 364.950412 68.011067 
L 364.962306 67.994897 
L 365.507468 67.88979 
L 365.593703 67.857449 
L 366.643884 67.752343 
L 366.712277 67.728087 
L 367.420493 67.622981 
L 367.420493 67.614895 
L 368.578219 67.509789 
L 368.578219 67.501704 
L 369.29932 67.396597 
L 369.382581 67.380427 
L 370.078902 67.27532 
L 370.168111 67.25915 
L 371.387292 67.154043 
L 371.469066 67.129788 
L 372.609942 67.024681 
L 372.652564 67.008511 
L 373.581818 66.96 
L 373.581818 66.96 
" clip-path="url(#p5db2a4a2ad)" style="fill: none; stroke: #1f77b4; stroke-width: 1.5; stroke-linecap: square"/>
   </g>
   <g id="line2d_26">
    <path d="M 69.218182 369.36 
L 373.581818 66.96 
" clip-path="url(#p5db2a4a2ad)" style="fill: none; stroke-dasharray: 5.55,2.4; stroke-dashoffset: 0; stroke: #808080; stroke-width: 1.5"/>
   </g>
   <g id="patch_3">
    <path d="M 54 384.48 
L 54 51.84 
" style="fill: none; stroke: #000000; stroke-width: 0.8; stroke-linejoin: miter; stroke-linecap: square"/>
   </g>
   <g id="patch_4">
    <path d="M 388.8 384.48 
L 388.8 51.84 
" style="fill: none; stroke: #000000; stroke-width: 0.8; stroke-linejoin: miter; stroke-linecap: square"/>
   </g>
   <g id="patch_5">
    <path d="M 54 384.48 
L 388.8 384.48 
" style="fill: none; stroke: #000000; stroke-width: 0.8; stroke-linejoin: miter; stroke-linecap: square"/>
   </g>
   <g id="patch_6">
    <path d="M 54 51.84 
L 388.8 51.84 
" style="fill: none; stroke: #000000; stroke-width: 0.8; stroke-linejoin: miter; stroke-linecap: square"/>
   </g>
   <g id="text_15">
    <!-- ROC Curve (Test Set) -->
    <g transform="translate(158.54625 45.84) scale(0.12 -0.12)">
     <defs>
      <path id="DejaVuSans-4f" d="M 2522 4238 
Q 1834 4238 1429 3725 
Q 1025 3213 1025 2328 
Q 1025 1447 1429 934 
Q 1834 422 2522 422 
Q 3209 422 3611 934 
Q 4013 1447 4013 2328 
Q 4013 3213 3611 3725 
Q 3209 4238 2522 4238 
z
M 2522 4750 
Q 3503 4750 4090 4092 
Q 4678 3434 4678 2328 
Q 4678 1225 4090 567 
Q 3503 -91 2522 -91 
Q 1538 -91 948 565 
Q 359 1222 359 2328 
Q 359 3434 948 4092 
Q 1538 4750 2522 4750 
z
" transform="scale(0.015625)"/>
      <path id="DejaVuSans-43" d="M 4122 4306 
L 4122 3641 
Q 3803 3938 3442 4084 
Q 3081 4231 2675 4231 
Q 1875 4231 1450 3742 
Q 1025 3253 1025 2328 
Q 1025 1406 1450 917 
Q 1875 428 2675 428 
Q 3081 428 3442 575 
Q 3803 722 4122 1019 
L 4122 359 
Q 3791 134 3420 21 
Q 3050 -91 2638 -91 
Q 1578 -91 968 557 
Q 359 1206 359 2328 
Q 359 3453 968 4101 
Q 1578 4750 2638 4750 
Q 3056 4750 3426 4639 
Q 3797 4528 4122 4306 
z
" transform="scale(0.015625)"/>
      <path id="DejaVuSans-28" d="M 1984 4856 
Q 1566 4138 1362 3434 
Q 1159 2731 1159 2009 
Q 1159 1288 1364 580 
Q 1569 -128 1984 -844 
L 1484 -844 
Q 1016 -109 783 600 
Q 550 1309 550 2009 
Q 550 2706 781 3412 
Q 1013 4119 1484 4856 
L 1984 4856 
z
" transform="scale(0.015625)"/>
      <path id="DejaVuSans-53" d="M 3425 4513 
L 3425 3897 
Q 3066 4069 2747 4153 
Q 2428 4238 2131 4238 
Q 1616 4238 1336 4038 
Q 1056 3838 1056 3469 
Q 1056 3159 1242 3001 
Q 1428 2844 1947 2747 
L 2328 2669 
Q 3034 2534 3370 2195 
Q 3706 1856 3706 1288 
Q 3706 609 3251 259 
Q 2797 -91 1919 -91 
Q 1588 -91 1214 -16 
Q 841 59 441 206 
L 441 856 
Q 825 641 1194 531 
Q 1563 422 1919 422 
Q 2459 422 2753 634 
Q 3047 847 3047 1241 
Q 3047 1584 2836 1778 
Q 2625 1972 2144 2069 
L 1759 2144 
Q 1053 2284 737 2584 
Q 422 2884 422 3419 
Q 422 4038 858 4394 
Q 1294 4750 2059 4750 
Q 2388 4750 2728 4690 
Q 3069 4631 3425 4513 
z
" transform="scale(0.015625)"/>
      <path id="DejaVuSans-29" d="M 513 4856 
L 1013 4856 
Q 1481 4119 1714 3412 
Q 1947 2706 1947 2009 
Q 1947 1309 1714 600 
Q 1481 -109 1013 -844 
L 513 -844 
Q 928 -128 1133 580 
Q 1338 1288 1338 2009 
Q 1338 2731 1133 3434 
Q 928 4138 513 4856 
z
" transform="scale(0.015625)"/>
     </defs>
     <use xlink:href="#DejaVuSans-52"/>
     <use xlink:href="#DejaVuSans-4f" x="69.482422"/>
     <use xlink:href="#DejaVuSans-43" x="148.193359"/>
     <use xlink:href="#DejaVuSans-20" x="218.017578"/>
     <use xlink:href="#DejaVuSans-43" x="249.804688"/>
     <use xlink:href="#DejaVuSans-75" x="319.628906"/>
     <use xlink:href="#DejaVuSans-72" x="383.007812"/>
     <use xlink:href="#DejaVuSans-76" x="424.121094"/>
     <use xlink:href="#DejaVuSans-65" x="483.300781"/>
     <use xlink:href="#DejaVuSans-20" x="544.824219"/>
     <use xlink:href="#DejaVuSans-28" x="576.611328"/>
     <use xlink:href="#DejaVuSans-54" x="615.625"/>
     <use xlink:href="#DejaVuSans-65" x="659.708984"/>
     <use xlink:href="#DejaVuSans-73" x="721.232422"/>
     <use xlink:href="#DejaVuSans-74" x="773.332031"/>
     <use xlink:href="#DejaVuSans-20" x="812.541016"/>
     <use xlink:href="#DejaVuSans-53" x="844.328125"/>
     <use xlink:href="#DejaVuSans-65" x="907.804688"/>
     <use xlink:href="#DejaVuSans-74" x="969.328125"/>
     <use xlink:href="#DejaVuSans-29" x="1008.537109"/>
    </g>
   </g>
   <g id="legend_1">
    <g id="patch_7">
     <path d="M 214.95 379.48 
L 381.8 379.48 
Q 383.8 379.48 383.8 377.48 
L 383.8 363.801875 
Q 383.8 361.801875 381.8 361.801875 
L 214.95 361.801875 
Q 212.95 361.801875 212.95 363.801875 
L 212.95 377.48 
Q 212.95 379.48 214.95 379.48 
z
" style="fill: #ffffff; opacity: 0.8; stroke: #cccccc; stroke-linejoin: miter"/>
    </g>
    <g id="line2d_27">
     <path d="M 216.95 369.900312 
L 226.95 369.900312 
L 236.95 369.900312 
" style="fill: none; stroke: #1f77b4; stroke-width: 1.5; stroke-linecap: square"/>
    </g>
    <g id="text_16">
     <!-- ROC curve (AUC = 0.7088) -->
     <g transform="translate(244.95 373.400312) scale(0.1 -0.1)">
      <defs>
       <path id="DejaVuSans-63" d="M 3122 3366 
L 3122 2828 
Q 2878 2963 2633 3030 
Q 2388 3097 2138 3097 
Q 1578 3097 1268 2742 
Q 959 2388 959 1747 
Q 959 1106 1268 751 
Q 1578 397 2138 397 
Q 2388 397 2633 464 
Q 2878 531 3122 666 
L 3122 134 
Q 2881 22 2623 -34 
Q 2366 -91 2075 -91 
Q 1284 -91 818 406 
Q 353 903 353 1747 
Q 353 2603 823 3093 
Q 1294 3584 2113 3584 
Q 2378 3584 2631 3529 
Q 2884 3475 3122 3366 
z
" transform="scale(0.015625)"/>
       <path id="DejaVuSans-41" d="M 2188 4044 
L 1331 1722 
L 3047 1722 
L 2188 4044 
z
M 1831 4666 
L 2547 4666 
L 4325 0 
L 3669 0 
L 3244 1197 
L 1141 1197 
L 716 0 
L 50 0 
L 1831 4666 
z
" transform="scale(0.015625)"/>
       <path id="DejaVuSans-55" d="M 556 4666 
L 1191 4666 
L 1191 1831 
Q 1191 1081 1462 751 
Q 1734 422 2344 422 
Q 2950 422 3222 751 
Q 3494 1081 3494 1831 
L 3494 4666 
L 4128 4666 
L 4128 1753 
Q 4128 841 3676 375 
Q 3225 -91 2344 -91 
Q 1459 -91 1007 375 
Q 556 841 556 1753 
L 556 4666 
z
" transform="scale(0.015625)"/>
       <path id="DejaVuSans-3d" d="M 678 2906 
L 4684 2906 
L 4684 2381 
L 678 2381 
L 678 2906 
z
M 678 1631 
L 4684 1631 
L 4684 1100 
L 678 1100 
L 678 1631 
z
" transform="scale(0.015625)"/>
       <path id="DejaVuSans-37" d="M 525 4666 
L 3525 4666 
L 3525 4397 
L 1831 0 
L 1172 0 
L 2766 4134 
L 525 4134 
L 525 4666 
z
" transform="scale(0.015625)"/>
      </defs>
      <use xlink:href="#DejaVuSans-52"/>
      <use xlink:href="#DejaVuSans-4f" x="69.482422"/>
      <use xlink:href="#DejaVuSans-43" x="148.193359"/>
      <use xlink:href="#DejaVuSans-20" x="218.017578"/>
      <use xlink:href="#DejaVuSans-63" x="249.804688"/>
      <use xlink:href="#DejaVuSans-75" x="304.785156"/>
      <use xlink:href="#DejaVuSans-72" x="368.164062"/>
      <use xlink:href="#DejaVuSans-76" x="409.277344"/>
      <use xlink:href="#DejaVuSans-65" x="468.457031"/>
      <use xlink:href="#DejaVuSans-20" x="529.980469"/>
      <use xlink:href="#DejaVuSans-28" x="561.767578"/>
      <use xlink:href="#DejaVuSans-41" x="600.78125"/>
      <use xlink:href="#DejaVuSans-55" x="669.189453"/>
      <use xlink:href="#DejaVuSans-43" x="742.382812"/>
      <use xlink:href="#DejaVuSans-20" x="812.207031"/>
      <use xlink:href="#DejaVuSans-3d" x="843.994141"/>
      <use xlink:href="#DejaVuSans-20" x="927.783203"/>
      <use xlink:href="#DejaVuSans-30" x="959.570312"/>
      <use xlink:href="#DejaVuSans-2e" x="1023.193359"/>
      <use xlink:href="#DejaVuSans-37" x="1054.980469"/>
      <use xlink:href="#DejaVuSans-30" x="1118.603516"/>
      <use xlink:href="#DejaVuSans-38" x="1182.226562"/>
      <use xlink:href="#DejaVuSans-38" x="1245.849609"/>
      <use xlink:href="#DejaVuSans-29" x="1309.472656"/>
     </g>
    </g>
   </g>
  </g>
 </g>
 <defs>
  <clipPath id="p5db2a4a2ad">
   <rect x="54" y="51.84" width="334.8" height="332.64"/>
  </clipPath>
 </defs>
</svg>
