<?xml version="1.0" encoding="utf-8" standalone="no"?>
<!DOCTYPE svg PUBLIC "-//W3C//DTD SVG 1.1//EN"
  "http://www.w3.org/Graphics/SVG/1.1/DTD/svg11.dtd">
<svg xmlns:xlink="http://www.w3.org/1999/xlink" width="460.8pt" height="345.6pt" viewBox="0 0 460.8 345.6" xmlns="http://www.w3.org/2000/svg" version="1.1">
 <metadata>
  <rdf:RDF xmlns:dc="http://purl.org/dc/elements/1.1/" xmlns:cc="http://creativecommons.org/ns#" xmlns:rdf="http://www.w3.org/1999/02/22-rdf-syntax-ns#">
   <cc:Work>
    <dc:type rdf:resource="http://purl.org/dc/dcmitype/StillImage"/>
    <dc:date>2025-07-01T11:33:14.519973</dc:date>
    <dc:format>image/svg+xml</dc:format>
    <dc:creator>
     <cc:Agent>
      <dc:title>Matplotlib v3.7.5, https://matplotlib.org/</dc:title>
     </cc:Agent>
    </dc:creator>
   </cc:Work>
  </rdf:RDF>
 </metadata>
 <defs>
  <style type="text/css">*{stroke-linejoin: round; stroke-linecap: butt}</style>
 </defs>
 <g id="figure_1">
  <g id="patch_1">
   <path d="M 0 345.6 
L 460.8 345.6 
L 460.8 0 
L 0 0 
z
" style="fill: #ffffff"/>
  </g>
  <g id="axes_1">
   <g id="patch_2">
    <path d="M 57.6 307.584 
L 414.72 307.584 
L 414.72 41.472 
L 57.6 41.472 
z
" style="fill: #ffffff"/>
   </g>
   <g id="matplotlib.axis_1">
    <g id="xtick_1">
     <g id="line2d_1">
      <path d="M 73.832727 307.584 
L 73.832727 41.472 
" clip-path="url(#pe10c160806)" style="fill: none; stroke: #b0b0b0; stroke-width: 0.8; stroke-linecap: square"/>
     </g>
     <g id="line2d_2">
      <defs>
       <path id="me2e4348360" d="M 0 0 
L 0 3.5 
" style="stroke: #000000; stroke-width: 0.8"/>
      </defs>
      <g>
       <use xlink:href="#me2e4348360" x="73.832727" y="307.584" style="stroke: #000000; stroke-width: 0.8"/>
      </g>
     </g>
     <g id="text_1">
      <!-- 0.0 -->
      <g transform="translate(65.881165 322.182437) scale(0.1 -0.1)">
       <defs>
        <path id="DejaVuSans-30" d="M 2034 4250 
Q 1547 4250 1301 3770 
Q 1056 3291 1056 2328 
Q 1056 1369 1301 889 
Q 1547 409 2034 409 
Q 2525 409 2770 889 
Q 3016 1369 3016 2328 
Q 3016 3291 2770 3770 
Q 2525 4250 2034 4250 
z
M 2034 4750 
Q 2819 4750 3233 4129 
Q 3647 3509 3647 2328 
Q 3647 1150 3233 529 
Q 2819 -91 2034 -91 
Q 1250 -91 836 529 
Q 422 1150 422 2328 
Q 422 3509 836 4129 
Q 1250 4750 2034 4750 
z
" transform="scale(0.015625)"/>
        <path id="DejaVuSans-2e" d="M 684 794 
L 1344 794 
L 1344 0 
L 684 0 
L 684 794 
z
" transform="scale(0.015625)"/>
       </defs>
       <use xlink:href="#DejaVuSans-30"/>
       <use xlink:href="#DejaVuSans-2e" x="63.623047"/>
       <use xlink:href="#DejaVuSans-30" x="95.410156"/>
      </g>
     </g>
    </g>
    <g id="xtick_2">
     <g id="line2d_3">
      <path d="M 138.763636 307.584 
L 138.763636 41.472 
" clip-path="url(#pe10c160806)" style="fill: none; stroke: #b0b0b0; stroke-width: 0.8; stroke-linecap: square"/>
     </g>
     <g id="line2d_4">
      <g>
       <use xlink:href="#me2e4348360" x="138.763636" y="307.584" style="stroke: #000000; stroke-width: 0.8"/>
      </g>
     </g>
     <g id="text_2">
      <!-- 0.2 -->
      <g transform="translate(130.812074 322.182437) scale(0.1 -0.1)">
       <defs>
        <path id="DejaVuSans-32" d="M 1228 531 
L 3431 531 
L 3431 0 
L 469 0 
L 469 531 
Q 828 903 1448 1529 
Q 2069 2156 2228 2338 
Q 2531 2678 2651 2914 
Q 2772 3150 2772 3378 
Q 2772 3750 2511 3984 
Q 2250 4219 1831 4219 
Q 1534 4219 1204 4116 
Q 875 4013 500 3803 
L 500 4441 
Q 881 4594 1212 4672 
Q 1544 4750 1819 4750 
Q 2544 4750 2975 4387 
Q 3406 4025 3406 3419 
Q 3406 3131 3298 2873 
Q 3191 2616 2906 2266 
Q 2828 2175 2409 1742 
Q 1991 1309 1228 531 
z
" transform="scale(0.015625)"/>
       </defs>
       <use xlink:href="#DejaVuSans-30"/>
       <use xlink:href="#DejaVuSans-2e" x="63.623047"/>
       <use xlink:href="#DejaVuSans-32" x="95.410156"/>
      </g>
     </g>
    </g>
    <g id="xtick_3">
     <g id="line2d_5">
      <path d="M 203.694545 307.584 
L 203.694545 41.472 
" clip-path="url(#pe10c160806)" style="fill: none; stroke: #b0b0b0; stroke-width: 0.8; stroke-linecap: square"/>
     </g>
     <g id="line2d_6">
      <g>
       <use xlink:href="#me2e4348360" x="203.694545" y="307.584" style="stroke: #000000; stroke-width: 0.8"/>
      </g>
     </g>
     <g id="text_3">
      <!-- 0.4 -->
      <g transform="translate(195.742983 322.182437) scale(0.1 -0.1)">
       <defs>
        <path id="DejaVuSans-34" d="M 2419 4116 
L 825 1625 
L 2419 1625 
L 2419 4116 
z
M 2253 4666 
L 3047 4666 
L 3047 1625 
L 3713 1625 
L 3713 1100 
L 3047 1100 
L 3047 0 
L 2419 0 
L 2419 1100 
L 313 1100 
L 313 1709 
L 2253 4666 
z
" transform="scale(0.015625)"/>
       </defs>
       <use xlink:href="#DejaVuSans-30"/>
       <use xlink:href="#DejaVuSans-2e" x="63.623047"/>
       <use xlink:href="#DejaVuSans-34" x="95.410156"/>
      </g>
     </g>
    </g>
    <g id="xtick_4">
     <g id="line2d_7">
      <path d="M 268.625455 307.584 
L 268.625455 41.472 
" clip-path="url(#pe10c160806)" style="fill: none; stroke: #b0b0b0; stroke-width: 0.8; stroke-linecap: square"/>
     </g>
     <g id="line2d_8">
      <g>
       <use xlink:href="#me2e4348360" x="268.625455" y="307.584" style="stroke: #000000; stroke-width: 0.8"/>
      </g>
     </g>
     <g id="text_4">
      <!-- 0.6 -->
      <g transform="translate(260.673892 322.182437) scale(0.1 -0.1)">
       <defs>
        <path id="DejaVuSans-36" d="M 2113 2584 
Q 1688 2584 1439 2293 
Q 1191 2003 1191 1497 
Q 1191 994 1439 701 
Q 1688 409 2113 409 
Q 2538 409 2786 701 
Q 3034 994 3034 1497 
Q 3034 2003 2786 2293 
Q 2538 2584 2113 2584 
z
M 3366 4563 
L 3366 3988 
Q 3128 4100 2886 4159 
Q 2644 4219 2406 4219 
Q 1781 4219 1451 3797 
Q 1122 3375 1075 2522 
Q 1259 2794 1537 2939 
Q 1816 3084 2150 3084 
Q 2853 3084 3261 2657 
Q 3669 2231 3669 1497 
Q 3669 778 3244 343 
Q 2819 -91 2113 -91 
Q 1303 -91 875 529 
Q 447 1150 447 2328 
Q 447 3434 972 4092 
Q 1497 4750 2381 4750 
Q 2619 4750 2861 4703 
Q 3103 4656 3366 4563 
z
" transform="scale(0.015625)"/>
       </defs>
       <use xlink:href="#DejaVuSans-30"/>
       <use xlink:href="#DejaVuSans-2e" x="63.623047"/>
       <use xlink:href="#DejaVuSans-36" x="95.410156"/>
      </g>
     </g>
    </g>
    <g id="xtick_5">
     <g id="line2d_9">
      <path d="M 333.556364 307.584 
L 333.556364 41.472 
" clip-path="url(#pe10c160806)" style="fill: none; stroke: #b0b0b0; stroke-width: 0.8; stroke-linecap: square"/>
     </g>
     <g id="line2d_10">
      <g>
       <use xlink:href="#me2e4348360" x="333.556364" y="307.584" style="stroke: #000000; stroke-width: 0.8"/>
      </g>
     </g>
     <g id="text_5">
      <!-- 0.8 -->
      <g transform="translate(325.604801 322.182437) scale(0.1 -0.1)">
       <defs>
        <path id="DejaVuSans-38" d="M 2034 2216 
Q 1584 2216 1326 1975 
Q 1069 1734 1069 1313 
Q 1069 891 1326 650 
Q 1584 409 2034 409 
Q 2484 409 2743 651 
Q 3003 894 3003 1313 
Q 3003 1734 2745 1975 
Q 2488 2216 2034 2216 
z
M 1403 2484 
Q 997 2584 770 2862 
Q 544 3141 544 3541 
Q 544 4100 942 4425 
Q 1341 4750 2034 4750 
Q 2731 4750 3128 4425 
Q 3525 4100 3525 3541 
Q 3525 3141 3298 2862 
Q 3072 2584 2669 2484 
Q 3125 2378 3379 2068 
Q 3634 1759 3634 1313 
Q 3634 634 3220 271 
Q 2806 -91 2034 -91 
Q 1263 -91 848 271 
Q 434 634 434 1313 
Q 434 1759 690 2068 
Q 947 2378 1403 2484 
z
M 1172 3481 
Q 1172 3119 1398 2916 
Q 1625 2713 2034 2713 
Q 2441 2713 2670 2916 
Q 2900 3119 2900 3481 
Q 2900 3844 2670 4047 
Q 2441 4250 2034 4250 
Q 1625 4250 1398 4047 
Q 1172 3844 1172 3481 
z
" transform="scale(0.015625)"/>
       </defs>
       <use xlink:href="#DejaVuSans-30"/>
       <use xlink:href="#DejaVuSans-2e" x="63.623047"/>
       <use xlink:href="#DejaVuSans-38" x="95.410156"/>
      </g>
     </g>
    </g>
    <g id="xtick_6">
     <g id="line2d_11">
      <path d="M 398.487273 307.584 
L 398.487273 41.472 
" clip-path="url(#pe10c160806)" style="fill: none; stroke: #b0b0b0; stroke-width: 0.8; stroke-linecap: square"/>
     </g>
     <g id="line2d_12">
      <g>
       <use xlink:href="#me2e4348360" x="398.487273" y="307.584" style="stroke: #000000; stroke-width: 0.8"/>
      </g>
     </g>
     <g id="text_6">
      <!-- 1.0 -->
      <g transform="translate(390.53571 322.182437) scale(0.1 -0.1)">
       <defs>
        <path id="DejaVuSans-31" d="M 794 531 
L 1825 531 
L 1825 4091 
L 703 3866 
L 703 4441 
L 1819 4666 
L 2450 4666 
L 2450 531 
L 3481 531 
L 3481 0 
L 794 0 
L 794 531 
z
" transform="scale(0.015625)"/>
       </defs>
       <use xlink:href="#DejaVuSans-31"/>
       <use xlink:href="#DejaVuSans-2e" x="63.623047"/>
       <use xlink:href="#DejaVuSans-30" x="95.410156"/>
      </g>
     </g>
    </g>
    <g id="text_7">
     <!-- FPR -->
     <g transform="translate(226.795156 335.860562) scale(0.1 -0.1)">
      <defs>
       <path id="DejaVuSans-46" d="M 628 4666 
L 3309 4666 
L 3309 4134 
L 1259 4134 
L 1259 2759 
L 3109 2759 
L 3109 2228 
L 1259 2228 
L 1259 0 
L 628 0 
L 628 4666 
z
" transform="scale(0.015625)"/>
       <path id="DejaVuSans-50" d="M 1259 4147 
L 1259 2394 
L 2053 2394 
Q 2494 2394 2734 2622 
Q 2975 2850 2975 3272 
Q 2975 3691 2734 3919 
Q 2494 4147 2053 4147 
L 1259 4147 
z
M 628 4666 
L 2053 4666 
Q 2838 4666 3239 4311 
Q 3641 3956 3641 3272 
Q 3641 2581 3239 2228 
Q 2838 1875 2053 1875 
L 1259 1875 
L 1259 0 
L 628 0 
L 628 4666 
z
" transform="scale(0.015625)"/>
       <path id="DejaVuSans-52" d="M 2841 2188 
Q 3044 2119 3236 1894 
Q 3428 1669 3622 1275 
L 4263 0 
L 3584 0 
L 2988 1197 
Q 2756 1666 2539 1819 
Q 2322 1972 1947 1972 
L 1259 1972 
L 1259 0 
L 628 0 
L 628 4666 
L 2053 4666 
Q 2853 4666 3247 4331 
Q 3641 3997 3641 3322 
Q 3641 2881 3436 2590 
Q 3231 2300 2841 2188 
z
M 1259 4147 
L 1259 2491 
L 2053 2491 
Q 2509 2491 2742 2702 
Q 2975 2913 2975 3322 
Q 2975 3731 2742 3939 
Q 2509 4147 2053 4147 
L 1259 4147 
z
" transform="scale(0.015625)"/>
      </defs>
      <use xlink:href="#DejaVuSans-46"/>
      <use xlink:href="#DejaVuSans-50" x="57.519531"/>
      <use xlink:href="#DejaVuSans-52" x="117.822266"/>
     </g>
    </g>
   </g>
   <g id="matplotlib.axis_2">
    <g id="ytick_1">
     <g id="line2d_13">
      <path d="M 57.6 295.488 
L 414.72 295.488 
" clip-path="url(#pe10c160806)" style="fill: none; stroke: #b0b0b0; stroke-width: 0.8; stroke-linecap: square"/>
     </g>
     <g id="line2d_14">
      <defs>
       <path id="ma14b115d6b" d="M 0 0 
L -3.5 0 
" style="stroke: #000000; stroke-width: 0.8"/>
      </defs>
      <g>
       <use xlink:href="#ma14b115d6b" x="57.6" y="295.488" style="stroke: #000000; stroke-width: 0.8"/>
      </g>
     </g>
     <g id="text_8">
      <!-- 0.0 -->
      <g transform="translate(34.696875 299.287219) scale(0.1 -0.1)">
       <use xlink:href="#DejaVuSans-30"/>
       <use xlink:href="#DejaVuSans-2e" x="63.623047"/>
       <use xlink:href="#DejaVuSans-30" x="95.410156"/>
      </g>
     </g>
    </g>
    <g id="ytick_2">
     <g id="line2d_15">
      <path d="M 57.6 247.104 
L 414.72 247.104 
" clip-path="url(#pe10c160806)" style="fill: none; stroke: #b0b0b0; stroke-width: 0.8; stroke-linecap: square"/>
     </g>
     <g id="line2d_16">
      <g>
       <use xlink:href="#ma14b115d6b" x="57.6" y="247.104" style="stroke: #000000; stroke-width: 0.8"/>
      </g>
     </g>
     <g id="text_9">
      <!-- 0.2 -->
      <g transform="translate(34.696875 250.903219) scale(0.1 -0.1)">
       <use xlink:href="#DejaVuSans-30"/>
       <use xlink:href="#DejaVuSans-2e" x="63.623047"/>
       <use xlink:href="#DejaVuSans-32" x="95.410156"/>
      </g>
     </g>
    </g>
    <g id="ytick_3">
     <g id="line2d_17">
      <path d="M 57.6 198.72 
L 414.72 198.72 
" clip-path="url(#pe10c160806)" style="fill: none; stroke: #b0b0b0; stroke-width: 0.8; stroke-linecap: square"/>
     </g>
     <g id="line2d_18">
      <g>
       <use xlink:href="#ma14b115d6b" x="57.6" y="198.72" style="stroke: #000000; stroke-width: 0.8"/>
      </g>
     </g>
     <g id="text_10">
      <!-- 0.4 -->
      <g transform="translate(34.696875 202.519219) scale(0.1 -0.1)">
       <use xlink:href="#DejaVuSans-30"/>
       <use xlink:href="#DejaVuSans-2e" x="63.623047"/>
       <use xlink:href="#DejaVuSans-34" x="95.410156"/>
      </g>
     </g>
    </g>
    <g id="ytick_4">
     <g id="line2d_19">
      <path d="M 57.6 150.336 
L 414.72 150.336 
" clip-path="url(#pe10c160806)" style="fill: none; stroke: #b0b0b0; stroke-width: 0.8; stroke-linecap: square"/>
     </g>
     <g id="line2d_20">
      <g>
       <use xlink:href="#ma14b115d6b" x="57.6" y="150.336" style="stroke: #000000; stroke-width: 0.8"/>
      </g>
     </g>
     <g id="text_11">
      <!-- 0.6 -->
      <g transform="translate(34.696875 154.135219) scale(0.1 -0.1)">
       <use xlink:href="#DejaVuSans-30"/>
       <use xlink:href="#DejaVuSans-2e" x="63.623047"/>
       <use xlink:href="#DejaVuSans-36" x="95.410156"/>
      </g>
     </g>
    </g>
    <g id="ytick_5">
     <g id="line2d_21">
      <path d="M 57.6 101.952 
L 414.72 101.952 
" clip-path="url(#pe10c160806)" style="fill: none; stroke: #b0b0b0; stroke-width: 0.8; stroke-linecap: square"/>
     </g>
     <g id="line2d_22">
      <g>
       <use xlink:href="#ma14b115d6b" x="57.6" y="101.952" style="stroke: #000000; stroke-width: 0.8"/>
      </g>
     </g>
     <g id="text_12">
      <!-- 0.8 -->
      <g transform="translate(34.696875 105.751219) scale(0.1 -0.1)">
       <use xlink:href="#DejaVuSans-30"/>
       <use xlink:href="#DejaVuSans-2e" x="63.623047"/>
       <use xlink:href="#DejaVuSans-38" x="95.410156"/>
      </g>
     </g>
    </g>
    <g id="ytick_6">
     <g id="line2d_23">
      <path d="M 57.6 53.568 
L 414.72 53.568 
" clip-path="url(#pe10c160806)" style="fill: none; stroke: #b0b0b0; stroke-width: 0.8; stroke-linecap: square"/>
     </g>
     <g id="line2d_24">
      <g>
       <use xlink:href="#ma14b115d6b" x="57.6" y="53.568" style="stroke: #000000; stroke-width: 0.8"/>
      </g>
     </g>
     <g id="text_13">
      <!-- 1.0 -->
      <g transform="translate(34.696875 57.367219) scale(0.1 -0.1)">
       <use xlink:href="#DejaVuSans-31"/>
       <use xlink:href="#DejaVuSans-2e" x="63.623047"/>
       <use xlink:href="#DejaVuSans-30" x="95.410156"/>
      </g>
     </g>
    </g>
    <g id="text_14">
     <!-- TPR -->
     <g transform="translate(28.617188 184.070969) rotate(-90) scale(0.1 -0.1)">
      <defs>
       <path id="DejaVuSans-54" d="M -19 4666 
L 3928 4666 
L 3928 4134 
L 2272 4134 
L 2272 0 
L 1638 0 
L 1638 4134 
L -19 4134 
L -19 4666 
z
" transform="scale(0.015625)"/>
      </defs>
      <use xlink:href="#DejaVuSans-54"/>
      <use xlink:href="#DejaVuSans-50" x="61.083984"/>
      <use xlink:href="#DejaVuSans-52" x="121.386719"/>
     </g>
    </g>
   </g>
   <g id="line2d_25">
    <path d="M 73.832727 295.488 
L 73.852516 295.3837 
L 73.962016 294.573369 
L 73.997636 294.477092 
L 74.108455 294.051868 
L 74.145395 293.947568 
L 74.256214 293.594553 
L 74.288536 293.490253 
L 74.394078 293.14526 
L 74.465319 293.04096 
L 74.575478 292.768175 
L 74.621652 292.663875 
L 74.730492 292.407136 
L 74.801733 292.302836 
L 74.911892 292.110282 
L 74.96994 292.005982 
L 75.062949 291.76529 
L 75.137488 291.66099 
L 75.245668 291.492505 
L 75.292503 291.396228 
L 75.401343 291.091351 
L 75.482478 290.987051 
L 75.584721 290.714266 
L 75.673113 290.609966 
L 75.783932 290.417412 
L 75.838022 290.313112 
L 75.948841 290.064396 
L 76.003591 289.968119 
L 76.114409 289.695335 
L 76.190268 289.591035 
L 76.297129 289.406504 
L 76.380243 289.302204 
L 76.489743 289.101627 
L 76.587369 288.997326 
L 76.692911 288.820819 
L 76.69423 288.820819 
L 76.801091 288.716519 
L 76.901356 288.572103 
L 76.971277 288.467803 
L 77.07484 288.347457 
L 77.144102 288.243157 
L 77.251623 288.082695 
L 77.287243 287.978395 
L 77.392125 287.850026 
L 77.475899 287.745726 
L 77.586718 287.480964 
L 77.67379 287.376664 
L 77.783289 287.176087 
L 77.892789 287.071787 
L 78.003608 286.807025 
L 78.085403 286.710748 
L 78.196222 286.526217 
L 78.268122 286.421917 
L 78.368387 286.301571 
L 78.445564 286.197271 
L 78.553745 286.076924 
L 78.619708 285.972624 
L 78.730527 285.772047 
L 78.782639 285.667747 
L 78.892138 285.515309 
L 78.965358 285.411009 
L 79.068921 285.178339 
L 79.115095 285.074039 
L 79.217998 284.833347 
L 79.272089 284.73707 
L 79.367076 284.536493 
L 79.458766 284.448239 
L 79.561669 284.167431 
L 79.645443 284.063131 
L 79.752304 283.806392 
L 79.811671 283.702092 
L 79.915234 283.589769 
L 79.999668 283.485469 
L 80.109167 283.308961 
L 80.178429 283.204661 
L 80.276715 283.02013 
L 80.341359 282.91583 
L 80.452178 282.667115 
L 80.512865 282.562814 
L 80.619066 282.346191 
L 80.677774 282.241891 
L 80.787933 282.033291 
L 80.842023 281.928991 
L 80.952842 281.704345 
L 81.015508 281.600045 
L 81.121709 281.375398 
L 81.172501 281.279121 
L 81.281341 281.022383 
L 81.330154 280.918083 
L 81.437675 280.67739 
L 81.479892 280.57309 
L 81.582135 280.396582 
L 81.642162 280.292282 
L 81.744406 280.091705 
L 81.797177 279.987405 
L 81.906017 279.762759 
L 81.975278 279.658459 
L 82.085438 279.457882 
L 82.15404 279.353582 
L 82.261561 279.161028 
L 82.35259 279.056727 
L 82.452855 278.864174 
L 82.53465 278.759873 
L 82.638873 278.551273 
L 82.704177 278.454996 
L 82.800484 278.214304 
L 82.883598 278.110004 
L 82.989799 277.853265 
L 83.107214 277.748965 
L 83.209458 277.596527 
L 83.254973 277.492226 
L 83.365792 277.315719 
L 83.406689 277.211419 
L 83.51355 276.994795 
L 83.573577 276.898518 
L 83.682417 276.754103 
L 83.752339 276.649803 
L 83.861179 276.441203 
L 83.915929 276.344926 
L 84.020811 276.09621 
L 84.074241 275.99191 
L 84.182422 275.743195 
L 84.29522 275.638894 
L 84.405379 275.438317 
L 84.468704 275.334017 
L 84.577544 275.181579 
L 84.625038 275.077279 
L 84.733878 274.780425 
L 84.789947 274.676125 
L 84.900766 274.427409 
L 84.956175 274.323109 
L 85.066334 274.098463 
L 85.163961 273.994163 
L 85.265545 273.761493 
L 85.27478 273.761493 
L 85.326891 273.673239 
L 85.43639 273.384408 
L 85.495098 273.280108 
L 85.59998 273.087554 
L 85.679137 272.983254 
L 85.785998 272.782677 
L 85.852621 272.6864 
L 85.958163 272.397569 
L 86.03534 272.293269 
L 86.138903 272.132807 
L 86.176502 272.028507 
L 86.281385 271.860023 
L 86.36318 271.755723 
L 86.473998 271.426776 
L 86.526769 271.330499 
L 86.637588 271.121899 
L 86.660016 271.025622 
L 86.768856 270.825045 
L 86.807115 270.720745 
L 86.915295 270.472029 
L 86.974003 270.367729 
L 87.078225 270.183198 
L 87.14287 270.078898 
L 87.252369 269.854252 
L 87.321631 269.749952 
L 87.429812 269.605537 
L 87.537992 269.501236 
L 87.648811 269.260544 
L 87.700922 269.156244 
L 87.811081 269.019852 
L 87.839446 268.939621 
L 87.948945 268.739044 
L 88.001716 268.634744 
L 88.112535 268.41812 
L 88.216758 268.31382 
L 88.313065 268.041036 
L 88.37507 267.944759 
L 88.483251 267.68802 
L 88.572302 267.58372 
L 88.678503 267.37512 
L 88.753042 267.27082 
L 88.863861 267.062219 
L 88.931804 266.957919 
L 89.041303 266.62095 
L 89.146185 266.51665 
L 89.257004 266.316073 
L 89.322968 266.211773 
L 89.432467 266.019219 
L 89.50041 265.914919 
L 89.610569 265.698295 
L 89.693683 265.593995 
L 89.797906 265.385395 
L 89.866508 265.281095 
L 89.974689 265.016333 
L 90.084848 264.912033 
L 90.195667 264.727503 
L 90.247118 264.623202 
L 90.356618 264.422625 
L 90.429178 264.318325 
L 90.539337 264.06961 
L 90.605301 263.96531 
L 90.712822 263.820894 
L 90.786041 263.716594 
L 90.888285 263.556133 
L 90.956887 263.451832 
L 91.06045 263.251255 
L 91.13367 263.146955 
L 91.235254 262.914286 
L 91.319027 262.809986 
L 91.426548 262.617432 
L 91.502406 262.513132 
L 91.60465 262.368716 
L 91.664017 262.264416 
L 91.774836 262.063839 
L 91.824969 261.959539 
L 91.93051 261.775008 
L 91.98592 261.678731 
L 92.092781 261.41397 
L 92.179853 261.309669 
L 92.264946 261.141185 
L 92.343443 261.044908 
L 92.453602 260.804215 
L 92.522204 260.699915 
L 92.629065 260.523407 
L 92.697008 260.419107 
L 92.803869 260.234576 
L 92.898197 260.130276 
L 93.003739 259.953769 
L 93.041338 259.849469 
L 93.148859 259.656915 
L 93.171286 259.552614 
L 93.280786 259.368084 
L 93.390945 259.263784 
L 93.497147 259.007045 
L 93.538704 258.902745 
L 93.638969 258.662052 
L 93.706251 258.565775 
L 93.808495 258.333106 
L 93.883034 258.228806 
L 93.991874 258.044275 
L 94.045305 257.939975 
L 94.153485 257.77149 
L 94.240557 257.66719 
L 94.349397 257.450567 
L 94.429873 257.35429 
L 94.537393 257.169759 
L 94.586206 257.065459 
L 94.692408 256.888951 
L 94.755733 256.784651 
L 94.866552 256.543959 
L 94.968795 256.439659 
L 95.062464 256.295243 
L 95.132385 256.190943 
L 95.237267 255.97432 
L 95.297294 255.87002 
L 95.389643 255.693512 
L 95.466161 255.589212 
L 95.566426 255.396658 
L 95.656137 255.292358 
L 95.766955 255.131896 
L 95.803235 255.027596 
L 95.913395 254.867134 
L 95.95891 254.762834 
L 96.069729 254.506096 
L 96.123159 254.401796 
L 96.222105 254.225288 
L 96.315773 254.120988 
L 96.424613 253.920411 
L 96.474086 253.816111 
L 96.580947 253.623557 
L 96.650209 253.519257 
L 96.757729 253.382864 
L 96.819735 253.278564 
L 96.922638 253.142172 
L 96.925937 253.142172 
L 97.020265 253.037872 
L 97.129105 252.829272 
L 97.188472 252.724971 
L 97.297312 252.484279 
L 97.39164 252.379979 
L 97.501799 252.195448 
L 97.566443 252.091148 
L 97.670666 251.890571 
L 97.721458 251.794294 
L 97.823042 251.545578 
L 97.920009 251.441278 
L 98.029508 251.248724 
L 98.106026 251.144424 
L 98.214866 251.024078 
L 98.282809 250.919778 
L 98.383733 250.735247 
L 98.391649 250.735247 
L 98.476742 250.630947 
L 98.586901 250.446416 
L 98.652205 250.342116 
L 98.761705 250.149562 
L 98.828328 250.045262 
L 98.920677 249.836662 
L 98.999833 249.732362 
L 99.095481 249.555854 
L 99.16936 249.451554 
L 99.261709 249.299115 
L 99.36857 249.194815 
L 99.472792 249.018307 
L 99.554587 248.914007 
L 99.65881 248.681338 
L 99.7129 248.577038 
L 99.819102 248.320299 
L 99.908152 248.215999 
L 100.016333 247.991353 
L 100.124513 247.887053 
L 100.22082 247.718568 
L 100.307232 247.622291 
L 100.397603 247.469853 
L 100.400901 247.469853 
L 100.471482 247.365552 
L 100.580982 247.12486 
L 100.645626 247.02056 
L 100.750508 246.860098 
L 100.834282 246.755798 
L 100.933227 246.547198 
L 100.945101 246.547198 
L 101.003808 246.442898 
L 101.111329 246.154067 
L 101.191805 246.049767 
L 101.295368 245.825121 
L 101.356714 245.728844 
L 101.458958 245.53629 
L 101.517665 245.43199 
L 101.619909 245.287574 
L 101.693788 245.183274 
L 101.798011 245.014789 
L 101.847483 244.918512 
L 101.958302 244.701889 
L 102.027564 244.597589 
L 102.136404 244.445151 
L 102.19907 244.34085 
L 102.309229 244.140273 
L 102.357382 244.035973 
L 102.464243 243.795281 
L 102.514376 243.690981 
L 102.625195 243.50645 
L 102.685881 243.40215 
L 102.794062 243.249711 
L 102.844194 243.145411 
L 102.953034 242.912742 
L 103.043404 242.808442 
L 103.152244 242.623911 
L 103.275596 242.519611 
L 103.383776 242.278918 
L 103.471508 242.174618 
L 103.575731 242.006134 
L 103.661483 241.901833 
L 103.761088 241.741372 
L 103.846182 241.637072 
L 103.949085 241.516725 
L 104.018347 241.412425 
L 104.126527 241.211848 
L 104.222834 241.115571 
L 104.331014 240.923017 
L 104.383126 240.818717 
L 104.486688 240.650233 
L 104.569803 240.545933 
L 104.678643 240.377448 
L 104.760438 240.273148 
L 104.866639 240.064548 
L 104.920729 239.960248 
L 105.025611 239.799786 
L 105.094214 239.695486 
L 105.200415 239.55107 
L 105.276273 239.44677 
L 105.387092 239.270262 
L 105.441182 239.165962 
L 105.551342 238.965385 
L 105.606751 238.861085 
L 105.708995 238.748762 
L 105.71757 238.748762 
L 105.800024 238.644462 
L 105.910184 238.475977 
L 106.032216 238.371677 
L 106.137099 238.243308 
L 106.259791 238.139008 
L 106.36995 237.970523 
L 106.433935 237.866223 
L 106.5342 237.673669 
L 106.635124 237.569369 
L 106.745943 237.352746 
L 106.825759 237.256469 
L 106.93328 236.991707 
L 106.997924 236.887407 
L 107.108743 236.742992 
L 107.254523 236.638691 
L 107.344893 236.502299 
L 107.400302 236.397999 
L 107.509142 236.149283 
L 107.60347 236.044983 
L 107.71363 235.796268 
L 107.781572 235.691968 
L 107.888433 235.539529 
L 107.944502 235.451275 
L 108.054662 235.226629 
L 108.142393 235.122329 
L 108.251233 234.953844 
L 108.325112 234.849544 
L 108.424058 234.697106 
L 108.431314 234.697106 
L 108.509151 234.592805 
L 108.617991 234.408275 
L 108.69319 234.303975 
L 108.80071 234.071305 
L 108.921424 233.967005 
L 109.028944 233.790497 
L 109.108101 233.686197 
L 109.21826 233.525736 
L 109.280926 233.421435 
L 109.388446 233.252951 
L 109.497286 233.148651 
L 109.602828 232.932027 
L 109.658897 232.83575 
L 109.769056 232.659243 
L 109.851511 232.554943 
L 109.958372 232.354366 
L 110.032251 232.250065 
L 110.137793 232.033442 
L 110.185287 231.929142 
L 110.292808 231.784727 
L 110.358112 231.680427 
L 110.468931 231.511942 
L 110.55996 231.407642 
L 110.6688 231.303342 
L 110.789514 231.199042 
L 110.900333 231.062649 
L 111.017748 230.958349 
L 111.108118 230.846026 
L 111.19585 230.741726 
L 111.296774 230.62138 
L 111.371973 230.51708 
L 111.473557 230.436849 
L 111.534903 230.332549 
L 111.644403 230.139995 
L 111.726857 230.035695 
L 111.846911 229.915349 
L 111.912215 229.811048 
L 112.022374 229.650587 
L 112.072507 229.546287 
L 112.182006 229.401871 
L 112.257205 229.297571 
L 112.368024 229.064902 
L 112.443222 228.960602 
L 112.553381 228.832232 
L 112.619345 228.727932 
L 112.724887 228.527355 
L 112.851537 228.423055 
L 112.962356 228.262594 
L 113.030958 228.158294 
L 113.140458 227.949693 
L 113.233467 227.845393 
L 113.339008 227.684932 
L 113.431357 227.580632 
L 113.542176 227.388078 
L 113.612098 227.283778 
L 113.720938 227.171454 
L 113.783603 227.067154 
L 113.893763 226.826462 
L 114.023051 226.722162 
L 114.127274 226.569723 
L 114.199834 226.465423 
L 114.309333 226.3531 
L 114.404981 226.2488 
L 114.503267 226.120431 
L 114.600233 226.016131 
L 114.710392 225.847646 
L 114.811317 225.743346 
L 114.912241 225.671138 
L 115.001952 225.574861 
L 115.108813 225.446492 
L 115.195225 225.342192 
L 115.304065 225.18173 
L 115.377285 225.07743 
L 115.484146 224.892899 
L 115.60288 224.788599 
L 115.71238 224.628137 
L 115.805389 224.523837 
L 115.914229 224.315237 
L 116.010536 224.210937 
L 116.120035 224.050475 
L 116.224258 223.946175 
L 116.331779 223.817806 
L 116.410275 223.713506 
L 116.521094 223.528975 
L 116.569248 223.424675 
L 116.674789 223.240144 
L 116.726241 223.135844 
L 116.835081 223.015498 
L 116.8364 223.015498 
L 116.930728 222.911198 
L 117.040888 222.73469 
L 117.130598 222.63039 
L 117.238119 222.429813 
L 117.299465 222.325513 
L 117.409624 222.181097 
L 117.52704 222.076797 
L 117.63588 221.860174 
L 117.734165 221.763897 
L 117.841686 221.659597 
L 117.920843 221.555297 
L 118.022427 221.434951 
L 118.155013 221.33065 
L 118.257257 221.14612 
L 118.34301 221.04182 
L 118.440636 220.849266 
L 118.556072 220.744965 
L 118.645783 220.60055 
L 118.663593 220.60055 
L 118.762539 220.49625 
L 118.872038 220.416019 
L 118.926128 220.311719 
L 119.023095 220.143234 
L 119.135893 220.038934 
L 119.238136 219.822311 
L 119.364787 219.718011 
L 119.473627 219.501388 
L 119.568614 219.397088 
L 119.674816 219.22058 
L 119.750014 219.11628 
L 119.856216 218.979887 
L 119.943288 218.875587 
L 120.053447 218.739195 
L 120.162946 218.634895 
L 120.269808 218.514549 
L 120.330494 218.410249 
L 120.424162 218.297925 
L 120.524427 218.201648 
L 120.634586 218.025141 
L 120.716381 217.920841 
L 120.822583 217.744333 
L 120.902399 217.640033 
L 121.003323 217.487594 
L 121.092374 217.383294 
L 121.188681 217.19074 
L 121.30016 217.08644 
L 121.410978 216.909932 
L 121.502668 216.805632 
L 121.606231 216.709355 
L 121.732221 216.605055 
L 121.830507 216.500755 
L 121.95188 216.396455 
L 122.060061 216.260062 
L 122.150431 216.155762 
L 122.26059 215.963208 
L 122.321277 215.858908 
L 122.427478 215.722516 
L 122.51455 215.618216 
L 122.615474 215.441708 
L 122.688034 215.337408 
L 122.796215 215.233108 
L 122.914949 215.128808 
L 123.010597 214.9523 
L 123.116798 214.848 
L 123.224319 214.671492 
L 123.310731 214.575215 
L 123.417592 214.4308 
L 123.543583 214.3265 
L 123.649125 214.141969 
L 123.745432 214.037669 
L 123.832504 213.909299 
L 123.943982 213.804999 
L 124.052822 213.67663 
L 124.168258 213.57233 
L 124.278418 213.403845 
L 124.323273 213.299545 
L 124.421559 213.147107 
L 124.498736 213.042806 
L 124.603618 212.882345 
L 124.680796 212.778045 
L 124.789636 212.537352 
L 124.906392 212.433052 
L 125.015891 212.320729 
L 125.112858 212.216429 
L 125.2184 212.112129 
L 125.294258 212.007829 
L 125.395182 211.887483 
L 125.47104 211.783183 
L 125.574603 211.598652 
L 125.660356 211.494352 
L 125.765238 211.357959 
L 125.869461 211.253659 
L 125.978301 211.101221 
L 126.111547 210.996921 
L 126.221706 210.820413 
L 126.304821 210.716113 
L 126.403106 210.603789 
L 126.484901 210.499489 
L 126.592422 210.298912 
L 126.691368 210.194612 
L 126.790973 210.018104 
L 126.881343 209.913804 
L 126.984246 209.785435 
L 127.064722 209.681135 
L 127.174881 209.496604 
L 127.232929 209.392304 
L 127.327917 209.19975 
L 127.407733 209.09545 
L 127.510636 209.007196 
L 127.587154 208.902896 
L 127.697973 208.726388 
L 127.77449 208.622088 
L 127.878713 208.46965 
L 127.99283 208.36535 
L 128.100351 208.196865 
L 128.198637 208.100588 
L 128.30154 207.988265 
L 128.371461 207.883965 
L 128.473045 207.763618 
L 128.478982 207.763618 
L 128.583864 207.659318 
L 128.694024 207.522926 
L 128.794288 207.426649 
L 128.892574 207.290256 
L 128.959857 207.185956 
L 129.068037 207.057587 
L 129.163025 206.96131 
L 129.269886 206.816895 
L 129.382024 206.712595 
L 129.484928 206.568179 
L 129.631367 206.463879 
L 129.741526 206.327487 
L 129.863559 206.223187 
L 129.971739 206.054702 
L 130.077281 205.950402 
L 130.18744 205.741802 
L 130.31409 205.637502 
L 130.424909 205.452971 
L 130.543644 205.348671 
L 130.649845 205.188209 
L 130.724384 205.083909 
L 130.82201 204.95554 
L 130.918317 204.851239 
L 131.011986 204.738916 
L 131.120166 204.634616 
L 131.215154 204.466132 
L 131.314099 204.361831 
L 131.424258 204.20137 
L 131.482306 204.09707 
L 131.583231 203.99277 
L 131.664366 203.88847 
L 131.764631 203.744054 
L 131.863576 203.639754 
L 131.964501 203.479292 
L 132.042338 203.383015 
L 132.153157 203.174415 
L 132.240888 203.078138 
L 132.345111 202.909654 
L 132.413713 202.805353 
L 132.521893 202.660938 
L 132.595773 202.556638 
L 132.701314 202.420246 
L 132.706591 202.420246 
L 132.766618 202.315945 
L 132.876778 202.163507 
L 132.954615 202.059207 
L 133.057518 201.898745 
L 133.186147 201.794445 
L 133.285752 201.674099 
L 133.295647 201.674099 
L 133.358312 201.569799 
L 133.457917 201.401314 
L 133.533116 201.297014 
L 133.643275 201.120506 
L 133.723751 201.016206 
L 133.806865 200.887837 
L 133.951325 200.783537 
L 134.054888 200.679237 
L 134.145258 200.58296 
L 134.256077 200.47866 
L 134.376791 200.37436 
L 134.48629 200.237967 
L 134.583257 200.133667 
L 134.693416 200.029367 
L 134.754762 199.93309 
L 134.865581 199.756582 
L 134.950015 199.652282 
L 135.052258 199.451705 
L 135.174951 199.347405 
L 135.279833 199.227059 
L 135.362287 199.122759 
L 135.445402 199.034505 
L 135.462552 199.034505 
L 135.597118 198.930205 
L 135.699362 198.793812 
L 135.794349 198.689512 
L 135.889337 198.593235 
L 136.004114 198.504981 
L 136.099101 198.336497 
L 136.169023 198.232197 
L 136.278522 198.087781 
L 136.380106 197.983481 
L 136.485648 197.831042 
L 136.606362 197.734765 
L 136.717181 197.630465 
L 136.874174 197.526165 
L 136.981695 197.333611 
L 137.109664 197.229311 
L 137.219164 197.125011 
L 137.302278 197.020711 
L 137.409799 196.844203 
L 137.514021 196.739903 
L 137.613626 196.635603 
L 137.622861 196.635603 
L 137.742915 196.531303 
L 137.851755 196.354795 
L 137.98764 196.250495 
L 138.092522 196.138172 
L 138.204001 196.033872 
L 138.306245 195.881433 
L 138.411786 195.777133 
L 138.521946 195.66481 
L 138.593186 195.56051 
L 138.702026 195.45621 
L 138.831315 195.35191 
L 138.942134 195.231564 
L 138.994245 195.135287 
L 139.101106 194.966802 
L 139.223799 194.862502 
L 139.33 194.72611 
L 139.463247 194.62181 
L 139.572087 194.445302 
L 139.700716 194.341002 
L 139.802959 194.228679 
L 139.913778 194.124378 
L 140.01866 194.012055 
L 140.112988 193.907755 
L 140.223807 193.779386 
L 140.32737 193.683109 
L 140.429614 193.506601 
L 140.54637 193.402301 
L 140.642676 193.257886 
L 140.751516 193.153586 
L 140.861016 193.00917 
L 140.969856 192.90487 
L 141.062865 192.80057 
L 141.190834 192.69627 
L 141.297036 192.567901 
L 141.447433 192.4636 
L 141.556932 192.27907 
L 141.653239 192.174769 
L 141.759441 191.982216 
L 141.86894 191.877915 
L 141.9791 191.765592 
L 142.1229 191.661292 
L 142.222506 191.565015 
L 142.37752 191.460715 
L 142.488339 191.244092 
L 142.544408 191.139792 
L 142.651269 191.019446 
L 142.731745 190.915146 
L 142.839266 190.802822 
L 142.926997 190.698522 
L 143.024623 190.626315 
L 143.029241 190.626315 
L 143.12093 190.522015 
L 143.225153 190.417714 
L 143.333993 190.313414 
L 143.440854 190.24923 
L 143.527926 190.14493 
L 143.632148 190.000514 
L 143.754181 189.896214 
L 143.849828 189.791914 
L 143.987692 189.687614 
L 144.089936 189.551222 
L 144.21065 189.446922 
L 144.31949 189.294483 
L 144.416456 189.190183 
L 144.51738 189.037744 
L 144.611708 188.933444 
L 144.714612 188.813098 
L 144.84522 188.708798 
L 144.951421 188.604498 
L 145.033876 188.500198 
L 145.138758 188.275551 
L 145.303007 188.171251 
L 145.408549 188.018813 
L 145.508154 187.914513 
L 145.613036 187.786143 
L 145.772009 187.681843 
L 145.87887 187.561497 
L 145.974517 187.457197 
L 146.076761 187.25662 
L 146.235074 187.15232 
L 146.345892 187.04802 
L 146.479799 186.94372 
L 146.576765 186.847443 
L 146.758825 186.743143 
L 146.852493 186.646866 
L 147.00421 186.542566 
L 147.111071 186.414196 
L 147.219911 186.309896 
L 147.33007 186.18955 
L 147.465295 186.08525 
L 147.571497 185.98095 
L 147.639439 185.884673 
L 147.748279 185.692119 
L 147.841948 185.587819 
L 147.94617 185.483519 
L 147.997622 185.379219 
L 148.107122 185.282942 
L 148.217281 185.178642 
L 148.321503 185.026203 
L 148.422428 184.921903 
L 148.518075 184.793534 
L 148.628894 184.689234 
L 148.724541 184.592957 
L 148.83536 184.488657 
L 148.942221 184.36831 
L 149.079426 184.26401 
L 149.189585 184.135641 
L 149.244994 184.039364 
L 149.347238 183.886925 
L 149.410563 183.782625 
L 149.500274 183.750533 
L 149.618348 183.646233 
L 149.721911 183.557979 
L 149.828113 183.453679 
L 149.919802 183.381471 
L 150.024684 183.277171 
L 150.128247 183.188917 
L 150.229172 183.09264 
L 150.315584 182.932179 
L 150.479833 182.827879 
L 150.5768 182.659394 
L 150.708727 182.555094 
L 150.816248 182.442771 
L 150.934323 182.338471 
L 151.041184 182.234171 
L 151.136172 182.12987 
L 151.243692 182.02557 
L 151.405963 181.92127 
L 151.508207 181.81697 
L 151.572191 181.71267 
L 151.66454 181.592324 
L 151.803064 181.488024 
L 151.908606 181.327562 
L 152.01019 181.223262 
L 152.113753 181.118962 
L 152.236445 181.014662 
L 152.346604 180.846177 
L 152.466658 180.741877 
L 152.559007 180.669669 
L 152.635525 180.565369 
L 152.739748 180.477116 
L 152.836055 180.372815 
L 152.902678 180.180261 
L 153.11706 180.075961 
L 153.222601 179.907477 
L 153.335399 179.803177 
L 153.440281 179.642715 
L 153.548462 179.538415 
L 153.643449 179.393999 
L 153.741735 179.289699 
L 153.852554 179.177376 
L 153.936988 179.073076 
L 154.047147 178.960753 
L 154.215354 178.856453 
L 154.312321 178.760176 
L 154.395435 178.655876 
L 154.485145 178.543553 
L 154.626967 178.439253 
L 154.734488 178.326929 
L 154.840689 178.222629 
L 154.944252 178.102283 
L 155.09333 177.997983 
L 155.20217 177.845545 
L 155.336736 177.741244 
L 155.442278 177.652991 
L 155.551118 177.54869 
L 155.654681 177.420321 
L 155.815632 177.316021 
L 155.924472 177.211721 
L 156.056399 177.107421 
L 156.167218 177.011144 
L 156.314977 176.906844 
L 156.423817 176.754405 
L 156.519464 176.650105 
L 156.618409 176.577898 
L 156.769466 176.473597 
L 156.878966 176.369297 
L 157.004297 176.264997 
L 157.111158 176.104536 
L 157.214061 176.000236 
L 157.314985 175.871866 
L 157.432401 175.767566 
L 157.539262 175.711405 
L 157.54322 175.711405 
L 157.648102 175.607105 
L 157.747707 175.478735 
L 157.880953 175.374435 
L 157.983857 175.254089 
L 158.125019 175.149789 
L 158.234519 175.053512 
L 158.330166 174.957235 
L 158.429111 174.877004 
L 158.555761 174.772704 
L 158.64943 174.660381 
L 158.659984 174.660381 
L 158.827532 174.556081 
L 158.904049 174.47585 
L 159.088088 174.37155 
L 159.178458 174.283296 
L 159.32028 174.178996 
L 159.425162 174.05865 
L 159.569623 173.95435 
L 159.672526 173.834003 
L 159.765535 173.729703 
L 159.867119 173.569242 
L 160.062371 173.464942 
L 160.168572 173.376688 
L 160.322927 173.272388 
L 160.414617 173.216226 
L 160.514881 173.111926 
L 160.614486 173.023672 
L 160.75367 172.919372 
L 160.827549 172.831118 
L 160.849317 172.831118 
L 161.012247 172.726818 
L 161.122406 172.574379 
L 161.245758 172.470079 
L 161.35196 172.357756 
L 161.51489 172.253456 
L 161.619772 172.13311 
L 161.82426 172.02881 
L 161.93244 171.892417 
L 162.097349 171.788117 
L 162.20487 171.651725 
L 162.317668 171.547425 
L 162.427167 171.394986 
L 162.542604 171.290686 
L 162.649465 171.202432 
L 162.827566 171.098132 
L 162.935087 170.96174 
L 163.03865 170.85744 
L 163.145511 170.705001 
L 163.231924 170.600701 
L 163.32889 170.512447 
L 163.501715 170.408147 
L 163.610555 170.271755 
L 163.713458 170.167455 
L 163.824277 170.079201 
L 163.933777 169.974901 
L 164.041957 169.806416 
L 164.125731 169.702116 
L 164.227315 169.589793 
L 164.232592 169.589793 
L 164.346709 169.485493 
L 164.452251 169.357123 
L 164.550537 169.252823 
L 164.614521 169.164569 
L 164.747108 169.060269 
L 164.857927 168.867715 
L 164.96149 168.763415 
L 165.065713 168.675161 
L 165.195001 168.570861 
L 165.296585 168.418423 
L 165.426534 168.314123 
L 165.535374 168.209823 
L 165.657406 168.105523 
L 165.761629 168.049361 
L 165.902791 167.945061 
L 165.958201 167.880876 
L 166.108598 167.776576 
L 166.218757 167.688322 
L 166.325618 167.584022 
L 166.4305 167.495768 
L 166.516913 167.391468 
L 166.622454 167.279145 
L 166.785385 167.174845 
L 166.888948 167.03043 
L 167.022854 166.92613 
L 167.127736 166.837876 
L 167.237895 166.733576 
L 167.33882 166.621252 
L 167.494494 166.516952 
L 167.596737 166.372537 
L 167.686448 166.27626 
L 167.766264 166.17196 
L 167.95426 166.075683 
L 168.065079 165.923244 
L 168.162046 165.826967 
L 168.272205 165.682552 
L 168.382364 165.578252 
L 168.490545 165.433836 
L 168.596086 165.329536 
L 168.694372 165.257328 
L 168.84411 165.153028 
L 168.95229 165.056751 
L 169.057832 164.952451 
L 169.164033 164.840128 
L 169.275512 164.735828 
L 169.379075 164.631528 
L 169.559815 164.527228 
L 169.669974 164.406882 
L 169.753089 164.302582 
L 169.84082 164.230374 
L 170.009028 164.126074 
L 170.115889 164.013751 
L 170.234623 163.909451 
L 170.342144 163.877358 
L 170.509032 163.773058 
L 170.574995 163.70085 
L 170.600062 163.70085 
L 170.759694 163.59655 
L 170.854681 163.500273 
L 171.010355 163.395973 
L 171.119195 163.227489 
L 171.224078 163.123189 
L 171.3283 163.026912 
L 171.506402 162.922611 
L 171.586878 162.802265 
L 171.697037 162.697965 
L 171.807196 162.625757 
L 171.98134 162.521457 
L 172.085563 162.377042 
L 172.228704 162.272742 
L 172.339523 162.104257 
L 172.474748 161.999957 
L 172.563799 161.887634 
L 172.72541 161.783334 
L 172.832931 161.711126 
L 172.929238 161.606826 
L 173.038737 161.526595 
L 173.131086 161.422295 
L 173.228713 161.301949 
L 173.339531 161.197649 
L 173.449691 161.077303 
L 173.608003 160.973002 
L 173.706949 160.852656 
L 173.81315 160.748356 
L 173.90484 160.668125 
L 174.034129 160.563825 
L 174.143628 160.435456 
L 174.297983 160.331156 
L 174.407483 160.218833 
L 174.499172 160.114533 
L 174.619886 159.97814 
L 174.719491 159.87384 
L 174.827671 159.793609 
L 174.968833 159.689309 
L 175.06514 159.593032 
L 175.200366 159.488732 
L 175.286778 159.416525 
L 175.447729 159.312224 
L 175.557889 159.223971 
L 175.631108 159.127694 
L 175.738629 159.03944 
L 175.850107 158.943163 
L 175.958947 158.854909 
L 176.087577 158.750609 
L 176.196417 158.686424 
L 176.345494 158.590147 
L 176.449057 158.461778 
L 176.575048 158.357478 
L 176.677291 158.205039 
L 176.772279 158.100739 
L 176.878481 158.012485 
L 177.029537 157.908185 
L 177.103417 157.844 
L 177.123206 157.844 
L 177.279539 157.7397 
L 177.383762 157.683539 
L 177.388379 157.683539 
L 177.491283 157.579239 
L 177.574397 157.482962 
L 177.69511 157.378662 
L 177.80527 157.274362 
L 177.939835 157.170061 
L 178.049995 157.073784 
L 178.162133 156.969484 
L 178.243268 156.897277 
L 178.49327 156.792977 
L 178.589577 156.744838 
L 178.706993 156.640538 
L 178.786149 156.56833 
L 178.938525 156.472053 
L 179.049344 156.367753 
L 179.172036 156.263453 
L 179.269003 156.183222 
L 179.429294 156.078922 
L 179.539454 155.94253 
L 179.627185 155.83823 
L 179.730748 155.73393 
L 179.930618 155.62963 
L 180.041437 155.557422 
L 180.133786 155.453122 
L 180.23471 155.340799 
L 180.365318 155.244522 
L 180.475478 155.076037 
L 180.637748 154.971737 
L 180.748567 154.859414 
L 180.939862 154.755114 
L 181.049361 154.66686 
L 181.145668 154.56256 
L 181.239996 154.43419 
L 181.392372 154.32989 
L 181.44976 154.281752 
L 181.64963 154.177452 
L 181.731425 154.105244 
L 181.930635 154.000944 
L 182.040135 153.91269 
L 182.162168 153.80839 
L 182.24858 153.688044 
L 182.413489 153.583744 
L 182.503859 153.519559 
L 182.592251 153.415259 
L 182.701091 153.278867 
L 182.915472 153.174567 
L 183.011779 153.062243 
L 183.236715 152.957943 
L 183.339619 152.861666 
L 183.50123 152.757366 
L 183.60875 152.645043 
L 183.833686 152.540743 
L 183.943846 152.444466 
L 184.02696 152.340166 
L 184.137119 152.235866 
L 184.230128 152.131566 
L 184.325775 152.027266 
L 184.464958 151.922966 
L 184.559946 151.802619 
L 184.786201 151.698319 
L 184.833035 151.626112 
L 184.84227 151.626112 
L 185.02367 151.521812 
L 185.130531 151.409488 
L 185.270374 151.305188 
L 185.36932 151.216934 
L 185.503886 151.112634 
L 185.58568 151.040427 
L 185.745972 150.936127 
L 185.854812 150.83985 
L 186.031595 150.735549 
L 186.139115 150.60718 
L 186.275 150.510903 
L 186.373286 150.358465 
L 186.525662 150.254165 
L 186.634502 150.157888 
L 186.821839 150.053588 
L 186.930019 149.917195 
L 187.11076 149.812895 
L 187.217621 149.684526 
L 187.316566 149.580226 
L 187.413533 149.427787 
L 187.645725 149.323487 
L 187.715646 149.259302 
L 187.881875 149.155002 
L 187.991374 148.994541 
L 188.18069 148.890241 
L 188.291509 148.785941 
L 188.567896 148.68164 
L 188.644414 148.57734 
L 188.79811 148.47304 
L 188.899034 148.424902 
L 189.026344 148.320602 
L 189.126608 148.224325 
L 189.135843 148.224325 
L 189.329117 148.120025 
L 189.416189 148.039794 
L 189.551414 147.935494 
L 189.658275 147.815148 
L 189.791522 147.718871 
L 189.901681 147.590501 
L 190.082422 147.486201 
L 190.191262 147.438063 
L 190.279653 147.333763 
L 190.383875 147.19737 
L 190.552083 147.09307 
L 190.649709 146.932608 
L 190.813299 146.828308 
L 190.922139 146.683893 
L 191.068578 146.579593 
L 191.179397 146.491339 
L 191.357499 146.387039 
L 191.459083 146.298785 
L 191.622013 146.194485 
L 191.732172 146.034023 
L 191.936 145.929723 
L 192.024391 145.865539 
L 192.167532 145.761238 
L 192.264499 145.6088 
L 192.391149 145.5045 
L 192.49801 145.416246 
L 192.610148 145.311946 
L 192.701178 145.199623 
L 192.82453 145.095323 
L 192.901707 145.031138 
L 193.091023 144.926838 
L 193.183372 144.822538 
L 193.351579 144.718238 
L 193.454483 144.629984 
L 193.598283 144.525684 
L 193.687334 144.43743 
L 193.845647 144.33313 
L 193.946571 144.252899 
L 193.955806 144.252899 
L 194.098947 144.148599 
L 194.199872 144.044299 
L 194.295519 143.939999 
L 194.395124 143.763491 
L 194.572566 143.659191 
L 194.680087 143.546868 
L 194.815312 143.442568 
L 194.924812 143.314198 
L 195.129959 143.209898 
L 195.228904 143.145714 
L 195.341043 143.041414 
L 195.450542 142.961183 
L 195.732207 142.856883 
L 195.843026 142.74456 
L 195.967037 142.640259 
L 196.041576 142.584098 
L 196.257937 142.479798 
L 196.359521 142.391544 
L 196.501343 142.287244 
L 196.604246 142.263175 
L 196.881953 142.158875 
L 196.982218 142.062598 
L 197.149106 141.958297 
L 197.219027 141.894113 
L 197.464412 141.789813 
L 197.573252 141.717605 
L 197.726947 141.613305 
L 197.837107 141.541097 
L 197.9222 141.452843 
L 198.015868 141.348543 
L 198.203205 141.244243 
L 198.299512 141.164012 
L 198.573261 141.059712 
L 198.678143 140.995528 
L 198.855585 140.891228 
L 198.957829 140.794951 
L 199.1544 140.69065 
L 199.2639 140.626466 
L 199.385273 140.522166 
L 199.484219 140.433912 
L 199.692004 140.329612 
L 199.800844 140.249381 
L 199.982904 140.145081 
L 200.084488 140.032758 
L 200.252035 139.928458 
L 200.359556 139.800088 
L 200.579215 139.695788 
L 200.67882 139.551373 
L 200.854283 139.447073 
L 200.961804 139.374865 
L 201.154418 139.270565 
L 201.252704 139.20638 
L 201.264577 139.20638 
L 201.470384 139.10208 
L 201.580543 139.005803 
L 201.67553 138.901503 
L 201.78569 138.797203 
L 201.94796 138.692903 
L 202.046246 138.58058 
L 202.048885 138.58058 
L 202.226986 138.484303 
L 202.333188 138.436164 
L 202.488862 138.331864 
L 202.594404 138.211518 
L 202.730289 138.107218 
L 202.80153 138.018964 
L 202.924882 137.922687 
L 203.030424 137.82641 
L 203.161691 137.72211 
L 203.224357 137.665948 
L 203.25536 137.665948 
L 203.429504 137.561648 
L 203.539663 137.465371 
L 203.711828 137.361071 
L 203.821328 137.248748 
L 203.977002 137.152471 
L 204.07001 137.07224 
L 204.235579 136.96794 
L 204.333865 136.895733 
L 204.341781 136.895733 
L 204.498774 136.791432 
L 204.600358 136.719225 
L 204.798249 136.614925 
L 204.901152 136.44644 
L 205.135983 136.34214 
L 205.236248 136.253886 
L 205.539021 136.149586 
L 205.63137 136.037263 
L 205.806833 135.940986 
L 205.916992 135.804593 
L 206.099052 135.700293 
L 206.207232 135.628086 
L 206.358289 135.523785 
L 206.440084 135.467624 
L 206.441403 135.467624 
L 206.541008 135.371347 
L 206.624782 135.323208 
L 206.641933 135.323208 
L 206.829929 135.226931 
L 206.930853 135.138678 
L 207.133362 135.034377 
L 207.239563 134.930077 
L 207.242202 134.930077 
L 207.406451 134.825777 
L 207.494183 134.737523 
L 207.733631 134.633223 
L 207.793658 134.585085 
L 207.841811 134.585085 
L 208.017934 134.480785 
L 208.101708 134.368462 
L 208.426249 134.264162 
L 208.511342 134.191954 
L 208.705935 134.087654 
L 208.812796 134.007423 
L 209.053563 133.903123 
L 209.146572 133.838938 
L 209.302906 133.734638 
L 209.411746 133.670453 
L 209.599082 133.566153 
L 209.708582 133.469876 
L 209.943413 133.365576 
L 210.046976 133.277322 
L 210.157135 133.173022 
L 210.262677 133.060699 
L 210.390646 132.956399 
L 210.5107 132.787914 
L 210.716506 132.683614 
L 210.813473 132.627453 
L 211.060177 132.523153 
L 211.157143 132.475014 
L 211.285113 132.370714 
L 211.389995 132.274437 
L 211.591844 132.170137 
L 211.693428 132.065837 
L 211.851741 131.961537 
L 211.953984 131.857237 
L 212.107679 131.752937 
L 212.211242 131.672706 
L 212.465862 131.568406 
L 212.569425 131.512244 
L 212.746867 131.407944 
L 212.85109 131.287598 
L 212.980378 131.183298 
L 213.083941 131.143183 
L 213.266661 131.038882 
L 213.372862 130.974698 
L 213.547006 130.870398 
L 213.632759 130.782144 
L 213.651888 130.782144 
L 213.806903 130.685867 
L 213.916402 130.597613 
L 214.038435 130.493313 
L 214.143317 130.389013 
L 214.322738 130.284713 
L 214.423663 130.204482 
L 214.521949 130.108205 
L 214.618255 130.027974 
L 214.806911 129.923674 
L 214.912453 129.787282 
L 215.118919 129.682982 
L 215.19016 129.634843 
L 215.446759 129.530543 
L 215.554279 129.458335 
L 215.556258 129.458335 
L 215.705996 129.354035 
L 215.810878 129.241712 
L 215.931591 129.137412 
L 216.035814 129.073227 
L 216.249536 128.968927 
L 216.360355 128.89672 
L 216.508773 128.792419 
L 216.598484 128.728235 
L 216.60574 128.728235 
L 216.892682 128.623935 
L 216.98701 128.543704 
L 217.206009 128.439404 
L 217.310231 128.319058 
L 217.447436 128.214758 
L 217.536487 128.086388 
L 217.696119 127.982088 
L 217.795064 127.917903 
L 217.975805 127.813603 
L 218.085964 127.757442 
L 218.259448 127.653142 
L 218.366309 127.588957 
L 218.599161 127.484657 
L 218.678317 127.436519 
L 218.925021 127.332218 
L 218.989666 127.268034 
L 218.991645 127.268034 
L 219.184918 127.171757 
L 219.293758 127.083503 
L 219.458667 126.979203 
L 219.563549 126.858857 
L 219.724501 126.754557 
L 219.819488 126.682349 
L 220.004186 126.578049 
L 220.10709 126.481772 
L 220.365007 126.377472 
L 220.46989 126.265149 
L 220.474507 126.265149 
L 220.742979 126.160848 
L 220.851159 126.104687 
L 221.118972 126.000387 
L 221.225833 125.944225 
L 221.334673 125.839925 
L 221.438236 125.759694 
L 221.444832 125.759694 
L 221.57544 125.655394 
L 221.657235 125.623302 
L 221.766735 125.519002 
L 221.841933 125.478886 
L 222.070827 125.374586 
L 222.153282 125.294356 
L 222.414498 125.190056 
L 222.520039 125.117848 
L 222.683629 125.013548 
L 222.781915 124.949363 
L 223.04445 124.845063 
L 223.122947 124.796924 
L 223.130863 124.796924 
L 223.350522 124.692624 
L 223.454084 124.588324 
L 223.654614 124.484024 
L 223.741026 124.427863 
L 223.930342 124.323563 
L 224.02533 124.243332 
L 224.201452 124.139032 
L 224.283247 124.066824 
L 224.506204 123.962524 
L 224.60581 123.866247 
L 224.901327 123.761947 
L 225.006209 123.681716 
L 225.192226 123.577416 
L 225.290512 123.481139 
L 225.463337 123.376839 
L 225.571517 123.24847 
L 225.646716 123.14417 
L 225.737746 123.055916 
L 225.934977 122.951616 
L 226.035901 122.879408 
L 226.244346 122.775108 
L 226.34593 122.718946 
L 226.635511 122.614646 
L 226.733137 122.574531 
L 226.90794 122.470231 
L 226.979181 122.414069 
L 227.004907 122.414069 
L 227.302403 122.309769 
L 227.412562 122.1814 
L 227.413222 122.1814 
L 227.662564 122.0771 
L 227.757552 122.020938 
L 227.94225 121.916638 
L 228.037898 121.836407 
L 228.267451 121.732107 
L 228.361779 121.683969 
L 228.364418 121.683969 
L 228.591332 121.579668 
L 228.692257 121.515484 
L 228.884871 121.411184 
L 228.99437 121.330953 
L 229.165216 121.226653 
L 229.237116 121.130376 
L 229.247011 121.130376 
L 229.474586 121.026076 
L 229.562317 120.969914 
L 229.768124 120.865614 
L 229.86509 120.77736 
L 230.078153 120.67306 
L 230.166544 120.632945 
L 230.418525 120.528645 
L 230.502959 120.46446 
L 230.526046 120.46446 
L 230.670506 120.36016 
L 230.77209 120.295975 
L 230.983174 120.191675 
L 231.088056 120.095398 
L 231.300459 119.991098 
L 231.409959 119.934937 
L 231.582124 119.83866 
L 231.683708 119.766452 
L 231.825529 119.662152 
L 231.93305 119.581921 
L 232.07883 119.485644 
L 232.157986 119.421459 
L 232.389519 119.317159 
L 232.473292 119.277044 
L 232.47791 119.277044 
L 232.646777 119.180767 
L 232.725933 119.124605 
L 232.754957 119.124605 
L 232.983191 119.020305 
L 233.085435 118.972167 
L 233.268814 118.867867 
L 233.373696 118.819728 
L 233.599951 118.715428 
L 233.69362 118.659267 
L 233.836761 118.554966 
L 233.937025 118.506828 
L 234.119085 118.410551 
L 234.229904 118.33032 
L 234.487162 118.22602 
L 234.595343 118.12172 
L 234.820279 118.01742 
L 234.920543 117.937189 
L 235.076217 117.832889 
L 235.181759 117.768704 
L 235.328858 117.664404 
L 235.421207 117.60022 
L 235.621077 117.49592 
L 235.711447 117.439758 
L 235.716724 117.439758 
L 235.87042 117.335458 
L 235.961449 117.255227 
L 235.975302 117.255227 
L 236.094036 117.150927 
L 236.171873 117.118835 
L 236.186385 117.118835 
L 236.312376 117.014535 
L 236.415279 116.934304 
L 236.65011 116.830004 
L 236.757631 116.74175 
L 236.974651 116.63745 
L 237.057105 116.581288 
L 237.253677 116.476988 
L 237.358559 116.412804 
L 237.527426 116.308503 
L 237.634947 116.260365 
L 237.809751 116.156065 
L 237.915292 116.075834 
L 238.087457 115.971534 
L 238.171231 115.899326 
L 238.17321 115.899326 
L 238.356589 115.795026 
L 238.466089 115.746888 
L 238.638913 115.642588 
L 238.745115 115.538288 
L 238.878361 115.442011 
L 238.98918 115.329687 
L 239.185092 115.225387 
L 239.286676 115.15318 
L 239.53404 115.04888 
L 239.632326 115.000741 
L 239.854623 114.896441 
L 239.958846 114.760049 
L 240.198294 114.655748 
L 240.303176 114.60761 
L 240.487874 114.50331 
L 240.56835 114.431102 
L 240.834843 114.326802 
L 240.939725 114.206456 
L 241.121785 114.102156 
L 241.228646 114.005879 
L 241.354636 113.901579 
L 241.437091 113.87751 
L 241.460178 113.87751 
L 241.628385 113.773209 
L 241.736566 113.717048 
L 241.848704 113.612748 
L 241.92918 113.580655 
L 242.162691 113.476355 
L 242.270871 113.420194 
L 242.443696 113.315894 
L 242.534726 113.259732 
L 242.696337 113.155432 
L 242.805177 113.075201 
L 242.956233 112.970901 
L 243.039348 112.938809 
L 243.054519 112.938809 
L 243.171275 112.834509 
L 243.272859 112.770324 
L 243.461515 112.666024 
L 243.56112 112.585793 
L 243.735924 112.481493 
L 243.841465 112.409285 
L 244.090808 112.304985 
L 244.186455 112.216731 
L 244.193052 112.216731 
L 244.375771 112.112431 
L 244.458225 112.072316 
L 244.464162 112.072316 
L 244.646222 111.976039 
L 244.700312 111.927901 
L 244.933823 111.8236 
L 245.016937 111.767439 
L 245.191081 111.663139 
L 245.282111 111.582908 
L 245.299262 111.582908 
L 245.512324 111.478608 
L 245.621164 111.390354 
L 245.786073 111.286054 
L 245.872486 111.221869 
L 245.890296 111.221869 
L 246.125786 111.117569 
L 246.212858 111.053385 
L 246.424601 110.949084 
L 246.530143 110.836761 
L 246.691094 110.732461 
L 246.797956 110.708392 
L 247.070385 110.604092 
L 247.163394 110.507815 
L 247.38899 110.403515 
L 247.465508 110.331307 
L 247.66142 110.227007 
L 247.763004 110.13073 
L 247.897569 110.02643 
L 247.956277 109.978292 
L 248.184511 109.873991 
L 248.271583 109.81783 
L 248.443748 109.71353 
L 248.545992 109.673414 
L 248.683856 109.569114 
L 248.745202 109.545045 
L 248.955626 109.440745 
L 249.035442 109.37656 
L 249.305233 109.27226 
L 249.396923 109.224122 
L 249.672651 109.119822 
L 249.780831 109.06366 
L 249.958933 108.95936 
L 250.067113 108.919245 
L 250.209595 108.814945 
L 250.304582 108.734714 
L 250.601419 108.630414 
L 250.695087 108.590298 
L 250.985987 108.485998 
L 251.093508 108.453906 
L 251.409473 108.349606 
L 251.515675 108.269375 
L 251.726758 108.165075 
L 251.824385 108.084844 
L 252.044703 107.980544 
L 252.152883 107.868221 
L 252.28547 107.763921 
L 252.391672 107.68369 
L 252.515683 107.57939 
L 252.623204 107.442998 
L 252.906848 107.338697 
L 253.017007 107.282536 
L 253.237326 107.178236 
L 253.347485 107.05789 
L 253.5744 106.953589 
L 253.662791 106.857313 
L 253.684559 106.857313 
L 253.927965 106.753012 
L 254.000525 106.696851 
L 254.274934 106.592551 
L 254.377837 106.528366 
L 254.57243 106.424066 
L 254.658182 106.383951 
L 254.879161 106.279651 
L 254.985362 106.231512 
L 255.298689 106.127212 
L 255.394337 106.079074 
L 255.677321 105.974773 
L 255.783522 105.926635 
L 255.966901 105.822335 
L 256.067166 105.782219 
L 256.345532 105.677919 
L 256.454372 105.605712 
L 256.69382 105.501412 
L 256.794085 105.429204 
L 256.804639 105.429204 
L 256.988678 105.324904 
L 257.098177 105.276765 
L 257.25583 105.172465 
L 257.358734 105.116304 
L 257.360713 105.116304 
L 257.460318 105.020027 
L 257.553326 104.971888 
L 257.792774 104.867588 
L 257.902274 104.771311 
L 258.173385 104.667011 
L 258.269032 104.610849 
L 258.45307 104.506549 
L 258.558612 104.434342 
L 258.755184 104.330042 
L 258.862045 104.265857 
L 259.054659 104.161557 
L 259.131177 104.089349 
L 259.327089 103.985049 
L 259.43329 103.920864 
L 259.604136 103.816564 
L 259.699123 103.72831 
L 259.714295 103.72831 
L 259.914825 103.62401 
L 260.021026 103.535756 
L 260.023005 103.535756 
L 260.351504 103.431456 
L 260.462323 103.351226 
L 260.712985 103.246925 
L 260.818526 103.174718 
L 261.020375 103.070418 
L 261.082381 103.046348 
L 261.351513 102.942048 
L 261.455735 102.861818 
L 261.457054 102.861818 
L 261.6998 102.757517 
L 261.784894 102.709379 
L 262.042811 102.605079 
L 262.133182 102.564963 
L 262.141097 102.564963 
L 262.309964 102.460663 
L 262.369991 102.388456 
L 262.708384 102.284156 
L 262.815905 102.24404 
L 263.052055 102.13974 
L 263.125934 102.059509 
L 263.408918 101.955209 
L 263.495331 101.891025 
L 263.683987 101.786725 
L 263.793486 101.730563 
L 263.9142 101.626263 
L 264.018422 101.578124 
L 264.302726 101.473824 
L 264.381222 101.449755 
L 264.552728 101.345455 
L 264.65827 101.257201 
L 265.044157 101.152901 
L 265.135846 101.104763 
L 265.406957 101.000462 
L 265.502604 100.976393 
L 265.756564 100.872093 
L 265.856169 100.799885 
L 265.978202 100.695585 
L 266.070551 100.631401 
L 266.23612 100.527101 
L 266.315936 100.478962 
L 266.620688 100.374662 
L 266.723591 100.302454 
L 266.88784 100.198154 
L 266.96106 100.166062 
L 267.208424 100.061762 
L 267.309348 100.021646 
L 267.489429 99.917346 
L 267.585076 99.877231 
L 267.817928 99.772931 
L 267.907638 99.716769 
L 268.137851 99.612469 
L 268.23152 99.572354 
L 268.234158 99.572354 
L 268.46767 99.468054 
L 268.570573 99.371777 
L 268.816617 99.267477 
L 268.882581 99.211315 
L 268.90237 99.211315 
L 269.172821 99.107015 
L 269.257254 99.0669 
L 269.497362 98.9626 
L 269.585094 98.890392 
L 269.788262 98.786092 
L 269.892484 98.681792 
L 270.067947 98.577492 
L 270.178107 98.489238 
L 270.435365 98.392961 
L 270.542226 98.288661 
L 270.546184 98.288661 
L 270.819273 98.184361 
L 270.874023 98.128199 
L 270.902387 98.128199 
L 271.148432 98.023899 
L 271.177456 97.983784 
L 271.469015 97.879483 
L 271.565322 97.807276 
L 271.789598 97.710999 
L 271.845667 97.638791 
L 271.999363 97.534491 
L 272.081817 97.45426 
L 272.327861 97.34996 
L 272.423509 97.277752 
L 272.591716 97.173452 
L 272.674171 97.077175 
L 272.69264 97.077175 
L 272.888552 96.972875 
L 272.996073 96.93276 
L 273.253331 96.82846 
L 273.363491 96.732183 
L 273.614812 96.627883 
L 273.687372 96.59579 
L 273.989485 96.49149 
L 274.081835 96.411259 
L 274.384608 96.306959 
L 274.492788 96.242775 
L 274.72432 96.146498 
L 274.814691 96.082313 
L 275.2329 95.978013 
L 275.325249 95.913828 
L 275.684091 95.809528 
L 275.792931 95.745344 
L 276.17684 95.641043 
L 276.270508 95.544766 
L 276.418267 95.440466 
L 276.523149 95.368259 
L 276.717741 95.263959 
L 276.827901 95.175705 
L 277.130014 95.071405 
L 277.231598 95.039312 
L 277.484899 94.935012 
L 277.577248 94.878851 
L 277.947963 94.774551 
L 278.052845 94.69432 
L 278.276462 94.59002 
L 278.37145 94.533858 
L 278.597045 94.429558 
L 278.705226 94.309212 
L 278.928843 94.204912 
L 279.038342 94.132704 
L 279.305495 94.028404 
L 279.399163 93.964219 
L 279.719087 93.859919 
L 279.818032 93.787711 
L 280.089803 93.683411 
L 280.181492 93.619227 
L 280.560783 93.514927 
L 280.657749 93.442719 
L 280.94733 93.338419 
L 281.047595 93.29028 
L 281.390605 93.18598 
L 281.492189 93.121796 
L 281.723722 93.017496 
L 281.813432 92.961334 
L 282.056838 92.857034 
L 282.16238 92.816919 
L 282.440746 92.712618 
L 282.515285 92.696572 
L 282.846423 92.592272 
L 282.932176 92.552157 
L 282.956582 92.552157 
L 283.255397 92.447857 
L 283.356981 92.423787 
L 283.573342 92.319487 
L 283.682842 92.263326 
L 283.905799 92.167049 
L 283.989573 92.110887 
L 283.99419 92.110887 
L 284.188783 92.006587 
L 284.297623 91.918333 
L 284.472426 91.814033 
L 284.565435 91.749849 
L 284.777178 91.653572 
L 284.863591 91.59741 
L 285.136021 91.49311 
L 285.237605 91.461018 
L 285.492884 91.356718 
L 285.600405 91.276487 
L 285.884048 91.172187 
L 285.987611 91.083933 
L 286.293682 90.979633 
L 286.385372 90.94754 
L 286.614266 90.84324 
L 286.721127 90.779056 
L 286.983002 90.674756 
L 287.085906 90.618594 
L 287.415064 90.514294 
L 287.515329 90.482202 
L 287.768629 90.377902 
L 287.868894 90.353832 
L 288.083936 90.249532 
L 288.194095 90.177324 
L 288.514678 90.073024 
L 288.605048 90.016863 
L 288.893309 89.912563 
L 288.971806 89.848378 
L 289.259408 89.744078 
L 289.365609 89.615709 
L 289.652551 89.511409 
L 289.756773 89.415132 
L 290.049652 89.310832 
L 290.149917 89.222578 
L 290.399919 89.118278 
L 290.408494 89.102231 
L 290.967206 88.997931 
L 291.054938 88.957816 
L 291.291088 88.853516 
L 291.390033 88.8134 
L 291.554282 88.7091 
L 291.624204 88.644916 
L 291.633439 88.644916 
L 292.014049 88.540616 
L 292.12025 88.452362 
L 292.353102 88.348062 
L 292.450069 88.299923 
L 292.854426 88.195623 
L 292.958648 88.139462 
L 293.295063 88.035161 
L 293.397966 87.970977 
L 293.724486 87.866677 
L 293.820793 87.842608 
L 294.089265 87.738307 
L 294.204701 87.674123 
L 294.450746 87.569823 
L 294.547053 87.505638 
L 294.846527 87.401338 
L 294.946133 87.353199 
L 295.140725 87.248899 
L 295.242969 87.192738 
L 295.507483 87.088438 
L 295.599832 87.01623 
L 295.773317 86.91193 
L 295.864346 86.863791 
L 296.070153 86.759491 
L 296.11105 86.70333 
L 296.532558 86.59903 
L 296.590606 86.550891 
L 296.797732 86.446591 
L 296.866994 86.406476 
L 297.144701 86.302176 
L 297.253541 86.237991 
L 297.475838 86.133691 
L 297.58072 86.085552 
L 297.783888 85.981252 
L 297.882834 85.917068 
L 298.129538 85.812768 
L 298.229143 85.772652 
L 298.436928 85.668352 
L 298.501573 85.628237 
L 298.514765 85.628237 
L 298.991023 85.523937 
L 299.100522 85.451729 
L 299.37625 85.347429 
L 299.482452 85.283244 
L 299.719921 85.178944 
L 299.826122 85.154875 
L 299.828761 85.154875 
L 300.119001 85.050575 
L 300.190242 85.010459 
L 300.613728 84.906159 
L 300.699481 84.866044 
L 301.076133 84.761744 
L 301.182994 84.689536 
L 301.478511 84.585236 
L 301.540517 84.561167 
L 301.544475 84.561167 
L 302.076142 84.456867 
L 302.165852 84.376636 
L 302.46005 84.272336 
L 302.516779 84.23222 
L 302.857811 84.12792 
L 302.955437 84.079782 
L 303.252933 83.975482 
L 303.338026 83.91932 
L 303.736447 83.81502 
L 303.817582 83.766882 
L 304.062307 83.670605 
L 304.171807 83.598397 
L 304.43764 83.494097 
L 304.536586 83.445958 
L 304.912578 83.341658 
L 305.012183 83.29352 
L 305.249652 83.18922 
L 305.330788 83.149104 
L 305.692928 83.044804 
L 305.795172 82.95655 
L 306.155993 82.85225 
L 306.262854 82.812135 
L 306.692937 82.707835 
L 306.748346 82.683766 
L 306.787265 82.683766 
L 307.113125 82.579466 
L 307.184366 82.555396 
L 307.542548 82.451096 
L 307.64809 82.378888 
L 307.859834 82.274588 
L 307.942288 82.194358 
L 308.161947 82.090058 
L 308.260892 82.025873 
L 308.52013 81.921573 
L 308.625671 81.881457 
L 308.849948 81.777157 
L 308.960107 81.737042 
L 309.369741 81.632742 
L 309.473304 81.584603 
L 309.894812 81.480303 
L 309.997055 81.416119 
L 310.27938 81.311819 
L 310.338087 81.26368 
L 310.679119 81.15938 
L 310.761574 81.103218 
L 311.049835 80.998918 
L 311.161973 80.910664 
L 311.468704 80.806364 
L 311.576884 80.750203 
L 311.89417 80.645903 
L 311.996413 80.53358 
L 312.295888 80.429279 
L 312.354596 80.40521 
L 312.741802 80.30091 
L 312.849983 80.268818 
L 313.243126 80.164518 
L 313.316345 80.140449 
L 313.782049 80.036148 
L 313.876377 79.979987 
L 314.16002 79.875687 
L 314.234559 79.843594 
L 314.237857 79.843594 
L 314.720711 79.739294 
L 314.823615 79.683133 
L 315.365836 79.578833 
L 315.46742 79.522671 
L 315.743807 79.418371 
L 315.853307 79.370233 
L 316.091436 79.265933 
L 316.202255 79.209771 
L 316.559777 79.105471 
L 316.667958 79.049309 
L 316.977987 78.945009 
L 317.088146 78.888848 
L 317.53406 78.784548 
L 317.616515 78.752455 
L 317.620473 78.752455 
L 317.838153 78.648155 
L 317.935119 78.559901 
L 318.284067 78.455601 
L 318.377076 78.39944 
L 318.385651 78.39944 
L 318.744493 78.29514 
L 318.814415 78.238978 
L 319.208877 78.134678 
L 319.286714 78.094563 
L 319.669963 77.990262 
L 319.735927 77.95817 
L 320.089492 77.85387 
L 320.089492 77.845847 
L 320.124452 77.845847 
L 320.700975 77.741547 
L 320.778152 77.709455 
L 321.033431 77.605155 
L 321.130398 77.565039 
L 321.576312 77.460739 
L 321.6713 77.428647 
L 322.073678 77.324347 
L 322.17922 77.276208 
L 322.41339 77.171908 
L 322.52355 77.12377 
L 322.797299 77.01947 
L 322.9035 76.955285 
L 323.428571 76.850985 
L 323.535432 76.7868 
L 323.822374 76.6825 
L 323.909446 76.642385 
L 324.177258 76.538085 
L 324.259053 76.481923 
L 324.577657 76.377623 
L 324.68122 76.305415 
L 325.164074 76.201115 
L 325.230697 76.177046 
L 325.476082 76.072746 
L 325.544025 76.048677 
L 325.545344 76.048677 
L 325.838222 75.944376 
L 325.929912 75.904261 
L 326.594166 75.799961 
L 326.693771 75.743799 
L 327.006438 75.639499 
L 327.115278 75.599384 
L 327.335597 75.495084 
L 327.429925 75.422876 
L 327.659478 75.318576 
L 327.764361 75.262414 
L 328.089561 75.158114 
L 328.160142 75.109976 
L 328.194444 75.109976 
L 328.535476 75.005676 
L 328.535476 74.997653 
L 328.54471 74.997653 
L 328.875188 74.893353 
L 328.94445 74.845214 
L 329.417409 74.740914 
L 329.50646 74.692776 
L 329.990633 74.588476 
L 330.08694 74.54836 
L 330.381798 74.44406 
L 330.491297 74.403945 
L 330.771643 74.299645 
L 330.771643 74.291622 
L 330.83101 74.291622 
L 331.190512 74.187321 
L 331.251858 74.147206 
L 331.666769 74.042906 
L 331.750543 73.986744 
L 332.096193 73.882444 
L 332.19184 73.826283 
L 332.697121 73.721983 
L 332.765723 73.681867 
L 333.119948 73.577567 
L 333.220213 73.521406 
L 333.548052 73.417106 
L 333.64238 73.360944 
L 333.654254 73.360944 
L 334.001222 73.256644 
L 334.050695 73.216529 
L 334.633154 73.112228 
L 334.724184 73.06409 
L 334.990017 72.95979 
L 335.090942 72.927698 
L 335.354796 72.823397 
L 335.400311 72.807351 
L 335.451103 72.807351 
L 336.026966 72.703051 
L 336.104143 72.638867 
L 336.5085 72.534567 
L 336.614702 72.478405 
L 337.105471 72.374105 
L 337.126579 72.350036 
L 337.142411 72.350036 
L 337.598219 72.245736 
L 337.683972 72.213643 
L 338.240046 72.109343 
L 338.325139 72.061205 
L 338.627912 71.956905 
L 338.716303 71.916789 
L 339.026332 71.812489 
L 339.131874 71.780397 
L 339.298102 71.676097 
L 339.39309 71.644004 
L 339.804703 71.539704 
L 339.892435 71.515635 
L 340.243361 71.411335 
L 340.339009 71.37122 
L 340.749302 71.26692 
L 340.858142 71.24285 
L 341.105506 71.13855 
L 341.11672 71.114481 
L 341.214346 71.114481 
L 341.719627 71.010181 
L 341.752609 70.986112 
L 341.817254 70.986112 
L 342.099578 70.881812 
L 342.209737 70.82565 
L 342.210397 70.82565 
L 342.579134 70.72135 
L 342.687314 70.665188 
L 343.049454 70.560888 
L 343.158294 70.528796 
L 343.738115 70.424496 
L 343.827166 70.344265 
L 344.307381 70.239965 
L 344.346959 70.207873 
L 344.890499 70.103573 
L 344.996041 70.055434 
L 345.370715 69.951134 
L 345.477576 69.894972 
L 346.047502 69.790672 
L 346.114125 69.742534 
L 346.581807 69.638234 
L 346.662283 69.598118 
L 346.965056 69.493818 
L 347.046851 69.44568 
L 347.33907 69.34138 
L 347.345006 69.325334 
L 347.449229 69.325334 
L 347.946595 69.221034 
L 348.050817 69.164872 
L 348.398446 69.060572 
L 348.400424 69.044526 
L 348.863489 68.940226 
L 348.953859 68.90011 
L 348.957158 68.90011 
L 349.310723 68.79581 
L 349.398454 68.731626 
L 349.636583 68.627325 
L 349.721676 68.555118 
L 350.062048 68.450818 
L 350.170888 68.418725 
L 350.499387 68.314425 
L 350.597014 68.282333 
L 351.188707 68.178033 
L 351.279737 68.129894 
L 351.610875 68.025594 
L 351.70982 68.009548 
L 352.057448 67.905248 
L 352.155075 67.881179 
L 352.741491 67.776879 
L 352.847033 67.752809 
L 353.128038 67.648509 
L 353.224345 67.608394 
L 353.50601 67.504094 
L 353.600997 67.447932 
L 353.603636 67.447932 
L 354.225673 67.343632 
L 354.308128 67.271425 
L 354.331215 67.271425 
L 354.839135 67.167124 
L 354.911695 67.127009 
L 354.948635 67.127009 
L 355.378717 67.022709 
L 355.488217 66.950501 
L 355.717771 66.846201 
L 355.820674 66.806086 
L 356.050227 66.701786 
L 356.130703 66.669693 
L 356.446009 66.565393 
L 356.550232 66.533301 
L 357.074643 66.429001 
L 357.153139 66.388885 
L 357.775836 66.284585 
L 357.870164 66.236447 
L 358.111591 66.132147 
L 358.206579 66.075985 
L 358.597083 65.971685 
L 358.661068 65.923547 
L 359.153157 65.819247 
L 359.224397 65.8032 
L 359.552896 65.6989 
L 359.645245 65.674831 
L 360.115566 65.570531 
L 360.182189 65.530416 
L 360.19868 65.530416 
L 360.600399 65.426116 
L 360.710558 65.369954 
L 361.052909 65.265654 
L 361.16043 65.233562 
L 361.36096 65.129262 
L 361.431541 65.089146 
L 361.452649 65.089146 
L 361.946057 64.984846 
L 362.030491 64.928685 
L 362.545667 64.824384 
L 362.654507 64.768223 
L 363.107677 64.663923 
L 363.208601 64.639854 
L 363.577997 64.535553 
L 363.68288 64.463346 
L 364.029189 64.359046 
L 364.138029 64.31893 
L 364.682229 64.21463 
L 364.73434 64.182538 
L 365.126164 64.078238 
L 365.218513 64.046145 
L 365.229727 64.046145 
L 365.662448 63.941845 
L 365.76799 63.885684 
L 366.278549 63.781384 
L 366.382112 63.709176 
L 366.789107 63.604876 
L 366.898607 63.556737 
L 367.279217 63.452437 
L 367.387397 63.388253 
L 367.899935 63.283953 
L 367.975793 63.25186 
L 368.303632 63.14756 
L 368.377512 63.115468 
L 368.715245 63.011168 
L 368.811552 62.930937 
L 369.320132 62.826637 
L 369.320132 62.818614 
L 369.724489 62.714314 
L 369.83069 62.618037 
L 370.19415 62.513737 
L 370.297053 62.497691 
L 370.711305 62.393391 
L 370.820145 62.329206 
L 371.167114 62.224906 
L 371.243632 62.18479 
L 371.613688 62.088513 
L 371.629519 62.056421 
L 371.719229 62.056421 
L 372.328733 61.952121 
L 372.432956 61.920029 
L 372.8604 61.815729 
L 372.925045 61.783636 
L 373.621621 61.679336 
L 373.723864 61.647244 
L 374.035213 61.542944 
L 374.118986 61.478759 
L 374.757514 61.374459 
L 374.818861 61.342367 
L 375.138125 61.238067 
L 375.248943 61.197951 
L 375.65396 61.093651 
L 375.754885 61.045513 
L 376.110429 60.941213 
L 376.205416 60.917143 
L 376.614391 60.812843 
L 376.708059 60.780751 
L 377.070199 60.676451 
L 377.083392 60.652382 
L 377.153973 60.652382 
L 377.463343 60.548082 
L 377.570863 60.524012 
L 378.02997 60.419712 
L 378.128256 60.379597 
L 378.516122 60.275297 
L 378.617706 60.235181 
L 379.159268 60.130881 
L 379.22721 60.090766 
L 379.257554 60.090766 
L 379.541197 59.986466 
L 379.628269 59.962397 
L 380.002283 59.858097 
L 380.107165 59.801935 
L 380.427749 59.697635 
L 380.460071 59.673566 
L 380.519438 59.673566 
L 380.841341 59.569266 
L 380.950181 59.513104 
L 381.438971 59.408804 
L 381.506914 59.368688 
L 381.519447 59.368688 
L 381.905994 59.264388 
L 381.993725 59.192181 
L 382.200851 59.087881 
L 382.285944 59.039742 
L 382.745711 58.935442 
L 382.792545 58.919396 
L 383.287932 58.815096 
L 383.30904 58.79905 
L 383.324212 58.79905 
L 383.620388 58.69475 
L 383.682394 58.654634 
L 383.700864 58.654634 
L 384.214061 58.550334 
L 384.323561 58.494173 
L 384.648762 58.389872 
L 384.718683 58.365803 
L 385.126998 58.261503 
L 385.236498 58.229411 
L 385.709457 58.125111 
L 385.819616 58.04488 
L 386.086769 57.94058 
L 386.171202 57.892441 
L 386.191651 57.892441 
L 386.508276 57.788141 
L 386.586773 57.772095 
L 386.619095 57.772095 
L 387.038624 57.667795 
L 387.146145 57.571518 
L 387.374379 57.467218 
L 387.473984 57.427103 
L 387.887576 57.322803 
L 387.995097 57.266641 
L 388.3513 57.162341 
L 388.46014 57.130249 
L 389.038642 57.025948 
L 389.140885 56.969787 
L 389.147482 56.969787 
L 389.533369 56.865487 
L 389.62242 56.841418 
L 389.641549 56.841418 
L 390.079548 56.737118 
L 390.189707 56.672933 
L 390.561082 56.568633 
L 390.659368 56.528517 
L 390.923882 56.424217 
L 391.025466 56.392125 
L 391.523492 56.287825 
L 391.623756 56.247709 
L 391.954894 56.143409 
L 392.022177 56.11934 
L 392.299884 56.01504 
L 392.384317 55.958879 
L 392.408064 55.958879 
L 392.710178 55.854578 
L 392.809783 55.790394 
L 393.113215 55.686094 
L 393.21414 55.621909 
L 393.578919 55.517609 
L 393.578919 55.509586 
L 393.644223 55.509586 
L 393.933143 55.405286 
L 394.034727 55.349124 
L 394.321009 55.244824 
L 394.407422 55.164593 
L 394.6284 55.060293 
L 394.73724 55.004132 
L 395.018245 54.899832 
L 395.037375 54.883785 
L 395.105977 54.883785 
L 395.600044 54.779485 
L 395.639623 54.755416 
L 395.699649 54.755416 
L 396.030127 54.651116 
L 396.138967 54.619024 
L 396.483297 54.514724 
L 396.576306 54.450539 
L 396.888974 54.346239 
L 396.976046 54.266008 
L 396.995175 54.266008 
L 397.148211 54.161708 
L 397.245177 54.105547 
L 397.527502 54.00927 
L 397.618532 53.945085 
L 397.94835 53.840785 
L 398.049934 53.784623 
L 398.188457 53.680323 
L 398.285424 53.640208 
L 398.487273 53.568 
L 398.487273 53.568 
" clip-path="url(#pe10c160806)" style="fill: none; stroke: #1f77b4; stroke-width: 1.5; stroke-linecap: square"/>
   </g>
   <g id="line2d_26">
    <path d="M 73.832727 295.488 
L 398.487273 53.568 
" clip-path="url(#pe10c160806)" style="fill: none; stroke-dasharray: 5.55,2.4; stroke-dashoffset: 0; stroke: #808080; stroke-width: 1.5"/>
   </g>
   <g id="patch_3">
    <path d="M 57.6 307.584 
L 57.6 41.472 
" style="fill: none; stroke: #000000; stroke-width: 0.8; stroke-linejoin: miter; stroke-linecap: square"/>
   </g>
   <g id="patch_4">
    <path d="M 414.72 307.584 
L 414.72 41.472 
" style="fill: none; stroke: #000000; stroke-width: 0.8; stroke-linejoin: miter; stroke-linecap: square"/>
   </g>
   <g id="patch_5">
    <path d="M 57.6 307.584 
L 414.72 307.584 
" style="fill: none; stroke: #000000; stroke-width: 0.8; stroke-linejoin: miter; stroke-linecap: square"/>
   </g>
   <g id="patch_6">
    <path d="M 57.6 41.472 
L 414.72 41.472 
" style="fill: none; stroke: #000000; stroke-width: 0.8; stroke-linejoin: miter; stroke-linecap: square"/>
   </g>
   <g id="text_15">
    <!-- ROC - LightGBM (Patient Split) -->
    <g transform="translate(145.493437 35.472) scale(0.12 -0.12)">
     <defs>
      <path id="DejaVuSans-4f" d="M 2522 4238 
Q 1834 4238 1429 3725 
Q 1025 3213 1025 2328 
Q 1025 1447 1429 934 
Q 1834 422 2522 422 
Q 3209 422 3611 934 
Q 4013 1447 4013 2328 
Q 4013 3213 3611 3725 
Q 3209 4238 2522 4238 
z
M 2522 4750 
Q 3503 4750 4090 4092 
Q 4678 3434 4678 2328 
Q 4678 1225 4090 567 
Q 3503 -91 2522 -91 
Q 1538 -91 948 565 
Q 359 1222 359 2328 
Q 359 3434 948 4092 
Q 1538 4750 2522 4750 
z
" transform="scale(0.015625)"/>
      <path id="DejaVuSans-43" d="M 4122 4306 
L 4122 3641 
Q 3803 3938 3442 4084 
Q 3081 4231 2675 4231 
Q 1875 4231 1450 3742 
Q 1025 3253 1025 2328 
Q 1025 1406 1450 917 
Q 1875 428 2675 428 
Q 3081 428 3442 575 
Q 3803 722 4122 1019 
L 4122 359 
Q 3791 134 3420 21 
Q 3050 -91 2638 -91 
Q 1578 -91 968 557 
Q 359 1206 359 2328 
Q 359 3453 968 4101 
Q 1578 4750 2638 4750 
Q 3056 4750 3426 4639 
Q 3797 4528 4122 4306 
z
" transform="scale(0.015625)"/>
      <path id="DejaVuSans-20" transform="scale(0.015625)"/>
      <path id="DejaVuSans-2d" d="M 313 2009 
L 1997 2009 
L 1997 1497 
L 313 1497 
L 313 2009 
z
" transform="scale(0.015625)"/>
      <path id="DejaVuSans-4c" d="M 628 4666 
L 1259 4666 
L 1259 531 
L 3531 531 
L 3531 0 
L 628 0 
L 628 4666 
z
" transform="scale(0.015625)"/>
      <path id="DejaVuSans-69" d="M 603 3500 
L 1178 3500 
L 1178 0 
L 603 0 
L 603 3500 
z
M 603 4863 
L 1178 4863 
L 1178 4134 
L 603 4134 
L 603 4863 
z
" transform="scale(0.015625)"/>
      <path id="DejaVuSans-67" d="M 2906 1791 
Q 2906 2416 2648 2759 
Q 2391 3103 1925 3103 
Q 1463 3103 1205 2759 
Q 947 2416 947 1791 
Q 947 1169 1205 825 
Q 1463 481 1925 481 
Q 2391 481 2648 825 
Q 2906 1169 2906 1791 
z
M 3481 434 
Q 3481 -459 3084 -895 
Q 2688 -1331 1869 -1331 
Q 1566 -1331 1297 -1286 
Q 1028 -1241 775 -1147 
L 775 -588 
Q 1028 -725 1275 -790 
Q 1522 -856 1778 -856 
Q 2344 -856 2625 -561 
Q 2906 -266 2906 331 
L 2906 616 
Q 2728 306 2450 153 
Q 2172 0 1784 0 
Q 1141 0 747 490 
Q 353 981 353 1791 
Q 353 2603 747 3093 
Q 1141 3584 1784 3584 
Q 2172 3584 2450 3431 
Q 2728 3278 2906 2969 
L 2906 3500 
L 3481 3500 
L 3481 434 
z
" transform="scale(0.015625)"/>
      <path id="DejaVuSans-68" d="M 3513 2113 
L 3513 0 
L 2938 0 
L 2938 2094 
Q 2938 2591 2744 2837 
Q 2550 3084 2163 3084 
Q 1697 3084 1428 2787 
Q 1159 2491 1159 1978 
L 1159 0 
L 581 0 
L 581 4863 
L 1159 4863 
L 1159 2956 
Q 1366 3272 1645 3428 
Q 1925 3584 2291 3584 
Q 2894 3584 3203 3211 
Q 3513 2838 3513 2113 
z
" transform="scale(0.015625)"/>
      <path id="DejaVuSans-74" d="M 1172 4494 
L 1172 3500 
L 2356 3500 
L 2356 3053 
L 1172 3053 
L 1172 1153 
Q 1172 725 1289 603 
Q 1406 481 1766 481 
L 2356 481 
L 2356 0 
L 1766 0 
Q 1100 0 847 248 
Q 594 497 594 1153 
L 594 3053 
L 172 3053 
L 172 3500 
L 594 3500 
L 594 4494 
L 1172 4494 
z
" transform="scale(0.015625)"/>
      <path id="DejaVuSans-47" d="M 3809 666 
L 3809 1919 
L 2778 1919 
L 2778 2438 
L 4434 2438 
L 4434 434 
Q 4069 175 3628 42 
Q 3188 -91 2688 -91 
Q 1594 -91 976 548 
Q 359 1188 359 2328 
Q 359 3472 976 4111 
Q 1594 4750 2688 4750 
Q 3144 4750 3555 4637 
Q 3966 4525 4313 4306 
L 4313 3634 
Q 3963 3931 3569 4081 
Q 3175 4231 2741 4231 
Q 1884 4231 1454 3753 
Q 1025 3275 1025 2328 
Q 1025 1384 1454 906 
Q 1884 428 2741 428 
Q 3075 428 3337 486 
Q 3600 544 3809 666 
z
" transform="scale(0.015625)"/>
      <path id="DejaVuSans-42" d="M 1259 2228 
L 1259 519 
L 2272 519 
Q 2781 519 3026 730 
Q 3272 941 3272 1375 
Q 3272 1813 3026 2020 
Q 2781 2228 2272 2228 
L 1259 2228 
z
M 1259 4147 
L 1259 2741 
L 2194 2741 
Q 2656 2741 2882 2914 
Q 3109 3088 3109 3444 
Q 3109 3797 2882 3972 
Q 2656 4147 2194 4147 
L 1259 4147 
z
M 628 4666 
L 2241 4666 
Q 2963 4666 3353 4366 
Q 3744 4066 3744 3513 
Q 3744 3084 3544 2831 
Q 3344 2578 2956 2516 
Q 3422 2416 3680 2098 
Q 3938 1781 3938 1306 
Q 3938 681 3513 340 
Q 3088 0 2303 0 
L 628 0 
L 628 4666 
z
" transform="scale(0.015625)"/>
      <path id="DejaVuSans-4d" d="M 628 4666 
L 1569 4666 
L 2759 1491 
L 3956 4666 
L 4897 4666 
L 4897 0 
L 4281 0 
L 4281 4097 
L 3078 897 
L 2444 897 
L 1241 4097 
L 1241 0 
L 628 0 
L 628 4666 
z
" transform="scale(0.015625)"/>
      <path id="DejaVuSans-28" d="M 1984 4856 
Q 1566 4138 1362 3434 
Q 1159 2731 1159 2009 
Q 1159 1288 1364 580 
Q 1569 -128 1984 -844 
L 1484 -844 
Q 1016 -109 783 600 
Q 550 1309 550 2009 
Q 550 2706 781 3412 
Q 1013 4119 1484 4856 
L 1984 4856 
z
" transform="scale(0.015625)"/>
      <path id="DejaVuSans-61" d="M 2194 1759 
Q 1497 1759 1228 1600 
Q 959 1441 959 1056 
Q 959 750 1161 570 
Q 1363 391 1709 391 
Q 2188 391 2477 730 
Q 2766 1069 2766 1631 
L 2766 1759 
L 2194 1759 
z
M 3341 1997 
L 3341 0 
L 2766 0 
L 2766 531 
Q 2569 213 2275 61 
Q 1981 -91 1556 -91 
Q 1019 -91 701 211 
Q 384 513 384 1019 
Q 384 1609 779 1909 
Q 1175 2209 1959 2209 
L 2766 2209 
L 2766 2266 
Q 2766 2663 2505 2880 
Q 2244 3097 1772 3097 
Q 1472 3097 1187 3025 
Q 903 2953 641 2809 
L 641 3341 
Q 956 3463 1253 3523 
Q 1550 3584 1831 3584 
Q 2591 3584 2966 3190 
Q 3341 2797 3341 1997 
z
" transform="scale(0.015625)"/>
      <path id="DejaVuSans-65" d="M 3597 1894 
L 3597 1613 
L 953 1613 
Q 991 1019 1311 708 
Q 1631 397 2203 397 
Q 2534 397 2845 478 
Q 3156 559 3463 722 
L 3463 178 
Q 3153 47 2828 -22 
Q 2503 -91 2169 -91 
Q 1331 -91 842 396 
Q 353 884 353 1716 
Q 353 2575 817 3079 
Q 1281 3584 2069 3584 
Q 2775 3584 3186 3129 
Q 3597 2675 3597 1894 
z
M 3022 2063 
Q 3016 2534 2758 2815 
Q 2500 3097 2075 3097 
Q 1594 3097 1305 2825 
Q 1016 2553 972 2059 
L 3022 2063 
z
" transform="scale(0.015625)"/>
      <path id="DejaVuSans-6e" d="M 3513 2113 
L 3513 0 
L 2938 0 
L 2938 2094 
Q 2938 2591 2744 2837 
Q 2550 3084 2163 3084 
Q 1697 3084 1428 2787 
Q 1159 2491 1159 1978 
L 1159 0 
L 581 0 
L 581 3500 
L 1159 3500 
L 1159 2956 
Q 1366 3272 1645 3428 
Q 1925 3584 2291 3584 
Q 2894 3584 3203 3211 
Q 3513 2838 3513 2113 
z
" transform="scale(0.015625)"/>
      <path id="DejaVuSans-53" d="M 3425 4513 
L 3425 3897 
Q 3066 4069 2747 4153 
Q 2428 4238 2131 4238 
Q 1616 4238 1336 4038 
Q 1056 3838 1056 3469 
Q 1056 3159 1242 3001 
Q 1428 2844 1947 2747 
L 2328 2669 
Q 3034 2534 3370 2195 
Q 3706 1856 3706 1288 
Q 3706 609 3251 259 
Q 2797 -91 1919 -91 
Q 1588 -91 1214 -16 
Q 841 59 441 206 
L 441 856 
Q 825 641 1194 531 
Q 1563 422 1919 422 
Q 2459 422 2753 634 
Q 3047 847 3047 1241 
Q 3047 1584 2836 1778 
Q 2625 1972 2144 2069 
L 1759 2144 
Q 1053 2284 737 2584 
Q 422 2884 422 3419 
Q 422 4038 858 4394 
Q 1294 4750 2059 4750 
Q 2388 4750 2728 4690 
Q 3069 4631 3425 4513 
z
" transform="scale(0.015625)"/>
      <path id="DejaVuSans-70" d="M 1159 525 
L 1159 -1331 
L 581 -1331 
L 581 3500 
L 1159 3500 
L 1159 2969 
Q 1341 3281 1617 3432 
Q 1894 3584 2278 3584 
Q 2916 3584 3314 3078 
Q 3713 2572 3713 1747 
Q 3713 922 3314 415 
Q 2916 -91 2278 -91 
Q 1894 -91 1617 61 
Q 1341 213 1159 525 
z
M 3116 1747 
Q 3116 2381 2855 2742 
Q 2594 3103 2138 3103 
Q 1681 3103 1420 2742 
Q 1159 2381 1159 1747 
Q 1159 1113 1420 752 
Q 1681 391 2138 391 
Q 2594 391 2855 752 
Q 3116 1113 3116 1747 
z
" transform="scale(0.015625)"/>
      <path id="DejaVuSans-6c" d="M 603 4863 
L 1178 4863 
L 1178 0 
L 603 0 
L 603 4863 
z
" transform="scale(0.015625)"/>
      <path id="DejaVuSans-29" d="M 513 4856 
L 1013 4856 
Q 1481 4119 1714 3412 
Q 1947 2706 1947 2009 
Q 1947 1309 1714 600 
Q 1481 -109 1013 -844 
L 513 -844 
Q 928 -128 1133 580 
Q 1338 1288 1338 2009 
Q 1338 2731 1133 3434 
Q 928 4138 513 4856 
z
" transform="scale(0.015625)"/>
     </defs>
     <use xlink:href="#DejaVuSans-52"/>
     <use xlink:href="#DejaVuSans-4f" x="69.482422"/>
     <use xlink:href="#DejaVuSans-43" x="148.193359"/>
     <use xlink:href="#DejaVuSans-20" x="218.017578"/>
     <use xlink:href="#DejaVuSans-2d" x="249.804688"/>
     <use xlink:href="#DejaVuSans-20" x="285.888672"/>
     <use xlink:href="#DejaVuSans-4c" x="317.675781"/>
     <use xlink:href="#DejaVuSans-69" x="373.388672"/>
     <use xlink:href="#DejaVuSans-67" x="401.171875"/>
     <use xlink:href="#DejaVuSans-68" x="464.648438"/>
     <use xlink:href="#DejaVuSans-74" x="528.027344"/>
     <use xlink:href="#DejaVuSans-47" x="567.236328"/>
     <use xlink:href="#DejaVuSans-42" x="644.726562"/>
     <use xlink:href="#DejaVuSans-4d" x="713.330078"/>
     <use xlink:href="#DejaVuSans-20" x="799.609375"/>
     <use xlink:href="#DejaVuSans-28" x="831.396484"/>
     <use xlink:href="#DejaVuSans-50" x="870.410156"/>
     <use xlink:href="#DejaVuSans-61" x="926.212891"/>
     <use xlink:href="#DejaVuSans-74" x="987.492188"/>
     <use xlink:href="#DejaVuSans-69" x="1026.701172"/>
     <use xlink:href="#DejaVuSans-65" x="1054.484375"/>
     <use xlink:href="#DejaVuSans-6e" x="1116.007812"/>
     <use xlink:href="#DejaVuSans-74" x="1179.386719"/>
     <use xlink:href="#DejaVuSans-20" x="1218.595703"/>
     <use xlink:href="#DejaVuSans-53" x="1250.382812"/>
     <use xlink:href="#DejaVuSans-70" x="1313.859375"/>
     <use xlink:href="#DejaVuSans-6c" x="1377.335938"/>
     <use xlink:href="#DejaVuSans-69" x="1405.119141"/>
     <use xlink:href="#DejaVuSans-74" x="1432.902344"/>
     <use xlink:href="#DejaVuSans-29" x="1472.111328"/>
    </g>
   </g>
   <g id="legend_1">
    <g id="patch_7">
     <path d="M 64.6 64.150125 
L 167.46875 64.150125 
Q 169.46875 64.150125 169.46875 62.150125 
L 169.46875 48.472 
Q 169.46875 46.472 167.46875 46.472 
L 64.6 46.472 
Q 62.6 46.472 62.6 48.472 
L 62.6 62.150125 
Q 62.6 64.150125 64.6 64.150125 
z
" style="fill: #ffffff; opacity: 0.8; stroke: #cccccc; stroke-linejoin: miter"/>
    </g>
    <g id="line2d_27">
     <path d="M 66.6 54.570438 
L 76.6 54.570438 
L 86.6 54.570438 
" style="fill: none; stroke: #1f77b4; stroke-width: 1.5; stroke-linecap: square"/>
    </g>
    <g id="text_16">
     <!-- AUC = 0.6665 -->
     <g transform="translate(94.6 58.070438) scale(0.1 -0.1)">
      <defs>
       <path id="DejaVuSans-41" d="M 2188 4044 
L 1331 1722 
L 3047 1722 
L 2188 4044 
z
M 1831 4666 
L 2547 4666 
L 4325 0 
L 3669 0 
L 3244 1197 
L 1141 1197 
L 716 0 
L 50 0 
L 1831 4666 
z
" transform="scale(0.015625)"/>
       <path id="DejaVuSans-55" d="M 556 4666 
L 1191 4666 
L 1191 1831 
Q 1191 1081 1462 751 
Q 1734 422 2344 422 
Q 2950 422 3222 751 
Q 3494 1081 3494 1831 
L 3494 4666 
L 4128 4666 
L 4128 1753 
Q 4128 841 3676 375 
Q 3225 -91 2344 -91 
Q 1459 -91 1007 375 
Q 556 841 556 1753 
L 556 4666 
z
" transform="scale(0.015625)"/>
       <path id="DejaVuSans-3d" d="M 678 2906 
L 4684 2906 
L 4684 2381 
L 678 2381 
L 678 2906 
z
M 678 1631 
L 4684 1631 
L 4684 1100 
L 678 1100 
L 678 1631 
z
" transform="scale(0.015625)"/>
       <path id="DejaVuSans-35" d="M 691 4666 
L 3169 4666 
L 3169 4134 
L 1269 4134 
L 1269 2991 
Q 1406 3038 1543 3061 
Q 1681 3084 1819 3084 
Q 2600 3084 3056 2656 
Q 3513 2228 3513 1497 
Q 3513 744 3044 326 
Q 2575 -91 1722 -91 
Q 1428 -91 1123 -41 
Q 819 9 494 109 
L 494 744 
Q 775 591 1075 516 
Q 1375 441 1709 441 
Q 2250 441 2565 725 
Q 2881 1009 2881 1497 
Q 2881 1984 2565 2268 
Q 2250 2553 1709 2553 
Q 1456 2553 1204 2497 
Q 953 2441 691 2322 
L 691 4666 
z
" transform="scale(0.015625)"/>
      </defs>
      <use xlink:href="#DejaVuSans-41"/>
      <use xlink:href="#DejaVuSans-55" x="68.408203"/>
      <use xlink:href="#DejaVuSans-43" x="141.601562"/>
      <use xlink:href="#DejaVuSans-20" x="211.425781"/>
      <use xlink:href="#DejaVuSans-3d" x="243.212891"/>
      <use xlink:href="#DejaVuSans-20" x="327.001953"/>
      <use xlink:href="#DejaVuSans-30" x="358.789062"/>
      <use xlink:href="#DejaVuSans-2e" x="422.412109"/>
      <use xlink:href="#DejaVuSans-36" x="454.199219"/>
      <use xlink:href="#DejaVuSans-36" x="517.822266"/>
      <use xlink:href="#DejaVuSans-36" x="581.445312"/>
      <use xlink:href="#DejaVuSans-35" x="645.068359"/>
     </g>
    </g>
   </g>
  </g>
 </g>
 <defs>
  <clipPath id="pe10c160806">
   <rect x="57.6" y="41.472" width="357.12" height="266.112"/>
  </clipPath>
 </defs>
</svg>
