<?xml version="1.0" encoding="utf-8" standalone="no"?>
<!DOCTYPE svg PUBLIC "-//W3C//DTD SVG 1.1//EN"
  "http://www.w3.org/Graphics/SVG/1.1/DTD/svg11.dtd">
<svg xmlns:xlink="http://www.w3.org/1999/xlink" width="460.8pt" height="345.6pt" viewBox="0 0 460.8 345.6" xmlns="http://www.w3.org/2000/svg" version="1.1">
 <metadata>
  <rdf:RDF xmlns:dc="http://purl.org/dc/elements/1.1/" xmlns:cc="http://creativecommons.org/ns#" xmlns:rdf="http://www.w3.org/1999/02/22-rdf-syntax-ns#">
   <cc:Work>
    <dc:type rdf:resource="http://purl.org/dc/dcmitype/StillImage"/>
    <dc:date>2025-07-01T11:36:41.273468</dc:date>
    <dc:format>image/svg+xml</dc:format>
    <dc:creator>
     <cc:Agent>
      <dc:title>Matplotlib v3.7.5, https://matplotlib.org/</dc:title>
     </cc:Agent>
    </dc:creator>
   </cc:Work>
  </rdf:RDF>
 </metadata>
 <defs>
  <style type="text/css">*{stroke-linejoin: round; stroke-linecap: butt}</style>
 </defs>
 <g id="figure_1">
  <g id="patch_1">
   <path d="M 0 345.6 
L 460.8 345.6 
L 460.8 0 
L 0 0 
z
" style="fill: #ffffff"/>
  </g>
  <g id="axes_1">
   <g id="patch_2">
    <path d="M 57.6 307.584 
L 414.72 307.584 
L 414.72 41.472 
L 57.6 41.472 
z
" style="fill: #ffffff"/>
   </g>
   <g id="matplotlib.axis_1">
    <g id="xtick_1">
     <g id="line2d_1">
      <path d="M 73.832727 307.584 
L 73.832727 41.472 
" clip-path="url(#p56bc49431c)" style="fill: none; stroke: #b0b0b0; stroke-width: 0.8; stroke-linecap: square"/>
     </g>
     <g id="line2d_2">
      <defs>
       <path id="m6e047e1043" d="M 0 0 
L 0 3.5 
" style="stroke: #000000; stroke-width: 0.8"/>
      </defs>
      <g>
       <use xlink:href="#m6e047e1043" x="73.832727" y="307.584" style="stroke: #000000; stroke-width: 0.8"/>
      </g>
     </g>
     <g id="text_1">
      <!-- 0.0 -->
      <g transform="translate(65.881165 322.182437) scale(0.1 -0.1)">
       <defs>
        <path id="DejaVuSans-30" d="M 2034 4250 
Q 1547 4250 1301 3770 
Q 1056 3291 1056 2328 
Q 1056 1369 1301 889 
Q 1547 409 2034 409 
Q 2525 409 2770 889 
Q 3016 1369 3016 2328 
Q 3016 3291 2770 3770 
Q 2525 4250 2034 4250 
z
M 2034 4750 
Q 2819 4750 3233 4129 
Q 3647 3509 3647 2328 
Q 3647 1150 3233 529 
Q 2819 -91 2034 -91 
Q 1250 -91 836 529 
Q 422 1150 422 2328 
Q 422 3509 836 4129 
Q 1250 4750 2034 4750 
z
" transform="scale(0.015625)"/>
        <path id="DejaVuSans-2e" d="M 684 794 
L 1344 794 
L 1344 0 
L 684 0 
L 684 794 
z
" transform="scale(0.015625)"/>
       </defs>
       <use xlink:href="#DejaVuSans-30"/>
       <use xlink:href="#DejaVuSans-2e" x="63.623047"/>
       <use xlink:href="#DejaVuSans-30" x="95.410156"/>
      </g>
     </g>
    </g>
    <g id="xtick_2">
     <g id="line2d_3">
      <path d="M 138.763636 307.584 
L 138.763636 41.472 
" clip-path="url(#p56bc49431c)" style="fill: none; stroke: #b0b0b0; stroke-width: 0.8; stroke-linecap: square"/>
     </g>
     <g id="line2d_4">
      <g>
       <use xlink:href="#m6e047e1043" x="138.763636" y="307.584" style="stroke: #000000; stroke-width: 0.8"/>
      </g>
     </g>
     <g id="text_2">
      <!-- 0.2 -->
      <g transform="translate(130.812074 322.182437) scale(0.1 -0.1)">
       <defs>
        <path id="DejaVuSans-32" d="M 1228 531 
L 3431 531 
L 3431 0 
L 469 0 
L 469 531 
Q 828 903 1448 1529 
Q 2069 2156 2228 2338 
Q 2531 2678 2651 2914 
Q 2772 3150 2772 3378 
Q 2772 3750 2511 3984 
Q 2250 4219 1831 4219 
Q 1534 4219 1204 4116 
Q 875 4013 500 3803 
L 500 4441 
Q 881 4594 1212 4672 
Q 1544 4750 1819 4750 
Q 2544 4750 2975 4387 
Q 3406 4025 3406 3419 
Q 3406 3131 3298 2873 
Q 3191 2616 2906 2266 
Q 2828 2175 2409 1742 
Q 1991 1309 1228 531 
z
" transform="scale(0.015625)"/>
       </defs>
       <use xlink:href="#DejaVuSans-30"/>
       <use xlink:href="#DejaVuSans-2e" x="63.623047"/>
       <use xlink:href="#DejaVuSans-32" x="95.410156"/>
      </g>
     </g>
    </g>
    <g id="xtick_3">
     <g id="line2d_5">
      <path d="M 203.694545 307.584 
L 203.694545 41.472 
" clip-path="url(#p56bc49431c)" style="fill: none; stroke: #b0b0b0; stroke-width: 0.8; stroke-linecap: square"/>
     </g>
     <g id="line2d_6">
      <g>
       <use xlink:href="#m6e047e1043" x="203.694545" y="307.584" style="stroke: #000000; stroke-width: 0.8"/>
      </g>
     </g>
     <g id="text_3">
      <!-- 0.4 -->
      <g transform="translate(195.742983 322.182437) scale(0.1 -0.1)">
       <defs>
        <path id="DejaVuSans-34" d="M 2419 4116 
L 825 1625 
L 2419 1625 
L 2419 4116 
z
M 2253 4666 
L 3047 4666 
L 3047 1625 
L 3713 1625 
L 3713 1100 
L 3047 1100 
L 3047 0 
L 2419 0 
L 2419 1100 
L 313 1100 
L 313 1709 
L 2253 4666 
z
" transform="scale(0.015625)"/>
       </defs>
       <use xlink:href="#DejaVuSans-30"/>
       <use xlink:href="#DejaVuSans-2e" x="63.623047"/>
       <use xlink:href="#DejaVuSans-34" x="95.410156"/>
      </g>
     </g>
    </g>
    <g id="xtick_4">
     <g id="line2d_7">
      <path d="M 268.625455 307.584 
L 268.625455 41.472 
" clip-path="url(#p56bc49431c)" style="fill: none; stroke: #b0b0b0; stroke-width: 0.8; stroke-linecap: square"/>
     </g>
     <g id="line2d_8">
      <g>
       <use xlink:href="#m6e047e1043" x="268.625455" y="307.584" style="stroke: #000000; stroke-width: 0.8"/>
      </g>
     </g>
     <g id="text_4">
      <!-- 0.6 -->
      <g transform="translate(260.673892 322.182437) scale(0.1 -0.1)">
       <defs>
        <path id="DejaVuSans-36" d="M 2113 2584 
Q 1688 2584 1439 2293 
Q 1191 2003 1191 1497 
Q 1191 994 1439 701 
Q 1688 409 2113 409 
Q 2538 409 2786 701 
Q 3034 994 3034 1497 
Q 3034 2003 2786 2293 
Q 2538 2584 2113 2584 
z
M 3366 4563 
L 3366 3988 
Q 3128 4100 2886 4159 
Q 2644 4219 2406 4219 
Q 1781 4219 1451 3797 
Q 1122 3375 1075 2522 
Q 1259 2794 1537 2939 
Q 1816 3084 2150 3084 
Q 2853 3084 3261 2657 
Q 3669 2231 3669 1497 
Q 3669 778 3244 343 
Q 2819 -91 2113 -91 
Q 1303 -91 875 529 
Q 447 1150 447 2328 
Q 447 3434 972 4092 
Q 1497 4750 2381 4750 
Q 2619 4750 2861 4703 
Q 3103 4656 3366 4563 
z
" transform="scale(0.015625)"/>
       </defs>
       <use xlink:href="#DejaVuSans-30"/>
       <use xlink:href="#DejaVuSans-2e" x="63.623047"/>
       <use xlink:href="#DejaVuSans-36" x="95.410156"/>
      </g>
     </g>
    </g>
    <g id="xtick_5">
     <g id="line2d_9">
      <path d="M 333.556364 307.584 
L 333.556364 41.472 
" clip-path="url(#p56bc49431c)" style="fill: none; stroke: #b0b0b0; stroke-width: 0.8; stroke-linecap: square"/>
     </g>
     <g id="line2d_10">
      <g>
       <use xlink:href="#m6e047e1043" x="333.556364" y="307.584" style="stroke: #000000; stroke-width: 0.8"/>
      </g>
     </g>
     <g id="text_5">
      <!-- 0.8 -->
      <g transform="translate(325.604801 322.182437) scale(0.1 -0.1)">
       <defs>
        <path id="DejaVuSans-38" d="M 2034 2216 
Q 1584 2216 1326 1975 
Q 1069 1734 1069 1313 
Q 1069 891 1326 650 
Q 1584 409 2034 409 
Q 2484 409 2743 651 
Q 3003 894 3003 1313 
Q 3003 1734 2745 1975 
Q 2488 2216 2034 2216 
z
M 1403 2484 
Q 997 2584 770 2862 
Q 544 3141 544 3541 
Q 544 4100 942 4425 
Q 1341 4750 2034 4750 
Q 2731 4750 3128 4425 
Q 3525 4100 3525 3541 
Q 3525 3141 3298 2862 
Q 3072 2584 2669 2484 
Q 3125 2378 3379 2068 
Q 3634 1759 3634 1313 
Q 3634 634 3220 271 
Q 2806 -91 2034 -91 
Q 1263 -91 848 271 
Q 434 634 434 1313 
Q 434 1759 690 2068 
Q 947 2378 1403 2484 
z
M 1172 3481 
Q 1172 3119 1398 2916 
Q 1625 2713 2034 2713 
Q 2441 2713 2670 2916 
Q 2900 3119 2900 3481 
Q 2900 3844 2670 4047 
Q 2441 4250 2034 4250 
Q 1625 4250 1398 4047 
Q 1172 3844 1172 3481 
z
" transform="scale(0.015625)"/>
       </defs>
       <use xlink:href="#DejaVuSans-30"/>
       <use xlink:href="#DejaVuSans-2e" x="63.623047"/>
       <use xlink:href="#DejaVuSans-38" x="95.410156"/>
      </g>
     </g>
    </g>
    <g id="xtick_6">
     <g id="line2d_11">
      <path d="M 398.487273 307.584 
L 398.487273 41.472 
" clip-path="url(#p56bc49431c)" style="fill: none; stroke: #b0b0b0; stroke-width: 0.8; stroke-linecap: square"/>
     </g>
     <g id="line2d_12">
      <g>
       <use xlink:href="#m6e047e1043" x="398.487273" y="307.584" style="stroke: #000000; stroke-width: 0.8"/>
      </g>
     </g>
     <g id="text_6">
      <!-- 1.0 -->
      <g transform="translate(390.53571 322.182437) scale(0.1 -0.1)">
       <defs>
        <path id="DejaVuSans-31" d="M 794 531 
L 1825 531 
L 1825 4091 
L 703 3866 
L 703 4441 
L 1819 4666 
L 2450 4666 
L 2450 531 
L 3481 531 
L 3481 0 
L 794 0 
L 794 531 
z
" transform="scale(0.015625)"/>
       </defs>
       <use xlink:href="#DejaVuSans-31"/>
       <use xlink:href="#DejaVuSans-2e" x="63.623047"/>
       <use xlink:href="#DejaVuSans-30" x="95.410156"/>
      </g>
     </g>
    </g>
    <g id="text_7">
     <!-- FPR -->
     <g transform="translate(226.795156 335.860562) scale(0.1 -0.1)">
      <defs>
       <path id="DejaVuSans-46" d="M 628 4666 
L 3309 4666 
L 3309 4134 
L 1259 4134 
L 1259 2759 
L 3109 2759 
L 3109 2228 
L 1259 2228 
L 1259 0 
L 628 0 
L 628 4666 
z
" transform="scale(0.015625)"/>
       <path id="DejaVuSans-50" d="M 1259 4147 
L 1259 2394 
L 2053 2394 
Q 2494 2394 2734 2622 
Q 2975 2850 2975 3272 
Q 2975 3691 2734 3919 
Q 2494 4147 2053 4147 
L 1259 4147 
z
M 628 4666 
L 2053 4666 
Q 2838 4666 3239 4311 
Q 3641 3956 3641 3272 
Q 3641 2581 3239 2228 
Q 2838 1875 2053 1875 
L 1259 1875 
L 1259 0 
L 628 0 
L 628 4666 
z
" transform="scale(0.015625)"/>
       <path id="DejaVuSans-52" d="M 2841 2188 
Q 3044 2119 3236 1894 
Q 3428 1669 3622 1275 
L 4263 0 
L 3584 0 
L 2988 1197 
Q 2756 1666 2539 1819 
Q 2322 1972 1947 1972 
L 1259 1972 
L 1259 0 
L 628 0 
L 628 4666 
L 2053 4666 
Q 2853 4666 3247 4331 
Q 3641 3997 3641 3322 
Q 3641 2881 3436 2590 
Q 3231 2300 2841 2188 
z
M 1259 4147 
L 1259 2491 
L 2053 2491 
Q 2509 2491 2742 2702 
Q 2975 2913 2975 3322 
Q 2975 3731 2742 3939 
Q 2509 4147 2053 4147 
L 1259 4147 
z
" transform="scale(0.015625)"/>
      </defs>
      <use xlink:href="#DejaVuSans-46"/>
      <use xlink:href="#DejaVuSans-50" x="57.519531"/>
      <use xlink:href="#DejaVuSans-52" x="117.822266"/>
     </g>
    </g>
   </g>
   <g id="matplotlib.axis_2">
    <g id="ytick_1">
     <g id="line2d_13">
      <path d="M 57.6 295.488 
L 414.72 295.488 
" clip-path="url(#p56bc49431c)" style="fill: none; stroke: #b0b0b0; stroke-width: 0.8; stroke-linecap: square"/>
     </g>
     <g id="line2d_14">
      <defs>
       <path id="ma6462f5afd" d="M 0 0 
L -3.5 0 
" style="stroke: #000000; stroke-width: 0.8"/>
      </defs>
      <g>
       <use xlink:href="#ma6462f5afd" x="57.6" y="295.488" style="stroke: #000000; stroke-width: 0.8"/>
      </g>
     </g>
     <g id="text_8">
      <!-- 0.0 -->
      <g transform="translate(34.696875 299.287219) scale(0.1 -0.1)">
       <use xlink:href="#DejaVuSans-30"/>
       <use xlink:href="#DejaVuSans-2e" x="63.623047"/>
       <use xlink:href="#DejaVuSans-30" x="95.410156"/>
      </g>
     </g>
    </g>
    <g id="ytick_2">
     <g id="line2d_15">
      <path d="M 57.6 247.104 
L 414.72 247.104 
" clip-path="url(#p56bc49431c)" style="fill: none; stroke: #b0b0b0; stroke-width: 0.8; stroke-linecap: square"/>
     </g>
     <g id="line2d_16">
      <g>
       <use xlink:href="#ma6462f5afd" x="57.6" y="247.104" style="stroke: #000000; stroke-width: 0.8"/>
      </g>
     </g>
     <g id="text_9">
      <!-- 0.2 -->
      <g transform="translate(34.696875 250.903219) scale(0.1 -0.1)">
       <use xlink:href="#DejaVuSans-30"/>
       <use xlink:href="#DejaVuSans-2e" x="63.623047"/>
       <use xlink:href="#DejaVuSans-32" x="95.410156"/>
      </g>
     </g>
    </g>
    <g id="ytick_3">
     <g id="line2d_17">
      <path d="M 57.6 198.72 
L 414.72 198.72 
" clip-path="url(#p56bc49431c)" style="fill: none; stroke: #b0b0b0; stroke-width: 0.8; stroke-linecap: square"/>
     </g>
     <g id="line2d_18">
      <g>
       <use xlink:href="#ma6462f5afd" x="57.6" y="198.72" style="stroke: #000000; stroke-width: 0.8"/>
      </g>
     </g>
     <g id="text_10">
      <!-- 0.4 -->
      <g transform="translate(34.696875 202.519219) scale(0.1 -0.1)">
       <use xlink:href="#DejaVuSans-30"/>
       <use xlink:href="#DejaVuSans-2e" x="63.623047"/>
       <use xlink:href="#DejaVuSans-34" x="95.410156"/>
      </g>
     </g>
    </g>
    <g id="ytick_4">
     <g id="line2d_19">
      <path d="M 57.6 150.336 
L 414.72 150.336 
" clip-path="url(#p56bc49431c)" style="fill: none; stroke: #b0b0b0; stroke-width: 0.8; stroke-linecap: square"/>
     </g>
     <g id="line2d_20">
      <g>
       <use xlink:href="#ma6462f5afd" x="57.6" y="150.336" style="stroke: #000000; stroke-width: 0.8"/>
      </g>
     </g>
     <g id="text_11">
      <!-- 0.6 -->
      <g transform="translate(34.696875 154.135219) scale(0.1 -0.1)">
       <use xlink:href="#DejaVuSans-30"/>
       <use xlink:href="#DejaVuSans-2e" x="63.623047"/>
       <use xlink:href="#DejaVuSans-36" x="95.410156"/>
      </g>
     </g>
    </g>
    <g id="ytick_5">
     <g id="line2d_21">
      <path d="M 57.6 101.952 
L 414.72 101.952 
" clip-path="url(#p56bc49431c)" style="fill: none; stroke: #b0b0b0; stroke-width: 0.8; stroke-linecap: square"/>
     </g>
     <g id="line2d_22">
      <g>
       <use xlink:href="#ma6462f5afd" x="57.6" y="101.952" style="stroke: #000000; stroke-width: 0.8"/>
      </g>
     </g>
     <g id="text_12">
      <!-- 0.8 -->
      <g transform="translate(34.696875 105.751219) scale(0.1 -0.1)">
       <use xlink:href="#DejaVuSans-30"/>
       <use xlink:href="#DejaVuSans-2e" x="63.623047"/>
       <use xlink:href="#DejaVuSans-38" x="95.410156"/>
      </g>
     </g>
    </g>
    <g id="ytick_6">
     <g id="line2d_23">
      <path d="M 57.6 53.568 
L 414.72 53.568 
" clip-path="url(#p56bc49431c)" style="fill: none; stroke: #b0b0b0; stroke-width: 0.8; stroke-linecap: square"/>
     </g>
     <g id="line2d_24">
      <g>
       <use xlink:href="#ma6462f5afd" x="57.6" y="53.568" style="stroke: #000000; stroke-width: 0.8"/>
      </g>
     </g>
     <g id="text_13">
      <!-- 1.0 -->
      <g transform="translate(34.696875 57.367219) scale(0.1 -0.1)">
       <use xlink:href="#DejaVuSans-31"/>
       <use xlink:href="#DejaVuSans-2e" x="63.623047"/>
       <use xlink:href="#DejaVuSans-30" x="95.410156"/>
      </g>
     </g>
    </g>
    <g id="text_14">
     <!-- TPR -->
     <g transform="translate(28.617188 184.070969) rotate(-90) scale(0.1 -0.1)">
      <defs>
       <path id="DejaVuSans-54" d="M -19 4666 
L 3928 4666 
L 3928 4134 
L 2272 4134 
L 2272 0 
L 1638 0 
L 1638 4134 
L -19 4134 
L -19 4666 
z
" transform="scale(0.015625)"/>
      </defs>
      <use xlink:href="#DejaVuSans-54"/>
      <use xlink:href="#DejaVuSans-50" x="61.083984"/>
      <use xlink:href="#DejaVuSans-52" x="121.386719"/>
     </g>
    </g>
   </g>
   <g id="line2d_25">
    <path d="M 73.832727 295.488 
L 73.931855 295.379196 
L 74.036234 295.270391 
L 74.087439 295.161587 
L 74.196414 294.882775 
L 74.239085 294.77397 
L 74.346746 294.576762 
L 74.381539 294.467958 
L 74.491171 294.175546 
L 74.510865 294.066741 
L 74.610649 293.733527 
L 74.668418 293.624723 
L 74.779363 293.31191 
L 74.821377 293.203106 
L 74.928382 292.917494 
L 74.988121 292.808689 
L 75.099065 292.468675 
L 75.150927 292.359871 
L 75.259901 292.09466 
L 75.296664 291.985855 
L 75.406952 291.673042 
L 75.425989 291.564238 
L 75.536277 291.258225 
L 75.569757 291.149421 
L 75.680701 290.857009 
L 75.733876 290.748204 
L 75.843507 290.448992 
L 75.914406 290.340187 
L 76.022068 290.095377 
L 76.053578 289.986573 
L 76.162553 289.721362 
L 76.198659 289.612557 
L 76.307634 289.258943 
L 76.354243 289.150138 
L 76.462562 288.782923 
L 76.517049 288.680919 
L 76.627993 288.313703 
L 76.657534 288.211699 
L 76.765852 287.919287 
L 76.815744 287.817283 
L 76.92275 287.572473 
L 76.972642 287.463668 
L 77.083586 287.116854 
L 77.129539 287.008049 
L 77.237201 286.702037 
L 77.281184 286.593232 
L 77.390816 286.246418 
L 77.440708 286.137613 
L 77.551652 285.865602 
L 77.595635 285.756798 
L 77.706579 285.396383 
L 77.758441 285.294379 
L 77.86479 284.886362 
L 77.912056 284.777557 
L 78.02103 284.471545 
L 78.077487 284.36954 
L 78.185149 283.859519 
L 78.212721 283.750715 
L 78.319726 283.417501 
L 78.360427 283.308697 
L 78.468746 282.927881 
L 78.506165 282.819076 
L 78.61317 282.553865 
L 78.655841 282.451861 
L 78.765472 281.975841 
L 78.831119 281.867037 
L 78.942063 281.438619 
L 78.975543 281.329815 
L 79.085831 281.044203 
L 79.133097 280.935398 
L 79.240102 280.547782 
L 79.284743 280.438978 
L 79.39503 279.99696 
L 79.427854 279.894955 
L 79.538141 279.391735 
L 79.565057 279.28293 
L 79.673375 278.956517 
L 79.704886 278.861313 
L 79.81583 278.419294 
L 79.858501 278.31049 
L 79.956315 277.888873 
L 80.017367 277.780068 
L 80.126342 277.331249 
L 80.174265 277.222445 
L 80.283896 276.739625 
L 80.302934 276.630821 
L 80.413878 276.175202 
L 80.447358 276.066397 
L 80.558302 275.617579 
L 80.585874 275.508774 
L 80.695505 275.121158 
L 80.728985 275.012354 
L 80.838616 274.645138 
L 80.86947 274.536334 
L 80.980415 274.162318 
L 81.002735 274.053514 
L 81.113022 273.563894 
L 81.149128 273.455089 
L 81.258103 272.938268 
L 81.309308 272.829463 
L 81.420252 272.49625 
L 81.446511 272.387445 
L 81.556799 271.931826 
L 81.591592 271.823022 
L 81.69991 271.517009 
L 81.728138 271.408205 
L 81.839082 270.972987 
L 81.86928 270.864182 
L 81.979568 270.435764 
L 82.001888 270.32696 
L 82.110862 269.878141 
L 82.158129 269.769337 
L 82.269073 269.402122 
L 82.305179 269.293317 
L 82.415466 268.844499 
L 82.452885 268.735694 
L 82.561204 268.286876 
L 82.613065 268.178071 
L 82.72007 267.838057 
L 82.762741 267.729253 
L 82.873685 267.321236 
L 82.903226 267.212431 
L 83.01417 266.818015 
L 83.042399 266.716011 
L 83.153343 266.355596 
L 83.173694 266.246791 
L 83.284638 265.859175 
L 83.314836 265.750371 
L 83.42578 265.376355 
L 83.455977 265.267551 
L 83.566265 264.900336 
L 83.599745 264.798331 
L 83.710689 264.342713 
L 83.737605 264.233908 
L 83.846579 263.873493 
L 83.882685 263.764689 
L 83.987721 263.445075 
L 84.024484 263.336271 
L 84.132145 262.792248 
L 84.166939 262.690244 
L 84.275913 262.268627 
L 84.305455 262.159822 
L 84.415742 261.819808 
L 84.459726 261.711004 
L 84.568701 261.255385 
L 84.613341 261.14658 
L 84.723628 260.792966 
L 84.76433 260.684161 
L 84.866083 260.371348 
L 84.908098 260.262544 
L 85.015759 259.800125 
L 85.055148 259.69132 
L 85.166092 259.303704 
L 85.185786 259.1949 
L 85.296074 258.834485 
L 85.342683 258.72568 
L 85.451001 258.351665 
L 85.49958 258.24286 
L 85.610525 257.896046 
L 85.63744 257.787242 
L 85.747071 257.447228 
L 85.780551 257.345223 
L 85.890182 257.01881 
L 85.929571 256.910005 
L 86.036576 256.488388 
L 86.083842 256.379583 
L 86.190191 256.005568 
L 86.244678 255.903564 
L 86.354966 255.57715 
L 86.405514 255.468346 
L 86.515146 255.135132 
L 86.563068 255.026327 
L 86.671386 254.733915 
L 86.744911 254.625111 
L 86.855199 254.264696 
L 86.901152 254.155891 
L 87.00947 253.863479 
L 87.054767 253.754675 
L 87.163742 253.462263 
L 87.233328 253.353458 
L 87.342959 252.972643 
L 87.387599 252.863838 
L 87.498543 252.544225 
L 87.541214 252.43542 
L 87.650845 252.068205 
L 87.693516 251.959401 
L 87.799208 251.653388 
L 87.828093 251.544584 
L 87.935755 251.258972 
L 87.968579 251.150167 
L 88.079523 250.823754 
L 88.151078 250.714949 
L 88.262022 250.306932 
L 88.291564 250.198128 
L 88.401195 249.932917 
L 88.446492 249.824112 
L 88.555466 249.463698 
L 88.604045 249.361693 
L 88.714333 248.953676 
L 88.763568 248.844872 
L 88.868604 248.409654 
L 88.931626 248.300849 
L 89.041913 248.001637 
L 89.102309 247.892833 
L 89.212597 247.552819 
L 89.250672 247.444014 
L 89.36096 247.090399 
L 89.409539 246.981595 
L 89.513918 246.702783 
L 89.570375 246.593979 
L 89.680662 246.185962 
L 89.708234 246.097558 
L 89.817209 245.839148 
L 89.861849 245.737143 
L 89.970824 245.335927 
L 90.023342 245.227122 
L 90.133629 244.717101 
L 90.194025 244.608297 
L 90.304969 244.261483 
L 90.343701 244.152678 
L 90.446767 243.758262 
L 90.502568 243.656257 
L 90.611542 243.316243 
L 90.650931 243.207439 
L 90.761875 242.955829 
L 90.799294 242.853824 
L 90.900391 242.534211 
L 90.903017 242.534211 
L 90.940436 242.425407 
L 91.050723 242.126194 
L 91.091425 242.01739 
L 91.202369 241.670575 
L 91.252917 241.561771 
L 91.363205 241.194556 
L 91.413097 241.092552 
L 91.518789 240.786539 
L 91.560147 240.677734 
L 91.666496 240.453325 
L 91.722296 240.351321 
L 91.829958 240.07931 
L 91.871316 239.970505 
L 91.979634 239.60329 
L 92.011145 239.494485 
L 92.119463 239.147671 
L 92.150317 239.038867 
L 92.260605 238.787256 
L 92.30984 238.685252 
L 92.419471 238.38604 
L 92.463455 238.277235 
L 92.573743 237.984823 
L 92.611162 237.876019 
L 92.721449 237.576806 
L 92.750334 237.474802 
L 92.861278 237.066785 
L 92.911827 236.957981 
L 93.021458 236.556764 
L 93.05822 236.45476 
L 93.166539 236.189549 
L 93.211179 236.080744 
L 93.321466 235.693128 
L 93.360855 235.584324 
L 93.471799 235.271511 
L 93.509874 235.162706 
L 93.617536 234.849893 
L 93.660207 234.741089 
L 93.760647 234.489479 
L 93.798066 234.387474 
L 93.905072 234.108663 
L 93.949712 233.999858 
L 94.054091 233.646244 
L 94.112517 233.537439 
L 94.223461 233.238227 
L 94.27401 233.136223 
L 94.383641 232.83701 
L 94.424342 232.728206 
L 94.530691 232.456195 
L 94.577301 232.360991 
L 94.688245 232.088979 
L 94.744702 231.980175 
L 94.855646 231.728564 
L 94.900286 231.61976 
L 95.005322 231.38175 
L 95.048649 231.272946 
L 95.15828 230.966933 
L 95.208829 230.858128 
L 95.3073 230.497714 
L 95.382794 230.395709 
L 95.493082 230.130498 
L 95.544287 230.021694 
L 95.655231 229.708881 
L 95.689368 229.600076 
L 95.798999 229.300864 
L 95.861364 229.19206 
L 95.969025 228.940449 
L 96.018917 228.831645 
L 96.128549 228.48483 
L 96.195509 228.376026 
L 96.306453 228.110815 
L 96.343215 228.00201 
L 96.45219 227.764001 
L 96.510616 227.655196 
L 96.615652 227.396785 
L 96.647819 227.287981 
L 96.74629 226.954767 
L 96.813251 226.859563 
L 96.920256 226.621553 
L 96.985903 226.512749 
L 97.096847 226.30194 
L 97.164464 226.193136 
L 97.273439 225.989127 
L 97.321361 225.880323 
L 97.430336 225.56751 
L 97.486136 225.458705 
L 97.591829 225.261497 
L 97.639751 225.152693 
L 97.750695 224.894282 
L 97.797305 224.785477 
L 97.908249 224.60867 
L 97.956828 224.506666 
L 98.06252 224.248255 
L 98.132107 224.139451 
L 98.243051 223.867439 
L 98.297538 223.758635 
L 98.401261 223.561427 
L 98.44984 223.452622 
L 98.558158 223.167011 
L 98.592951 223.058206 
L 98.703239 222.711392 
L 98.750505 222.602587 
L 98.861449 222.262573 
L 98.927753 222.153769 
L 99.038697 221.93616 
L 99.114192 221.827355 
L 99.22054 221.589345 
L 99.309821 221.480541 
L 99.418795 221.181328 
L 99.473283 221.072524 
L 99.57438 220.841314 
L 99.636745 220.74611 
L 99.747032 220.365295 
L 99.793642 220.263291 
L 99.90196 219.936877 
L 99.959073 219.828073 
L 100.068705 219.583262 
L 100.127131 219.494859 
L 100.238075 219.250049 
L 100.289936 219.141244 
L 100.398911 218.910035 
L 100.442238 218.80123 
L 100.553182 218.597222 
L 100.63918 218.488417 
L 100.736338 218.230006 
L 100.817085 218.121202 
L 100.928029 217.883192 
L 100.989081 217.774388 
L 101.098056 217.577179 
L 101.159108 217.468375 
L 101.265456 217.189563 
L 101.318631 217.080759 
L 101.428918 216.835949 
L 101.476184 216.727144 
L 101.581877 216.584338 
L 101.644898 216.482334 
L 101.754529 216.319127 
L 101.805734 216.210323 
L 101.915365 215.938312 
L 101.962632 215.843108 
L 102.07095 215.598298 
L 102.113621 215.489493 
L 102.224565 215.197081 
L 102.255419 215.088277 
L 102.36505 214.789064 
L 102.422163 214.68026 
L 102.529169 214.462651 
L 102.578404 214.360647 
L 102.682127 214.183839 
L 102.727424 214.075035 
L 102.837711 213.850625 
L 102.888916 213.741821 
L 102.97951 213.551413 
L 102.995921 213.551413 
L 103.047126 213.442609 
L 103.148223 213.313403 
L 103.237504 213.204599 
L 103.348448 213.041392 
L 103.408187 212.932587 
L 103.519131 212.782981 
L 103.599877 212.674177 
L 103.708852 212.538171 
L 103.762026 212.436167 
L 103.865093 212.245759 
L 103.9419 212.136955 
L 104.050218 211.858143 
L 104.081729 211.749339 
L 104.19136 211.463727 
L 104.258977 211.354922 
L 104.369265 211.137313 
L 104.421126 211.028509 
L 104.530757 210.8245 
L 104.579993 210.722496 
L 104.687655 210.491287 
L 104.741485 210.382482 
L 104.846521 210.130872 
L 104.953526 210.022067 
L 105.064471 209.84526 
L 105.136683 209.736455 
L 105.233841 209.525647 
L 105.306709 209.416842 
L 105.415028 209.11763 
L 105.483957 209.008825 
L 105.590963 208.832018 
L 105.664488 208.723213 
L 105.766241 208.607609 
L 105.820072 208.498804 
L 105.929047 208.355998 
L 106.003885 208.247194 
L 106.11089 208.063586 
L 106.198857 207.954782 
L 106.309801 207.716772 
L 106.420745 207.607967 
L 106.529064 207.41756 
L 106.590772 207.308755 
L 106.697121 207.111547 
L 106.749639 207.002742 
L 106.860583 206.832735 
L 106.951833 206.723931 
L 107.062777 206.560724 
L 107.13105 206.45192 
L 107.241994 206.254711 
L 107.305672 206.145907 
L 107.413334 205.948699 
L 107.49605 205.839894 
L 107.605681 205.635886 
L 107.664107 205.527081 
L 107.771112 205.370675 
L 107.833477 205.26187 
L 107.936544 205.146266 
L 108.00416 205.037461 
L 108.114448 204.840253 
L 108.207011 204.731448 
L 108.307451 204.541041 
L 108.382289 204.432236 
L 108.492577 204.303031 
L 108.591048 204.194226 
L 108.696084 203.997018 
L 108.759105 203.888214 
L 108.860859 203.765809 
L 108.936353 203.657004 
L 109.045984 203.446195 
L 109.173997 203.337391 
L 109.284941 203.187785 
L 109.407701 203.07898 
L 109.518646 202.881772 
L 109.625651 202.772968 
L 109.723465 202.609761 
L 109.842944 202.500956 
L 109.940758 202.290148 
L 110.024787 202.181343 
L 110.130479 201.984135 
L 110.229607 201.87533 
L 110.33333 201.698523 
L 110.42261 201.589719 
L 110.526989 201.440112 
L 110.635964 201.331308 
L 110.741 201.1409 
L 110.814525 201.032096 
L 110.922187 200.821287 
L 110.985865 200.719283 
L 111.096809 200.501674 
L 111.172303 200.392869 
L 111.267492 200.263664 
L 111.373841 200.16166 
L 111.481502 200.039255 
L 111.550432 199.93045 
L 111.640369 199.787644 
L 111.728993 199.67884 
L 111.839281 199.502032 
L 111.93053 199.393228 
L 112.036879 199.250422 
L 112.083489 199.141617 
L 112.193776 198.97161 
L 112.314568 198.862806 
L 112.425512 198.72 
L 112.508884 198.611196 
L 112.617202 198.413987 
L 112.713704 198.305183 
L 112.823335 198.121575 
L 112.902112 198.012771 
L 113.01043 197.767961 
L 113.102993 197.659156 
L 113.206059 197.50275 
L 113.265142 197.393945 
L 113.374116 197.169536 
L 113.507381 197.060731 
L 113.618325 196.877124 
L 113.706292 196.768319 
L 113.811985 196.605113 
L 113.891418 196.496308 
L 113.993828 196.339902 
L 114.065383 196.231097 
L 114.175671 196.06789 
L 114.254448 195.959086 
L 114.36014 195.80948 
L 114.478305 195.700675 
L 114.585311 195.517068 
L 114.665401 195.415063 
L 114.771093 195.238256 
L 114.857747 195.129452 
L 114.956875 194.973045 
L 115.063224 194.871041 
L 115.174168 194.735035 
L 115.281829 194.626231 
L 115.392117 194.463024 
L 115.475489 194.35422 
L 115.583151 194.177412 
L 115.641577 194.068608 
L 115.749239 193.905401 
L 115.853618 193.796596 
L 115.963249 193.619789 
L 116.043996 193.510985 
L 116.145749 193.381779 
L 116.235686 193.272975 
L 116.340065 193.130169 
L 116.423437 193.021364 
L 116.531756 192.844557 
L 116.645982 192.735753 
L 116.748392 192.620148 
L 116.859993 192.518144 
L 116.967654 192.314135 
L 117.042492 192.205331 
L 117.143589 192.028523 
L 117.240091 191.919719 
L 117.351035 191.749712 
L 117.397645 191.640907 
L 117.508589 191.538903 
L 117.599182 191.430099 
L 117.708813 191.246491 
L 117.838795 191.137687 
L 117.938579 191.015282 
L 118.023264 190.906477 
L 118.130269 190.784072 
L 118.20642 190.675267 
L 118.314739 190.50526 
L 118.385638 190.396456 
L 118.496582 190.308052 
L 118.607526 190.199248 
L 118.686959 190.097244 
L 118.803155 189.988439 
L 118.903596 189.825232 
L 118.984342 189.716428 
L 119.093317 189.614424 
L 119.16159 189.505619 
L 119.262687 189.335612 
L 119.365753 189.226808 
L 119.475384 189.05 
L 119.606679 188.941196 
L 119.716967 188.784789 
L 119.819377 188.675985 
L 119.930321 188.519578 
L 120.016319 188.410774 
L 120.110195 188.240767 
L 120.269718 188.138763 
L 120.371471 188.023158 
L 120.48898 187.914353 
L 120.589421 187.82595 
L 120.723341 187.717145 
L 120.826408 187.58794 
L 120.945229 187.479135 
L 121.048952 187.363531 
L 121.199941 187.254726 
L 121.297099 187.125521 
L 121.437585 187.016716 
L 121.548529 186.846709 
L 121.624023 186.744705 
L 121.733654 186.642701 
L 121.80521 186.533896 
L 121.910902 186.425092 
L 122.019877 186.323088 
L 122.109814 186.200683 
L 122.234544 186.091878 
L 122.336297 185.976273 
L 122.456432 185.867469 
L 122.547682 185.751864 
L 122.697358 185.643059 
L 122.779417 185.500254 
L 122.880514 185.391449 
L 122.984894 185.214642 
L 123.056449 185.105837 
L 123.159516 184.976632 
L 123.299345 184.867827 
L 123.402411 184.745422 
L 123.531736 184.636618 
L 123.63152 184.521013 
L 123.728022 184.419009 
L 123.835027 184.289804 
L 123.921682 184.180999 
L 124.024092 184.031393 
L 124.13241 183.922588 
L 124.238759 183.813784 
L 124.34642 183.704979 
L 124.455395 183.623376 
L 124.571591 183.514571 
L 124.668749 183.392166 
L 124.750808 183.283362 
L 124.854531 183.167757 
L 124.859126 183.167757 
L 124.954972 183.058953 
L 125.061977 182.943348 
L 125.147975 182.834543 
L 125.258263 182.650936 
L 125.358703 182.542131 
L 125.465708 182.372124 
L 125.544485 182.27012 
L 125.650177 182.120514 
L 125.770312 182.011709 
L 125.879287 181.875704 
L 125.982353 181.766899 
L 126.087389 181.637694 
L 126.189142 181.528889 
L 126.296804 181.433685 
L 126.430725 181.324881 
L 126.525257 181.195676 
L 126.653926 181.086871 
L 126.759618 180.944065 
L 126.867936 180.835261 
L 126.963782 180.712856 
L 127.066848 180.604051 
L 127.162037 180.474846 
L 127.271011 180.366041 
L 127.380642 180.284438 
L 127.516533 180.175633 
L 127.603844 179.992026 
L 127.729887 179.883221 
L 127.834266 179.781217 
L 127.919607 179.672413 
L 128.0253 179.584009 
L 128.15003 179.475204 
L 128.254409 179.311998 
L 128.379796 179.209994 
L 128.485488 179.080788 
L 128.595119 178.971984 
L 128.690964 178.897181 
L 128.826198 178.788376 
L 128.936485 178.618369 
L 129.107169 178.509565 
L 129.212204 178.366759 
L 129.337591 178.257954 
L 129.448535 178.074347 
L 129.535846 177.965542 
L 129.644164 177.849937 
L 129.770864 177.741133 
L 129.881808 177.605127 
L 129.967149 177.496323 
L 130.042644 177.401119 
L 130.14768 177.299115 
L 130.247464 177.135908 
L 130.36169 177.033904 
L 130.465413 176.9591 
L 130.559945 176.850296 
L 130.66892 176.755092 
L 130.803497 176.646288 
L 130.913785 176.537483 
L 131.016851 176.428679 
L 131.115322 176.285873 
L 131.228892 176.177068 
L 131.333928 176.081864 
L 131.470475 175.97306 
L 131.571571 175.823454 
L 131.699584 175.714649 
L 131.798711 175.585444 
L 131.883397 175.476639 
L 131.987119 175.422237 
L 132.092812 175.313432 
L 132.200473 175.143425 
L 132.328486 175.034621 
L 132.435491 174.919016 
L 132.51952 174.810212 
L 132.630464 174.687807 
L 132.721057 174.579002 
L 132.820185 174.422596 
L 132.948854 174.313791 
L 133.057172 174.177786 
L 133.175994 174.068981 
L 133.262648 173.946576 
L 133.423484 173.844572 
L 133.533772 173.681365 
L 133.741874 173.579361 
L 133.851505 173.477357 
L 133.978205 173.368552 
L 134.085866 173.266548 
L 134.228978 173.157743 
L 134.336639 173.042139 
L 134.490254 172.933334 
L 134.590695 172.858531 
L 134.736432 172.749726 
L 134.840155 172.661323 
L 134.928779 172.552518 
L 135.037097 172.430113 
L 135.156575 172.328109 
L 135.267519 172.219305 
L 135.415226 172.1105 
L 135.511728 171.967694 
L 135.671251 171.85889 
L 135.779569 171.709283 
L 135.886574 171.600479 
L 135.994236 171.464473 
L 136.113058 171.355669 
L 136.218093 171.267265 
L 136.323786 171.158461 
L 136.430791 171.022455 
L 136.54633 170.913651 
L 136.644145 170.798046 
L 136.813515 170.689241 
L 136.915925 170.600838 
L 137.042625 170.492033 
L 137.133874 170.383229 
L 137.30784 170.274424 
L 137.34132 170.247223 
L 137.483775 170.138419 
L 137.567804 170.036414 
L 137.708289 169.92761 
L 137.817264 169.825606 
L 137.904575 169.716801 
L 138.01158 169.614797 
L 138.145501 169.505992 
L 138.247911 169.424389 
L 138.398243 169.315585 
L 138.509187 169.20678 
L 138.662802 169.097976 
L 138.764555 169.002772 
L 138.870248 168.893967 
L 138.975284 168.771562 
L 139.11183 168.662758 
L 139.222118 168.594755 
L 139.338314 168.48595 
L 139.447288 168.404347 
L 139.593682 168.295542 
L 139.696748 168.132336 
L 139.889095 168.023531 
L 139.990192 167.948728 
L 140.187791 167.839924 
L 140.289544 167.75832 
L 140.425434 167.649516 
L 140.535065 167.499909 
L 140.596774 167.391105 
L 140.699184 167.2755 
L 140.827196 167.166696 
L 140.931576 167.044291 
L 141.060901 166.935486 
L 141.16725 166.833482 
L 141.268347 166.724677 
L 141.374695 166.602272 
L 141.534219 166.493468 
L 141.64385 166.357462 
L 141.77777 166.248658 
L 141.880837 166.167054 
L 142.046925 166.05825 
L 142.15196 165.963046 
L 142.272095 165.854241 
L 142.377787 165.765838 
L 142.556348 165.663834 
L 142.664667 165.56863 
L 142.765107 165.459825 
L 142.872112 165.391822 
L 143.017849 165.283018 
L 143.122229 165.208215 
L 143.280439 165.09941 
L 143.391383 164.983805 
L 143.571913 164.875001 
L 143.676293 164.779797 
L 143.804962 164.670993 
L 143.913936 164.555388 
L 144.01372 164.446583 
L 144.113504 164.35818 
L 144.201472 164.249375 
L 144.303225 164.147371 
L 144.498854 164.038566 
L 144.564502 163.963763 
L 144.748971 163.854959 
L 144.859259 163.780156 
L 144.961669 163.671351 
L 145.071956 163.576147 
L 145.192747 163.467343 
L 145.294501 163.378939 
L 145.407414 163.270135 
L 145.511794 163.181731 
L 145.681164 163.072926 
L 145.790795 162.970922 
L 146.025813 162.862118 
L 146.133474 162.760114 
L 146.265426 162.651309 
L 146.372431 162.501703 
L 146.486001 162.392898 
L 146.586441 162.290894 
L 146.668501 162.18209 
L 146.768941 162.080085 
L 146.933716 161.971281 
L 147.044004 161.882877 
L 147.173329 161.774073 
L 147.272456 161.692469 
L 147.378805 161.583665 
L 147.488436 161.46806 
L 147.630235 161.359256 
L 147.722141 161.23005 
L 147.855405 161.121246 
L 147.965036 161.019242 
L 148.098301 160.910437 
L 148.199398 160.815233 
L 148.396996 160.713229 
L 148.504658 160.631626 
L 148.697661 160.522821 
L 148.801384 160.414017 
L 149.046905 160.305212 
L 149.157193 160.189607 
L 149.31606 160.080803 
L 149.417157 159.978799 
L 149.572741 159.869994 
L 149.673181 159.754389 
L 149.805133 159.645585 
L 149.908199 159.550381 
L 150.045402 159.441576 
L 150.147155 159.393974 
L 150.328342 159.28517 
L 150.434035 159.210367 
L 150.544979 159.101562 
L 150.629007 159.05396 
L 150.802973 158.945156 
L 150.898818 158.843152 
L 151.020922 158.734347 
L 151.120706 158.645943 
L 151.259222 158.543939 
L 151.364258 158.421534 
L 151.517873 158.31273 
L 151.607153 158.237927 
L 151.759455 158.129122 
L 151.865804 158.013517 
L 151.970183 157.904713 
L 152.077189 157.802709 
L 152.178286 157.693904 
L 152.287917 157.632702 
L 152.424463 157.523897 
L 152.534751 157.435493 
L 152.711342 157.326689 
L 152.811126 157.258686 
L 152.968024 157.149882 
L 153.077655 157.007076 
L 153.246368 156.898271 
L 153.355343 156.830268 
L 153.48992 156.721464 
L 153.596269 156.639861 
L 153.751197 156.531056 
L 153.845729 156.422252 
L 153.97965 156.313447 
L 154.042015 156.272645 
L 154.315764 156.163841 
L 154.416861 156.055036 
L 154.66107 155.946232 
L 154.769388 155.871429 
L 154.949262 155.769425 
L 155.047076 155.674221 
L 155.228263 155.565416 
L 155.321482 155.449811 
L 155.514486 155.341007 
L 155.61427 155.232202 
L 155.785609 155.123398 
L 155.877516 155.041795 
L 156.046229 154.93299 
L 156.146013 154.864987 
L 156.359367 154.756183 
L 156.466373 154.660979 
L 156.562874 154.552174 
L 156.671849 154.484171 
L 156.813647 154.375367 
L 156.923935 154.266562 
L 157.093962 154.157758 
L 157.204906 154.069354 
L 157.305346 153.96055 
L 157.414321 153.851745 
L 157.537738 153.749741 
L 157.642117 153.654537 
L 157.818052 153.545733 
L 157.904707 153.457329 
L 158.089176 153.348525 
L 158.196181 153.280522 
L 158.376055 153.171717 
L 158.486343 153.110515 
L 158.666217 153.00171 
L 158.756153 152.892906 
L 158.934714 152.784101 
L 159.037781 152.709298 
L 159.238662 152.600494 
L 159.331881 152.51889 
L 159.572807 152.410086 
L 159.679812 152.355683 
L 159.844587 152.26048 
L 159.946341 152.138074 
L 160.130153 152.02927 
L 160.241097 151.981668 
L 160.380926 151.872864 
L 160.489901 151.804861 
L 160.625791 151.696056 
L 160.726231 151.614453 
L 160.824046 151.505648 
L 160.922517 151.430845 
L 161.095826 151.322041 
L 161.194954 151.254038 
L 161.290799 151.145233 
L 161.401087 151.07043 
L 161.52516 150.961626 
L 161.629539 150.893623 
L 161.731293 150.798419 
L 161.749674 150.757617 
L 161.999134 150.648813 
L 162.108765 150.560409 
L 162.325402 150.451605 
L 162.431094 150.376802 
L 162.534817 150.267997 
L 162.641822 150.186394 
L 162.79675 150.077589 
L 162.907694 150.002786 
L 163.08166 149.893982 
L 163.187352 149.812378 
L 163.381668 149.703574 
L 163.489986 149.60157 
L 163.602243 149.492765 
L 163.710562 149.397561 
L 163.837918 149.288757 
L 163.912756 149.227554 
L 164.107072 149.11875 
L 164.202917 149.043947 
L 164.3736 148.935142 
L 164.480605 148.833138 
L 164.621747 148.724333 
L 164.724157 148.683532 
L 164.853483 148.588328 
L 164.946045 148.459122 
L 165.091126 148.350318 
L 165.198131 148.248314 
L 165.470568 148.139509 
L 165.581512 148.085107 
L 165.762042 147.976302 
L 165.872986 147.881099 
L 166.061394 147.772294 
L 166.151988 147.68389 
L 166.365998 147.575086 
L 166.467752 147.493483 
L 166.590512 147.384678 
L 166.669289 147.316675 
L 166.831438 147.207871 
L 166.929253 147.139868 
L 167.065799 147.031063 
L 167.165583 146.915459 
L 167.333641 146.806654 
L 167.43802 146.745452 
L 167.639558 146.636647 
L 167.743937 146.534643 
L 168.023595 146.425838 
L 168.124035 146.317034 
L 168.298001 146.208229 
L 168.408945 146.147027 
L 168.663 146.038222 
L 168.764097 145.98382 
L 168.929529 145.875016 
L 169.034564 145.779812 
L 169.172424 145.671007 
L 169.283368 145.514601 
L 169.440922 145.405796 
L 169.544645 145.303792 
L 169.790166 145.194987 
L 169.899797 145.065782 
L 170.075076 144.956978 
L 170.184707 144.909376 
L 170.398061 144.800571 
L 170.504409 144.678166 
L 170.679031 144.569362 
L 170.77619 144.467357 
L 171.034184 144.358553 
L 171.123464 144.270149 
L 171.26395 144.161345 
L 171.372924 144.079741 
L 171.491746 143.970937 
L 171.582996 143.889334 
L 171.787816 143.780529 
L 171.883661 143.719326 
L 172.091763 143.610522 
L 172.190891 143.549319 
L 172.316277 143.440515 
L 172.406214 143.352111 
L 172.645171 143.250107 
L 172.74955 143.161703 
L 172.948462 143.052899 
L 173.020017 142.991696 
L 173.227463 142.882892 
L 173.329873 142.774087 
L 173.522876 142.665283 
L 173.629881 142.570079 
L 173.834045 142.461274 
L 173.924638 142.386471 
L 174.159656 142.277667 
L 174.217426 142.230065 
L 174.518091 142.12126 
L 174.61131 142.039657 
L 174.83845 141.930853 
L 174.906723 141.883251 
L 175.122703 141.774446 
L 175.229708 141.699643 
L 175.438467 141.590839 
L 175.548754 141.495635 
L 175.882243 141.38683 
L 175.980714 141.278026 
L 176.156649 141.169221 
L 176.252494 141.121619 
L 176.477665 141.012815 
L 176.574823 140.951612 
L 176.786864 140.842808 
L 176.857763 140.768004 
L 177.006126 140.6592 
L 177.092124 140.618398 
L 177.233266 140.509594 
L 177.310074 140.455192 
L 177.497825 140.346387 
L 177.608769 140.278384 
L 177.779453 140.16958 
L 177.890397 140.060775 
L 177.956701 139.951971 
L 178.015127 139.911169 
L 178.290846 139.802365 
L 178.36831 139.747962 
L 178.597419 139.639158 
L 178.701798 139.509952 
L 178.890206 139.401148 
L 178.999837 139.312744 
L 179.211879 139.20394 
L 179.293938 139.149538 
L 179.611015 139.040733 
L 179.717363 138.986331 
L 179.883451 138.877526 
L 179.9898 138.795923 
L 180.184773 138.693919 
L 180.285213 138.612315 
L 180.501193 138.503511 
L 180.612137 138.387906 
L 180.849124 138.279102 
L 180.952847 138.190698 
L 181.131408 138.081893 
L 181.225284 137.98669 
L 181.399249 137.877885 
L 181.499033 137.74868 
L 181.695976 137.639875 
L 181.794447 137.551472 
L 181.925741 137.442667 
L 182.03209 137.381465 
L 182.197522 137.27266 
L 182.299932 137.197857 
L 182.480462 137.089052 
L 182.586811 136.987048 
L 182.859247 136.878244 
L 182.954436 136.810241 
L 183.1435 136.701436 
L 183.24591 136.599432 
L 183.496683 136.490628 
L 183.569552 136.409024 
L 183.843958 136.30022 
L 183.94965 136.225417 
L 184.090792 136.123413 
L 184.197797 136.021408 
L 184.371106 135.912604 
L 184.475486 135.837801 
L 184.622536 135.728996 
L 184.726915 135.667794 
L 184.926483 135.558989 
L 185.028893 135.497787 
L 185.288857 135.388982 
L 185.372229 135.33458 
L 185.712283 135.225775 
L 185.819288 135.130571 
L 185.989315 135.021767 
L 186.064809 134.960564 
L 186.281445 134.85176 
L 186.380573 134.763356 
L 186.530249 134.654552 
L 186.632002 134.60695 
L 186.788243 134.498145 
L 186.872272 134.430143 
L 187.067901 134.328138 
L 187.175563 134.266936 
L 187.429618 134.158131 
L 187.532028 134.096929 
L 187.70862 133.988124 
L 187.813655 133.920121 
L 188.072963 133.811317 
L 188.158961 133.770515 
L 188.299446 133.675311 
L 188.41039 133.573307 
L 188.57057 133.464503 
L 188.680201 133.348898 
L 188.883708 133.240093 
L 188.990056 133.131289 
L 189.200785 133.022484 
L 189.29663 133.002083 
L 189.605829 132.893279 
L 189.697735 132.852477 
L 189.89599 132.743673 
L 189.997087 132.689271 
L 190.155954 132.580466 
L 190.265585 132.512463 
L 190.534739 132.403659 
L 190.643714 132.356057 
L 190.919433 132.247252 
L 191.017904 132.152048 
L 191.241105 132.043244 
L 191.348111 131.94124 
L 191.486627 131.832435 
L 191.585754 131.771233 
L 191.76891 131.662428 
L 191.873946 131.587625 
L 192.011149 131.478821 
L 192.115528 131.383617 
L 192.35908 131.274812 
L 192.467398 131.206809 
L 192.659089 131.098005 
L 192.750995 131.050403 
L 192.961067 130.941598 
L 193.071354 130.880396 
L 193.277487 130.771591 
L 193.379241 130.683188 
L 193.529573 130.574383 
L 193.63067 130.479179 
L 193.779033 130.370375 
L 193.867001 130.322773 
L 194.061317 130.213968 
L 194.155849 130.166366 
L 194.36986 130.057562 
L 194.44798 129.989559 
L 194.665929 129.880754 
L 194.774904 129.792351 
L 194.952152 129.683546 
L 195.041432 129.629144 
L 195.228527 129.52034 
L 195.307304 129.472738 
L 195.565299 129.363933 
L 195.663113 129.302731 
L 195.953931 129.193926 
L 196.047807 129.153124 
L 196.323526 129.04432 
L 196.430531 128.969517 
L 196.755486 128.860712 
L 196.863147 128.81311 
L 197.056151 128.704306 
L 197.153965 128.629503 
L 197.441501 128.520698 
L 197.552445 128.452695 
L 197.754639 128.343891 
L 197.852453 128.289489 
L 198.092066 128.180684 
L 198.153118 128.146683 
L 198.399296 128.037878 
L 198.49908 127.976676 
L 198.89559 127.867871 
L 199.003909 127.793068 
L 199.244834 127.684264 
L 199.318359 127.609461 
L 199.695175 127.500656 
L 199.798898 127.412252 
L 199.984024 127.303448 
L 200.073961 127.249046 
L 200.228889 127.140241 
L 200.33852 127.072238 
L 200.585354 126.963434 
L 200.694985 126.895431 
L 200.866981 126.786627 
L 200.977269 126.718624 
L 201.310758 126.609819 
L 201.381 126.555417 
L 201.388878 126.555417 
L 201.677727 126.446613 
L 201.769633 126.399011 
L 202.152357 126.290206 
L 202.259362 126.188202 
L 202.429389 126.086198 
L 202.5167 126.011395 
L 202.764191 125.90259 
L 202.856754 125.854988 
L 203.121312 125.746184 
L 203.215188 125.65778 
L 203.39178 125.548975 
L 203.498128 125.467372 
L 203.697697 125.358568 
L 203.798137 125.310966 
L 204.024621 125.202161 
L 204.133595 125.106957 
L 204.289836 124.998153 
L 204.40078 124.93695 
L 204.641049 124.828146 
L 204.748711 124.753343 
L 204.978477 124.644538 
L 205.081543 124.569735 
L 205.385491 124.46093 
L 205.489214 124.386127 
L 205.696659 124.277323 
L 205.79513 124.182119 
L 205.996668 124.080115 
L 206.103673 123.984911 
L 206.330157 123.876106 
L 206.420094 123.808103 
L 206.581586 123.699299 
L 206.669554 123.658497 
L 206.915075 123.549693 
L 207.015515 123.522492 
L 207.259724 123.413687 
L 207.366072 123.318483 
L 207.560389 123.209679 
L 207.667394 123.121275 
L 207.97528 123.012471 
L 208.074408 122.944468 
L 208.361943 122.835663 
L 208.436781 122.808462 
L 208.758453 122.699658 
L 208.866772 122.652056 
L 209.022356 122.543251 
L 209.116888 122.488849 
L 209.365692 122.380044 
L 209.450377 122.312042 
L 209.655197 122.203237 
L 209.756294 122.142035 
L 209.910565 122.03323 
L 210.01954 121.992428 
L 210.295259 121.883624 
L 210.398325 121.822421 
L 210.750195 121.713617 
L 210.861139 121.645614 
L 211.100752 121.53681 
L 211.207757 121.482407 
L 211.459843 121.373603 
L 211.564223 121.3056 
L 211.872765 121.196796 
L 211.969923 121.115192 
L 212.209536 121.006388 
L 212.306695 120.951985 
L 212.563376 120.843181 
L 212.664473 120.788779 
L 212.85682 120.679974 
L 212.962512 120.639172 
L 213.166675 120.530368 
L 213.271055 120.448765 
L 213.550712 120.33996 
L 213.653779 120.271957 
L 213.930154 120.163153 
L 214.015496 120.115551 
L 214.373931 120.006746 
L 214.438265 119.965945 
L 214.442204 119.965945 
L 214.747464 119.85714 
L 214.843309 119.795938 
L 215.128219 119.687133 
L 215.221438 119.646331 
L 215.549019 119.537527 
L 215.659306 119.483125 
L 215.892355 119.37432 
L 216.000673 119.326718 
L 216.162822 119.217914 
L 216.265888 119.170312 
L 216.486464 119.061507 
L 216.594125 119.027506 
L 216.826517 118.918701 
L 216.936148 118.871099 
L 217.171166 118.762295 
L 217.280797 118.667091 
L 217.508593 118.558286 
L 217.557172 118.537886 
L 217.886066 118.429081 
L 217.966156 118.374679 
L 218.220211 118.265874 
L 218.316713 118.218272 
L 218.612782 118.109468 
L 218.72307 118.048265 
L 218.899661 117.939461 
L 219.007323 117.885059 
L 219.258096 117.776254 
L 219.363132 117.749053 
L 219.625721 117.640248 
L 219.736666 117.511043 
L 219.999255 117.402239 
L 220.087879 117.313835 
L 220.416116 117.20503 
L 220.485702 117.143828 
L 220.794245 117.035023 
L 220.90125 116.994222 
L 221.253777 116.885417 
L 221.364064 116.810614 
L 221.639127 116.70181 
L 221.744819 116.627007 
L 221.939135 116.518202 
L 222.050079 116.457 
L 222.252273 116.348195 
L 222.336302 116.280192 
L 222.610708 116.171388 
L 222.717057 116.096585 
L 222.864763 115.98778 
L 222.973738 115.919777 
L 223.199565 115.810973 
L 223.310509 115.74977 
L 223.557343 115.640966 
L 223.666318 115.593364 
L 223.974204 115.484559 
L 224.067424 115.450558 
L 224.344455 115.341753 
L 224.450148 115.25335 
L 224.686478 115.151346 
L 224.796766 115.069742 
L 225.050165 114.960938 
L 225.158483 114.899735 
L 225.432233 114.797731 
L 225.53333 114.722928 
L 225.877322 114.614123 
L 225.980388 114.566521 
L 226.133347 114.457717 
L 226.239695 114.376114 
L 226.491781 114.267309 
L 226.596161 114.206107 
L 226.792446 114.097302 
L 226.899452 114.0497 
L 227.265764 113.940896 
L 227.372769 113.80489 
L 227.599909 113.696085 
L 227.681969 113.662084 
L 227.904513 113.55328 
L 227.913704 113.539679 
L 228.300367 113.430874 
L 228.410654 113.376472 
L 228.610879 113.267668 
L 228.672588 113.226866 
L 228.988351 113.118062 
L 229.053342 113.07046 
L 229.378297 112.961655 
L 229.487272 112.907253 
L 229.921857 112.798448 
L 230.029519 112.744046 
L 230.501524 112.635242 
L 230.574392 112.60124 
L 230.869149 112.492436 
L 230.955147 112.410832 
L 231.160623 112.302028 
L 231.232836 112.261226 
L 231.531531 112.152422 
L 231.639849 112.098019 
L 232.011414 111.989215 
L 232.104633 111.934813 
L 232.492609 111.826008 
L 232.575981 111.792007 
L 232.908157 111.683202 
L 232.997437 111.656001 
L 233.335521 111.547197 
L 233.440557 111.492794 
L 233.583012 111.38399 
L 233.683452 111.349988 
L 234.032697 111.241184 
L 234.118038 111.186782 
L 234.436428 111.077977 
L 234.534899 111.043976 
L 234.784359 110.935171 
L 234.86051 110.887569 
L 235.256364 110.778765 
L 235.325294 110.751564 
L 235.713926 110.642759 
L 235.822244 110.588357 
L 236.103215 110.479552 
L 236.192495 110.445551 
L 236.412414 110.336747 
L 236.476749 110.275544 
L 236.783322 110.16674 
L 236.877198 110.078336 
L 237.191649 109.969531 
L 237.286837 109.901529 
L 237.725362 109.792724 
L 237.833024 109.70432 
L 238.076575 109.595516 
L 238.186863 109.541114 
L 238.429758 109.432309 
L 238.538077 109.384707 
L 238.901107 109.275903 
L 238.999578 109.241901 
L 239.208336 109.133097 
L 239.31009 109.065094 
L 239.61535 108.95629 
L 239.654739 108.935889 
L 240.012517 108.827084 
L 240.057157 108.799883 
L 240.382768 108.691079 
L 240.492399 108.636676 
L 240.884314 108.527872 
L 240.93158 108.48707 
L 241.165941 108.378266 
L 241.249313 108.337464 
L 241.525033 108.228659 
L 241.628099 108.187858 
L 241.877559 108.079053 
L 241.987847 108.024651 
L 242.320022 107.915847 
L 242.388952 107.881845 
L 242.727693 107.773041 
L 242.815004 107.711838 
L 243.241055 107.603034 
L 243.324427 107.548631 
L 243.674328 107.439827 
L 243.756387 107.405825 
L 244.080685 107.297021 
L 244.153554 107.235818 
L 244.416143 107.127014 
L 244.454219 107.113413 
L 244.748976 107.004609 
L 244.832348 106.963807 
L 245.148768 106.855003 
L 245.240018 106.773399 
L 245.527554 106.664595 
L 245.632589 106.623793 
L 245.843317 106.514989 
L 245.951636 106.433385 
L 246.322543 106.324581 
L 246.42561 106.290579 
L 246.705268 106.181775 
L 246.809647 106.140973 
L 247.141823 106.032169 
L 247.230447 105.998167 
L 247.651903 105.889363 
L 247.716237 105.855361 
L 247.979483 105.746557 
L 248.079924 105.698955 
L 248.262424 105.59015 
L 248.316911 105.515347 
L 248.662216 105.406543 
L 248.754123 105.372541 
L 249.107962 105.263737 
L 249.207089 105.236536 
L 249.482152 105.127731 
L 249.585218 105.059728 
L 250.040811 104.950924 
L 250.145847 104.896522 
L 250.592249 104.787717 
L 250.69072 104.712914 
L 250.967752 104.60411 
L 251.074758 104.556508 
L 251.312401 104.447703 
L 251.403651 104.393301 
L 251.777841 104.284496 
L 251.871717 104.209693 
L 252.171069 104.100889 
L 252.262975 104.066887 
L 252.4632 103.964883 
L 252.4632 103.958083 
L 252.574144 103.89008 
L 252.830825 103.781276 
L 252.922731 103.733674 
L 253.229305 103.624869 
L 253.285761 103.597668 
L 253.685554 103.488864 
L 253.757766 103.475263 
L 254.057118 103.373259 
L 254.165436 103.291655 
L 254.471353 103.182851 
L 254.565885 103.142049 
L 254.82388 103.033245 
L 254.908565 102.999243 
L 255.21842 102.890439 
L 255.316235 102.829236 
L 255.700272 102.727232 
L 255.792179 102.67283 
L 256.107943 102.564025 
L 256.19591 102.502823 
L 256.438149 102.394018 
L 256.469003 102.366817 
L 256.985648 102.258013 
L 257.095936 102.224011 
L 257.438615 102.115207 
L 257.544307 102.074405 
L 257.842346 101.965601 
L 257.936222 101.911198 
L 258.334702 101.802394 
L 258.425952 101.747992 
L 258.664908 101.639187 
L 258.764036 101.564384 
L 259.081113 101.455579 
L 259.18221 101.414778 
L 259.458585 101.305973 
L 259.569529 101.271972 
L 259.861004 101.163167 
L 259.967352 101.122366 
L 260.275895 101.013561 
L 260.384213 100.945558 
L 260.65665 100.836754 
L 260.73477 100.789152 
L 261.084671 100.680347 
L 261.152288 100.653146 
L 261.537638 100.544342 
L 261.641361 100.455938 
L 261.922988 100.347134 
L 262.014894 100.313132 
L 262.255164 100.204328 
L 262.364795 100.163526 
L 262.635262 100.054722 
L 262.729138 99.979918 
L 263.111862 99.871114 
L 263.179479 99.809911 
L 263.624568 99.701107 
L 263.713849 99.667106 
L 263.904882 99.558301 
L 264.002697 99.490298 
L 264.210143 99.381494 
L 264.305331 99.347492 
L 264.751734 99.245488 
L 264.862021 99.191086 
L 265.20667 99.082281 
L 265.314988 99.021079 
L 265.691148 98.912274 
L 265.799466 98.851072 
L 266.134924 98.742267 
L 266.235365 98.701466 
L 266.501893 98.592661 
L 266.612837 98.524658 
L 266.898403 98.415854 
L 266.988997 98.368252 
L 267.166244 98.266248 
L 267.268654 98.205045 
L 267.629715 98.096241 
L 267.739346 98.001037 
L 268.113536 97.892232 
L 268.192313 97.858231 
L 268.431926 97.749426 
L 268.534992 97.722225 
L 268.909183 97.613421 
L 269.013562 97.579419 
L 269.291907 97.470615 
L 269.364775 97.416213 
L 269.628021 97.307408 
L 269.728462 97.266606 
L 270.055386 97.157802 
L 270.151888 97.089799 
L 270.372463 96.980995 
L 270.483407 96.919792 
L 270.713829 96.810987 
L 270.815583 96.756585 
L 271.082767 96.647781 
L 271.190429 96.593378 
L 271.520636 96.484574 
L 271.599412 96.443772 
L 272.037937 96.334968 
L 272.141003 96.253364 
L 272.376677 96.14456 
L 272.471866 96.069757 
L 272.915642 95.960952 
L 273.010175 95.91335 
L 273.362045 95.804546 
L 273.467737 95.743343 
L 273.78547 95.634539 
L 273.893788 95.566536 
L 274.185919 95.457732 
L 274.266666 95.382928 
L 274.681557 95.274124 
L 274.781998 95.199321 
L 275.009794 95.090516 
L 275.111547 95.029314 
L 275.497554 94.920509 
L 275.607185 94.859307 
L 275.978093 94.750502 
L 276.068686 94.7029 
L 276.488173 94.594096 
L 276.598461 94.539694 
L 276.951644 94.430889 
L 277.046176 94.356086 
L 277.307452 94.247282 
L 277.418397 94.192879 
L 277.78274 94.084075 
L 277.886462 94.029673 
L 278.219951 93.920868 
L 278.330239 93.798463 
L 278.569852 93.689658 
L 278.656506 93.655657 
L 279.085184 93.546853 
L 279.181029 93.506051 
L 279.523708 93.397246 
L 279.6294 93.349644 
L 279.846693 93.24084 
L 279.907745 93.206839 
L 280.303599 93.098034 
L 280.383032 93.070833 
L 280.659408 92.962028 
L 280.725712 92.934827 
L 281.06117 92.826023 
L 281.162923 92.798822 
L 281.445864 92.690017 
L 281.556151 92.656016 
L 281.896205 92.547211 
L 281.999271 92.50641 
L 282.265143 92.397605 
L 282.368209 92.356803 
L 282.724018 92.247999 
L 282.81855 92.193597 
L 283.222938 92.084792 
L 283.315501 92.057591 
L 283.531481 91.948787 
L 283.637173 91.907985 
L 283.88729 91.79918 
L 283.946372 91.78558 
L 284.355356 91.676775 
L 284.392775 91.642774 
L 284.814887 91.533969 
L 284.925831 91.493168 
L 285.285579 91.384363 
L 285.38602 91.323161 
L 285.833078 91.214356 
L 285.938771 91.125952 
L 286.182979 91.017148 
L 286.293923 90.996747 
L 286.704876 90.887943 
L 286.809255 90.83354 
L 287.1434 90.724736 
L 287.224803 90.711135 
L 287.642977 90.602331 
L 287.753921 90.541128 
L 288.102508 90.432324 
L 288.157652 90.384722 
L 288.489828 90.275917 
L 288.589612 90.214715 
L 289.029449 90.10591 
L 289.131859 90.065109 
L 289.49292 89.956304 
L 289.602551 89.895102 
L 289.964925 89.786297 
L 290.056175 89.738695 
L 290.31023 89.636691 
L 290.415922 89.589089 
L 290.882019 89.480284 
L 290.971299 89.398681 
L 290.986398 89.398681 
L 291.386191 89.289877 
L 291.481379 89.228674 
L 291.841783 89.11987 
L 291.950758 89.072268 
L 292.279651 88.963463 
L 292.378779 88.929462 
L 292.640056 88.820657 
L 292.729993 88.779856 
L 293.152105 88.671051 
L 293.261736 88.609848 
L 293.655621 88.501044 
L 293.74884 88.473843 
L 294.182769 88.365038 
L 294.277301 88.337837 
L 294.59963 88.229033 
L 294.681033 88.208632 
L 294.695475 88.208632 
L 295.072291 88.099827 
L 295.171419 88.072626 
L 295.606661 87.963822 
L 295.671652 87.950221 
L 296.003171 87.848217 
L 296.003171 87.841417 
L 296.103612 87.773414 
L 296.488305 87.664609 
L 296.596623 87.610207 
L 297.042369 87.501403 
L 297.087666 87.481002 
L 297.122459 87.481002 
L 297.431002 87.372197 
L 297.531442 87.317795 
L 297.941082 87.208991 
L 298.05137 87.168189 
L 298.421621 87.059384 
L 298.522718 87.004982 
L 298.882465 86.896178 
L 298.987501 86.848576 
L 299.402393 86.739771 
L 299.463445 86.70577 
L 299.888183 86.596965 
L 299.991906 86.549363 
L 300.294541 86.440559 
L 300.384478 86.352155 
L 300.88668 86.243351 
L 300.993029 86.202549 
L 301.322579 86.093744 
L 301.435492 86.039342 
L 301.803774 85.930538 
L 301.914718 85.862535 
L 302.241642 85.75373 
L 302.35193 85.712929 
L 302.699861 85.604124 
L 302.788485 85.563323 
L 303.054357 85.454518 
L 303.123943 85.379715 
L 303.349113 85.27091 
L 303.444302 85.230109 
L 303.823088 85.121304 
L 303.856568 85.066902 
L 304.163798 84.958098 
L 304.227475 84.924096 
L 304.683725 84.815292 
L 304.751342 84.788091 
L 304.776288 84.788091 
L 305.169515 84.679286 
L 305.279803 84.638484 
L 305.676313 84.52968 
L 305.74393 84.502479 
L 305.992734 84.393674 
L 306.103021 84.332472 
L 306.444388 84.223667 
L 306.546141 84.169265 
L 306.771968 84.06046 
L 306.863874 84.04686 
L 307.158631 83.938055 
L 307.255133 83.870053 
L 307.729107 83.761248 
L 307.838738 83.700046 
L 308.203081 83.591241 
L 308.300896 83.536839 
L 308.569394 83.428034 
L 308.651453 83.394033 
L 309.085382 83.285228 
L 309.192387 83.230826 
L 309.483862 83.122022 
L 309.590867 83.07442 
L 310.110138 82.965615 
L 310.217799 82.911213 
L 310.52306 82.802408 
L 310.611027 82.741206 
L 310.934012 82.632401 
L 311.041674 82.5984 
L 311.459848 82.489596 
L 311.549128 82.448794 
L 311.829443 82.339989 
L 311.91741 82.312788 
L 311.92857 82.312788 
L 312.449154 82.203984 
L 312.541717 82.135981 
L 312.820718 82.027176 
L 312.916563 81.959174 
L 313.310448 81.850369 
L 313.399072 81.782366 
L 313.688577 81.673562 
L 313.780483 81.61916 
L 314.183558 81.510355 
L 314.285968 81.469553 
L 314.560374 81.360749 
L 314.670005 81.272345 
L 315.02844 81.163541 
L 315.135445 81.109138 
L 315.459743 81.000334 
L 315.512917 80.959532 
L 315.936343 80.850728 
L 316.032188 80.816726 
L 316.35386 80.707922 
L 316.464148 80.65352 
L 316.682097 80.544715 
L 316.732646 80.510714 
L 317.161323 80.401909 
L 317.241413 80.374708 
L 317.757401 80.265904 
L 317.817141 80.252303 
L 318.092203 80.143499 
L 318.167041 80.102697 
L 318.595719 79.993892 
L 318.690907 79.959891 
L 319.071662 79.851086 
L 319.174072 79.789884 
L 319.383487 79.68788 
L 319.488523 79.640278 
L 319.785249 79.531473 
L 319.857461 79.504272 
L 320.183072 79.402268 
L 320.274322 79.341065 
L 320.509996 79.232261 
L 320.601903 79.198259 
L 320.96362 79.089455 
L 321.069312 79.041853 
L 321.461227 78.933048 
L 321.568232 78.899047 
L 321.860363 78.790243 
L 321.927323 78.749441 
L 322.274598 78.640636 
L 322.356001 78.620236 
L 322.803059 78.511431 
L 322.898248 78.47743 
L 323.27769 78.368625 
L 323.347276 78.321023 
L 323.72081 78.212219 
L 323.815342 78.151016 
L 324.104191 78.042212 
L 324.189532 77.953808 
L 324.20857 77.953808 
L 324.618866 77.845004 
L 324.716024 77.804202 
L 324.924126 77.695397 
L 325.006186 77.634195 
L 325.246455 77.52539 
L 325.340987 77.498189 
L 325.633118 77.389385 
L 325.733559 77.328182 
L 326.111688 77.219378 
L 326.198999 77.137774 
L 326.80558 77.02897 
L 326.906677 76.988168 
L 327.406254 76.879364 
L 327.508664 76.78416 
L 327.884167 76.675355 
L 327.993142 76.600552 
L 328.314157 76.491748 
L 328.414598 76.444146 
L 328.903014 76.335341 
L 328.997547 76.280939 
L 329.274579 76.172134 
L 329.376989 76.124532 
L 329.661242 76.015728 
L 329.759056 75.968126 
L 330.19036 75.859321 
L 330.285548 75.82532 
L 330.664334 75.716516 
L 330.753614 75.675714 
L 331.067409 75.566909 
L 331.173757 75.526108 
L 331.591275 75.417303 
L 331.695654 75.383302 
L 331.926076 75.274497 
L 332.030456 75.192894 
L 332.502461 75.084089 
L 332.610122 75.043288 
L 332.938359 74.934483 
L 333.044051 74.893682 
L 333.302046 74.784877 
L 333.380823 74.757676 
L 333.712998 74.648871 
L 333.811469 74.594469 
L 334.143645 74.485665 
L 334.245399 74.451663 
L 334.609085 74.342859 
L 334.718716 74.295257 
L 335.063365 74.186452 
L 335.17234 74.152451 
L 335.425739 74.043646 
L 335.520271 74.002845 
L 335.667321 73.89404 
L 335.753975 73.846438 
L 336.061205 73.737634 
L 336.159676 73.683231 
L 336.171493 73.683231 
L 336.426205 73.574427 
L 336.535179 73.533625 
L 336.829936 73.424821 
L 336.926438 73.370419 
L 337.398442 73.261614 
L 337.494288 73.227613 
L 338.046382 73.118808 
L 338.133693 73.078006 
L 338.478998 72.969202 
L 338.584034 72.935201 
L 338.58863 72.935201 
L 338.937874 72.826396 
L 339.047505 72.778794 
L 339.327163 72.66999 
L 339.394779 72.635988 
L 339.744024 72.527184 
L 339.805732 72.513583 
L 340.237035 72.404779 
L 340.334194 72.357177 
L 340.788473 72.248372 
L 340.845587 72.221171 
L 341.176449 72.112367 
L 341.280829 72.037563 
L 341.499435 71.928759 
L 341.598562 71.874357 
L 341.850648 71.765552 
L 341.941241 71.697549 
L 342.261601 71.588745 
L 342.358759 71.541143 
L 342.625944 71.432338 
L 342.62857 71.418738 
L 343.208892 71.309933 
L 343.256815 71.275932 
L 343.634288 71.167127 
L 343.692714 71.139926 
L 344.217236 71.031122 
L 344.309799 71.003921 
L 344.674142 70.895116 
L 344.766705 70.827113 
L 345.098224 70.718309 
L 345.201291 70.650306 
L 345.537405 70.541502 
L 345.64638 70.466699 
L 346.115759 70.357894 
L 346.230642 70.323893 
L 346.604832 70.215088 
L 346.680983 70.174286 
L 347.11163 70.065482 
L 347.210757 70.02468 
L 347.605298 69.915876 
L 347.689983 69.881874 
L 348.104874 69.77307 
L 348.199407 69.725468 
L 348.20991 69.725468 
L 348.449523 69.616663 
L 348.547338 69.582662 
L 348.996366 69.473857 
L 349.069891 69.453457 
L 349.320008 69.344652 
L 349.430952 69.30385 
L 350.101868 69.195046 
L 350.20756 69.113443 
L 350.62639 69.004638 
L 350.711076 68.984237 
L 350.986138 68.875433 
L 351.078044 68.848232 
L 351.586155 68.739427 
L 351.596002 68.725827 
L 352.152036 68.617022 
L 352.24066 68.589821 
L 352.622071 68.481016 
L 352.699535 68.460616 
L 353.002169 68.351811 
L 353.061908 68.32461 
L 353.39671 68.215805 
L 353.503715 68.147803 
L 353.793877 68.038998 
L 353.900882 67.998196 
L 354.259973 67.889392 
L 354.351223 67.862191 
L 354.64598 67.753386 
L 354.716879 67.726185 
L 355.162625 67.617381 
L 355.247966 67.556178 
L 355.61034 67.447374 
L 355.683209 67.399772 
L 356.023918 67.290967 
L 356.13158 67.250166 
L 356.388261 67.141361 
L 356.449313 67.10736 
L 356.467038 67.10736 
L 356.908845 66.998555 
L 357.009942 66.964554 
L 357.481947 66.855749 
L 357.586326 66.794547 
L 357.984149 66.685742 
L 358.075399 66.658541 
L 358.483726 66.549737 
L 358.567098 66.502135 
L 359.075865 66.39333 
L 359.148734 66.359329 
L 359.58332 66.250524 
L 359.640433 66.236924 
L 360.08224 66.128119 
L 360.176772 66.094118 
L 360.526673 65.985313 
L 360.62777 65.944512 
L 360.998021 65.835707 
L 361.053821 65.815306 
L 361.477247 65.706502 
L 361.569153 65.692901 
L 361.910519 65.584097 
L 361.910519 65.577296 
L 362.020807 65.577296 
L 362.336571 65.468492 
L 362.43176 65.42089 
L 362.807263 65.312085 
L 362.807263 65.305285 
L 363.197208 65.196481 
L 363.305526 65.16928 
L 363.505751 65.060475 
L 363.615382 65.046874 
L 364.005327 64.93807 
L 364.114959 64.876867 
L 364.546918 64.774863 
L 364.591559 64.747662 
L 365.046495 64.638858 
L 365.137088 64.604856 
L 365.637321 64.496052 
L 365.747609 64.428049 
L 366.429029 64.319244 
L 366.513714 64.285243 
L 366.834073 64.176439 
L 366.920071 64.142437 
L 367.446563 64.033633 
L 367.56079 63.97923 
L 367.902156 63.870426 
L 368.0131 63.836424 
L 368.408298 63.72762 
L 368.518585 63.680018 
L 368.905248 63.571213 
L 369.014223 63.537212 
L 369.249897 63.428408 
L 369.348368 63.380806 
L 369.664132 63.272001 
L 369.771137 63.238 
L 370.141389 63.129195 
L 370.241173 63.081593 
L 370.562845 62.972789 
L 370.649499 62.918387 
L 370.907493 62.809582 
L 371.016468 62.75518 
L 371.272493 62.646375 
L 371.32895 62.619174 
L 371.36046 62.619174 
L 371.888265 62.51037 
L 371.998553 62.462768 
L 372.377995 62.353963 
L 372.450207 62.319962 
L 372.739056 62.211157 
L 372.838183 62.190756 
L 373.164451 62.115953 
L 373.260296 61.993548 
L 373.553083 61.884744 
L 373.660745 61.830342 
L 374.23319 61.721537 
L 374.303433 61.680735 
L 374.774124 61.578731 
L 374.872596 61.510728 
L 375.168665 61.401924 
L 375.260572 61.354322 
L 375.278296 61.354322 
L 375.599969 61.245517 
L 375.680058 61.184315 
L 375.974815 61.07551 
L 376.052279 61.055109 
L 376.357539 60.953105 
L 376.433034 60.905503 
L 376.465858 60.905503 
L 376.723195 60.796699 
L 376.826262 60.701495 
L 377.077691 60.59269 
L 377.187979 60.558689 
L 377.484048 60.449884 
L 377.58252 60.415883 
L 377.586458 60.415883 
L 377.879902 60.307079 
L 377.980343 60.266277 
L 378.23965 60.157472 
L 378.34206 60.123471 
L 378.504209 60.021467 
L 378.504209 60.014666 
L 378.611214 59.967065 
L 378.935512 59.85826 
L 379.04383 59.810658 
L 379.422616 59.701854 
L 379.507301 59.674652 
L 379.532903 59.674652 
L 379.757417 59.565848 
L 379.867705 59.470644 
L 380.034449 59.361839 
L 380.140142 59.314238 
L 380.43096 59.205433 
L 380.525492 59.13743 
L 380.820905 59.035426 
L 380.926597 58.994624 
L 381.306039 58.88582 
L 381.35987 58.845018 
L 381.854851 58.736214 
L 381.945445 58.688612 
L 382.22379 58.607008 
L 382.319635 58.539005 
L 382.586163 58.430201 
L 382.586163 58.423401 
L 382.694481 58.423401 
L 382.839562 58.328197 
L 383.145479 58.219392 
L 383.256423 58.15819 
L 383.556432 58.049385 
L 383.631926 58.001783 
L 384.125594 57.892979 
L 384.224065 57.852177 
L 384.540486 57.743373 
L 384.6383 57.709371 
L 384.996735 57.600567 
L 385.091924 57.566565 
L 385.398497 57.457761 
L 385.461519 57.416959 
L 385.803542 57.308155 
L 385.882975 57.280953 
L 386.294584 57.172149 
L 386.379926 57.131347 
L 386.643828 57.022543 
L 386.730483 56.981741 
L 387.198548 56.872937 
L 387.294394 56.818534 
L 387.577334 56.70973 
L 387.686965 56.662128 
L 387.990912 56.553323 
L 388.082819 56.498921 
L 388.543007 56.390117 
L 388.649356 56.356115 
L 389.040614 56.247311 
L 389.118078 56.22011 
L 389.130551 56.22011 
L 389.636036 56.111305 
L 389.729255 56.063703 
L 390.075217 55.954899 
L 390.182879 55.907297 
L 390.476979 55.798492 
L 390.558382 55.74409 
L 390.990341 55.635285 
L 391.092095 55.587683 
L 391.464972 55.478879 
L 391.553596 55.417676 
L 391.978991 55.308872 
L 392.077462 55.274871 
L 392.522551 55.166066 
L 392.621679 55.111664 
L 393.030662 55.002859 
L 393.128477 54.941657 
L 393.356273 54.832852 
L 393.420608 54.805651 
L 393.44621 54.805651 
L 393.706174 54.696847 
L 393.811866 54.662845 
L 394.170301 54.554041 
L 394.276649 54.52684 
L 394.564841 54.418035 
L 394.672503 54.390834 
L 395.040785 54.28203 
L 395.137287 54.261629 
L 395.442547 54.152824 
L 395.533797 54.112022 
L 395.867942 54.003218 
L 395.936215 53.969217 
L 396.417411 53.860412 
L 396.512599 53.81281 
L 396.969505 53.704006 
L 397.060099 53.683605 
L 397.889882 53.5748 
L 397.889882 53.568 
L 398.487273 53.568 
L 398.487273 53.568 
" clip-path="url(#p56bc49431c)" style="fill: none; stroke: #1f77b4; stroke-width: 1.5; stroke-linecap: square"/>
   </g>
   <g id="line2d_26">
    <path d="M 73.832727 295.488 
L 398.487273 53.568 
" clip-path="url(#p56bc49431c)" style="fill: none; stroke-dasharray: 5.55,2.4; stroke-dashoffset: 0; stroke: #808080; stroke-width: 1.5"/>
   </g>
   <g id="patch_3">
    <path d="M 57.6 307.584 
L 57.6 41.472 
" style="fill: none; stroke: #000000; stroke-width: 0.8; stroke-linejoin: miter; stroke-linecap: square"/>
   </g>
   <g id="patch_4">
    <path d="M 414.72 307.584 
L 414.72 41.472 
" style="fill: none; stroke: #000000; stroke-width: 0.8; stroke-linejoin: miter; stroke-linecap: square"/>
   </g>
   <g id="patch_5">
    <path d="M 57.6 307.584 
L 414.72 307.584 
" style="fill: none; stroke: #000000; stroke-width: 0.8; stroke-linejoin: miter; stroke-linecap: square"/>
   </g>
   <g id="patch_6">
    <path d="M 57.6 41.472 
L 414.72 41.472 
" style="fill: none; stroke: #000000; stroke-width: 0.8; stroke-linejoin: miter; stroke-linecap: square"/>
   </g>
   <g id="text_15">
    <!-- ROC - LightGBM (Strat Label + Patient) -->
    <g transform="translate(119.11125 35.472) scale(0.12 -0.12)">
     <defs>
      <path id="DejaVuSans-4f" d="M 2522 4238 
Q 1834 4238 1429 3725 
Q 1025 3213 1025 2328 
Q 1025 1447 1429 934 
Q 1834 422 2522 422 
Q 3209 422 3611 934 
Q 4013 1447 4013 2328 
Q 4013 3213 3611 3725 
Q 3209 4238 2522 4238 
z
M 2522 4750 
Q 3503 4750 4090 4092 
Q 4678 3434 4678 2328 
Q 4678 1225 4090 567 
Q 3503 -91 2522 -91 
Q 1538 -91 948 565 
Q 359 1222 359 2328 
Q 359 3434 948 4092 
Q 1538 4750 2522 4750 
z
" transform="scale(0.015625)"/>
      <path id="DejaVuSans-43" d="M 4122 4306 
L 4122 3641 
Q 3803 3938 3442 4084 
Q 3081 4231 2675 4231 
Q 1875 4231 1450 3742 
Q 1025 3253 1025 2328 
Q 1025 1406 1450 917 
Q 1875 428 2675 428 
Q 3081 428 3442 575 
Q 3803 722 4122 1019 
L 4122 359 
Q 3791 134 3420 21 
Q 3050 -91 2638 -91 
Q 1578 -91 968 557 
Q 359 1206 359 2328 
Q 359 3453 968 4101 
Q 1578 4750 2638 4750 
Q 3056 4750 3426 4639 
Q 3797 4528 4122 4306 
z
" transform="scale(0.015625)"/>
      <path id="DejaVuSans-20" transform="scale(0.015625)"/>
      <path id="DejaVuSans-2d" d="M 313 2009 
L 1997 2009 
L 1997 1497 
L 313 1497 
L 313 2009 
z
" transform="scale(0.015625)"/>
      <path id="DejaVuSans-4c" d="M 628 4666 
L 1259 4666 
L 1259 531 
L 3531 531 
L 3531 0 
L 628 0 
L 628 4666 
z
" transform="scale(0.015625)"/>
      <path id="DejaVuSans-69" d="M 603 3500 
L 1178 3500 
L 1178 0 
L 603 0 
L 603 3500 
z
M 603 4863 
L 1178 4863 
L 1178 4134 
L 603 4134 
L 603 4863 
z
" transform="scale(0.015625)"/>
      <path id="DejaVuSans-67" d="M 2906 1791 
Q 2906 2416 2648 2759 
Q 2391 3103 1925 3103 
Q 1463 3103 1205 2759 
Q 947 2416 947 1791 
Q 947 1169 1205 825 
Q 1463 481 1925 481 
Q 2391 481 2648 825 
Q 2906 1169 2906 1791 
z
M 3481 434 
Q 3481 -459 3084 -895 
Q 2688 -1331 1869 -1331 
Q 1566 -1331 1297 -1286 
Q 1028 -1241 775 -1147 
L 775 -588 
Q 1028 -725 1275 -790 
Q 1522 -856 1778 -856 
Q 2344 -856 2625 -561 
Q 2906 -266 2906 331 
L 2906 616 
Q 2728 306 2450 153 
Q 2172 0 1784 0 
Q 1141 0 747 490 
Q 353 981 353 1791 
Q 353 2603 747 3093 
Q 1141 3584 1784 3584 
Q 2172 3584 2450 3431 
Q 2728 3278 2906 2969 
L 2906 3500 
L 3481 3500 
L 3481 434 
z
" transform="scale(0.015625)"/>
      <path id="DejaVuSans-68" d="M 3513 2113 
L 3513 0 
L 2938 0 
L 2938 2094 
Q 2938 2591 2744 2837 
Q 2550 3084 2163 3084 
Q 1697 3084 1428 2787 
Q 1159 2491 1159 1978 
L 1159 0 
L 581 0 
L 581 4863 
L 1159 4863 
L 1159 2956 
Q 1366 3272 1645 3428 
Q 1925 3584 2291 3584 
Q 2894 3584 3203 3211 
Q 3513 2838 3513 2113 
z
" transform="scale(0.015625)"/>
      <path id="DejaVuSans-74" d="M 1172 4494 
L 1172 3500 
L 2356 3500 
L 2356 3053 
L 1172 3053 
L 1172 1153 
Q 1172 725 1289 603 
Q 1406 481 1766 481 
L 2356 481 
L 2356 0 
L 1766 0 
Q 1100 0 847 248 
Q 594 497 594 1153 
L 594 3053 
L 172 3053 
L 172 3500 
L 594 3500 
L 594 4494 
L 1172 4494 
z
" transform="scale(0.015625)"/>
      <path id="DejaVuSans-47" d="M 3809 666 
L 3809 1919 
L 2778 1919 
L 2778 2438 
L 4434 2438 
L 4434 434 
Q 4069 175 3628 42 
Q 3188 -91 2688 -91 
Q 1594 -91 976 548 
Q 359 1188 359 2328 
Q 359 3472 976 4111 
Q 1594 4750 2688 4750 
Q 3144 4750 3555 4637 
Q 3966 4525 4313 4306 
L 4313 3634 
Q 3963 3931 3569 4081 
Q 3175 4231 2741 4231 
Q 1884 4231 1454 3753 
Q 1025 3275 1025 2328 
Q 1025 1384 1454 906 
Q 1884 428 2741 428 
Q 3075 428 3337 486 
Q 3600 544 3809 666 
z
" transform="scale(0.015625)"/>
      <path id="DejaVuSans-42" d="M 1259 2228 
L 1259 519 
L 2272 519 
Q 2781 519 3026 730 
Q 3272 941 3272 1375 
Q 3272 1813 3026 2020 
Q 2781 2228 2272 2228 
L 1259 2228 
z
M 1259 4147 
L 1259 2741 
L 2194 2741 
Q 2656 2741 2882 2914 
Q 3109 3088 3109 3444 
Q 3109 3797 2882 3972 
Q 2656 4147 2194 4147 
L 1259 4147 
z
M 628 4666 
L 2241 4666 
Q 2963 4666 3353 4366 
Q 3744 4066 3744 3513 
Q 3744 3084 3544 2831 
Q 3344 2578 2956 2516 
Q 3422 2416 3680 2098 
Q 3938 1781 3938 1306 
Q 3938 681 3513 340 
Q 3088 0 2303 0 
L 628 0 
L 628 4666 
z
" transform="scale(0.015625)"/>
      <path id="DejaVuSans-4d" d="M 628 4666 
L 1569 4666 
L 2759 1491 
L 3956 4666 
L 4897 4666 
L 4897 0 
L 4281 0 
L 4281 4097 
L 3078 897 
L 2444 897 
L 1241 4097 
L 1241 0 
L 628 0 
L 628 4666 
z
" transform="scale(0.015625)"/>
      <path id="DejaVuSans-28" d="M 1984 4856 
Q 1566 4138 1362 3434 
Q 1159 2731 1159 2009 
Q 1159 1288 1364 580 
Q 1569 -128 1984 -844 
L 1484 -844 
Q 1016 -109 783 600 
Q 550 1309 550 2009 
Q 550 2706 781 3412 
Q 1013 4119 1484 4856 
L 1984 4856 
z
" transform="scale(0.015625)"/>
      <path id="DejaVuSans-53" d="M 3425 4513 
L 3425 3897 
Q 3066 4069 2747 4153 
Q 2428 4238 2131 4238 
Q 1616 4238 1336 4038 
Q 1056 3838 1056 3469 
Q 1056 3159 1242 3001 
Q 1428 2844 1947 2747 
L 2328 2669 
Q 3034 2534 3370 2195 
Q 3706 1856 3706 1288 
Q 3706 609 3251 259 
Q 2797 -91 1919 -91 
Q 1588 -91 1214 -16 
Q 841 59 441 206 
L 441 856 
Q 825 641 1194 531 
Q 1563 422 1919 422 
Q 2459 422 2753 634 
Q 3047 847 3047 1241 
Q 3047 1584 2836 1778 
Q 2625 1972 2144 2069 
L 1759 2144 
Q 1053 2284 737 2584 
Q 422 2884 422 3419 
Q 422 4038 858 4394 
Q 1294 4750 2059 4750 
Q 2388 4750 2728 4690 
Q 3069 4631 3425 4513 
z
" transform="scale(0.015625)"/>
      <path id="DejaVuSans-72" d="M 2631 2963 
Q 2534 3019 2420 3045 
Q 2306 3072 2169 3072 
Q 1681 3072 1420 2755 
Q 1159 2438 1159 1844 
L 1159 0 
L 581 0 
L 581 3500 
L 1159 3500 
L 1159 2956 
Q 1341 3275 1631 3429 
Q 1922 3584 2338 3584 
Q 2397 3584 2469 3576 
Q 2541 3569 2628 3553 
L 2631 2963 
z
" transform="scale(0.015625)"/>
      <path id="DejaVuSans-61" d="M 2194 1759 
Q 1497 1759 1228 1600 
Q 959 1441 959 1056 
Q 959 750 1161 570 
Q 1363 391 1709 391 
Q 2188 391 2477 730 
Q 2766 1069 2766 1631 
L 2766 1759 
L 2194 1759 
z
M 3341 1997 
L 3341 0 
L 2766 0 
L 2766 531 
Q 2569 213 2275 61 
Q 1981 -91 1556 -91 
Q 1019 -91 701 211 
Q 384 513 384 1019 
Q 384 1609 779 1909 
Q 1175 2209 1959 2209 
L 2766 2209 
L 2766 2266 
Q 2766 2663 2505 2880 
Q 2244 3097 1772 3097 
Q 1472 3097 1187 3025 
Q 903 2953 641 2809 
L 641 3341 
Q 956 3463 1253 3523 
Q 1550 3584 1831 3584 
Q 2591 3584 2966 3190 
Q 3341 2797 3341 1997 
z
" transform="scale(0.015625)"/>
      <path id="DejaVuSans-62" d="M 3116 1747 
Q 3116 2381 2855 2742 
Q 2594 3103 2138 3103 
Q 1681 3103 1420 2742 
Q 1159 2381 1159 1747 
Q 1159 1113 1420 752 
Q 1681 391 2138 391 
Q 2594 391 2855 752 
Q 3116 1113 3116 1747 
z
M 1159 2969 
Q 1341 3281 1617 3432 
Q 1894 3584 2278 3584 
Q 2916 3584 3314 3078 
Q 3713 2572 3713 1747 
Q 3713 922 3314 415 
Q 2916 -91 2278 -91 
Q 1894 -91 1617 61 
Q 1341 213 1159 525 
L 1159 0 
L 581 0 
L 581 4863 
L 1159 4863 
L 1159 2969 
z
" transform="scale(0.015625)"/>
      <path id="DejaVuSans-65" d="M 3597 1894 
L 3597 1613 
L 953 1613 
Q 991 1019 1311 708 
Q 1631 397 2203 397 
Q 2534 397 2845 478 
Q 3156 559 3463 722 
L 3463 178 
Q 3153 47 2828 -22 
Q 2503 -91 2169 -91 
Q 1331 -91 842 396 
Q 353 884 353 1716 
Q 353 2575 817 3079 
Q 1281 3584 2069 3584 
Q 2775 3584 3186 3129 
Q 3597 2675 3597 1894 
z
M 3022 2063 
Q 3016 2534 2758 2815 
Q 2500 3097 2075 3097 
Q 1594 3097 1305 2825 
Q 1016 2553 972 2059 
L 3022 2063 
z
" transform="scale(0.015625)"/>
      <path id="DejaVuSans-6c" d="M 603 4863 
L 1178 4863 
L 1178 0 
L 603 0 
L 603 4863 
z
" transform="scale(0.015625)"/>
      <path id="DejaVuSans-2b" d="M 2944 4013 
L 2944 2272 
L 4684 2272 
L 4684 1741 
L 2944 1741 
L 2944 0 
L 2419 0 
L 2419 1741 
L 678 1741 
L 678 2272 
L 2419 2272 
L 2419 4013 
L 2944 4013 
z
" transform="scale(0.015625)"/>
      <path id="DejaVuSans-6e" d="M 3513 2113 
L 3513 0 
L 2938 0 
L 2938 2094 
Q 2938 2591 2744 2837 
Q 2550 3084 2163 3084 
Q 1697 3084 1428 2787 
Q 1159 2491 1159 1978 
L 1159 0 
L 581 0 
L 581 3500 
L 1159 3500 
L 1159 2956 
Q 1366 3272 1645 3428 
Q 1925 3584 2291 3584 
Q 2894 3584 3203 3211 
Q 3513 2838 3513 2113 
z
" transform="scale(0.015625)"/>
      <path id="DejaVuSans-29" d="M 513 4856 
L 1013 4856 
Q 1481 4119 1714 3412 
Q 1947 2706 1947 2009 
Q 1947 1309 1714 600 
Q 1481 -109 1013 -844 
L 513 -844 
Q 928 -128 1133 580 
Q 1338 1288 1338 2009 
Q 1338 2731 1133 3434 
Q 928 4138 513 4856 
z
" transform="scale(0.015625)"/>
     </defs>
     <use xlink:href="#DejaVuSans-52"/>
     <use xlink:href="#DejaVuSans-4f" x="69.482422"/>
     <use xlink:href="#DejaVuSans-43" x="148.193359"/>
     <use xlink:href="#DejaVuSans-20" x="218.017578"/>
     <use xlink:href="#DejaVuSans-2d" x="249.804688"/>
     <use xlink:href="#DejaVuSans-20" x="285.888672"/>
     <use xlink:href="#DejaVuSans-4c" x="317.675781"/>
     <use xlink:href="#DejaVuSans-69" x="373.388672"/>
     <use xlink:href="#DejaVuSans-67" x="401.171875"/>
     <use xlink:href="#DejaVuSans-68" x="464.648438"/>
     <use xlink:href="#DejaVuSans-74" x="528.027344"/>
     <use xlink:href="#DejaVuSans-47" x="567.236328"/>
     <use xlink:href="#DejaVuSans-42" x="644.726562"/>
     <use xlink:href="#DejaVuSans-4d" x="713.330078"/>
     <use xlink:href="#DejaVuSans-20" x="799.609375"/>
     <use xlink:href="#DejaVuSans-28" x="831.396484"/>
     <use xlink:href="#DejaVuSans-53" x="870.410156"/>
     <use xlink:href="#DejaVuSans-74" x="933.886719"/>
     <use xlink:href="#DejaVuSans-72" x="973.095703"/>
     <use xlink:href="#DejaVuSans-61" x="1014.208984"/>
     <use xlink:href="#DejaVuSans-74" x="1075.488281"/>
     <use xlink:href="#DejaVuSans-20" x="1114.697266"/>
     <use xlink:href="#DejaVuSans-4c" x="1146.484375"/>
     <use xlink:href="#DejaVuSans-61" x="1202.197266"/>
     <use xlink:href="#DejaVuSans-62" x="1263.476562"/>
     <use xlink:href="#DejaVuSans-65" x="1326.953125"/>
     <use xlink:href="#DejaVuSans-6c" x="1388.476562"/>
     <use xlink:href="#DejaVuSans-20" x="1416.259766"/>
     <use xlink:href="#DejaVuSans-2b" x="1448.046875"/>
     <use xlink:href="#DejaVuSans-20" x="1531.835938"/>
     <use xlink:href="#DejaVuSans-50" x="1563.623047"/>
     <use xlink:href="#DejaVuSans-61" x="1619.425781"/>
     <use xlink:href="#DejaVuSans-74" x="1680.705078"/>
     <use xlink:href="#DejaVuSans-69" x="1719.914062"/>
     <use xlink:href="#DejaVuSans-65" x="1747.697266"/>
     <use xlink:href="#DejaVuSans-6e" x="1809.220703"/>
     <use xlink:href="#DejaVuSans-74" x="1872.599609"/>
     <use xlink:href="#DejaVuSans-29" x="1911.808594"/>
    </g>
   </g>
   <g id="legend_1">
    <g id="patch_7">
     <path d="M 64.6 64.150125 
L 167.46875 64.150125 
Q 169.46875 64.150125 169.46875 62.150125 
L 169.46875 48.472 
Q 169.46875 46.472 167.46875 46.472 
L 64.6 46.472 
Q 62.6 46.472 62.6 48.472 
L 62.6 62.150125 
Q 62.6 64.150125 64.6 64.150125 
z
" style="fill: #ffffff; opacity: 0.8; stroke: #cccccc; stroke-linejoin: miter"/>
    </g>
    <g id="line2d_27">
     <path d="M 66.6 54.570438 
L 76.6 54.570438 
L 86.6 54.570438 
" style="fill: none; stroke: #1f77b4; stroke-width: 1.5; stroke-linecap: square"/>
    </g>
    <g id="text_16">
     <!-- AUC = 0.7063 -->
     <g transform="translate(94.6 58.070438) scale(0.1 -0.1)">
      <defs>
       <path id="DejaVuSans-41" d="M 2188 4044 
L 1331 1722 
L 3047 1722 
L 2188 4044 
z
M 1831 4666 
L 2547 4666 
L 4325 0 
L 3669 0 
L 3244 1197 
L 1141 1197 
L 716 0 
L 50 0 
L 1831 4666 
z
" transform="scale(0.015625)"/>
       <path id="DejaVuSans-55" d="M 556 4666 
L 1191 4666 
L 1191 1831 
Q 1191 1081 1462 751 
Q 1734 422 2344 422 
Q 2950 422 3222 751 
Q 3494 1081 3494 1831 
L 3494 4666 
L 4128 4666 
L 4128 1753 
Q 4128 841 3676 375 
Q 3225 -91 2344 -91 
Q 1459 -91 1007 375 
Q 556 841 556 1753 
L 556 4666 
z
" transform="scale(0.015625)"/>
       <path id="DejaVuSans-3d" d="M 678 2906 
L 4684 2906 
L 4684 2381 
L 678 2381 
L 678 2906 
z
M 678 1631 
L 4684 1631 
L 4684 1100 
L 678 1100 
L 678 1631 
z
" transform="scale(0.015625)"/>
       <path id="DejaVuSans-37" d="M 525 4666 
L 3525 4666 
L 3525 4397 
L 1831 0 
L 1172 0 
L 2766 4134 
L 525 4134 
L 525 4666 
z
" transform="scale(0.015625)"/>
       <path id="DejaVuSans-33" d="M 2597 2516 
Q 3050 2419 3304 2112 
Q 3559 1806 3559 1356 
Q 3559 666 3084 287 
Q 2609 -91 1734 -91 
Q 1441 -91 1130 -33 
Q 819 25 488 141 
L 488 750 
Q 750 597 1062 519 
Q 1375 441 1716 441 
Q 2309 441 2620 675 
Q 2931 909 2931 1356 
Q 2931 1769 2642 2001 
Q 2353 2234 1838 2234 
L 1294 2234 
L 1294 2753 
L 1863 2753 
Q 2328 2753 2575 2939 
Q 2822 3125 2822 3475 
Q 2822 3834 2567 4026 
Q 2313 4219 1838 4219 
Q 1578 4219 1281 4162 
Q 984 4106 628 3988 
L 628 4550 
Q 988 4650 1302 4700 
Q 1616 4750 1894 4750 
Q 2613 4750 3031 4423 
Q 3450 4097 3450 3541 
Q 3450 3153 3228 2886 
Q 3006 2619 2597 2516 
z
" transform="scale(0.015625)"/>
      </defs>
      <use xlink:href="#DejaVuSans-41"/>
      <use xlink:href="#DejaVuSans-55" x="68.408203"/>
      <use xlink:href="#DejaVuSans-43" x="141.601562"/>
      <use xlink:href="#DejaVuSans-20" x="211.425781"/>
      <use xlink:href="#DejaVuSans-3d" x="243.212891"/>
      <use xlink:href="#DejaVuSans-20" x="327.001953"/>
      <use xlink:href="#DejaVuSans-30" x="358.789062"/>
      <use xlink:href="#DejaVuSans-2e" x="422.412109"/>
      <use xlink:href="#DejaVuSans-37" x="454.199219"/>
      <use xlink:href="#DejaVuSans-30" x="517.822266"/>
      <use xlink:href="#DejaVuSans-36" x="581.445312"/>
      <use xlink:href="#DejaVuSans-33" x="645.068359"/>
     </g>
    </g>
   </g>
  </g>
 </g>
 <defs>
  <clipPath id="p56bc49431c">
   <rect x="57.6" y="41.472" width="357.12" height="266.112"/>
  </clipPath>
 </defs>
</svg>
